<?xml version="1.0"?>
<svg xmlns:rdf="http://www.w3.org/1999/02/22-rdf-syntax-ns#" xmlns="http://www.w3.org/2000/svg" xmlns:cc="http://creativecommons.org/ns#" xmlns:xlink="http://www.w3.org/1999/xlink" xmlns:dc="http://purl.org/dc/elements/1.1/" xmlns:svg="http://www.w3.org/2000/svg" id="svg2" viewBox="0 0 590.72 660.82" version="1.0">
  <defs id="defs4">
    <linearGradient id="linearGradient8063">
      <stop id="stop8065" stop-color="#d01a75" offset="0"/>
      <stop id="stop8067" stop-color="#ffb2ba" stop-opacity=".96863" offset="1"/>
    </linearGradient>
    <linearGradient id="linearGradient7981">
      <stop id="stop7983" stop-color="#ffe7e5" offset="0"/>
      <stop id="stop7987" stop-color="#ff6d9f" offset=".82143"/>
      <stop id="stop7985" stop-color="#ff3a7a" offset="1"/>
    </linearGradient>
    <linearGradient id="linearGradient7957">
      <stop id="stop7959" stop-color="#ffe7e5" offset="0"/>
      <stop id="stop7961" stop-color="#ff67ad" offset="1"/>
    </linearGradient>
    <linearGradient id="linearGradient7949">
      <stop id="stop7951" stop-color="#d00000" offset="0"/>
      <stop id="stop7953" stop-color="#ff8f7a" stop-opacity=".96875" offset="1"/>
    </linearGradient>
    <linearGradient id="linearGradient7909">
      <stop id="stop7911" stop-color="#ffe7e5" offset="0"/>
      <stop id="stop7913" stop-color="#ffaae5" offset="1"/>
    </linearGradient>
    <radialGradient id="radialGradient8285" spreadMethod="reflect" gradientUnits="userSpaceOnUse" cy="742.33" cx="1448.5" gradientTransform="matrix(.3678 -.10554 .30017 .93464 677.82 197.7)" r="83.176">
      <stop id="stop8252" stop-color="#052" offset="0"/>
      <stop id="stop8254" stop-color="#008722" offset="1"/>
    </radialGradient>
    <radialGradient id="radialGradient8287" xlink:href="#linearGradient7981" spreadMethod="reflect" gradientUnits="userSpaceOnUse" cy="262.29" cx="1294.8" gradientTransform="matrix(1.1054 .59440 -.30481 .56686 -29.609 -619.53)" r="284.51"/>
    <radialGradient id="radialGradient8289" xlink:href="#linearGradient7981" spreadMethod="reflect" gradientUnits="userSpaceOnUse" cy="486.34" cx="1316.9" gradientTransform="matrix(1.3317 .12124 -.10453 .93792 -430.61 -90.825)" r="134.06"/>
    <linearGradient id="linearGradient8291" x1="1391.3" xlink:href="#linearGradient7949" spreadMethod="reflect" gradientUnits="userSpaceOnUse" y1="573.59" gradientTransform="matrix(1.2897 0 0 1.1657 -422.69 -78.496)" x2="1307" y2="567.39"/>
    <linearGradient id="linearGradient8293" x1="1124.9" xlink:href="#linearGradient7949" spreadMethod="repeat" gradientUnits="userSpaceOnUse" y1="535.33" gradientTransform="matrix(.92364 -.31566 .24191 1 -23.702 397.29)" x2="1140" y2="474.79"/>
    <radialGradient id="radialGradient8295" xlink:href="#linearGradient7981" spreadMethod="repeat" gradientUnits="userSpaceOnUse" cy="449.72" cx="1141.3" gradientTransform="matrix(.99790 -.064736 .036718 .56599 -15.388 294.13)" r="126.83"/>
    <linearGradient id="linearGradient8297" x1="1124.9" xlink:href="#linearGradient7949" spreadMethod="repeat" gradientUnits="userSpaceOnUse" y1="535.33" x2="1140" y2="474.79"/>
    <radialGradient id="radialGradient8299" xlink:href="#linearGradient8063" spreadMethod="reflect" gradientUnits="userSpaceOnUse" cy="420" cx="1186.3" gradientTransform="matrix(.97026 .24206 -.0998 .40003 77.196 -49.144)" r="93.324"/>
    <linearGradient id="linearGradient8301" x1="1080.6" xlink:href="#linearGradient7949" spreadMethod="repeat" gradientUnits="userSpaceOnUse" y1="359.39" x2="1276.9" y2="428.62"/>
    <linearGradient id="linearGradient8303" x1="1353" xlink:href="#linearGradient7949" spreadMethod="reflect" gradientUnits="userSpaceOnUse" y1="507.68" gradientTransform="matrix(.91624 -.25055 .33430 1 -64.821 342.51)" x2="1293.5" y2="445"/>
    <radialGradient id="radialGradient8305" xlink:href="#linearGradient7957" spreadMethod="reflect" gradientUnits="userSpaceOnUse" cy="418.59" cx="1167" gradientTransform="matrix(.55833 .12488 -.054255 .24257 586.38 180.23)" r="140.13"/>
    <linearGradient id="linearGradient8307" x1="1353" xlink:href="#linearGradient7949" spreadMethod="reflect" gradientUnits="userSpaceOnUse" y1="507.68" x2="1293.5" y2="445"/>
    <linearGradient id="linearGradient8309" x1="1540.6" xlink:href="#linearGradient8063" spreadMethod="reflect" gradientUnits="userSpaceOnUse" y1="426.1" gradientTransform="matrix(1.0965 .090953 0 .79553 -140.35 -47.653)" x2="1558.3" y2="494.73"/>
    <radialGradient id="radialGradient8311" spreadMethod="reflect" gradientUnits="userSpaceOnUse" cy="784.56" cx="1479.1" gradientTransform="matrix(.31017 -.29244 .50484 .53545 565.44 529.01)" r="99.708">
      <stop id="stop8133" stop-color="#d01a75" offset="0"/>
      <stop id="stop8135" stop-color="#ff4fa0" offset="1"/>
    </radialGradient>
    <radialGradient id="radialGradient8313" spreadMethod="reflect" gradientUnits="userSpaceOnUse" cy="355.99" cx="1208.9" gradientTransform="matrix(1.1491 .11194 -.033824 .32458 -168.01 148.34)" r="79.917">
      <stop id="stop7885" stop-color="#ffa2b5" offset="0"/>
      <stop id="stop7887" stop-color="#ffdde5" offset="1"/>
    </radialGradient>
    <radialGradient id="radialGradient8315" xlink:href="#linearGradient7909" spreadMethod="repeat" gradientUnits="userSpaceOnUse" cy="397.65" cx="1253.6" gradientTransform="matrix(-.55674 .0000057565 -.000010747 -.84122 1951.5 733.71)" r="79.917"/>
    <linearGradient id="linearGradient8317" x1="1255.4" xlink:href="#linearGradient8063" spreadMethod="reflect" gradientUnits="userSpaceOnUse" y1="454.39" x2="1230.9" y2="390.75"/>
    <radialGradient id="radialGradient8319" xlink:href="#linearGradient7957" gradientUnits="userSpaceOnUse" cy="335.89" cx="1313.1" gradientTransform="matrix(1.0239 -.45216 1.4025 3.1757 -502.4 -141.08)" r="75.526"/>
    <linearGradient id="linearGradient8321" x1="1340" xlink:href="#linearGradient7949" spreadMethod="reflect" gradientUnits="userSpaceOnUse" y1="297.71" x2="1303.8" y2="274.43"/>
    <radialGradient id="radialGradient8323" spreadMethod="reflect" gradientUnits="userSpaceOnUse" cy="400.6" cx="1550.7" gradientTransform="matrix(.34767 -.76005 1.001 .34624 609.33 1359.4)" r="79.543">
      <stop id="stop8208" stop-color="#ff1d77" offset="0"/>
      <stop id="stop8210" stop-color="#ffdae5" stop-opacity=".96863" offset="1"/>
    </radialGradient>
    <radialGradient id="radialGradient8325" xlink:href="#linearGradient7981" spreadMethod="reflect" gradientUnits="userSpaceOnUse" cy="437.89" cx="1495.4" gradientTransform="matrix(1.9026 -.14631 .031932 .41522 -1363.7 474.87)" r="101.09"/>
    <linearGradient id="linearGradient8327" x1="1495.4" xlink:href="#linearGradient7949" spreadMethod="repeat" gradientUnits="userSpaceOnUse" y1="437.89" x2="1579.4" y2="467.48"/>
    <radialGradient id="radialGradient8329" xlink:href="#linearGradient8063" spreadMethod="reflect" gradientUnits="userSpaceOnUse" cy="416.15" cx="1437.5" gradientTransform="matrix(.54109 .56295 -.67144 .52525 917.81 -607.88)" r="85.281"/>
    <radialGradient id="radialGradient8331" spreadMethod="repeat" gradientUnits="userSpaceOnUse" cy="402.7" cx="1430.2" gradientTransform="matrix(.49803 .55669 -1.3971 .34943 1258.5 -546.24)" r="85.281">
      <stop id="stop7851" stop-color="red" stop-opacity=".5625" offset="0"/>
      <stop id="stop7853" stop-color="#ffa7cf" stop-opacity=".6875" offset="1"/>
    </radialGradient>
    <radialGradient id="radialGradient8333" spreadMethod="reflect" gradientUnits="userSpaceOnUse" cy="374.65" cx="1257.4" gradientTransform="matrix(.77633 -.44968 .69206 1.1948 74.798 515.65)" r="110.89">
      <stop id="stop8235" stop-color="#ffa2c7" offset="0"/>
      <stop id="stop8237" stop-color="#ff0067" offset="1"/>
    </radialGradient>
    <radialGradient id="radialGradient8335" xlink:href="#linearGradient7909" gradientUnits="userSpaceOnUse" cy="390.67" cx="1431.6" gradientTransform="matrix(2.5083 4.182 -1.2115 .76992 -1688.8 -5894.4)" r="26.203"/>
    <linearGradient id="linearGradient8337" x1="1475.4" xlink:href="#linearGradient7949" spreadMethod="repeat" gradientUnits="userSpaceOnUse" y1="409.54" gradientTransform="matrix(1.1855 0 0 1.1438 -265.03 -60.979)" x2="1428.7" y2="397.13"/>
    <linearGradient id="linearGradient8339" x1="1388.8" xlink:href="#linearGradient8063" gradientUnits="userSpaceOnUse" x2="1319.9" y1="539.97" y2="589.64"/>
    <radialGradient id="radialGradient8341" xlink:href="#linearGradient7957" gradientUnits="userSpaceOnUse" cy="317.35" cx="1480.4" gradientTransform="matrix(1.8116 .000014809 -.0000093683 1.146 -1196.9 -38.604)" r="84.151"/>
  </defs>
  <g id="layer2" transform="translate(-128 -24.372)">
    <g id="g8497" opacity=".76374" fill-rule="evenodd" transform="matrix(1.0444 0 -.031210 .66286 -650.68 50.602)" stroke="#000" stroke-width=".65432px" fill="#520">
      <path id="path8499" opacity=".1" d="m1021.9 273.47c-3.5 11.16-9.4 21.59-15.6 31.5-4.8 7.99-18.18 4.78-21.11 14.28-3.07 11.56-6.55 23.41-10.88 34.5-4.61 5.16-12.51 0.54-16.81-2.94-5.56-5.06-7.04-14.32-11.12-19.31-0.72 5.14-3.22 10.58-9.04 11.06-6.64 1.81-11.89-4.71-11.75-10.87-1.14-6.06-4.93-13.49-10.87-15.07-2.63 7.82-9 16.41-5.28 24.85 3.68 5.97 10.58 14.34 4.45 21.07-2.09 3.47-6.77 7.68-2.89 11.65 3.04 5.63 6.93 11.6 13.34 13.9-3.31 4.8-5.42 11.67-10.22 14.63-3.17 1.74 1.14 12.59-3.12 10.39-21.96-15.1-49.42-26.87-76.28-19.92-10.1 7.08-17.69 20.57-11.84 32.69 5.32 12.75 17.23 21.1 28.15 28.59 5.24 5.31 7.96 12.22 11.25 18.81-6.46-2.86-12.83-5.81-20.03-5.34-18.9-1.5-39.06-8.8-57.28-0.41-15.08 9.7-17.77 30.93-12.6 46.81 4.33 15.37 9.99 31.02 22.1 42.16 8.57 8.63 19.01 15.04 29.56 20.94-12.4 11.59-25.62 22.8-34.72 37.28 12.74 1.02 24.91 6.99 37.89 4.23 7.15-1.43-2.76 6.08-3.95 9.14-3.84 4.46-6.41 12.59-0.28 16.38 13.66 8.26 30.98 7.34 46.15 4.62 4.86-1.02 9.46-2.93 14.16-4.5-0.69 9.4-2.59 23.1 7.72 28 6.71 2.62 14.65 5.65 17.03 13.32 13.52 21.39 37.78 32.91 60.92 40.67 3.33 2.25 11.95 0.9 11.63 5.36-9.17 48.99-5.99 100.16 10.01 147.31 3.61 10.61 7.52 21.88 12.11 31.59 1.3-2.49 7.2-0.08 4.9-3.34-12.97-34.68-26.62-70.4-25.23-108.12 0.34-22.7 3.76-45.17 7.32-67.54 23.21 3.66 48.51 4.07 69.21-8.5 9.1 3.12 15.2 10.88 22.8 16.16 3.7 2.32 5 5.54 5.7 9.59 4.1 9.68 17 12.83 25.7 7.29 11.6-6.05 19.8-16.74 31-23.5 13.5-9.76 17.9-28.2 13.1-43.69-0.9-3.86-0.4-7.86-0.2-11.78 6.6 1.78 13.1 5.59 20.2 4.21 8.8 4.77 17.4 11.57 19.9 21.76 3.2 7.58 9.4 12.86 16.1 17.23 11.9 8.32 23.2 17.64 32.7 28.51 6.1 5.55 14.6 9.63 22.8 9.32 2.4-3.15 4.9-8.89 0.3-11.57-13.3-14.69-20.7-33.65-29.8-51.12-4.3-6.13 1.6-6.23 6.5-6.13 6-0.18 11.7 2.58 16.8 5.04 10-5.39 15.2-16.65 25.4-21.82 6.4-3.58 4.8-14.31 13.1-15.46 6.6-0.6 13 2.09 19.6 2.28-4.2-9.02-2.3-19.28-0.3-28.54 1.1-7.24-3.8-14-10.9-15.74-10.7-4.03-23.9-5.67-31.6-14.83-4.1-8.79-4.8-19.17-11.6-26.67 4.7-2.05 9.9-2.35 14.7-2.82 7.5-5.91 9.8-19.02 20.8-20.4 4.2-0.86 8.7-1.09 11.1-5.32 6.6-5.2 4.5-16.1-1.6-20.81-4.8-5.5-11.2-8.93-17.8-11.59 6.3-12.5 7.6-26.91 15.1-38.85 5.7-7.55 5.8-17.59 2.3-26.12-0.2-7.31 3.5-15.12 0.1-22.22-2.8-9.61-10.1-16.81-17.3-23.13-3-3.87-7.8-7.51-12.9-5.68-15.7-5.96-32.5-4-48.9-4.88-11.9 1.39-24.4 4.98-32 14.85-4 3.15-10.5 8.59-15.1 3.21-3.9-8.6 5.9-16.35 4.6-25.21 0.6-8.83 3.2-19.5-2.7-27.07-6.2-2.63-13.7 0.54-19.9-3.2-8.4-2.22-16.9-4.95-23.1-11.39-9.5-6.82-18.6-14.79-30.1-18-8.5-4.03-13.6-13.53-23.4-15.06-7.7-1.53-13.3-7.21-18.6-12.47-6.9-3.98-14.6-6.53-22.2-8.66-7.4 0.07-15.7-1.76-19.5-8.78-2.4-2.2-5.6-5.76-7.9-6.81z"/>
      <path id="path8504" opacity=".1" d="m1021.6 271.72c-3.9 11.49-9.6 22.34-16.1 32.59-5 7.81-18.5 4.77-21.28 14.6-3 11.52-6.55 23.15-10.72 34.21-3.92 4.38-10.58 0.28-14.44-2.31-6.69-5.48-8-16.31-13.03-21.84-1.43 4.83-1.89 11.7-8.19 12.44-6.29 2.21-11.49-4.02-11.25-9.91-1.18-6.95-5.6-14.34-12.43-16.38-2.67 8.56-9.89 17.92-5.5 27 3.35 5.65 10.18 13.51 4.39 19.85-2.4 3.76-7.21 8.48-2.93 12.81 3.12 5.4 6.62 11.33 12.82 13.72-2.9 4.36-4.97 10.35-9.1 13.22-3.66 1.32-0.95 7.5-2.09 10.66-22.17-15.22-49.8-27.16-77-20.26-10.99 6.93-18.88 21.57-12.81 34.16 5.34 13.15 17.88 21.41 28.84 29.53 4.36 4.36 6.67 10.05 9.38 15.5-5.91-3.2-12.13-4.57-18.78-4.48-18.74-1.7-38.92-8.65-56.94-0.17-15.68 10.04-18.44 32.2-12.85 48.75 4.36 15.3 10.16 30.76 22.16 41.81 8.32 8.35 18.33 14.7 28.56 20.4-12.52 11.78-25.96 23.13-34.75 38.07 13.17 0.35 25.32 7.12 38.7 4.34 4.47-0.28-3.79 5.95-4.76 8.78-3.79 4.81-5.11 12.94 0.97 16.57 13.91 8.39 31.54 7.49 46.97 4.68 4.38-0.87 8.5-2.58 12.75-4-0.95 9.51-1.88 22.82 8.53 27.5 6.64 2.61 14.22 5.52 16.53 13.06 13.67 21.48 38.1 33.11 61.36 40.95 3.2 2.07 11.25 0.85 10.81 5.12-9.05 48.78-5.73 99.99 10.19 146.87 3.81 11.17 8.01 23.14 12.79 33.25 1.6-2.57 5.2-3.21 7.7-1.78-13.46-35.94-28.14-72.55-26.7-111.65 0.34-22.32 3.63-44.42 7.16-66.41 22.94 3.63 47.94 3.76 68.44-8.5 8.7 3.16 14.6 10.66 22 15.78 3.3 2.19 4.9 4.9 5.2 8.72 4.1 10.53 18.1 14.25 27.4 8.31 11.7-6.08 19.9-16.79 31.2-23.59 13.7-9.99 18.3-28.82 13.4-44.66-0.7-3.38-0.5-6.82-0.3-10.25 6.2 1.76 12.4 5.14 19 3.91 8.6 4.58 16.9 11.18 19.3 21.09 3.4 8.11 10.1 13.52 17.2 18.25 11.6 8.07 22.4 17.21 31.8 27.81 6.2 5.8 15 9.89 23.6 9.63 2.8-2.06 4.7-7.32 3.4-10.56-14.7-15.08-22.5-35-32.1-53.5-3.9-5.41 2.6-4.74 6.4-4.72 5.7-0.07 10.9 2.71 15.8 5 5.2-1.85 9-6.94 13.1-10.53 3.9-5.72 9.9-9.39 15.4-13.41 4.1-4.16 3.7-13.09 11.1-13.47 6.6-0.33 13.8 2.98 20 2.13-4.2-8.82-3-19.31-0.6-28.44 1.2-7.53-3.1-15.09-10.6-17.19-10.8-4.3-24.2-5.63-32-14.81-4-8.28-4.6-18.22-10.8-25.5 4.2-2.19 9.1-1.6 13.3-2.47 7.5-5.15 9.2-16.93 18.5-19.75 4.9-1.63 11-0.9 13.8-6.19 7-5.51 5-17.22-1.6-22.25-4.6-5.28-10.6-8.84-17.1-11.37 6-12.23 7.3-26.23 14.6-37.85 5.8-7.79 5.9-18.17 2.4-26.93 0.3-7.72 3.4-15.85-0.3-23.35-3-9.26-10.1-16.09-17.1-22.31-3.2-4.09-8.2-7.89-13.6-6.12-15.8-5.89-32.7-4-49.1-4.85-12.1 1.38-25 5.23-32.6 15.09-3.6 2.64-9.3 8.12-13.5 3.41-3-7.14 3.9-13.71 4.6-20.75-0.1-10.47 4.1-22.47-2.8-31.59-5.8-3.4-13.4 0.35-19.5-3.21-8.5-2.37-17.4-4.89-23.7-11.54-9.6-6.82-18.7-14.88-30.3-18.13-8.6-4.08-13.5-13.59-23.5-15.09-7.9-1.45-13.2-7.66-18.9-12.72-6.9-3.72-14.5-6.49-22.1-8.44-6.9-0.06-14.9-1.37-18.5-8.03-2.9-2.84-6.2-6.27-9.3-8.31z"/>
      <path id="path8509" opacity=".1" d="m1021.2 270.38c-3.2 7.14-5.4 14.87-9.8 21.5-3.5 7.11-7.2 16.18-16.13 17.48-6.69 1.13-12.63 6.07-13.02 13.11-2.96 10.09-5.88 20.48-9.66 30.15-3.67 3.52-9.44-0.38-12.87-2.59-6.99-6.04-8.14-17.55-14.1-23.34-1.91 4.99-1.49 13.12-8.4 13.81-6.08 1.86-9.95-4.63-9.75-9.97-1.62-7.41-6.27-14.74-13.94-16.75-2.75 9.15-10.5 19.12-5.78 28.84 3.03 5.36 9.97 12.71 4.45 18.76-2.74 4-7.39 9.19-2.98 13.87 3.1 5.28 6.41 11.13 12.31 13.66-2.8 3.89-4.42 9.82-8.59 12-3.62 1.08-1.04 6.73-2.13 9.65-22.24-15.18-49.95-26.32-76.93-19.31-10.72 7.42-18.86 21.44-13.29 34.41 5.15 13.36 17.28 22.45 28.82 30.06 3.69 4.02 6.54 8.49 8.62 13.62-8.62-4.78-18.74-2.73-28.09-5.03-15.52-2.29-32.94-5.91-47.28 2.25-15.57 11.25-17.67 33.84-11.5 51 4.35 15.27 10.6 30.24 22.59 41.08 7.9 7.75 17.27 13.83 26.84 19.17-12.67 11.9-26.21 23.48-34.78 38.91 13.68-0.26 26.47 7.2 40.28 4.34-4.7 5.82-12.46 14.65-7.06 22.38 8.45 8.97 22.02 9.29 33.53 9.54 9.81-0.11 19.38-1.81 28.5-5.45-1.1 9.56-0.94 22.47 9.16 26.94 6.4 2.55 13.85 5.18 16.06 12.5 13.75 21.83 38.44 33.63 62.02 41.57 3.36 2.07 12.01 0.59 9.76 6.17-9.24 51.12-4.55 104.37 13.31 153.11 3.28 9.05 7.19 19.88 11.03 27.43 0.9-4.72 7-4.88 9.7-1.63-13.75-37.04-29.38-74.93-27.68-115.21 0.44-21.58 3.58-42.98 6.99-64.29 22.69 3.51 47.39 3.39 67.69-8.5 8.3 3.15 14 10.5 21.2 15.38 3.2 2.07 4.6 4.66 4.9 8.28 4.4 11.22 19 15.12 28.8 8.91 11.9-6.13 20-16.84 31.4-23.69 14-10.17 18.8-29.48 13.8-45.62-0.2-2.52-1.6-7.99 0.7-8.38 5.6 2.21 11.6 3.78 17.5 3.66 8.1 4.37 15.6 10.74 17.8 20.03 3.6 8.44 10.7 14 18 19 11.8 8.04 22.6 17.69 32.1 28.25 6.6 5.44 15.2 9.46 23.7 9.03 3.7-1.98 5.4-8.03 4.2-11.91-14.7-15.08-22.5-35-32.1-53.47-3.2-4.56 3.6-3.29 6.3-3.31 5.3 0.15 9.9 2.71 14.5 4.91 5.4-0.75 8.5-6.24 12.8-9.25 4.4-5.52 9.5-10.41 15.7-13.97 5.5-3.58 4-13.73 11.8-14.19 7.1-0.14 14.2 3.33 21 2.06-2.5-6.19-3.8-12.6-2.8-19.25 0.8-6.9 3.9-14.22 0.1-20.87-6.5-9.89-20-9.39-29.8-14.28-5.7-2.34-11.6-5.57-12.9-12.1-2.8-6.54-3.5-14.16-8.2-19.78 4.6-3.08 11.7 0.72 14.8-4.71 6-5.65 8.3-16.59 17.8-17.73 4.6-0.74 9.4-1.39 12-5.78 7-5.6 5.7-17.49-0.9-23-4.6-5.32-10.6-9.42-17.2-11.93 5.9-12.21 7.2-26.2 14.7-37.69 5.8-8.15 5.3-18.58 1.8-27.47 1.5-7.97 3.2-16.17-0.5-23.78-3.1-8.9-10-15.58-16.9-21.63-3.4-4.79-9.2-7.97-14.9-6.68-15.7-5.73-32.6-3.75-48.9-4.66-12.3 1.53-25.1 5.28-33 15.34-3 2.53-9.9 8.36-12.6 2.35-0.4-8.32 6.9-15.3 5.6-23.88 0.9-9.07 3-20.26-3.6-27.69-6.3-3.24-14.1 0.43-20.5-3.41-8.2-2.12-16.5-4.87-22.4-11.05-9.6-6.89-18.9-15.02-30.5-18.25-8.3-3.96-13.2-13.16-22.7-14.87-7.9-1.38-13.6-7.1-18.9-12.38-7-4.27-15-6.71-22.7-9.07-6.8-0.13-15-1.06-18.3-7.75-3.3-2.99-6.8-7.01-10.6-8.96z"/>
      <path id="path8514" opacity=".1" d="m1021 269.28c-3.8 4.65-3.9 11.65-7.5 16.72-5.3 7.94-7.5 20.57-18.55 22.39-6.99 1.23-13.2 6.34-13.67 13.83-3.05 9.98-5.74 20.45-9.72 30.06-3.84 2.2-8.76-1.39-11.9-3.62-6.57-6.88-7.37-17.54-14.44-24.04-2.29 4.26-1.28 10.89-5.38 13.82-4.27 3.06-10.86 0.42-10.87-5.06-1-8.88-6.44-19.06-15.91-20.57-3.16 7.98-8.23 16.4-7.81 25.35 0.71 7.37 9.65 12.69 7.63 20.37-2.74 4.92-9.77 10.89-4.79 16.73 3.05 5.31 6.3 11.24 12.03 14.05-2.94 4.18-4.39 10.34-9.81 11.57-0.35 4.43 0.47 10.53-4.84 5.06-21.14-13.43-47.16-22.24-72.13-15.56-10.72 7.43-19.07 21.36-14.12 34.56 5.01 14.48 18.04 23.67 29.97 32.15 2.73 3.13 5.27 6.32 6.72 10.29-7.99-3.77-17.33-1.81-25.82-4.1-16.05-2.31-34.82-6.21-49.18 3.25-15.51 12.49-16.87 35.63-10.16 53.09 4.39 16.05 12.03 31.38 24.9 42.21 7.03 6.35 14.97 11.54 23.23 16.17-12.64 11.95-27.02 24.18-34.63 39.81 13.48-1.04 26.08 6.75 39.63 4.44-5.16 5.76-11.49 15.68-4.85 22.81 10.92 9.51 26.67 9.29 40.41 8.6 7.04-0.65 13.9-2.07 20.5-4.66-1.28 9.9 0.14 22.88 10.81 26.88 6.01 2.16 12.64 4.93 14.66 11.62 13.65 21.78 38.11 33.63 61.62 41.72 3.37 2.18 12.26 0.6 9.83 6.32-8.88 50.2-4.41 102.61 12.82 150.57 3.91 11.28 8.35 22.36 13.22 33.27-0.7-3.87 2.8-9.27 6.9-6.16 1.9 1.12 3.4 2.71 4.9 4.28-14.2-38.58-31.2-77.82-29.23-119.81 0.46-20.96 3.48-41.75 6.78-62.41 22.45 3.37 46.85 3.08 66.85-8.53 8 3.2 13.5 10.27 20.5 15.03 5.2 2.5 3.6 8.86 7.5 12.6 7.3 9.96 21.9 9.61 31.1 2.59 10.1-6.4 17.5-15.39 27.8-21.66 14.3-10.33 19.3-29.98 14.2-46.59 0-1.97-2.1-8.53 1.6-6.53 4.8 1.89 10 3.12 15.1 2.84 7.8 4.26 15.2 10.47 17.4 19.56 3.5 8.41 10.5 14.15 17.8 19.07 12 8.23 22.8 17.77 32.6 28.56 6.8 5.63 15.7 9.81 24.5 9.25 4.3-2.11 6.3-8.56 5.1-13.13-14.7-15.21-22.6-34.94-32.2-53.56-1.4-3.44 4.8-1.79 7.2-1.75 5 0.1 8.7 3.88 13.3 4.69 5.8-1.84 10-7.29 14.3-11.22 3.9-5.55 9.4-9.04 14.9-12.84 4.9-3.49 3.5-13.09 10.8-13.35 7.1-0.27 14.8 4.13 21.6 1.6-1.2-5.71-4.3-11.35-2.8-17.5-0.1-7.46 4.2-15 0.7-22.19-4.9-10.85-18.9-10.96-28.4-15.19-6.1-2.44-13.6-5.26-14.9-12.59-2.8-6.11-3.3-13.35-7.6-18.78 4.8-2.35 11.5 0.78 14.4-5.1 5.7-5.47 7.9-15.91 16.8-16.94 4.8-0.77 9.8-1.5 12.6-6.09 7.6-6.23 5.7-19.29-1.6-25.1-4.4-4.89-9.8-8.69-16-11.02 5.7-12.22 7.1-26.18 14.8-37.53 5.7-8.16 4.6-18.67 1.5-27.57 1.6-7.94 3-16.2-0.7-23.72-3.2-9.08-10.1-15.85-17-21.87-3.6-4.69-9.3-8.55-15.4-7.03-15.4-5.69-32.1-3.79-48.2-4.72-12.8 1.18-26.4 5.21-34.6 15.59-2.7 1.82-8.7 7.89-11 2.69 0.1-8.08 6.9-14.97 5.6-23.37 1-9.33 2.9-20.66-3.7-28.35-6.4-3.97-14.5 0.14-21.1-3.79-8.1-2.17-16.2-4.69-22.1-10.93-9.7-6.89-19-15.08-30.7-18.31-8.3-4.06-13.2-13.26-22.8-14.92-7.8-1.37-13.3-7.04-18.7-12.3-7-4.28-15.2-6.93-23.1-9.19-6.5-0.19-14.4-0.88-17.7-7.37-3.6-3.12-6.9-7.91-11.5-9.44z"/>
      <path id="path8519" opacity=".1" d="m1020.8 268.28c-3.2 1.8-3.1 6.21-4.6 9.19-2.9 7.7-7.4 14.7-11.1 22.03-2 4-5.54 6.94-9.99 7.78-6.2 1.37-12.82 4.99-14.05 11.6-2.71 10.89-6.49 21.63-9.9 32.24-1.75 2.26-5.01-0.36-7.13-0.78-7.76-3.51-8.97-13.01-13.09-19.62-1.72-2.4-2.94-6.39-6-7.16-1.75 1.49-1.48 4.71-2.5 6.85-1.12 2.64-0.69 6.95-4.19 7.65-3.42 1.81-7.9-0.26-8.16-4.22-0.86-5.9-2.84-12.05-6.87-16.43-3.06-2.44-6.34-5.89-10.53-5.57-2.07 1.51-1.8 4.77-3.25 6.84-2.5 5.96-5.35 12.13-5.32 18.73 0.33 7.5 8.11 12.34 8.16 19.81-2.08 4.85-7.48 8.88-6.97 14.66 3.24 6.63 6.9 13.9 13.41 17.84-1.74 3.09-3.7 6.27-5.72 9.06-1.78 0.56-4.62 0.93-3.83 3.57 0.21 3.75-0.34 5.54-3.61 2.48-19.4-12.15-42.54-20.66-65.72-16.85-3.79 0.57-7.78 1.1-10.36 4.26-8.69 7.22-14.96 18.73-11.99 30.2 3.97 15.53 17.34 26.32 30.29 34.5 1.98 2.86 4.82 5.1 6 8.47-4.53-2.19-9.82-0.87-14.68-1.91-17.18-2.07-35.19-7.07-52.13-1.34-12.46 4.51-19.03 17.76-20.72 30.28-2.13 15.63 4.57 30.52 9.67 44.83 8.19 18.08 24.2 31.44 41.24 40.92-12.96 12.28-27.07 24.42-34.72 40.84 13.38-1.93 25.85 6.03 39.22 4.41-4.27 5.19-8.78 12.76-5.32 19.56 4.76 7.93 14.77 9.93 23.29 11.34 13.1 1.57 26.8 0.68 39.18-3.87-0.82 8.97 0.21 20.06 8.85 24.91 5.36 3.4 13.44 4 15.84 10.74 7.97 14.84 22.24 25.06 36.7 32.93 11.46 6 23.57 10.65 36.08 13.89-7.48 41.6-6.61 84.83 4.1 125.8 5.78 22.67 13.99 44.61 23.72 65.88 0-3.56-1.2-8.49 1.9-11.03 3.6-1 6.2 3.08 8.4 5.19 1.8 1.92 4.6 6.35 2.3 1.34-10.4-28.92-22.74-57.39-27.92-87.85-5.28-31.87-0.58-64.23 4.31-95.83 22.01 3.25 46.11 2.74 65.91-8.41 6.9 1.96 11.3 8.82 17.4 12.35 2.1 1.75 4.4 3.6 6.1 5.59 0.8 8.82 8.9 15.76 17.4 17.03 8.6 1.25 16.6-3.19 23.2-8.13 6.8-4.92 12.2-11.22 19.3-15.66 7-4.67 13.3-10.66 16.6-18.49 3.7-7.37 4.8-16.1 3.8-24.29-0.7-4.47-2.3-8.88-2-13.46 5 1.69 10.2 3.62 15.5 2.94 7.1 4.04 14.4 9.25 16.4 17.56 3.2 6.91 7.5 13.57 14.2 17.51 9 7.25 18.9 13.17 27 21.64 6.5 6.54 12.6 14.46 21.8 17.34 4.9 1.42 10.8 4.55 15.7 1.57 3-3.59 5.3-8.83 3.9-13.56-7.2-8.29-14.2-17.08-18.8-27.11-4.6-8.94-9.5-17.85-13.7-27.02 6.3-0.74 12.5 1.44 17.7 4.6 4.9 1.52 8.5-3.7 11.9-6.25 6.2-4.68 9.9-12.22 17.1-15.47 4.3-2.55 6.8-6.97 8.1-11.56 1.1-3.55 5-4.52 8.2-3.54 6.2 0.35 12.6 3.49 18.7 1.41 2-1.76-0.5-4.67-0.8-6.71-2.4-5.31-1.2-11.32-0.9-16.95 1.1-4.77 2.5-9.75 1.1-14.65-1.4-8.22-9.6-12.53-17-14.48-8.7-2.89-18.4-4.91-25.3-11.27-3-6.78-4.6-14.12-7.6-20.91-2.4-2.21 0.8-2.47 2.7-2.55 3.6 0.5 7.3-0.68 9.3-3.84 4.6-4.65 7-11.12 11.9-15.39 4.3-2.54 9.9-1.66 14.1-4.34 4.1-4.2 9.5-8.24 8.7-14.84 0.7-6.3-2.6-12.11-7.2-16.1-4.2-4.34-9.1-7.95-14.8-10.12 3.7-8.07 5.7-16.71 8.4-25.09 3.7-8.75 10.9-16.56 10.3-26.57-0.1-4.55-1.9-8.92-2.6-13.26 0.7-6.26 3.1-12.65 0.7-18.83-2.6-10.64-9.5-19.73-18.1-26.29-3.8-4.98-9.8-9.89-16.5-8.12-11.2-3.91-23.3-4.74-35.1-4.28-8.1-0.59-16.4-1.13-24.3 1.34-9.1 1.9-17.9 6.13-23.8 13.44-2.5 1.96-5 4.24-8.1 5.16-3.1-0.18-1.6-4.46-0.9-6.2 2.3-5.9 5.3-11.7 4.8-18.21 1.1-8.93 2.2-18.66-2.3-26.91-3.4-5.96-11.2-4.05-17-4.47-6.8-2.03-13.8-3.8-20.2-6.64-5-3.16-9.3-7.32-14.3-10.5-7.3-6.08-15.4-11.09-24.4-13.86-7.8-3.68-12.3-12.34-21-14.31-6.2-1.72-12.5-4.12-16.6-9.36-5.7-6.76-14.7-8.11-22.4-11.54-6.4-2.78-14.8-0.04-19.9-5.57-3.4-4.75-8.1-8.68-12.8-12.22-0.5-0.23-1.2-0.51-1.8-0.31z"/>
      <path id="path8524" opacity=".1" d="m1020.6 267.28c-3.6 1.52-3.8 6.24-5.2 9.33-2.9 7.84-7.4 14.93-11.2 22.36-1.9 3.75-5.22 6.63-9.41 7.31-6.5 1.49-13.37 5.36-14.73 12.31-2.7 10.87-6.48 21.52-9.87 32.13-1.67 0.91-4-1.03-5.75-1.31-7.53-3.54-8.51-12.84-12.63-19.19-1.88-2.7-3.27-7.19-6.93-7.69-2.64 0.84-2.12 4.66-3.2 6.79-0.73 2.26-1.19 4.91-2.15 6.96-2.51 1.89-7.3 2.16-8.15-1.62-1.04-6.14-2.84-12.51-6.79-17.35-3.43-2.88-7.31-6.99-12.15-6.47-2.79 1.33-2.25 5.12-3.94 7.44-2.59 6.26-5.72 12.8-5.34 19.75 0.5 7.18 7.7 11.92 8.12 18.97-2.35 4.91-7.8 9.24-6.94 15.19 3.15 6.67 6.84 13.62 13 17.93-1.76 2.6-3.21 5.96-5.4 7.91-2.02 0.52-4.54 1.45-3.77 4.13 0.85 4.81-2.43 1.37-4.7 0.22-19.43-11.78-42.68-19.41-65.54-15.11-3.48 0.39-6.78 1.41-9.1 4.19-8.85 7.34-15.2 18.98-12.45 30.7 3.7 15.63 16.88 26.69 29.83 34.99 2.05 1.78 3.8 4.12 5.45 6.29-9.66-0.37-19.37-1.78-28.95-3.35-13.24-1.94-27.75-3.22-40.09 2.89-13.64 8.14-18.98 25.51-17.56 40.77 1.47 12.28 6.15 23.83 10.54 35.27 8.28 17.2 23.47 30.09 39.87 39.36-13.18 12.41-27.35 24.92-34.72 41.84 13.22-2.48 25.57 5.02 38.72 4.4-4.31 5.45-7.79 13.83-3.22 20.16 5.5 7.43 15.55 9.44 24.25 10.69 12.43 1.31 25.35 0.55 37.19-3.53-0.6 8.68 0.84 19.09 8.87 23.97 5.45 3.74 13.96 4.09 16.28 11.13 8.64 15.7 24.04 26.24 39.55 34.29 10.48 5.21 21.42 9.4 32.73 12.36-7.39 41.79-6.33 85.18 4.51 126.29 6.14 23.54 14.75 46.4 25.17 68.37 1.5 1.15 0-4.44 0.1-6.24 0.2-2.45-0.7-6.59 2.1-7.77 4.6 1.34 7.2 6.09 10.2 9.5 1.9 3.33 4.1 4.12 1.9-0.3-10.7-29.83-23.51-59.11-29.16-90.45-5.47-31.74-0.9-64.04 4.03-95.53 21.83 3.1 45.53 2.51 65.13-8.44 6.7 2.26 11 8.82 17.1 12.38 2.1 2.22 5.8 3.64 5.6 7.06 2.8 9.77 13.2 16.93 23.4 15.46 9.3-0.67 16.9-7.07 24-12.64 6.7-7.15 15.7-11.86 22.8-18.57 7.1-7.33 11.5-17.12 12-27.34 1.2-7.17-1.7-14.04-2.2-21.09 4.5 1.55 9.3 3.15 14.2 2.5 6.7 3.89 13.8 8.95 15.8 16.96 3.2 7.27 7.9 14.15 14.9 18.25 9.2 7.37 19.3 13.47 27.4 22.22 6.3 6.49 12.3 13.82 21.3 16.58 5.1 1.66 11.5 4.71 16.6 1.45 3.3-3.71 5.7-9.28 4.4-14.34-2.8-4.39-7-7.97-9.9-12.38-7.6-10.37-12.4-22.43-18.7-33.8-0.7-2.14-3.5-5.65-3-7.1 5.3-0.12 10.4 1.7 14.8 4.47 5.1 2.24 9.3-2.67 12.8-5.65 6.5-4.71 10.2-12.49 17.7-15.98 4.6-2.71 7.1-7.5 8.7-12.47 1.3-3.82 5.8-2.67 8.9-2.25 5.6 0.68 11.8 3.25 17.3 1.07 2.8-2.09 0.1-5.97-0.6-8.53-2-4.99-0.9-10.62-0.6-15.89 1.4-5.03 2.5-10.41 1-15.58-1.8-8.61-10.6-12.79-18.3-14.9-8.3-2.65-17.2-4.72-24-10.51-3.1-6.95-4.5-14.57-7.8-21.38 0.5-1.01 3.2-0.45 4.5-0.62 5.8 0.19 8.8-5.79 11.9-9.71 3.2-3.9 5.1-10.06 10.7-10.91 4.4-1.35 9.9-0.85 12.7-5.03 3.9-3.53 7.9-7.97 7.2-13.72 0.7-6.41-2.4-12.39-7.2-16.49-4.1-4.28-8.8-8.13-14.5-10.26 3.6-7.91 5.5-16.43 8.3-24.55 3.7-8.73 10.8-16.6 10.1-26.64-0.2-4.51-1.7-8.9-2.6-13.19 0.6-6.04 3.1-12.16 1-18.12-2.5-11.13-9.6-20.87-18.6-27.66-3.9-5.14-10.1-10.23-17-8.53-11.5-3.95-23.8-4.64-35.8-4.3-8.1-0.55-16.3-1.03-24.1 1.38-9.3 1.93-18.3 6.26-24.3 13.76-2.5 1.67-4.8 4.27-7.8 4.78-1.4-1.32 0.5-4.04 0.8-5.63 2.3-5.68 5-11.37 4.5-17.65 1.1-9.28 2.3-19.58-2.7-27.97-3.7-5.86-11.6-4.1-17.5-4.47-6.8-2.17-13.9-3.81-20.3-6.75-4.8-3.45-9.2-7.24-14.1-10.53-7.1-6.01-15.2-10.85-24.1-13.65-7.5-3.5-12-11.81-20.2-14.07-6.1-1.83-12.7-3.73-16.8-8.99-5.8-7.15-15.2-8.63-23.2-12.2-6.2-2.77-14.3-0.05-19.4-5.21-3.5-4.91-8.3-8.93-13.1-12.5-0.8-0.36-1.6-0.61-2.5-0.41z"/>
      <path id="path8529" opacity=".1" d="m1020.8 266.22c-5.8 1.87-5.2 9.71-8 14.16-4.7 7.61-7.1 17.06-13.8 23.24-7.49 2.53-17.34 4.91-19.62 13.69-2.77 10.93-6.5 22.12-10.07 32.63-10.83-1.31-12.33-13.57-17.12-21.16-1.57-2.97-5.67-10.08-9.5-5.94-2.31 3.95-1.58 10.19-4.88 13.19-2.79 1.88-6.23-0.39-5.87-3.72-1.3-10.04-7.64-20.38-18.03-22.62-5.6-0.18-4.82 7.35-7.41 10.59-3.5 8.09-7.25 18.51-1 26.38 1.87 3.86 7.65 9.34 2.75 13.25-3.56 4.66-7.56 11.32-2.88 16.76 2.75 5.08 5.96 10.23 10.6 13.77-2.02 3.44-3.66 7.07-7.69 8.09-2.31 1.27 0.38 7.19-3.4 3.5-21.48-13.27-48.12-21.57-73.13-14.31-11.53 8.05-20.49 22.68-15.78 37.03 4.7 15.32 18.1 25.67 30.78 34.22 4.9 4.08-0.02 3.28-3.84 2.87-19.8-1.87-41.3-8.86-60.38 0-17.92 10.54-22.2 35.2-16.1 54.03 4.54 16.2 10.56 32.6 23.08 44.31 7.12 7.27 15.44 13.25 24.24 18.38-13.36 12.6-27.63 25.48-34.66 42.88 13.11-2.91 25.38 4 38.35 4.25-5.24 6.58-6.51 17.61 1.03 23.03 13.35 9.59 31.27 9.16 46.96 7.29 3.78-0.6 7.55-1.39 11.16-2.6-0.81 9.94 2.81 21.45 12.88 25.25 5.46 1.98 11.62 4.28 13.31 10.46 14.41 22.89 40.27 35.43 65.22 43.6 6.76 0.02 5.99 4.64 4.66 9.81-7.84 50.6-1.73 102.88 16.27 150.63 5.27 13.13 9.66 26.91 17.27 38.87 1.5-5.18-2.2-12.2 0.9-16.62 6.4 2.87 8.8 10.48 14.4 14.43-3.1-14.5-10.1-27.99-14.6-42.13-11.59-30.5-20.54-62.62-18.18-95.55 0.77-17.93 3.37-35.77 6.06-53.44 21.62 2.99 45.12 2.16 64.52-8.53 6.9 3.44 12 9.65 18.3 13.84 4.5 2.63 3.2 8.86 7.1 12.25 7.7 10.58 23.5 11.38 33.7 4.13 10.8-6.3 18.8-16.09 29.5-22.69 15.1-10.96 20.7-31.89 15.3-49.53-1.8-4.44 3.4-0.52 5.5-0.69 4.3 0.76 8.8-0.06 12.1 3.62 5.8 3.46 9.1 9.38 11.1 15.6 3.9 8.67 11.1 14.57 18.8 19.72 11.8 8.02 22.4 17.61 32 28.09 7.3 6.15 17.1 10.64 26.9 10.03 6.3-1.8 8.5-9.93 8.1-15.78-2.4-6.14-8.7-10.08-11.9-15.9-7.7-11.61-13.2-24.67-19.9-37.1 6-0.52 10.5 3.74 15.9 5 7-0.32 11.4-7.16 16.5-11.19 3.9-5.41 9.2-9.45 14.7-13 4.8-2.92 4.8-9.15 8.2-12.9 8.1-1.38 16.9 4.7 24.7 0.81 4-4.44-2.4-10.06-1.7-15.12-0.5-6.65 1.7-12.76 2.3-19.22 0.6-9.02-5.3-17.4-13.9-20.13-9.8-4.07-22-5.04-29.4-12.84-2.8-6.22-4.7-13.64-6.9-19.63 8.1 1.64 12.9-5.98 16.7-11.81 2.8-4.18 5.4-9.37 11.2-9.37 5.5-0.46 10.6-2.67 13.6-7.44 7.4-6.69 6.4-19.57-0.1-26.44-4.7-5.07-9.8-10.05-16.4-12.66 5-11.72 6.8-24.8 14.1-35.46 5.3-8.37 4.7-18.98 1.4-27.97 1.6-7.9 3-16.09-0.5-23.72-3.2-9.82-10.3-17.54-18-23.97-4.1-5.01-10.2-9.68-17.1-8.06-15.7-5.66-32.5-3.87-48.8-4.75-13.6 1.17-28 5.48-36.7 16.37-1.5 0.6-5.5 4.94-5.8 3.19 2.3-7.36 6.5-14.49 5.7-22.53 1.2-9.9 2.4-22.19-5.1-29.91-6.8-4.81-15.9-0.21-23-4.54-7.5-1.92-14.7-4.44-20.2-10.11-9.8-7.09-19.3-15.33-31.1-18.66-8-4.17-13-12.83-22.2-14.75-7.6-1.24-13.2-6.35-18.2-11.63-7-4.94-15.6-7.23-23.6-10-6.2-0.93-14.2 0.02-17.4-6.68-4.2-3.43-8.2-9.94-14-10.44z"/>
      <path id="path8534" opacity=".1" d="m1020.6 265.22c-6.9 2.08-5.9 11.36-9.5 16.4-4.5 6.88-6.5 15.98-13.04 21.35-8.12 2.21-18.08 5.69-19.97 15.06-2.55 10.16-6.06 21.27-9.59 30.63-10.17-2.01-10.85-14.21-15.94-21.28-1.66-3.66-6.78-9.86-10.68-5.19-2.25 3.92-1.9 9.82-4.6 12.93-3.48 2.18-4.75-2.11-4.66-4.81-1.72-9.79-8.38-19.41-18.5-21.65-6.28-0.51-6.06 7.45-8.56 11.25-3.69 8.38-7.36 19.22-0.9 27.31 1.57 3.63 7.22 8.45 2.75 12.12-3.48 4.69-7.69 11.34-3.41 16.91 2.58 5.44 6.55 10.63 10.5 14.66-1.56 3.38-3.69 5.75-7.12 7-1.55 3.18-1.66 4.06-5.1 1.41-21.02-12.37-47.18-19.73-71.16-12.41-11.47 8.15-20.54 22.43-16.46 36.9 4.3 15.99 18.08 27.1 31.31 35.78 2.73 3.06-5.19 0.47-7.13 0.82-18.86-2.44-39.6-8.08-57.56 0.97-17.77 11.15-21.95 35.75-15.85 54.77 4.52 15.97 10.46 32.32 22.63 44.04 7.04 7.29 15.26 13.41 24 18.56-13.62 12.71-27.81 26.1-34.65 43.91 13.07-3.21 25.39 2.99 38.25 4-5.37 7.17-4.9 18.68 3.25 23.68 14.28 9.18 32.59 8.73 48.81 6.32 2.48 0.01 6.39-2.21 7.84-1.28-0.64 10.26 4.37 21.34 14.66 24.71 5.01 1.64 10.16 4.02 11.69 9.57 14.19 22.62 39.32 35.05 63.87 43.43 4.38 1.06 8.85 1.83 6.17 7.31-8.15 50.57-2.53 103.02 15.26 150.99 5.95 14.74 10.5 30.46 19.79 43.49 1.5-5.84-1.2-12.94 0.6-18.22 6.1 4.21 8.9 11.57 15.2 15.68-1.6-13.86-8.9-26.32-13-39.56-11.85-31.29-22.17-63.92-20.18-97.78 0.63-18.49 3.19-36.83 6.04-55.12 21.44 2.85 44.44 1.79 63.74-8.5 6.5 3.53 11.4 9.3 17.5 13.43 4.2 2.74 3.2 8.81 7 12.13 7.9 10.79 24 11.89 34.7 4.59 11-6.3 19.1-16.35 29.9-23 15.4-11.18 21.2-32.48 15.7-50.5 0.7-1.42 4.9 1.28 7.1 0.94 6.7-0.78 11.7 5.05 15.9 9.5 4 9.72 9.2 20.37 18.9 25.75 12 8.83 24 17.53 33.7 28.9 7.6 7.75 18.6 12.81 29.5 12.54 7.2-1.47 9.9-10.59 9.4-17.07-2.2-6.09-8.3-9.89-11.5-15.5-7.6-11.28-13.4-24.46-19.4-36.15 6.7-0.14 12.3 7.84 19 3.65 8-4.96 13.7-12.66 20.5-18.9 6.6-3.21 11.6-8.92 13.5-15.97 2-3.36 7.4 0.19 10.4-0.1 5.2 0.55 13.8 3.62 17-2.5 0.6-6.06-4.5-11.36-2.7-17.59-0.2-7.66 4-15.17 1-22.87-3.1-12.05-17.1-14.93-27.3-18.05-6.2-2.58-15.1-4.08-16.7-11.73-1.9-4.6-2.9-9.68-4.9-14.32 9.8 1.06 14.1-9.89 19.1-16.28 3.8-7.83 15.4-3.05 19.7-10.5 5.7-4.28 8.5-11.16 7.3-18.18-0.9-10.4-10.2-17.46-18.2-22.88-2.2-0.83-3.8-1.69-1.7-4.13 3.8-10.73 6-22.14 12.5-31.75 5.4-8.55 4.9-19.29 1.5-28.46 1.7-8.04 3-16.35-0.6-24.07-3.2-9.86-10.3-17.82-18.1-24.25-4.2-5.27-10.8-10-17.9-8.47-15.7-5.61-32.5-3.84-48.9-4.71-13.7 1.21-28.3 5.54-37.3 16.65-4.3 4.01-3.7 1.34-1.6-2.75 4.2-8.29 3-17.68 4.2-26.59-0.3-8.1-1.6-19.66-10.9-22-6.6-1.5-13.6 0.76-19.8-3-7.7-1.55-14.4-4.97-19.9-10.35-9.6-6.95-18.8-14.78-30.4-18.06-7.9-4.31-13-12.91-22.4-14.78-7-1.28-12.5-5.72-17-10.91-7.2-5.56-16.4-7.77-24.8-10.75-6-0.99-13.8 0.17-16.9-6.37-4.5-3.83-8.4-10.09-14.7-10.81l-0.2 0.06z"/>
      <path id="path8539" opacity=".1" d="m1020.4 264.19c-7.4 1.97-6.6 11.65-10.2 17-4.4 6.74-6.4 15.36-12.54 20.84-8.08 2.29-17.89 5.59-20.25 14.72-2.46 10.38-6.25 20.45-9.29 30.75-9.3-2.46-9.69-14-14.68-20.66-1.8-4.54-8.4-10.75-12.5-5.06-2.11 3.84-2 9.23-4.35 12.5-3.67 1.69-2.33-4.45-3.47-6.31-2.22-9.47-9.28-18.56-19.21-20.31-6.97-0.33-6.95 8.35-9.7 12.76-3.67 8.5-6.81 19.26-0.43 27.36 1.36 3.31 6.79 7.65 2.78 10.97-3.73 5.01-7.92 12.01-3.47 17.97 2.32 5.39 6.88 10.38 9.94 14.59-0.99 4.13-5.28 4.17-7.41 7.16-0.8 2.98-5.02-2.18-7.38-2.53-20.29-11-45.19-17.06-67.74-9.82-11.87 8.32-20.99 23.16-16.84 37.97 4.38 15.93 17.82 27.38 31.28 35.88-20.89-1.72-43.35-9.37-63.44 0.09-18.52 10.92-23.25 35.99-17.31 55.41 4.6 16.49 10.55 33.29 23.15 45.44 6.78 7.03 14.66 12.97 23 18-13.85 12.93-27.89 26.76-34.59 44.97 11.58-2.82 23.11 0.66 34.22 3.18 2.77 0.12 5.07 0.18 2.72 3.1-4.49 8.66 0.29 19.39 8.97 23.12 16.34 7.71 35.67 7.05 52.9 2.88-0.51 10.42 4.9 21.44 15.25 24.87 4.79 1.6 9.78 3.74 11.19 9.06 14 22.57 39.03 35.15 63.3 43.6 2.68 1.69 9.6 0.49 6.79 5.53-8.15 50.04-3.09 102.06 14.16 149.69 5.72 15.05 10.79 30.66 19.35 44.36 4.5 9.63 3.7-3.3 3.7-7.71 0.1-1.8-1.1-6.92 0.3-6.87 5.3 5.21 9.2 11.84 15.5 16.15-1.1-15.63-9.5-29.48-14-44.29-11.55-30.49-21.36-62.39-19.48-95.52 0.66-18.16 3.12-36.11 5.88-54.03 21.2 2.66 43.8 1.63 62.9-8.53 6.5 4.33 12.1 9.67 18.3 14.47 2.1 4.18 3.4 9.7 7.5 12.97 9.3 9.9 25.3 9.05 35.6 1.43 10.3-6.32 18.1-15.68 28.4-22.03 15.4-11.24 21.5-32.46 16.2-50.56 5 2.02 11 0.05 14.8 4.53 5.9 3.26 7.9 9.54 10.4 15.22 3.9 8.38 10.9 14.22 18.4 19.23 11.4 7.9 22 16.87 31.2 27.24 7.7 7.27 18.6 12.1 29.3 11.69 7.7-1.53 10.6-10.94 10.3-17.78-1.7-6.65-8.5-10.47-11.7-16.38-7.5-10.73-12.4-22.8-18.7-34.25 5.8 0.77 11 7.08 17.2 3.59 8.6-4.82 14.4-13.11 21.6-19.53 6.8-3.19 11.6-9.23 13.6-16.28 1.7-1.88 5.4 0.44 7.8 0.29 6 0.76 15.1 4.13 19.2-2.2 2.1-6.26-4.3-12.02-2.3-18.59-0.1-7.78 4-15.39 1-23.15-3-11.94-16.7-15.51-27.1-18.44-6.1-2.56-15.2-3.88-16.9-11.47-1.6-4.12-3.1-9.05-4.2-12.91 9.3-0.09 13.2-10.44 18.2-16.68 3.5-7.22 14.1-2.91 18.5-9.19 5.7-4.62 10.1-11.42 8.8-19.1-0.3-11.29-10.2-18.99-18.8-24.78-4.1-1.18 0.7-5.74 0.8-8.62 2.3-9.97 6.3-19.31 11.5-28.07 4.5-8.3 3.6-18.24 0.5-26.84 1.9-8.13 2.9-16.53-0.6-24.34-3.3-9.96-10.5-18.01-18.3-24.56-4.4-5.41-11.2-10.3-18.5-8.82-15.8-5.56-32.7-3.84-49.1-4.68-14 1.17-28.8 5.6-37.9 16.81-2.3 1.78 1.6-4.47 1.7-6.22 2.3-7.11 1.4-14.87 2.5-22.28-0.2-8.54-1.8-20.62-11.7-22.97-6.6-1.57-13.6 0.7-19.8-3.01-7.4-1.46-14-4.92-19.4-10.12-9.6-6.98-19-14.94-30.7-18.25-7.9-4.43-13.1-12.93-22.4-14.81-6.9-1.24-12.3-5.58-16.8-10.72-7.4-5.7-16.5-7.93-25.2-10.97-5.7-1.06-13.3 0.31-16.3-6-4.7-3.93-9.2-11.15-15.9-11.15z"/>
      <path id="path8544" opacity=".1" d="m1020.2 263.19c-8.2 2.04-7.4 12.54-11.3 18.37-4.3 6.3-6 14.69-11.96 19.66-8.71 2.26-18.78 6.36-20.78 16.22-2.28 9.73-5.9 19.18-8.69 28.75-7.92-2.81-8.1-12.98-12.63-18.97-2.22-4.97-8.44-12.17-14-6.97-3.2 3.66-2.29 10.03-5.31 13.31-1.85-8.47-4.9-18.76-13.34-23.5-4.36-3.87-13.35-5.55-15.47 1.53-3.96 10.82-11.65 23.23-5.13 34.69 1.73 3.27 5.11 6.62 5.32 10.19-4.25 5.75-9.84 13.69-4.72 20.72 2.58 5.04 5.68 9.93 9.78 13.9-1.11 3.8-5.95 4.39-7.69 7-21.74-13.04-48.51-20.44-73.62-13.4-12.47 8.6-22.36 23.99-18 39.56 3.95 14.86 15.88 25.93 28.22 34.31-19.6-2.35-41.08-8.38-59.91 0.63-18.58 10.91-23.7 35.94-18.04 55.53 4.68 16.98 10.69 34.38 23.69 46.9 6.52 6.78 14.09 12.54 22.04 17.47-14.18 13.09-27.96 27.5-34.57 46 10.78-2.35 21.62-0.85 32.07 2.25 2.15 1.06 7.82-0.23 5.25 3.25-4.18 9.02 0.97 19.75 9.78 23.6 16.15 7.7 35.26 7.16 52.37 3.28-0.3 10.93 6.29 21.71 16.97 25 4.43 1.17 8.35 3.62 9.63 8.25 14.43 23.05 40.15 35.89 65.03 44.34 4.82 0.4 6.01 2.85 4.4 7.28-7.65 49.94-2.01 101.5 15.35 148.8 5.63 14.42 10.44 29.47 18.76 42.56 4.7 9.24 5.8 5.21 5.6-3.08 0.8-2.96-0.8-7.99-0.1-9.93 4.9 6.12 10 11.84 16.3 16.62-1-17.25-9.9-32.59-15.1-48.78-11.24-29.93-20.61-61.14-18.74-93.5 0.74-17.68 2.81-35.77 5.9-52.84 20.84 2.45 43.04 1.25 61.84-8.53 6.2 4.36 11.9 9.49 17.8 14.18 2.9 12.59 16 22.43 29.2 20.19 14.9-1.82 25.1-14.34 36.5-22.87 11.7-7.11 21.3-18.19 24.1-31.79 1.7-7.52 1.6-16.06 0-23.09 4.8 1.03 9.8 0.23 13.4 4.34 7.5 4.63 7.5 14.37 13.2 20.57 5.9 8.71 15.8 13.37 23.7 19.93 13.8 8.62 21.5 25.07 37.6 29.97 7.2 3 18.4 5.34 22.7-3.28 3.6-6.05 5.3-15.23-0.9-20.19-11.4-12.04-17.6-27.36-25.3-41.84 5 2.05 10.5 6.27 16.1 2.75 8.3-4.87 14.1-12.76 21-19.19 7-3.37 12.2-9.52 14.2-16.9 8.4 0.06 18.3 5.59 25.8-0.13 5.3-6.1-2.8-13.1-1-19.9-0.4-7.93 4-15.64 1.2-23.53-2.5-12.17-15.8-16.71-26.4-19.41-5.7-2.23-13.2-3.44-16.7-8.59-1.9-4.53-3.9-10.02-4.8-14.38 9.8-1.48 13.4-12.5 19.1-19.16 5.1-3.68 13.6-1.54 17.5-7.66 5.8-4.62 9.5-11.63 8.4-19.18-0.3-11.62-10.4-19.67-19.3-25.59-2.2-1.9 1.5-6.06 1.7-8.97 2.1-10 6.9-18.81 11.6-27.66 4-8.15 2.9-17.75 0.1-26.09 1.8-8.17 2.8-16.63-0.7-24.5-3.3-10.1-10.6-18.37-18.6-25-4.6-5.67-11.6-10.55-19.2-9.22-15.8-5.47-32.7-3.8-49.1-4.63-12.9 0.99-27.6 5.39-36.1 14.47 3.4-7.93 2.2-16.74 3.4-25.12-0.1-9.01-2-21.53-12.4-23.97-6.6-1.64-13.6 0.74-19.8-2.99-7.5-1.47-13.8-4.89-19.2-10.07-9.7-7.04-19.1-14.95-30.8-18.25-7.6-4.25-12.6-12.54-21.6-14.5-7-1.41-12.8-5.41-17.3-10.88-7.5-5.82-16.9-8.12-25.7-11.19-5.5-1.15-12.9 0.5-15.8-5.78-5-4.12-9.6-11.64-16.8-11.37z"/>
    </g>
    <g id="g8260" transform="matrix(.86560 .27574 -.31290 .98223 -618.07 -519.35)">
      <path id="path8241" d="m1355.7 503.19c-16.1 151.99 7.3 230.56 95.6 315.4-9.5-17.92-1.3-16.12 14.6-5.75-84.7-95.59-80.2-81.99-110.2-309.65z" fill-rule="evenodd" stroke="#000" stroke-width=".67614px" fill="url(#radialGradient8285)"/>
      <path id="path8231" fill-rule="evenodd" fill-opacity=".75" fill="#d40000" d="m1524.4 568.69c0.4 4.61-4.6 18.23-6.3 24.83-2 8.34-7.2 15.95-10.8 23.29-4 8.03-14.6 10.23-23.3 12.41-8.6 2.15-15.3-3.03-21.7-4.65-9.2-2.29-13.1-6.21-23.3-6.21-9.8 0-35.5-12.25-43.5-17.08-19.7-11.83-40.2-31.61-54.3-48.12-3.7-4.26 33.5-23.5 38.8-24.83 18.2-4.57 43.8 8.4 60.5 13.97 14.6 4.86 29 8.78 43.5 12.41 8.1 2.02 15.5 3.9 23.3 7.77 5.8 2.9 10.3 4.85 17.1 6.21z"/>
      <path id="path6962" d="m1180.4 347.09c-5.3-0.77-14-6.74-19.6-12.36-3.2-3.2 1.2-12.14 2.1-15.46 0.8-3.35-10.4-10.36-11.4-11.34-5.4-5.38-5.1-8.81-5.1-16.48 0-5.42 1-7.98 1-13.4 0-5.88 15.1-0.04 16.5 1.03 3.9 2.92 8.3 7.41 10.3 11.34 3.1 6.22 8.2 4.18 11.3 1.03 0.6-0.56-0.5-12.3 0-13.4 2.3-4.59 18.1 11.87 18.6 12.37 3.9 3.97 7.9 6.18 13.4 6.18 6.4 0 5.1 0.45 5.1-7.21v-18.55c0-7.17-1.9-11.12 2.1-16.49 3.1-4.12 8-6.04 12.3-9.27 4.3-3.19 5-13.73 6.2-18.55 1.4-5.43 2.1-9.53 2.1-15.46 0-7.35 1.5-8.88 8.2-6.18 5.1 2.02 10.2 3.75 13.4 6.18 3.8 2.86 12.7 0.69 15.5 0 5.4-1.36 12.9 0 18.5 0 6.3 0 11.2 0.96 15.5 3.09 5.4 2.73 8.8 4.12 15.5 4.12 6.3 0 11.9-0.18 17.5 2.07 5.5 2.21 11.1 5.15 17.5 5.15 5.5 0 11.3 0.77 16.5 2.06 6 1.51 11.5 3.66 17.5 5.15 6.2 1.54 9.5 4.12 16.5 4.12h17.5c4.2 0 8.7-3.09 15.5-3.09 6.5 0 10.8 7.3 13.4 12.37 2.5 5.17 2.9 11.96 5.1 17.51 1.6 4 0 12.19 0 16.49 0 9.6 8.3-2.25 9.3-4.12 2.9-5.92 5.5-9.05 11.3-13.4 4.1-3.06 8.7-5.37 14.4-8.24 5.4-2.69 12-3.76 17.6-5.15 7.7-1.94 16.3-0.23 23.7-2.06 6-1.5 13.2-3.01 17.5-5.16 6.7-3.37 14.8 0.23 19.6 3.1 5.1 3.07 8.2 6.25 11.3 10.3 3.3 4.38 5.8 7.84 9.3 11.34 5.1 5.13 6.1 6.76 10.3 12.36 3.7 4.95 5.9 6.77 9.2 13.4 2.6 5.11 2.6 10.55 1.1 16.48-1.5 6.05-1.7 9.92-3.1 15.46-1.3 5.25-1.7 10.67-4.1 15.46-3.8 7.42 4.8 6.12 10.3 7.21 6.2 1.25 11.3 3.62 16.5 6.18 6.8 3.41 8.7 8.13 10.3 14.43 1.1 4.38-3.6 10.19-5.2 13.4-1.2 2.47-10.2 5.03-13.4 8.24-2.1 2.16-4.3 11.67-6.2 15.46-2.3 4.66-2.6 6.84-8.2 8.24-15 3.74 0.9 11.18 6.2 16.49 7.4 7.44 25.1 6.18 35 6.18 7.1 0 11.8 0.24 17.5 3.09 5.1 2.55 9.3 10.02 9.3 15.46 0 5.95 1.7 7.98 3.1 13.4 0.9 3.62 5.8 7.42 7.2 10.3 2.5 5.1-16 5.67-18.6 6.18-6.1 1.23-9.2 0.33-9.2 8.25 0 6.21-3.8 9.93-7.2 13.39-4.1 4.05-5.5 10.33-9.3 15.46-4.8 6.41-6.7 12.25-14.4 10.3-6.2-1.55-13.8-0.07-16.5 1.03-0.3 0.1 24.4 21.83 27.8 24.74 6.5 5.59 16.1 11.13 22.7 14.42 4.6 2.3 3.6 11.22 2 14.43-1.9 3.8-9 4.12-13.4 4.12-9.5 0-15.4-0.99-23.7-5.15-8-4-19.7-9.31-27.8-11.34-6.8-1.71-15-4.78-20.6-6.18-5.8-1.44-10.1-4.99-14.4-8.24-4.1-3.03-5.8-6.99-10.3-9.28-5.8-2.87-10.3-3.91-16.5-5.15-10.1-2.02-22-6.11-12.4 8.24 4.6 6.93 5.5 8.82 7.2 17.52 1.3 6.4 0.5 10.48-1 16.49-2.8 11.24-12.8 18.26-18.6 27.82-2.8 4.71-6.8 9.98-10.3 13.4-6.3 6.33-9 8.17-17.5 10.3-10.6 2.66-28.5-5.42-25.7-16.49 1.4-5.72 10.5-9.91 15.4-12.36 7.3-3.66 7-8.27 10.3-16.49 2.8-7.05-2.4-12.62-6.2-15.46-3-2.28-18.7-0.73-22.6-2.06-12.5-4.16-11.7-2.31-16.5 7.22-2.7 5.39-7.6 10.82-12.4 14.42-3.9 2.94-8.7 4.76-14.4 6.19-12.9 3.23-29.6-2.3-41.2-6.19-12.5-4.17-35.9-8.24-49.5-8.24-8.4 0-19 11.91-25.7 17.52-6 4.98-12.9 7.21-20.7 7.21-8.1 0-15.5-2.32-22.6-5.15-10.6-4.24-24.9-12.37-36.1-12.37-9.8 0-11.3-11.48-11.3-18.55 0-6.58-2.6-9.12-4.2-15.45-1.4-5.97-2-10.94-2-17.52 0-9.6-10.6-9.73-16.5-8.24-4.3 1.06-10.1 3.99-14.4 6.18-4.3 2.13-13.2-0.4-16.5-2.06-7-3.49-14.7-4.78-19.6-11.34-3-4-5.1-15.47-6.2-19.58-1.7-6.95-7.2-15.5-7.2-22.67 0-11.05 9.4-16.12 18.6-21.64 5.7-3.44 13.9-11.47 16.4-16.48 6.6-13.1 20.8-16.36 23.7-30.92 1.4-6.9 2.3-15.06-1-21.64-3.2-6.46-3.9-14.08-7.2-20.61-2.8-5.69-4.1-8.76-4.1-15.45 0-4.9 2.1-8.44 3.1-13.4z" fill-rule="evenodd" stroke="#da0000" stroke-width="1px" fill="url(#radialGradient8287)"/>
      <path id="path6907" d="m1144.8 538.71c-17 25.57-29 44.02-30.8 60.88 14.9-6.29 28-2.24 42.3-7.38-14.9 35.86 45.5 24.93 69.7 8.13 8.3 29.69 28.6 15.96 36.8 24.39 38.7 35.9 169.8 31.19 190.6-23.79 19.7-54.85-18.6-134.17-91.7-125.16-67.4-1.68-141.7-8.14-191.7 42.9-8.6 6.51-16.9 13.26-25.2 20.03z" fill-rule="evenodd" stroke="url(#linearGradient8291)" stroke-width="1.2261px" fill="url(#radialGradient8289)"/>
      <path id="path8161" fill-opacity=".48087" fill-rule="evenodd" fill="#d40000" d="m1182.8 500.38c5.3-1.46 15.2 2.92 21.8 6.21 6.8 3.41 7.3 10.8 9.3 18.63 1.8 7.32 1.5 15.19 1.5 23.29 0 6.85-5.8 13.29-7.7 17.07-1 1.97 8.5-4.26 12.4-6.21 8.9-4.46 16.1-9.6 24.8-13.97 11.7-5.82 25.1-5.32 37.3-7.76 9.3-1.87 18.5 1.12 26.4 3.1 7.2 1.81 14.7 13.01 17.1 23.29 42.8-38.36 84.5-21.19 127.2 4.66 7.2 7.17 10.3-30.39 9.4-34.16-2.8-10.92-4-6.2 7.7-6.2 5.5 0 15.4 8.1 20.2 9.31 7.5 1.86 12.5 5.84 20.2 7.76 6.8 1.71 15.9 1.55 21.7 1.55 11.7 0 14.3 1.03 26.4-6.21 5.4-3.26 12.3-5.08 20.2-3.1 6.1 1.52 9.8 6.48 15.5 9.31 7.8 3.92 14.2 6.32 20.2 9.32 6.8 3.41 11.1 6.32 17.1 9.31 5.5 2.76 9.4 7.84 15.5 10.87 3.1 1.54-10.6-5.96-14-9.32-9.9-9.93-28.1-12.62-37.2-21.73-7.6-7.54-14.3-14.28-21.8-21.73-6.2-6.22-10.6-12.99-12.4-20.18-1-4.05 13.3-4.66 20.2-4.66 8.8 0 16.4 3.57 21.7 6.21 5.7 2.86 9.5-8.58 10.9-13.97 1.1-4.38 15.2-3.79 18.6-4.66 9.2-2.29 21.4 0 31.1 0 14 0-2.1-2.59-6.3-4.65-12.3-6.19-20.5-9.79-31-12.42-9.5-2.38-16.3-0.2-23.3 1.55-7.5 1.89-18.5 7.68-24.8 10.87-6.3 3.15-18.3-1.4-21.8-3.11-9.5-4.76-16.8-12.37-29.4-15.52-17.2-4.29-35.7-13.97-54.4-13.97-15.4 0-31.1-6.16-43.4 0-11.4 5.7-20.3 6.27-28 13.97-13.9 13.95-48.3 12.42-68.3 12.42-12.9 0-22.7-0.24-34.1-3.11-8.4-2.09-17-5.4-26.4-7.76-6.4-1.58-14.7 10.03-17.1 12.42-5.8 5.81-11.3 8.74-18.6 12.42-8.8 4.38-15.6 5.46-24.9 7.76-7.7 1.94-19.3 3.1-29.5 3.1z"/>
      <path id="path8141" opacity=".5" d="m1225.3 445.19c-32.7 3.24-62 19.22-93.1 28.44-11.1 5.17-21.4 12.02-32.6 17.23-10.9 5.8-21.8 12.63-29.3 22.64 9.8 9.61 20 19.3 31.9 26.35 10.2 4.41 21.4 6.36 32.5 5.53 13.8 4.73-5 16.52-3.3 25.85-6.3 5.72-18.7 22.01-3.5 19.45 20.1 1.56 46.2-1.43 62.4-14.1 19.1-13.67 33.5-32.46 49.4-49.46 11.2-15.66 26.8-27.24 42.7-37.86 10.2-6.58 23-20.27 13.5-32.55-7.5-9.51-20.7-10.42-31.9-10.48-9.7 0.05-19.3 3.5-28.7 0.12-3.3-0.71-6.6-1.32-10-1.16z" fill-rule="evenodd" stroke="url(#linearGradient8293)" stroke-width="1px" fill="#d40000"/>
      <path id="path6921" d="m1231.9 437.77c-32-6.88-64.8-0.21-97.1-2.74-23.2 6.67-49.6 3.93-70 18.37-13.6 11.23-13.3 32.26-4.8 46.51 5.2 9.22 12.7 16.77 19.4 24.84 16.4 16.34 39.5 23.6 61.9 27.21 29.5 2.85 55.7-13.86 80.4-27.55 11.1-4.95 20.2-13.24 31.6-17.53 14.9-6.22 31.6-8.1 45.8-16.13 9.9-5.97 10.3-20.54 0.3-26.87-11.2-9.43-25.7-13.95-40-15.52-9.6-2.6-17.2-10.61-27.5-10.59z" fill-rule="evenodd" stroke="url(#linearGradient8297)" stroke-width="1px" fill="url(#radialGradient8295)"/>
      <path id="path6928" d="m1235.4 385.23c-43.4-17.76-99.9-38.78-144.9-13.89-42 52.88 67.8 74.93 112 54.81 25.1 8.29 97.3-5.27 46.5-30.76-5-2.87-10-5.96-13.6-10.16z" fill-rule="evenodd" stroke="url(#linearGradient8301)" stroke-width="1.0837px" fill="url(#radialGradient8299)"/>
      <path id="path8137" opacity=".57692" d="m1095 478.39c3.9 4.3 7.8 6.32 11 8.24 4.6 2.72 10.6 4.34 14.1 5.14 8.3 3.86 13.9 12.49 21.4 17.77 3.9 2.3 6-6.13 10-7.22 18.4-2.63 37.7 1.45 56.4-0.8 6.1-1.68 1.7-10.19 5-0.26 0.4 1.02 11.4 3.57 11.5 3.6 5.3 1.21 4.8 4.86 9.9 1.79 3.2-1.91 1.9 2.44 4.1 9.02 9 19.73 41.7 8.08 57.2 7.96 6.6-0.01 10.6-5.76 14.4-9.55 14.1-16.66 28.3-25.75 49.2-31.46 5.9-1.6 10.3-0.64 14.8-5.16-80.7-13.71-220-59.02-279 0.93z" fill-rule="evenodd" stroke="url(#linearGradient8303)" stroke-width="1px" fill="#a00"/>
      <path id="path6942" d="m1114.4 415.1c2.5 4.92 5.7 7.74 8.3 10.31 3.6 3.63 9.1 6.63 12.3 8.24 7.1 5.62 9.7 14.91 15.5 21.64 3.1 3.07 8-4.12 12.4-4.12 19.3 2.2 37.2 10.78 56.6 13.39 6.7 0 5.2-8.89 5.2 1.03 0 1.03 10.2 6.13 10.3 6.19 4.9 2.44 3.1 5.65 9.3 4.12 3.8-0.96 1 2.7 1 9.27 2.4 20.34 39.1 17.87 54.6 21.64 6.6 1.65 12.5-2.63 17.5-5.15 19.7-11.73 37-16.49 59.8-16.49 6.4 0 10.5 1.98 16.5-1.03-76.2-32.78-200.3-109.2-279.3-69.04z" fill-rule="evenodd" stroke="url(#linearGradient8307)" stroke-width="1px" fill="url(#radialGradient8305)"/>
      <path id="path8212" opacity=".54945" fill-rule="evenodd" fill="url(#linearGradient8309)" d="m1606 472.5c-6.4 8.25-14.9 17.21-26.4 14.73-19-1.14-34.9-12.56-49.2-24.16-14.5-6.22-30.6-3.81-45.9-5.68-9.3 2.26-36.9 5.49-27.1-11.28 16.7-11.95 38.8-9.41 58.1-13.37 16.1-0.8 32.3-0.09 48.5-1.3 16.3 0.81 32.2 5.12 48.3 7.14 57.8 23.29 19.5 17.07-6.3 33.92z"/>
      <path id="path6946" d="m1510.1 469.72c-3.5 1.74-14.2 7.29-19.6 11.33-6.6 5.02-19.7 7.25-27.8 9.28-7.1 1.77-14.1 3.52-20.6 5.15-5.3 1.34-11.1 1.75-16.5 3.09-5 1.25-12.3 0-17.5 0h-16.5c-5.1 0-14.4-8-17.5-10.31-4.7-3.52-8-6.58-13.4-9.27-6.2-3.11-10.7-6.53-17.5-8.24-7.1-1.76-10.9-0.83-17.5-4.12-6.6-3.31-4.2-8.63-4.2-14.43 0-4.59 8.8-7.21 12.4-7.21 8.5 0 18-1.04 26.8-1.04 8.2 0 17 0.12 24.7 2.07 7.7 1.92 16.3 1.23 23.7 3.09 8.9 2.21 16.7 3.09 25.8 3.09 8.6 0 18.5 1.03 27.8 1.03 8 0 16-0.25 23.7 1.03 6.1 1.02 10.1 3.09 16.5 3.09 6.3 0 10.1 3.03 14.4 4.12 7.1 1.78-5.3 7.86-7.2 8.25z" fill-rule="evenodd" stroke="#da0000" stroke-width="1px" fill="url(#radialGradient8311)"/>
      <path id="path6944" d="m1318.5 433.65c-2.8 2.73-10 6.98-11.4 12.37-1.4 5.65-2.3 8.8 0 13.39 2.8 5.5 8.4 4.09 12.4 3.09 5.2-1.3 11.4-4.55 15.4-6.18 4.6-1.83 7.8-4.41 11.4-6.18 3.5-1.74 9.5-1.03 14.4-1.03 5.2 0 10.1 0.72 15.5 2.06 5.2 1.32 10.4 1.84 15.4 3.09 5.3 1.31 9.9 2.98 14.4 4.12 4.5 1.12 8.5 2.89 13.4 4.12 5.4 1.34 10.3 1.8 15.5 3.09 4.5 1.12 8.7 2.18 12.4 3.1 4.5 1.12 10.8 0 15.4 0 6.5 0 7.3-1.03 13.4-1.03 6 0 10.2 0.06 14.4-2.07 4.4-2.2 8-2.39 13.4-1.03 6 1.48 8.7 2.3 12.4 4.13 5 2.48 9.6 4.27 13.4 6.18 4 2 5.9 4.49 9.3 6.18 4.7 2.38 9.2 2.07 13.4 1.03 7.9-1.98 7.7-0.48 10.3-3.09 1-1.06-11.9-8.5-13.4-9.27-4.9-2.46-8.6-4.3-14.4-7.22-6.8-3.38-10.6-5.47-17.6-7.21-5.6-1.41-11.8-3.99-16.5-5.15-5.8-1.46-11.8-1.68-17.5-3.09-10.4-2.62-20.2-1.61-30.9-5.16-8.7-2.92-20.1-1.94-28.8-4.12-6.2-1.54-12.4-2.57-18.6-4.12-7.5-1.89-15.8-4.12-23.7-4.12-8.8 0-17.1-1.03-25.7-1.03-7.5 0-13.6-1.03-20.7-1.03-5.9 0-9.9 0.32-13.4 2.06-3.9 1.99-0.8-4.76-3 4.12z" fill-rule="evenodd" stroke="#da0000" stroke-width="1px" fill="#ffdad5"/>
      <path id="path6950" stroke-linejoin="round" d="m1277.2 441c-6.2-4.24-28.1-11.72-41.2-15.95-10.1-3.25-18.7-13.08-25.8-19.93-6.4-6.26-11.5-10.14-19.5-15.95-4.1-2.94-7.7-7.86-10.3-12.95-3.1-5.91-4.7-10.92-6.2-16.95-0.2-0.82 5.4-4.29 8.2-4.98 1.9-0.45 9.4 8.05 10.3 8.97 3.5 3.32 6.5 4.26 9.3 6.98 4 3.84 8.3 5.98 12.4 9.96 2.8 2.77 8 4.19 11.3 4.99 6.4 1.55 10.6 2.55 16.5 3.98 6.2 1.49 13.5 2.78 18.6 3.99 7 1.7 11.1 4.89 17.5 7.97 5.4 2.61 13.2 2.92 17.5 4.99 5.3 2.56 12.1 2.37 17.5 4.98 5.2 2.5 11.9 4.27 15.5 5.98 5.4 2.62 4.1 8.45 4.1 13.95 0 8.11-6.4 10.26-13.4 11.96-7.1 1.72-15.2 1-22.7 1-7.3 0-13.1 0.74-19.6-2.99z" fill-rule="evenodd" stroke="url(#radialGradient8315)" stroke-width="3.1475" fill="url(#radialGradient8313)"/>
      <path id="path6952" d="m1342.2 428.5h-20.7c-6.6 0-9-2.47-14.4-5.15-4.1-2.07-7.9-5.84-11.3-9.28-4.2-4.17-11-6.09-15.5-7.21-4.1-1.03-8.9-5.48-12.3-7.21-4.9-2.45-12.3-2.01-17.6-4.13-7.2-2.91-14.4-4.37-21.6-6.18-7.3-1.82-11.7-4.32-17.5-7.21-1.4-0.69-2.8-1.38-4.1-2.06-5.3-2.65-12.2-9.05-15.5-12.37-3.9-3.87-4.7-8.37-7.2-13.4-0.9-1.7 12-1.37 13.4-1.03 5.3 1.32 10.5 1.85 15.4 3.1 7.1 1.77 12.5 5.42 19.6 7.21 6.1 1.52 11.4 3.92 17.5 5.15 6 1.2 12.5 5.7 17.6 8.25 4.8 2.42 10.9 4.01 15.4 5.15 6.4 1.6 10.8 5.15 17.5 5.15 4.1 0 9.8 5.26 12.4 7.21 4.7 3.55 10.2 7.94 13.4 10.31 3.1 2.3 7.9 10.17 10.3 13.39 2.8 3.71 2.8 5.57 5.2 10.31z" fill-rule="evenodd" stroke="#da0000" stroke-width="1px" fill="url(#linearGradient8317)"/>
      <path id="path7857" d="m1228.8 358.43v-18.55c0-7.23-0.8-11.87 3.1-4.12 2.7 5.46 1.9 15.3 4.1 4.12 1.4-6.8-1-13.98-1-20.61 0-6.17-1.3-13.36 0-18.55 2-7.96 5.6-16.37 9.3-23.7 3.1-6.36 2.3-14.9 0-19.58-3.7-7.39 6.2-7.21 12.3-7.21 5.6 0 9.6-3.73 14.5-6.18 3.7-1.89 9.4-6.31 13.4-9.28 3.4-2.62 11.2-4.12 15.4-4.12 6.2 0 11 0.69 16.5 2.06 5.8 1.46 11.4 9.3 15.5 13.4 5.1 5.12 9.1 10.14 13.3 14.42 8.1 8.01 13.3 24.46 17.6 35.04 2.3 5.89 9.5 13.87 12.3 18.55 3.5 5.83 4.4 9.97 3.1 16.48-1.5 7.64-23.3 3.1-27.8 3.1-12.9 0-23.2-0.12-36.1 3.09-6.2 1.56-15.1 15.1-18.5 18.55-5.9 5.9-18.7 8.24-26.8 8.24-13 0-16.5 2.68-29.9 0-2.7-0.55-6-4.07-10.3-5.15z" fill-rule="evenodd" stroke="url(#linearGradient8321)" stroke-width=".5" fill="url(#radialGradient8319)"/>
      <path id="path7861" d="m1455.9 323.42c2.7-68.91 125.7-112.07 157.7-53.92 31.1 167.58-36.9 64.57-107.7 162.83-21.3-18.1-24.9-91.85-50-108.91z" fill-rule="evenodd" stroke="#d00000" stroke-width="1.0284px" fill="url(#radialGradient8323)"/>
      <path id="path7859" d="m1541.4 446.05c-4 2.45-15.4 11.62-23.3 15.53-9.3 4.66-21.3 2.71-31 4.65-11.7 2.33-21.1-0.91-27.9-7.76-7-6.94-11.4-9.77-17.1-15.52-6.3-6.3-9-10.95 3.1-13.97 23.2-5.8 48.6-2.06 71.4-7.76 8.7-2.19 17.5-4.89 23.3-7.76 6.6-3.3 10.5-4.66 20.2-4.66 10.3 0 19 3.1 29.4 3.1 9.1 0 13.6-0.89 23.3 1.56 5.7 1.42 10.5 10.48 15.6 15.52 6.9 6.92 6.7 8.48 9.3 18.63 3.5 14.06-29.4 1.08-32.6 0-14.6-4.86-30.8-11.32-45-7.76-7.2 1.77-9.3 4.33-18.7 6.2z" fill-rule="evenodd" stroke="url(#linearGradient8327)" stroke-width="1px" fill="url(#radialGradient8325)"/>
      <path id="path6958" d="m1366.2 346.77c1.8-3.36 9-9.04 13.3-12.03 5.1-3.5 6.6-7.34 10.7-11.11 4.3-4.04 5.4-7.52 9.3-11.11 5.2-4.85 4.5-4.02 13.3-5.56 9.6-1.66 10.1-0.16 8 5.56-1.9 5.24-3 8.35-1.3 12.96 1.6 4.53 7.8 9.12 13.3 12.96 5.3 3.69 8.2 5.73 13.3 9.26 3.7 2.53 11.9 4.33 16 6.48 5.2 2.69 10.2 3.56 16 5.55 6.1 2.13 9.5 3.71 17.3 3.71 2.1 0 9.5-7.51 10.7-8.34 4.6-3.25 10.6-2.77 15.9-6.48 6.3-4.33 5.4-8.72 5.4-14.81 0-5.87 3.6-7.43 10.6-11.11 4.3-2.23 11.7-2.2 16-3.7 6.1-2.13 11.2 3.57 13.3 6.48 2.8 3.84 2.8 8.58 4 12.03 1.5 4.11 0 10.28-1.3 13.89-1.8 4.83-1.4 9.34-4 12.96-3.2 4.38-4.8 9.45-8 13.89-3.1 4.37-6.9 7.6-10.7 10.18-5.6 3.94-8.7 7.6-11.9 12.04-3.1 4.2-6.1 8.44-9.4 12.96-4 5.65-7.1 7.56-14.6 10.18-8.3 2.9-20.3 3.99-29.3 5.56-13.6 2.35-27.3 4.05-41.3 6.48-7.6 1.32-12.4 3.96-17.3 7.4-9.6 6.66-19.8-15.04-24-18.51-8.1-6.76-12-13.88-21.3-20.37-15.6-10.87-21.2-13.47-25.3-25-1.3-3.68 8.4-13.56 10.6-16.66 4.4-5.99 6.6-9.01 2.7-15.74z" fill-rule="evenodd" stroke="url(#radialGradient8331)" stroke-width="1.0776px" fill="url(#radialGradient8329)"/>
      <path id="path6954" d="m1244.3 383.16c-0.7-2.37-10.3-10.7-10.3-16.49 5.5-16.16 33.5-44.13 50.5-48.43 14.7 16.06 39.2-2.33 51.5 10.3 6.4 0 35.6-9.27 42.2-9.27 5.8 0 10.5 1.13 14.4 3.09 3 1.5 5.6 8.81 6.2 11.34 1.2 4.59 5.1 8.12 8.3 12.36 16.3 26.62 39.2 32.1 46.3 63.89 1.3 4.92-0.1 10.79 1.1 15.46 1.7 7.05-5.6 9.47-9.3 11.33-5.3 2.63-13.8 3.7-19.6 5.15-15 3.76-29.9-0.51-44.3-4.12-2.7-0.68-5.5-1.37-8.2-2.06-19.4-4.85-41.2-5.4-60.8-10.3-15-3.75-34.5-11.86-43.3-20.61-8.3-8.32-24.7-4.36-24.7-21.64 0-1.75-3.5-0.69-5.2-1.03-1.7-0.35 3.4 0.68 5.2 1.03z" fill-rule="evenodd" stroke="#da0000" stroke-width="1px" fill="url(#radialGradient8333)"/>
      <path id="path6956" d="m1400 339c6.5 28.95 23.1 55.43 25 85.39 0 7.65 3.1 15.38 8.7 20.95 3.3 4.06 9.8 1.92 11.2-2.64 1.6-4.24 2.6-8.3 6.4-11.49 5.9-7.97 8-25.05 4-33.09-8.1-17.05-19.1-32.12-36.1-40.04-4.5-4.49-7.6-10.1-12.1-14.67-1.9-1.93-4.3-3.56-7.1-4.41z" fill-rule="evenodd" stroke="url(#linearGradient8337)" stroke-width="2.358" fill="url(#radialGradient8335)"/>
      <path id="path8185" opacity=".63736" d="m1417.2 520.56c-55.3 4.34-105.1 34.62-119.5 94.69" stroke="url(#linearGradient8339)" stroke-linecap="round" stroke-width="4.1" fill="none"/>
      <path id="path6960" d="m1401.4 333.21c2.2-1.57 6.5-9.89 9.3-15.45 3-5.98 5.3-7.4 10.3-12.37 3.1-3.09 5.2-6.21 8.3-9.27 3.8-3.82 8.2-4.64 13.3-7.22 5.1-2.53 11.7 2.08 14.5 4.13 4.3 3.26 6.8 9.46 9.2 14.42 3.2 6.36 3.6 7.96 8.3 10.31 6 3.01 7.5 6.77 13.4 8.24 4.5 1.14 8.1 3.07 12.4 4.12 3.9 1 9.9-6.83 11.3-8.24 3.6-3.61 7.8-5.71 11.3-9.28 4-3.98 6.1-3.58 12.4-5.15 4.7-1.18 7.4-4.94 12.4-6.18 5.8-1.46 9.8 1.58 12.3 4.12 5.3 5.28 6.6 5.62 8.3 12.37 1.9 7.78-4.2 7.21-10.3 7.21-8 0-11.6 1.15-17.6 4.12-6.6 3.31-12.8 7.53-16.4 12.37-3.1 4.12-5.5 9.58-8.3 12.36-5.1 5.08-13.2 6.19-20.6 6.19-6 0-11.2 2.06-17.5 2.06-3.6 0-8.8-13.54-9.3-15.46-1.7-6.83-7.2-13.44-11.3-17.52-4.8-4.77-8-9.08-9.3-14.42-1.4-5.56-3-7.71-4.1-12.37-1.4-5.6-11.4 1.55-12.4 2.06-5.3 2.66-7.8 6.75-11.3 10.31-1.3 1.29-0.5 13.37-1.1 15.45-1.6 6.47-3.4 5.76-9.2 7.22-2.5 0.61-7-3.35-8.3-4.13z" fill-rule="evenodd" stroke="#da0000" stroke-width=".3" fill="url(#radialGradient8341)"/>
    </g>
  </g>
  <metadata>
    <rdf:RDF>
      <cc:Work>
        <dc:format>image/svg+xml</dc:format>
        <dc:type rdf:resource="http://purl.org/dc/dcmitype/StillImage"/>
        <cc:license rdf:resource="http://creativecommons.org/licenses/publicdomain/"/>
        <dc:publisher>
          <cc:Agent rdf:about="http://openclipart.org/">
            <dc:title>Openclipart</dc:title>
          </cc:Agent>
        </dc:publisher>
        <dc:title>rose</dc:title>
        <dc:date>2006-10-09T04:50:14</dc:date>
        <dc:description>pink open rose</dc:description>
        <dc:source>http://openclipart.org/detail/452/rose-by-tomas_arad</dc:source>
        <dc:creator>
          <cc:Agent>
            <dc:title>tomas_arad</dc:title>
          </cc:Agent>
        </dc:creator>
        <dc:subject>
          <rdf:Bag>
            <rdf:li>blossom</rdf:li>
            <rdf:li>clip art</rdf:li>
            <rdf:li>clipart</rdf:li>
            <rdf:li>colour</rdf:li>
            <rdf:li>contour</rdf:li>
            <rdf:li>flower</rdf:li>
            <rdf:li>love</rdf:li>
            <rdf:li>nature</rdf:li>
            <rdf:li>pink</rdf:li>
            <rdf:li>plant</rdf:li>
            <rdf:li>rose</rdf:li>
            <rdf:li>shadow</rdf:li>
            <rdf:li>valentine</rdf:li>
          </rdf:Bag>
        </dc:subject>
      </cc:Work>
      <cc:License rdf:about="http://creativecommons.org/licenses/publicdomain/">
        <cc:permits rdf:resource="http://creativecommons.org/ns#Reproduction"/>
        <cc:permits rdf:resource="http://creativecommons.org/ns#Distribution"/>
        <cc:permits rdf:resource="http://creativecommons.org/ns#DerivativeWorks"/>
      </cc:License>
    </rdf:RDF>
  </metadata>
</svg>
