<svg xmlns="http://www.w3.org/2000/svg" viewBox="0 0 155.785 21.774"><title>banner_1</title><polygon points="24.852 18.225 28.11 18.225 28.11 11.208 28.11 9.58 28.11 3.44 24.852 3.44 24.852 18.225" style="fill:#323276"/><polygon points="91.257 18.225 94.516 18.225 94.516 11.208 94.516 9.58 94.516 3.44 91.257 3.44 91.257 18.225" style="fill:#323276"/><path d="M46.48,3.44L39.829,18.16l-6.8-7.85,6.289-6.87H35.061l-6.185,6.92,6.457,7.865h8.06l1.178-2.844H51l1.216,2.844h3.676L49.174,3.44H46.48Zm-0.77,9.185,2.022-4.883,2.09,4.883H45.711Z" style="fill:#323276"/><path d="M112.887,3.44l-6.651,14.721-6.8-7.851,6.29-6.87h-4.262l-6.186,6.92,6.458,7.865H109.8l1.177-2.844h6.432l1.217,2.844H122.3L115.58,3.44h-2.693Zm-0.769,9.185,2.021-4.883,2.09,4.883h-4.111Z" style="fill:#323276"/><path d="M149.065,3.44h-2.694l-6.68,14.785h3.593l1.177-2.844h6.433l1.217,2.844h3.675ZM145.6,12.625l2.022-4.883,2.089,4.883H145.6Z" style="fill:#323276"/><path d="M68.517,5.121a7.746,7.746,0,0,0-2.788-1.285,13.979,13.979,0,0,0-3.373-.4H57.471V18.225H62.8a10.344,10.344,0,0,0,3.155-.479A8.117,8.117,0,0,0,68.6,16.334a6.784,6.784,0,0,0,1.827-2.3,7.043,7.043,0,0,0,.678-3.163,7.739,7.739,0,0,0-.7-3.446A6.285,6.285,0,0,0,68.517,5.121Zm-1.2,7.705a3.656,3.656,0,0,1-1.118,1.4,4.461,4.461,0,0,1-1.68.762,9.069,9.069,0,0,1-2.1.229H60.728V6.447H62.65a7.175,7.175,0,0,1,1.953.261,4.812,4.812,0,0,1,1.618.783,3.766,3.766,0,0,1,1.1,1.326,4.135,4.135,0,0,1,.407,1.89A4.961,4.961,0,0,1,67.316,12.826Z" style="fill:#323276"/><path d="M86.788,5.164a7.3,7.3,0,0,0-2.527-1.556,9.673,9.673,0,0,0-6.389,0,7.287,7.287,0,0,0-2.528,1.556,7.071,7.071,0,0,0-1.661,2.453,8.364,8.364,0,0,0-.6,3.216,8.374,8.374,0,0,0,.6,3.217A7.076,7.076,0,0,0,75.345,16.5a7.281,7.281,0,0,0,2.528,1.555,9.658,9.658,0,0,0,6.389,0A7.289,7.289,0,0,0,86.788,16.5a7.066,7.066,0,0,0,1.661-2.453,8.374,8.374,0,0,0,.595-3.217,8.364,8.364,0,0,0-.595-3.216A7.061,7.061,0,0,0,86.788,5.164Zm-1.452,7.579a4.383,4.383,0,0,1-.929,1.5,4.246,4.246,0,0,1-1.451.992,5.2,5.2,0,0,1-3.779,0,4.219,4.219,0,0,1-1.452-.992,4.36,4.36,0,0,1-.929-1.5,5.393,5.393,0,0,1-.325-1.911,5.432,5.432,0,0,1,.325-1.9,4.354,4.354,0,0,1,.929-1.513,4.245,4.245,0,0,1,1.452-.992,5.214,5.214,0,0,1,3.779,0,4.273,4.273,0,0,1,1.451.992,4.378,4.378,0,0,1,.929,1.513,5.468,5.468,0,0,1,.324,1.9A5.428,5.428,0,0,1,85.336,12.743Z" style="fill:#323276"/><polygon points="137.859 3.44 135.373 13.171 135.331 13.171 132.551 3.44 129.523 3.44 126.721 12.921 126.68 12.921 124.319 3.44 120.77 3.44 125.154 18.225 127.953 18.225 130.922 7.992 130.964 7.992 133.933 18.225 136.834 18.225 141.159 3.44 137.859 3.44" style="fill:#323276"/><path d="M9.229,3.388A0.242,0.242,0,0,0,8.822,3.22a1.135,1.135,0,0,0-.125.345,0.893,0.893,0,0,1-.771.667A1.142,1.142,0,0,0,8.9,4.01,0.806,0.806,0,0,0,9.229,3.388Z" style="fill:#323276"/><path d="M9.124,4.343a0.784,0.784,0,0,0,.563-0.614c0.018-.165-0.027-0.295-0.179-0.274a0.578,0.578,0,0,0-.258.392,1.069,1.069,0,0,1-.858.45,0.518,0.518,0,0,0,.34.08A1.5,1.5,0,0,0,9.124,4.343Z" style="fill:#323276"/><path d="M10.589,19.864a1.485,1.485,0,0,0-.6.007,0.947,0.947,0,0,1-.577-0.036,0.433,0.433,0,0,1,0-.215c0.028-.242.058-0.445,0.095-0.652a0.594,0.594,0,0,0,.652-0.384,0.864,0.864,0,0,1-.591.03,9.025,9.025,0,0,1,.259-1.265A0.57,0.57,0,0,1,9.991,17a0.783,0.783,0,0,1,.229.006,1.62,1.62,0,0,0,1.374-.421,2.388,2.388,0,0,1-1.522-.035A1.98,1.98,0,0,1,9.806,16.3a6.667,6.667,0,0,1-.726-0.843c-0.147-.013-0.325,0-0.473-0.014a2.273,2.273,0,0,1,.533-0.125c-0.065-.111-0.156-0.225-0.236-0.342A0.838,0.838,0,0,1,8.7,14.6a0.326,0.326,0,0,1,.243.134c0.071,0.057.144,0.122,0.215,0.178A9.46,9.46,0,0,0,11.7,16.292a4.114,4.114,0,0,0,1.3.26,12.5,12.5,0,0,1-1.286-.733,3.882,3.882,0,0,1-1.081-.947,7.718,7.718,0,0,0,1.272.754,3.939,3.939,0,0,0,1.642.392,2.542,2.542,0,0,0,1.265-.331,2.881,2.881,0,0,1-2.368-.837,5.878,5.878,0,0,0,2.456-.91,6.472,6.472,0,0,0,1.715-1.656,5.5,5.5,0,0,0,.977-2.4,3.318,3.318,0,0,0-.067-1.5,1.5,1.5,0,0,0-.77-0.916,0.594,0.594,0,0,0-.85.377,4.118,4.118,0,0,0,0,.533,6.493,6.493,0,0,1-.732,3.017,5.511,5.511,0,0,1-3.689,2.727,5.714,5.714,0,0,1-1.895.223,2.384,2.384,0,0,1-1.464-.674,2.557,2.557,0,0,1-.753-1.389A5.238,5.238,0,0,0,8.2,13.452a1.818,1.818,0,0,0,1.315.667,2.171,2.171,0,0,1-1.064-1.281,2.429,2.429,0,0,0,1.214,1.1,2.469,2.469,0,0,0,1.892-.156,2.366,2.366,0,0,1-1.988-.894,0.066,0.066,0,0,1,.015.006,3.646,3.646,0,0,0,2.151.667,2.889,2.889,0,0,0,1.8-.844,0.13,0.13,0,0,0,.068-0.081,4.625,4.625,0,0,1-2.323.207,1.684,1.684,0,0,1-.688-0.2,5.85,5.85,0,0,0,3.031-.244,3.242,3.242,0,0,0,1.62-1.841,0.106,0.106,0,0,0-.074.044,4.4,4.4,0,0,1-3.333,1.316,14.769,14.769,0,0,0,1.5-.415A3.425,3.425,0,0,0,15.41,9.74a3.19,3.19,0,0,0,.141-1.892,3.709,3.709,0,0,1-.968,1.967A3.217,3.217,0,0,1,12.726,10.9a4.383,4.383,0,0,0,2.308-2.2,3.147,3.147,0,0,0,.125-1.923,1.9,1.9,0,0,0-.99-1.263,3.49,3.49,0,0,1,.23,1.241,4.3,4.3,0,0,1-.2,1.279A3.176,3.176,0,0,1,13.17,9.584a0.452,0.452,0,0,1-.23.14A4.577,4.577,0,0,0,13.8,8.409a3.952,3.952,0,0,0,.347-1.834,1.792,1.792,0,0,0-.407-1.043,1.2,1.2,0,0,0-.99-0.458c0.042,0.072.1,0.132,0.147,0.207a3.2,3.2,0,0,1,.253,2.2,4.241,4.241,0,0,1-.926,1.96c-0.008.012-.035,0.026-0.021,0.045a0.3,0.3,0,0,1,.413.023,1.231,1.231,0,0,1-.082,1.124c0.065-.008.071,0.01,0.082,0.044a0.551,0.551,0,0,1-.133.341,1.807,1.807,0,0,1-.7.717,1.22,1.22,0,0,1-.488.524,1.4,1.4,0,0,1-.879.267,0.444,0.444,0,0,1-.452.259,3.481,3.481,0,0,1-1.087-.009,1.55,1.55,0,0,1-.45-0.132,0.324,0.324,0,0,0-.185-0.1,0.221,0.221,0,0,0-.1.089c-0.135.154-.308,0-0.391-0.142a0.473,0.473,0,0,1,.006-0.562c0,0.056,0,.135,0,0.2,0.009,0.159.1,0.466,0.257,0.444a2.167,2.167,0,0,1,.172-0.157,0.349,0.349,0,0,1-.03-0.354,0.491,0.491,0,0,0,.133.325,2.354,2.354,0,0,0,1.805.252,0.217,0.217,0,0,0,.193-0.118,0.432,0.432,0,0,0-.155-0.044,0.989,0.989,0,0,1-.282-0.192,0.7,0.7,0,0,1-.222-0.259,1.358,1.358,0,0,0,.6.34,1.252,1.252,0,0,0,.968-0.178,0.9,0.9,0,0,0,.4-0.392,0.644,0.644,0,0,1-.606-0.119c0.119,0.009.2,0.052,0.318,0.052a1.35,1.35,0,0,0,1-.622,0.7,0.7,0,0,0,.178-0.354,1.789,1.789,0,0,1-.962.347,2.512,2.512,0,0,0,.851-0.466,0.974,0.974,0,0,0,.206-0.407c0.063-.231.088-0.755-0.213-0.732a0.717,0.717,0,0,0-.236.124c-0.23.153-.436,0.322-0.653,0.459a4.3,4.3,0,0,1-1.071.4,0.7,0.7,0,0,1,.229,1.11,1.281,1.281,0,0,1-1.486.1,1.1,1.1,0,0,1-.414.23,0.751,0.751,0,0,1-.541.028,1.083,1.083,0,0,0,1.037-.644,1.112,1.112,0,0,0-.038-0.893,1.117,1.117,0,0,0-1.471-.348,3.342,3.342,0,0,0-.45,1.545,2.792,2.792,0,0,1,.938-2.484A3.659,3.659,0,0,0,9.554,6.938a0.479,0.479,0,0,1,.207.318,2.033,2.033,0,0,1,.067.192,0.278,0.278,0,0,0,.08.184c-0.031-.3,0-0.668-0.026-0.969a1.556,1.556,0,0,0-.21-0.628,0.664,0.664,0,0,1,.259.3,1.148,1.148,0,0,0,.193.23c0.02,0.019.037,0.057,0.066,0.044-0.132-.292-0.2-0.605-0.34-0.88a2.035,2.035,0,0,0-.384-0.526,0.762,0.762,0,0,1-.15-0.147,1.168,1.168,0,0,0,.5.058C9.5,4.936,9.194,4.75,8.851,4.594a2.944,2.944,0,0,0-1.213-.28,4.895,4.895,0,0,1,.112-0.482,0.627,0.627,0,0,0-.437.08,1.2,1.2,0,0,0-.548.578,0.827,0.827,0,0,1-.2.363,0.385,0.385,0,0,0-.148-0.207,0.157,0.157,0,0,0-.118.111,0.756,0.756,0,0,0,.008.361c0.018,0.08.066,0.154,0.073,0.223a1.4,1.4,0,0,0,.03.391,0.883,0.883,0,0,0-.081.976A0.974,0.974,0,0,1,6.751,6.17C6.828,6.157,6.917,6.184,7,6.176a1.14,1.14,0,0,0,.347-0.11A4.5,4.5,0,0,1,8.3,5.645a0.459,0.459,0,0,1,.467.428,1.5,1.5,0,0,1-.245,1.3,2.5,2.5,0,0,1-.555.571,8.285,8.285,0,0,1-1.449.8,3.522,3.522,0,0,0-1.744,1.626,2.822,2.822,0,0,0-.208.917A3.806,3.806,0,0,0,5.8,14.5c0.352,0.366.769,0.753,1.155,1.1,0.295,0.263.6,0.522,0.88,0.8a1.059,1.059,0,0,1,.26.311,1.245,1.245,0,0,1-.038.42c-0.1.772-.2,1.538-0.318,2.279a0.645,0.645,0,0,1-.214.554,1.4,1.4,0,0,1-.473-0.043,2.216,2.216,0,0,0-.369.125,1.828,1.828,0,0,0-.185,0,0.346,0.346,0,0,0-.03.238A1.06,1.06,0,0,1,7.047,20.2c0.144-.017.254-0.063,0.354-0.081a1.044,1.044,0,0,1-.716.169C6.6,20.3,6.52,20.338,6.441,20.352a0.623,0.623,0,0,0-.421.1A0.831,0.831,0,0,0,6,20.787a0.77,0.77,0,0,0,.045.319,0.62,0.62,0,0,0,.146.023,0.385,0.385,0,0,1,.127.133,0.2,0.2,0,0,0-.044-0.221,0.571,0.571,0,0,0,.007-0.3,0.561,0.561,0,0,1,.341-0.119c0.1-.036.208-0.113,0.332-0.149a1.513,1.513,0,0,0,.362-0.119,0.708,0.708,0,0,1-.2.164c-0.032.033-.047,0.087-0.082,0.126a1.141,1.141,0,0,0-.4.31,0.831,0.831,0,0,0,.14.445,0.553,0.553,0,0,0,.391.132,0.227,0.227,0,0,1-.058-0.17,0.6,0.6,0,0,1-.2-0.288,0.47,0.47,0,0,1,.208-0.214c0.093-.072.169-0.124,0.243-0.178,0.176-.131.323-0.283,0.466-0.378,0.1-.065.233-0.086,0.3-0.14A0.478,0.478,0,0,1,8.289,20c0.1-.014.168,0.08,0.29,0.06a0.388,0.388,0,0,1,.207-0.112,0.326,0.326,0,0,1-.3.208,1.182,1.182,0,0,0-.147-0.016,1.29,1.29,0,0,0-.215.178,2.619,2.619,0,0,1-.295.1,1.269,1.269,0,0,0-.208.288,0.386,0.386,0,0,0-.139.143c-0.009.071,0.066,0.171,0.06,0.272a0.853,0.853,0,0,0-.024.163,0.351,0.351,0,0,0,.326.3,0.373,0.373,0,0,1,.038-0.5c0.026-.008.068,0,0.1-0.008a2.886,2.886,0,0,0,.378-0.333c0.042-.018.093-0.017,0.125-0.036,0.059-.036.1-0.113,0.157-0.155,0.081-.056.185-0.083,0.259-0.134a1.226,1.226,0,0,1,.163-0.148,0.451,0.451,0,0,1-.291.3,0.43,0.43,0,0,0-.131.067,1.006,1.006,0,0,0-.075.23,1.142,1.142,0,0,0-.222.281A1.418,1.418,0,0,0,8.4,21.3c0,0.052-.025.093-0.023,0.141a0.233,0.233,0,0,0,.252.222,0.328,0.328,0,0,1-.045-0.3,0.708,0.708,0,0,0,.34-0.516A1.453,1.453,0,0,1,9.2,20.6a1.3,1.3,0,0,1,1.042-.415,0.938,0.938,0,0,0,.047.169c0.114,0,.257-0.028.221,0.125a0.161,0.161,0,0,1,.037.231,0.1,0.1,0,0,0-.037.066,0.33,0.33,0,0,0,.275-0.2,0.3,0.3,0,0,0,.1-0.134,0.224,0.224,0,0,0-.052-0.16A1.054,1.054,0,0,0,10.589,19.864Zm5.76-8.874a5.526,5.526,0,0,0,.37-1.923,4.333,4.333,0,0,1-1.154,3.423,6.082,6.082,0,0,1-2.8,1.8A6.47,6.47,0,0,0,16.349,10.99ZM8.2,20.544a0.692,0.692,0,0,1-.1.147,2.124,2.124,0,0,0-.4.068,0.2,0.2,0,0,1,.17-0.141,1.23,1.23,0,0,0,.138.014,1.084,1.084,0,0,0,.27-0.274,1.475,1.475,0,0,0,.634-0.332A1.947,1.947,0,0,1,8.2,20.544Zm0.835-.785a0.262,0.262,0,0,1-.236.067c-0.041-.019-0.026-0.061-0.067-0.081a4.624,4.624,0,0,1-.5.03,0.232,0.232,0,0,1-.148-0.059A0.594,0.594,0,0,1,8.1,19.48c0.027-.229.057-0.48,0.094-0.689a1.152,1.152,0,0,0,.57-0.088,0.4,0.4,0,0,0,.163-0.2,0.858,0.858,0,0,1-.687-0.142c0.107-.437.169-0.921,0.267-1.367,0.28,0.137.749,0.081,0.768-.259a0.546,0.546,0,0,1-.288.081,0.4,0.4,0,0,1-.228-0.089,3.922,3.922,0,0,1-.364-0.45c-0.057-.069-0.117-0.139-0.185-0.223a0.764,0.764,0,0,0-.194-0.213c-0.077-.02-0.176.04-0.257,0.014A1.869,1.869,0,0,1,8.088,15.7a5.8,5.8,0,0,0-.411-0.547c-0.17.006-.34,0.01-0.518,0.006a4.584,4.584,0,0,1,.725-0.2c0.009,0.033-.085.089-0.1,0.148a6.777,6.777,0,0,0,1.454,1.45,0.839,0.839,0,0,1,.224.193,1.812,1.812,0,0,1-.052.383c-0.022.129-.058,0.251-0.074,0.356C9.224,18.236,9.154,19.028,9.036,19.759Z" style="fill:#323276"/><path d="M8.378,6.271a0.6,0.6,0,0,0,.134.445,0.146,0.146,0,0,0,.11-0.06,0.83,0.83,0,0,0-.148-0.878,0.267,0.267,0,0,0-.154-0.023A4.916,4.916,0,0,0,7.5,6.1a0.62,0.62,0,0,1,.3.518,1,1,0,0,0,.088.407,0.214,0.214,0,0,0,.267.014,0.8,0.8,0,0,0,.11-0.776c-0.042-.129-0.135-0.206-0.161-0.3A0.322,0.322,0,0,1,8.378,6.271Z" style="fill:#323276"/><path d="M3.741,8.432a5.078,5.078,0,0,0,.51,3.506,0.529,0.529,0,0,0,.127.14,3.479,3.479,0,0,1,.014-1.013,1.465,1.465,0,0,0,.045-0.318c-0.016-.128-0.076-0.279-0.106-0.443a1,1,0,0,1-.007-0.5,2.5,2.5,0,0,0,.423-0.364,2.919,2.919,0,0,1-.985-1C3.76,8.423,3.753,8.423,3.741,8.432Z" style="fill:#323276"/><path d="M17.732,11.463a2.97,2.97,0,0,0-.045.362c-0.033.375-.044,0.729-0.1,1.081a1.978,1.978,0,0,1-.5,1.078c-0.247.27-.584,0.483-0.814,0.77a1.076,1.076,0,0,0-.118,1.124c0,0.009.011,0.048,0.037,0.038a1.316,1.316,0,0,1,.266-0.925,5.867,5.867,0,0,1,.642-0.569,2.383,2.383,0,0,0,.784-1.635c0.04-.379.042-0.758,0.1-1.1a2.412,2.412,0,0,1,.385-0.828,3.088,3.088,0,0,0,.376-0.828,2.44,2.44,0,0,0,0-1.094s0-.011-0.007-0.008a4.688,4.688,0,0,1-.148.755,3.9,3.9,0,0,1-.563,1.2A1.921,1.921,0,0,0,17.732,11.463Z" style="fill:#323276"/><path d="M4.527,10.511a2.215,2.215,0,0,1,.687-1.1c0-.008.012-0.015-0.008-0.014a0.4,0.4,0,0,1-.3.059,1.241,1.241,0,0,1-.42.348A0.928,0.928,0,0,0,4.527,10.511Z" style="fill:#323276"/><path d="M19.056,9.7a8.5,8.5,0,0,1-.355.842c-0.132.253-.29,0.493-0.422,0.754A10.5,10.5,0,0,0,17.94,13.3a2.73,2.73,0,0,1-.97,1.383,1.931,1.931,0,0,0-.546.629,1.653,1.653,0,0,0-.1.48,3.824,3.824,0,0,1-.038.554,0.6,0.6,0,0,1-.672.46,0.781,0.781,0,0,1-.318-0.127,0.277,0.277,0,0,1-.141-0.229,0.177,0.177,0,0,1,.222-0.066c0.149,0.036.279,0.05,0.311-.1a0.393,0.393,0,0,0-.452-0.37,0.478,0.478,0,0,0-.4.3,0.614,0.614,0,0,0,.169.607,0.768,0.768,0,0,0,.562.251,0.88,0.88,0,0,0,.938-0.687,5.785,5.785,0,0,0,.039-0.607,1.385,1.385,0,0,1,.636-1,2.829,2.829,0,0,0,.85-1.139,3.53,3.53,0,0,0,.147-0.851c0.033-.3.069-0.607,0.105-0.888,0.108-.841.792-1.277,0.782-2.2C19.062,9.7,19.062,9.7,19.056,9.7Z" style="fill:#323276"/><path d="M9.236,11.6a0.97,0.97,0,0,0,1.448-.414,0.677,0.677,0,0,0-.694-0.725c0.314-.091.732-0.171,1.049-0.294a0.365,0.365,0,0,0,.267-0.186c0.018-.157-0.125-0.19-0.281-0.176-0.3.025-.6,0.122-0.924,0.176a4.507,4.507,0,0,1-1.021.067,1.178,1.178,0,0,1,.274,1.4A1.352,1.352,0,0,0,9.236,11.6Z" style="fill:#323276"/><path d="M1.147,12.7c0.335,0.637.466,1.383,0.753,2.062a3,3,0,0,0,1.324,1.493,13.711,13.711,0,0,0,1.45.657,1.852,1.852,0,0,1,.71.4,2,2,0,0,1,.778-0.644,1,1,0,0,0,.3-0.17c0.135-.2-0.109-0.364-0.288-0.347a1.24,1.24,0,0,0-.656.457,0.682,0.682,0,0,1-.2.178,0.851,0.851,0,0,1-.236-0.1c-0.249-.1-0.524-0.211-0.726-0.3A4.851,4.851,0,0,1,2.7,15.346a2.689,2.689,0,0,1-.481-0.881,13.609,13.609,0,0,0-.783-1.929,5.708,5.708,0,0,0-.556-0.8A2.315,2.315,0,0,0,0,11a3.494,3.494,0,0,0,.584.851A5.327,5.327,0,0,1,1.147,12.7Z" style="fill:#323276"/><path d="M5.915,18.362A0.8,0.8,0,0,1,5.62,18c-0.079-.151-0.124-0.326-0.2-0.465a0.747,0.747,0,0,0-.311-0.3,7.9,7.9,0,0,0-.9-0.378,4.081,4.081,0,0,1-2.225-1.621A10.523,10.523,0,0,1,1.3,13.372,3.1,3.1,0,0,0,.266,11.833c0-.009-0.009-0.006-0.006.008a6.461,6.461,0,0,1,.812,1.818,5.632,5.632,0,0,0,.717,1.9A6.027,6.027,0,0,0,4.556,17.37a3.612,3.612,0,0,1,.457.2,1.376,1.376,0,0,1,.376.59,0.932,0.932,0,0,0,.423.451,0.944,0.944,0,0,0,1.175-.4,0.752,0.752,0,0,0-.283-0.975,0.641,0.641,0,0,0-.937.273,0.342,0.342,0,0,0,.251.472,1.259,1.259,0,0,1,.414-0.058,0.2,0.2,0,0,1,.1.2A0.414,0.414,0,0,1,5.915,18.362Z" style="fill:#323276"/><path d="M17.282,15.241a4.733,4.733,0,0,0,.865-1.027c0.307-.552.281-1.352,0.539-1.981,0-.005,0-0.009-0.006-0.007a2.256,2.256,0,0,0-.438,1.131A3.08,3.08,0,0,1,17.3,14.88a2.107,2.107,0,0,0-.59.644,2.12,2.12,0,0,0-.06.621,1.459,1.459,0,0,1-.1.516,1.006,1.006,0,0,1-1.88-.109,0.86,0.86,0,0,0,.363.791,1.276,1.276,0,0,0,1.226-.007,1.2,1.2,0,0,0,.616-0.9,6.182,6.182,0,0,1,.022-0.688A1.07,1.07,0,0,1,17.282,15.241Z" style="fill:#323276"/><path d="M3.779,20.573A2.063,2.063,0,0,1,4.1,19.967a0.678,0.678,0,0,0,.029-0.111,0.962,0.962,0,0,0-.615-1.108,2.268,2.268,0,0,1-1.153-.621c-0.09-.163-0.129-0.342-0.2-0.5a3.693,3.693,0,0,0-.888-1.22,3.324,3.324,0,0,1-.68-0.717,9.354,9.354,0,0,0-.5-0.9s0-.008-0.007-0.006a7.91,7.91,0,0,0,.4.975,3.221,3.221,0,0,0,.6.754,3.915,3.915,0,0,1,.605.741,3.435,3.435,0,0,1,.311.7c0.026,0.084.037,0.181,0.072,0.265a1.48,1.48,0,0,0,.786.636,1.319,1.319,0,0,1,.908.65,1.513,1.513,0,0,1-.325.939,0.543,0.543,0,0,0,.029.371,0.235,0.235,0,0,0,.259.1A0.473,0.473,0,0,0,3.779,20.573Z" style="fill:#323276"/><path d="M6.958,18.91A1.448,1.448,0,0,0,7.5,18.2a1.145,1.145,0,0,0,.06-0.554C7.544,17.512,7.471,17.24,7.29,17.3a0.437,0.437,0,0,0-.058.363,1.147,1.147,0,0,1-.185.716,1.055,1.055,0,0,1-.724.438,0.96,0.96,0,0,1-.858-0.34,5.236,5.236,0,0,1-.334-0.6,1.388,1.388,0,0,0-.724-0.43A10,10,0,0,1,2.966,16.8a5.072,5.072,0,0,1-1.449-1.347s0-.009-0.007-0.007a4.314,4.314,0,0,0,2.667,2.226,2.07,2.07,0,0,1,.675.309,4.358,4.358,0,0,1,.339.615,1.214,1.214,0,0,0,.755.5A1.43,1.43,0,0,0,6.958,18.91Z" style="fill:#323276"/><path d="M3.631,19.6a0.558,0.558,0,0,0-.4-0.407,1.94,1.94,0,0,1-1.367-1.207,2.813,2.813,0,0,0-.7-1.233s0-.008-0.008-0.007a9.4,9.4,0,0,1,.5,1.064c0.042,0.126.054,0.262,0.1,0.422a1.41,1.41,0,0,0,.695.8c0.139,0.087.3,0.182,0.473,0.274a0.69,0.69,0,0,1,.414.332,2.219,2.219,0,0,1-.183.586C3.455,20.3,3.662,19.876,3.631,19.6Z" style="fill:#323276"/><path d="M18.731,17.209c-0.121.183-.285,0.368-0.429,0.562a1.817,1.817,0,0,1-.466.5,2.977,2.977,0,0,1-.689.274,1.071,1.071,0,0,0-.568.4c-0.124.17-.2,0.367-0.3,0.539a2.285,2.285,0,0,1-.37.48c-0.131.129-.3,0.253-0.437,0.407a1.24,1.24,0,0,0-.325.524,0.327,0.327,0,0,0,.038.238,0.442,0.442,0,0,0,.275-0.164,4.764,4.764,0,0,0,.628-0.73,3.361,3.361,0,0,0,.354-0.548,3.273,3.273,0,0,1,.318-0.593,7.137,7.137,0,0,1,1.391-.791s0.01-.011.014-0.015a2.072,2.072,0,0,0,.333-0.5,2,2,0,0,0,.252-0.582A0.012,0.012,0,0,0,18.731,17.209Z" style="fill:#323276"/><path d="M12.593,19.464a1.95,1.95,0,0,1,.643-0.088,1.493,1.493,0,0,0,.9-0.332,1.238,1.238,0,0,0,.3-0.734,1.479,1.479,0,0,1,.133-0.384,0.97,0.97,0,0,0,.222-0.488s0-.008-0.008-0.007c-0.079.087-.158,0.179-0.236,0.26s-0.171.134-.236,0.213a0.727,0.727,0,0,0-.132.341,1.557,1.557,0,0,1-.075.37,1.361,1.361,0,0,1-1.293.561,1.139,1.139,0,0,0-.452.059,1.141,1.141,0,0,0-.207.215,1.194,1.194,0,0,1-.9.37,1.2,1.2,0,0,0,1.147-.193A1.051,1.051,0,0,1,12.593,19.464Z" style="fill:#323276"/><path d="M12.275,19.072a1.836,1.836,0,0,1,.436-0.036,1.121,1.121,0,0,0,1.274-.754s0-.009-0.009-0.008a1.357,1.357,0,0,1-1.041.5c-0.152.008-.318-0.008-0.5,0.007a0.927,0.927,0,0,0-.407.134c-0.2.13-.3,0.338-0.488,0.436a0.75,0.75,0,0,1-1.124-.547c-0.252.859,0.848,1.016,1.36,0.666A2.474,2.474,0,0,1,12.275,19.072Z" style="fill:#323276"/><path d="M4.089,20.287a0.691,0.691,0,0,1,.451.079A1.641,1.641,0,0,0,4.667,19.7a1.388,1.388,0,0,0-.532-1.006,2.089,2.089,0,0,0-1.2-.348s-0.007,0-.006.009a4.075,4.075,0,0,0,.538.207,1.492,1.492,0,0,1,.467.237,1.039,1.039,0,0,1,.37.708,1.181,1.181,0,0,1-.156.645A0.328,0.328,0,0,0,4.089,20.287Z" style="fill:#323276"/><path d="M10.928,18.444a0.346,0.346,0,0,0-.323.362,0.456,0.456,0,0,0,.473.45,1.271,1.271,0,0,0,.812-0.45,2.332,2.332,0,0,1,1.006-.171,0.428,0.428,0,0,0,.222-0.081,5.722,5.722,0,0,0-1.166.029,1.009,1.009,0,0,0-.4.215,0.652,0.652,0,0,1-.414.206A0.329,0.329,0,0,0,10.928,18.444Z" style="fill:#323276"/><path d="M13.732,20.093a2.22,2.22,0,0,1,.354.273,2.187,2.187,0,0,1,.858-0.938A1.628,1.628,0,0,0,13.732,20.093Z" style="fill:#323276"/><path d="M4.68,20.432a0.488,0.488,0,0,0,.1.164,0.89,0.89,0,0,1,.1.288A1.025,1.025,0,0,0,4.8,19.759a0.993,0.993,0,0,1-.031.43A1.719,1.719,0,0,0,4.68,20.432Z" style="fill:#323276"/><path d="M4.341,21.461a0.463,0.463,0,0,0,.414-0.577A0.6,0.6,0,0,0,4.244,20.4a0.258,0.258,0,0,0-.28.1c0.22-.024.431,0.028,0.436,0.2a0.236,0.236,0,0,1-.059.163,1.361,1.361,0,0,1-.357.074,0.217,0.217,0,0,0-.07.237A0.451,0.451,0,0,0,4.341,21.461Z" style="fill:#323276"/><path d="M3.674,11.692A4.784,4.784,0,0,1,.938,9.474a0.541,0.541,0,0,0-.117-0.2,3.655,3.655,0,0,0,.3,1.369,2.618,2.618,0,0,0,.747.946,4.8,4.8,0,0,0,2.322,1.065,3.665,3.665,0,0,1-2.581-.97,3.166,3.166,0,0,0,1.116,1.3,2.508,2.508,0,0,0,.792.4,4.572,4.572,0,0,0,1.1.1,0.776,0.776,0,0,1-.642.17,3.231,3.231,0,0,0,1.051.184,4.569,4.569,0,0,1-.5-0.991,2.789,2.789,0,0,0-.111-0.391,1.1,1.1,0,0,0-.1-0.134,4.038,4.038,0,0,1-.578-1.13,5.936,5.936,0,0,1-.2-2.588,1.12,1.12,0,0,0,.044-0.281,1.053,1.053,0,0,0-.14-0.252,4.236,4.236,0,0,1-.42-2.328A3.11,3.11,0,0,1,3.876,3.6a0.149,0.149,0,0,0,.088-0.082,1.672,1.672,0,0,0-1.2.43,1.786,1.786,0,0,0-.6,1.028,5.2,5.2,0,0,0,.186,2.4,5.994,5.994,0,0,0,.895,1.835A4.466,4.466,0,0,1,2,7a3.79,3.79,0,0,1,.258-2.884c0.013-.008.062-0.046,0.029-0.051a1.662,1.662,0,0,0-1.1,1.353A4.128,4.128,0,0,0,1.331,7.56a7.175,7.175,0,0,0,1.983,2.927A4.788,4.788,0,0,1,1.753,8.98,5.169,5.169,0,0,1,1.028,7.4C0.97,7.193.953,6.977,0.909,6.754a0.237,0.237,0,0,0-.072.178,3.578,3.578,0,0,0-.1.651,3.24,3.24,0,0,0,.74,2.285A6.955,6.955,0,0,0,3.674,11.692Z" style="fill:#323276"/><path d="M18.382,17.009c-0.162.2-.309,0.391-0.45,0.584a1.353,1.353,0,0,1-.562.473,2.888,2.888,0,0,1-.377.141,3.011,3.011,0,0,0-.4.125,0.842,0.842,0,0,0-.371.4,3.879,3.879,0,0,1-.554.8,5.667,5.667,0,0,0-.952.842,1.262,1.262,0,0,0-.164.531,0.826,0.826,0,0,0,.044.6,0.253,0.253,0,0,0,.259-0.1,1.568,1.568,0,0,0,.03-0.51,1.841,1.841,0,0,1,.731-0.955,2.916,2.916,0,0,0,.528-0.6c0.067-.107.134-0.231,0.206-0.356a1.609,1.609,0,0,1,.222-0.34,1.98,1.98,0,0,1,.659-0.273,1.917,1.917,0,0,0,.879-0.651c0.073-.1.128-0.212,0.193-0.318,0.2-.322.382-0.608,0.608-0.925,0,0,.006-0.006,0-0.007A5.006,5.006,0,0,0,18.382,17.009Z" style="fill:#323276"/><path d="M14.885,19.915c0.1-.077.215-0.127,0.311-0.192a2.543,2.543,0,0,0,.747-0.762,2.224,2.224,0,0,1,.516-0.718,5.113,5.113,0,0,0,1.221-.585s0.008-.005,0-0.005c-0.316.1-.681,0.224-1,0.325a1.157,1.157,0,0,0-.48.214,3.315,3.315,0,0,0-.42.6,2.1,2.1,0,0,1-.459.562c-0.157.117-.323,0.2-0.466,0.3a1.8,1.8,0,0,0-.739,1.183,2.088,2.088,0,0,1-.073.312,0.559,0.559,0,0,1-.282.279,0.2,0.2,0,0,0-.147.111c-0.026.172,0.25,0.26,0.42,0.236a0.47,0.47,0,0,0,.326-0.31c0.051-.183,0-0.492.044-0.7A1.438,1.438,0,0,1,14.885,19.915Z" style="fill:#323276"/><path d="M4.858,19.473a1.491,1.491,0,0,1,.185,1.492c-0.05.075-.136,0.1-0.177,0.179a1.377,1.377,0,0,0-.051.147,0.473,0.473,0,0,1-.326.289,0.755,0.755,0,0,1-.48-0.1,0.671,0.671,0,0,0,.148.149,0.912,0.912,0,0,0,.985-0.163A1.281,1.281,0,0,0,5.4,20.44,1.312,1.312,0,0,0,4.858,19.473Z" style="fill:#323276"/><path d="M13.858,20.905a0.31,0.31,0,0,0-.341-0.353c-0.163.03-.155,0.334-0.31,0.353A0.2,0.2,0,0,1,13,20.76a0.417,0.417,0,0,1,.282-0.4,0.764,0.764,0,0,1,.612.038,0.833,0.833,0,0,0-.709-0.3,0.8,0.8,0,0,0-.718.724,0.734,0.734,0,0,0,.828.547A0.662,0.662,0,0,0,13.858,20.905Z" style="fill:#323276"/><path d="M6.478,2.871a1.386,1.386,0,0,0,1,.331A3.564,3.564,0,0,0,8.1,3.168c0.184-.034.359-0.088,0.539-0.125a11.552,11.552,0,0,1,3.593-.29c2.4,0.255,3.533,1.786,3.965,4.007-0.579-1.577-1.251-3.04-2.988-3.46-0.68-.163-1.664-0.063-1.722.613a0.671,0.671,0,0,0,.31.674,1.8,1.8,0,0,0,.739.25c0.314,0.049.643,0.018,0.939,0.053A2.464,2.464,0,0,1,15.225,6.1,5.846,5.846,0,0,1,15.8,7.257a1.1,1.1,0,0,0,.073.177c0.036,0.023.067-.048,0.1-0.082a0.923,0.923,0,0,1,1.056.038,1.894,1.894,0,0,1,.821,1.493A12.361,12.361,0,0,0,18.3,6.221,8.157,8.157,0,0,0,18,3.434,4.258,4.258,0,0,0,15.964.809a1.682,1.682,0,0,0-1.242-.23A0.382,0.382,0,0,0,14.5.763a0.547,0.547,0,0,0,.273.586,7.322,7.322,0,0,1,2.233,3.622,5.949,5.949,0,0,1,.164,1.923,7.044,7.044,0,0,0-1.406-3.986A7.121,7.121,0,0,0,9.656.009C9.442,0.019,9.224.041,9.029,0.07A3.773,3.773,0,0,0,6.735,1.1a2.153,2.153,0,0,0-.516.813A0.885,0.885,0,0,0,6.478,2.871Zm7.254,1.419a4.159,4.159,0,0,0-1.124-.259,2.457,2.457,0,0,1,2.07.7A4.033,4.033,0,0,1,15.75,6.436,4.028,4.028,0,0,0,13.732,4.291Zm2.306-2.506a3.675,3.675,0,0,1,1.383,2.063,7.1,7.1,0,0,1,.192,3.083,9.023,9.023,0,0,0-.318-3.04A4.994,4.994,0,0,0,16.038,1.784ZM8.771,1.563a5.975,5.975,0,0,1,1.411-.222,6.228,6.228,0,0,1,3.9.96,5.8,5.8,0,0,1,2.558,3.957,6.253,6.253,0,0,0-2.7-3.822,6.837,6.837,0,0,0-3.9-.969,10.105,10.105,0,0,0-1.125.1c-0.034.005-.141,0.024-0.177,0.028C8.652,1.6,8.685,1.588,8.771,1.563Z" style="fill:#323276"/></svg>