<svg xmlns="http://www.w3.org/2000/svg" viewBox="0 0 121.206 22.221"><title>banner_0</title><path d="M55.079,3.313H44.2a0.824,0.824,0,0,0-.844.811V18.356a0.845,0.845,0,0,0,.844.832h1.6a0.838,0.838,0,0,0,.84-0.832v-5.4h7.32a0.838,0.838,0,0,0,.847-0.838V10.507a0.843,0.843,0,0,0-.847-0.831h-7.32V6.588h8.432a0.847,0.847,0,0,0,.837-0.849V4.124A0.814,0.814,0,0,0,55.079,3.313Z"/><path d="M103,3.313H92.609a0.949,0.949,0,0,0-.907.663l-2.019,7.582a0.706,0.706,0,0,0,.118.654,0.729,0.729,0,0,0,.618.3h1.7a0.963,0.963,0,0,0,.9-0.7l1.4-5.23h5.291L96.6,18.23a0.746,0.746,0,0,0,.743.958h1.682a0.945,0.945,0,0,0,.9-0.687l3.823-14.228a0.836,0.836,0,0,0-.133-0.691A0.794,0.794,0,0,0,103,3.313Z"/><path d="M77.716,6.628H76.1a0.851,0.851,0,0,0-.836.836v3.842a0.837,0.837,0,0,0,.836.84h1.617a0.83,0.83,0,0,0,.836-0.84V7.464A0.844,0.844,0,0,0,77.716,6.628Z"/><path d="M80.552,12.146h1.613A0.83,0.83,0,0,0,83,11.306V7.464a0.844,0.844,0,0,0-.834-0.836H80.552a0.849,0.849,0,0,0-.836.836v3.842A0.835,0.835,0,0,0,80.552,12.146Z"/><path d="M69.695,14.157H68.374l5.659-9.808a0.671,0.671,0,0,0,.011-0.7,0.661,0.661,0,0,0-.624-0.336H59.2a0.819,0.819,0,0,0-.838.811V5.739a0.852,0.852,0,0,0,.838.849h9.745L62.28,18.137a0.686,0.686,0,0,0-.016.714,0.7,0.7,0,0,0,.626.338h1.964a1.13,1.13,0,0,0,.92-0.531L67.4,15.838v0.63a0.672,0.672,0,0,0,.677.665h1.618a0.684,0.684,0,0,0,.7-0.665v-1.61A0.7,0.7,0,0,0,69.695,14.157Z"/><path d="M73.63,14.157H72.015a0.7,0.7,0,0,0-.689.7v1.61a0.678,0.678,0,0,0,.689.665H73.63a0.683,0.683,0,0,0,.685-0.665v-1.61A0.7,0.7,0,0,0,73.63,14.157Z"/><path d="M121.057,18.1l-5.788-7.541L120,4.394a0.684,0.684,0,0,0,.095-0.737,0.686,0.686,0,0,0-.634-0.344h-13.1a0.814,0.814,0,0,0-.841.811V5.739a0.847,0.847,0,0,0,.841.849h7.818L105.352,18.1a0.647,0.647,0,0,0-.1.713,0.659,0.659,0,0,0,.637.379h2.2a1.2,1.2,0,0,0,.911-0.453l4.2-5.451,4.2,5.451a1.226,1.226,0,0,0,.914.453h2.2a0.673,0.673,0,0,0,.641-0.379A0.7,0.7,0,0,0,121.057,18.1Z"/><path d="M88.563,6.628H86.615a1.1,1.1,0,0,0-.928.525L79.359,18.137a0.7,0.7,0,0,0-.021.714,0.729,0.729,0,0,0,.629.338h1.967a1.139,1.139,0,0,0,.924-0.531L89.18,7.687A0.658,0.658,0,0,0,89.2,6.978,0.705,0.705,0,0,0,88.563,6.628Z"/><path d="M40.333,3.4a0.058,0.058,0,0,0-.024-0.031,1.029,1.029,0,0,0-.356-0.061H38.108a1.049,1.049,0,0,0-.91.568l-4.359,9.328L28.5,3.889a1.044,1.044,0,0,0-.921-0.576H25.736a0.967,0.967,0,0,0-.352.061,0.386,0.386,0,0,0-.032.031,0.813,0.813,0,0,0-.457.72V18.356a0.84,0.84,0,0,0,.842.832h1.613a0.835,0.835,0,0,0,.839-0.832V11.007l3.073,6.6h0l0.47,1a1.063,1.063,0,0,0,.924.584h0.388a1.074,1.074,0,0,0,.92-0.584l0.458-1h0l3.087-6.6v7.349a0.832,0.832,0,0,0,.84.832h1.6a0.84,0.84,0,0,0,.839-0.832V4.124A0.808,0.808,0,0,0,40.333,3.4Z"/><path d="M14.6,5.328L11.926,0.7A0.7,0.7,0,0,0,11.757.483a0.692,0.692,0,0,0-.34-0.151h0A0.522,0.522,0,0,0,11.3.322H11.287a0.531,0.531,0,0,1-.056.008H11.219l0,0a0.477,0.477,0,0,0-.1.025,0.071,0.071,0,0,1-.019,0C11.064,0.375,11.033.392,11,.4a0.043,0.043,0,0,1-.016.012,0.347,0.347,0,0,0-.084.06,0.071,0.071,0,0,0-.02.013c-0.02.021-.044,0.043-0.062,0.065a0.029,0.029,0,0,0-.012.011h0L3.96,8.725c-0.033.016-.066,0.036-0.1,0.052s-0.065.034-.1,0.048-0.1.042-.152,0.065a0.582,0.582,0,0,1-.091.037,1.529,1.529,0,0,1-.177.057,0.614,0.614,0,0,1-.075.028c-0.066.021-.134,0.038-0.2,0.051A0.455,0.455,0,0,1,3,9.083c-0.069.017-.14,0.03-0.211,0.043-0.019,0-.036.007-0.055,0.009a2.086,2.086,0,0,1-.211.024,0.257,0.257,0,0,0-.053.008c-0.07,0-.138.006-0.205,0.008l-0.054,0a2.152,2.152,0,0,1-.246-0.009c-0.051,0-.1-0.009-0.141-0.016l-0.016,0C1.769,9.141,1.732,9.135,1.7,9.127c-0.006,0-.013,0-0.018,0L1.588,9.1a0.024,0.024,0,0,1-.012-0.007A0.614,0.614,0,0,1,1.5,9.064h0a0.256,0.256,0,0,0-.035-0.016L8.121,1.108A0.675,0.675,0,1,0,7.088.239L0.159,8.5a0.69,0.69,0,0,0-.154.371,1.287,1.287,0,0,0,.136.708,0.028,0.028,0,0,0,.006.014,0.316,0.316,0,0,1,.017.037L0.173,9.641,6.918,21.324a2.035,2.035,0,0,0,1.681.882,5.126,5.126,0,0,0,2.85-.654l0.04-.023a0.363,0.363,0,0,0,.086-0.065l0.007,0a0.554,0.554,0,0,0,.076-0.078l0,0,6.926-8.253a0.68,0.68,0,0,0,.069-0.775L15.963,7.688a0.673,0.673,0,0,0-.7-0.326L14.3,7.53l0.378-1.72A0.678,0.678,0,0,0,14.6,5.328ZM13.5,11.179l0.759,1.313-2.542,3.027-0.756-1.314Zm-4.524-.408L8.214,9.458l2.541-3.028,0.759,1.316Z" style="fill:#af1b40"/></svg>