<svg xmlns="http://www.w3.org/2000/svg" viewBox="0 0 90.755 30"><title>banner_2</title><path d="M44.3,25.641a0.556,0.556,0,1,0-1.113,0v1.272a0.556,0.556,0,1,0,1.113,0H43.981v0.013a0.238,0.238,0,1,1-.477,0v-1.3a0.238,0.238,0,0,1,.477,0v0.014H44.3ZM33.446,25.11H33.128v2.332h0.9V27.125H33.446V25.11Zm-3.1,1.166H29.917V25.11H29.6v2.332h0.318V26.6h0.424v0.847h0.318V25.11H30.341v1.166Zm6.441-.09L36.506,25.11H36.172l0.449,1.7V27.44h0.323V26.814l0.448-1.7H37.058Zm-10.537-.771h0.4v2.027H26.96V25.415h0.4v-0.3H26.245v0.3Zm-9.919.634L16,25.11H15.689v2.332h0.318V25.868l0.319,0.888,0.317-.888v1.574h0.319V25.11H16.648ZM23.7,26.508l-0.446-1.4h-0.3v2.332h0.318v-1.4l0.445,1.4h0.3V25.11H23.7v1.4Zm-3.739-1.424a0.557,0.557,0,0,0-.557.557v1.272a0.557,0.557,0,0,0,1.114,0V25.641a0.557,0.557,0,0,0-.557-0.557M20.2,26.926a0.239,0.239,0,0,1-.478,0v-1.3a0.239,0.239,0,0,1,.478,0v1.3ZM70.134,25.11h-0.32v2.332h0.9V27.125H70.134V25.11Zm3.308,0-0.365,2.332h0.316l0.077-.5H73.9l0.076,0.5H74.3L73.931,25.11H73.442Zm0.073,1.537,0.172-1.113,0.172,1.113H73.515Zm7.158-1.537h-0.5v2.332h0.318v-0.49h0.186a0.559,0.559,0,0,0,.556-0.609v-0.65a0.558,0.558,0,0,0-.556-0.583m0.239,1.246a0.247,0.247,0,0,1-.239.291H80.487V25.415h0.186a0.242,0.242,0,0,1,.239.265v0.676ZM77.189,25.11h-0.5v2.332H77v-0.49h0.186a0.559,0.559,0,0,0,.557-0.609v-0.65a0.558,0.558,0,0,0-.557-0.583m0.239,1.246a0.247,0.247,0,0,1-.239.291H77V25.415h0.186a0.242,0.242,0,0,1,.239.265v0.676Zm10.4,0.525a0.594,0.594,0,0,0,.279-0.538v-0.65a0.558,0.558,0,0,0-.556-0.583h-0.5v2.332H87.36v-0.49h0.158l0.265,0.49H88.13Zm-0.039-.538a0.248,0.248,0,0,1-.238.292H87.36v-1.22h0.187a0.241,0.241,0,0,1,.238.265v0.663Zm-4.132,1.1h0.954V27.125H83.971V26.568h0.544V26.276H83.971V25.415h0.636v-0.3H83.653v2.332Zm-36.4-2.358a0.557,0.557,0,0,0-.557.557v1.272a0.558,0.558,0,0,0,1.115,0V25.641a0.557,0.557,0,0,0-.558-0.557m0.239,1.842a0.239,0.239,0,1,1-.477,0v-1.3a0.239,0.239,0,0,1,.477,0v1.3Zm6.5,0.516h0.317V25.11H53.99v2.332Zm-3.105-1.393-0.324-.939H50.249v2.332h0.317V25.868l0.319,0.888,0.318-.888v1.574h0.318V25.11H51.209Zm6.972-.408a0.556,0.556,0,1,0-1.112,0v1.272a0.556,0.556,0,1,0,1.112,0H57.54v0.013a0.239,0.239,0,0,1-.478,0v-1.3a0.239,0.239,0,0,1,.478,0v0.014h0.317ZM33.089,2.549a10.642,10.642,0,0,0-2.526-.4l-0.116.6a10.3,10.3,0,0,1,2.5.442Zm8.738,0.679a2.52,2.52,0,0,1-1.575.867l0.3,0.526A3.3,3.3,0,0,0,41.8,4.075,3.227,3.227,0,0,0,42.99,1.911l-0.646-.149a3.594,3.594,0,0,1-.517,1.466m-8.263.692a12.952,12.952,0,0,0-3.234-.475L30.2,4.087a10.234,10.234,0,0,1,3.147.529Zm8.171-1.146a3.623,3.623,0,0,0-.312-1.029l-0.53.112a4.284,4.284,0,0,1,.3,1.042ZM33.389,1.315A13.349,13.349,0,0,0,30.572.928l-0.117.608A11.472,11.472,0,0,1,33.264,2Zm7.059,0.6-0.53.141a4.585,4.585,0,0,1,.33,1.05l0.566-.133a4.377,4.377,0,0,0-.366-1.058m10.956-1L50.7,0.832a2.915,2.915,0,0,1-1.355,1.6l0.433,0.487a3.373,3.373,0,0,0,.993-0.9h1.288A2.5,2.5,0,0,1,49.6,3.962l0.27,0.612c1.409-.2,2.685-0.837,3.027-3.179H51.184A4.446,4.446,0,0,0,51.4.924m-27.7.3H20.595V1.87H23V3.637h-2.45V4.291h3.155V1.22ZM13.551,3.967a0.081,0.081,0,0,1-.1.1H12.843l0.125,0.65H13.8a0.369,0.369,0,0,0,.367-0.379V0.77H13.551v3.2Zm-0.3-2.927H12.65V3.717h0.605V1.04ZM11.771,1.5h0.713V0.886H10.463V1.5h0.692v0.82h-0.8v0.61h0.8V4.712h0.616V2.925h0.768V2.315H11.771V1.5ZM1,2.657A2.483,2.483,0,0,1,.487,4.283L1.066,4.737a3.3,3.3,0,0,0,.534-1.3H3.359V3.929a0.112,0.112,0,0,1-.117.125h-0.7l0.1,0.658H3.613a0.392,0.392,0,0,0,.4-0.408v-3.4H1v1.75Zm0.65-1.15H3.358V1.883H1.649V1.507Zm0,0.946H3.358V2.861H1.649V2.453Z" transform="translate(0 0)"/><path d="M47.71,16.041a0.308,0.308,0,0,0,.314-0.373L46.971,9.685a0.468,0.468,0,0,0-.444-0.372H45.012a0.307,0.307,0,0,0-.313.372l1.051,5.983a0.469,0.469,0,0,0,.445.373H47.71Zm10.253-4.884H54.931a1.637,1.637,0,0,0-1.192.62l-1.12,1.6-1.326,1.893c-0.12.171-.247,0.143-0.283-0.062L50.039,9.685a0.468,0.468,0,0,0-.445-0.372H48.081a0.308,0.308,0,0,0-.315.372l1.052,5.983a0.468,0.468,0,0,0,.444.373h1.114c0.208,0,.281.139,0.161,0.31l-1.512,2.16-2.8,4c-0.239.341-.093,0.621,0.323,0.621h3.031a1.638,1.638,0,0,0,1.192-.621l7.517-10.735c0.239-.341.094-0.62-0.323-0.62M24.046,6.344H0.379A0.378,0.378,0,0,0,0,6.721V7.1a0.379,0.379,0,0,0,.379.379H16.805c0.417,0,.562.28,0.322,0.619L7.125,22.3,2.143,29.381C1.9,29.721,2.047,30,2.464,30H7.388a1.645,1.645,0,0,0,1.194-.619L16.3,18.42,24.367,6.963c0.24-.341.1-0.619-0.321-0.619m19.114,0H25.912a0.379,0.379,0,0,0-.379.377V7.1a0.38,0.38,0,0,0,.379.379H43.16A0.38,0.38,0,0,0,43.539,7.1V6.721a0.379,0.379,0,0,0-.379-0.377M42.667,9.313H25.912a0.38,0.38,0,0,0-.379.378V10.07a0.38,0.38,0,0,0,.379.379H36.568c0.417,0,.562.279,0.323,0.621l-3.72,5.314-4.292,6.128c-0.238.341-.093,0.621,0.323,0.621h3.789a1.638,1.638,0,0,0,1.192-.621l4.435-6.334L42.99,9.933c0.239-.34.094-0.62-0.323-0.62m33.159,4.7a7.575,7.575,0,1,0-2.7-2.859H70.4a0.615,0.615,0,0,0-.626.746l1.849,10.484a0.938,0.938,0,0,0,.889.746h3.03a0.615,0.615,0,0,0,.626-0.746l-1.4-7.97Zm-1.382-1.1,0.041-.106,0.558-1.471-0.227-.328a6.048,6.048,0,1,1,1.533,1.535l-0.327-.228L74.5,12.9ZM90.313,16.16H79.138a1.61,1.61,0,0,0-1.184.625l-1.217,1.78a0.364,0.364,0,0,0,.331.625H88.242a1.606,1.606,0,0,0,1.184-.625l1.218-1.78a0.364,0.364,0,0,0-.331-0.625M71.574,5.586H67.407a1.638,1.638,0,0,0-1.193.621L54.8,22.512c-0.239.341-.093,0.621,0.323,0.621h4.167a1.638,1.638,0,0,0,1.192-.621L71.9,6.207c0.239-.342.093-0.621-0.323-0.621m-6.266,18.94a1.75,1.75,0,1,0,1.724,2.05l0.667-.3-0.667-.3a1.751,1.751,0,0,0-1.724-1.448m0.634,0.8H65.184v0.912h0.653v0.416H65.184v1.015H64.739V24.892h1.2v0.433Z" transform="translate(0 0)" style="fill:#005183"/></svg>