<svg xmlns="http://www.w3.org/2000/svg" viewBox="0 0 94.524 26.942"><title>book_ttl</title><path d="M9.792,1.632C9.408,1.92,7.968,2.72,7.968,6.112V16.351c0,0.608-.351,1.5-0.991,1.5-0.416,0-1.792-1.151-2.912-1.151a6.357,6.357,0,0,0-2.688.863c-0.224,0-.32-0.192-0.32-0.576a3.71,3.71,0,0,1,1.952-2.368,1.889,1.889,0,0,0,1.5-2.176,1.671,1.671,0,0,0-1.472-1.535c-1.088,0-1.568.8-2.176,0.8a0.415,0.415,0,0,1-.512-0.352A5.485,5.485,0,0,1,3.009,9.375C3.617,9.12,4.8,8.64,4.8,8.032V5.472c0-1.024-.1-1.824.48-2.3-0.48,0-1.664-.64-2.048-0.64-1.056,0-2.5,1.024-2.784,1.024A0.415,0.415,0,0,1,0,3.072,2.436,2.436,0,0,1,2.241.608c1.472,0,2.752.576,4.352,0.576,0.7,0,1.247-.64,2.879-0.64,0.7,0,.992.16,0.992,0.352,0,0.16.032,0.192-.672,0.736M21.12,13.567v5.376c0,0.544-.768.575-1.5,0.96l-6.592,3.359c-0.1-.1-2.272-2.367-4.735-2.367-1.568,0-4.192.287-4.192,2.976,0,0.607.384,1.023,0.384,1.7a1.617,1.617,0,0,1-1.728,1.376,1.522,1.522,0,0,1-1.6-1.695c0-2.72,2.4-5.632,7.519-5.632A8.988,8.988,0,0,1,14.4,21.407l2.688-1.344V12.319c0-.928-0.512-0.96-1.056-1.44a1.05,1.05,0,0,1-.544-0.64,0.455,0.455,0,0,1,.064-0.192c0.16-.32,1.056-1.471,1.536-2.143a1.3,1.3,0,0,0,.256-0.768,0.639,0.639,0,0,0-.064-0.288L15.264,1.664c-0.1-.224.192-0.416,0.544-0.64A3.371,3.371,0,0,1,17.536.7a1.029,1.029,0,0,1,.832.736A29.9,29.9,0,0,0,19.9,4.1,16.255,16.255,0,0,1,21.12,6.048a28.343,28.343,0,0,1-2.3,3.1,1.014,1.014,0,0,0-.192.544,0.957,0.957,0,0,0,.352.737l1.6,1.215a1.582,1.582,0,0,1,.767.736,5.91,5.91,0,0,0-.223,1.184M12.832,4.352c-0.1.288-.32,1.632-0.672,4.1-0.8,5.664-1.568,9.183-2.3,9.183a0.382,0.382,0,0,1-.416-0.448c0-1.024.064-1.983,0.064-3.3,0-.288-0.288-3.68-0.288-4.992,0-2.688-.128-4.159,1.76-5.855a3.464,3.464,0,0,1,2.24-1.12c0.16,0,.384,0,0.384.256a10.747,10.747,0,0,1-.768,2.176" transform="translate(0 0)" style="fill:#a90f22"/><path d="M44.1,18.975a13.419,13.419,0,0,0-3.424,2.559,0.458,0.458,0,0,1-.32.128,1.322,1.322,0,0,1-.7-0.48,7.965,7.965,0,0,0-1.536-1.119,5.046,5.046,0,0,0-2.88-.832H34.721a2.462,2.462,0,0,1-.48-0.065,0.374,0.374,0,0,1-.256-0.416,0.181,0.181,0,0,1,.192-0.224,0.892,0.892,0,0,0,.575-0.383,2.533,2.533,0,0,0,.321-1.569l-0.1-6.911c0-.384.033-1.376,0.9-1.472l2.752-1.375a2.684,2.684,0,0,1,.64-0.353,0.645,0.645,0,0,1,.352.1,13.452,13.452,0,0,0,4.9,1.856,0.819,0.819,0,0,1,.608.9v8.736a1.691,1.691,0,0,1-1.024.928M40.7,9.151l-0.992-.608a0.886,0.886,0,0,0-.416-0.1,0.792,0.792,0,0,0-.8.8l-0.128,8.415a0.779,0.779,0,0,0,.384.672l0.992,0.609a0.9,0.9,0,0,0,.416.1,0.792,0.792,0,0,0,.8-0.8l0.128-8.415A0.78,0.78,0,0,0,40.7,9.151" transform="translate(0 0)" style="fill:#a90f22"/><path d="M67.456,18.975a13.419,13.419,0,0,0-3.424,2.559,0.458,0.458,0,0,1-.32.128,1.322,1.322,0,0,1-.7-0.48,7.965,7.965,0,0,0-1.536-1.119,5.048,5.048,0,0,0-2.88-.832H58.081a2.472,2.472,0,0,1-.481-0.065,0.376,0.376,0,0,1-.256-0.416,0.182,0.182,0,0,1,.193-0.224,0.9,0.9,0,0,0,.576-0.383,2.543,2.543,0,0,0,.319-1.569l-0.1-6.911c0-.384.033-1.376,0.9-1.472l2.752-1.375a2.682,2.682,0,0,1,.641-0.353,0.644,0.644,0,0,1,.351.1,13.452,13.452,0,0,0,4.9,1.856,0.819,0.819,0,0,1,.608.9v8.736a1.694,1.694,0,0,1-1.024.928M64.064,9.151l-0.992-.608a0.886,0.886,0,0,0-.416-0.1,0.793,0.793,0,0,0-.8.8l-0.128,8.415a0.779,0.779,0,0,0,.384.672L63.1,18.943a0.9,0.9,0,0,0,.416.1,0.792,0.792,0,0,0,.8-0.8l0.128-8.415a0.78,0.78,0,0,0-.384-0.672" transform="translate(0 0)" style="fill:#a90f22"/><path d="M87.3,20.318L85.056,21.6a0.97,0.97,0,0,1-.511.1,0.875,0.875,0,0,1-.48-0.128L80.9,19.678a0.441,0.441,0,0,1-.288-0.416,0.458,0.458,0,0,1,.192-0.383l0.256-.192a1.675,1.675,0,0,0,.672-1.409V4.511a3.71,3.71,0,0,0-1.76-2.975,0.608,0.608,0,0,1-.224-0.416A0.561,0.561,0,0,1,80.289.576a1.751,1.751,0,0,1,.32.064l2.208,0.511,2.655-1.087A0.6,0.6,0,0,1,85.7,0a0.561,0.561,0,0,1,.544.544,0.639,0.639,0,0,1-.192.416,1.605,1.605,0,0,0-.9,1.312V17.278a1.426,1.426,0,0,0,.768,1.472l1.312,0.768a0.459,0.459,0,0,1,.319.416,0.414,0.414,0,0,1-.255.384M91.072,21.5a0.88,0.88,0,0,1-.991-0.672l-1.729-4.479a0.964,0.964,0,0,0-.96-0.865,0.847,0.847,0,0,1-.832-0.832,0.877,0.877,0,0,1,.385-0.7l2.239-1.408a1,1,0,0,0,.481-0.832,1.734,1.734,0,0,0-.288-0.832L87.713,8.511C87.425,8.1,87.3,7.743,86.881,8.031l-0.449.32a0.6,0.6,0,0,1-.256.064,0.437,0.437,0,0,1-.447-0.448,0.444,0.444,0,0,1,.224-0.384L88.384,6.4a2.848,2.848,0,0,1,1.088-.352,1.382,1.382,0,0,1,1.025.992L92.736,11.1a0.516,0.516,0,0,1-.288.672L90.4,13.119l1.792,5.152a0.911,0.911,0,0,0,.7.7,4.28,4.28,0,0,0,1.376-.577,0.525,0.525,0,0,1,.193.737c-0.161.351-2.721,2.367-3.393,2.367" transform="translate(0 0)" style="fill:#a90f22"/></svg>