<svg xmlns="http://www.w3.org/2000/svg" viewBox="0 0 225.617 23.391"><title>cast_ttl</title><path d="M10.336,22.686C5.344,22.686,0,19.264,0,11.935,0,5.888,4.288.992,5.408,0.992a0.363,0.363,0,0,1,.288.224L5.76,1.44,5.6,1.7c-5.92,6.4-3.008,17.727,6.207,17.727a10.531,10.531,0,0,0,7.456-2.464,1.543,1.543,0,0,1,.96-0.352,0.264,0.264,0,0,1,.224.192,1.615,1.615,0,0,1,.064.384c0,1.056-3.424,5.5-10.175,5.5M16.8,5.12a4.846,4.846,0,0,1-2.752-1.056c-2.24-1.44-2.464-1.024-2.815-1.024-0.161,0-.416-0.032-0.673.832L7.9,12.543a1.147,1.147,0,0,1-.9,1.088,0.629,0.629,0,0,1-.575-0.768L6.4,6.5a3.34,3.34,0,0,1,.832-2.4C7.712,3.68,9.823,2.048,10.975.9A6.089,6.089,0,0,1,11.967,0c0.416-.032,2.656,1.472,4.064,1.44a4.1,4.1,0,0,0,2.5-1.12,0.591,0.591,0,0,1,.544.448c0.064,0.288.32,2.56-2.272,4.352" transform="translate(0 0)" style="fill:#a90f22"/><path d="M43.743,20.639l-2.784,1.408a1.857,1.857,0,0,1-.544.192,0.492,0.492,0,0,1-.352-0.192l-1.888-2.5-3.552,2.72a0.668,0.668,0,0,1-.352.128,0.435,0.435,0,0,1-.352-0.128l-2.463-1.919a2.518,2.518,0,0,1-.9-0.769,0.506,0.506,0,0,1,.128-0.383l0.32-.193a1.362,1.362,0,0,0,.544-0.639,2.542,2.542,0,0,0,.16-0.8V15.52a8.952,8.952,0,0,0-.256-1.6,0.577,0.577,0,0,1,.351-0.608l3.745-1.12a0.553,0.553,0,0,1,.48.96,1.761,1.761,0,0,0-.865,1.792v3.488a1.1,1.1,0,0,0,.16.735l0.448,0.416a0.289,0.289,0,0,0,.321,0l1.023-.576a0.886,0.886,0,0,0,.384-0.928V10.464a0.642,0.642,0,0,0-.64-0.64L32.448,7.936a0.427,0.427,0,0,1-.256-0.416,0.437,0.437,0,0,1,.447-0.448c0.128,0,.8.128,0.993,0.16l3.359,0.512a15.61,15.61,0,0,0,1.792.064,7.706,7.706,0,0,0,2.3-.512,2.162,2.162,0,0,1,.832-0.224,0.452,0.452,0,0,1,.32.448,0.638,0.638,0,0,1-.32.576c-0.608.416-.672,0.9-0.672,2.112v8.9a0.929,0.929,0,0,0,.928.928c0.832,0,.768-0.577,1.344-0.577a0.629,0.629,0,0,1,.608.608,0.648,0.648,0,0,1-.384.576" transform="translate(0 0)" style="fill:#a90f22"/><path d="M65.759,19.2a1.248,1.248,0,0,1-.768.416,9.559,9.559,0,0,0-3.008,2.047,1.865,1.865,0,0,1-.928.641,4.171,4.171,0,0,1-.832-0.352c-0.352-.16-1.344-0.961-5.215-0.961-0.256,0-.384-0.031-0.384-0.127a3.637,3.637,0,0,1,3.647-2.656c0.416,0,1.024-.225,3.2.863a0.578,0.578,0,0,0,.224.065,0.424,0.424,0,0,0,.416-0.416V16.863a0.8,0.8,0,0,0-.288-0.736L60.511,15.3a0.957,0.957,0,0,0-.544-0.32,1.021,1.021,0,0,0-.768.512l-0.416.48a0.769,0.769,0,0,1-.512.289A1.22,1.22,0,0,1,57.7,16.1L55.1,14.623a0.91,0.91,0,0,1-.576-1.056v-3.1a2.912,2.912,0,0,1,.064-0.672,1.449,1.449,0,0,1,.768-0.416,8.95,8.95,0,0,0,3.007-2.048,1.856,1.856,0,0,1,.928-0.639,11.367,11.367,0,0,0,4.576,1.28h1.5c0.992,0-1.12,2.943-3.264,2.943-0.576,0-1.12.225-3.232-.832a0.612,0.612,0,0,0-.224-0.064,0.424,0.424,0,0,0-.416.416v1.856a0.778,0.778,0,0,0,.289.736l1.215,0.7a0.911,0.911,0,0,0,1.12-.48l0.32-.544a0.875,0.875,0,0,1,.64-0.352c0.1,0,.544.416,0.832,0.576l2.56,1.472a1.014,1.014,0,0,1,.608,1.056v3.1a2.4,2.4,0,0,1-.064.641" transform="translate(0 0)" style="fill:#a90f22"/><path d="M84.447,7.9a1.375,1.375,0,0,0-.8.224c-0.256.16-.48,0.32-0.64,0.416a1.172,1.172,0,0,0-.384.416,2.788,2.788,0,0,0-.384.864l-1.6,7.776c-0.1.416-.16,0.735,0.1,0.863l1.088,0.576a0.763,0.763,0,0,0,.384.128,0.52,0.52,0,0,0,.288-0.128l0.7-.544c0.192-.128.448-0.383,0.64-0.16l0.256,0.319c0.128,0.161,0,.321-0.192.481l-3.424,2.943a0.545,0.545,0,0,1-.7,0l-2.4-1.151a0.43,0.43,0,0,1-.256-0.416,0.457,0.457,0,0,1,.192-0.384l0.288-.191a1.466,1.466,0,0,0,.736-1.441V8.7a0.3,0.3,0,0,0-.32-0.32H77.023a0.3,0.3,0,0,1-.32-0.32,0.291,0.291,0,0,1,.1-0.224l3.679-4.928a0.394,0.394,0,0,1,.32-0.16,0.424,0.424,0,0,1,.416.416V5.5a1.578,1.578,0,0,0,1.568,1.6h1.632c0.512,0,.64-0.032.64,0.16a0.552,0.552,0,0,1-.608.64" transform="translate(0 0)" style="fill:#a90f22"/><path d="M109.081,22.325a3,3,0,0,1-2.661-1.1l-0.92-1.66h-0.02a0.533,0.533,0,0,1,.06.24,0.392,0.392,0,0,1-.18.34l-3.241,2.06a0.791,0.791,0,0,1-.24.12,0.316,0.316,0,0,1-.2-0.24l-1.8-3.78a0.845,0.845,0,0,1-.121-0.42c0-.8,1.6-1.681,2.921-1.681a0.163,0.163,0,0,1,.161.2,0.312,0.312,0,0,1-.161.24,1.586,1.586,0,0,0-.86,1,0.74,0.74,0,0,0,.14.46l1.2,1.719a0.569,0.569,0,0,0,.4.261,0.329,0.329,0,0,0,.18-0.059l1.581-.8-3.541-7.2c-0.04-.06-0.1-0.18-0.2-0.36a1.049,1.049,0,0,1-.16-0.52,2.825,2.825,0,0,1,1.14-.72,8.017,8.017,0,0,1,3.761-1.3,1.318,1.318,0,0,1,1.541,1.56c0,1.36-1.361,3.06-1.9,3.06-0.24,0-.36-0.059-0.36-0.2,0-.361.56-0.461,0.56-1.741a1.617,1.617,0,0,0-1.52-1.72,1.382,1.382,0,0,0-1.041.54L108.16,20.1a1.99,1.99,0,0,0,1.721,1.44,4.653,4.653,0,0,0,1.7-.6,0.22,0.22,0,0,1,.2.259c0,0.62-1.3,1.12-2.7,1.12m1.26-3.94a8.648,8.648,0,0,1-1.681-.66,4.938,4.938,0,0,0-.56.22,0.342,0.342,0,0,1-.36-0.341l1.441-1.2a0.532,0.532,0,0,1,.42-0.141,11.178,11.178,0,0,0,1.94.82,1.351,1.351,0,0,1,.581.26c0,0.461-1.5,1.041-1.781,1.041" transform="translate(0 0)" style="fill:#a90f22"/><path d="M138.385,23.167l-0.8-.736c-1.376-1.28-4.576-3.872-7.168-3.872a1.593,1.593,0,0,0-1.759,1.057c0,1.824,2.047,2.783,2.816,2.943,0.479,0.1.7,0.224,0.7,0.384,0,0.288-.353.448-1.024,0.448-1.568,0-4.576-1.984-4.576-3.392,0-1.28,1.472-2.655,4-2.655,7.04,0,12.127,4.223,12.127,4.735,0,0.128-3.775,1.6-4.319,1.088m3.392-4.927c-0.416,0-.8-0.161-0.64-0.416a1.778,1.778,0,0,0,.352-0.929c0-.543-1.184-1.92-3.52-1.951l-3.936-.032c-5.151-.1-6.5-1.376-6.5-2.944,0-1.056.192-1.952,0.8-1.952,0.192,0,.192.256,0.192,0.416,0,1.408,2.016,3.36,5.311,3.36l5.824,0.032c1.535,0,5.119.512,5.119,2.4,0,1.121-1.759,2.017-3.007,2.017m3.36,2.527a2.357,2.357,0,0,1-1.216-.159,0.469,0.469,0,0,1,.287-0.513c5.216-3.2.9-9.215-4.479-9.375l-4.224-.128c-1.536-.032-5.535.1-5.535-3.264,0-3.167,5.119-6.495,8.031-6.495a2.56,2.56,0,0,1,1.281.512,15.682,15.682,0,0,0,3.966,1.792,6.086,6.086,0,0,0,.8-0.641,2.631,2.631,0,0,1,.928-0.639c0.288,0,.448.064,0.448,0.192,0,0.223-2.976,3.008-4.128,4.191-1.536-.9-3.935-2.528-5.311-2.528-2.336,0-2.912,1.376-2.912,2.528,0,1.44,1.471,3.1,6.367,3.072l3.776-.032c3.008-.032,6.144,1.856,6.144,4.96,0,3.584-3.073,6.559-4.224,6.527" transform="translate(0 0)" style="fill:#a90f22"/><path d="M166.066,7.9a1.375,1.375,0,0,0-.8.224c-0.256.16-.48,0.32-0.64,0.416a1.163,1.163,0,0,0-.384.416,2.788,2.788,0,0,0-.384.864l-1.6,7.776c-0.1.416-.16,0.735,0.1,0.863l1.088,0.576a0.763,0.763,0,0,0,.384.128,0.52,0.52,0,0,0,.288-0.128l0.7-.544c0.192-.128.448-0.383,0.64-0.16l0.255,0.319c0.128,0.161,0,.321-0.191.481L162.1,22.078a0.658,0.658,0,0,1-.352.129,0.667,0.667,0,0,1-.352-0.129l-2.4-1.151a0.429,0.429,0,0,1-.256-0.416,0.457,0.457,0,0,1,.191-0.384l0.288-.191a1.466,1.466,0,0,0,.737-1.441V8.7a0.3,0.3,0,0,0-.321-0.32h-0.992a0.3,0.3,0,0,1-.319-0.32,0.287,0.287,0,0,1,.1-0.224L162.1,2.912a0.394,0.394,0,0,1,.321-0.16,0.425,0.425,0,0,1,.416.416V5.5A1.577,1.577,0,0,0,164.4,7.1h1.632c0.511,0,.639-0.032.639,0.16a0.551,0.551,0,0,1-.607.64" transform="translate(0 0)" style="fill:#a90f22"/><path d="M188.336,20.639l-2.783,1.408a1.867,1.867,0,0,1-.544.192,0.494,0.494,0,0,1-.353-0.192l-1.887-2.5-3.552,2.72a0.671,0.671,0,0,1-.352.128,0.434,0.434,0,0,1-.352-0.128l-2.464-1.919a2.518,2.518,0,0,1-.9-0.769,0.51,0.51,0,0,1,.128-0.383l0.321-.193a1.368,1.368,0,0,0,.544-0.639,2.567,2.567,0,0,0,.159-0.8V15.52a8.952,8.952,0,0,0-.256-1.6,0.578,0.578,0,0,1,.352-0.608l3.744-1.12a0.553,0.553,0,0,1,.48.96,1.762,1.762,0,0,0-.864,1.792v3.488a1.1,1.1,0,0,0,.16.735l0.448,0.416a0.288,0.288,0,0,0,.32,0l1.024-.576a0.886,0.886,0,0,0,.384-0.928V10.464a0.642,0.642,0,0,0-.64-0.64l-4.416-1.888a0.429,0.429,0,0,1-.256-0.416,0.437,0.437,0,0,1,.448-0.448c0.128,0,.8.128,0.992,0.16l3.36,0.512a15.61,15.61,0,0,0,1.792.064,7.712,7.712,0,0,0,2.3-.512,2.157,2.157,0,0,1,.832-0.224,0.452,0.452,0,0,1,.319.448,0.636,0.636,0,0,1-.319.576c-0.609.416-.672,0.9-0.672,2.112v8.9a0.929,0.929,0,0,0,.928.928c0.832,0,.767-0.577,1.343-0.577a0.629,0.629,0,0,1,.608.608,0.648,0.648,0,0,1-.384.576" transform="translate(0 0)" style="fill:#a90f22"/><path d="M207.7,1.824l-0.256.448a0.41,0.41,0,0,1-.576.224l-1.823-.512a0.574,0.574,0,0,0-.641.32,1.6,1.6,0,0,0-.256,1.024v2.24c0,0.735-.063.992,0.288,1.215l0.416,0.257a0.886,0.886,0,0,0,.416.1l1.056,0.032c0.256,0,.416.1,0.385,0.256a1.414,1.414,0,0,1-.288.8,14.606,14.606,0,0,1-1.6.225c-0.384.1-.64,0.191-0.832,1.535L202.7,18.271a1.134,1.134,0,0,0,.544.992l0.927,0.8a0.439,0.439,0,0,0,.352.129,0.483,0.483,0,0,0,.353-0.129l0.7-.7a0.4,0.4,0,0,1,.288-0.129,0.425,0.425,0,0,1,.416.416A0.437,0.437,0,0,1,206.1,20l-2.431,1.983a0.884,0.884,0,0,1-.576.321,1.09,1.09,0,0,1-.768-0.384L199.729,20.1a0.941,0.941,0,0,1-.448-0.417,0.452,0.452,0,0,1,.192-0.383l0.32-.192a1.663,1.663,0,0,0,.672-1.44V9.568a1.051,1.051,0,0,0-1.184-.993h-0.353A0.813,0.813,0,0,1,198.1,7.84a0.759,0.759,0,0,1,.736-0.736h0.384c0.928,0,1.375-.321,1.375-0.992L200.561,3.3c0-.864.031-1.056,0.512-1.216a15.12,15.12,0,0,0,2.08-1.568,1.066,1.066,0,0,1,.672-0.32,4.626,4.626,0,0,1,.928.224l2.5,0.768a0.7,0.7,0,0,1,.544.288,0.646,0.646,0,0,1-.1.352" transform="translate(0 0)" style="fill:#a90f22"/><path d="M225.52,1.824l-0.256.448a0.41,0.41,0,0,1-.576.224l-1.823-.512a0.574,0.574,0,0,0-.641.32,1.6,1.6,0,0,0-.256,1.024v2.24c0,0.735-.063.992,0.288,1.215l0.416,0.257a0.886,0.886,0,0,0,.416.1l1.056,0.032c0.256,0,.416.1,0.385,0.256a1.414,1.414,0,0,1-.288.8,14.606,14.606,0,0,1-1.6.225c-0.384.1-.64,0.191-0.832,1.535l-1.279,8.288a1.134,1.134,0,0,0,.544.992l0.927,0.8a0.439,0.439,0,0,0,.352.129,0.483,0.483,0,0,0,.353-0.129l0.7-.7a0.4,0.4,0,0,1,.288-0.129,0.425,0.425,0,0,1,.416.416,0.437,0.437,0,0,1-.193.353l-2.431,1.983a0.884,0.884,0,0,1-.576.321,1.09,1.09,0,0,1-.768-0.384L217.553,20.1a0.941,0.941,0,0,1-.448-0.417A0.452,0.452,0,0,1,217.3,19.3l0.32-.192a1.663,1.663,0,0,0,.672-1.44V9.568a1.051,1.051,0,0,0-1.184-.993h-0.353a0.813,0.813,0,0,1-.831-0.735,0.759,0.759,0,0,1,.736-0.736h0.384c0.928,0,1.375-.321,1.375-0.992L218.385,3.3c0-.864.031-1.056,0.512-1.216a15.12,15.12,0,0,0,2.08-1.568,1.066,1.066,0,0,1,.672-0.32,4.626,4.626,0,0,1,.928.224l2.5,0.768a0.7,0.7,0,0,1,.544.288,0.646,0.646,0,0,1-.1.352" transform="translate(0 0)" style="fill:#a90f22"/><rect width="225.617" height="23.391" style="fill:none"/></svg>