<svg xmlns="http://www.w3.org/2000/svg" viewBox="0 0 189.886 25.983"><title>chara_ttl</title><path d="M10.336,22.686C5.344,22.686,0,19.264,0,11.935,0,5.888,4.288.992,5.408,0.992a0.363,0.363,0,0,1,.288.224L5.76,1.44,5.6,1.7c-5.92,6.4-3.008,17.727,6.207,17.727a10.531,10.531,0,0,0,7.456-2.464,1.543,1.543,0,0,1,.96-0.352,0.264,0.264,0,0,1,.224.192,1.615,1.615,0,0,1,.064.384c0,1.056-3.424,5.5-10.175,5.5M16.8,5.12a4.846,4.846,0,0,1-2.752-1.056c-2.24-1.44-2.464-1.024-2.815-1.024-0.161,0-.416-0.032-0.673.832L7.9,12.543a1.147,1.147,0,0,1-.9,1.088,0.629,0.629,0,0,1-.575-0.768L6.4,6.5a3.34,3.34,0,0,1,.832-2.4C7.712,3.68,9.823,2.048,10.975.9A6.089,6.089,0,0,1,11.967,0c0.416-.032,2.656,1.472,4.064,1.44a4.1,4.1,0,0,0,2.5-1.12,0.591,0.591,0,0,1,.544.448c0.064,0.288.32,2.56-2.272,4.352" transform="translate(0 0)" style="fill:#a90f22"/><path d="M35.2,25.982c-0.448,0-.672-0.1-0.672-0.256a1,1,0,0,1,.64-0.512C38.944,23.486,39.1,21.63,39.1,19.9V10.015a0.891,0.891,0,0,0-.7-0.991,0.686,0.686,0,0,0-.416.191l-1.536.832a1.2,1.2,0,0,0-.352.9v7.68a2.42,2.42,0,0,0,.352,1.439l0.128,0.16a0.573,0.573,0,0,1,.128.416,0.389,0.389,0,0,1-.224.385l-1.728,1.119a0.964,0.964,0,0,1-.96,0l-2.24-1.088a0.472,0.472,0,0,1-.288-0.416,0.457,0.457,0,0,1,.192-0.384l0.288-.192a1.7,1.7,0,0,0,.64-1.439V5.376A3.711,3.711,0,0,0,30.624,2.4,0.6,0.6,0,0,1,30.4,1.984a0.561,0.561,0,0,1,.544-0.544,1.842,1.842,0,0,1,.32.064l2.208,0.512,2.656-1.088A0.593,0.593,0,0,1,36.352.864a0.561,0.561,0,0,1,.544.544,0.635,0.635,0,0,1-.192.416A1.385,1.385,0,0,0,36.1,3.136V9.087l2.912-1.7a2.422,2.422,0,0,1,1.151-.351c0.8,0,2.561.831,2.561,4.063v7.615c0,5.856-5.5,7.264-7.52,7.264" transform="translate(0 0)" style="fill:#a90f22"/><path d="M67.487,20.639L64.7,22.047a1.857,1.857,0,0,1-.544.192,0.492,0.492,0,0,1-.352-0.192l-1.888-2.5-3.552,2.72a0.668,0.668,0,0,1-.352.128,0.435,0.435,0,0,1-.352-0.128L55.2,20.352a2.518,2.518,0,0,1-.9-0.769,0.506,0.506,0,0,1,.128-0.383l0.32-.193a1.362,1.362,0,0,0,.544-0.639,2.542,2.542,0,0,0,.16-0.8V15.52a8.952,8.952,0,0,0-.256-1.6,0.576,0.576,0,0,1,.351-0.608l3.745-1.12a0.553,0.553,0,0,1,.48.96,1.761,1.761,0,0,0-.865,1.792v3.488a1.1,1.1,0,0,0,.16.735l0.448,0.416a0.289,0.289,0,0,0,.321,0l1.023-.576a0.886,0.886,0,0,0,.384-0.928V10.464a0.642,0.642,0,0,0-.64-0.64L56.192,7.936a0.427,0.427,0,0,1-.256-0.416,0.437,0.437,0,0,1,.447-0.448c0.128,0,.8.128,0.993,0.16l3.359,0.512a15.61,15.61,0,0,0,1.792.064,7.706,7.706,0,0,0,2.3-.512,2.162,2.162,0,0,1,.832-0.224,0.452,0.452,0,0,1,.32.448,0.638,0.638,0,0,1-.32.576c-0.608.416-.672,0.9-0.672,2.112v8.9a0.929,0.929,0,0,0,.928.928c0.832,0,.768-0.577,1.344-0.577a0.629,0.629,0,0,1,.608.608,0.648,0.648,0,0,1-.384.576" transform="translate(0 0)" style="fill:#a90f22"/><path d="M87.646,10.5l-1.28,1.984a0.564,0.564,0,0,1-.48.256,0.652,0.652,0,0,1-.512-0.288l-1.312-1.856a0.547,0.547,0,0,0-.416-0.224,0.505,0.505,0,0,0-.512.512v7.455a1.2,1.2,0,0,0,.992,1.344,0.922,0.922,0,0,0,.352-0.128l0.768-.416a0.831,0.831,0,0,1,.32-0.128,0.482,0.482,0,0,1,.352.384,0.325,0.325,0,0,1-.224.353l-3.456,2.271a0.869,0.869,0,0,1-.544.256,7,7,0,0,1-1.535-.8,14.964,14.964,0,0,0-1.7-.832,0.486,0.486,0,0,1-.319-0.384c0-.608,1.312.1,1.312-1.6V11.744a2.446,2.446,0,0,0-.608-1.376,1.431,1.431,0,0,0-.7-0.16h-0.32a0.431,0.431,0,0,1-.48-0.288L80,7.168a0.651,0.651,0,0,1,.543-0.1,0.824,0.824,0,0,1,.544.32l1.376,1.44a0.873,0.873,0,0,0,.608.352,0.716,0.716,0,0,0,.576-0.352l0.832-1.184a1,1,0,0,1,.8-0.672,0.606,0.606,0,0,1,.512.288l1.856,2.368a0.676,0.676,0,0,1,.224.416,0.962,0.962,0,0,1-.224.448" transform="translate(0 0)" style="fill:#a90f22"/><path d="M110.654,20.639l-2.783,1.408a1.867,1.867,0,0,1-.544.192,0.494,0.494,0,0,1-.353-0.192l-1.887-2.5-3.552,2.72a0.671,0.671,0,0,1-.352.128,0.434,0.434,0,0,1-.352-0.128l-2.464-1.919a2.518,2.518,0,0,1-.9-0.769A0.51,0.51,0,0,1,97.6,19.2l0.321-.193a1.368,1.368,0,0,0,.544-0.639,2.567,2.567,0,0,0,.159-0.8V15.52a8.952,8.952,0,0,0-.256-1.6,0.577,0.577,0,0,1,.352-0.608l3.744-1.12a0.553,0.553,0,0,1,.48.96,1.762,1.762,0,0,0-.864,1.792v3.488a1.1,1.1,0,0,0,.16.735l0.448,0.416a0.288,0.288,0,0,0,.32,0l1.024-.576a0.886,0.886,0,0,0,.384-0.928V10.464a0.642,0.642,0,0,0-.64-0.64L99.359,7.936A0.429,0.429,0,0,1,99.1,7.52a0.437,0.437,0,0,1,.448-0.448c0.128,0,.8.128,0.992,0.16l3.36,0.512a15.61,15.61,0,0,0,1.792.064A7.712,7.712,0,0,0,108,7.3a2.157,2.157,0,0,1,.832-0.224,0.452,0.452,0,0,1,.319.448,0.636,0.636,0,0,1-.319.576c-0.609.416-.672,0.9-0.672,2.112v8.9a0.929,0.929,0,0,0,.928.928c0.832,0,.767-0.577,1.343-0.577a0.629,0.629,0,0,1,.608.608,0.648,0.648,0,0,1-.384.576" transform="translate(0 0)" style="fill:#a90f22"/><path d="M129.918,11.2a0.462,0.462,0,0,1-.352.224,1.461,1.461,0,0,1-.7-0.256l-1.44-.864a0.847,0.847,0,0,0-.7-0.256c-0.575.352-.575,0.512-0.575,0.736v7.072a0.961,0.961,0,0,0,.383,1.023l1.312,0.576a1.084,1.084,0,0,0,.384.1,1.907,1.907,0,0,0,.672-0.351l0.992-.8a0.784,0.784,0,0,1,.448-0.192,0.368,0.368,0,0,1,.288.192,0.345,0.345,0,0,1,.064.224,0.957,0.957,0,0,1-.32.352L127.294,21.6c-0.512.479-.64,0.832-1.248,0.448a8.957,8.957,0,0,0-3.711-1.376c-0.448,0-.673-0.223-0.353-0.7a4.112,4.112,0,0,0,.481-2.367V10.272a1.693,1.693,0,0,1,1.056-.96A14.66,14.66,0,0,0,126.431,7.3c0.223-.256.319-0.576,0.544-0.448l2.975,1.6c0.768,0.416,1.216.672,0.9,1.216Z" transform="translate(0 0)" style="fill:#a90f22"/><path d="M149.246,7.9a1.375,1.375,0,0,0-.8.224c-0.256.16-.48,0.32-0.64,0.416a1.163,1.163,0,0,0-.384.416,2.788,2.788,0,0,0-.384.864l-1.6,7.776c-0.1.416-.16,0.735,0.1,0.863l1.088,0.576a0.763,0.763,0,0,0,.384.128,0.52,0.52,0,0,0,.288-0.128l0.7-.544c0.192-.128.448-0.383,0.64-0.16l0.255,0.319c0.128,0.161,0,.321-0.191.481l-3.424,2.943a0.658,0.658,0,0,1-.352.129,0.667,0.667,0,0,1-.352-0.129l-2.4-1.151a0.43,0.43,0,0,1-.257-0.416,0.457,0.457,0,0,1,.192-0.384l0.288-.191a1.466,1.466,0,0,0,.737-1.441V8.7a0.3,0.3,0,0,0-.321-0.32h-0.992a0.3,0.3,0,0,1-.319-0.32,0.287,0.287,0,0,1,.1-0.224l3.679-4.928a0.394,0.394,0,0,1,.321-0.16,0.424,0.424,0,0,1,.415.416V5.5a1.578,1.578,0,0,0,1.568,1.6h1.632c0.511,0,.639-0.032.639,0.16a0.551,0.551,0,0,1-.607.64" transform="translate(0 0)" style="fill:#a90f22"/><path d="M168.894,12.255l-2.336,3.3a1.369,1.369,0,0,1-.544.481,0.57,0.57,0,0,1-.16.064,0.468,0.468,0,0,1-.256-0.384,0.245,0.245,0,0,1,.065-0.161,3.481,3.481,0,0,0,.159-0.382l0.576-.7a1.668,1.668,0,0,0,.384-0.993,1.23,1.23,0,0,0-.384-0.735l-1.44-1.44a0.534,0.534,0,0,0-.288-0.192c-0.128,0-.416.064-0.416,1.248v6.016c0,0.9.512,1.055,1.312,1.471a2.251,2.251,0,0,0,.992.289A0.837,0.837,0,0,0,167.006,20l1.28-.865a0.773,0.773,0,0,1,.448-0.191,0.507,0.507,0,0,1,.32.416,0.328,0.328,0,0,1-.224.256l-3.136,2.143a2.575,2.575,0,0,1-.863.449,1.305,1.305,0,0,1-.544-0.16,11.8,11.8,0,0,0-3.521-1.376,2,2,0,0,1-.863-0.256c0-.288.639-0.9,0.832-1.632a4.171,4.171,0,0,0,.159-1.184l0.257-8.48a0.387,0.387,0,0,1,.223-0.384l2.72-1.472a2.126,2.126,0,0,1,.9-0.383,0.85,0.85,0,0,1,.416.255l3.168,3.008a2.186,2.186,0,0,1,.736,1.152,1.622,1.622,0,0,1-.416.96" transform="translate(0 0)" style="fill:#a90f22"/><path d="M189.661,10.5l-1.279,1.984a0.566,0.566,0,0,1-.481.256,0.65,0.65,0,0,1-.511-0.288l-1.312-1.856a0.549,0.549,0,0,0-.416-0.224,0.506,0.506,0,0,0-.513.512v7.455a1.2,1.2,0,0,0,.992,1.344,0.919,0.919,0,0,0,.353-0.128l0.768-.416a0.825,0.825,0,0,1,.32-0.128,0.482,0.482,0,0,1,.351.384,0.324,0.324,0,0,1-.223.353l-3.456,2.271a0.871,0.871,0,0,1-.544.256,7,7,0,0,1-1.536-.8,15.06,15.06,0,0,0-1.7-.832,0.486,0.486,0,0,1-.32-0.384c0-.608,1.312.1,1.312-1.6V11.744a2.439,2.439,0,0,0-.608-1.376,1.431,1.431,0,0,0-.7-0.16h-0.32a0.432,0.432,0,0,1-.48-0.288l2.656-2.752a0.653,0.653,0,0,1,.543-0.1,0.822,0.822,0,0,1,.544.32l1.376,1.44a0.877,0.877,0,0,0,.609.352,0.717,0.717,0,0,0,.576-0.352l0.832-1.184a0.994,0.994,0,0,1,.8-0.672,0.606,0.606,0,0,1,.512.288l1.855,2.368a0.678,0.678,0,0,1,.225.416,0.966,0.966,0,0,1-.225.448" transform="translate(0 0)" style="fill:#a90f22"/></svg>