<svg xmlns="http://www.w3.org/2000/svg" viewBox="0 0 235.497 48.598"><title>chara_name_2</title><path d="M36.9,5.76c-2.52,0-3.84-.84-4.619-0.84a0.763,0.763,0,0,0-.361.06c-1.26.541-.78,3.78-0.78,4.74s0.48,1.859,1.141,1.859h5.279a0.965,0.965,0,0,1,1.141,1.2c0,0.54.179,1.56-.541,1.56s-0.24-.479-1.02-0.479c-1.2,0-2.4.959-3.06,1.32-1.44.78-2.82,1.26-2.82,2.88l0.12,15.718c0.061,4.5-6.24,8.4-7.439,9.06a93.709,93.709,0,0,1-9,4.08c-1.44.54-2.1,1.08-3.119,1.08-2.7,0-3.241-1.5-6-1.5C4.02,46.5,2.1,48.6.84,48.6c-0.479,0-.479-0.119-0.539-0.42a6.462,6.462,0,0,1-.3-1.26C0,46.2,1.441,42.6,6.061,42.6c4.559,0,5.4,2.04,9.119,2.04,1.8,0,11.879-4.14,11.879-10.681L27,4.98c0-.3-0.12-0.539-0.12-0.72a1.145,1.145,0,0,1,.54-0.84C27.719,3.18,31.86.6,32.639,0.6c0.24,0,2.881,1.739,6,1.739,2.52,0,3.779-1.56,4.2-1.56,0.181,0,.24.3,0.24,0.84,0,1.2-2.279,4.14-6.179,4.14M18.18,35.339c-0.12.96-.48,1.38-0.721,1.38-0.3,0-.539-0.54-0.539-1.32L17.34,17.88c0-1.02-.12-3.181-3.54-3.181-3.239,0-3.84,1.5-5.76,1.5-0.36,0-.479-0.059-0.479-0.3a4.083,4.083,0,0,1,.659-1.2c1.261-1.86,5.16-3.239,6.3-3.6,1.08-.361,2.46-0.66,2.58-1.861,0.06-.6.06-1.5,0.18-2.1s0.48-.84,2.94-0.84c0.72,0,1.38-.359,1.14,1.68Z" transform="translate(0 0)" style="fill:#2d4e40"/><path d="M97.139,2.161c-4.981,5.819-3.42,10.8-3.42,15.839,0,4.019,1.2,10.919,1.2,13.5,0,8.459-5.219,10.919-9.239,10.919-4.861,0-8.46-4.98-13.079-4.98a5.36,5.36,0,0,0-2.16.3,0.309,0.309,0,0,1-.36-0.361c0-.179.48-3.058,4.5-3.058,4.68,0,4.861,6.18,12,6.18a5.425,5.425,0,0,0,5.34-5.821c0-2.519-2.459-8.46-2.459-16.08,0-10.259,3.359-17.938,7.379-17.938a0.8,0.8,0,0,1,.78.54c0.12,0.179.24,0.059-.479,0.96M83.879,14.94l1.439,17.1a1.7,1.7,0,0,1-1.739,1.74,1.869,1.869,0,0,1-1.74-1.74c-0.96-4.68-.72-10.979-6.3-10.979-1.98,0-2.82,1.319-3.84,1.319a0.46,0.46,0,0,1-.48-0.6c0-1.98,4.92-4.14,6.06-4.14A2.6,2.6,0,0,0,80.1,15.36c0.479-2.64,1.739-6.12,2.218-9.06,0.3-1.74-1.739-1.439-2.339-1.439-1.44,0-3.6-.42-4.32,0A7.515,7.515,0,0,1,73.2,6c-0.42,0-.54-0.241-0.54-0.72,0-1.2,1.681-4.26,6.24-4.26,2.16,0,3.36.119,5.16,0.119A15.417,15.417,0,0,0,86.759.6a0.607,0.607,0,0,1,.66.36c-0.3.48-4.08,7.559-3.54,13.979" transform="translate(0 0)" style="fill:#2d4e40"/><path d="M139.558,11.94c0,1.261.66,6.239,0.66,15.239,0,4.26-1.26,5.94-2.28,5.94-0.66,0-.12-0.42-0.12-1.08,0-4.379-4.5-5.459-4.679-5.459-0.72,0-1.141.359-1.141-.3a1.28,1.28,0,0,1,1.141-.36c0.839,0,.66.18,1.259,0.18,0.42,0,1.92-.06,1.92-1.319,0-2.16-1.86-4.2-2.939-4.2-0.361,0-2.521-.18-2.521-0.96a1.853,1.853,0,0,1,1.321-1.26,12.606,12.606,0,0,0,3.479-.96c0.42-.42.24-2.16,0.24-3.779,0-2.881,1.86-4.741,1.86-5.941a2.8,2.8,0,0,0-1.079-1.62c-0.42-.3-0.9-0.18-1.92-0.66a8.829,8.829,0,0,0-2.941-1.2c-3.779,0-2.279,3.9-3.6,3.9a0.881,0.881,0,0,1-1.02-1.08c0-4.859,5.039-5.64,5.22-5.64,2.76,0,4.019,1.08,5.76,1.08C140.758,2.46,142.5,0,144,0c0.54,0,.66.06,0.66,0.54,0,2.28-5.1,2.94-5.1,11.4m21.179,27.6c-1.38,1.44-2.819,2.82-4.08,2.82-2.579,0-8.879-2.641-15.059-2.641-6.78,0-9.6,1.92-10.32,1.92a0.2,0.2,0,0,1-.239-0.239c0-1.319,6.119-4.319,16.978-4.319A33.333,33.333,0,0,1,158.218,39c1.439,0,3.84-3.18,4.2-3.18a0.693,0.693,0,0,1,.84.66c0,0.42-1.26,1.74-2.52,3.06m-4.2-37.979c-0.539,0-5.76,1.381-5.76,6.6,0,4.32.841,5.88,0.841,11.7s-3.96,12.179-5.7,12.179c-1.14,0,1.74-3.9,1.74-10.319,0-3.541-.66-6.78-0.66-11.46,0-7.92,9.539-9.96,10.14-9.96,1.08,0,1.259.361,1.259,0.721,0,0.779-.24.539-1.86,0.539" transform="translate(0 0)" style="fill:#2d4e40"/><path d="M211.256,41.818c-8.46,0-17.639-6.96-17.639-16.2,0-9.3,2.46-11.34,3.96-12.84a3.818,3.818,0,0,1,2.1-1.2,0.379,0.379,0,0,1,.421.481c0,1.56-2.46,2.939-2.46,12,0,7.5,5.339,15.539,15.719,15.539,9.54,0,18.359-7.14,18.359-19.62,0-6.96-5.1-14.1-14.878-15.179-1.081-.12-1.5-0.42-1.5-0.84,0-.24,1.259-0.721,2.4-1.38a8.1,8.1,0,0,1,2.94-1.14c3.18,0,14.82,6,14.82,17.219,0,9.84-9.9,23.159-24.24,23.159m-5.939-12.779a3.078,3.078,0,0,1-.061-1.2L204.777,9.9c-0.061-1.2,2.939-2.939,3.6-2.939,0.359,0,.479.359,0.479,0.9l0.061,18.119c0,0.9-3.481,3.06-3.6,3.06" transform="translate(0 0)" style="fill:#2d4e40"/></svg>