<svg xmlns="http://www.w3.org/2000/svg" viewBox="0 0 30.634 99.032"><title>chara_wep_3</title><path d="M15.317,99.031a2.4,2.4,0,0,1-2.242-1.58c0.874,0.07,1.994.093,2.241,0.093s1.367-.023,2.241-0.093a2.4,2.4,0,0,1-2.2,1.581H15.317m0-2.131c-0.271,0-1.829-.036-2.651-0.136a2.906,2.906,0,0,1-1.344-.833,0.677,0.677,0,0,1,.156-0.647,7.572,7.572,0,0,0,3.725.9h0.167a7.65,7.65,0,0,0,3.786-.9,0.666,0.666,0,0,1,.156.647,2.934,2.934,0,0,1-1.376.842c-0.789.091-2.348,0.127-2.619,0.127m-0.108-1.36c-0.26,0-.5-0.014-0.737-0.036a14.52,14.52,0,0,0,.606-3.908h0.479a14.859,14.859,0,0,0,.606,3.909c-0.23.021-.469,0.035-0.725,0.035H15.208Zm3.006-.515a20.58,20.58,0,0,1-1.153-3.47c0.157-.012.3-0.027,0.414-0.045,0.639,1.636,1.094,2.745,1.326,3.234a6.015,6.015,0,0,1-.587.281m-5.8,0a5.784,5.784,0,0,1-.586-0.28c0.23-.487.676-1.573,1.325-3.233,0.116,0.017.258,0.033,0.414,0.045a20.352,20.352,0,0,1-1.153,3.468m2.59-4.072a12.66,12.66,0,0,1-1.833-.089,1.8,1.8,0,0,1-.213-0.6l-0.009-.133a0.614,0.614,0,0,1,.287-0.66,2.931,2.931,0,0,0,1.67.355h0.806a2.925,2.925,0,0,0,1.673-.357,0.616,0.616,0,0,1,.289.662l-0.009.133a1.347,1.347,0,0,1-.28.637c-0.14.009-.907,0.047-1.757,0.047H15.009Zm-0.068-1.766a2,2,0,0,1-1.347-.259,24.192,24.192,0,0,0,.108-5.675c-0.036-.559-0.077-1.207-0.12-1.989a13.515,13.515,0,0,0,1.779-2.211l0.2,0.279a12.5,12.5,0,0,0,1.494,1.934c-0.044.778-.085,1.422-0.12,1.979A27.206,27.206,0,0,0,17,89.03a3.688,3.688,0,0,1-1.312.156h-0.75Zm-1.672-8.493c0.01-.018-0.005-0.022-0.031-0.022H13.187c-0.12,0-.181-0.042-0.181-0.125a4.153,4.153,0,0,0-.055-0.9,0.632,0.632,0,0,1-.015-0.542c0.021-.033.054-0.077,0.1-0.133,0.067-.086.153-0.2,0.246-0.339A42.573,42.573,0,0,0,17.4,73.575l0.1-.135-0.016-.169-2.075-2.058H15.223l-2.085,2.068-0.008.18L13.246,73.6c0.015,0.016.847,0.98,1.753,2.112-0.213.273-.432,0.546-0.646,0.809A9.906,9.906,0,0,0,13.112,75.1l-1.191-1.431a12.645,12.645,0,0,1,1.057-1.728c-0.284-1.946-1.125-2.7-2.88-2.7l-0.167,0c-1.385.033-2.241,1.017-2.615,3a6.317,6.317,0,0,0,.313,2.883l0.057,0.193a1.465,1.465,0,0,1-1.142.906,7.743,7.743,0,0,1-2.276.279,8.542,8.542,0,0,1-1.25-.082,6.772,6.772,0,0,1-3-1.234c-0.136-.267.622-1.314,1.2-1.889a14.63,14.63,0,0,0,1.51-2.742l0.189-.4c0.537-1.116,2.159-4.153,2.893-5.417a5,5,0,0,1,2.713-1.892L8.6,62.725a6.584,6.584,0,0,1-.048-0.772,6.747,6.747,0,0,1,.854-3.279c0.226,0.181.462,0.374,0.691,0.572a5.965,5.965,0,1,0,10.416-.027,7.753,7.753,0,0,1,.7-0.551,6.732,6.732,0,0,1,.858,3.285,6.584,6.584,0,0,1-.048.772l0.085,0.137a4.992,4.992,0,0,1,2.713,1.892c0.727,1.25,2.348,4.288,2.894,5.417l0.173,0.364a14.745,14.745,0,0,0,1.525,2.773c0.575,0.576,1.333,1.623,1.2,1.888a6.785,6.785,0,0,1-3,1.235,8.537,8.537,0,0,1-1.249.082,7.748,7.748,0,0,1-2.276-.279,1.463,1.463,0,0,1-1.142-.906l0.06-.2a6.314,6.314,0,0,0,.311-2.877c-0.375-1.987-1.231-2.971-2.617-3l-0.166,0c-1.755,0-2.6.753-2.905,2.6a6.245,6.245,0,0,1,1.06,1.913l-1.174,1.345a28.1,28.1,0,0,0-1.953,2.569c-0.757,1.052-1.9,2.64-2.294,3.019m8.886-14.132a0.675,0.675,0,0,1,.286.226,13.013,13.013,0,0,1,1.607,4.132,13.617,13.617,0,0,1,.123,2.93,1.585,1.585,0,0,0,.348,1.43,5.038,5.038,0,0,0,2.218.393,2.941,2.941,0,0,0,.333-0.015c0.483-.057,1.826-0.469,1.988-1.06,0.115-.426-0.344-0.817-0.873-1.271a5.107,5.107,0,0,1-.526-0.484,9.365,9.365,0,0,1-1.113-2.617c-0.24-.764-0.825-2.069-1.253-3.021-0.2-.447-0.374-0.834-0.435-1a7.716,7.716,0,0,0-1.952-2.07,1.335,1.335,0,0,0-.8-0.329l-0.148.014a0.653,0.653,0,0,0-.469.367l-0.093.183c-0.174.354-.236,0.476-0.43,0.841a6.628,6.628,0,0,1-1.612,2.079,9.686,9.686,0,0,1-1.6.724,3.7,3.7,0,0,0-1.068.5,1.013,1.013,0,0,0-.316.844l-0.014.613a0.6,0.6,0,0,0,.417.551,0.637,0.637,0,0,0,.177.026,0.591,0.591,0,0,0,.463-0.222,6.479,6.479,0,0,1,1.472-1.357,2.851,2.851,0,0,1,1.492-.373,2.723,2.723,0,0,1,.855.119,1.154,1.154,0,0,0,.4.075,1.052,1.052,0,0,0,.474-0.112,0.966,0.966,0,0,0,.5-0.558,0.886,0.886,0,0,0-.354-0.816,2.155,2.155,0,0,1-.172-0.2,0.445,0.445,0,0,1-.042-0.335,0.485,0.485,0,0,1,.113-0.215M8.523,63.809a1.342,1.342,0,0,0-.8.331,7.752,7.752,0,0,0-1.949,2.067c-0.058.155-.219,0.513-0.406,0.933-0.463,1.031-1.046,2.331-1.282,3.085a9.584,9.584,0,0,1-1.113,2.617,5.187,5.187,0,0,1-.516.477c-0.539.459-1,.851-0.884,1.278,0.163,0.593,1.506,1,1.988,1.059a2.738,2.738,0,0,0,.335.016,5.029,5.029,0,0,0,2.216-.393,1.578,1.578,0,0,0,.349-1.43,13.524,13.524,0,0,1,.123-2.929,12.745,12.745,0,0,1,1.607-4.133,0.6,0.6,0,0,1,.291-0.226,0.536,0.536,0,0,1,.107.219,0.445,0.445,0,0,1-.04.331,2.326,2.326,0,0,1-.171.2,0.884,0.884,0,0,0-.356.816,0.958,0.958,0,0,0,.5.558,1.056,1.056,0,0,0,.475.112,1.148,1.148,0,0,0,.4-0.075,2.73,2.73,0,0,1,.856-0.119,2.848,2.848,0,0,1,1.49.373,6.526,6.526,0,0,1,1.473,1.357,0.591,0.591,0,0,0,.462.223,0.628,0.628,0,0,0,.177-0.027A0.594,0.594,0,0,0,14.272,70l-0.005-.67a1.07,1.07,0,0,0-.323-0.814,3.667,3.667,0,0,0-1.058-.5,9.57,9.57,0,0,1-1.61-.728,6.587,6.587,0,0,1-1.612-2.079c-0.193-.361-0.254-0.484-0.425-0.826l-0.1-.2a0.661,0.661,0,0,0-.469-0.366ZM17.3,80.658c-0.172-.226-0.749-1.043-1.212-1.7L15.76,78.5l0.666-.924A5.23,5.23,0,0,0,17.4,78.69a2.754,2.754,0,0,0,.2.288,1.22,1.22,0,0,1,.1.129,0.531,0.531,0,0,1,0,.469,4.04,4.04,0,0,0-.076.918,0.174,0.174,0,0,1-.177.178Zm-4.052-4.494c0.189,0.217.43,0.511,0.684,0.862-0.2.238-.4,0.455-0.572,0.643-0.043-.6-0.082-1.1-0.112-1.5m4.033,1.48c-0.149-.189-0.294-0.392-0.428-0.578,0.166-.276.354-0.547,0.53-0.785-0.03.373-.063,0.833-0.1,1.363M15.316,65.957a3.82,3.82,0,1,1,3.822-3.82,3.825,3.825,0,0,1-3.822,3.82m0-6.675a2.854,2.854,0,1,0,2.854,2.855,2.858,2.858,0,0,0-2.854-2.855m-3.764.463a17.384,17.384,0,0,0-1.9-1.7L8.6,57.234c0.145-.212.519-0.764,1.194-1.776,0.98-1.467,1.587-5.356,1.736-8.349,0.164-3.247.041-12.942,0-14.578-0.009-.383-0.068-1.39-0.149-2.763-0.262-4.48-.752-12.819-0.5-16.152C11.2,9.344,14.4,1.339,15.316,0c0.913,1.339,4.115,9.344,4.435,13.616,0.248,3.326-.239,11.649-0.5,16.12-0.083,1.389-.142,2.409-0.151,2.795-0.041,1.636-.163,11.331,0,14.578,0.149,2.992.756,6.881,1.735,8.349,0.675,1.012,1.05,1.564,1.195,1.776l-1.05.809,0,0.015a10.236,10.236,0,0,0-1.9,1.681,4.5,4.5,0,0,0-.761-0.9l1.98-2.062,0.01-.169-0.1-.13a48.873,48.873,0,0,1-2.286-5.347c0-.325-0.131-3.38-0.254-5.779-0.107-2.1-.083-19.674.126-22.047,0.084-.956.5-5.8,0.381-7.2C18.17,16.011,16.477,7,15.316,7s-2.852,9.015-2.86,9.106c-0.118,1.4.3,6.244,0.381,7.2,0.209,2.373.234,19.945,0.126,22.046-0.118,2.3-.255,5.44-0.253,5.788a50.068,50.068,0,0,1-2.287,5.339l-0.1.128,0.01,0.171,1.981,2.062a4.479,4.479,0,0,0-.765.909M15.316,13.46c-0.758,0-.93,6.406-0.93,6.472V21.1l0.014,0.33c0.255,5.881.309,7.458,0.309,7.744,0,0.513-.142,9.83-0.226,15.4-0.032,2.216-.057,6.41-0.057,6.49l0.815,1.107H15.39l0.808-1c0.007-.171-0.007-3.809-0.031-5.348-0.079-5.223-.244-16.09-0.244-16.645,0-.4.1-2.952,0.3-7.582l0.021-.5V19.932c0-.066-0.172-6.472-0.93-6.472m0,44.212c-0.108,0-.216.005-0.321,0.013a4.218,4.218,0,0,0-2.054-2.627L13.9,52.9l1.325,1.269h0.182L16.733,52.9l0.958,2.158a4.145,4.145,0,0,0-2.052,2.627c-0.107-.008-0.215-0.013-0.323-0.013" transform="translate(0 0)" style="fill:#42577a"/></svg>