<svg xmlns="http://www.w3.org/2000/svg" viewBox="0 0 571.977 135.178"><title>chara_name_4</title><path d="M51.238,4.861a7.915,7.915,0,0,0-2.76,5.1V35.219c0,1.68-.24,3.84,1.2,3.84,1.08,0,1.14-.539,2.22-0.539a0.637,0.637,0,0,1,.66.779,2.871,2.871,0,0,1-1.32.96,22.7,22.7,0,0,1-4.02,1.98c-0.54,0-3-.659-3-6.419V9.121a7.345,7.345,0,0,0-1.8-4.68,2.068,2.068,0,0,0-1.62-.72c-0.42,0-1.14.241-4.14,1.619L31.138,7.921l-0.059,7.8c0,0.96.36,2.821,1.86,2.821H37.5c0.54,0,1.2,0,1.2.54a6.714,6.714,0,0,1-1.561,2.1A7.655,7.655,0,0,1,34.8,22.62c-0.241,0-3.12-.48-3.12,1.32L31.558,34.8a3.838,3.838,0,0,0,1.8,2.941A9,9,0,0,0,37.138,36a1.185,1.185,0,0,1,.541-0.24,0.731,0.731,0,0,1,.78.539,0.54,0.54,0,0,1-.3.6l-7.38,5.041a1.939,1.939,0,0,1-1.08.359,2.2,2.2,0,0,1-1.08-.66c-1.8-1.92-2.64-2.34-2.64-3.359,0-.54.96-1.2,0.96-2.641s-0.12-7.619.12-9.3c0.24-1.74-.18-3.48-1.92-3.419-1.62.059-2.339-.42-4.739-0.18-0.541.059-1.2,0-1.2-.481A10.406,10.406,0,0,1,20.88,19.2a4.826,4.826,0,0,1,3.059-.719c0.96,0,2.94.239,2.94-2.16L27,6.421c0-2.28-.6-3.06-1.981-2.94a13.74,13.74,0,0,0-3.12,1.08L16.8,7.5c-1.98,1.14-3.361,3.72-3.48,8.88-0.12,4.559-.12,10.8-0.18,15.178-0.06,4.681-1.26,4.92-1.32,6.961,0,0.6,1.2.84,1.859,0.84,0.3,0,1.68-.42,2.46-0.42,0.421,0,.661.119,0.661,0.359,0,0.84-1.5,2.821-3.84,2.821-1.74,0-3.24-.361-5.34-0.361-3.3,0-4.98,1.8-6.72,1.8a0.754,0.754,0,0,1-.9-0.6c0-1.26,1.56-2.4,4.08-3.42,2.76-1.08,5.82-3.9,5.82-6.36,0.06-5.82-3.54-8.46-6.24-8.46-0.42,0-.96.42-1.26,0.42-0.18,0-.24-0.18-0.24-0.6,0-1.14,2.16-2.28,3.06-2.76C6.48,21.12,9.3,21.3,9.36,18.9c0.06-4.44,3.239-10.8,6-12.42l9-5.4A5.438,5.438,0,0,1,27.659,0c1.14,0,3,3.24,3.54,4.56a0.967,0.967,0,0,0,.9.84,5.451,5.451,0,0,0,1.86-.84l6.06-3.06a6.228,6.228,0,0,1,2.82-.9c2.04,0,3.3,3.239,5.879,3.239,1.8,0,3.42-2.1,5.52-2.1,0.12,0,.3.24,0.3,1.019,0,0.3-1.8.961-3.3,2.1" transform="translate(0 -0.001)" style="fill:#914541"/><path d="M104.519,42.3c-8.46,0-17.639-6.96-17.639-16.2,0-9.3,2.46-11.34,3.96-12.84a3.812,3.812,0,0,1,2.1-1.2,0.378,0.378,0,0,1,.42.48c0,1.559-2.459,2.94-2.459,12,0,7.5,5.34,15.54,15.719,15.54,9.54,0,18.359-7.14,18.359-19.62,0-6.96-5.1-14.1-14.878-15.179-1.081-.12-1.5-0.42-1.5-0.84,0-.24,1.259-0.72,2.4-1.38a8.1,8.1,0,0,1,2.94-1.141c3.18,0,14.819,6,14.819,17.22,0,9.84-9.9,23.159-24.239,23.159M98.58,29.52a3.059,3.059,0,0,1-.061-1.2l-0.48-17.94c-0.06-1.2,2.94-2.939,3.6-2.939,0.36,0,.479.36,0.479,0.9l0.061,18.119c0,0.9-3.481,3.061-3.6,3.061" transform="translate(0 -0.001)" style="fill:#914541"/><path d="M190.32,8.221c-2.281,0-3.361-.9-4.5-0.9-1.32,0-1.38.84-1.38,3.84V26.22c0,0.72-.061,1.14-0.481,1.2-0.539.06-3.18,1.379-3.479,1.379a0.566,0.566,0,0,1-.42-0.659V28.02l2.219-18.6c0.3-2.34-3.24-3.959-7.08-3.959-6.779,0-10.919,4.559-11.818,4.559a0.567,0.567,0,0,1-.36-0.659c0-1.92,4.439-8.34,11.88-8.34,2.819,0,10.859,2.759,17.039,2.759,1.08,0,7.619-1.139,8.638-1.139,0.721,0,.9.24,0.9,0.72,0,0.78-2.1,4.86-11.159,4.86M183.3,42.3c-3,0-17.7-2.46-17.459-18.239,0.12-4.32,3-10.86,4.92-10.86,0.3,0,.3.24,0.3,0.48A30.761,30.761,0,0,0,168.6,24.119c-0.119,6.241,6.42,14.46,16.559,14.46,6.781,0,14.22-5.1,14.46-5.1a0.517,0.517,0,0,1,.48.66c0,0.78-7.8,8.16-16.8,8.16" transform="translate(0 -0.001)" style="fill:#914541"/><path d="M250.918,42.3c-8.46,0-17.639-6.96-17.639-16.2,0-9.3,2.46-11.34,3.96-12.84a3.815,3.815,0,0,1,2.1-1.2,0.378,0.378,0,0,1,.42.48c0,1.559-2.461,2.94-2.461,12,0,7.5,5.34,15.54,15.72,15.54,9.54,0,18.359-7.14,18.359-19.62,0-6.96-5.1-14.1-14.879-15.179-1.081-.12-1.5-0.42-1.5-0.84,0-.24,1.26-0.72,2.4-1.38a8.115,8.115,0,0,1,2.939-1.141c3.181,0,14.821,6,14.821,17.22,0,9.84-9.9,23.159-24.24,23.159m-5.94-12.779a3.109,3.109,0,0,1-.06-1.2l-0.479-17.94c-0.061-1.2,2.939-2.939,3.6-2.939,0.359,0,.48.36,0.48,0.9l0.06,18.119c0,0.9-3.48,3.061-3.6,3.061" transform="translate(0 -0.001)" style="fill:#914541"/><path d="M333.658,38.759c-1.859,0-8.159-1.56-10.979,0-5.1,2.82-11.4,3.3-11.4,9.42,0,2.939,3.54,4.26,5.22,4.26,6.84,0,10.92-6.72,18-6.72,3.42,0,7.919,4.68,7.919,7.319a2.728,2.728,0,0,1-2.34,2.46c-1.619,0-2.1-1.62-2.88-2.88-0.6-.96-0.9-1.739-1.019-1.92-0.3-.54-0.3-0.6-0.9-0.6-0.72,0-1.559-.361-2.46-0.361-3.3,0-11.159,4.741-15.779,4.741-4.56,0-8.159-3.72-8.159-7.321a7.419,7.419,0,0,1,5.1-6.9c3.18-1.14,5.34-3.18,5.34-5.159,0-3.78-5.28-6.6-7.08-8.04-0.9-.72-1.26-0.84-1.26-1.681s0.781-.779,1.38-0.779c2.22,0,3.84,2.16,5.58,2.16,1.8,0,1.5-2.76,1.5-3,0-3.66-9.179-8.64-9.179-10.92,0-.54.6-0.66,1.559-0.66,2.1,0,3.84,3.84,6.66,3.84a1.523,1.523,0,0,0,1.2-1.379c0-8.4-2.28-11.16-6.36-11.4-1.08-.059-2.64-0.9-2.64-1.32,0-.959,1.741-1.5,4.98-1.5a7.865,7.865,0,0,1,7.68,7.8v25.2c0,1.98,4.259,3.72,10.319,3.72,5.34,0,10.98-6.9,10.98-16.02,0-13.5-5.16-16.678-12.6-17.938a0.559,0.559,0,0,1-.6-0.421c0-1.079,2.521-1.68,4.2-1.68,10.62,0,13.379,11.821,13.379,19.321,0,15.058-9.359,18.358-15.359,18.358" transform="translate(0 -0.001)" style="fill:#914541"/><path d="M405.117,26.459a1.068,1.068,0,0,1-1.32.84l-9.359-.539a3.61,3.61,0,0,0-3.6,3.6,3.524,3.524,0,0,0,1.919,3.179l7.8,3.78a1.463,1.463,0,0,0,.72.24,0.916,0.916,0,0,0,.6-0.24l1.559-1.2a1,1,0,0,1,.721-0.3,1.05,1.05,0,0,1,1.019,1.019,1.024,1.024,0,0,1-.42.781l-4.74,3.359a1.026,1.026,0,0,1-1.319,0l-9.96-6.359a2.794,2.794,0,0,0-2.28,2.7c0,1.44.84,1.74,0.84,3.24a2.22,2.22,0,1,1-4.44,0,8.636,8.636,0,0,1,1.561-4.859L399,15a2.316,2.316,0,0,0,.54-1.32,1.869,1.869,0,0,0-1.861-1.859,5.79,5.79,0,0,0-3.839,1.92,1.358,1.358,0,0,1-.96.479,1.588,1.588,0,0,1-1.56-1.559c0-.96,2.76-3.96,7.56-3.96,1.62,0,5.639.24,5.639,3.179-0.059,2.4-7.019,8.76-7.08,10.5,0,0.18.061,0.3,0.721,0.3l6.239,0.18c0.9,0,.9,1.2.9,1.381Zm13.2,12.6c-2.34,1.86-4.26,3.24-5.64,3.24-2.04,0-3.12-2.58-3.12-7.679v-19.8c0-6.12-4.38-10.741-10.439-10.741a26.431,26.431,0,0,0-6.72.721c-1.56.48-2.641,1.2-2.641,0.6a1.117,1.117,0,0,1,.661-0.96,17.348,17.348,0,0,1,9.6-2.941c5.7,0,9.84,3.961,11.64,3.961,1.5,0,4.559-4.14,5.76-4.14a0.889,0.889,0,0,1,.78,1.019c0.059,1.8-4.38,2.34-4.38,6.24l0.06,26.28c0,0.42.06,2.76,1.26,2.76,1.26,0,4.32-3.121,5.4-3.121a1.156,1.156,0,0,1,1.32.96c0,0.42-3.3,3.42-3.54,3.6" transform="translate(0 -0.001)" style="fill:#914541"/><path d="M478.017,42.839a2.227,2.227,0,0,1-.84-0.3,98.665,98.665,0,0,0-12.48-5.281,41.6,41.6,0,0,0-5.7-1.8c-2.34,0-3.54,1.38-3.54,1.981,0,3.479,3.12,5.279,5.339,5.819,0.241,0.06.18,0.241,0.18,0.48,0,0.421-.479.841-1.38,0.841-2.1,0-6.42-3.661-6.42-6.42,0-3.48,4.38-4.98,7.021-4.98a19.865,19.865,0,0,1,5.76.779c8.4,2.52,15.539,7.741,15.539,8.1,0,0.66-3,.78-3.48.78M483,34.68c-0.6,0-.781-0.121-0.781-0.78,0-.421.54-0.3,0.54-1.74,0-1.2-3.12-3.66-7.019-3.66l-7.86-.06c-12.24-.12-12.96-4.08-12.96-5.52,0-3.48,1.021-3.66,1.321-3.66,0.059,0,.359.12,0.359,0.78,0,3.541,5.34,6.3,9.78,6.3L477,26.4c2.46,0,9.42.96,9.42,4.5,0,2.46-2.64,3.78-3.42,3.78m5.4,4.8c-0.12,0-.66,0-0.66-0.359a0.605,0.605,0,0,1,.36-0.661c1.68-1.019,4.38-4.859,4.38-5.939,0-9.779-9.84-11.82-12.959-11.939l-7.74-.241c-4.44-.12-10.619-0.36-10.619-6.12,0-6.479,8.639-11.46,12.9-11.46a3.186,3.186,0,0,1,1.86.721,33.382,33.382,0,0,0,7.2,3.54c0.66,0,2.279-2.341,3.12-2.341,0.779,0,.72,0,0.72.361,0,0.6-4.68,5.639-4.981,6.059-2.879-1.26-7.919-4.739-10.859-4.739-4.32,0-6.9,3.42-6.9,5.819,0,3.54,5.4,4.981,13.26,5.76,2.34,0.24,4.8.541,7.26,0.84,6.359,0.78,10.679,4.679,10.679,9.3,0,6.6-5.16,11.4-7.02,11.4" transform="translate(0 -0.001)" style="fill:#914541"/><path d="M551.577,42.9c-11.519,0-18.6-8.639-18.6-14.339,0-13.74,9.9-18.72,9.9-21.179,0-.721-0.84-2.761-2.4-2.761-5.1,0-8.64,5.22-8.879,5.22-0.3,0-.42-0.359-0.42-0.779a10.89,10.89,0,0,1,2.579-5.821,6.248,6.248,0,0,1,3.84-1.5c0.66,0,7.02,2.821,9.24,2.821a1.061,1.061,0,0,1,.9.719c0,0.9-11.1,9.121-11.1,20.339,0,8.4,7.26,15.3,16.2,15.3,1.92,0,4.8-.24,4.739-0.24a0.7,0.7,0,0,1,.84.78c0,1.26-4.5,1.44-6.84,1.44m-3.359-14.4a15.957,15.957,0,0,1-.78,3.6c-0.3.719-1.2,0.84-1.2-.481L546.118,16.2a4.056,4.056,0,0,1,1.86-2.879c0.96-.78,1.74-1.56,1.86-1.56a0.507,0.507,0,0,1,.479.6Zm21.659,11.339c-1.021.96-1.92,1.86-2.46,1.86-1.38,0-3.78-4.019-3.78-7.14l0.12-26.219a1.029,1.029,0,0,0-.66-1.08,2.156,2.156,0,0,0-1.26-.9c-2.04,0-3.48,2.34-4.26,2.34-0.36,0-.42-0.12-0.42-0.479,0-.78.84-1.381,2.52-2.641,1.2-.9,2.88-3.179,3.42-3.179,0.24,0,2.46,1.98,3.3,1.98,0.959,0,3.78-2.7,4.74-2.7,0.3,0,.36.239,0.36,0.54,0,0.72-1.2,1.32-2.221,2.22a4,4,0,0,0-1.319,2.879V34.44c0,1.379.72,3.179,1.74,3.179a14.434,14.434,0,0,0,1.92-.3,0.341,0.341,0,0,1,.36.421,15.575,15.575,0,0,1-2.1,2.1" transform="translate(0 -0.001)" style="fill:#914541"/><path d="M27.42,109.381c0,8.159-3.3,12.839-4.56,12.839-0.3,0-.479-0.18-0.479-0.66,0-.3.239-1.44,0.239-1.98a3.255,3.255,0,0,0-2.7-2.88c-0.06,0-4.379,1.5-4.379.12,0-1.68,1.74-2.28,3.6-2.76s4.619-.179,4.619-2.88a4.683,4.683,0,0,0-4.619-4.559c-1.44,0-4.44.84-4.44-.481,0-.479-0.84-1.739,7.379-1.739,3.78,0,6.36-9.78,6.36-10.08a0.779,0.779,0,0,0-.959-0.72c-1.381,0-2.881,1.62-4.981,1.62-2.64,0-2.879-1.74-6.42-1.74-1.559,0-2.939,1.14-2.939.3A3.18,3.18,0,0,1,16.5,91.2c2.58,0,3.121,1.08,6.6,1.08,4.919,0,4.559-1.14,7.62-1.14,1.5,0,1.739,0,1.379.96-1.5,4.08-4.68,8.88-4.68,17.28M41.52,127.2l-5.58,5.279a1.3,1.3,0,0,1-.84.3,1.15,1.15,0,0,1-.6-0.181c-1.32-.9-5.1-4.8-10.2-4.8-7.561,0-8.82,3.839-9.84,3.839-0.36,0-.42-0.12-0.36-0.3,0.42-.781,5.4-6.12,13.62-6.12,6.058,0,7.379,2.52,9.3,2.52,0.9,0,2.519-1.92,2.7-2.1a1.248,1.248,0,0,1,.96-0.479,1.2,1.2,0,0,1,1.2,1.2,1.183,1.183,0,0,1-.359.84m12.9,1.5c-0.54.54-3.479,3.479-5.1,3.479-3.12,0-4.08-6.3-6.059-9.239-3.9-5.88-6.3-8.46-6.3-9.54,0-1.62,8.52-5.819,8.52-8.579,0-.6-0.781-1.141-1.56-2.04a3.911,3.911,0,0,0-2.041-1.56c-1.739,0-6.3,4.259-6.839,4.259a0.76,0.76,0,0,1-.72-0.6c0-.781,2.1-2.22,4.2-3.84,2.339-1.8,4.679-3.72,6-3.72,0.839,0,1.5,1.14,2.639,2.76,1.261,1.74,2.821,3.54,2.821,4.62,0,0.72-3,2.58-5.4,4.26-1.74,1.2-3.181,1.92-3.181,3.359,0,1.32,4.081,6.18,5.161,8.46,1.679,3.6,2.519,8.52,3.719,8.52a4.069,4.069,0,0,0,2.34-1.08,2.138,2.138,0,0,1,1.561-1.081,1.691,1.691,0,0,1,.659.241,0.7,0.7,0,0,1,.54.48,1.789,1.789,0,0,1-.96.84" transform="translate(0 -0.001)" style="fill:#914541"/><path d="M113.219,92.641c-4.979,5.819-3.42,10.8-3.42,15.839,0,4.02,1.2,10.919,1.2,13.5,0,8.459-5.221,10.919-9.24,10.919-4.86,0-8.459-4.98-13.08-4.98a5.357,5.357,0,0,0-2.159.3,0.309,0.309,0,0,1-.361-0.36c0-.18.481-3.06,4.5-3.06,4.68,0,4.86,6.18,12,6.18a5.425,5.425,0,0,0,5.34-5.82c0-2.519-2.461-8.46-2.461-16.079,0-10.26,3.36-17.939,7.381-17.939a0.8,0.8,0,0,1,.779.54c0.12,0.179.24,0.059-.48,0.96M99.96,105.42l1.44,17.1a1.7,1.7,0,0,1-1.74,1.739,1.868,1.868,0,0,1-1.74-1.739c-0.96-4.68-.72-10.98-6.3-10.98-1.979,0-2.819,1.319-3.84,1.319a0.46,0.46,0,0,1-.479-0.6c0-1.981,4.92-4.14,6.059-4.14a2.6,2.6,0,0,0,2.82-2.28c0.48-2.64,1.74-6.12,2.22-9.06,0.3-1.74-1.74-1.44-2.339-1.44-1.441,0-3.6-.42-4.321,0a7.5,7.5,0,0,1-2.46,1.141c-0.42,0-.54-0.241-0.54-0.72,0-1.2,1.68-4.261,6.241-4.261,2.16,0,3.359.12,5.159,0.12a15.339,15.339,0,0,0,2.7-.54,0.609,0.609,0,0,1,.66.361c-0.3.48-4.08,7.559-3.54,13.979" transform="translate(0 -0.001)" style="fill:#914541"/><path d="M173.219,98.221c-2.281,0-3.36-.9-4.5-0.9-1.321,0-1.38.84-1.38,3.84v15.06c0,0.72-.06,1.14-0.48,1.2-0.541.06-3.181,1.38-3.48,1.38a0.567,0.567,0,0,1-.42-0.66v-0.12l2.219-18.6c0.3-2.34-3.239-3.96-7.079-3.96-6.78,0-10.92,4.561-11.82,4.561a0.57,0.57,0,0,1-.359-0.66c0-1.92,4.439-8.34,11.879-8.34,2.82,0,10.859,2.759,17.039,2.759,1.08,0,7.62-1.139,8.64-1.139,0.72,0,.9.24,0.9,0.72,0,0.78-2.1,4.86-11.159,4.86M166.2,132.3c-3,0-17.7-2.46-17.459-18.239,0.119-4.32,3-10.86,4.919-10.86,0.3,0,.3.241,0.3,0.48a30.731,30.731,0,0,0-2.459,10.439c-0.121,6.241,6.419,14.46,16.558,14.46,6.78,0,14.22-5.1,14.459-5.1a0.517,0.517,0,0,1,.481.659c0,0.78-7.8,8.16-16.8,8.16" transform="translate(0 -0.001)" style="fill:#914541"/><path d="M238.018,116.459a1.07,1.07,0,0,1-1.32.841l-9.36-.54a3.61,3.61,0,0,0-3.6,3.6,3.524,3.524,0,0,0,1.919,3.179l7.8,3.781a1.473,1.473,0,0,0,.72.239,0.921,0.921,0,0,0,.6-0.239l1.559-1.2a0.994,0.994,0,0,1,.721-0.3,1.05,1.05,0,0,1,1.019,1.019,1.024,1.024,0,0,1-.42.781l-4.74,3.359a1.028,1.028,0,0,1-1.32,0l-9.959-6.359a2.794,2.794,0,0,0-2.279,2.7c0,1.439.839,1.739,0.839,3.239a2.22,2.22,0,1,1-4.44,0,8.642,8.642,0,0,1,1.56-4.859L231.9,105a2.316,2.316,0,0,0,.54-1.32,1.87,1.87,0,0,0-1.861-1.859,5.788,5.788,0,0,0-3.839,1.92,1.356,1.356,0,0,1-.96.479,1.588,1.588,0,0,1-1.56-1.559c0-.96,2.76-3.96,7.56-3.96,1.62,0,5.639.24,5.639,3.179-0.06,2.4-7.019,8.76-7.08,10.5,0,0.18.061,0.3,0.721,0.3l6.239,0.18c0.9,0,.9,1.2.9,1.38Zm13.2,12.6c-2.341,1.86-4.261,3.24-5.64,3.24-2.04,0-3.12-2.58-3.12-7.679v-19.8c0-6.12-4.38-10.741-10.439-10.741a26.426,26.426,0,0,0-6.72.721c-1.56.48-2.641,1.2-2.641,0.6a1.115,1.115,0,0,1,.661-0.96,17.348,17.348,0,0,1,9.6-2.941c5.7,0,9.84,3.96,11.64,3.96,1.5,0,4.559-4.139,5.76-4.139a0.89,0.89,0,0,1,.78,1.02c0.06,1.8-4.38,2.34-4.38,6.239l0.06,26.28c0,0.42.06,2.76,1.259,2.76,1.261,0,4.321-3.121,5.4-3.121a1.157,1.157,0,0,1,1.32.96c0,0.42-3.3,3.42-3.54,3.6" transform="translate(0 -0.001)" style="fill:#914541"/><path d="M336.3,94.861a7.917,7.917,0,0,0-2.76,5.1v25.258c0,1.681-.24,3.84,1.2,3.84,1.081,0,1.14-.54,2.22-0.54a0.638,0.638,0,0,1,.66.78,2.871,2.871,0,0,1-1.32.96,22.694,22.694,0,0,1-4.02,1.981c-0.54,0-3-.66-3-6.42v-26.7a7.342,7.342,0,0,0-1.8-4.68,2.068,2.068,0,0,0-1.62-.72c-0.42,0-1.14.24-4.14,1.619l-5.52,2.581-0.06,7.8c0,0.96.36,2.821,1.86,2.821h4.56c0.54,0,1.2,0,1.2.54a6.726,6.726,0,0,1-1.561,2.1,7.643,7.643,0,0,1-2.339,1.44c-0.24,0-3.12-.48-3.12,1.32l-0.12,10.859a3.837,3.837,0,0,0,1.8,2.941A9,9,0,0,0,322.2,126a1.193,1.193,0,0,1,.54-0.241,0.732,0.732,0,0,1,.781.54,0.542,0.542,0,0,1-.3.6l-7.38,5.039a1.935,1.935,0,0,1-1.08.36,2.2,2.2,0,0,1-1.08-.66c-1.8-1.92-2.64-2.34-2.64-3.359,0-.54.96-1.2,0.96-2.641s-0.12-7.619.12-9.3c0.241-1.74-.179-3.48-1.92-3.419-1.62.059-2.339-.42-4.74-0.181-0.54.06-1.2,0-1.2-.48a10.361,10.361,0,0,1,1.68-3.059A4.815,4.815,0,0,1,309,108.48c0.96,0,2.941.24,2.941-2.159l0.119-9.9c0-2.28-.6-3.06-1.98-2.94a13.74,13.74,0,0,0-3.12,1.08l-5.1,2.94c-1.98,1.14-3.36,3.719-3.48,8.88-0.12,4.559-.12,10.8-0.181,15.179-0.059,4.68-1.259,4.92-1.319,6.959,0,0.6,1.2.841,1.859,0.841,0.3,0,1.681-.42,2.46-0.42,0.42,0,.661.119,0.661,0.359,0,0.84-1.5,2.821-3.84,2.821-1.741,0-3.241-.361-5.34-0.361-3.3,0-4.98,1.8-6.72,1.8a0.754,0.754,0,0,1-.9-0.6c0-1.26,1.56-2.4,4.08-3.42,2.76-1.08,5.82-3.9,5.82-6.36,0.06-5.82-3.54-8.46-6.24-8.46-0.42,0-.96.42-1.26,0.42-0.18,0-.24-0.179-0.24-0.6,0-1.14,2.16-2.28,3.06-2.76,1.26-.659,4.08-0.48,4.14-2.88,0.06-4.439,3.239-10.8,6-12.419l9-5.4a5.437,5.437,0,0,1,3.3-1.079c1.141,0,3,3.239,3.54,4.559a0.967,0.967,0,0,0,.9.84,5.443,5.443,0,0,0,1.86-.84l6.059-3.06a6.236,6.236,0,0,1,2.821-.9c2.04,0,3.3,3.24,5.879,3.24,1.8,0,3.42-2.1,5.52-2.1,0.12,0,.3.24,0.3,1.02,0,0.3-1.8.96-3.3,2.1" transform="translate(0 -0.001)" style="fill:#914541"/><path d="M391.977,132.9c-11.519,0-18.6-8.64-18.6-14.339,0-13.74,9.9-18.72,9.9-21.18,0-.72-0.84-2.76-2.4-2.76-5.1,0-8.64,5.22-8.879,5.22-0.3,0-.42-0.359-0.42-0.779a10.893,10.893,0,0,1,2.579-5.821,6.248,6.248,0,0,1,3.84-1.5c0.66,0,7.02,2.821,9.24,2.821a1.061,1.061,0,0,1,.9.719c0,0.9-11.1,9.121-11.1,20.339,0,8.4,7.26,15.3,16.2,15.3,1.92,0,4.8-.24,4.739-0.24a0.7,0.7,0,0,1,.84.78c0,1.26-4.5,1.44-6.84,1.44m-3.359-14.4a15.942,15.942,0,0,1-.78,3.6c-0.3.719-1.2,0.84-1.2-.481L386.518,106.2a4.055,4.055,0,0,1,1.86-2.88c0.96-.78,1.74-1.56,1.86-1.56a0.507,0.507,0,0,1,.479.6Zm21.659,11.34c-1.021.96-1.92,1.86-2.46,1.86-1.38,0-3.78-4.02-3.78-7.139l0.12-26.22a1.029,1.029,0,0,0-.66-1.08,2.152,2.152,0,0,0-1.26-.9c-2.04,0-3.48,2.34-4.26,2.34-0.36,0-.42-0.12-0.42-0.479,0-.78.84-1.381,2.52-2.641,1.2-.9,2.88-3.179,3.42-3.179,0.24,0,2.46,1.98,3.3,1.98,0.959,0,3.78-2.7,4.74-2.7,0.3,0,.36.24,0.36,0.54,0,0.72-1.2,1.319-2.221,2.22a4,4,0,0,0-1.319,2.879v27.12c0,1.379.72,3.179,1.74,3.179a14.478,14.478,0,0,0,1.92-.3,0.34,0.34,0,0,1,.36.42,15.573,15.573,0,0,1-2.1,2.1" transform="translate(0 -0.001)" style="fill:#914541"/><path d="M467.4,135.179c-0.361,0-4.68-4.62-11.76-4.62-3.78,0-8.22,2.82-8.7,2.82a0.657,0.657,0,0,1-.54-0.66,10.606,10.606,0,0,1,2.759-2.82,12.884,12.884,0,0,1,5.52-1.98c0.72,0,2.64-.36,2.64-1.62,0-2.76-2.28-6.239-4.68-8.279-3.12-2.64-6.6-3.72-6.6-5.34,0-.6.72-1.2,2.1-1.2,3.6,0,6.18,3.719,7.62,3.719,0.42,0,.84-0.059.84-1.679l0.059-8.94c0.061-6.719-5.279-7.26-7.559-7.26-1.739,0-2.04,0-2.04-.66,0-1.559,3.24-2.16,4.92-2.16,1.98,0,9.12,1.441,9.12,11.58v18.24c0,3.359.9,3.54,1.38,3.779,6.059,2.82,5.759,2.88,6.719,2.88,1.621,0,3.96-2.76,4.32-2.76,1.02,0,.72.24,0.72,0.3,0,1.08-6.54,6.66-6.839,6.66m15.9-2.88a2.943,2.943,0,0,1-2.521-2.1c-0.839-2.28-1.2-4.259-2.16-6.36a27.889,27.889,0,0,0-4.139-6.779c-2.159-1.74-3.659-2.1-5.039-2.1-0.3,0-.6.18-0.841,0.18a0.7,0.7,0,0,1-.72-0.481c0-.359,2.64-2.339,3.66-2.88,3.36-1.859,5.82-4.019,5.82-4.739,0-.9-2.04-2.82-3.96-5.22-1.68-2.1-3.36-3.9-4.02-3.9-1.019,0-2.04,1.141-3.239,1.86-0.721,0-.721-0.12-0.721-0.419,0-.84,6-4.92,6.66-4.92,1.02,0,3.42,3.479,5.88,6.42,1.98,2.339,3.659,4.019,3.659,4.5,0,0.839-4.679,4.079-6.119,5.039a2.113,2.113,0,0,0-1.08,1.92c0,1.44,2.34,1.379,4.38,3.839a19.342,19.342,0,0,1,2.939,4.14,30.277,30.277,0,0,1,1.981,6.84c0.239,1.44,1.08,2.221,1.92,2.221,1.2,0,2.279-1.141,2.939-1.141a0.8,0.8,0,0,1,.9.6c0,0.6-4.2,3.479-6.18,3.479" transform="translate(0 -0.001)" style="fill:#914541"/><path d="M544.8,116.459a1.071,1.071,0,0,1-1.321.841l-9.359-.54a3.61,3.61,0,0,0-3.6,3.6,3.524,3.524,0,0,0,1.919,3.179l7.8,3.781a1.473,1.473,0,0,0,.721.239,0.921,0.921,0,0,0,.6-0.239l1.559-1.2a1,1,0,0,1,.72-0.3,1.051,1.051,0,0,1,1.02,1.019,1.024,1.024,0,0,1-.42.781l-4.74,3.359a1.026,1.026,0,0,1-1.319,0l-9.96-6.359a2.794,2.794,0,0,0-2.28,2.7c0,1.439.84,1.739,0.84,3.239a2.22,2.22,0,1,1-4.44,0A8.64,8.64,0,0,1,524.1,125.7L538.677,105a2.315,2.315,0,0,0,.54-1.32,1.869,1.869,0,0,0-1.861-1.859,5.79,5.79,0,0,0-3.839,1.92,1.356,1.356,0,0,1-.96.479,1.588,1.588,0,0,1-1.56-1.559c0-.96,2.76-3.96,7.56-3.96,1.62,0,5.639.24,5.639,3.179-0.059,2.4-7.019,8.76-7.079,10.5,0,0.18.06,0.3,0.72,0.3l6.239,0.18c0.9,0,.9,1.2.9,1.38Zm13.2,12.6c-2.34,1.86-4.26,3.24-5.64,3.24-2.04,0-3.12-2.58-3.12-7.679v-19.8c0-6.12-4.38-10.741-10.439-10.741a26.431,26.431,0,0,0-6.72.721c-1.56.48-2.64,1.2-2.64,0.6a1.114,1.114,0,0,1,.66-0.96,17.348,17.348,0,0,1,9.6-2.941c5.7,0,9.84,3.96,11.64,3.96,1.5,0,4.559-4.139,5.76-4.139a0.89,0.89,0,0,1,.78,1.02c0.059,1.8-4.38,2.34-4.38,6.239l0.06,26.28c0,0.42.06,2.76,1.26,2.76,1.26,0,4.32-3.121,5.4-3.121a1.156,1.156,0,0,1,1.32.96c0,0.42-3.3,3.42-3.54,3.6" transform="translate(0 -0.001)" style="fill:#914541"/></svg>