<svg xmlns="http://www.w3.org/2000/svg" viewBox="0 0 64.332 60.601"><title>chara_wep_1</title><path d="M29.977,38.92a2.644,2.644,0,0,1,.274-1.238,0.5,0.5,0,0,1,.056-0.06,8.7,8.7,0,0,0,1.325-.72,9.4,9.4,0,0,1-1.3-1.289,6.9,6.9,0,1,1,0-11.88,9.4,9.4,0,0,1,1.3-1.289,8.66,8.66,0,0,0-9.94.235,0.546,0.546,0,0,1-.083.024,2.644,2.644,0,0,1-1.209-.382l-0.169-.081a5.164,5.164,0,0,1-2.09-1.82c-0.187-.3-0.327-0.542-0.441-0.756a0.144,0.144,0,0,0-.146-0.085,0.2,0.2,0,0,0-.032.011,0.163,0.163,0,0,0-.071.182c0.049,0.253.095,0.447,0.126,0.579a23.954,23.954,0,0,0,.932,3.175c0.031,0.072.061,0.14,0.09,0.2a0.153,0.153,0,0,0,.132.1l0.026,0a0.133,0.133,0,0,0,.1-0.109,1.049,1.049,0,0,1,.708-0.928l0.045-.009a0.941,0.941,0,0,1,.2-0.012l0.152,0.014a1.627,1.627,0,0,1,.98.522,8.68,8.68,0,0,0,8.459,14.664,1.629,1.629,0,0,1-.04,1.106l-0.064.139a0.939,0.939,0,0,1-.109.164l-0.03.034a1.049,1.049,0,0,1-1.157.149,0.133,0.133,0,0,0-.143.029l-0.016.021a0.152,0.152,0,0,0,.019.164c0.041,0.057.085,0.117,0.132,0.18a23.954,23.954,0,0,0,2.284,2.4c0.1,0.093.244,0.23,0.439,0.4a0.163,0.163,0,0,0,.193.03,0.209,0.209,0,0,0,.025-0.023,0.144,0.144,0,0,0,0-.169c-0.128-.2-0.266-0.446-0.434-0.759a5.162,5.162,0,0,1-.531-2.72ZM18.94,17.517c0.241-.008.519-0.007,0.875,0a5.164,5.164,0,0,1,2.621.9l0.155,0.106a2.644,2.644,0,0,1,.935.856,0.517,0.517,0,0,1,.024.078,8.692,8.692,0,0,0-.039,1.5,9.237,9.237,0,0,1,1.768-.481,6.9,6.9,0,1,1,10.287,5.942,9.239,9.239,0,0,1,.466,1.77A8.656,8.656,0,0,0,40.8,19.452a0.5,0.5,0,0,1,.022-0.069,2.644,2.644,0,0,1,.935-0.856l0.155-.106a5.163,5.163,0,0,1,2.621-.9c0.355-.011.633-0.012,0.875,0a0.144,0.144,0,0,0,.147-0.084,0.2,0.2,0,0,0,.007-0.033,0.163,0.163,0,0,0-.122-0.152c-0.244-.084-0.435-0.142-0.565-0.181a23.962,23.962,0,0,0-3.216-.78l-0.222-.024a0.153,0.153,0,0,0-.152.066l-0.01.024a0.133,0.133,0,0,0,.046.138,1.049,1.049,0,0,1,.45,1.077c0,0.015-.009.029-0.015,0.043a0.944,0.944,0,0,1-.088.177l-0.088.125a1.627,1.627,0,0,1-.942.588,8.679,8.679,0,0,0-16.927,0,1.629,1.629,0,0,1-.938-0.587l-0.088-.125a0.935,0.935,0,0,1-.088-0.177c-0.005-.014-0.01-0.029-0.015-0.043a1.049,1.049,0,0,1,.45-1.077,0.133,0.133,0,0,0,.046-0.138l-0.01-.024a0.153,0.153,0,0,0-.152-0.066l-0.222.024a23.959,23.959,0,0,0-3.216.78c-0.13.039-.321,0.1-0.565,0.181a0.163,0.163,0,0,0-.122.152,0.207,0.207,0,0,0,.007.033A0.144,0.144,0,0,0,18.94,17.517Zm25.449,5.266,0.152-.014a0.941,0.941,0,0,1,.2.012l0.045,0.009a1.049,1.049,0,0,1,.708.928,0.133,0.133,0,0,0,.1.109l0.026,0a0.153,0.153,0,0,0,.132-0.1c0.029-.064.059-0.132,0.09-0.2a23.966,23.966,0,0,0,.932-3.175c0.031-.132.077-0.326,0.126-0.579a0.163,0.163,0,0,0-.071-0.182L46.79,19.58a0.144,0.144,0,0,0-.146.085c-0.113.213-.254,0.453-0.441,0.756a5.163,5.163,0,0,1-2.09,1.82l-0.169.081a2.644,2.644,0,0,1-1.209.382,0.573,0.573,0,0,1-.113-0.033,8.7,8.7,0,0,0-1.249-.768,9.235,9.235,0,0,1-.467,1.773,6.9,6.9,0,1,1-10.3,6c0-.022,0-0.043,0-0.065a9.23,9.23,0,0,1-1.768-.483c-0.011.181-.019,0.364-0.019,0.548a8.694,8.694,0,0,0,5.215,7.958,0.489,0.489,0,0,1,.046.051,2.644,2.644,0,0,1,.274,1.238l0.015,0.187a5.164,5.164,0,0,1-.531,2.72c-0.168.313-.306,0.555-0.434,0.759a0.144,0.144,0,0,0,0,.169,0.209,0.209,0,0,0,.025.023,0.163,0.163,0,0,0,.193-0.03c0.195-.169.34-0.306,0.439-0.4a23.954,23.954,0,0,0,2.284-2.4c0.047-.063.091-0.123,0.132-0.18a0.153,0.153,0,0,0,.019-0.164l-0.016-.021a0.133,0.133,0,0,0-.143-0.029,1.049,1.049,0,0,1-1.157-.149l-0.03-.034a0.944,0.944,0,0,1-.109-0.164l-0.064-.139a1.629,1.629,0,0,1-.04-1.105A8.677,8.677,0,0,0,43.4,23.312,1.625,1.625,0,0,1,44.389,22.783ZM33.861,34.758a8.655,8.655,0,0,0,0-10.169,6.31,6.31,0,0,0-1.3,1.253,6.882,6.882,0,0,1,0,7.664A6.313,6.313,0,0,0,33.861,34.758ZM28.724,26.4a6.857,6.857,0,0,1-2.736-2.926,6.205,6.205,0,0,0-1.735.5,8.6,8.6,0,0,0,8.806,5.084,6.208,6.208,0,0,0-.436-1.75A6.856,6.856,0,0,1,28.724,26.4Zm9.242-3.6a6.206,6.206,0,0,0,.435-1.756,8.683,8.683,0,0,0-8.815,5.088,6.209,6.209,0,0,0,1.736.5,6.9,6.9,0,0,1,6.185-3.849C37.661,22.776,37.814,22.783,37.966,22.793Z" style="fill:#2b4d3f"/><path d="M32.255,60.6a0.512,0.512,0,0,1-.467-0.3c-0.441-.926-1.529-3.236-2.092-4.664a6.607,6.607,0,0,0-2.6-3.4,18.927,18.927,0,0,0-3.115-1.684c-0.451-.208-0.832-0.385-1.069-0.519a51.533,51.533,0,0,1-6.531-5.406A22.656,22.656,0,0,1,9.219,29.512,22.329,22.329,0,0,1,14.3,13.829,25.247,25.247,0,0,1,20.47,8.6l0-.018,0.182-.095c0.093-.049.605-0.332,0.688-0.381l0,0L21.92,7.75a0.656,0.656,0,0,0,.331-0.356,2.511,2.511,0,0,0-.826-1.041L21.1,6.033C20.34,5.273,17.167,1.845,16.6.553L16.54,0.405l0.094-.223A0.406,0.406,0,0,1,16.971,0h0.154l0.17,0.168a13.062,13.062,0,0,0,8.641,5.667,7.084,7.084,0,0,0,1.215.106,6.347,6.347,0,0,0,1.19-.11,1.076,1.076,0,0,1,.192-0.023,0.53,0.53,0,0,1,.508.555A0.49,0.49,0,0,1,28.655,7,16.926,16.926,0,0,0,21.51,9.777a20.922,20.922,0,0,0-5.739,5.195,20.139,20.139,0,0,0-4.006,14.336,19.72,19.72,0,0,0,2.169,7.146,20.135,20.135,0,0,0,4.635,5.819l0.315,0.273c1.814,1.57,3.871,3.35,6.079,4.047,1.888,0.6,3.136,1.114,4.047,1.493a7.175,7.175,0,0,0,3.02.806l0.216,0,0.235,0a7.181,7.181,0,0,0,3.021-.807c0.911-.378,2.159-0.9,4.047-1.492,2.209-.7,4.267-2.479,6.081-4.05l0.313-.27a20.109,20.109,0,0,0,4.636-5.819,19.72,19.72,0,0,0,2.169-7.146A20.141,20.141,0,0,0,48.74,14.972,20.933,20.933,0,0,0,43,9.777,16.926,16.926,0,0,0,35.855,7a0.463,0.463,0,0,1-.4-0.563,0.569,0.569,0,0,1,.517-0.629L36.1,5.819a6.618,6.618,0,0,0,1.26.122,7.084,7.084,0,0,0,1.215-.106A13.062,13.062,0,0,0,47.216.168l0.09-.125L47.54,0a0.406,0.406,0,0,1,.337.182l0.089,0.136-0.061.236c-0.562,1.286-3.734,4.717-4.5,5.478l-0.324.32a2.5,2.5,0,0,0-.826,1.041,0.661,0.661,0,0,0,.333.358c0.206,0.127.614,0.382,0.617,0.385l0.881,0.478,0,0.018a25.281,25.281,0,0,1,6.125,5.2,22.332,22.332,0,0,1,5.081,15.685,22.654,22.654,0,0,1-7.158,15.116A51.533,51.533,0,0,1,41.6,50.035c-0.237.133-.617,0.31-1.067,0.518a18.877,18.877,0,0,0-3.117,1.685,6.606,6.606,0,0,0-2.6,3.4c-0.568,1.439-1.652,3.742-2.093,4.665A0.511,0.511,0,0,1,32.255,60.6Z" style="fill:#2b4d3f"/><path d="M5.035,30.1A8.85,8.85,0,0,1,3.7,29.859c-0.16-.053-0.392-0.142-0.634-0.235A9.581,9.581,0,0,0,2.153,29.3C1.747,29.21.018,28.958,0,28.956V28.362c0.018,0,1.747-.254,2.153-0.344a9.566,9.566,0,0,0,.92-0.326c0.241-.093.471-0.181,0.63-0.234a8.883,8.883,0,0,1,1.333-.244H5.253l0.139,0.223L5.46,27.642,5.277,27.8a2.406,2.406,0,0,0-.575.726,0.282,0.282,0,0,0,0,.266,2.385,2.385,0,0,0,.582.73L5.45,29.654l-0.06.229-0.068.2-0.244.02Z" style="fill:#2b4d3f"/><path d="M59.457,29.728l-0.094-.2-0.076-.185,0.146-.167a1.748,1.748,0,0,0,.331-0.537,0.261,0.261,0,0,0,0-.192,1.729,1.729,0,0,0-.333-0.539l-0.14-.142,0.071-.208,0.077-.186,0.217-.012a4.332,4.332,0,0,1,.887.2,1.875,1.875,0,0,1,.415.271,1.2,1.2,0,0,0,.219.152c0.257,0.072.882,0.271,0.882,0.271l0.9,0.286-0.9.286s-0.625.2-.882,0.271a1.268,1.268,0,0,0-.219.152,1.876,1.876,0,0,1-.415.272,4.387,4.387,0,0,1-.837.2l-0.05,0h-0.2Z" style="fill:#2b4d3f"/><path d="M59.039,30.105l-0.1-.223-0.069-.2,0.179-.16a2.377,2.377,0,0,0,.579-0.728,0.282,0.282,0,0,0,0-.266,2.4,2.4,0,0,0-.582-0.73l-0.164-.13,0.057-.228,0.068-.205,0.246-.02a8.773,8.773,0,0,1,1.373.247c0.16,0.053.39,0.141,0.631,0.234a9.566,9.566,0,0,0,.92.326c0.406,0.089,2.136.341,2.153,0.344v0.594c-0.018,0-1.747.255-2.153,0.344a9.581,9.581,0,0,0-.917.325c-0.242.093-.474,0.182-0.633,0.235A8.938,8.938,0,0,1,59.3,30.1l-0.042,0H59.039Z" style="fill:#2b4d3f"/><path d="M58.767,39.35a4.986,4.986,0,0,1-.809-0.1L57.743,39.2,57.7,38.971l-0.026-.219,0.215-.114a1.763,1.763,0,0,0,.5-0.4,0.275,0.275,0,0,0,.069-0.188,1.764,1.764,0,0,0-.132-0.633l-0.067-.146,0.086-.159,0.088-.142,0.185-.011H58.7L58.782,37a4.391,4.391,0,0,1,.725.476,1.891,1.891,0,0,1,.3.4,1.239,1.239,0,0,0,.158.225c0.221,0.159.749,0.566,0.749,0.566l0.75,0.578-0.945-.04s-0.667-.028-0.937-0.048h0a1.253,1.253,0,0,0-.265.07,1.91,1.91,0,0,1-.491.115h-0.06Z" style="fill:#2b4d3f"/><path d="M55,48.236s-0.618-.254-0.866-0.366a1.267,1.267,0,0,0-.271-0.024,1.886,1.886,0,0,1-.5-0.06,4.394,4.394,0,0,1-.78-0.393l-0.186-.111,0.039-.231,0.047-.213,0.238-.04a1.751,1.751,0,0,0,.615-0.2,0.277,0.277,0,0,0,.128-0.153,1.768,1.768,0,0,0,.093-0.641l-0.011-.13,0.093-.113,0.09-.1,0.149-.008h0.139l0.1,0.11a4.394,4.394,0,0,1,.522.7,1.867,1.867,0,0,1,.146.482,1.2,1.2,0,0,0,.072.265c0.152,0.224.511,0.789,0.511,0.789l0.508,0.8Z" style="fill:#2b4d3f"/><path d="M46.72,54.829s-0.494-.451-0.688-0.641a1.273,1.273,0,0,0-.247-0.115,1.916,1.916,0,0,1-.45-0.228,4.374,4.374,0,0,1-.6-0.637l-0.119-.146,0.078-.189,0.081-.172,0.212-.014a2.171,2.171,0,0,0,.447.05,2.008,2.008,0,0,0,.282-0.02,0.277,0.277,0,0,0,.174-0.1,1.784,1.784,0,0,0,.3-0.569l0.06-.221,0.252-.017h0.2l0.093,0.2a4.131,4.131,0,0,1,.254.841,1.942,1.942,0,0,1-.028.5,1.226,1.226,0,0,0-.023.273c0.066,0.264.211,0.916,0.211,0.916l0.2,0.925Z" style="fill:#2b4d3f"/><path d="M58.3,20.244L58.192,20.1,58.1,19.961l0.063-.17a1.716,1.716,0,0,0,.132-0.623,0.264,0.264,0,0,0-.065-0.181,1.724,1.724,0,0,0-.5-0.392l-0.2-.093,0.014-.239,0.027-.216,0.227-.057a5.04,5.04,0,0,1,.795-0.1,1.884,1.884,0,0,1,.543.115,1.241,1.241,0,0,0,.256.069c0.268-.02.922-0.047,0.922-0.047l0.945-.039-0.75.577s-0.519.4-.735,0.555a1.257,1.257,0,0,0-.152.218,1.881,1.881,0,0,1-.3.4,4.31,4.31,0,0,1-.718.471l-0.067.038-0.086,0H58.3Z" style="fill:#2b4d3f"/><path d="M53.96,11.741l-0.105-.106-0.089-.1,0.007-.149a1.733,1.733,0,0,0-.091-0.621,0.264,0.264,0,0,0-.123-0.147,1.726,1.726,0,0,0-.6-0.2l-0.219-.02-0.066-.233-0.046-.211,0.193-.13a4.427,4.427,0,0,1,.766-0.386,1.886,1.886,0,0,1,.493-0.059,1.24,1.24,0,0,0,.267-0.023C54.587,9.249,55.193,9,55.193,9l0.873-.36-0.5.8s-0.352.554-.5,0.774a1.264,1.264,0,0,0-.067.256,1.893,1.893,0,0,1-.144.476,4.405,4.405,0,0,1-.515.689l-0.09.1-0.149.006H53.96Z" style="fill:#2b4d3f"/><path d="M5.507,39.349a1.908,1.908,0,0,1-.492-0.115,1.288,1.288,0,0,0-.263-0.07c-0.272.02-.939,0.048-0.939,0.048l-0.945.04,0.75-.578s0.528-.407.749-0.566a1.239,1.239,0,0,0,.158-0.225,1.878,1.878,0,0,1,.3-0.4A4.416,4.416,0,0,1,5.559,37l0.067-.037,0.252,0,0.105,0.153,0.088,0.142L6,37.427a1.762,1.762,0,0,0-.128.625,0.275,0.275,0,0,0,.068.188,1.771,1.771,0,0,0,.509.4l0.194,0.093-0.012.238L6.6,39.19l-0.231.056a4.987,4.987,0,0,1-.807.1H5.507Z" style="fill:#2b4d3f"/><path d="M8.968,47.8s0.358-.564.511-0.788a1.21,1.21,0,0,0,.072-0.266A1.894,1.894,0,0,1,9.7,46.263a4.438,4.438,0,0,1,.525-0.7l0.089-.1,0.282-.006L10.7,45.559l0.089,0.1-0.007.149a1.75,1.75,0,0,0,.093.635A0.276,0.276,0,0,0,11,46.6a1.751,1.751,0,0,0,.613.2l0.218,0.02L11.9,47.05l0.048,0.213-0.2.131a4.375,4.375,0,0,1-.779.392,1.874,1.874,0,0,1-.5.06,1.284,1.284,0,0,0-.272.024c-0.247.112-.865,0.366-0.865,0.366L8.46,48.6Z" style="fill:#2b4d3f"/><path d="M17.117,54.542s0.145-.652.211-0.916a1.226,1.226,0,0,0-.023-0.273,1.937,1.937,0,0,1-.028-0.5,4.107,4.107,0,0,1,.252-0.838L17.6,51.82l0.224-.011h0.231l0.081,0.24a1.781,1.781,0,0,0,.3.568,0.28,0.28,0,0,0,.174.1,2.057,2.057,0,0,0,.281.019,1.531,1.531,0,0,0,.365-0.04h0.19l0.185,0.176,0.081,0.172L19.6,53.21a4.418,4.418,0,0,1-.6.634,1.916,1.916,0,0,1-.45.228,1.282,1.282,0,0,0-.248.116c-0.193.19-.687,0.641-0.687,0.641l-0.7.639Z" style="fill:#2b4d3f"/><path d="M5.8,20.244l-0.074-.037A4.341,4.341,0,0,1,5,19.732a1.879,1.879,0,0,1-.3-0.4,1.257,1.257,0,0,0-.152-0.218c-0.217-.156-0.735-0.555-0.735-0.555l-0.75-.577,0.945,0.039s0.654,0.027.921,0.047A1.231,1.231,0,0,0,5.186,18a1.89,1.89,0,0,1,.483-0.113h0.01a4.907,4.907,0,0,1,.845.1l0.213,0.042,0.041,0.231L6.8,18.479,6.595,18.6a1.736,1.736,0,0,0-.5.392,0.264,0.264,0,0,0-.065.181,1.719,1.719,0,0,0,.13.619l0.069,0.15L6.14,20.1l-0.089.137-0.181.01H5.8Z" style="fill:#2b4d3f"/><path d="M10.107,11.741l-0.1-.1a4.4,4.4,0,0,1-.521-0.7,1.884,1.884,0,0,1-.144-0.476,1.236,1.236,0,0,0-.068-0.257c-0.15-.219-0.5-0.773-0.5-0.773l-0.5-.8L9.139,9s0.606,0.25.849,0.359a1.24,1.24,0,0,0,.267.023,1.893,1.893,0,0,1,.492.059,4.427,4.427,0,0,1,.769.388L11.7,9.939l-0.038.229-0.047.211-0.234.041a1.73,1.73,0,0,0-.605.2,0.264,0.264,0,0,0-.123.146,1.749,1.749,0,0,0-.091.627l0.011,0.129-0.182.211-0.15.008H10.107Z" style="fill:#2b4d3f"/></svg>