<svg xmlns="http://www.w3.org/2000/svg" viewBox="0 0 326.13 133.497"><title>chara_name_3</title><path d="M87.9,45.118c-0.361,0-4.68-4.62-11.76-4.62-3.779,0-8.22,2.82-8.7,2.82a0.658,0.658,0,0,1-.541-0.66,10.624,10.624,0,0,1,2.759-2.82,12.878,12.878,0,0,1,5.521-1.98c0.72,0,2.639-.36,2.639-1.62,0-2.76-2.279-6.239-4.679-8.279-3.119-2.64-6.6-3.72-6.6-5.34,0-.6.72-1.2,2.1-1.2,3.6,0,6.179,3.72,7.62,3.72,0.42,0,.84-0.06.84-1.68l0.059-8.94c0.061-6.719-5.279-7.26-7.559-7.26-1.74,0-2.04,0-2.04-.66,0-1.559,3.24-2.159,4.92-2.159,1.98,0,9.12,1.44,9.12,11.579v18.24c0,3.359.9,3.539,1.38,3.779,6.059,2.82,5.759,2.88,6.719,2.88,1.62,0,3.96-2.76,4.32-2.76,1.02,0,.72.24,0.72,0.3,0,1.08-6.54,6.66-6.839,6.66m15.9-2.88a2.943,2.943,0,0,1-2.52-2.1c-0.839-2.28-1.2-4.26-2.16-6.359A27.945,27.945,0,0,0,94.981,27c-2.161-1.74-3.661-2.1-5.041-2.1-0.3,0-.6.18-0.84,0.18a0.7,0.7,0,0,1-.72-0.48c0-.36,2.64-2.34,3.66-2.88,3.361-1.86,5.82-4.02,5.82-4.74,0-.9-2.04-2.82-3.959-5.22-1.681-2.1-3.361-3.9-4.021-3.9-1.02,0-2.04,1.139-3.239,1.859-0.721,0-.721-0.12-0.721-0.419,0-.841,6-4.92,6.66-4.92,1.02,0,3.42,3.48,5.879,6.42,1.981,2.339,3.66,4.019,3.66,4.5,0,0.84-4.679,4.08-6.119,5.04a2.113,2.113,0,0,0-1.08,1.92c0,1.44,2.34,1.38,4.38,3.84a19.3,19.3,0,0,1,2.939,4.139,30.213,30.213,0,0,1,1.98,6.84c0.24,1.44,1.08,2.22,1.92,2.22,1.2,0,2.281-1.14,2.94-1.14a0.8,0.8,0,0,1,.9.6c0,0.6-4.2,3.48-6.18,3.48" transform="translate(0 0)" style="fill:#3f588a"/><path d="M165.6,42.238c-12.48,0-21.18-9.72-21.18-20.159,0-9.42,5.581-17.22,8.76-20.1a1.235,1.235,0,0,1,.84-0.42,0.767,0.767,0,0,1,.6.84,1.137,1.137,0,0,1-.3.48A24.193,24.193,0,0,0,147,20.7a17.87,17.87,0,0,0,18.359,16.8c4.8-.06,10.5-3.42,13.2-6.119a1.842,1.842,0,0,1,1.8-.6,1.128,1.128,0,0,1,.48,1.02c0.06,2.04-6.66,10.44-15.239,10.44m10.8-26.879c-0.72.9-.96,1.26-2.039,1.26h-6.9c-1.8,0-1.621-1.08-1.621-1.68,0-1.62,1.561-3.84,3.241-5.82a4.151,4.151,0,0,0,1.2-2.219,0.775,0.775,0,0,0-.54-0.721c-0.96-.3-4.441-2.04-5.94-2.04a1.9,1.9,0,0,0-1.38.42c-1.5,1.08-1.621,2.58-1.98,4.5l-2.58,14.16a0.9,0.9,0,1,1-1.8,0c0-1.98.12-8.94,0.42-11.7,0.24-2.4.66-3.24,1.8-4.44,1.74-1.8,7.08-6.179,7.5-6.659a0.936,0.936,0,0,1,.48-0.42,1.364,1.364,0,0,1,.6.3,12.772,12.772,0,0,0,6.72,1.98c1.559,0,4.259-1.44,4.439-1.44,0.12,0,.12.121,0.12,0.3,0,2.579-2.46,3.9-3.42,5.1s-2.34,2.22-2.639,2.82a2.752,2.752,0,0,0-.361,1.08c0,0.3-.179,1.26,4.62,1.26,1.26,0,1.321-.3,1.5-0.54,0.48-.72.6-1.08,1.2-1.08a0.515,0.515,0,0,1,.6.6c0,0.72-2.58,4.14-3.24,4.98" transform="translate(0 0)" style="fill:#3f588a"/><path d="M223.2,43.738c-2.7,0-5.579-1.38-8.459-1.38-2.1,0-2.58.9-3.9,0.9a0.579,0.579,0,0,1-.6-0.72c0-1.38,2.819-4.14,6.6-4.14,3.66,0,4.859.12,6.9,0.12,1.8,0,1.8-3.24,1.8-4.379,0-4.38-4.5-5.46-4.68-5.46-0.719,0-1.139.36-1.139-.3a1.278,1.278,0,0,1,1.139-.36c0.84,0,.66.12,1.26,0.12,0.42,0,1.92,0,1.92-1.26,0-2.16-3.119-5.82-5.879-5.82-0.36,0-2.881-.3-2.881-1.08,0-.54,2.521-1.62,2.881-1.62s4.859,1.5,5.22,1.14a1.168,1.168,0,0,0,.359-0.9c0-1.5-2.279-3.3-3.18-3.3-0.36,0-2.519-.18-2.519-0.96a1.854,1.854,0,0,1,1.319-1.26,12.584,12.584,0,0,0,3.481-.96A3.9,3.9,0,0,0,223.2,10.2L223.5,9c0.3-1.139,2.94-2.94,3.6-2.94,0.36,0,.48.181,0.48,1.38l0.36,21.84c0.06,4.259-.24,7.079.48,8.339,2.16,0.18,3.96,0,4.5,1.62-4.86,4.98-7.2,4.5-9.72,4.5m31.379-3.12c-0.9.9-1.5,2.34-2.1,2.34-0.3,0-2.1-1.92-5.219-1.92-2.821,0-5.46,1.62-5.7,1.62-0.479,0-.719-1.44-0.719-3.42,0-.9,10.859-9.779,10.859-21,0-8.4-7.26-13.5-16.2-13.5-1.5,0-4.38.3-4.38-.42,0-1.26,4.859-3.78,6.66-3.78,11.52,0,17.579,9.059,17.579,14.759,0,13.74-9.9,18.719-9.9,21.179,0,0.48.359,1.62,1.079,1.62a1.742,1.742,0,0,0,1.32-.78l1.98-.06c5.52-.18,6.42-3.24,6.9-3.24,0.3,0,.42.36,0.42,0.781a10.9,10.9,0,0,1-2.58,5.819" transform="translate(0 0)" style="fill:#3f588a"/><path d="M22.26,116.4a1.071,1.071,0,0,1-1.321.841l-9.359-.54a3.61,3.61,0,0,0-3.6,3.6,3.523,3.523,0,0,0,1.92,3.179l7.8,3.781a1.472,1.472,0,0,0,.72.239,0.916,0.916,0,0,0,.6-0.239l1.56-1.2a0.994,0.994,0,0,1,.72-0.3,1.051,1.051,0,0,1,1.02,1.019,1.028,1.028,0,0,1-.42.781l-4.74,3.359a1.258,1.258,0,0,1-.66.24,1.258,1.258,0,0,1-.66-0.24l-9.959-6.359a2.794,2.794,0,0,0-2.28,2.7C3.6,128.7,4.44,129,4.44,130.5a2.255,2.255,0,0,1-2.219,2.221A2.256,2.256,0,0,1,0,130.5a8.64,8.64,0,0,1,1.561-4.859l14.58-20.7a2.321,2.321,0,0,0,.539-1.32,1.869,1.869,0,0,0-1.86-1.859,5.791,5.791,0,0,0-3.84,1.92,1.353,1.353,0,0,1-.959.479,1.588,1.588,0,0,1-1.56-1.559c0-.96,2.76-3.96,7.559-3.96,1.621,0,5.64.24,5.64,3.179-0.06,2.4-7.019,8.76-7.08,10.5,0,0.18.061,0.3,0.72,0.3l6.24,0.18c0.9,0,.9,1.2.9,1.38Zm13.2,12.6c-2.34,1.86-4.26,3.24-5.64,3.24-2.04,0-3.12-2.58-3.12-7.679v-19.8c0-6.12-4.379-10.741-10.439-10.741a26.437,26.437,0,0,0-6.72.721c-1.56.48-2.64,1.2-2.64,0.6a1.114,1.114,0,0,1,.661-0.96,17.346,17.346,0,0,1,9.6-2.941c5.7,0,9.84,3.96,11.639,3.96,1.5,0,4.56-4.139,5.76-4.139a0.89,0.89,0,0,1,.781,1.02c0.059,1.8-4.381,2.34-4.381,6.239L31.02,124.8c0,0.42.06,2.76,1.259,2.76,1.26,0,4.321-3.121,5.4-3.121A1.156,1.156,0,0,1,39,125.4c0,0.42-3.3,3.42-3.54,3.6" transform="translate(0 0)" style="fill:#3f588a"/><path d="M120.539,94.8a7.917,7.917,0,0,0-2.76,5.1v25.258c0,1.681-.24,3.84,1.2,3.84,1.081,0,1.141-.54,2.221-0.54a0.638,0.638,0,0,1,.66.78,2.871,2.871,0,0,1-1.32.96,22.694,22.694,0,0,1-4.02,1.981c-0.541,0-3-.66-3-6.42V99.06a7.342,7.342,0,0,0-1.8-4.68,2.066,2.066,0,0,0-1.619-.72c-0.42,0-1.141.24-4.141,1.619l-5.52,2.581-0.06,7.8c0,0.96.361,2.821,1.86,2.821h4.56c0.541,0,1.2,0,1.2.54a6.717,6.717,0,0,1-1.56,2.1,7.655,7.655,0,0,1-2.339,1.44c-0.241,0-3.121-.48-3.121,1.32l-0.12,10.859a3.838,3.838,0,0,0,1.8,2.941,9,9,0,0,0,3.779-1.74,1.193,1.193,0,0,1,.54-0.241,0.732,0.732,0,0,1,.781.54,0.542,0.542,0,0,1-.3.6l-7.379,5.039a1.938,1.938,0,0,1-1.08.36,2.193,2.193,0,0,1-1.08-.66c-1.8-1.92-2.641-2.34-2.641-3.359,0-.54.961-1.2,0.961-2.641s-0.121-7.619.119-9.3c0.241-1.74-.179-3.48-1.92-3.419-1.619.059-2.339-.42-4.739-0.181-0.54.06-1.2,0-1.2-.48a10.384,10.384,0,0,1,1.68-3.059,4.818,4.818,0,0,1,3.06-.721c0.959,0,2.94.24,2.94-2.159l0.12-9.9c0-2.28-.6-3.06-1.98-2.94A13.707,13.707,0,0,0,91.2,94.5l-5.1,2.94c-1.98,1.14-3.36,3.719-3.48,8.88-0.12,4.559-.12,10.8-0.18,15.179-0.059,4.68-1.26,4.92-1.32,6.959,0,0.6,1.2.841,1.86,0.841,0.3,0,1.68-.42,2.46-0.42,0.42,0,.66.119,0.66,0.359,0,0.84-1.5,2.821-3.84,2.821-1.74,0-3.24-.361-5.34-0.361-3.3,0-4.979,1.8-6.719,1.8a0.754,0.754,0,0,1-.9-0.6c0-1.26,1.56-2.4,4.08-3.42,2.76-1.08,5.819-3.9,5.819-6.36,0.06-5.82-3.54-8.46-6.239-8.46-0.42,0-.96.42-1.26,0.42-0.181,0-.24-0.179-0.24-0.6,0-1.14,2.16-2.28,3.059-2.76,1.261-.659,4.081-0.48,4.14-2.88,0.061-4.439,3.24-10.8,6-12.419l9-5.4a5.432,5.432,0,0,1,3.3-1.079c1.14,0,3,3.239,3.54,4.559a0.966,0.966,0,0,0,.9.84,5.455,5.455,0,0,0,1.861-.84l6.059-3.06a6.232,6.232,0,0,1,2.82-.9c2.041,0,3.3,3.24,5.88,3.24,1.8,0,3.419-2.1,5.52-2.1,0.119,0,.3.24,0.3,1.02,0,0.3-1.8.96-3.3,2.1" transform="translate(0 0)" style="fill:#3f588a"/><path d="M178.02,116.4a1.071,1.071,0,0,1-1.321.841l-9.359-.54a3.611,3.611,0,0,0-3.6,3.6,3.525,3.525,0,0,0,1.92,3.179l7.8,3.781a1.469,1.469,0,0,0,.72.239,0.916,0.916,0,0,0,.6-0.239l1.56-1.2a0.994,0.994,0,0,1,.72-0.3,1.05,1.05,0,0,1,1.019,1.019,1.024,1.024,0,0,1-.42.781l-4.739,3.359a1.027,1.027,0,0,1-1.32,0l-9.959-6.359a2.794,2.794,0,0,0-2.28,2.7c0,1.439.839,1.739,0.839,3.239a2.22,2.22,0,1,1-4.44,0,8.64,8.64,0,0,1,1.561-4.859l14.579-20.7a2.309,2.309,0,0,0,.54-1.32,1.869,1.869,0,0,0-1.86-1.859,5.791,5.791,0,0,0-3.84,1.92,1.353,1.353,0,0,1-.959.479,1.589,1.589,0,0,1-1.561-1.559c0-.96,2.761-3.96,7.56-3.96,1.62,0,5.64.24,5.64,3.179-0.06,2.4-7.02,8.76-7.08,10.5,0,0.18.06,0.3,0.72,0.3l6.24,0.18c0.9,0,.9,1.2.9,1.38Zm13.2,12.6c-2.34,1.86-4.26,3.24-5.64,3.24-2.04,0-3.12-2.58-3.12-7.679v-19.8c0-6.12-4.38-10.741-10.439-10.741a26.437,26.437,0,0,0-6.72.721c-1.56.48-2.64,1.2-2.64,0.6a1.114,1.114,0,0,1,.661-0.96,17.343,17.343,0,0,1,9.6-2.941c5.7,0,9.84,3.96,11.64,3.96,1.5,0,4.559-4.139,5.76-4.139a0.889,0.889,0,0,1,.779,1.02c0.06,1.8-4.38,2.34-4.38,6.239l0.061,26.28c0,0.42.059,2.76,1.259,2.76,1.26,0,4.321-3.121,5.4-3.121a1.156,1.156,0,0,1,1.32.96c0,0.42-3.3,3.42-3.54,3.6" transform="translate(0 0)" style="fill:#3f588a"/><path d="M239.76,109.32c0,8.159-3.3,12.839-4.56,12.839-0.3,0-.479-0.18-0.479-0.66,0-.3.239-1.44,0.239-1.98a3.255,3.255,0,0,0-2.7-2.88c-0.061,0-4.38,1.5-4.38.12,0-1.68,1.739-2.28,3.6-2.76s4.62-.179,4.62-2.88a4.684,4.684,0,0,0-4.62-4.559c-1.441,0-4.44.84-4.44-.481,0-.479-0.841-1.739,7.379-1.739,3.78,0,6.36-9.78,6.36-10.08a0.779,0.779,0,0,0-.959-0.72c-1.38,0-2.88,1.62-4.981,1.62-2.64,0-2.88-1.74-6.419-1.74-1.56,0-2.94,1.14-2.94.3a3.18,3.18,0,0,1,3.36-2.58c2.579,0,3.119,1.08,6.6,1.08,4.92,0,4.559-1.14,7.619-1.14,1.5,0,1.74,0,1.38.96-1.5,4.08-4.68,8.88-4.68,17.28m14.1,17.819-5.58,5.279a1.3,1.3,0,0,1-.84.3,1.15,1.15,0,0,1-.6-0.181c-1.32-.9-5.1-4.8-10.2-4.8-7.561,0-8.82,3.839-9.84,3.839-0.36,0-.42-0.12-0.36-0.3,0.42-.781,5.4-6.12,13.619-6.12,6.06,0,7.38,2.52,9.3,2.52,0.9,0,2.52-1.92,2.7-2.1a1.248,1.248,0,0,1,.96-0.479,1.2,1.2,0,0,1,1.2,1.2,1.185,1.185,0,0,1-.36.84m12.9,1.5c-0.54.54-3.479,3.479-5.1,3.479-3.12,0-4.08-6.3-6.059-9.239-3.9-5.88-6.3-8.46-6.3-9.54,0-1.62,8.52-5.819,8.52-8.579,0-.6-0.781-1.141-1.56-2.04a3.913,3.913,0,0,0-2.04-1.56c-1.74,0-6.3,4.259-6.84,4.259a0.76,0.76,0,0,1-.72-0.6c0-.781,2.1-2.22,4.2-3.84,2.339-1.8,4.679-3.72,6-3.72,0.839,0,1.5,1.14,2.639,2.76,1.26,1.74,2.821,3.54,2.821,4.62,0,0.72-3,2.58-5.4,4.26-1.739,1.2-3.18,1.92-3.18,3.359,0,1.32,4.081,6.18,5.161,8.46,1.679,3.6,2.519,8.52,3.719,8.52a4.069,4.069,0,0,0,2.34-1.08,2.138,2.138,0,0,1,1.56-1.081,1.684,1.684,0,0,1,.66.241,0.7,0.7,0,0,1,.54.48,1.786,1.786,0,0,1-.96.84" transform="translate(0 0)" style="fill:#3f588a"/><path d="M325.56,92.58c-4.981,5.819-3.42,10.8-3.42,15.839,0,4.02,1.2,10.919,1.2,13.5,0,8.459-5.22,10.919-9.239,10.919-4.86,0-8.46-4.98-13.079-4.98a5.36,5.36,0,0,0-2.16.3,0.309,0.309,0,0,1-.361-0.36c0-.18.481-3.06,4.5-3.06,4.68,0,4.861,6.18,12,6.18a5.425,5.425,0,0,0,5.34-5.82c0-2.519-2.46-8.46-2.46-16.079,0-10.26,3.359-17.939,7.379-17.939a0.8,0.8,0,0,1,.78.54c0.12,0.179.24,0.059-.479,0.96M312.3,105.359l1.439,17.1A1.7,1.7,0,0,1,312,124.2a1.868,1.868,0,0,1-1.74-1.739c-0.96-4.68-.72-10.98-6.3-10.98-1.979,0-2.819,1.319-3.84,1.319a0.46,0.46,0,0,1-.479-0.6c0-1.981,4.92-4.14,6.059-4.14a2.6,2.6,0,0,0,2.82-2.28c0.48-2.64,1.74-6.12,2.22-9.06,0.3-1.74-1.74-1.44-2.339-1.44-1.441,0-3.6-.42-4.321,0a7.5,7.5,0,0,1-2.46,1.141c-0.42,0-.54-0.241-0.54-0.72,0-1.2,1.68-4.261,6.241-4.261,2.159,0,3.359.12,5.159,0.12a15.321,15.321,0,0,0,2.7-.54,0.609,0.609,0,0,1,.66.361c-0.3.48-4.08,7.559-3.54,13.979" transform="translate(0 0)" style="fill:#3f588a"/></svg>