<svg xmlns="http://www.w3.org/2000/svg" viewBox="0 0 608.395 135.177"><title>chara_name_7</title><path d="M192.417,4.86a7.924,7.924,0,0,0-2.76,5.1V35.219c0,1.68-.239,3.84,1.2,3.84,1.08,0,1.139-.541,2.219-0.541a0.637,0.637,0,0,1,.66.78,2.864,2.864,0,0,1-1.32.96,22.66,22.66,0,0,1-4.02,1.981c-0.539,0-3-.66-3-6.42V9.12a7.347,7.347,0,0,0-1.8-4.68,2.072,2.072,0,0,0-1.621-.721c-0.42,0-1.14.241-4.139,1.621l-5.521,2.581-0.059,7.8c0,0.96.359,2.821,1.859,2.821h4.561c0.539,0,1.2,0,1.2.539a6.7,6.7,0,0,1-1.56,2.1,7.669,7.669,0,0,1-2.339,1.441c-0.241,0-3.121-.481-3.121,1.319l-0.12,10.86a3.839,3.839,0,0,0,1.8,2.94,9.017,9.017,0,0,0,3.78-1.74,1.185,1.185,0,0,1,.54-0.241,0.73,0.73,0,0,1,.78.54,0.541,0.541,0,0,1-.3.6l-7.381,5.039a1.933,1.933,0,0,1-1.08.36,2.2,2.2,0,0,1-1.079-.66c-1.8-1.92-2.64-2.34-2.64-3.36,0-.539.959-1.2,0.959-2.639s-0.119-7.62.121-9.3c0.24-1.74-.18-3.48-1.92-3.42-1.621.06-2.339-.42-4.74-0.18-0.54.06-1.2,0-1.2-.48A10.366,10.366,0,0,1,162.06,19.2a4.812,4.812,0,0,1,3.058-.721c0.961,0,2.941.24,2.941-2.16l0.12-9.9c0-2.281-.6-3.061-1.981-2.941a13.715,13.715,0,0,0-3.119,1.08l-5.1,2.94c-1.98,1.139-3.36,3.719-3.48,8.88-0.119,4.559-.119,10.8-0.18,15.179-0.06,4.68-1.259,4.92-1.32,6.959,0,0.6,1.2.84,1.86,0.84,0.3,0,1.68-.42,2.46-0.42,0.42,0,.66.121,0.66,0.36,0,0.84-1.5,2.82-3.839,2.82-1.741,0-3.241-.36-5.34-0.36-3.3,0-4.981,1.8-6.721,1.8a0.753,0.753,0,0,1-.9-0.6c0-1.261,1.559-2.4,4.08-3.42,2.76-1.08,5.819-3.9,5.819-6.361,0.061-5.819-3.539-8.459-6.239-8.459-0.421,0-.96.42-1.261,0.42-0.18,0-.239-0.179-0.239-0.6,0-1.141,2.159-2.281,3.059-2.76,1.26-.66,4.08-0.481,4.141-2.881,0.06-4.439,3.239-10.8,6-12.419l9-5.4a5.434,5.434,0,0,1,3.3-1.08c1.14,0,3,3.239,3.539,4.559a0.969,0.969,0,0,0,.9.84,5.416,5.416,0,0,0,1.86-.84L181.2,1.5a6.222,6.222,0,0,1,2.821-.9c2.039,0,3.3,3.24,5.878,3.24,1.8,0,3.42-2.1,5.52-2.1,0.121,0,.3.24,0.3,1.02,0,0.3-1.8.959-3.3,2.1" transform="translate(0 -0.001)" style="fill:#b51a38"/><path d="M247.8,42.3c-12.478,0-21.178-9.72-21.178-20.159,0-9.42,5.58-17.219,8.759-20.1a1.239,1.239,0,0,1,.84-0.42,0.768,0.768,0,0,1,.6.84,1.133,1.133,0,0,1-.3.481A24.2,24.2,0,0,0,229.2,20.759a17.871,17.871,0,0,0,18.359,16.8c4.8-.061,10.5-3.42,13.2-6.12a1.842,1.842,0,0,1,1.8-.6,1.125,1.125,0,0,1,.48,1.02c0.06,2.04-6.66,10.44-15.24,10.44m10.8-26.879c-0.721.9-.961,1.26-2.041,1.26h-6.9c-1.8,0-1.621-1.079-1.621-1.68,0-1.62,1.561-3.84,3.241-5.819a4.151,4.151,0,0,0,1.2-2.221,0.776,0.776,0,0,0-.54-0.72c-0.96-.3-4.44-2.04-5.94-2.04a1.9,1.9,0,0,0-1.38.42c-1.5,1.08-1.62,2.58-1.98,4.5l-2.58,14.16a0.9,0.9,0,1,1-1.8,0c0-1.98.12-8.94,0.42-11.7,0.24-2.4.66-3.239,1.8-4.44,1.739-1.8,7.079-6.18,7.5-6.659a0.938,0.938,0,0,1,.479-0.42,1.362,1.362,0,0,1,.6.3,12.77,12.77,0,0,0,6.72,1.981c1.559,0,4.259-1.441,4.439-1.441,0.12,0,.12.121,0.12,0.3,0,2.58-2.46,3.9-3.42,5.1s-2.34,2.221-2.639,2.82a2.751,2.751,0,0,0-.36,1.08c0,0.3-.18,1.26,4.619,1.26,1.26,0,1.321-.3,1.5-0.54,0.481-.72.6-1.079,1.2-1.079a0.515,0.515,0,0,1,.6.6c0,0.719-2.58,4.139-3.239,4.979" transform="translate(0 -0.001)" style="fill:#b51a38"/><path d="M305.039,12.419c0,1.261.66,6.239,0.66,15.239,0,4.26-1.26,5.94-2.28,5.94-0.66,0-.12-0.42-0.12-1.08,0-4.379-4.5-5.459-4.679-5.459-0.72,0-1.14.359-1.14-.3a1.279,1.279,0,0,1,1.14-.36c0.839,0,.659.18,1.259,0.18,0.42,0,1.92-.06,1.92-1.319,0-2.16-1.86-4.2-2.94-4.2-0.36,0-2.52-.18-2.52-0.96a1.853,1.853,0,0,1,1.321-1.26,12.615,12.615,0,0,0,3.479-.96c0.42-.42.24-2.16,0.24-3.779,0-2.881,1.861-4.741,1.861-5.941a2.8,2.8,0,0,0-1.08-1.62c-0.42-.3-0.9-0.18-1.92-0.66a8.821,8.821,0,0,0-2.941-1.2c-3.78,0-2.28,3.9-3.6,3.9a0.882,0.882,0,0,1-1.021-1.08c0-4.859,5.04-5.64,5.221-5.64,2.76,0,4.019,1.08,5.76,1.08,2.579,0,4.319-2.46,5.819-2.46,0.54,0,.66.06,0.66,0.54,0,2.28-5.1,2.94-5.1,11.4m21.179,27.6c-1.38,1.44-2.82,2.82-4.08,2.82-2.58,0-8.879-2.641-15.058-2.641-6.781,0-9.6,1.92-10.321,1.92a0.2,0.2,0,0,1-.24-0.239c0-1.319,6.12-4.319,16.979-4.319a33.334,33.334,0,0,1,10.2,1.919c1.439,0,3.84-3.18,4.2-3.18a0.693,0.693,0,0,1,.84.66c0,0.42-1.26,1.74-2.52,3.06m-4.2-37.979c-0.54,0-5.76,1.381-5.76,6.6,0,4.32.841,5.88,0.841,11.7s-3.96,12.179-5.7,12.179c-1.14,0,1.74-3.9,1.74-10.319,0-3.541-.66-6.78-0.66-11.46,0-7.92,9.539-9.96,10.14-9.96,1.08,0,1.259.361,1.259,0.721,0,0.779-.24.539-1.86,0.539" transform="translate(0 -0.001)" style="fill:#b51a38"/><path d="M385.558,8.219c-2.281,0-3.361-.9-4.5-0.9-1.321,0-1.38.84-1.38,3.84v15.06c0,0.72-.06,1.14-0.481,1.2-0.54.061-3.18,1.381-3.479,1.381a0.567,0.567,0,0,1-.42-0.66v-0.12l2.219-18.6c0.3-2.34-3.239-3.96-7.079-3.96-6.78,0-10.92,4.561-11.82,4.561a0.57,0.57,0,0,1-.359-0.66c0-1.92,4.439-8.34,11.879-8.34,2.82,0,10.86,2.759,17.04,2.759,1.079,0,7.619-1.139,8.639-1.139,0.72,0,.9.239,0.9,0.72,0,0.78-2.1,4.859-11.159,4.859M378.538,42.3c-3,0-17.7-2.46-17.46-18.239,0.12-4.321,3-10.86,4.92-10.86,0.3,0,.3.241,0.3,0.481a30.722,30.722,0,0,0-2.46,10.439c-0.119,6.24,6.42,14.459,16.559,14.459,6.781,0,14.22-5.1,14.46-5.1a0.517,0.517,0,0,1,.48.66c0,0.779-7.8,8.159-16.8,8.159" transform="translate(0 -0.001)" style="fill:#b51a38"/><path d="M451.317,38.758c-1.86,0-8.16-1.56-10.98,0-5.1,2.82-11.4,3.3-11.4,9.42,0,2.939,3.54,4.26,5.22,4.26,6.84,0,10.92-6.72,18-6.72,3.42,0,7.919,4.68,7.919,7.319a2.728,2.728,0,0,1-2.34,2.46c-1.62,0-2.1-1.62-2.88-2.88-0.6-.96-0.9-1.739-1.019-1.92-0.3-.54-0.3-0.6-0.9-0.6-0.72,0-1.559-.361-2.46-0.361-3.3,0-11.159,4.741-15.779,4.741-4.56,0-8.159-3.72-8.159-7.321a7.419,7.419,0,0,1,5.1-6.9c3.18-1.14,5.34-3.18,5.34-5.16,0-3.779-5.28-6.6-7.08-8.039-0.9-.721-1.26-0.84-1.26-1.68s0.781-.78,1.38-0.78c2.22,0,3.84,2.159,5.58,2.159,1.8,0,1.5-2.76,1.5-3,0-3.66-9.179-8.64-9.179-10.92,0-.54.6-0.659,1.559-0.659,2.1,0,3.84,3.84,6.66,3.84a1.525,1.525,0,0,0,1.2-1.381c0-8.4-2.281-11.159-6.361-11.4-1.08-.059-2.639-0.9-2.639-1.319,0-.961,1.74-1.5,4.979-1.5a7.865,7.865,0,0,1,7.68,7.8v25.2c0,1.981,4.259,3.721,10.32,3.721,5.339,0,10.979-6.9,10.979-16.02,0-13.5-5.16-16.679-12.6-17.939a0.559,0.559,0,0,1-.6-0.42c0-1.08,2.521-1.68,4.2-1.68,10.62,0,13.38,11.819,13.38,19.319,0,15.059-9.36,18.359-15.359,18.359" transform="translate(0 -0.001)" style="fill:#b51a38"/><path d="M51.237,94.86a7.922,7.922,0,0,0-2.76,5.1v25.258c0,1.681-.239,3.84,1.2,3.84,1.08,0,1.139-.54,2.219-0.54a0.637,0.637,0,0,1,.66.78,2.871,2.871,0,0,1-1.32.96,22.66,22.66,0,0,1-4.02,1.981c-0.539,0-3-.66-3-6.42V99.12a7.347,7.347,0,0,0-1.8-4.68,2.072,2.072,0,0,0-1.621-.72c-0.42,0-1.14.24-4.139,1.619L31.138,97.92l-0.059,7.8c0,0.96.359,2.821,1.859,2.821H37.5c0.539,0,1.2,0,1.2.54a6.717,6.717,0,0,1-1.56,2.1,7.667,7.667,0,0,1-2.339,1.44c-0.241,0-3.121-.48-3.121,1.32L31.558,124.8a3.837,3.837,0,0,0,1.8,2.941,9,9,0,0,0,3.78-1.74,1.185,1.185,0,0,1,.54-0.241,0.731,0.731,0,0,1,.78.54,0.541,0.541,0,0,1-.3.6l-7.381,5.039a1.933,1.933,0,0,1-1.08.36,2.2,2.2,0,0,1-1.079-.66c-1.8-1.92-2.64-2.34-2.64-3.359,0-.54.959-1.2,0.959-2.641s-0.119-7.619.121-9.3c0.24-1.74-.18-3.48-1.92-3.419-1.621.059-2.339-.42-4.74-0.181-0.54.06-1.2,0-1.2-.48A10.366,10.366,0,0,1,20.88,109.2a4.812,4.812,0,0,1,3.058-.721c0.961,0,2.941.24,2.941-2.159L27,96.42c0-2.28-.6-3.06-1.981-2.94A13.715,13.715,0,0,0,21.9,94.56L16.8,97.5c-1.98,1.14-3.36,3.719-3.48,8.88-0.119,4.559-.119,10.8-0.18,15.179-0.06,4.68-1.259,4.92-1.32,6.959,0,0.6,1.2.841,1.86,0.841,0.3,0,1.68-.42,2.46-0.42,0.42,0,.66.119,0.66,0.359,0,0.84-1.5,2.821-3.839,2.821-1.741,0-3.241-.361-5.34-0.361-3.3,0-4.981,1.8-6.721,1.8a0.753,0.753,0,0,1-.9-0.6c0-1.26,1.559-2.4,4.08-3.42,2.76-1.08,5.819-3.9,5.819-6.36,0.061-5.82-3.539-8.46-6.239-8.46-0.421,0-.96.42-1.261,0.42-0.18,0-.239-0.179-0.239-0.6,0-1.14,2.159-2.28,3.059-2.76,1.26-.659,4.08-0.48,4.141-2.88,0.06-4.439,3.239-10.8,6-12.419l9-5.4A5.44,5.44,0,0,1,27.659,90c1.14,0,3,3.239,3.539,4.559a0.968,0.968,0,0,0,.9.84,5.435,5.435,0,0,0,1.86-.84l6.06-3.06a6.232,6.232,0,0,1,2.821-.9c2.039,0,3.3,3.24,5.878,3.24,1.8,0,3.42-2.1,5.52-2.1,0.121,0,.3.24,0.3,1.02,0,0.3-1.8.96-3.3,2.1" transform="translate(0 -0.001)" style="fill:#b51a38"/><path d="M103.319,132.3c-12.48,0-21.18-9.72-21.18-20.159,0-9.42,5.581-17.22,8.76-20.1a1.239,1.239,0,0,1,.84-0.42,0.768,0.768,0,0,1,.6.841,1.143,1.143,0,0,1-.3.48,24.193,24.193,0,0,0-7.32,17.819,17.87,17.87,0,0,0,18.359,16.8c4.8-.06,10.5-3.42,13.2-6.119a1.84,1.84,0,0,1,1.8-.6,1.129,1.129,0,0,1,.479,1.02c0.06,2.04-6.66,10.44-15.239,10.44m10.8-26.879c-0.72.9-.959,1.26-2.039,1.26h-6.9c-1.8,0-1.62-1.08-1.62-1.68,0-1.62,1.56-3.84,3.24-5.82a4.154,4.154,0,0,0,1.2-2.22,0.776,0.776,0,0,0-.54-0.72c-0.96-.3-4.441-2.04-5.941-2.04a1.9,1.9,0,0,0-1.379.42c-1.5,1.08-1.621,2.58-1.98,4.5l-2.58,14.159a0.9,0.9,0,1,1-1.8,0c0-1.979.12-8.939,0.42-11.7,0.24-2.4.66-3.24,1.8-4.439,1.74-1.8,7.08-6.18,7.5-6.66a0.931,0.931,0,0,1,.48-0.42,1.369,1.369,0,0,1,.6.3,12.774,12.774,0,0,0,6.72,1.981c1.559,0,4.259-1.441,4.439-1.441,0.12,0,.12.121,0.12,0.3,0,2.58-2.46,3.9-3.42,5.1s-2.34,2.22-2.639,2.819a2.757,2.757,0,0,0-.361,1.08c0,0.3-.179,1.26,4.62,1.26,1.26,0,1.32-.3,1.5-0.54,0.48-.72.6-1.08,1.2-1.08a0.515,0.515,0,0,1,.6.6c0,0.719-2.58,4.139-3.24,4.979" transform="translate(0 -0.001)" style="fill:#b51a38"/><path d="M159.359,102.419c0,1.26.66,6.24,0.66,15.239,0,4.26-1.26,5.941-2.28,5.941-0.66,0-.12-0.42-0.12-1.081,0-4.379-4.5-5.459-4.679-5.459-0.72,0-1.14.36-1.14-.3a1.276,1.276,0,0,1,1.14-.361c0.839,0,.659.18,1.259,0.18,0.42,0,1.92-.06,1.92-1.319,0-2.16-1.86-4.2-2.94-4.2-0.36,0-2.52-.18-2.52-0.96a1.853,1.853,0,0,1,1.321-1.26,12.58,12.58,0,0,0,3.479-.96c0.42-.42.24-2.16,0.24-3.78,0-2.88,1.861-4.74,1.861-5.94a2.8,2.8,0,0,0-1.08-1.62c-0.42-.3-0.9-0.18-1.92-0.66a8.821,8.821,0,0,0-2.941-1.2c-3.78,0-2.28,3.9-3.6,3.9A0.882,0.882,0,0,1,147,97.5c0-4.859,5.04-5.64,5.221-5.64,2.76,0,4.019,1.08,5.76,1.08,2.58,0,4.319-2.46,5.819-2.46,0.54,0,.66.061,0.66,0.54,0,2.281-5.1,2.94-5.1,11.4m21.179,27.6c-1.38,1.44-2.82,2.82-4.08,2.82-2.58,0-8.879-2.64-15.058-2.64-6.781,0-9.6,1.92-10.321,1.92a0.2,0.2,0,0,1-.24-0.24c0-1.32,6.12-4.32,16.98-4.32a33.331,33.331,0,0,1,10.2,1.919c1.439,0,3.84-3.179,4.2-3.179a0.693,0.693,0,0,1,.84.66c0,0.42-1.26,1.74-2.52,3.06m-4.2-37.979c-0.541,0-5.76,1.38-5.76,6.6,0,4.319.84,5.878,0.84,11.7s-3.961,12.179-5.7,12.179c-1.14,0,1.739-3.9,1.739-10.32,0-3.539-.659-6.779-0.659-11.459,0-7.92,9.54-9.96,10.14-9.96,1.08,0,1.259.361,1.259,0.72,0,0.78-.24.54-1.859,0.54" transform="translate(0 -0.001)" style="fill:#b51a38"/><path d="M232.438,135.178c-0.361,0-4.68-4.62-11.759-4.62-3.78,0-8.221,2.82-8.7,2.82a0.657,0.657,0,0,1-.54-0.66,10.606,10.606,0,0,1,2.759-2.82,12.893,12.893,0,0,1,5.52-1.98c0.721,0,2.64-.36,2.64-1.62,0-2.76-2.28-6.239-4.679-8.279-3.12-2.64-6.6-3.72-6.6-5.34,0-.6.719-1.2,2.1-1.2,3.6,0,6.179,3.719,7.619,3.719,0.42,0,.84-0.059.84-1.679l0.06-8.94c0.061-6.719-5.279-7.26-7.559-7.26-1.74,0-2.04,0-2.04-.66,0-1.559,3.24-2.16,4.92-2.16,1.979,0,9.119,1.441,9.119,11.58v18.24c0,3.359.9,3.54,1.381,3.779,6.058,2.82,5.759,2.88,6.718,2.88,1.621,0,3.96-2.76,4.321-2.76,1.019,0,.719.24,0.719,0.3,0,1.08-6.54,6.66-6.839,6.66m15.9-2.88a2.941,2.941,0,0,1-2.52-2.1c-0.839-2.28-1.2-4.259-2.16-6.36a27.921,27.921,0,0,0-4.139-6.779c-2.16-1.74-3.66-2.1-5.04-2.1-0.3,0-.6.18-0.84,0.18a0.7,0.7,0,0,1-.721-0.481c0-.359,2.641-2.339,3.66-2.88,3.361-1.859,5.821-4.019,5.821-4.739,0-.9-2.04-2.82-3.96-5.22-1.681-2.1-3.361-3.9-4.021-3.9-1.019,0-2.039,1.141-3.239,1.86-0.72,0-.72-0.12-0.72-0.419,0-.84,6-4.92,6.66-4.92,1.02,0,3.419,3.479,5.879,6.42,1.981,2.339,3.66,4.019,3.66,4.5,0,0.839-4.679,4.079-6.12,5.039a2.112,2.112,0,0,0-1.079,1.92c0,1.44,2.34,1.379,4.379,3.839a19.346,19.346,0,0,1,2.94,4.14,30.28,30.28,0,0,1,1.98,6.84c0.24,1.44,1.08,2.221,1.92,2.221,1.2,0,2.28-1.141,2.939-1.141a0.8,0.8,0,0,1,.9.6c0,0.6-4.2,3.479-6.18,3.479" transform="translate(0 -0.001)" style="fill:#b51a38"/><path d="M298.437,132.3c-8.46,0-17.639-6.96-17.639-16.2,0-9.3,2.46-11.34,3.96-12.84a3.815,3.815,0,0,1,2.1-1.2,0.378,0.378,0,0,1,.42.48c0,1.559-2.461,2.939-2.461,12,0,7.5,5.34,15.54,15.72,15.54,9.54,0,18.359-7.14,18.359-19.62,0-6.96-5.1-14.1-14.879-15.179-1.081-.12-1.5-0.42-1.5-0.84,0-.24,1.26-0.72,2.4-1.38a8.1,8.1,0,0,1,2.94-1.14c3.18,0,14.82,6,14.82,17.219,0,9.84-9.9,23.159-24.24,23.159m-5.94-12.779a3.106,3.106,0,0,1-.06-1.2l-0.479-17.94c-0.061-1.2,2.939-2.939,3.6-2.939,0.359,0,.48.359,0.48,0.9l0.06,18.119c0,0.9-3.48,3.061-3.6,3.061" transform="translate(0 -0.001)" style="fill:#b51a38"/><path d="M400.2,94.86a7.917,7.917,0,0,0-2.76,5.1v25.258c0,1.681-.24,3.84,1.2,3.84,1.081,0,1.141-.54,2.221-0.54a0.637,0.637,0,0,1,.659.78,2.866,2.866,0,0,1-1.319.96,22.692,22.692,0,0,1-4.021,1.981c-0.54,0-3-.66-3-6.42V99.12a7.342,7.342,0,0,0-1.8-4.68,2.067,2.067,0,0,0-1.619-.72c-0.42,0-1.141.24-4.141,1.619L380.1,97.92l-0.059,7.8c0,0.96.359,2.821,1.859,2.821h4.56c0.54,0,1.2,0,1.2.54a6.717,6.717,0,0,1-1.56,2.1,7.668,7.668,0,0,1-2.339,1.44c-0.241,0-3.121-.48-3.121,1.32l-0.12,10.859a3.84,3.84,0,0,0,1.8,2.941A9,9,0,0,0,386.1,126a1.189,1.189,0,0,1,.54-0.241,0.732,0.732,0,0,1,.781.54,0.542,0.542,0,0,1-.3.6l-7.379,5.039a1.938,1.938,0,0,1-1.08.36,2.2,2.2,0,0,1-1.08-.66c-1.8-1.92-2.641-2.34-2.641-3.359,0-.54.961-1.2,0.961-2.641s-0.12-7.619.119-9.3c0.241-1.74-.179-3.48-1.92-3.419-1.619.059-2.339-.42-4.739-0.181-0.54.06-1.2,0-1.2-.48a10.384,10.384,0,0,1,1.68-3.059,4.818,4.818,0,0,1,3.06-.721c0.96,0,2.94.24,2.94-2.159l0.12-9.9c0-2.28-.6-3.06-1.98-2.94a13.707,13.707,0,0,0-3.12,1.08l-5.1,2.94c-1.981,1.14-3.361,3.719-3.481,8.88-0.12,4.559-.12,10.8-0.18,15.179-0.06,4.68-1.259,4.92-1.32,6.959,0,0.6,1.2.841,1.86,0.841,0.3,0,1.68-.42,2.46-0.42,0.42,0,.661.119,0.661,0.359,0,0.84-1.5,2.821-3.84,2.821-1.741,0-3.241-.361-5.34-0.361-3.3,0-4.981,1.8-6.72,1.8a0.754,0.754,0,0,1-.9-0.6c0-1.26,1.559-2.4,4.08-3.42,2.76-1.08,5.819-3.9,5.819-6.36,0.061-5.82-3.54-8.46-6.239-8.46-0.42,0-.96.42-1.26,0.42-0.181,0-.24-0.179-0.24-0.6,0-1.14,2.16-2.28,3.059-2.76,1.26-.659,4.081-0.48,4.14-2.88,0.061-4.439,3.24-10.8,6-12.419l9-5.4a5.432,5.432,0,0,1,3.3-1.079c1.14,0,3,3.239,3.54,4.559a0.965,0.965,0,0,0,.9.84,5.454,5.454,0,0,0,1.861-.84l6.059-3.06a6.228,6.228,0,0,1,2.82-.9c2.04,0,3.3,3.24,5.879,3.24,1.8,0,3.42-2.1,5.521-2.1,0.119,0,.3.24,0.3,1.02,0,0.3-1.8.96-3.3,2.1" transform="translate(0 -0.001)" style="fill:#b51a38"/><path d="M454.376,116.458a1.07,1.07,0,0,1-1.32.841l-9.359-.54a3.61,3.61,0,0,0-3.6,3.6,3.524,3.524,0,0,0,1.919,3.179l7.8,3.781a1.472,1.472,0,0,0,.72.239,0.921,0.921,0,0,0,.6-0.239l1.559-1.2a1,1,0,0,1,.721-0.3,1.05,1.05,0,0,1,1.019,1.019,1.024,1.024,0,0,1-.42.781l-4.74,3.359a1.026,1.026,0,0,1-1.319,0L438,124.619a2.794,2.794,0,0,0-2.28,2.7c0,1.439.84,1.739,0.84,3.239a2.22,2.22,0,1,1-4.44,0,8.633,8.633,0,0,1,1.561-4.859L448.257,105a2.316,2.316,0,0,0,.54-1.32,1.869,1.869,0,0,0-1.861-1.859,5.79,5.79,0,0,0-3.839,1.92,1.358,1.358,0,0,1-.96.479,1.588,1.588,0,0,1-1.56-1.559c0-.96,2.76-3.96,7.56-3.96,1.62,0,5.639.24,5.639,3.179-0.059,2.4-7.019,8.76-7.08,10.5,0,0.18.061,0.3,0.721,0.3l6.239,0.18c0.9,0,.9,1.2.9,1.38Zm13.2,12.6c-2.34,1.86-4.26,3.24-5.64,3.24-2.04,0-3.12-2.58-3.12-7.679v-19.8c0-6.12-4.38-10.741-10.439-10.741a26.431,26.431,0,0,0-6.72.721c-1.56.48-2.641,1.2-2.641,0.6a1.115,1.115,0,0,1,.661-0.96,17.348,17.348,0,0,1,9.6-2.941c5.7,0,9.84,3.96,11.64,3.96,1.5,0,4.559-4.139,5.76-4.139a0.89,0.89,0,0,1,.78,1.02c0.059,1.8-4.38,2.34-4.38,6.239l0.06,26.28c0,0.42.06,2.76,1.26,2.76,1.26,0,4.32-3.121,5.4-3.121a1.156,1.156,0,0,1,1.32.96c0,0.42-3.3,3.42-3.54,3.6" transform="translate(0 -0.001)" style="fill:#b51a38"/><path d="M522.057,135.178c-0.361,0-4.68-4.62-11.76-4.62-3.78,0-8.22,2.82-8.7,2.82a0.658,0.658,0,0,1-.539-0.66,10.606,10.606,0,0,1,2.759-2.82,12.884,12.884,0,0,1,5.52-1.98c0.72,0,2.64-.36,2.64-1.62,0-2.76-2.28-6.239-4.68-8.279-3.12-2.64-6.6-3.72-6.6-5.34,0-.6.72-1.2,2.1-1.2,3.6,0,6.18,3.719,7.62,3.719,0.42,0,.84-0.059.84-1.679l0.059-8.94c0.061-6.719-5.279-7.26-7.559-7.26-1.739,0-2.04,0-2.04-.66,0-1.559,3.24-2.16,4.92-2.16,1.98,0,9.12,1.441,9.12,11.58v18.24c0,3.359.9,3.54,1.38,3.779,6.059,2.82,5.759,2.88,6.719,2.88,1.621,0,3.96-2.76,4.32-2.76,1.02,0,.72.24,0.72,0.3,0,1.08-6.54,6.66-6.839,6.66m15.9-2.88a2.943,2.943,0,0,1-2.521-2.1c-0.839-2.28-1.2-4.259-2.159-6.36a27.913,27.913,0,0,0-4.14-6.779c-2.159-1.74-3.659-2.1-5.039-2.1-0.3,0-.6.18-0.841,0.18a0.7,0.7,0,0,1-.72-0.481c0-.359,2.64-2.339,3.66-2.88,3.36-1.859,5.82-4.019,5.82-4.739,0-.9-2.04-2.82-3.96-5.22-1.68-2.1-3.36-3.9-4.02-3.9-1.019,0-2.04,1.141-3.24,1.86-0.72,0-.72-0.12-0.72-0.419,0-.84,6-4.92,6.66-4.92,1.02,0,3.42,3.479,5.88,6.42,1.98,2.339,3.659,4.019,3.659,4.5,0,0.839-4.679,4.079-6.119,5.039a2.113,2.113,0,0,0-1.08,1.92c0,1.44,2.34,1.379,4.38,3.839a19.342,19.342,0,0,1,2.939,4.14,30.275,30.275,0,0,1,1.981,6.84c0.239,1.44,1.08,2.221,1.92,2.221,1.2,0,2.279-1.141,2.939-1.141a0.8,0.8,0,0,1,.9.6c0,0.6-4.2,3.479-6.18,3.479" transform="translate(0 -0.001)" style="fill:#b51a38"/><path d="M593.156,132.3c-12.48,0-21.18-9.72-21.18-20.159,0-9.42,5.58-17.22,8.76-20.1a1.239,1.239,0,0,1,.84-0.42,0.829,0.829,0,0,1,.6.841,1.149,1.149,0,0,1-.3.48,24.2,24.2,0,0,0-7.32,17.819c0,7.26,7.62,16.8,18.36,16.8,5.219,0,10.559-3.84,13.2-6.119a2.258,2.258,0,0,1,1.74-.66c0.48,0,.54.719,0.54,1.08,0,1.979-6.66,10.439-15.239,10.439m9.119-36a2.7,2.7,0,0,1-1.979.779,5.129,5.129,0,0,1-2.041-.479c-4.139-1.74-5.879-2.46-6.959-2.46a2.1,2.1,0,0,0-1.321.479c-1.5,1.08-1.679,2.58-1.979,4.5l-2.4,14.16a0.967,0.967,0,0,1-.9.9,0.922,0.922,0,0,1-.9-0.9c0-1.98,0-8.94.24-11.339s0.66-3.6,1.8-4.8c1.74-1.8,7.08-6.18,7.5-6.66a0.93,0.93,0,0,1,.479-0.42,1.356,1.356,0,0,1,.6.3,12.767,12.767,0,0,0,6.719,1.98c1.321,0,4.26-1.44,4.44-1.44,0.12,0,.12.12,0.12,0.3,0,2.641-2.34,4.021-3.42,5.1" transform="translate(0 -0.001)" style="fill:#b51a38"/></svg>