<svg xmlns="http://www.w3.org/2000/svg" viewBox="0 0 33.417 37.522"><title>chara_wep_0</title><path d="M24.365,14l-0.61.09-0.247.2,0,0.891-0.192.893-0.191.722-0.232.713-0.36.656-0.373.651-0.437.617-0.622.434-0.532.489-0.637.34-0.65.323-0.341.017-0.863.248-0.868.182-0.5.034-0.5.048-0.871-.263-0.886-.171-0.28-.2L13.479,20.7l-0.624-.363L12.291,19.9l-0.515-.541-0.537-.526L10.821,18.2l-0.252-.712-0.387-.658-0.074-.758-0.1-.9,0.009-.912-0.362-.126-0.6-.118-0.612-.03-0.612.091-0.614.083L6.8,14.356l0.023,0.1L6.748,15.2,6.861,15.92,7,16.635,7.03,17.714,7.1,18.254l0.177,0.534,0.258,0.689L7.655,20.2l0.158,0.716L8.074,21.6l0.341,0.652L8.58,22.974l0.537,0.767,0.448,0.8,0.458,0.8,0.608,0.873L11.057,26.9l0.5,0.637,0.552,0.6,0.626,0.416,0.473,0.574,0.5,0.427,0.466,0.482L14.717,30.5l0.815,0.567,0.675,0.09,1.005,0.126,0.663-.238,0.741-.649,0.6-.388,0.575-.349,0.409-.539,0.59-.458,0.5-.546,0.5-.642,0.593-.555,0.477-.658,0.538-.918,0.485-.785,0.478-.783,0.423-.82,0.29-.673,0.232-.693,0.238-.687,0.277-.678,0.1-.733,0.118-.721,0.131-.541L26.3,17.7l0.13-1.061,0.124-.715-0.03-.732,0.068-.729,0.065-.14-0.473-.1L25.6,14l-0.624-.054ZM3.943,0.966L3.2,1.009l-0.738.1L1.718,1.2l-0.742.089L0.24,1.431,0.012,2.505,0.063,3.312l0.182,0.8L0.312,4.918,0.28,5.731l-0.006.812,0.165,0.8L0.5,8.152,0.48,8.964l0.2,0.8-0.052.818,0.04,0.807L0.712,12.2l0.052,0.814,0.2,0.805-0.055.825,0.141,0.812,0.116,0.808,0.055,0.811,0.02,0.815L1.268,18.7l0.083,0.809,0.055,0.814L1.5,21.132l-0.007.812L1.54,22.751l0.211,0.757,0.068,0.773,0.2,0.749L2.33,25.739l0.592,0.533L3.45,26.857l0.568,0.552,0.5,0.618L5.1,28.574l0.572,0.547,0.668,0.448L6.818,30.2l0.57,0.55,0.658,0.461,0.5,0.628,0.582,0.545,0.658,0.463,0.49,0.639,0.615,0.5,0.575,0.551,0.639,0.477,0.484,0.64,0.672,0.42,0.6,0.437,0.668,0.351,0.726,0.221,0.712,0.263,0.735,0.172,0.751-.14,0.7-.3,0.68-.327,0.721-.243,0.679-.335,0.557-.57,0.576-.539,0.522-.6,0.649-.466,0.575-.545,0.577-.541,0.581-.54,0.513-.6,0.669-.446,0.476-.652,0.61-.514,0.552-.577,0.628-.5,0.582-.541,0.6-.524,0.507-.619,0.557-.563,0.634-.484,0.417-.668,0.4-.662,0.122-.768,0.2-.748,0.123-.768,0.106-.806,0.009-.812,0.1-.8,0.008-.81,0.149-.8-0.1-.82,0.067-.808,0.156-.8,0.1-.8L32.4,14.668l0.183-.8,0-.815-0.02-.82,0.1-.814,0.116-.812V9.793l0.116-.808-0.006-.818,0.046-.813,0.211-.8-0.021-.815,0.061-.812,0.034-.816L33.246,3.3l0.183-.788-0.242-1.1-0.74-.138-0.741-.083-0.747-.046-0.736-.139-0.745-.05-0.109-.023-0.136.838L29.274,2.63l0.047,0.857-0.184.839-0.182,1.1-0.024.761,0.034,0.764-0.133.842-0.1.848,0.02,0.255,0.091,0.564-0.1.377,0.188,0.758,0.019,0.783-0.024.789,0.044,0.223-0.033.928-0.036.934-0.048.929L28.949,16l-0.111.8-0.055.81-0.2.6-0.158.6-0.107.574,0,0.629-0.338.759-0.251.778-0.207.8-0.392.724-0.44.692-0.317.76-0.531.626-0.415.706-0.377.734-0.658.843-0.442.589-0.449.585-0.508.531-0.558.477-0.513.423-0.485.456-0.563.575-0.615.514-0.666.444-0.441.442-0.5.372-0.675.3-0.731.1-1.069.035-0.714-.2-0.69-.238-0.507-.364-0.454-.423-0.667-.442-0.554-.588-0.579-.553-0.488-.455-0.475-.466-0.649-.38-0.516-.526-0.418-.614-0.421-.6-0.621-.868-0.434-.7L7.505,25.2l-0.481-.665-0.307-.767-0.446-.688-0.324-.751L5.6,21.591l-0.168-.809-0.19-.8L5.052,19.4,4.9,18.836l-0.168-.6L4.763,17.6l-0.2-.788L4.6,15.99,4.49,15.181l0-.93,0.033-.932,0.053-.93L4.5,12.164l0.012-.788,0.12-.78L4.519,9.828,4.645,9.46l0.006-.567L4.642,8.64,4.5,7.8l0.023-.852,0.008-.762L4.388,5.432,4.159,4.347,4.105,3.488,4.1,2.636,4.064,1.781V0.93Zm11.9,15.871L15.2,16.245l-0.439-.7-0.219-.808,0.082-.864,0.545-.677L15.9,12.78l0.81-.2,0.822,0.17,0.7,0.46,0.5,0.684,0.114,0.84-0.112.842-0.463.727-0.756.392-0.812.234ZM14.4,0.148l-0.771.05-0.779-.033-0.765.185L11.3,0.289l-0.777.03L9.744,0.36,8.965,0.4,8.2,0.592,7.419,0.527l-0.75.12L6.748,1.378,6.757,2.126l-0.032.752L6.7,3.628,6.731,4.377V5.124L6.7,6.244,6.8,6.809,6.687,8,6.841,8.585V9.232L6.8,9.88l0.041,1.135,0.123,0.126,0.475,0.344,1.1,0.464,1.1-.013,0.085,0.047,0.84-.11,0.2-.215,0.474-.68,0.543-.62,0.562-.638L13.123,9.4l0.757-.347,0.613,0.084L14.923,9.6l-0.427.945-0.55.495-0.6.425-0.407.619-0.261.689-0.323.645-0.154.708,0.016,0.717,0.026,0.172-0.015.188,0.022,0.381,0.184,0.7,0.325,0.645,0.394,0.6,0.445,0.575L14.226,18.5l0.641,0.345,0.65,0.3,0.69,0.19,1-.033,0.711-.1,0.634-.359,0.635-.352,0.616-.405,0.442-.574,0.474-.552,0.3-.665,0.184-.707,0.078-.373-0.147-.2,0.018-.173,0.059-.713-0.131-.714-0.283-.667-0.322-.66-0.466-.565-0.557-.466-0.541-.5L18.48,9.6l0.472-.412,0.623-.224L20.3,9.392,21,9.84l0.677,0.483,0.582,0.6,0.49,0.687,0.064,0.38,0.89-.025,0.084,0.1,1.076-.2,1.1-.418,0.51-.285,0.222-.147L26.616,9.88l0-.647,0.1-.647L26.571,8l0.115-1.188,0.02-.568,0.025-1.119-0.1-.748,0.085-.744,0.071-.748-0.047-.751-0.061-.751L26.7,0.676l-0.71-.038-0.774-.051-0.765-.093-0.772-.049-0.768-.113L22.14,0.293l-0.776-.05-0.775-.052L19.81,0.157,19.032,0.1,18.26,0.036l-0.781.079L16.71,0.092l-0.773-.066L15.159,0Z" transform="translate(-0.012 0)" style="fill:#2b4d3f"/></svg>