<svg xmlns="http://www.w3.org/2000/svg" viewBox="0 0 439.974 560.519"><title>chara_wep_7</title><path d="M188.074,536.5a0.516,0.516,0,0,0-.459.756,38.2,38.2,0,0,0,11.309,13.23c0.886,0.613,3.421,2.22,5.322,3.391a1.542,1.542,0,0,0,2.352-1.269c0.149-6.58-1.127-15.746-18.524-16.108m0.964-339.927,10.871,17.554a0.7,0.7,0,0,1,.1.34c0.148,3.546,2.438,58.309,4.739,113.414,1.655-1.451,3.326-2.882,4.921-4.219a3.209,3.209,0,0,0,1.154-2.176c1.9-21.913,7.133-60.995,9.159-70.671,2.027,9.676,7.262,48.758,9.159,70.671a3.21,3.21,0,0,0,1.155,2.176c1.594,1.337,3.265,2.768,4.921,4.219,2.3-55.1,4.591-109.868,4.739-113.414a0.693,0.693,0,0,1,.1-0.34l10.87-17.554a0.708,0.708,0,0,0-.638-1.081l-15.189.771a0.7,0.7,0,0,1-.591-0.269l-13.972-17.876a0.708,0.708,0,0,0-1.117,0l-13.973,17.876a0.7,0.7,0,0,1-.591.269l-15.188-.771a0.709,0.709,0,0,0-.639,1.081m-92.2,27.052s27.668-76.168,89.839-90.817l4.188,4.207c24.253-19.142,27.285-19.158,29.122-19.158s4.87,0.016,29.122,19.158l4.188-4.207c62.172,14.649,89.84,90.817,89.84,90.817-0.638-28.049-4.958-50.983-11.65-69.732l28.882-34.2-37.831,13.9a122.648,122.648,0,0,0-20.717-28.35l15.048-55.47L279.326,87.549a121.86,121.86,0,0,0-40.169-15.107L219.987,0,200.818,72.442a121.844,121.844,0,0,0-40.169,15.107L123.106,49.77l15.048,55.47a122.65,122.65,0,0,0-20.718,28.35L79.6,119.687l28.882,34.2c-6.691,18.749-11.012,41.683-11.649,69.732M319.65,142.985c1.613-.541,3.24-1.076,4.869-1.593l0.893-.278c1.5-.469,3.052-0.954,4.525-1.337a10.89,10.89,0,0,0,1.844-.627l1.735-.67c-0.078.092-.156,0.185-0.235,0.277-0.22.27-.462,0.535-0.7,0.8a13.966,13.966,0,0,0-1.473,1.816c-0.835,1.224-1.8,2.493-2.74,3.721l-0.646.847c-1.045,1.358-2.1,2.7-3.173,4.044l-11.067,2.535Zm-42.482-28.936,2.706-13.466c2.078-2.176,3.987-4.117,5.822-5.917l0.491-.482c1.926-1.887,3.916-3.839,5.817-5.6a21.7,21.7,0,0,0,1.825-1.86l1.617-1.741c0.884-.939,1.783-1.866,2.7-2.792-0.347,1.26-.706,2.518-1.092,3.8-0.151.533-.324,1.072-0.495,1.606a28.887,28.887,0,0,0-.857,3.041c-0.557,2.479-1.219,5.054-1.859,7.544l-0.264,1.029c-0.645,2.5-1.368,5.113-2.214,8l-10.3,9.07q-2.529,2.211-5.2,4.514c0.439-2.3.875-4.559,1.308-6.75M213.3,63.77l0.4-1.425c0.889-3.154,1.807-6.415,2.766-9.535,0.389-1.21.7-2.539,1-3.824,0.162-.694.325-1.394,0.5-2.078,0.49-1.985,1-3.932,1.525-5.888q0.24-.9.494-1.827,0.255,0.929.494,1.827c0.527,1.956,1.035,3.9,1.526,5.888,0.177,0.684.34,1.384,0.5,2.078,0.3,1.285.609,2.614,1,3.824,0.958,3.12,1.877,6.381,2.765,9.535l0.4,1.425c0.915,3.26,1.829,6.69,2.795,10.5l-8.841,25.79-0.642,1.817-0.641-1.817L210.5,74.269c0.966-3.809,1.879-7.239,2.795-10.5M144.529,84.984l1.616,1.741a21.7,21.7,0,0,0,1.825,1.86c1.9,1.76,3.892,3.712,5.817,5.6l0.492,0.482c1.835,1.8,3.743,3.741,5.821,5.917l2.706,13.466c0.433,2.191.87,4.447,1.308,6.75q-2.662-2.3-5.2-4.514l-10.3-9.07c-0.846-2.888-1.569-5.5-2.213-8l-0.264-1.029c-0.641-2.49-1.3-5.065-1.86-7.544a28.9,28.9,0,0,0-.857-3.041c-0.171-.534-0.344-1.073-0.494-1.606-0.387-1.284-.745-2.542-1.093-3.8,0.913,0.926,1.812,1.853,2.7,2.792m-37.136,54.57c-0.237-.262-0.479-0.527-0.7-0.8-0.079-.092-0.158-0.185-0.235-0.277l1.735,0.67a10.83,10.83,0,0,0,1.844.627c1.472,0.383,3.023.868,4.524,1.337l0.893,0.278c1.629,0.517,3.256,1.052,4.869,1.593l6.168,9.532-11.066-2.535c-1.075-1.349-2.129-2.686-3.174-4.044l-0.645-.847c-0.937-1.228-1.906-2.5-2.74-3.721a13.894,13.894,0,0,0-1.474-1.816m69.391,358.682c-6.34-8.362-14.809-15.294-25.859-17.062-12.505-2-21.043,5.42-26.925,9.973l-0.153.118s11.773,8.409,21.191,8.914c7.437,0.4,11.254-.977,15.3-1.345,2.438-.222,9.915,1.163,14.731,2.133a1.723,1.723,0,0,0,1.71-2.731m25.639-308.107L214.7,174.42a6.708,6.708,0,0,1,10.572,0l12.278,15.709,0.915-.047c3.27-13.682,9.931-38.446,10.44-40.156,0.659-2.217,1.309-4.372.274-5.2-2.994-2.39-26.48-20.874-29.193-20.874s-26.2,18.484-29.192,20.874c-1.035.826-.386,2.981,0.274,5.2,0.508,1.71,7.169,26.474,10.44,40.156Zm-4.65,338.413a1.347,1.347,0,0,0,1.691-1.935c-17.2-28.441-32.55-17.679-37.776-14.741a0.5,0.5,0,0,0-.053.842c2.762,2.036,13.625,9.982,15.7,10.585a76.661,76.661,0,0,0,11.574,1.9c1.137,0,5.562,1.875,8.863,3.349M135.944,373.694c2.249-.471,4.678-1.087,6.9-1.649,1.371-.348,2.674-0.678,3.831-0.95a4.845,4.845,0,0,1,1.108-.129,4.435,4.435,0,0,1,2.551.785c6.325,4.41,16.023,11,23.121,15.6-4.5-6.923-10.925-16.32-15.241-22.471a4.225,4.225,0,0,1-.545-3.714c0.339-1.085.746-2.3,1.175-3.59,0.676-2.023,1.415-4.233,2.006-6.294-3.39.236-7.462,0.629-11.588,1.123a5.152,5.152,0,0,1-.6.037,4.473,4.473,0,0,1-2.831-.974c-7.362-6.013-18.759-14.641-28.352-21.646l-8.305-8.739-13.6-14.109c-9.142-9.33-18.246-18.695-27.45-27.965q-5.838-5.844-11.654-11.672c-0.059,1.133-.105,2.263-0.132,3.387l9.8,10.225L93.338,309.14l13.691,14.012,8.345,8.448c6.918,9.4,15.437,20.551,21.406,27.784a4.256,4.256,0,0,1,.864,3.489c-0.7,3.846-1.3,7.646-1.7,10.821m43.569-88.385L174,262.981,168.338,240.7l-11.644-44.485-5.879-22.224c-1.2-4.52-2.418-9.058-3.581-13.589q-0.819.714-1.623,1.437,0.174,0.758.347,1.515l2.641,11.2,5.5,22.33c3.711,14.875,7.558,29.713,11.333,44.568l5.792,22.249,5.861,22.23,5.8,22.241c1.83,7.363,3.811,14.743,5.3,22.126,0.513-.158,1.024-0.317,1.539-0.467-1.373-7.487-3.17-14.782-4.847-22.148Zm-45.09-2.762-10.976-18.836c-7.4-12.5-22.238-37.5-22.238-37.5l-1.35,2.969,21,36.052L131.949,284l11.175,18.717c7.42,12.395,14.861,24.786,22.2,37.219,0.469-.257.937-0.513,1.409-0.763l-21.453-37.72ZM251.9,536.5c-17.4.362-18.673,9.528-18.525,16.108a1.543,1.543,0,0,0,2.352,1.269c1.9-1.171,4.436-2.778,5.323-3.391a38.2,38.2,0,0,0,11.309-13.23,0.516,0.516,0,0,0-.459-0.756m26.385-24.631c-5.226-2.938-20.573-13.7-37.775,14.741a1.346,1.346,0,0,0,1.69,1.935c3.3-1.474,7.727-3.349,8.863-3.349a76.652,76.652,0,0,0,11.575-1.9c2.076-.6,12.939-8.549,15.7-10.585a0.5,0.5,0,0,0-.054-0.842m10.764-30.692c-11.051,1.768-19.52,8.7-25.859,17.062a1.723,1.723,0,0,0,1.709,2.731c4.817-.97,12.293-2.355,14.731-2.133,4.051,0.368,7.868,1.744,15.3,1.345,9.418-.5,21.192-8.914,21.192-8.914l-0.154-.118c-5.881-4.553-14.419-11.973-26.924-9.973m123.636-292.69c-15.062-15.062-38.587-30.022-67.037-42.064l-7.378,8.736a196.61,196.61,0,0,1,6.936,27.535c15.627,11.656,28.455,25.784,35.117,42.727,26.257,66.778-9.816,121.465-26.349,142.86-7.87,10.185-19.778,25.218-29.119,40.273a133.607,133.607,0,0,0-12.067-24.669c-1-1.6-2.052-3.163-3.131-4.708l0.06,0.576-3.867-.632c-2.854-.464-5.635-1.108-8.345-1.763a104.644,104.644,0,0,1,7.4,10.048,129.939,129.939,0,0,1,14.454,30.488l0.025,0.075c-7.109,13.239-11.08,25.694-7.229,33.947,0,0-52.73-19.126-92.171,66.129-39.44-85.255-92.171-66.129-92.171-66.129,3.852-8.253-.119-20.708-7.228-33.947l0.025-.075A129.894,129.894,0,0,1,135.066,387.4a104.649,104.649,0,0,1,7.4-10.048c-2.71.655-5.492,1.3-8.346,1.763l-3.866.632,0.06-.576c-1.08,1.545-2.132,3.111-3.132,4.708a133.734,133.734,0,0,0-12.067,24.669C105.777,393.5,93.869,378.463,86,368.278c-16.532-21.4-52.606-76.082-26.348-142.86,6.661-16.943,19.489-31.071,35.116-42.727a196.748,196.748,0,0,1,6.936-27.535l-7.377-8.736c-28.45,12.042-51.975,27-67.038,42.064C-6.568,222.34-2.658,270.6,6.022,299.681s28.21,55.553,79.748,102.426c17.912,16.29,23.532,27.17,23.545,46.873,0.011,15.657-23.57,42.5-23.57,42.5,101.692-69.84,132.506,53.744,134.242,69.042,1.736-15.3,32.551-138.882,134.242-69.042,0,0-23.581-26.84-23.57-42.5,0.014-19.7,5.633-30.583,23.545-46.873,51.539-46.873,71.069-73.348,79.749-102.426s12.589-77.341-21.267-111.2m-178.029,152.9c0.676,0.12,1.353.239,2.025,0.369a113.261,113.261,0,0,1,16.231,4.547,111.666,111.666,0,0,1,15.355,6.946c2.594,1.417,5.109,2.965,7.561,4.611-0.83-2.61-1.657-5.3-2.269-8.093l-0.857-3.908,0.331,0.021a116.663,116.663,0,0,0-29.011-11.541c-0.761-.194-1.528-0.368-2.294-0.546,0.451,0.429.891,0.852,1.312,1.263-2.42,1.868-5.469,3.809-8.354,5.607-1.831,1.141-3.594,2.224-5.079,3.19a3.121,3.121,0,0,0-1.38,2.14c-2.306,14.792-6.375,38.623-8.241,46.15-1.866-7.527-5.935-31.358-8.24-46.15a3.121,3.121,0,0,0-1.38-2.14c-1.486-.966-3.249-2.049-5.08-3.19-2.884-1.8-5.934-3.739-8.353-5.607,0.42-.411.86-0.834,1.311-1.263-0.766.178-1.532,0.352-2.294,0.546a116.656,116.656,0,0,0-29.01,11.541l0.33-.021-0.857,3.908c-0.611,2.8-1.439,5.483-2.269,8.093,2.452-1.646,4.968-3.194,7.561-4.611a111.721,111.721,0,0,1,15.355-6.946,113.334,113.334,0,0,1,16.231-4.547c0.673-.13,1.349-0.249,2.025-0.369,2.176,52.116,4.2,100.777,4.254,102.275,0.107,3.2.528,9.65-6.674,18.424a0.708,0.708,0,0,0,0,.9l10.936,12.979a0.7,0.7,0,0,1,.1.763l-3.549,7.295a0.708,0.708,0,0,0,.012.64l8.974,16.85a0.705,0.705,0,0,0,1.245,0l8.974-16.85a0.708,0.708,0,0,0,.012-0.64l-3.549-7.295a0.7,0.7,0,0,1,.1-0.763l10.936-12.979a0.708,0.708,0,0,0,0-.9c-7.2-8.774-6.78-15.225-6.673-18.424,0.049-1.5,2.077-50.159,4.253-102.275m39.99-1.456c7.343-12.433,14.783-24.824,22.2-37.219L308.026,284l11.087-18.769,21-36.052-1.351-2.969s-14.832,25-22.238,37.5l-10.975,18.836-10.861,18.9-21.453,37.72c0.472,0.25.941,0.506,1.409,0.763M324.6,331.6l8.345-8.448,13.692-14.012,27.2-28.194,9.8-10.225c-0.026-1.124-.072-2.254-0.131-3.387q-5.835,5.823-11.654,11.672c-9.2,9.27-18.309,18.635-27.45,27.965l-13.6,14.109-8.3,8.739c-9.593,7.005-20.99,15.633-28.352,21.646a4.477,4.477,0,0,1-2.831.974,5.155,5.155,0,0,1-.6-0.037c-4.126-.494-8.2-0.887-11.587-1.123,0.591,2.061,1.329,4.271,2.005,6.294,0.429,1.285.837,2.505,1.175,3.59a4.222,4.222,0,0,1-.545,3.714c-4.315,6.151-10.739,15.548-15.241,22.471,7.1-4.594,16.8-11.187,23.121-15.6a4.438,4.438,0,0,1,2.552-.785,4.843,4.843,0,0,1,1.107.129c1.157,0.272,2.46.6,3.832,0.95,2.217,0.562,4.646,1.178,6.9,1.649-0.4-3.175-1-6.975-1.7-10.821a4.256,4.256,0,0,1,.864-3.489C309.163,352.151,317.683,341,324.6,331.6M289.16,173.987l-5.88,22.224L271.636,240.7l-5.666,22.285-5.508,22.328L255.1,307.676c-1.677,7.366-3.475,14.661-4.848,22.148,0.515,0.15,1.027.309,1.539,0.467,1.486-7.383,3.467-14.763,5.3-22.126l5.8-22.241,5.86-22.23,5.792-22.249c3.775-14.855,7.622-29.693,11.333-44.568l5.5-22.33,2.641-11.2q0.174-.759.347-1.515-0.8-.725-1.623-1.437c-1.163,4.531-2.38,9.069-3.58,13.589" transform="translate(0 0)" style="fill:#b51a38"/></svg>