<svg xmlns="http://www.w3.org/2000/svg" viewBox="0 0 478.828 133.811"><title>chara_name</title><path d="M12.96,43.8c-2.7,0-5.58-1.38-8.46-1.38-2.1,0-2.58.9-3.9,0.9A0.579,0.579,0,0,1,0,42.6c0-1.38,2.82-4.14,6.6-4.14,3.66,0,4.86.12,6.9,0.12,1.8,0,1.8-3.24,1.8-4.379,0-4.38-4.5-5.46-4.681-5.46-0.719,0-1.138.36-1.138-.3a1.276,1.276,0,0,1,1.138-.36c0.841,0,.66.12,1.261,0.12,0.42,0,1.92,0,1.92-1.26,0-2.16-3.12-5.82-5.88-5.82-0.359,0-2.88-.3-2.88-1.08,0-.54,2.521-1.62,2.88-1.62s4.859,1.5,5.22,1.14a1.169,1.169,0,0,0,.36-0.9c0-1.5-2.28-3.3-3.18-3.3-0.36,0-2.52-.18-2.52-0.96a1.853,1.853,0,0,1,1.32-1.26,12.568,12.568,0,0,0,3.48-.96,3.9,3.9,0,0,0,.36-1.919l0.3-1.2c0.3-1.139,2.939-2.94,3.6-2.94,0.361,0,.481.181,0.481,1.38L17.7,29.339c0.061,4.259-.24,7.079.481,8.339,2.16,0.18,3.959,0,4.5,1.62-4.861,4.98-7.2,4.5-9.72,4.5m31.378-3.12c-0.9.9-1.5,2.34-2.1,2.34-0.3,0-2.1-1.92-5.219-1.92-2.82,0-5.46,1.62-5.7,1.62-0.479,0-.718-1.44-0.718-3.42,0-.9,10.859-9.779,10.859-21,0-8.4-7.26-13.5-16.2-13.5-1.5,0-4.381.3-4.381-.42,0-1.26,4.86-3.78,6.66-3.78,11.52,0,17.579,9.059,17.579,14.759,0,13.74-9.9,18.719-9.9,21.179,0,0.48.359,1.62,1.08,1.62a1.745,1.745,0,0,0,1.32-.78l1.98-.06c5.519-.18,6.42-3.24,6.9-3.24,0.3,0,.42.36,0.42,0.781a10.9,10.9,0,0,1-2.58,5.819" transform="translate(0 0)" style="fill:#2d4e40"/><path d="M104.039,26.459a1.071,1.071,0,0,1-1.321.84l-9.359-.54a3.611,3.611,0,0,0-3.6,3.6,3.524,3.524,0,0,0,1.92,3.18l7.8,3.78a1.477,1.477,0,0,0,.721.24,0.921,0.921,0,0,0,.6-0.24l1.559-1.2a1,1,0,0,1,.72-0.3,1.051,1.051,0,0,1,1.02,1.02,1.026,1.026,0,0,1-.42.78l-4.739,3.36a1.028,1.028,0,0,1-1.32,0l-9.96-6.36a2.8,2.8,0,0,0-2.28,2.7c0,1.44.839,1.74,0.839,3.24a2.219,2.219,0,1,1-4.439,0A8.648,8.648,0,0,1,83.34,35.7L97.919,15a2.318,2.318,0,0,0,.54-1.32A1.87,1.87,0,0,0,96.6,11.82a5.79,5.79,0,0,0-3.839,1.92,1.357,1.357,0,0,1-.96.48,1.588,1.588,0,0,1-1.56-1.56c0-.96,2.76-3.96,7.56-3.96,1.62,0,5.639.24,5.639,3.18-0.059,2.4-7.019,8.76-7.079,10.5,0,0.179.06,0.3,0.72,0.3l6.239,0.179c0.9,0,.9,1.2.9,1.381Zm13.2,12.6c-2.34,1.86-4.26,3.24-5.641,3.24-2.039,0-3.119-2.58-3.119-7.68V14.82c0-6.12-4.38-10.74-10.439-10.74a26.442,26.442,0,0,0-6.72.72c-1.56.48-2.64,1.2-2.64,0.6a1.115,1.115,0,0,1,.661-0.96,17.34,17.34,0,0,1,9.6-2.94c5.7,0,9.839,3.96,11.639,3.96,1.5,0,4.56-4.14,5.76-4.14a0.89,0.89,0,0,1,.78,1.02c0.059,1.8-4.38,2.34-4.38,6.24L112.8,34.859c0,0.42.059,2.76,1.259,2.76,1.26,0,4.32-3.12,5.4-3.12a1.154,1.154,0,0,1,1.319.96c0,0.42-3.3,3.42-3.539,3.6" transform="translate(0 0)" style="fill:#2d4e40"/><path d="M170.938,42.3c-8.46,0-17.639-6.96-17.639-16.2,0-9.3,2.46-11.34,3.96-12.84a3.815,3.815,0,0,1,2.1-1.2,0.378,0.378,0,0,1,.42.48c0,1.56-2.461,2.939-2.461,12,0,7.5,5.34,15.54,15.72,15.54,9.54,0,18.359-7.14,18.359-19.62,0-6.96-5.1-14.1-14.879-15.179-1.081-.12-1.5-0.42-1.5-0.84,0-.24,1.26-0.72,2.4-1.38a8.109,8.109,0,0,1,2.939-1.14c3.181,0,14.821,6,14.821,17.219,0,9.84-9.9,23.159-24.24,23.159M165,29.519a3.107,3.107,0,0,1-.06-1.2l-0.479-17.94c-0.061-1.2,2.939-2.939,3.6-2.939,0.359,0,.48.36,0.48,0.9l0.06,18.119c0,0.9-3.48,3.06-3.6,3.06" transform="translate(0 0)" style="fill:#2d4e40"/><path d="M258.118,6.24c-2.521,0-3.84-.84-4.62-0.84a0.757,0.757,0,0,0-.36.06c-1.261.54-.78,3.78-0.78,4.74s0.479,1.86,1.14,1.86h5.28a0.964,0.964,0,0,1,1.14,1.2c0,0.54.179,1.56-.541,1.56s-0.24-.479-1.019-0.479c-1.2,0-2.4.959-3.061,1.32-1.439.78-2.819,1.26-2.819,2.88l0.12,15.719c0.06,4.5-6.24,8.4-7.44,9.059a93.683,93.683,0,0,1-9,4.08c-1.441.54-2.1,1.08-3.12,1.08-2.7,0-3.241-1.5-6-1.5-1.8,0-3.72,2.1-4.98,2.1-0.479,0-.479-0.119-0.54-0.42a6.466,6.466,0,0,1-.3-1.26c0-.72,1.441-4.319,6.06-4.319,4.559,0,5.4,2.04,9.119,2.04,1.8,0,11.88-4.14,11.88-10.68L248.218,5.46c0-.3-0.12-0.54-0.12-0.72a1.143,1.143,0,0,1,.54-0.84c0.3-.24,4.44-2.82,5.22-2.82,0.24,0,2.88,1.74,6,1.74,2.519,0,3.779-1.56,4.2-1.56,0.181,0,.24.3,0.24,0.84,0,1.2-2.28,4.14-6.179,4.14M239.4,35.819c-0.119.96-.479,1.38-0.72,1.38-0.3,0-.54-0.54-0.54-1.32l0.42-17.519c0-1.02-.119-3.181-3.539-3.181-3.24,0-3.84,1.5-5.76,1.5-0.36,0-.48-0.059-0.48-0.3a4.107,4.107,0,0,1,.66-1.2c1.26-1.86,5.16-3.239,6.3-3.6,1.08-.36,2.461-0.66,2.58-1.86,0.06-.6.06-1.5,0.181-2.1s0.479-.84,2.939-0.84c0.72,0,1.38-.36,1.141,1.68Z" transform="translate(0 0)" style="fill:#2d4e40"/><path d="M311.878,42.9c-11.519,0-18.6-8.64-18.6-14.339,0-13.74,9.9-18.72,9.9-21.179,0-.721-0.84-2.761-2.4-2.761-5.1,0-8.64,5.22-8.879,5.22-0.3,0-.42-0.36-0.42-0.78a10.891,10.891,0,0,1,2.579-5.82,6.248,6.248,0,0,1,3.84-1.5c0.66,0,7.02,2.821,9.24,2.821a1.061,1.061,0,0,1,.9.719c0,0.9-11.1,9.12-11.1,20.34,0,8.4,7.26,15.3,16.2,15.3,1.92,0,4.8-.24,4.739-0.24a0.7,0.7,0,0,1,.84.78c0,1.26-4.5,1.44-6.84,1.44m-3.359-14.4a15.936,15.936,0,0,1-.78,3.6c-0.3.72-1.2,0.841-1.2-.48L306.419,16.2a4.055,4.055,0,0,1,1.86-2.88c0.96-.78,1.74-1.56,1.86-1.56a0.507,0.507,0,0,1,.479.6Zm21.659,11.339c-1.021.96-1.92,1.86-2.46,1.86-1.38,0-3.78-4.02-3.78-7.14l0.12-26.219a1.028,1.028,0,0,0-.66-1.08,2.156,2.156,0,0,0-1.26-.9c-2.04,0-3.48,2.34-4.26,2.34-0.36,0-.42-0.12-0.42-0.48,0-.779.84-1.38,2.52-2.64,1.2-.9,2.88-3.179,3.42-3.179,0.24,0,2.46,1.98,3.3,1.98,0.959,0,3.78-2.7,4.74-2.7,0.3,0,.36.24,0.36,0.54,0,0.72-1.2,1.32-2.221,2.22a4,4,0,0,0-1.319,2.879V34.439c0,1.38.72,3.18,1.74,3.18a14.478,14.478,0,0,0,1.92-.3,0.34,0.34,0,0,1,.36.42,15.573,15.573,0,0,1-2.1,2.1" transform="translate(0 0)" style="fill:#2d4e40"/><path d="M416.1,4.86a7.917,7.917,0,0,0-2.76,5.1V35.219c0,1.68-.24,3.84,1.2,3.84,1.081,0,1.141-.54,2.22-0.54a0.637,0.637,0,0,1,.66.779,2.865,2.865,0,0,1-1.319.96,22.737,22.737,0,0,1-4.021,1.98c-0.54,0-3-.659-3-6.419V9.12a7.342,7.342,0,0,0-1.8-4.68,2.067,2.067,0,0,0-1.619-.72c-0.421,0-1.141.24-4.141,1.62L396,7.92l-0.059,7.8c0,0.96.359,2.821,1.859,2.821h4.561c0.539,0,1.2,0,1.2.539a6.7,6.7,0,0,1-1.56,2.1,7.668,7.668,0,0,1-2.339,1.44c-0.241,0-3.121-.48-3.121,1.32l-0.12,10.86a3.84,3.84,0,0,0,1.8,2.94A9,9,0,0,0,402,36a1.183,1.183,0,0,1,.54-0.24,0.73,0.73,0,0,1,.78.539,0.541,0.541,0,0,1-.3.6l-7.38,5.04a1.939,1.939,0,0,1-1.079.359,2.2,2.2,0,0,1-1.08-.66c-1.8-1.92-2.64-2.34-2.64-3.36,0-.539.959-1.2,0.959-2.639s-0.119-7.62.12-9.3c0.241-1.74-.179-3.48-1.92-3.42-1.619.06-2.339-.42-4.739-0.18-0.54.06-1.2,0-1.2-.48a10.4,10.4,0,0,1,1.68-3.06,4.827,4.827,0,0,1,3.06-.719c0.96,0,2.94.239,2.94-2.161l0.12-9.9c0-2.28-.6-3.06-1.981-2.94a13.716,13.716,0,0,0-3.119,1.08l-5.1,2.94c-1.981,1.14-3.361,3.72-3.481,8.88-0.12,4.559-.12,10.8-0.18,15.179-0.06,4.68-1.259,4.92-1.32,6.96,0,0.6,1.2.84,1.86,0.84,0.3,0,1.68-.42,2.46-0.42,0.42,0,.661.12,0.661,0.359,0,0.84-1.5,2.82-3.84,2.82-1.741,0-3.241-.36-5.34-0.36-3.3,0-4.981,1.8-6.72,1.8a0.754,0.754,0,0,1-.9-0.6c0-1.261,1.559-2.4,4.08-3.42,2.76-1.08,5.819-3.9,5.819-6.36,0.061-5.82-3.54-8.46-6.239-8.46-0.42,0-.96.42-1.26,0.42-0.181,0-.24-0.18-0.24-0.6,0-1.14,2.16-2.28,3.059-2.76,1.26-.66,4.081-0.48,4.14-2.879,0.061-4.44,3.24-10.8,6-12.42l9-5.4a5.433,5.433,0,0,1,3.3-1.08c1.14,0,3,3.24,3.54,4.56a0.966,0.966,0,0,0,.9.84,5.454,5.454,0,0,0,1.861-.84l6.059-3.06A6.228,6.228,0,0,1,407.7.6c2.04,0,3.3,3.24,5.879,3.24,1.8,0,3.42-2.1,5.521-2.1,0.119,0,.3.24,0.3,1.02,0,0.3-1.8.96-3.3,2.1" transform="translate(0 0)" style="fill:#2d4e40"/><path d="M478.258,2.641c-4.981,5.819-3.42,10.8-3.42,15.839,0,4.02,1.2,10.919,1.2,13.5,0,8.459-5.22,10.919-9.239,10.919-4.86,0-8.46-4.98-13.079-4.98a5.36,5.36,0,0,0-2.16.3,0.309,0.309,0,0,1-.361-0.36c0-.18.481-3.06,4.5-3.06,4.68,0,4.861,6.18,12,6.18a5.425,5.425,0,0,0,5.34-5.82c0-2.52-2.46-8.46-2.46-16.079,0-10.26,3.359-17.939,7.379-17.939a0.805,0.805,0,0,1,.78.54c0.12,0.179.24,0.059-.479,0.96M465,15.42l1.439,17.1a1.7,1.7,0,0,1-1.739,1.74,1.869,1.869,0,0,1-1.74-1.74c-0.96-4.68-.72-10.979-6.3-10.979-1.979,0-2.819,1.319-3.84,1.319a0.46,0.46,0,0,1-.479-0.6c0-1.98,4.919-4.14,6.059-4.14a2.6,2.6,0,0,0,2.82-2.28c0.48-2.64,1.74-6.12,2.22-9.06,0.3-1.739-1.74-1.44-2.34-1.44-1.44,0-3.6-.419-4.32,0a7.5,7.5,0,0,1-2.46,1.141c-0.42,0-.54-0.241-0.54-0.721,0-1.2,1.68-4.259,6.241-4.259,2.159,0,3.359.12,5.159,0.12a15.321,15.321,0,0,0,2.7-.54,0.607,0.607,0,0,1,.66.36c-0.3.48-4.08,7.559-3.54,13.979" transform="translate(0 0)" style="fill:#2d4e40"/><path d="M40.319,92.641c-4.98,5.819-3.42,10.8-3.42,15.839,0,4.02,1.2,10.919,1.2,13.5,0,8.459-5.22,10.919-9.24,10.919-4.86,0-8.459-4.98-13.079-4.98a5.357,5.357,0,0,0-2.159.3,0.309,0.309,0,0,1-.361-0.36c0-.18.48-3.06,4.5-3.06,4.681,0,4.861,6.18,12,6.18a5.424,5.424,0,0,0,5.34-5.82c0-2.519-2.46-8.46-2.46-16.079,0-10.26,3.36-17.939,7.38-17.939a0.8,0.8,0,0,1,.779.54c0.121,0.179.241,0.059-.479,0.96M27.06,105.42l1.439,17.1a1.7,1.7,0,0,1-1.74,1.739,1.869,1.869,0,0,1-1.74-1.739c-0.959-4.68-.719-10.98-6.3-10.98-1.98,0-2.82,1.319-3.84,1.319a0.46,0.46,0,0,1-.48-0.6c0-1.981,4.92-4.14,6.06-4.14a2.6,2.6,0,0,0,2.82-2.28c0.479-2.64,1.739-6.12,2.219-9.06,0.3-1.74-1.74-1.44-2.339-1.44-1.44,0-3.6-.42-4.321,0a7.5,7.5,0,0,1-2.459,1.141c-0.42,0-.541-0.241-0.541-0.72,0-1.2,1.681-4.261,6.241-4.261,2.16,0,3.359.12,5.16,0.12a15.308,15.308,0,0,0,2.7-.54,0.607,0.607,0,0,1,.66.361c-0.3.48-4.08,7.559-3.539,13.979" transform="translate(0 0)" style="fill:#2d4e40"/><path d="M78.059,132.478a0.386,0.386,0,0,1-.24-0.42c0-.66,3.9-7.019,3.9-11.519a8.786,8.786,0,0,0-.6-2.88,5.806,5.806,0,0,0-5.039-2.52c-1.5,0-1.561.121-2.281,0.121-0.12,0-.42.059-0.42-0.181,0-1.2,4.079-2.22,6.24-2.22s2.461-1.5,2.461-2.76c0-.78-1.2-9-3.122-12.479-1.319-2.4-3.179-3.42-4.619-3.42-3,0-4.679,3.54-5.16,3.54a1.215,1.215,0,0,1-.059-0.6,7.991,7.991,0,0,1,1.739-4.02,6.46,6.46,0,0,1,4.44-2.4c4.14,0,10.44,6.239,10.44,21.178,0,10.38-6.06,20.579-7.68,20.579m18.839-9.9c-1.44,2.58-2.819,4.5-2.819,5.519,0,0.6.719,1.081,0.719,2.161,0,0.42-.24.54-0.719,0.66L89.4,132.3c-0.359.12-.359-0.12-0.48-0.361l-1.259-2.759a0.662,0.662,0,0,1,.479-0.96c0.78-.121,3.541-0.6,4.32-1.26,1.44-1.14,5.1-7.5,5.1-17.64,0-6.239-2.279-14.518-4.68-14.518-0.9,0-2.16,1.139-2.519,1.139a0.894,0.894,0,0,1-.66-0.54c-0.061-.84,1.619-1.74,3.3-2.58a14.123,14.123,0,0,0,2.339-1.32,6.351,6.351,0,0,1,.42-0.6,1.761,1.761,0,0,1,.181.6c2.7,1.62,5.579,10.62,5.579,15.42,0,7.979-4.38,15.179-4.62,15.659m13.08,5.58c-2.641,3.54-5.88,4.739-6.66,4.739-0.96,0-.66-0.3-1.5-0.479s-0.9-1.14-1.02-1.5a4.877,4.877,0,0,1-.6-2.52c0-.3,1.92-0.66,2.7-0.66,2.7,0,.96.54,3.54,0.54,2.46,0,8.4-8.939,8.4-19.26,0-4.259-.9-13.439-4.32-13.439-1.079,0-2.1.66-2.639,0.66q-0.9,0-.9-0.54c0-.6,3.6-3.12,5.4-3.779,0.841-.3,1.261-0.841,1.5-0.841,1.38,0,4.681,8.22,4.681,13.439,0,6.9-4.2,17.76-8.58,23.64" transform="translate(0 0)" style="fill:#2d4e40"/><path d="M175.2,116.458a1.07,1.07,0,0,1-1.32.841l-9.36-.54a3.611,3.611,0,0,0-3.6,3.6,3.525,3.525,0,0,0,1.92,3.179l7.8,3.781a1.469,1.469,0,0,0,.72.239,0.923,0.923,0,0,0,.6-0.239l1.559-1.2a0.994,0.994,0,0,1,.72-0.3,1.05,1.05,0,0,1,1.019,1.019,1.024,1.024,0,0,1-.42.781l-4.739,3.359a1.027,1.027,0,0,1-1.32,0l-9.96-6.359a2.8,2.8,0,0,0-2.279,2.7c0,1.439.839,1.739,0.839,3.239a2.219,2.219,0,1,1-4.439,0,8.642,8.642,0,0,1,1.56-4.859L169.079,105a2.31,2.31,0,0,0,.541-1.32,1.87,1.87,0,0,0-1.861-1.859,5.793,5.793,0,0,0-3.84,1.92,1.353,1.353,0,0,1-.959.479,1.589,1.589,0,0,1-1.561-1.559c0-.96,2.76-3.96,7.561-3.96,1.619,0,5.638.24,5.638,3.179-0.059,2.4-7.019,8.76-7.079,10.5,0,0.18.06,0.3,0.72,0.3l6.24,0.18c0.9,0,.9,1.2.9,1.38Zm13.2,12.6c-2.34,1.86-4.26,3.24-5.64,3.24-2.04,0-3.119-2.58-3.119-7.679v-19.8c0-6.12-4.381-10.741-10.44-10.741a26.437,26.437,0,0,0-6.72.721c-1.56.48-2.64,1.2-2.64,0.6a1.115,1.115,0,0,1,.661-0.96,17.343,17.343,0,0,1,9.6-2.941c5.7,0,9.839,3.96,11.64,3.96,1.5,0,4.559-4.139,5.76-4.139a0.889,0.889,0,0,1,.779,1.02c0.06,1.8-4.379,2.34-4.379,6.239l0.06,26.28c0,0.42.059,2.76,1.259,2.76,1.26,0,4.32-3.121,5.4-3.121a1.156,1.156,0,0,1,1.32.96c0,0.42-3.3,3.42-3.54,3.6" transform="translate(0 0)" style="fill:#2d4e40"/><path d="M250.318,98.221c-2.28,0-3.36-.9-4.5-0.9-1.321,0-1.381.84-1.381,3.84v15.06c0,0.72-.06,1.14-0.48,1.2-0.54.06-3.18,1.38-3.479,1.38a0.567,0.567,0,0,1-.42-0.66v-0.12l2.219-18.6c0.3-2.34-3.24-3.96-7.08-3.96-6.78,0-10.919,4.561-11.819,4.561a0.569,0.569,0,0,1-.36-0.66c0-1.92,4.44-8.34,11.88-8.34,2.82,0,10.859,2.759,17.039,2.759,1.08,0,7.62-1.139,8.639-1.139,0.72,0,.9.24,0.9,0.72,0,0.78-2.1,4.86-11.16,4.86M243.3,132.3c-3,0-17.7-2.46-17.459-18.239,0.12-4.32,3-10.86,4.919-10.86,0.3,0,.3.241,0.3,0.48a30.746,30.746,0,0,0-2.46,10.439c-0.12,6.241,6.42,14.46,16.559,14.46,6.78,0,14.219-5.1,14.459-5.1a0.517,0.517,0,0,1,.481.659c0,0.78-7.8,8.16-16.8,8.16" transform="translate(0 0)" style="fill:#2d4e40"/><path d="M315.117,116.458a1.07,1.07,0,0,1-1.32.841l-9.359-.54a3.61,3.61,0,0,0-3.6,3.6,3.524,3.524,0,0,0,1.919,3.179l7.8,3.781a1.472,1.472,0,0,0,.72.239,0.921,0.921,0,0,0,.6-0.239l1.559-1.2a1,1,0,0,1,.721-0.3,1.05,1.05,0,0,1,1.019,1.019,1.024,1.024,0,0,1-.42.781l-4.74,3.359a1.026,1.026,0,0,1-1.319,0l-9.96-6.359a2.794,2.794,0,0,0-2.28,2.7c0,1.439.84,1.739,0.84,3.239a2.22,2.22,0,1,1-4.44,0,8.633,8.633,0,0,1,1.561-4.859L309,105a2.316,2.316,0,0,0,.54-1.32,1.869,1.869,0,0,0-1.861-1.859,5.79,5.79,0,0,0-3.839,1.92,1.358,1.358,0,0,1-.96.479,1.588,1.588,0,0,1-1.56-1.559c0-.96,2.76-3.96,7.56-3.96,1.62,0,5.639.24,5.639,3.179-0.059,2.4-7.019,8.76-7.08,10.5,0,0.18.061,0.3,0.721,0.3l6.239,0.18c0.9,0,.9,1.2.9,1.38Zm13.2,12.6c-2.34,1.86-4.26,3.24-5.64,3.24-2.04,0-3.12-2.58-3.12-7.679v-19.8c0-6.12-4.38-10.741-10.439-10.741a26.431,26.431,0,0,0-6.72.721c-1.56.48-2.641,1.2-2.641,0.6a1.115,1.115,0,0,1,.661-0.96,17.348,17.348,0,0,1,9.6-2.941c5.7,0,9.84,3.96,11.64,3.96,1.5,0,4.559-4.139,5.76-4.139a0.89,0.89,0,0,1,.78,1.02c0.059,1.8-4.38,2.34-4.38,6.239l0.06,26.28c0,0.42.06,2.76,1.26,2.76,1.26,0,4.32-3.121,5.4-3.121a1.156,1.156,0,0,1,1.32.96c0,0.42-3.3,3.42-3.54,3.6" transform="translate(0 0)" style="fill:#2d4e40"/><path d="M373.017,133.8c-2.7,0-5.579-1.38-8.459-1.38-2.1,0-2.58.9-3.9,0.9a0.579,0.579,0,0,1-.6-0.72c0-1.38,2.819-4.14,6.6-4.14,3.66,0,4.859.12,6.9,0.12,1.8,0,1.8-3.24,1.8-4.38,0-4.379-4.5-5.459-4.68-5.459-0.719,0-1.139.36-1.139-.3a1.275,1.275,0,0,1,1.139-.361c0.84,0,.66.12,1.26,0.12,0.42,0,1.92,0,1.92-1.259,0-2.16-3.119-5.82-5.879-5.82-0.36,0-2.881-.3-2.881-1.08,0-.54,2.521-1.62,2.881-1.62s4.859,1.5,5.22,1.14a1.168,1.168,0,0,0,.359-0.9c0-1.5-2.279-3.3-3.18-3.3-0.36,0-2.519-.181-2.519-0.96a1.855,1.855,0,0,1,1.319-1.261,12.584,12.584,0,0,0,3.481-.96,3.9,3.9,0,0,0,.359-1.92l0.3-1.2c0.3-1.141,2.94-2.941,3.6-2.941,0.36,0,.48.181,0.48,1.38l0.36,21.84c0.06,4.26-.24,7.079.48,8.339,2.16,0.181,3.96,0,4.5,1.62-4.86,4.98-7.2,4.5-9.72,4.5m31.379-3.12c-0.9.9-1.5,2.34-2.1,2.34-0.3,0-2.1-1.92-5.219-1.92-2.821,0-5.46,1.62-5.7,1.62-0.479,0-.719-1.439-0.719-3.42,0-.9,10.859-9.779,10.859-21,0-8.4-7.26-13.5-16.2-13.5-1.5,0-4.38.3-4.38-.42,0-1.261,4.859-3.78,6.66-3.78,11.52,0,17.579,9.059,17.579,14.76,0,13.739-9.9,18.718-9.9,21.178,0,0.481.359,1.62,1.079,1.62a1.742,1.742,0,0,0,1.32-.78l1.98-.059c5.52-.181,6.42-3.241,6.9-3.241,0.3,0,.42.361,0.42,0.781a10.892,10.892,0,0,1-2.58,5.819" transform="translate(0 0)" style="fill:#2d4e40"/><path d="M468.777,92.641c-4.981,5.819-3.42,10.8-3.42,15.839,0,4.02,1.2,10.919,1.2,13.5,0,8.459-5.22,10.919-9.239,10.919-4.86,0-8.46-4.98-13.079-4.98a5.36,5.36,0,0,0-2.16.3,0.309,0.309,0,0,1-.361-0.36c0-.18.481-3.06,4.5-3.06,4.68,0,4.861,6.18,12,6.18a5.425,5.425,0,0,0,5.34-5.82c0-2.519-2.46-8.46-2.46-16.079,0-10.26,3.359-17.939,7.379-17.939a0.8,0.8,0,0,1,.78.54c0.12,0.179.24,0.059-.479,0.96m-13.26,12.779,1.439,17.1a1.7,1.7,0,0,1-1.739,1.739,1.868,1.868,0,0,1-1.74-1.739c-0.96-4.68-.72-10.98-6.3-10.98-1.979,0-2.819,1.319-3.84,1.319a0.46,0.46,0,0,1-.479-0.6c0-1.981,4.92-4.14,6.059-4.14a2.6,2.6,0,0,0,2.82-2.28c0.48-2.64,1.74-6.12,2.22-9.06,0.3-1.74-1.74-1.44-2.339-1.44-1.441,0-3.6-.42-4.321,0a7.5,7.5,0,0,1-2.46,1.141c-0.42,0-.54-0.241-0.54-0.72,0-1.2,1.68-4.261,6.241-4.261,2.159,0,3.359.12,5.159,0.12a15.32,15.32,0,0,0,2.7-.54,0.609,0.609,0,0,1,.66.361c-0.3.48-4.08,7.559-3.54,13.979" transform="translate(0 0)" style="fill:#2d4e40"/></svg>