<svg xmlns="http://www.w3.org/2000/svg" viewBox="0 0 558.808 133.559"><title>chara_name_5</title><path d="M116.459,1.621c-4.979,5.819-3.42,10.8-3.42,15.839,0,4.019,1.2,10.919,1.2,13.5,0,8.459-5.221,10.919-9.24,10.919-4.86,0-8.459-4.98-13.08-4.98a5.357,5.357,0,0,0-2.159.3,0.31,0.31,0,0,1-.361-0.361c0-.179.481-3.058,4.5-3.058,4.68,0,4.86,6.18,12,6.18a5.426,5.426,0,0,0,5.34-5.821c0-2.519-2.461-8.46-2.461-16.08,0-10.259,3.36-17.938,7.381-17.938a0.8,0.8,0,0,1,.779.54c0.12,0.179.24,0.059-.48,0.96M103.2,14.4l1.44,17.1a1.7,1.7,0,0,1-1.74,1.74,1.868,1.868,0,0,1-1.74-1.74c-0.96-4.68-.72-10.979-6.3-10.979-1.979,0-2.819,1.319-3.84,1.319a0.46,0.46,0,0,1-.479-0.6c0-1.98,4.92-4.14,6.059-4.14a2.6,2.6,0,0,0,2.82-2.28c0.48-2.64,1.74-6.12,2.22-9.06,0.3-1.74-1.74-1.439-2.339-1.439-1.441,0-3.6-.42-4.321,0a7.515,7.515,0,0,1-2.46,1.14c-0.42,0-.54-0.241-0.54-0.72,0-1.2,1.68-4.26,6.241-4.26,2.16,0,3.359.119,5.159,0.119a15.435,15.435,0,0,0,2.7-.539,0.607,0.607,0,0,1,.66.36c-0.3.48-4.08,7.559-3.54,13.979" transform="translate(0 -0.001)" style="fill:#a29251"/><path d="M176.459,7.2c-2.281,0-3.36-.9-4.5-0.9-1.321,0-1.38.84-1.38,3.84V25.2c0,0.72-.06,1.14-0.48,1.2-0.541.061-3.181,1.381-3.48,1.381a0.567,0.567,0,0,1-.42-0.66V27l2.219-18.6c0.3-2.34-3.239-3.96-7.079-3.96-6.78,0-10.92,4.561-11.82,4.561a0.57,0.57,0,0,1-.359-0.66c0-1.92,4.439-8.34,11.879-8.34,2.82,0,10.859,2.759,17.039,2.759,1.08,0,7.62-1.139,8.64-1.139,0.72,0,.9.239,0.9,0.72,0,0.78-2.1,4.859-11.159,4.859m-7.02,34.079c-3,0-17.7-2.46-17.459-18.239,0.119-4.321,3-10.86,4.919-10.86,0.3,0,.3.241,0.3,0.481A30.707,30.707,0,0,0,154.74,23.1c-0.121,6.24,6.419,14.459,16.558,14.459,6.78,0,14.22-5.1,14.459-5.1a0.517,0.517,0,0,1,.481.66c0,0.779-7.8,8.159-16.8,8.159" transform="translate(0 -0.001)" style="fill:#a29251"/><path d="M243.058,41.818a2.247,2.247,0,0,1-.84-0.3,98.75,98.75,0,0,0-12.48-5.281,41.4,41.4,0,0,0-5.7-1.8c-2.34,0-3.54,1.38-3.54,1.98,0,3.48,3.12,5.28,5.339,5.82,0.241,0.06.181,0.241,0.181,0.48,0,0.421-.48.841-1.381,0.841-2.1,0-6.42-3.661-6.42-6.42,0-3.481,4.381-4.981,7.02-4.981a19.858,19.858,0,0,1,5.76.78c8.4,2.521,15.54,7.74,15.54,8.1,0,0.66-3,.78-3.48.78m4.98-8.16c-0.6,0-.781-0.119-0.781-0.779,0-.42.54-0.3,0.54-1.74,0-1.2-3.12-3.66-7.019-3.66l-7.861-.06c-12.238-.12-12.959-4.08-12.959-5.521,0-3.478,1.02-3.659,1.321-3.659,0.059,0,.359.12,0.359,0.781,0,3.539,5.34,6.3,9.78,6.3l10.62,0.061c2.46,0,9.42.96,9.42,4.5,0,2.46-2.64,3.779-3.42,3.779m5.4,4.8c-0.119,0-.66,0-0.66-0.36a0.606,0.606,0,0,1,.36-0.661c1.681-1.02,4.38-4.86,4.38-5.94,0-9.779-9.84-11.818-12.959-11.939l-7.74-.24c-4.44-.12-10.619-0.36-10.619-6.12,0-6.479,8.638-11.459,12.9-11.459a3.186,3.186,0,0,1,1.86.72,33.382,33.382,0,0,0,7.2,3.54c0.66,0,2.279-2.34,3.119-2.34,0.78,0,.721,0,0.721.36,0,0.6-4.68,5.64-4.981,6.06-2.879-1.26-7.919-4.74-10.859-4.74-4.32,0-6.9,3.42-6.9,5.82,0,3.539,5.4,4.979,13.259,5.76,2.341,0.239,4.8.539,7.26,0.84,6.36,0.779,10.68,4.679,10.68,9.3,0,6.6-5.16,11.4-7.02,11.4" transform="translate(0 -0.001)" style="fill:#a29251"/><path d="M316.618,41.879c-11.519,0-18.6-8.64-18.6-14.339,0-13.741,9.9-18.719,9.9-21.18,0-.72-0.84-2.76-2.4-2.76-5.1,0-8.64,5.221-8.879,5.221-0.3,0-.42-0.361-0.42-0.781A10.894,10.894,0,0,1,298.8,2.22a6.248,6.248,0,0,1,3.84-1.5c0.66,0,7.02,2.821,9.24,2.821a1.061,1.061,0,0,1,.9.719c0,0.9-11.1,9.12-11.1,20.34,0,8.4,7.26,15.3,16.2,15.3,1.92,0,4.8-.24,4.739-0.24a0.7,0.7,0,0,1,.84.78c0,1.26-4.5,1.44-6.84,1.44m-3.359-14.4a15.921,15.921,0,0,1-.78,3.6c-0.3.72-1.2,0.841-1.2-.48L311.159,15.18a4.059,4.059,0,0,1,1.86-2.881c0.96-.779,1.74-1.558,1.86-1.558a0.506,0.506,0,0,1,.479.6Zm21.659,11.34c-1.021.96-1.92,1.859-2.46,1.859-1.38,0-3.78-4.019-3.78-7.138L328.8,7.321a1.027,1.027,0,0,0-.66-1.08,2.149,2.149,0,0,0-1.26-.9c-2.04,0-3.48,2.34-4.26,2.34-0.36,0-.42-0.12-0.42-0.48,0-.779.84-1.379,2.52-2.64,1.2-.9,2.88-3.179,3.42-3.179,0.24,0,2.46,1.979,3.3,1.979,0.959,0,3.78-2.7,4.74-2.7,0.3,0,.36.24,0.36,0.54,0,0.72-1.2,1.319-2.221,2.22A4,4,0,0,0,333,6.3V33.419c0,1.38.72,3.18,1.74,3.18a14.478,14.478,0,0,0,1.92-.3,0.34,0.34,0,0,1,.36.42,15.573,15.573,0,0,1-2.1,2.1" transform="translate(0 -0.001)" style="fill:#a29251"/><path d="M384.3,18.36c0,8.16-3.3,12.84-4.56,12.84-0.3,0-.48-0.181-0.48-0.661,0-.3.24-1.44,0.24-1.98a3.255,3.255,0,0,0-2.7-2.88c-0.061,0-4.38,1.5-4.38.12,0-1.68,1.739-2.279,3.6-2.76s4.62-.179,4.62-2.88a4.685,4.685,0,0,0-4.62-4.559c-1.441,0-4.441.84-4.441-.481,0-.479-0.84-1.74,7.38-1.74,3.78,0,6.36-9.779,6.36-10.079a0.78,0.78,0,0,0-.959-0.72c-1.38,0-2.88,1.62-4.981,1.62-2.64,0-2.88-1.74-6.419-1.74-1.56,0-2.94,1.14-2.94.3a3.18,3.18,0,0,1,3.36-2.58c2.579,0,3.119,1.08,6.6,1.08,4.92,0,4.559-1.14,7.619-1.14,1.5,0,1.74,0,1.38.96-1.5,4.08-4.68,8.879-4.68,17.28m14.1,17.819-5.58,5.28a1.3,1.3,0,0,1-.84.3,1.148,1.148,0,0,1-.6-0.18c-1.32-.9-5.1-4.8-10.2-4.8-7.56,0-8.819,3.839-9.839,3.839-0.36,0-.42-0.12-0.36-0.3,0.42-.78,5.4-6.119,13.619-6.119,6.06,0,7.38,2.519,9.3,2.519,0.9,0,2.52-1.92,2.7-2.1a1.245,1.245,0,0,1,.96-0.48,1.2,1.2,0,0,1,1.2,1.2,1.185,1.185,0,0,1-.36.841m12.9,1.5c-0.54.54-3.479,3.479-5.1,3.479-3.12,0-4.08-6.3-6.059-9.239-3.9-5.88-6.3-8.46-6.3-9.54,0-1.619,8.52-5.819,8.52-8.58,0-.6-0.781-1.139-1.56-2.039a3.913,3.913,0,0,0-2.04-1.56c-1.74,0-6.3,4.259-6.84,4.259a0.761,0.761,0,0,1-.72-0.6c0-.78,2.1-2.22,4.2-3.84,2.339-1.8,4.679-3.72,6-3.72,0.839,0,1.5,1.14,2.639,2.76,1.26,1.74,2.821,3.54,2.821,4.62,0,0.72-3,2.58-5.4,4.26-1.739,1.2-3.18,1.92-3.18,3.359,0,1.32,4.081,6.18,5.161,8.46,1.679,3.6,2.519,8.52,3.719,8.52a4.069,4.069,0,0,0,2.34-1.08,2.136,2.136,0,0,1,1.56-1.08,1.684,1.684,0,0,1,.66.24,0.7,0.7,0,0,1,.54.479,1.784,1.784,0,0,1-.96.841" transform="translate(0 -0.001)" style="fill:#a29251"/><path d="M470.1,1.621c-4.981,5.819-3.42,10.8-3.42,15.839,0,4.019,1.2,10.919,1.2,13.5,0,8.459-5.22,10.919-9.239,10.919-4.86,0-8.46-4.98-13.079-4.98a5.36,5.36,0,0,0-2.16.3,0.31,0.31,0,0,1-.361-0.361c0-.179.481-3.058,4.5-3.058,4.68,0,4.861,6.18,12,6.18a5.426,5.426,0,0,0,5.34-5.821c0-2.519-2.46-8.46-2.46-16.08,0-10.259,3.359-17.938,7.379-17.938a0.8,0.8,0,0,1,.78.54c0.12,0.179.24,0.059-.479,0.96M456.838,14.4l1.439,17.1a1.7,1.7,0,0,1-1.739,1.74,1.868,1.868,0,0,1-1.74-1.74c-0.96-4.68-.72-10.979-6.3-10.979-1.979,0-2.819,1.319-3.84,1.319a0.46,0.46,0,0,1-.479-0.6c0-1.98,4.919-4.14,6.059-4.14a2.6,2.6,0,0,0,2.82-2.28c0.48-2.64,1.74-6.12,2.22-9.06,0.3-1.74-1.74-1.439-2.34-1.439-1.44,0-3.6-.42-4.32,0a7.515,7.515,0,0,1-2.46,1.14c-0.42,0-.54-0.241-0.54-0.72,0-1.2,1.68-4.26,6.241-4.26,2.159,0,3.359.119,5.159,0.119a15.417,15.417,0,0,0,2.7-.539,0.607,0.607,0,0,1,.66.36c-0.3.48-4.08,7.559-3.54,13.979" transform="translate(0 -0.001)" style="fill:#a29251"/><path d="M14.28,108.36c0,8.159-3.3,12.839-4.56,12.839-0.3,0-.48-0.18-0.48-0.66,0-.3.24-1.44,0.24-1.98a3.255,3.255,0,0,0-2.7-2.88c-0.06,0-4.38,1.5-4.38.12,0-1.68,1.74-2.28,3.6-2.76s4.62-.179,4.62-2.88A4.684,4.684,0,0,0,6,105.6c-1.44,0-4.44.84-4.44-.481,0-.479-0.84-1.739,7.38-1.739,3.78,0,6.36-9.78,6.36-10.08a0.78,0.78,0,0,0-.96-0.72c-1.38,0-2.88,1.62-4.98,1.62-2.64,0-2.88-1.74-6.42-1.74-1.559,0-2.94,1.14-2.94.3a3.18,3.18,0,0,1,3.36-2.58c2.58,0,3.12,1.08,6.6,1.08,4.92,0,4.559-1.14,7.62-1.14,1.5,0,1.74,0,1.38.96-1.5,4.08-4.68,8.88-4.68,17.28m14.1,17.819L22.8,131.458a1.3,1.3,0,0,1-.84.3,1.151,1.151,0,0,1-.6-0.181c-1.319-.9-5.1-4.8-10.2-4.8-7.56,0-8.82,3.839-9.84,3.839-0.359,0-.42-0.12-0.359-0.3,0.42-.781,5.4-6.12,13.619-6.12,6.059,0,7.38,2.52,9.3,2.52,0.9,0,2.519-1.92,2.7-2.1a1.245,1.245,0,0,1,.959-0.479,1.2,1.2,0,0,1,1.2,1.2,1.185,1.185,0,0,1-.36.84m12.9,1.5c-0.541.54-3.48,3.479-5.1,3.479-3.121,0-4.08-6.3-6.06-9.239-3.9-5.88-6.3-8.46-6.3-9.54,0-1.62,8.52-5.819,8.52-8.579,0-.6-0.781-1.141-1.561-2.04a3.909,3.909,0,0,0-2.04-1.56c-1.739,0-6.3,4.259-6.839,4.259a0.761,0.761,0,0,1-.721-0.6c0-.781,2.1-2.22,4.2-3.84,2.34-1.8,4.68-3.72,6-3.72,0.839,0,1.5,1.14,2.64,2.76,1.26,1.74,2.82,3.54,2.82,4.62,0,0.72-3,2.58-5.4,4.26-1.74,1.2-3.18,1.92-3.18,3.359,0,1.32,4.081,6.18,5.161,8.46,1.679,3.6,2.519,8.52,3.718,8.52a4.066,4.066,0,0,0,2.34-1.08,2.139,2.139,0,0,1,1.561-1.081,1.69,1.69,0,0,1,.66.241,0.7,0.7,0,0,1,.539.48,1.787,1.787,0,0,1-.959.84" transform="translate(0 -0.001)" style="fill:#a29251"/><path d="M95.4,115.439a1.07,1.07,0,0,1-1.32.841l-9.36-.54a3.611,3.611,0,0,0-3.6,3.6,3.525,3.525,0,0,0,1.92,3.179l7.8,3.781a1.469,1.469,0,0,0,.72.239,0.923,0.923,0,0,0,.6-0.239l1.559-1.2a0.994,0.994,0,0,1,.72-0.3,1.05,1.05,0,0,1,1.019,1.019,1.024,1.024,0,0,1-.42.781L90.3,129.959a1.027,1.027,0,0,1-1.32,0L79.02,123.6a2.8,2.8,0,0,0-2.279,2.7c0,1.439.839,1.739,0.839,3.239a2.219,2.219,0,1,1-4.439,0,8.642,8.642,0,0,1,1.56-4.859l14.579-20.7a2.31,2.31,0,0,0,.541-1.32A1.87,1.87,0,0,0,87.96,100.8a5.793,5.793,0,0,0-3.84,1.92,1.353,1.353,0,0,1-.959.479,1.589,1.589,0,0,1-1.561-1.559c0-.96,2.76-3.96,7.561-3.96,1.619,0,5.638.24,5.638,3.179-0.059,2.4-7.019,8.76-7.079,10.5,0,0.18.06,0.3,0.72,0.3l6.24,0.18c0.9,0,.9,1.2.9,1.38Zm13.2,12.6c-2.34,1.86-4.26,3.24-5.64,3.24-2.04,0-3.119-2.58-3.119-7.679V103.8c0-6.12-4.381-10.741-10.44-10.741a26.437,26.437,0,0,0-6.72.721c-1.56.48-2.64,1.2-2.64,0.6a1.115,1.115,0,0,1,.661-0.96,17.343,17.343,0,0,1,9.6-2.941c5.7,0,9.839,3.96,11.64,3.96,1.5,0,4.559-4.139,5.76-4.139a0.889,0.889,0,0,1,.779,1.02c0.06,1.8-4.379,2.34-4.379,6.239l0.06,26.28c0,0.42.059,2.76,1.259,2.76,1.26,0,4.32-3.121,5.4-3.121a1.156,1.156,0,0,1,1.32.96c0,0.42-3.3,3.42-3.54,3.6" transform="translate(0 -0.001)" style="fill:#a29251"/><path d="M148.26,131.458a0.386,0.386,0,0,1-.239-0.42c0-.66,3.9-7.019,3.9-11.519a8.814,8.814,0,0,0-.6-2.88,5.809,5.809,0,0,0-5.04-2.52c-1.5,0-1.56.121-2.281,0.121-0.119,0-.42.059-0.42-0.181,0-1.2,4.08-2.22,6.241-2.22s2.46-1.5,2.46-2.76c0-.78-1.2-9-3.121-12.479-1.32-2.4-3.179-3.42-4.619-3.42-3,0-4.68,3.54-5.16,3.54a1.2,1.2,0,0,1-.06-0.6,7.992,7.992,0,0,1,1.74-4.02,6.458,6.458,0,0,1,4.439-2.4c4.141,0,10.44,6.239,10.44,21.178,0,10.38-6.059,20.579-7.68,20.579m18.84-9.9c-1.44,2.58-2.82,4.5-2.82,5.519,0,0.6.72,1.081,0.72,2.161,0,0.42-.24.54-0.72,0.66l-4.68,1.38c-0.359.12-.359-0.12-0.481-0.361l-1.259-2.759a0.663,0.663,0,0,1,.48-0.96c0.779-.121,3.54-0.6,4.32-1.26,1.44-1.14,5.1-7.5,5.1-17.64,0-6.239-2.28-14.518-4.68-14.518-0.9,0-2.16,1.139-2.52,1.139a0.894,0.894,0,0,1-.659-0.54c-0.061-.84,1.619-1.74,3.3-2.58a14.082,14.082,0,0,0,2.339-1.32,6.8,6.8,0,0,1,.42-0.6,1.739,1.739,0,0,1,.181.6c2.7,1.62,5.579,10.62,5.579,15.42,0,7.979-4.379,15.179-4.619,15.659m13.079,5.58c-2.64,3.54-5.88,4.739-6.659,4.739-0.961,0-.66-0.3-1.5-0.479s-0.9-1.14-1.02-1.5a4.867,4.867,0,0,1-.6-2.52c0-.3,1.92-0.66,2.7-0.66,2.7,0,.959.54,3.539,0.54,2.461,0,8.4-8.939,8.4-19.26,0-4.259-.9-13.439-4.32-13.439-1.08,0-2.1.66-2.64,0.66q-0.9,0-.9-0.54c0-.6,3.6-3.12,5.4-3.779,0.84-.3,1.26-0.841,1.5-0.841,1.381,0,4.681,8.22,4.681,13.439,0,6.9-4.2,17.76-8.58,23.64" transform="translate(0 -0.001)" style="fill:#a29251"/><path d="M245.4,115.439a1.07,1.07,0,0,1-1.32.841l-9.36-.54a3.61,3.61,0,0,0-3.6,3.6,3.524,3.524,0,0,0,1.919,3.179l7.8,3.781a1.473,1.473,0,0,0,.72.239,0.921,0.921,0,0,0,.6-0.239l1.559-1.2a0.994,0.994,0,0,1,.721-0.3,1.05,1.05,0,0,1,1.019,1.019,1.024,1.024,0,0,1-.42.781l-4.74,3.359a1.028,1.028,0,0,1-1.32,0L229.02,123.6a2.794,2.794,0,0,0-2.279,2.7c0,1.439.839,1.739,0.839,3.239a2.22,2.22,0,1,1-4.44,0,8.642,8.642,0,0,1,1.56-4.859l14.58-20.7a2.316,2.316,0,0,0,.54-1.32,1.87,1.87,0,0,0-1.861-1.859,5.788,5.788,0,0,0-3.839,1.92,1.356,1.356,0,0,1-.96.479,1.588,1.588,0,0,1-1.56-1.559c0-.96,2.76-3.96,7.56-3.96,1.62,0,5.639.24,5.639,3.179-0.06,2.4-7.019,8.76-7.08,10.5,0,0.18.061,0.3,0.721,0.3l6.239,0.18c0.9,0,.9,1.2.9,1.38Zm13.2,12.6c-2.341,1.86-4.261,3.24-5.64,3.24-2.04,0-3.12-2.58-3.12-7.679V103.8c0-6.12-4.38-10.741-10.439-10.741a26.426,26.426,0,0,0-6.72.721c-1.56.48-2.641,1.2-2.641,0.6a1.115,1.115,0,0,1,.661-0.96,17.348,17.348,0,0,1,9.6-2.941c5.7,0,9.84,3.96,11.64,3.96,1.5,0,4.559-4.139,5.76-4.139a0.89,0.89,0,0,1,.78,1.02c0.06,1.8-4.38,2.34-4.38,6.239l0.06,26.28c0,0.42.06,2.76,1.259,2.76,1.261,0,4.321-3.121,5.4-3.121a1.157,1.157,0,0,1,1.32.96c0,0.42-3.3,3.42-3.54,3.6" transform="translate(0 -0.001)" style="fill:#a29251"/><path d="M318.3,131.818a2.227,2.227,0,0,1-.84-0.3,98.812,98.812,0,0,0-12.48-5.281,41.447,41.447,0,0,0-5.7-1.8c-2.34,0-3.54,1.38-3.54,1.981,0,3.479,3.12,5.279,5.339,5.819,0.241,0.06.18,0.241,0.18,0.48,0,0.421-.479.841-1.38,0.841-2.1,0-6.42-3.661-6.42-6.42,0-3.481,4.38-4.98,7.021-4.98a19.865,19.865,0,0,1,5.76.779c8.4,2.521,15.539,7.741,15.539,8.1,0,0.66-3,.78-3.48.78m4.98-8.16c-0.6,0-.781-0.119-0.781-0.779,0-.42.54-0.3,0.54-1.74,0-1.2-3.12-3.66-7.019-3.66l-7.86-.06c-12.24-.12-12.96-4.08-12.96-5.52,0-3.48,1.021-3.66,1.321-3.66,0.059,0,.359.12,0.359,0.781,0,3.54,5.34,6.3,9.78,6.3l10.62,0.06c2.46,0,9.42.96,9.42,4.5,0,2.46-2.64,3.779-3.42,3.779m5.4,4.8c-0.12,0-.66,0-0.66-0.359a0.605,0.605,0,0,1,.36-0.661c1.68-1.019,4.38-4.859,4.38-5.939,0-9.78-9.84-11.82-12.959-11.939l-7.74-.241c-4.44-.12-10.619-0.36-10.619-6.12,0-6.479,8.639-11.459,12.9-11.459a3.183,3.183,0,0,1,1.86.72A33.382,33.382,0,0,0,323.4,96c0.66,0,2.279-2.34,3.12-2.34,0.779,0,.72,0,0.72.36,0,0.6-4.68,5.639-4.981,6.059-2.879-1.26-7.919-4.739-10.859-4.739-4.32,0-6.9,3.42-6.9,5.819,0,3.54,5.4,4.981,13.26,5.76,2.34,0.24,4.8.54,7.26,0.84,6.359,0.78,10.679,4.68,10.679,9.3,0,6.6-5.16,11.4-7.02,11.4" transform="translate(0 -0.001)" style="fill:#a29251"/><path d="M391.858,131.879c-11.519,0-18.6-8.64-18.6-14.339,0-13.74,9.9-18.72,9.9-21.18,0-.72-0.84-2.76-2.4-2.76-5.1,0-8.64,5.22-8.879,5.22-0.3,0-.42-0.359-0.42-0.779a10.893,10.893,0,0,1,2.579-5.821,6.248,6.248,0,0,1,3.84-1.5c0.66,0,7.02,2.821,9.24,2.821a1.061,1.061,0,0,1,.9.719c0,0.9-11.1,9.121-11.1,20.339,0,8.4,7.26,15.3,16.2,15.3,1.92,0,4.8-.24,4.739-0.24a0.7,0.7,0,0,1,.84.78c0,1.26-4.5,1.44-6.84,1.44m-3.359-14.4a15.942,15.942,0,0,1-.78,3.6c-0.3.719-1.2,0.84-1.2-.481L386.4,105.18a4.055,4.055,0,0,1,1.86-2.88c0.96-.78,1.74-1.56,1.86-1.56a0.507,0.507,0,0,1,.479.6Zm21.659,11.34c-1.021.96-1.92,1.86-2.46,1.86-1.38,0-3.78-4.02-3.78-7.139l0.12-26.22a1.029,1.029,0,0,0-.66-1.08,2.152,2.152,0,0,0-1.26-.9c-2.04,0-3.48,2.34-4.26,2.34-0.36,0-.42-0.12-0.42-0.479,0-.78.84-1.381,2.52-2.641,1.2-.9,2.88-3.179,3.42-3.179,0.24,0,2.46,1.98,3.3,1.98,0.959,0,3.78-2.7,4.74-2.7,0.3,0,.36.24,0.36,0.54,0,0.72-1.2,1.319-2.221,2.22a4,4,0,0,0-1.319,2.879v27.12c0,1.379.72,3.179,1.74,3.179a14.478,14.478,0,0,0,1.92-.3,0.34,0.34,0,0,1,.36.42,15.573,15.573,0,0,1-2.1,2.1" transform="translate(0 -0.001)" style="fill:#a29251"/><path d="M496.077,93.84a7.917,7.917,0,0,0-2.76,5.1V124.2c0,1.681-.24,3.84,1.2,3.84,1.081,0,1.141-.54,2.22-0.54a0.638,0.638,0,0,1,.66.78,2.872,2.872,0,0,1-1.319.96,22.692,22.692,0,0,1-4.021,1.981c-0.54,0-3-.66-3-6.42V98.1a7.342,7.342,0,0,0-1.8-4.68,2.067,2.067,0,0,0-1.619-.72c-0.421,0-1.141.24-4.141,1.619l-5.52,2.581-0.059,7.8c0,0.96.359,2.821,1.859,2.821h4.561c0.539,0,1.2,0,1.2.54a6.717,6.717,0,0,1-1.56,2.1,7.668,7.668,0,0,1-2.339,1.44c-0.241,0-3.121-.48-3.121,1.32l-0.12,10.859a3.84,3.84,0,0,0,1.8,2.941,9,9,0,0,0,3.78-1.74,1.189,1.189,0,0,1,.54-0.241,0.731,0.731,0,0,1,.78.54,0.541,0.541,0,0,1-.3.6l-7.38,5.039a1.932,1.932,0,0,1-1.079.36,2.2,2.2,0,0,1-1.08-.66c-1.8-1.92-2.64-2.34-2.64-3.359,0-.54.959-1.2,0.959-2.641s-0.119-7.619.12-9.3c0.241-1.74-.179-3.48-1.92-3.419-1.619.059-2.339-.42-4.739-0.181-0.54.06-1.2,0-1.2-.48a10.384,10.384,0,0,1,1.68-3.059,4.816,4.816,0,0,1,3.06-.721c0.96,0,2.94.24,2.94-2.159l0.12-9.9c0-2.28-.6-3.06-1.981-2.94a13.716,13.716,0,0,0-3.119,1.08l-5.1,2.94c-1.981,1.14-3.361,3.719-3.481,8.88-0.12,4.559-.12,10.8-0.18,15.179-0.06,4.68-1.259,4.92-1.32,6.959,0,0.6,1.2.841,1.86,0.841,0.3,0,1.68-.42,2.46-0.42,0.42,0,.661.119,0.661,0.359,0,0.84-1.5,2.821-3.84,2.821-1.741,0-3.241-.361-5.34-0.361-3.3,0-4.981,1.8-6.72,1.8a0.754,0.754,0,0,1-.9-0.6c0-1.26,1.559-2.4,4.08-3.42,2.76-1.08,5.819-3.9,5.819-6.36,0.061-5.82-3.54-8.46-6.239-8.46-0.42,0-.96.42-1.26,0.42-0.181,0-.24-0.179-0.24-0.6,0-1.14,2.16-2.28,3.059-2.76,1.26-.659,4.081-0.48,4.14-2.88,0.061-4.439,3.24-10.8,6-12.419l9-5.4a5.432,5.432,0,0,1,3.3-1.079c1.14,0,3,3.239,3.54,4.559a0.966,0.966,0,0,0,.9.84,5.454,5.454,0,0,0,1.861-.84l6.059-3.06a6.228,6.228,0,0,1,2.82-.9c2.04,0,3.3,3.24,5.879,3.24,1.8,0,3.42-2.1,5.521-2.1,0.119,0,.3.24,0.3,1.02,0,0.3-1.8.96-3.3,2.1" transform="translate(0 -0.001)" style="fill:#a29251"/><path d="M558.238,91.621c-4.981,5.819-3.42,10.8-3.42,15.839,0,4.02,1.2,10.919,1.2,13.5,0,8.459-5.22,10.919-9.239,10.919-4.86,0-8.46-4.98-13.079-4.98a5.36,5.36,0,0,0-2.16.3,0.309,0.309,0,0,1-.361-0.36c0-.18.481-3.06,4.5-3.06,4.68,0,4.861,6.18,12,6.18a5.425,5.425,0,0,0,5.34-5.82c0-2.519-2.46-8.46-2.46-16.079,0-10.26,3.359-17.939,7.379-17.939a0.8,0.8,0,0,1,.78.54c0.12,0.179.24,0.059-.479,0.96M544.979,104.4l1.439,17.1a1.7,1.7,0,0,1-1.739,1.739,1.868,1.868,0,0,1-1.74-1.739c-0.96-4.68-.72-10.98-6.3-10.98-1.979,0-2.819,1.319-3.84,1.319a0.46,0.46,0,0,1-.479-0.6c0-1.981,4.919-4.14,6.059-4.14a2.6,2.6,0,0,0,2.82-2.28c0.48-2.64,1.74-6.12,2.22-9.06,0.3-1.74-1.74-1.44-2.34-1.44-1.44,0-3.6-.42-4.32,0a7.5,7.5,0,0,1-2.46,1.141c-0.42,0-.54-0.241-0.54-0.72,0-1.2,1.68-4.261,6.241-4.261,2.159,0,3.359.12,5.159,0.12a15.32,15.32,0,0,0,2.7-.54,0.609,0.609,0,0,1,.66.361c-0.3.48-4.08,7.559-3.54,13.979" transform="translate(0 -0.001)" style="fill:#a29251"/></svg>