<svg xmlns="http://www.w3.org/2000/svg" viewBox="0 0 75.555 75.445"><title>chara_wep_6</title><path d="M53.309,34.31c2.81,0.113,2.577.155,5.387,0.347,5.619,0.306,11.239.756,16.858,1.617-5.619.861-11.239,1.311-16.858,1.617-2.81.192-2.577,0.234-5.387,0.347" style="fill:#2b4d3f"/><polygon points="61.367 40.974 63.664 36.274 61.367 31.575 59.07 36.274 61.367 40.974" style="fill:#2b4d3f"/><path d="M22.245,34.31c-2.81.113-2.577,0.155-5.387,0.347C11.239,34.963,5.619,35.414,0,36.274c5.619,0.861,11.239,1.311,16.858,1.617,2.81,0.192,2.577.234,5.387,0.347" style="fill:#2b4d3f"/><polygon points="14.187 40.974 11.89 36.274 14.187 31.575 16.485 36.274 14.187 40.974" style="fill:#2b4d3f"/><path d="M37.777,46.946a6.973,6.973,0,0,0,2.45-.871A25.179,25.179,0,0,0,42.5,44.685c1.48-1,2.9-2.1,4.319-3.211l4.239-3.395c0.714-.568,1.434-1.134,2.181-1.691A21,21,0,0,1,55.7,34.762v3.025a21,21,0,0,1-2.454-1.626c-0.747-.557-1.468-1.124-2.181-1.691l-4.239-3.395c-1.415-1.114-2.839-2.21-4.319-3.211a25.178,25.178,0,0,0-2.276-1.391,6.973,6.973,0,0,0-2.45-.871V25.248a7.435,7.435,0,0,1,2.743.561,26.042,26.042,0,0,1,2.534,1.105c1.648,0.812,3.236,1.719,4.807,2.641l4.669,2.788c0.774,0.459,1.547.91,2.317,1.335a18.1,18.1,0,0,0,2.237,1.084l4.042,1.513-4.041,1.513a18.094,18.094,0,0,0-2.237,1.084c-0.77.424-1.543,0.876-2.317,1.335l-4.669,2.788c-1.572.921-3.16,1.828-4.807,2.641a26.046,26.046,0,0,1-2.534,1.1,7.435,7.435,0,0,1-2.743.561V46.946Z" style="fill:#2b4d3f"/><path d="M37.777,47.3a7.435,7.435,0,0,1-2.743-.561,26.046,26.046,0,0,1-2.534-1.1c-1.648-.812-3.236-1.719-4.807-2.641l-4.669-2.788c-0.774-.459-1.547-0.91-2.317-1.335a18.094,18.094,0,0,0-2.237-1.084l-4.042-1.513,4.042-1.513a18.1,18.1,0,0,0,2.237-1.084c0.77-.424,1.543-0.876,2.317-1.335l4.669-2.788c1.572-.921,3.16-1.828,4.807-2.641a26.042,26.042,0,0,1,2.534-1.105,7.435,7.435,0,0,1,2.743-.561V25.6a6.973,6.973,0,0,0-2.45.871,25.179,25.179,0,0,0-2.276,1.391c-1.48,1-2.9,2.1-4.319,3.211L24.493,34.47c-0.714.568-1.434,1.134-2.181,1.691a21,21,0,0,1-2.454,1.626V34.762a21,21,0,0,1,2.454,1.626c0.747,0.557,1.468,1.124,2.181,1.691l4.239,3.395c1.415,1.114,2.839,2.21,4.319,3.211a25.178,25.178,0,0,0,2.276,1.391,6.973,6.973,0,0,0,2.45.871V47.3Z" style="fill:#2b4d3f"/><path d="M33.517,32.945a0.162,0.162,0,0,1,.119-0.05l1.594-.008a1.509,1.509,0,0,1,.574-0.019,0.191,0.191,0,0,1,.007.233,2.415,2.415,0,0,0-.566.4,3.493,3.493,0,0,0-.362,1.635l-0.019.247a6.823,6.823,0,0,0,.7,3.594c0.222,0.414.4,0.733,0.573,1a0.19,0.19,0,0,1,0,.224,0.274,0.274,0,0,1-.033.03,0.216,0.216,0,0,1-.255-0.04c-0.257-.224-0.449-0.4-0.58-0.527a31.659,31.659,0,0,1-3.018-3.165c-0.062-.083-0.12-0.162-0.174-0.238a0.2,0.2,0,0,1-.025-0.217l0.021-.028a0.176,0.176,0,0,1,.188-0.038,1.386,1.386,0,0,0,1.529-.2l0.04-.045a1.243,1.243,0,0,0,.144-0.217l0.084-.183a2.113,2.113,0,0,0-.009-1.612,1.219,1.219,0,0,0-.448-0.465,0.271,0.271,0,0,1-.127-0.2,0.164,0.164,0,0,1,.036-0.116Z" style="fill:#2b4d3f"/><path d="M42.038,32.945a0.162,0.162,0,0,0-.119-0.05l-1.594-.008a1.509,1.509,0,0,0-.574-0.019,0.191,0.191,0,0,0-.007.233,2.415,2.415,0,0,1,.566.4,3.493,3.493,0,0,1,.362,1.635l0.019,0.247a6.823,6.823,0,0,1-.7,3.594c-0.222.414-.4,0.733-0.573,1a0.19,0.19,0,0,0,0,.224,0.274,0.274,0,0,0,.033.03A0.216,0.216,0,0,0,39.7,40.2c0.257-.224.449-0.4,0.58-0.527A31.659,31.659,0,0,0,43.3,36.506c0.062-.083.12-0.162,0.174-0.238a0.2,0.2,0,0,0,.025-0.217l-0.021-.028a0.176,0.176,0,0,0-.188-0.038,1.386,1.386,0,0,1-1.529-.2l-0.04-.045a1.243,1.243,0,0,1-.144-0.217l-0.084-.183a2.113,2.113,0,0,1,.009-1.612,1.219,1.219,0,0,1,.448-0.465,0.271,0.271,0,0,0,.127-0.2,0.164,0.164,0,0,0-.036-0.116Z" style="fill:#2b4d3f"/><path d="M15.641,13.994l-4.021-.056c-0.026.088-.053,0.176-0.079,0.264a11.432,11.432,0,0,0,3.733,2.369,30.572,30.572,0,0,0,4.454,1.077c-1.1.635-2.13,1.256-3.19,1.827a1,1,0,0,1-.73-0.023,4.857,4.857,0,0,0-3.68.122c-0.65.262-1.269,0.6-1.9,0.9L10.3,20.736l3.048,0.018c-1.223,1.179-2.3,2.2-2.611,3.83A5.6,5.6,0,0,0,15.7,21.355a5.408,5.408,0,0,1,2.7-2.54c0.2-.116.391-0.238,0.6-0.341a3.96,3.96,0,0,1,2.386-.418,11.824,11.824,0,0,0,5.136-.133,25.583,25.583,0,0,0,3.795-2.309,5.261,5.261,0,0,1,.672-0.274l0.1,0.185a18.389,18.389,0,0,0-2.718,2.6,4.12,4.12,0,0,0-.313,3.794c0.645-.592,1.128-1.108,1.681-1.529a3.834,3.834,0,0,0,1.644-3.408,2.944,2.944,0,0,1,1.676-3.018,16.4,16.4,0,0,0,1.866-1.312,1.126,1.126,0,0,0,.091-0.58,1.373,1.373,0,0,0-.583.075c-0.539.376-1.033,0.818-1.57,1.2a1.562,1.562,0,0,1-2.014-.312,2.826,2.826,0,0,0-1.842-1.465,8.648,8.648,0,0,0-4.584-.015c0.612,0.451,1.024.77,1.451,1.067,1.413,0.98,2.853,1.8,4.69,1.163a2.962,2.962,0,0,1,1.186.129c0.019,0.088.038,0.177,0.057,0.266-1.09.727-2.2,1.431-3.268,2.188a6.257,6.257,0,0,1-4.336,1.391c-0.836-.027-2.149-0.966-2-1.663,0.445-2.125-.728-3.377-2.31-4.415-0.417-.274-0.885-0.469-1.334-0.7,0.043,3.233,2.334,4.9,4.341,6.826a7.9,7.9,0,0,1-2.087-.185A1.545,1.545,0,0,1,19.5,15.952a4.712,4.712,0,0,0-.594-1.985,6.964,6.964,0,0,0-3.72-2.925,3.683,3.683,0,0,0-.92-0.15Z" style="fill:#2b4d3f;fill-rule:evenodd"/><path d="M61.293,10.892a3.683,3.683,0,0,0-.92.15,6.964,6.964,0,0,0-3.72,2.925,4.712,4.712,0,0,0-.594,1.985,1.545,1.545,0,0,1-1.318,1.665,7.9,7.9,0,0,1-2.087.185c2.008-1.927,4.3-3.594,4.341-6.826-0.449.234-.917,0.43-1.334,0.7-1.582,1.039-2.755,2.29-2.31,4.415,0.146,0.7-1.167,1.636-2,1.663a6.257,6.257,0,0,1-4.336-1.391c-1.07-.757-2.178-1.461-3.268-2.188,0.019-.089.038-0.177,0.057-0.266a2.962,2.962,0,0,1,1.186-.129c1.837,0.633,3.277-.183,4.69-1.163,0.428-.3.84-0.616,1.451-1.067a8.648,8.648,0,0,0-4.584.015A2.826,2.826,0,0,0,44.7,13.034a1.562,1.562,0,0,1-2.014.312c-0.537-.381-1.03-0.823-1.57-1.2a1.373,1.373,0,0,0-.583-0.075,1.126,1.126,0,0,0,.091.58,16.4,16.4,0,0,0,1.866,1.312,2.944,2.944,0,0,1,1.676,3.018,3.834,3.834,0,0,0,1.644,3.408c0.554,0.421,1.037.937,1.681,1.529a4.12,4.12,0,0,0-.313-3.794,18.389,18.389,0,0,0-2.718-2.6l0.1-.185a5.261,5.261,0,0,1,.672.274,25.583,25.583,0,0,0,3.795,2.309,11.824,11.824,0,0,0,5.136.133,3.96,3.96,0,0,1,2.386.418c0.2,0.1.4,0.225,0.6,0.341a5.408,5.408,0,0,1,2.7,2.54,5.6,5.6,0,0,0,4.961,3.229c-0.316-1.632-1.388-2.651-2.611-3.83l3.048-.018,0.077-.261c-0.633-.3-1.253-0.641-1.9-0.9a4.857,4.857,0,0,0-3.68-.122,1,1,0,0,1-.73.023c-1.06-.571-2.093-1.192-3.19-1.827a30.572,30.572,0,0,0,4.454-1.077A11.432,11.432,0,0,0,64.013,14.2c-0.026-.088-0.052-0.176-0.079-0.264l-4.021.056Z" style="fill:#2b4d3f;fill-rule:evenodd"/><path d="M53.082,48.832a14.4,14.4,0,0,0-9.687,15.591l-2.475,5.015a0.727,0.727,0,0,0,.067.518,2.726,2.726,0,0,1-1.11,4.606c-0.444.14,0.157,0.883,0.246,0.883a4.76,4.76,0,0,0,4.385-3.658c0.732-2.319.045-4.8-.29-7.175L46.148,60.7a1.153,1.153,0,0,0-.009-0.606l-1.155-2.259a0.452,0.452,0,0,0-.038-0.059,14.086,14.086,0,0,1,8.331-8.145C53.774,49.456,53.583,48.653,53.082,48.832Z" style="fill:#2b4d3f"/><path d="M22.277,49.634a14.086,14.086,0,0,1,8.331,8.145,0.452,0.452,0,0,0-.038.059L29.416,60.1a1.153,1.153,0,0,0-.009.606l1.929,3.909c-0.335,2.377-1.022,4.856-.29,7.175a4.76,4.76,0,0,0,4.385,3.658c0.089,0,.69-0.743.246-0.883a2.726,2.726,0,0,1-1.11-4.606,0.727,0.727,0,0,0,.067-0.518L32.16,64.423a14.4,14.4,0,0,0-9.687-15.591C21.971,48.653,21.781,49.456,22.277,49.634Z" style="fill:#2b4d3f"/><path d="M62.829,49.9c-0.945-.266-2.34-0.621-3.012-0.719,0.434,0.548,1.43,1.57,2.129,2.25L61.78,53.828l1.836-1.236c2.6,1.231,5.819,2.6,8.373,3.621-2.127-1.674-4.951-3.8-7.322-5.441l0.152-2.208Z" style="fill:#2b4d3f"/><path d="M54.585,59.557c-0.685-.7-1.716-1.708-2.249-2.129,0.1,0.692.454,2.075,0.718,3.013l-1.34,1.99,2.208-.152c1.64,2.369,3.74,5.16,5.441,7.322-1-2.513-2.388-5.766-3.621-8.373l1.236-1.836Z" style="fill:#2b4d3f"/><path d="M12.725,49.9c0.945-.266,2.34-0.621,3.012-0.719-0.434.548-1.43,1.57-2.129,2.25l0.165,2.393-1.836-1.236c-2.6,1.231-5.819,2.6-8.373,3.621,2.127-1.674,4.951-3.8,7.322-5.441l-0.152-2.208Z" style="fill:#2b4d3f"/><path d="M20.97,59.557c0.685-.7,1.716-1.708,2.249-2.129-0.1.692-.454,2.075-0.718,3.013l1.34,1.99-2.208-.152c-1.64,2.369-3.74,5.16-5.441,7.322,1-2.513,2.388-5.766,3.621-8.373l-1.236-1.836Z" style="fill:#2b4d3f"/><path d="M38.438,16.783c-0.013-.07-0.2-5.142,1.766-6.9a14.236,14.236,0,0,1,3.088-1.844A17.752,17.752,0,0,0,46.6,5.929,3.387,3.387,0,0,0,47.673,4.6c0.475-1.262-.208-2.979-0.932-4.013A0.381,0.381,0,0,1,47.2.018a2.616,2.616,0,0,1,1.046,1.039,4.43,4.43,0,0,1,.646,3,7.105,7.105,0,0,1-2.222,3.979,28.746,28.746,0,0,1-3.687,2.811,15.489,15.489,0,0,0-3,2.58A3.991,3.991,0,0,0,39.3,16.4a0.484,0.484,0,0,1,.022.149l0.005,0.036A0.457,0.457,0,0,1,38.438,16.783Z" style="fill:#2b4d3f"/><path d="M37.117,16.783c0.013-.07.2-5.142-1.766-6.9a14.236,14.236,0,0,0-3.088-1.844,17.752,17.752,0,0,1-3.31-2.105A3.387,3.387,0,0,1,27.882,4.6c-0.475-1.262.208-2.979,0.932-4.013A0.381,0.381,0,0,0,28.354.018a2.616,2.616,0,0,0-1.046,1.039,4.43,4.43,0,0,0-.646,3,7.105,7.105,0,0,0,2.222,3.979,28.746,28.746,0,0,0,3.687,2.811,15.489,15.489,0,0,1,3,2.58,3.991,3.991,0,0,1,.679,2.97,0.484,0.484,0,0,0-.022.149l-0.005.036A0.457,0.457,0,0,0,37.117,16.783Z" style="fill:#2b4d3f"/></svg>