<svg xmlns="http://www.w3.org/2000/svg" viewBox="0 0 51.968 70.523"><title>chara_wep_5</title><path d="M3.309,70.321A0.708,0.708,0,0,1,3,69.993L2.871,69.7,3.1,69.383a1.506,1.506,0,0,0,.208-0.4,6.265,6.265,0,0,0-.014-2.325l-0.012-.107a1.406,1.406,0,0,1,.283-1.163l0.058-.1c-0.081-.55-0.324-1.651-0.6-2.9C2.556,60.3,1.981,57.693,1.652,55.468a37.055,37.055,0,0,1-.011-7.517l-1.195.789-0.154-.776c-1.134-5.7,1.4-12.67,1.424-12.734a0.713,0.713,0,0,1,.815-0.5h0c0.214-1.222.816-3.513,1.049-4.386a2.843,2.843,0,0,1,.473-1.259,2.544,2.544,0,0,1,.3-1.986,2.547,2.547,0,0,1,1.565-1.25,2.868,2.868,0,0,1,.858-1.039c0.64-.64,2.323-2.305,3.274-3.1l-0.027-.032a0.709,0.709,0,0,1,.051-0.928c0.043-.055,4.815-5.733,10.317-7.6l0.749-.254-0.086,1.429a37,37,0,0,1,6.515-3.748c2.093-.828,4.635-1.632,6.677-2.279,1.224-.386,2.3-0.726,2.815-0.93l0.057-.1a1.4,1.4,0,0,1,.866-0.826l0.1-.043a6.206,6.206,0,0,0,2.021-1.151,1.545,1.545,0,0,0,.239-0.378l0.119-.3,0.365-.1a0.7,0.7,0,0,1,.435.108,1.634,1.634,0,0,1,.438.391,0.723,0.723,0,0,1,.081.957C41.74,6,41.628,6.191,41.458,6.482c-1.766,3.026-2.534,4.3-2.743,4.534a1.2,1.2,0,0,1-1.034.572,1.12,1.12,0,0,1-.345-0.1L7.327,63.466a1.092,1.092,0,0,1,.258.247A1.2,1.2,0,0,1,7.607,64.9c-0.1.3-.818,1.6-2.555,4.643-0.167.292-.279,0.487-0.3,0.525a0.736,0.736,0,0,1-.886.441,1.616,1.616,0,0,1-.558-0.184M4.622,45.8c-1.968,9.93,1.1,15.926,1.73,17.012L36.284,10.969c-1.259,0-7.984.343-15.6,7.009-0.177,1.272-.246,1.8-0.257,1.908a0.906,0.906,0,0,1-.495.789,2.519,2.519,0,0,1-.476.145,9.269,9.269,0,0,0-3.712,1.636,5.7,5.7,0,0,0-1.753,2.371,10.422,10.422,0,0,0-.145,1.627,10.767,10.767,0,0,1-.132,1.534,10.6,10.6,0,0,1-1.482,3.66,10.44,10.44,0,0,1-2.381,3.068,10.046,10.046,0,0,1-1.311.927,10.533,10.533,0,0,0-1.336.938,5.721,5.721,0,0,0-1.177,2.7,9.285,9.285,0,0,0,.44,4.033,2.4,2.4,0,0,1,.112.484,0.9,0.9,0,0,1-.421.813c-0.1.071-.525,0.4-1.539,1.186M5.585,30.935a8.793,8.793,0,0,0-.09.989,7.17,7.17,0,0,0,.4,2.3,7.608,7.608,0,0,0,2.323-1.755A10.564,10.564,0,0,0,9.73,30.259l0.02-.045,0.03-.042a10.613,10.613,0,0,0,1.154-2.416,7.634,7.634,0,0,0,.359-2.889,7.187,7.187,0,0,0-2.188.805,9.3,9.3,0,0,0-.812.572,1.5,1.5,0,0,1-.163.579c-0.057.112-.1,0.2-0.14,0.27a3.212,3.212,0,0,1-.374,1.844,3.37,3.37,0,0,1-1.447,1.311c-0.042.066-.1,0.152-0.166,0.259a1.436,1.436,0,0,1-.418.428" transform="translate(0 0.001)" style="fill:#a29251"/><path d="M44.7,55.632l-2.056-.4L17.52,11.723c0.122-.835.262-1.614,0.427-2.272l-6.9-8.4L9.836,0l0.3,1.576L13.966,11.75c0.652,0.185,1.4.454,2.18,0.766l25.12,43.509-0.68,1.98,6.173,11.962,1.384-3.618,3.825,0.61Z" transform="translate(0 0.001)" style="fill:#a29251"/></svg>