<svg xmlns="http://www.w3.org/2000/svg" viewBox="0 0 596.756 50.399"><title>chara_name_1</title><path d="M21.36,44.7c-0.36,0-4.68-4.62-11.76-4.62-3.779,0-8.219,2.82-8.7,2.82a0.658,0.658,0,0,1-.54-0.66,10.606,10.606,0,0,1,2.759-2.82,12.874,12.874,0,0,1,5.521-1.98c0.719,0,2.639-.36,2.639-1.62,0-2.76-2.28-6.239-4.68-8.279C3.481,24.9,0,23.819,0,22.2,0,21.6.721,21,2.1,21c3.6,0,6.179,3.719,7.62,3.719,0.42,0,.84-0.059.84-1.679L10.62,14.1c0.06-6.719-5.28-7.26-7.559-7.26-1.74,0-2.04,0-2.04-.66,0-1.559,3.239-2.16,4.92-2.16,1.979,0,9.119,1.441,9.119,11.58v18.24c0,3.36.9,3.54,1.38,3.78C22.5,40.438,22.2,40.5,23.16,40.5c1.62,0,3.959-2.76,4.32-2.76,1.019,0,.719.24,0.719,0.3,0,1.08-6.539,6.659-6.839,6.659m15.9-2.88a2.94,2.94,0,0,1-2.52-2.1c-0.84-2.28-1.2-4.259-2.16-6.359a27.9,27.9,0,0,0-4.139-6.78c-2.16-1.74-3.66-2.1-5.04-2.1-0.3,0-.6.181-0.84,0.181a0.7,0.7,0,0,1-.72-0.48c0-.36,2.64-2.34,3.66-2.881,3.36-1.859,5.82-4.019,5.82-4.739,0-.9-2.04-2.82-3.96-5.22-1.68-2.1-3.36-3.9-4.02-3.9-1.02,0-2.04,1.141-3.24,1.86-0.72,0-.72-0.12-0.72-0.419,0-.841,6-4.92,6.659-4.92,1.021,0,3.42,3.479,5.88,6.42,1.98,2.339,3.66,4.019,3.66,4.5,0,0.839-4.679,4.08-6.12,5.041a2.11,2.11,0,0,0-1.08,1.919c0,1.44,2.34,1.379,4.381,3.84A19.311,19.311,0,0,1,35.7,29.818a30.265,30.265,0,0,1,1.98,6.84c0.24,1.44,1.08,2.221,1.92,2.221,1.2,0,2.28-1.141,2.94-1.141a0.8,0.8,0,0,1,.9.6c0,0.6-4.2,3.48-6.18,3.48" transform="translate(0 0)" style="fill:#2d4e40"/><path d="M98.759,25.978a1.068,1.068,0,0,1-1.32.84l-9.36-.539a3.611,3.611,0,0,0-3.6,3.6,3.525,3.525,0,0,0,1.92,3.179l7.8,3.78a1.46,1.46,0,0,0,.72.24,0.919,0.919,0,0,0,.6-0.24l1.559-1.2a0.994,0.994,0,0,1,.72-0.3,1.05,1.05,0,0,1,1.019,1.019,1.024,1.024,0,0,1-.42.781L93.659,40.5a1.027,1.027,0,0,1-1.32,0l-9.96-6.359a2.794,2.794,0,0,0-2.279,2.7c0,1.44.839,1.74,0.839,3.24a2.219,2.219,0,1,1-4.439,0,8.645,8.645,0,0,1,1.56-4.859l14.579-20.7a2.31,2.31,0,0,0,.541-1.32,1.87,1.87,0,0,0-1.861-1.859,5.793,5.793,0,0,0-3.84,1.92,1.353,1.353,0,0,1-.959.479,1.589,1.589,0,0,1-1.561-1.559c0-.96,2.76-3.96,7.561-3.96,1.619,0,5.638.24,5.638,3.179-0.059,2.4-7.019,8.76-7.079,10.5,0,0.18.06,0.3,0.72,0.3l6.24,0.18c0.9,0,.9,1.2.9,1.381Zm13.2,12.6c-2.34,1.86-4.26,3.24-5.64,3.24-2.04,0-3.119-2.58-3.119-7.679V14.34C103.2,8.22,98.818,3.6,92.759,3.6a26.437,26.437,0,0,0-6.72.721c-1.56.48-2.64,1.2-2.64,0.6a1.117,1.117,0,0,1,.661-0.96,17.343,17.343,0,0,1,9.6-2.941c5.7,0,9.839,3.961,11.64,3.961,1.5,0,4.559-4.14,5.76-4.14a0.889,0.889,0,0,1,.779,1.019c0.06,1.8-4.379,2.34-4.379,6.24l0.06,26.28c0,0.42.059,2.76,1.259,2.76,1.26,0,4.32-3.121,5.4-3.121a1.156,1.156,0,0,1,1.32.96c0,0.42-3.3,3.42-3.54,3.6" transform="translate(0 0)" style="fill:#2d4e40"/><path d="M162.058,50.278c-3.539-.061-4.38.059-4.38-1.32,0-2.46-.12-5.46-0.059-8.1a3.4,3.4,0,0,0-1.92-2.04c-0.721,0-2.1.721-3.96,1.141-2.76.6-3.96,1.679-4.38,1.679-0.48,0-.54,0-0.54-0.48,0-1.44,5.1-5.7,7.62-6,3.36-.42,2.64-1.26,3-5.34a5.389,5.389,0,0,0-1.621-3.84c-0.18-.18-5.459-4.139-6.359-4.139-0.84,0-1.86.3-1.86-.48,0-.9,3.18-2.4,3.84-2.4,0.84,0,3.119,2.459,4.56,2.459a3.922,3.922,0,0,0,1.319-.6,0.628,0.628,0,0,0,.42-0.36,4.083,4.083,0,0,1-.18-0.72l-0.479-9.78c-0.12-2.58-2.34-5.16-4.5-5.16-3.48,0-3.9.781-4.2,0.781a0.423,0.423,0,0,1-.241-0.3c0-1.619,4.141-3.36,6.061-3.36,3.359,0,7.68,4.14,7.379,9.36l-1.92,34.2c-0.119,1.68,2.461,3.6,4.141,3.6,0.24,0,.6-0.18.9-0.18s0.479,0.119.479,0.6c0,1.139-1.919.78-3.12,0.78M184.2,37.438c-1.08.78-2.4,1.681-3.479,2.521-1.32,1.08-2.22,2.1-2.58,2.1-0.781,0-1.26-1.26-3.6-2.4-2.7-1.321-3-1.5-5.52-1.5-0.96,0-1.2-.119-1.2-0.48a16.67,16.67,0,0,0,.24-1.8,1.176,1.176,0,0,1,1.14-1.44,15.049,15.049,0,0,1,7.5,1.979c0.78,0.42,1.62,1.561,2.28,1.561a5.764,5.764,0,0,0,1.14-.061c0.6-.059.9-0.659,0.9-2.039l0.061-18.959a18.491,18.491,0,0,0-.54-3.6,13.212,13.212,0,0,0-1.021-3.18c-0.66-1.139-1.5-1.319-2.34-2.04-2.459-2.22-2.4-2.4-4.259-2.4-1.14,0-4.02,2.4-4.98,2.4-0.3,0-.42-0.12-0.42-0.24a1.446,1.446,0,0,1,.72-0.9c0.6-.479,2.52-2.1,4.439-3.479,1.081-.78,2.221-1.8,2.881-1.8,1.619,0,9.419,5.7,9.419,13.14V34.2c0,0.84.06,1.379,0.06,1.8a1.468,1.468,0,0,1-.84,1.44" transform="translate(0 0)" style="fill:#2d4e40"/><path d="M236.579,3.42c-1.74,2.52-3.06,5.7-3.06,8.1V30.36c0,1.319-.659,2.819-1.56,2.819-1.32,0-1.98-2.28-4.14-2.28a6.809,6.809,0,0,0-2.219.66,8.02,8.02,0,0,1-2.1.96c-0.36,0-.54-0.3-0.54-1.079,0-.841,2.04-3.3,4.2-4.141a3.635,3.635,0,0,0,2.639-3.24,3.329,3.329,0,0,0-3.3-3.3c-0.66,0-2.639.9-3.419,0.9a0.459,0.459,0,0,1-.48-0.54c0-3.3,6.48-5.219,6.42-5.16a7.177,7.177,0,0,0,.659-2.76A13.2,13.2,0,0,1,231.3,7.56a2.436,2.436,0,0,0,.241-1.14,0.758,0.758,0,0,0-.721-0.96c-0.42,0-.84.12-1.26,0.12-2.16,0-2.879-1.259-3.539-1.259-1.98,0-2.58,2.039-3.6,2.039a0.9,0.9,0,0,1-.6-0.959c0-2.221,1.679-4.68,3.78-4.68,2.4,0,3.239,1.079,4.8,1.079,1.44,0,4.381-1.26,5.46-1.26a1.344,1.344,0,0,1,1.559,1.32,3.23,3.23,0,0,1-.839,1.56m15,34.918L246,43.618a1.3,1.3,0,0,1-.84.3,1.156,1.156,0,0,1-.6-0.179c-1.32-.9-5.1-4.8-10.2-4.8-3.9,0-8.34,1.739-8.34,6.059,0,1.5.359,0.66,0.359,2.521a2.191,2.191,0,0,1-2.16,2.34c-1.5,0-1.619-.361-1.619-2.941,0-9.84,13.2-10.559,15.179-10.559,6.059,0,7.38,2.52,9.3,2.52,0.9,0,2.519-1.92,2.7-2.1a1.245,1.245,0,0,1,.96-0.48,1.2,1.2,0,0,1,1.2,1.2,1.18,1.18,0,0,1-.359.84m5.4-.119-4.02,6.119a1.938,1.938,0,0,0-.36,1.08,2.313,2.313,0,0,0,2.34,2.4c0.961,0,1.02-.6,2.4-0.6a1.3,1.3,0,0,1,1.5,1.141,2.6,2.6,0,0,1-2.759,2.04c-2.821,0-5.46-1.981-5.46-4.861,0.059-2.1,1.979-5.04,3.239-7.079a10.3,10.3,0,0,0,1.32-5.7l0.061-10.14c0-.48-2.4-6.539-6.54-6.539l-7.021,5.639-2.638,9.9a1.212,1.212,0,0,1-1.081,1.08,1.04,1.04,0,0,1-1.08-1.08L239.1,7.56C239.4,3.78,242.758.9,247.018,0.9a1.371,1.371,0,0,1,1.44,1.379,1.325,1.325,0,0,1-1.44,1.32,4.01,4.01,0,0,0-4.079,4.08l0.239,7.619a1.231,1.231,0,0,0,1.261,1.261,1.554,1.554,0,0,0,.84-0.3l3.179-2.4c1.081-.78,2.22-1.8,2.88-1.8,0.18,0,8.161,2.22,8.161,9.659v8.46a15.154,15.154,0,0,1-2.521,8.04" transform="translate(0 0)" style="fill:#2d4e40"/><path d="M321.119,7.74c-2.281,0-3.361-.9-4.5-0.9-1.321,0-1.38.84-1.38,3.84v15.06c0,0.72-.061,1.14-0.481,1.2-0.539.06-3.18,1.379-3.479,1.379a0.566,0.566,0,0,1-.42-0.659v-0.12l2.219-18.6c0.3-2.34-3.239-3.959-7.079-3.959-6.78,0-10.92,4.559-11.819,4.559a0.568,0.568,0,0,1-.36-0.659c0-1.92,4.439-8.34,11.879-8.34,2.82,0,10.86,2.759,17.04,2.759,1.08,0,7.619-1.139,8.639-1.139,0.72,0,.9.24,0.9,0.72,0,0.78-2.1,4.86-11.159,4.86M314.1,41.818c-3,0-17.7-2.46-17.46-18.239,0.12-4.32,3-10.86,4.92-10.86,0.3,0,.3.24,0.3,0.48a30.746,30.746,0,0,0-2.46,10.439c-0.119,6.241,6.42,14.46,16.559,14.46,6.781,0,14.22-5.1,14.46-5.1a0.517,0.517,0,0,1,.48.66c0,0.78-7.8,8.16-16.8,8.16" transform="translate(0 0)" style="fill:#2d4e40"/><path d="M385.918,25.978a1.069,1.069,0,0,1-1.321.84l-9.359-.539a3.61,3.61,0,0,0-3.6,3.6,3.524,3.524,0,0,0,1.919,3.179l7.8,3.78a1.464,1.464,0,0,0,.721.24,0.916,0.916,0,0,0,.6-0.24l1.559-1.2a1,1,0,0,1,.72-0.3,1.051,1.051,0,0,1,1.02,1.019,1.024,1.024,0,0,1-.42.781l-4.74,3.359a1.026,1.026,0,0,1-1.319,0l-9.96-6.359a2.794,2.794,0,0,0-2.28,2.7c0,1.44.84,1.74,0.84,3.24a2.22,2.22,0,1,1-4.44,0,8.643,8.643,0,0,1,1.561-4.859l14.579-20.7a2.316,2.316,0,0,0,.54-1.32,1.869,1.869,0,0,0-1.861-1.859,5.79,5.79,0,0,0-3.839,1.92,1.356,1.356,0,0,1-.96.479,1.588,1.588,0,0,1-1.56-1.559c0-.96,2.76-3.96,7.56-3.96,1.62,0,5.639.24,5.639,3.179-0.059,2.4-7.019,8.76-7.079,10.5,0,0.18.06,0.3,0.72,0.3l6.239,0.18c0.9,0,.9,1.2.9,1.381Zm13.2,12.6c-2.34,1.86-4.26,3.24-5.64,3.24-2.04,0-3.12-2.58-3.12-7.679V14.34c0-6.12-4.38-10.741-10.439-10.741a26.431,26.431,0,0,0-6.72.721c-1.56.48-2.64,1.2-2.64,0.6a1.115,1.115,0,0,1,.66-0.96,17.348,17.348,0,0,1,9.6-2.941c5.7,0,9.84,3.961,11.64,3.961,1.5,0,4.559-4.14,5.76-4.14A0.89,0.89,0,0,1,399,1.859c0.059,1.8-4.38,2.34-4.38,6.24l0.06,26.28c0,0.42.06,2.76,1.26,2.76,1.26,0,4.32-3.121,5.4-3.121a1.156,1.156,0,0,1,1.32.96c0,0.42-3.3,3.42-3.54,3.6" transform="translate(0 0)" style="fill:#2d4e40"/><path d="M443.457,11.94c0,1.26.66,6.24,0.66,15.239,0,4.261-1.26,5.941-2.28,5.941-0.66,0-.12-0.42-0.12-1.08,0-4.38-4.5-5.46-4.679-5.46-0.72,0-1.14.36-1.14-.3a1.278,1.278,0,0,1,1.14-.361c0.839,0,.66.181,1.259,0.181,0.42,0,1.92-.06,1.92-1.32,0-2.16-1.86-4.2-2.939-4.2-0.361,0-2.521-.18-2.521-0.96a1.853,1.853,0,0,1,1.321-1.26,12.571,12.571,0,0,0,3.479-.96c0.42-.42.24-2.16,0.24-3.78,0-2.879,1.861-4.74,1.861-5.94a2.8,2.8,0,0,0-1.08-1.62c-0.42-.3-0.9-0.18-1.92-0.659a8.821,8.821,0,0,0-2.941-1.2c-3.779,0-2.279,3.9-3.6,3.9A0.882,0.882,0,0,1,431.1,7.02c0-4.859,5.04-5.64,5.221-5.64,2.76,0,4.019,1.08,5.76,1.08C444.657,2.46,446.4,0,447.9,0c0.54,0,.66.061,0.66,0.54,0,2.281-5.1,2.941-5.1,11.4m21.179,27.6c-1.38,1.439-2.82,2.819-4.08,2.819-2.58,0-8.879-2.64-15.058-2.64-6.781,0-9.6,1.92-10.321,1.92a0.2,0.2,0,0,1-.24-0.24c0-1.32,6.12-4.32,16.979-4.32a33.319,33.319,0,0,1,10.2,1.92c1.439,0,3.84-3.18,4.2-3.18a0.693,0.693,0,0,1,.84.66c0,0.42-1.26,1.74-2.52,3.061m-4.2-37.979c-0.54,0-5.76,1.379-5.76,6.6,0,4.319.841,5.879,0.841,11.7s-3.96,12.18-5.7,12.18c-1.14,0,1.74-3.9,1.74-10.321,0-3.539-.66-6.779-0.66-11.459,0-7.92,9.539-9.96,10.14-9.96,1.08,0,1.259.361,1.259,0.72,0,0.78-.24.541-1.86,0.541" transform="translate(0 0)" style="fill:#2d4e40"/><path d="M524.036,2.16c-4.981,5.819-3.42,10.8-3.42,15.84,0,4.019,1.2,10.918,1.2,13.5,0,8.46-5.22,10.919-9.239,10.919-4.86,0-8.46-4.98-13.079-4.98a5.36,5.36,0,0,0-2.16.3,0.309,0.309,0,0,1-.361-0.36c0-.179.481-3.06,4.5-3.06,4.68,0,4.861,6.18,12,6.18a5.425,5.425,0,0,0,5.34-5.82c0-2.52-2.46-8.46-2.46-16.079,0-10.26,3.359-17.939,7.379-17.939a0.8,0.8,0,0,1,.78.54c0.12,0.179.24,0.059-.479,0.96m-13.26,12.779,1.439,17.1a1.7,1.7,0,0,1-1.739,1.74,1.87,1.87,0,0,1-1.74-1.74c-0.96-4.68-.72-10.981-6.3-10.981-1.979,0-2.819,1.32-3.84,1.32a0.46,0.46,0,0,1-.479-0.6c0-1.981,4.92-4.141,6.059-4.141A2.6,2.6,0,0,0,507,15.359c0.48-2.64,1.74-6.119,2.22-9.06,0.3-1.739-1.74-1.44-2.339-1.44-1.441,0-3.6-.42-4.321,0A7.5,7.5,0,0,1,500.1,6c-0.42,0-.54-0.241-0.54-0.721,0-1.2,1.68-4.26,6.241-4.26,2.159,0,3.359.121,5.159,0.121a15.226,15.226,0,0,0,2.7-.541,0.609,0.609,0,0,1,.66.361c-0.3.479-4.08,7.559-3.54,13.979" transform="translate(0 0)" style="fill:#2d4e40"/><path d="M580.016,25.978a1.068,1.068,0,0,1-1.32.84l-9.359-.539a3.61,3.61,0,0,0-3.6,3.6,3.524,3.524,0,0,0,1.919,3.179l7.8,3.78a1.463,1.463,0,0,0,.72.24,0.917,0.917,0,0,0,.6-0.24l1.559-1.2a1,1,0,0,1,.721-0.3,1.05,1.05,0,0,1,1.019,1.019,1.024,1.024,0,0,1-.42.781l-4.74,3.359a1.026,1.026,0,0,1-1.319,0l-9.96-6.359a2.794,2.794,0,0,0-2.28,2.7c0,1.44.84,1.74,0.84,3.24a2.22,2.22,0,1,1-4.44,0,8.635,8.635,0,0,1,1.561-4.859l14.579-20.7a2.315,2.315,0,0,0,.54-1.32,1.869,1.869,0,0,0-1.861-1.859,5.79,5.79,0,0,0-3.839,1.92,1.358,1.358,0,0,1-.96.479,1.588,1.588,0,0,1-1.56-1.559c0-.96,2.76-3.96,7.56-3.96,1.62,0,5.639.24,5.639,3.179-0.059,2.4-7.019,8.76-7.08,10.5,0,0.18.061,0.3,0.721,0.3l6.239,0.18c0.9,0,.9,1.2.9,1.381Zm13.2,12.6c-2.34,1.86-4.26,3.24-5.64,3.24-2.04,0-3.12-2.58-3.12-7.679V14.34c0-6.12-4.38-10.741-10.439-10.741a26.431,26.431,0,0,0-6.72.721c-1.56.48-2.641,1.2-2.641,0.6a1.117,1.117,0,0,1,.661-0.96,17.348,17.348,0,0,1,9.6-2.941c5.7,0,9.84,3.961,11.64,3.961,1.5,0,4.559-4.14,5.76-4.14a0.889,0.889,0,0,1,.78,1.019c0.059,1.8-4.38,2.34-4.38,6.24l0.06,26.28c0,0.42.06,2.76,1.26,2.76,1.26,0,4.32-3.121,5.4-3.121a1.156,1.156,0,0,1,1.32.96c0,0.42-3.3,3.42-3.54,3.6" transform="translate(0 0)" style="fill:#2d4e40"/></svg>