<svg xmlns="http://www.w3.org/2000/svg" viewBox="0 0 13.132 64.605"><title>chara_wep_4</title><path d="M8.021,9.156C7.97,8.06,7.839,5.41,7.7,4.229A29.1,29.1,0,0,0,6.566,0,29.1,29.1,0,0,0,5.434,4.229C5.3,5.373,5.169,7.9,5.11,9.156,5.691,9.1,6.41,9.092,6.566,9.092S7.441,9.1,8.021,9.156Zm-4.4,26.875H9.508l-0.045-.454H3.669ZM10.84,39.45a5.485,5.485,0,0,1-1.666-2.807H7.318l0.1,2.593a4.917,4.917,0,0,1,4.035,4.817,5.389,5.389,0,0,1-.081.8,5.141,5.141,0,0,1-.225.8L12.3,46.751a4.3,4.3,0,0,0,.8-2.979,6.6,6.6,0,0,0-1.709-3.752C11.2,39.8,11.018,39.625,10.84,39.45Zm-1.449,9a10.6,10.6,0,0,0-1,3.335l-0.068.342a3.218,3.218,0,0,0-.134,1.251,32.2,32.2,0,0,1-.227,3.342c-0.293,2.762-1.086,3.424-1.119,3.5L6.71,60.5H6.421l-0.132-.286c-0.033-.073-0.826-0.736-1.119-3.5a32.186,32.186,0,0,1-.227-3.36,3.143,3.143,0,0,0-.134-1.233l-0.079-.4a10.435,10.435,0,0,0-.988-3.28,9.176,9.176,0,0,1-1.251-1.7l-0.7.65c0.311,0.463,1.453,2.17,1.679,2.584a7.125,7.125,0,0,1,.4,2.893,54.2,54.2,0,0,0,.636,7.541,12.213,12.213,0,0,0,2.06,4.191,12.2,12.2,0,0,0,2.06-4.191,54.166,54.166,0,0,0,.636-7.541,7.139,7.139,0,0,1,.4-2.893c0.226-.414,1.368-2.121,1.679-2.584l-0.7-.65A9.207,9.207,0,0,1,9.391,48.447Zm-2.825-.83a3.574,3.574,0,1,0-3.574-3.574A3.578,3.578,0,0,0,6.566,47.617Zm0-6.608a3.034,3.034,0,1,1-3.034,3.034A3.038,3.038,0,0,1,6.566,41.009Zm0,4.965a1.931,1.931,0,1,0-1.93-1.93A1.933,1.933,0,0,0,6.566,45.974ZM6.314,34.98l0.651,0c0.57,0,.871-0.015,2.073-0.082a23.88,23.88,0,0,1-.976-4.36A13.251,13.251,0,0,1,7.9,28.659H5.229a13.263,13.263,0,0,1-.159,1.888A23.866,23.866,0,0,1,4.1,34.9C5.4,34.972,5.732,34.977,6.314,34.98ZM4.178,10.52s-0.021.109-.042,0.227c0.912-.081,2.095-0.138,2.429-0.138s1.518,0.057,2.429.138c-0.019-.113-0.037-0.209-0.037-0.209a2.678,2.678,0,0,1-.12-0.555c-0.645-.06-1.661-0.1-2.272-0.1s-1.627.036-2.2,0.058C4.323,10.037,4.179,10.52,4.178,10.52ZM0.833,46.751l1.151-1.092a5.175,5.175,0,0,1-.225-0.8,5.569,5.569,0,0,1-.081-0.812,4.915,4.915,0,0,1,4.036-4.807l0.1-2.593H3.958A5.491,5.491,0,0,1,2.292,39.45c-0.178.176-.361,0.355-0.549,0.57A6.6,6.6,0,0,0,.034,43.772,4.317,4.317,0,0,0,.833,46.751Zm7.2-20.642V11.68H5.1V26.108H8.03Zm-3.269.743-0.452-.014v1.125H8.826l0.012-1.111H8.375l0-.009H4.763Z" style="fill:#914541"/></svg>