<svg xmlns="http://www.w3.org/2000/svg" viewBox="0 0 55.222 15.885"><title>gnavi_news_0</title><path d="M5.083,15.885c-1.848,0-2.112-.527-3.52-0.527a6.5,6.5,0,0,0-1.32.308A0.227,0.227,0,0,1,0,15.4c-0.022-.44.815-1.563,2.487-1.519L4.6,13.95c0.33,0,.7-0.353.7-1.607a1.894,1.894,0,0,0-.77-1.408,1.876,1.876,0,0,0-1.518-.572c-0.132,0-.462.265-0.462-0.044a0.57,0.57,0,0,1,.7-0.374c0.44,0,1.122.33,1.122-.265A1.952,1.952,0,0,0,3.631,8.3a3.441,3.441,0,0,0-2.179-.836,0.476,0.476,0,0,1-.44-0.286,1.734,1.734,0,0,1,1.717-.595,4.5,4.5,0,0,0,1.43.4,1.147,1.147,0,0,0-.418-1.386C3.124,5.038,2,5.346,2,4.994A0.582,0.582,0,0,1,2.4,4.51a3.842,3.842,0,0,0,1.254-.462C3.741,3.96,3.719,3.542,3.9,3.014A1.294,1.294,0,0,1,4.62,2.442a4.089,4.089,0,0,1,1.5-.4c0.2,0,.308.176,0.308,0.506l0.023,9.769c0,0.484-.155,1.3.483,1.3,0.77,0,1.211.065,1.32,0.572a4.905,4.905,0,0,1-3.168,1.693M16.305,14.61a2.355,2.355,0,0,1-.858.924,3.487,3.487,0,0,0-2.025-.682,5.839,5.839,0,0,0-2.024.594,1.38,1.38,0,0,1-.242-1.3c1.76-2.09,3.058-4.114,3.058-7.3a5.4,5.4,0,0,0-5.633-5.1,6.366,6.366,0,0,1-1.364-.023,0.146,0.146,0,0,1-.154-0.131A1.6,1.6,0,0,1,8.076.726,6.158,6.158,0,0,1,9.968,0c4.313,0,6.82,3.322,6.82,5.676,0,3.147-.967,4.334-3.432,7.129-0.66.748,0.33,1.057,0.572,0.617,1.408-.023,2.574-0.044,3.169-1.035a0.238,0.238,0,0,1,.462.088,4.91,4.91,0,0,1-1.254,2.135" transform="translate(0 0)" style="fill:#fff"/><path d="M27.347,8.383L25.741,10.65a0.953,0.953,0,0,1-.374.33,0.394,0.394,0,0,1-.111.044,0.326,0.326,0,0,1-.176-0.265,0.17,0.17,0,0,1,.044-0.109,2.6,2.6,0,0,0,.111-0.264l0.4-.484A1.144,1.144,0,0,0,25.9,9.219a0.841,0.841,0,0,0-.265-0.506l-0.99-.99a0.368,0.368,0,0,0-.2-0.132c-0.088,0-.286.044-0.286,0.858v4.136a1.086,1.086,0,0,0,.9,1.013,1.558,1.558,0,0,0,.683.2,0.566,0.566,0,0,0,.307-0.088l0.881-.594a0.532,0.532,0,0,1,.308-0.132,0.349,0.349,0,0,1,.219.286,0.229,0.229,0,0,1-.153.177l-2.156,1.473a1.755,1.755,0,0,1-.595.308,0.882,0.882,0,0,1-.374-0.11,8.119,8.119,0,0,0-2.42-.946,1.346,1.346,0,0,1-.595-0.177c0-.2.441-0.615,0.573-1.121a2.87,2.87,0,0,0,.11-0.814l0.176-5.831a0.267,0.267,0,0,1,.154-0.264l1.87-1.012a1.437,1.437,0,0,1,.616-0.264,0.6,0.6,0,0,1,.287.175l2.177,2.069a1.5,1.5,0,0,1,.507.792,1.122,1.122,0,0,1-.286.66" transform="translate(0 0)" style="fill:#fff"/><path d="M35.223,15.292a0.692,0.692,0,0,1-.572-0.264,6.064,6.064,0,0,0-2.618-1.144c-0.441-.044-0.594-0.11-0.594-0.2a0.494,0.494,0,0,1,.176-0.241,1.294,1.294,0,0,0,.307-0.969V7.525a1.186,1.186,0,0,0-.351-0.9l-0.639-.814a1.526,1.526,0,0,1-.483-1.056,3.116,3.116,0,0,1,2.4-2.86c0.22,0,.308.264,0.22,0.286a1.505,1.505,0,0,0-.88,1.408c0,1.078,2.112,2.157,2.112,3.565v5.567c0,0.615.044,0.66,0.418,0.836a7.645,7.645,0,0,0,.968.461,3,3,0,0,1,.55.2c0.418,0.242.418,0.286,0.2,0.484a4.1,4.1,0,0,1-1.21.594m7.459-2.09a12.911,12.911,0,0,0-2.6,1.781,0.84,0.84,0,0,1-.374.287,0.754,0.754,0,0,1-.483-0.22l-1.387-1.233a4.784,4.784,0,0,0-.924-0.725,0.959,0.959,0,0,1-.33-0.22,0.345,0.345,0,0,0-.22-0.133,0.48,0.48,0,0,1-.352-0.088,0.592,0.592,0,0,1-.11-0.418V7.723c0-.154,0-0.352-0.022-0.594A0.675,0.675,0,0,0,35.641,6.6l-0.484-.4a0.308,0.308,0,0,1-.132-0.264,0.368,0.368,0,0,1,.2-0.285L36.5,4.929a0.543,0.543,0,0,1,.308-0.089,0.529,0.529,0,0,1,.265.066l1.473,1.079c0.264,0.2.441,0.352,0.242,0.593L38.7,6.689a2.087,2.087,0,0,0-.265,1.254v4.071a1.171,1.171,0,0,0,.748,1.166l0.837,0.264a0.742,0.742,0,0,0,.22.022,0.7,0.7,0,0,0,.681-0.727L40.833,7.987a1.735,1.735,0,0,0-.857-1.474l-0.154-.132a0.365,0.365,0,0,1-.111-0.264,0.59,0.59,0,0,1,.221-0.287l1.078-.99a0.463,0.463,0,0,1,.352-0.132,0.519,0.519,0,0,1,.352.132l0.77,0.815a2.907,2.907,0,0,1,.9,2l0.154,4.555c0.022,0.594-.308.7-0.858,0.99" transform="translate(0 0)" style="fill:#fff"/><path d="M55.177,13.157a0.862,0.862,0,0,1-.528.287,6.538,6.538,0,0,0-2.069,1.408,1.289,1.289,0,0,1-.637.44,2.838,2.838,0,0,1-.573-0.242c-0.242-.11-0.924-0.661-3.587-0.661-0.175,0-.263-0.021-0.263-0.087a2.5,2.5,0,0,1,2.508-1.827,3.513,3.513,0,0,1,2.2.594,0.4,0.4,0,0,0,.154.045,0.292,0.292,0,0,0,.286-0.287V11.552a0.546,0.546,0,0,0-.2-0.506l-0.9-.573a0.67,0.67,0,0,0-.374-0.22,0.7,0.7,0,0,0-.529.352l-0.286.33a0.525,0.525,0,0,1-.352.2,0.834,0.834,0,0,1-.4-0.111L47.85,10.011a0.626,0.626,0,0,1-.4-0.726V7.151A2.054,2.054,0,0,1,47.5,6.689,0.987,0.987,0,0,1,48.026,6.4a6.19,6.19,0,0,0,2.068-1.409,1.279,1.279,0,0,1,.638-0.44,7.815,7.815,0,0,0,3.146.88h1.034c0.683,0-.769,2.025-2.244,2.025a3.482,3.482,0,0,1-2.222-.573,0.425,0.425,0,0,0-.154-0.043,0.291,0.291,0,0,0-.286.286V8.405a0.534,0.534,0,0,0,.2.506L51.04,9.4a0.625,0.625,0,0,0,.77-0.33l0.221-.374a0.6,0.6,0,0,1,.439-0.242c0.066,0,.374.286,0.572,0.4L54.8,9.857a0.7,0.7,0,0,1,.418.726v2.135a1.679,1.679,0,0,1-.044.439" transform="translate(0 0)" style="fill:#fff"/></svg>