<svg xmlns="http://www.w3.org/2000/svg" viewBox="0 0 103.246 103.198"><title>gnavi_news_1</title><path d="M90.8,76.866a4.307,4.307,0,0,0-1,1.895,5.515,5.515,0,0,0-.038,2.162,13.881,13.881,0,0,0,1.587,4.165h0l0.336,0.682L90.941,85.7c-0.592-.056-1.186-0.077-1.79-0.078s-1.223.017-1.865-.042a6.431,6.431,0,0,1-1.885-.455,9.854,9.854,0,0,1-1.674-.911l0.512-.512a9.856,9.856,0,0,1,.911,1.674,6.432,6.432,0,0,1,.455,1.885c0.059,0.642.037,1.261,0.042,1.865s0.022,1.2.078,1.79l0.071,0.75-0.682-.336h0a13.878,13.878,0,0,0-4.165-1.587,5.515,5.515,0,0,0-2.162.038,4.307,4.307,0,0,0-1.895,1l-0.335-.359a4.845,4.845,0,0,1,2.086-1.2,6.13,6.13,0,0,1,2.4-.135,15.009,15.009,0,0,1,4.452,1.489h0l-0.611.414c-0.12-1.249,0-2.514-.068-3.666a6.664,6.664,0,0,0-1.194-3.217l-0.947-1.46,1.46,0.947A6.664,6.664,0,0,0,87.35,84.79c1.152,0.07,2.417-.051,3.666.068L90.6,85.47h0a15.005,15.005,0,0,1-1.489-4.452,6.129,6.129,0,0,1,.135-2.4,4.844,4.844,0,0,1,1.2-2.086Z" style="fill:#fff"/><path d="M90.943,76.882A12.059,12.059,0,0,0,88.757,80.2a5.161,5.161,0,0,0,.185,3.689A37.052,37.052,0,0,0,90.6,87.6l1.849,3.707,1.115,2.235L91.334,92.43,87.626,90.58a37.055,37.055,0,0,0-3.711-1.663,5.162,5.162,0,0,0-3.689-.185,12.058,12.058,0,0,0-3.319,2.186L76.44,90.4a12.766,12.766,0,0,1,3.433-2.543,4.9,4.9,0,0,1,2.223-.441,8.678,8.678,0,0,1,2.182.366,38.05,38.05,0,0,1,3.947,1.489l3.814,1.626-1.12,1.12L89.293,88.2A38.056,38.056,0,0,1,87.8,84.253a8.678,8.678,0,0,1-.366-2.182,4.9,4.9,0,0,1,.441-2.223,12.768,12.768,0,0,1,2.543-3.433Z" style="fill:#fff"/><path d="M12.333,26.346a12.06,12.06,0,0,0,2.186-3.319,5.161,5.161,0,0,0-.185-3.689,37.038,37.038,0,0,0-1.663-3.711l-1.849-3.707L9.708,9.684,11.943,10.8l3.707,1.849a37.044,37.044,0,0,0,3.711,1.663,5.161,5.161,0,0,0,3.689.185,12.059,12.059,0,0,0,3.319-2.186l0.467,0.52A12.766,12.766,0,0,1,23.4,15.373a4.9,4.9,0,0,1-2.223.441A8.678,8.678,0,0,1,19,15.448a38.056,38.056,0,0,1-3.947-1.489l-3.814-1.626,1.12-1.12,1.626,3.814a38.054,38.054,0,0,1,1.489,3.947,8.68,8.68,0,0,1,.366,2.182A4.9,4.9,0,0,1,15.4,23.38a12.768,12.768,0,0,1-2.543,3.433Z" style="fill:#fff"/><path d="M51.623,99.43A47.832,47.832,0,0,1,17.8,17.777,47.832,47.832,0,0,1,85.445,85.421,47.517,47.517,0,0,1,51.623,99.43Zm0-92.664A44.832,44.832,0,0,0,19.922,83.3a44.832,44.832,0,0,0,63.4-63.4h0A44.536,44.536,0,0,0,51.623,6.767Z" style="fill:#fff"/><path d="M51.623,103.2a51.582,51.582,0,1,1,36.5-15.1A51.462,51.462,0,0,1,51.623,103.2Zm0-102.2a50.582,50.582,0,1,0,35.8,14.8A50.465,50.465,0,0,0,51.623,1Z" style="fill:#fff"/><path d="M51.623,93.994a42.4,42.4,0,1,1,29.992-12.4A42.284,42.284,0,0,1,51.623,93.994Zm0-83.791A41.4,41.4,0,1,0,80.908,22.314,41.286,41.286,0,0,0,51.623,10.2Z" style="fill:#fff"/><path d="M12.473,26.362a4.307,4.307,0,0,0,1-1.895,5.515,5.515,0,0,0,.038-2.162,13.882,13.882,0,0,0-1.587-4.165h0l-0.334-.679,0.748,0.067a9.739,9.739,0,0,0,1.619.015c0.544-.036,1.093-0.132,1.7-0.162a4.485,4.485,0,0,1,1.813.281,8.179,8.179,0,0,1,1.569.835l-0.512.512a8.177,8.177,0,0,1-.835-1.569,4.484,4.484,0,0,1-.281-1.813c0.03-.6.126-1.153,0.162-1.7a9.737,9.737,0,0,0-.015-1.619l-0.067-.748L18.164,11.9h0a13.878,13.878,0,0,0,4.165,1.587,5.515,5.515,0,0,0,2.162-.038,4.307,4.307,0,0,0,1.895-1l0.335,0.359A4.845,4.845,0,0,1,24.635,14a6.129,6.129,0,0,1-2.4.135,15.009,15.009,0,0,1-4.452-1.489h0l0.611-.414A10.576,10.576,0,0,1,18.383,14c-0.049.582-.154,1.146-0.187,1.67a3.688,3.688,0,0,0,.209,1.511,7.458,7.458,0,0,0,.733,1.423L20,19.98l-1.379-.866a7.457,7.457,0,0,0-1.423-.733,3.687,3.687,0,0,0-1.511-.209c-0.524.032-1.088,0.138-1.67,0.187a10.577,10.577,0,0,1-1.762.011l0.415-.611h0a15.007,15.007,0,0,1,1.489,4.452,6.13,6.13,0,0,1-.135,2.4,4.845,4.845,0,0,1-1.2,2.086Z" style="fill:#fff"/><path d="M76.91,12.275a12.059,12.059,0,0,0,3.319,2.186,5.161,5.161,0,0,0,3.689-.185,37.039,37.039,0,0,0,3.711-1.663l3.707-1.849L93.572,9.65l-1.115,2.235-1.849,3.707A37.038,37.038,0,0,0,88.945,19.3a5.162,5.162,0,0,0-.185,3.689,12.059,12.059,0,0,0,2.186,3.319l-0.52.467a12.767,12.767,0,0,1-2.543-3.433,4.9,4.9,0,0,1-.441-2.223,8.678,8.678,0,0,1,.366-2.182A38.054,38.054,0,0,1,89.3,14.994l1.626-3.814,1.12,1.12-3.814,1.626a38.052,38.052,0,0,1-3.947,1.489,8.678,8.678,0,0,1-2.182.366,4.9,4.9,0,0,1-2.223-.441A12.767,12.767,0,0,1,76.443,12.8Z" style="fill:#fff"/><path d="M76.894,12.414a4.307,4.307,0,0,0,1.895,1,5.515,5.515,0,0,0,2.162.038,13.88,13.88,0,0,0,4.165-1.587h0l0.679-.334-0.067.748a9.743,9.743,0,0,0-.015,1.619c0.036,0.544.132,1.093,0.162,1.7a4.484,4.484,0,0,1-.281,1.813,8.178,8.178,0,0,1-.835,1.569l-0.512-.512a8.178,8.178,0,0,1,1.569-.835,4.484,4.484,0,0,1,1.813-.281c0.6,0.03,1.153.126,1.7,0.162a9.737,9.737,0,0,0,1.619-.015l0.748-.067-0.334.678h0a13.877,13.877,0,0,0-1.587,4.165,5.516,5.516,0,0,0,.038,2.162,4.307,4.307,0,0,0,1,1.895l-0.359.335a4.845,4.845,0,0,1-1.2-2.086,6.129,6.129,0,0,1-.135-2.4A15.007,15.007,0,0,1,90.6,17.725h0l0.414,0.611a10.579,10.579,0,0,1-1.762-.011c-0.582-.049-1.146-0.154-1.67-0.187a3.687,3.687,0,0,0-1.511.209,7.454,7.454,0,0,0-1.423.733l-1.378.866,0.866-1.378a7.456,7.456,0,0,0,.733-1.423,3.687,3.687,0,0,0,.209-1.511c-0.032-.524-0.138-1.089-0.187-1.67a10.582,10.582,0,0,1-.011-1.762L85.5,12.617h0a15.006,15.006,0,0,1-4.453,1.489,6.129,6.129,0,0,1-2.4-.135,4.844,4.844,0,0,1-2.086-1.2Z" style="fill:#fff"/><path d="M12.877,76.362a12.766,12.766,0,0,1,2.543,3.433,4.9,4.9,0,0,1,.441,2.223A8.678,8.678,0,0,1,15.5,84.2a38.056,38.056,0,0,1-1.489,3.947L12.38,91.961l-1.12-1.12,3.814-1.626a38.056,38.056,0,0,1,3.947-1.489,8.679,8.679,0,0,1,2.182-.366,4.9,4.9,0,0,1,2.223.441,12.768,12.768,0,0,1,3.433,2.544l-0.467.52a12.058,12.058,0,0,0-3.319-2.186,5.162,5.162,0,0,0-3.689.185,37.049,37.049,0,0,0-3.711,1.663l-3.707,1.849L9.731,93.491l1.115-2.235,1.849-3.707a37.052,37.052,0,0,0,1.663-3.711,5.162,5.162,0,0,0,.185-3.689,12.06,12.06,0,0,0-2.186-3.319Z" style="fill:#fff"/><path d="M12.854,76.478a4.844,4.844,0,0,1,1.2,2.086,6.13,6.13,0,0,1,.135,2.4A15.006,15.006,0,0,1,12.7,85.416h0l-0.415-.611a10.579,10.579,0,0,1,1.762.011c0.582,0.049,1.146.154,1.67,0.187a3.687,3.687,0,0,0,1.511-.209,7.453,7.453,0,0,0,1.423-.733l1.379-.866-0.866,1.378A7.453,7.453,0,0,0,18.428,86a3.686,3.686,0,0,0-.209,1.511c0.032,0.524.138,1.089,0.187,1.67a10.582,10.582,0,0,1,.011,1.762l-0.611-.414h0a15.009,15.009,0,0,1,4.452-1.489,6.129,6.129,0,0,1,2.4.135,4.845,4.845,0,0,1,2.086,1.2l-0.335.359a4.307,4.307,0,0,0-1.895-1,5.515,5.515,0,0,0-2.162-.038,13.879,13.879,0,0,0-4.165,1.587h0l-0.678.334,0.067-.748a9.748,9.748,0,0,0,.015-1.619c-0.036-.544-0.132-1.093-0.162-1.7a4.484,4.484,0,0,1,.281-1.813,8.178,8.178,0,0,1,.835-1.569l0.512,0.512a8.176,8.176,0,0,1-1.569.835,4.484,4.484,0,0,1-1.813.281c-0.6-.03-1.153-0.126-1.7-0.162a9.737,9.737,0,0,0-1.619.015l-0.748.067,0.334-.679h0a13.882,13.882,0,0,0,1.587-4.165,5.515,5.515,0,0,0-.038-2.162,4.306,4.306,0,0,0-1-1.895Z" style="fill:#fff"/></svg>