<svg xmlns="http://www.w3.org/2000/svg" viewBox="0 0 318.912 239.852"><title>logo_0</title><path d="M1.772,127.153c0.339,0.208.3,0.272,0.637,0.481a0.529,0.529,0,0,0,.148-0.094,1.1,1.1,0,0,0,.3.161c0.176-.171.184-0.512,0.357-0.682s0.481-.205.652-0.375,0.317-.366.486-0.536,0.413-.273.581-0.444,0.2-.477.369-0.649,0.376-.306.541-0.478,0.272-.408.436-0.581,0.471-.22.634-0.4,0.328-.353.49-0.529,0.2-.47.359-0.648,0.4-.284.561-0.462,0.21-.455.367-0.633,0.359-.326.516-0.507,0.439-.256.6-0.438,0.293-.384.447-0.566,0.158-.5.311-0.679c0.043-.051.078-0.109,0.116-0.164H10.655a0.143,0.143,0,0,1-.192-0.127,0.2,0.2,0,0,1,.073-0.245,0.428,0.428,0,0,0,.127-0.143,1,1,0,0,1,.136-0.2,1.027,1.027,0,0,0,.13-0.19,0.362,0.362,0,0,0,.047-0.224,0.427,0.427,0,0,1,.053-0.256,1.071,1.071,0,0,0,.065-0.144,0.283,0.283,0,0,1,.229-0.213,0.31,0.31,0,0,1,.331.041c0.029,0.018.064,0.041,0.107,0.065,0.1,0.053.147,0.079,0.2,0.1l0.074,0.039c0.15-.163.362-0.277,0.5-0.45,0.147-.189.12-0.514,0.266-0.7s0.34-.341.485-0.531,0.166-.473.308-0.664,0.292-.378.433-0.57,0.392-.308.531-0.5,0.335-.351.474-0.546,0.228-.426.364-0.623,0.38-.321.515-0.519,0.265-.4.4-0.6,0.31-.372.441-0.571,0.217-.434.347-0.634,0.154-.471.282-0.673,0.366-.337.492-0.539,0.021-.55.146-0.754,0.486-.266.609-0.471,0.144-.472.265-0.678,0.211-.431.331-0.638,0.247-.41.364-0.618,0.172-.452.287-0.661,0.265-.4.378-0.611,0.316-.374.428-0.585,0.162-.456.272-0.668,0.31-.38.418-0.593,0.157-.457.263-0.671,0.161-.454.265-0.669,0.107-.478.208-0.694,0.486-.3.586-0.519,0.058-.5.156-0.719,0.108-.475.2-0.693,0.308-.389.4-0.608,0.306-.391.4-0.612,0.146-.459.236-0.681,0.146-.458.234-0.68,0.186-.442.273-0.665-0.066-.538.018-0.762,0.24-.421.322-0.646,0.168-.448.249-0.674,0.1-.472.179-0.7,0.139-.457.216-0.684,0.338-.392.413-0.62-0.01-.507.063-0.735,0.341-.4.412-0.624,0.148-.456.217-0.686-0.105-.531-0.038-0.761,0.32-.406.386-0.637,0.2-.443.26-0.674-0.011-.5.051-0.732,0.164-.452.224-0.684,0.109-.467.167-0.7a1.149,1.149,0,0,1,.1-0.226c-0.013-.013-0.023-0.017-0.042-0.037a0.7,0.7,0,0,1-.072-0.1,0.713,0.713,0,0,0-.069-0.092,0.3,0.3,0,0,0-.089-0.072,0.353,0.353,0,0,1-.1-0.079,0.4,0.4,0,0,1-.067-0.1,0.365,0.365,0,0,0-.063-0.1c-0.038-.043-0.057-0.067-0.075-0.09s-0.037-.048-0.076-0.092a0.477,0.477,0,0,0-.085-0.078A0.5,0.5,0,0,1,27,84.369c-0.038-.044-0.059-0.064-0.08-0.085s-0.042-.042-0.081-0.086a0.19,0.19,0,0,0-.1-0.062,0.237,0.237,0,0,1-.11-0.071,0.489,0.489,0,0,1-.07-0.1,0.518,0.518,0,0,0-.068-0.094l-0.009-.015,1.55,0.8a3.957,3.957,0,0,1,.058-0.536c0.054-.234-0.04-0.5.014-0.735s0.288-.427.34-0.661,0.1-.471.145-0.706,0.054-.478.1-0.713-0.057-.5-0.01-0.736,0.212-.447.257-0.683,0.122-.465.166-0.7,0.008-.486.05-0.723,0.224-.447.265-0.684,0.116-.468.156-0.7-0.054-.5-0.016-0.733,0.166-.46.2-0.7-0.122-.5-0.086-0.741,0.094-.471.129-0.709,0.233-.451.267-0.69-0.1-.5-0.065-0.736,0.256-.45.287-0.688,0.1-.473.13-0.711-0.025-.488,0-0.726-0.107-.5-0.079-0.736,0.136-.468.163-0.707-0.018-.485.008-0.724,0.186-.464.211-0.7,0.047-.479.071-0.718-0.051-.488-0.027-0.728,0.189-.465.212-0.705,0.03-.48.052-0.72,0.182-.467.2-0.707-0.238-.5-0.218-0.743,0.029-.48.048-0.721,0.319-.457.338-0.7,0.009-.482.027-0.723-0.119-.491-0.1-0.731-0.105-.49-0.088-0.731,0.312-.461.328-0.7-0.223-.5-0.208-0.738,0.157-.473.173-0.713-0.035-.485-0.02-0.726,0.153-.473.167-0.714,0.144-.475.158-0.716-0.192-.493-0.178-0.734,0.057-.48.07-0.721-0.1-.488-0.084-0.729,0.236-.47.248-0.712-0.062-.486-0.05-0.727-0.059-.486-0.047-0.727,0.05-.481.061-0.722,0.279-.47.29-0.711-0.308-.5-0.3-0.739,0.049-.481.06-0.723,0.227-.472.238-0.714-0.044-.485-0.033-0.727,0.121-.478.132-0.719S32.1,45.645,32.111,45.4s0-.483.016-0.725,0.253-.472.263-0.715-0.11-.487-0.1-0.73-0.113-.488-0.1-0.73,0.183-.476.194-0.718a0.611,0.611,0,0,1,.525-0.628c0.365,0,.365-0.041.73-0.041s0.364,0.115.729,0.115,0.364-.065.728-0.065,0.362-.056.726-0.056,0.361,0.126.722,0.126,0.362,0.124.724,0.124,0.362-.087.724-0.087,0.363-.063.726-0.063,0.361,0.182.723,0.182,0.361-.2.722-0.2,0.363-.094.725-0.094,0.361,0.225.722,0.225,0.36-.24.72-0.24,0.36,0.311.721,0.311,0.361-.238.723-0.238,0.361-.057.721-0.057,0.36,0.085.719,0.085,0.359-.018.716-0.018,0.359-.017.717-0.017,0.36,0.169.721,0.169,0.36,0.068.721,0.068,0.36-.194.721-0.194,0.361,0.207.722,0.207,0.361-.247.722-0.247,0.36,0.1.72,0.1,0.36,0.117.72,0.117,0.36-.226.72-0.226,0.36,0.056.72,0.056,0.36,0.078.721,0.078,0.361-.029.722-0.029,0.361,0.135.721,0.135,0.36-.1.72-0.1,0.359-.018.719-0.018,0.359-.123.718-0.123,0.359,0.089.718,0.089,0.36,0.026.718,0.026,0.36-.021.719-0.021,0.36-.016.719-0.016,0.36-.07.72-0.07,0.361,0.022.721,0.022,0.361-.035.721-0.035,0.36,0.176.719,0.176,0.36,0.017.719,0.017,0.358-.05.717-0.05,0.359-.067.717-0.067a0.562,0.562,0,0,1,.6.605c0,0.252-.152.494-0.156,0.732,0,0.253.006,0.5,0,.734s0.068,0.495.064,0.731,0.025,0.453.028,0.67a1.706,1.706,0,0,1,.288.09,2.052,2.052,0,0,0,.206.069,0.422,0.422,0,0,1,.335.347,0.25,0.25,0,0,1-.086.379,0.506,0.506,0,0,0-.2.249c-0.071.179-.114,0.269-0.156,0.356s-0.094.191-.167,0.374a2.459,2.459,0,0,0-.117.367,2.582,2.582,0,0,1-.125.4,0.675,0.675,0,0,0,.022.441,0.61,0.61,0,0,1,.02.316,0.946,0.946,0,0,1,.074.321c0,0.245-.137.486-0.139,0.729s-0.1.484-.106,0.73-0.079.484-.08,0.732,0.123,0.483.122,0.733,0.191,0.482.191,0.733-0.092.48-.093,0.732c0,0.236.008,0.48,0.008,0.733,0,0.236-.079.48-0.079,0.733,0,0.236.1,0.481,0.1,0.733,0,0.237-.188.482-0.188,0.734s0.077,0.482.077,0.734a0.464,0.464,0,0,1-.562.434c-0.367,0-.367.073-0.735,0.073s-0.367.151-.734,0.151-0.367-.216-0.733-0.216-0.366.135-.732,0.135-0.363.018-.727,0.018-0.365.141-.729,0.141-0.365-.282-0.73-0.282-0.365.28-.731,0.28-0.364-.025-0.728-0.025-0.364-.217-0.728-0.217-0.365.025-.73,0.025-0.363-.015-0.727-0.015a1.363,1.363,0,0,1-.215.131c-0.339-.116-0.286-0.27-0.625-0.386s-0.31-.2-0.648-0.317-0.415.108-.753-0.007-0.317-.174-0.655-0.289-0.339-.1-0.675-0.218-0.323-.152-0.66-0.266-0.332-.127-0.669-0.242-0.292-.248-0.629-0.362-0.4.089-.741-0.026-0.344-.092-0.68-0.206-0.292-.245-0.629-0.36-0.365-.026-0.7-0.139-0.367-.023-0.7-0.137-0.324-.145-0.66-0.259-0.347-.083-0.683-0.2-0.323-.15-0.658-0.264-0.345-.08-0.679-0.194-0.273-.29-0.606-0.4-0.379.023-.712-0.091-0.324-.136-0.657-0.249-0.28-.275-0.615-0.389-0.383.027-.718-0.087-0.316-.172-0.652-0.286-0.358-.048-0.693-0.163-0.312-.18-0.647-0.294-0.314-.175-0.648-0.289-0.333-.116-0.668-0.23-0.342-.1-0.679-0.2a0.454,0.454,0,0,0-.161.178,0.578,0.578,0,0,0-.3.245c0.04,0.224.257,0.427,0.3,0.672,0.035,0.228.012,0.472,0.046,0.716s0.25,0.445.279,0.689,0.007,0.477.034,0.721,0.026,0.475.051,0.718-0.062.483-.04,0.726,0.108,0.467.128,0.709-0.03.479-.011,0.722,0.1,0.472.114,0.714,0.111,0.473.126,0.716-0.213.494-.2,0.737,0.239,0.467.253,0.71,0.052,0.48.065,0.724-0.054.485-.042,0.729-0.121.489-.11,0.733,0.267,0.471.278,0.715-0.169.491-.159,0.734,0.1,0.481.112,0.724,0.154,0.479.162,0.722-0.132.489-.124,0.732,0.131,0.48.138,0.723-0.182.489-.175,0.732-0.068.485-.061,0.728,0.187,0.479.193,0.72,0.13,0.48.135,0.722-0.05.484-.045,0.725-0.024.483-.019,0.723,0.052,0.481.057,0.721,0.056,0.48.06,0.72-0.257.484-.253,0.722,0.133,0.479.136,0.719,0.152,0.479.155,0.718-0.2.483-.194,0.722,0.061,0.479.064,0.717-0.049.48-.047,0.717-0.051.48-.048,0.717,0.09,0.477.092,0.714,0.071,0.482.073,0.72-0.113.483-.111,0.721,0.137,0.482.139,0.719,0.091,0.482.092,0.72-0.175.483-.174,0.719,0.13,0.483.13,0.719-0.045.484-.045,0.719,0.08,0.483.081,0.718-0.242.484-.242,0.718,0.1,0.485.105,0.718,0.118,0.486.118,0.718c0,0.248-.053.489-0.053,0.72,0,0.2.058,0.434,0.056,0.7,0,0.216-.253.451-0.256,0.706,0,0.223.029,0.46,0.026,0.708,0,0.227.088,0.465,0.084,0.71s0.09,0.469.086,0.711-0.126.466-.129,0.707,0.008,0.47,0,.709-0.016.47-.02,0.709,0.176,0.476.172,0.714-0.047.472-.051,0.709-0.093.47-.1,0.706-0.132.469-.136,0.7,0.086,0.473.083,0.705,0.155,0.478.15,0.71-0.212.473-.216,0.7,0.18,0.482.175,0.711c0,0.245-.018.48-0.023,0.707,0,0.248-.1.483-0.1,0.706,0,0.253-.211.486-0.214,0.7-0.006.268,0.159,0.507,0.155,0.706a1.956,1.956,0,0,1-.134.7c0,0.236.112,0.474,0.134,0.714s0.161,0.451.2,0.69,0.144,0.443.205,0.678,0.015,0.482.091,0.713,0,0.506.092,0.732,0.376,0.356.478,0.577,0.015,0.521.128,0.737,0.362,0.344.484,0.555,0.257,0.4.387,0.6,0.262,0.394.4,0.6,0.327,0.347.47,0.544,0.234,0.414.383,0.607,0.164,0.475.317,0.663,0.3,0.375.455,0.56,0.314,0.36.476,0.542,0.439,0.245.6,0.423,0.194,0.475.363,0.65,0.3,0.377.475,0.55,0.483,0.194.658,0.363,0.2,0.489.376,0.656,0.534,0.133.714,0.3,0.281,0.4.461,0.561,0.3,0.387.479,0.546,0.487,0.166.671,0.323,0.306,0.377.493,0.532,0.3,0.389.487,0.542,0.338,0.344.528,0.495,0.4,0.268.591,0.417,0.487,0.153.679,0.3,0.311,0.383.5,0.528,0.46,0.185.655,0.329,0.321,0.373.516,0.516,0.356,0.328.553,0.469,0.508,0.114.706,0.255,0.333,0.36.533,0.5,0.3,0.416.5,0.553,0.429,0.227.63,0.363,0.414,0.247.616,0.381,0.531,0.07.734,0.2,0.272,0.47.475,0.6,0.458,0.182.661,0.313,0.471,0.156.674,0.285,0.288,0.448.491,0.575,0.545,0.034.749,0.16,0.382,0.293.585,0.417,0.317,0.4.522,0.527,0.443,0.195.648,0.317,0.472,0.144.676,0.265,0.305,0.425.509,0.545,0.444,0.186.648,0.305,0.411,0.249.617,0.367,0.367,0.325.573,0.442,0.5,0.084.709,0.2,0.469,0.142.675,0.256,0.339,0.372.545,0.487,0.379,0.3.585,0.412,0.419,0.223.624,0.335,0.435,0.209.643,0.32,0.421,0.234.629,0.345,0.4,0.28.6,0.389,0.475,0.134.682,0.243,0.439,0.2.645,0.307,0.5,0.076.71,0.183,0.326,0.426.531,0.53c0.22,0.112.417,0.254,0.621,0.357,0.224,0.112.53,0.034,0.733,0.135,0.227,0.113.376,0.351,0.576,0.449,0.234,0.115.454,0.21,0.648,0.305,0.247,0.12.413,0.327,0.593,0.413a1.4,1.4,0,0,0,.76.054,0.178,0.178,0,0,0,.119-0.048,1.547,1.547,0,0,0,.728-0.1c0.179-.086.318-0.343,0.564-0.462,0.194-.094.4-0.214,0.633-0.329,0.2-.1.422-0.187,0.649-0.3,0.2-.1.393-0.247,0.615-0.358,0.2-.1.539,0.032,0.759-0.079s0.327-.391.545-0.5,0.388-.271.6-0.384,0.479-.094.694-0.208,0.379-.288.594-0.4c0.04-.021.083-0.04,0.124-0.06l0.044-.073,0.159-.212-0.07-.076,0.166-.174,0.344-.4,0.512-.1,0.335-.182,0.432-.021,0.239-.062,0.311-.049,0.1-.027,0.211-.032,0.2-.084,0.117,0.014h0c0.207-.114.387-0.285,0.6-0.4s0.486-.11.7-0.228,0.3-.436.512-0.556,0.383-.293.592-0.413,0.454-.171.662-0.292,0.512-.072.721-0.194,0.362-.33.569-0.453,0.434-.208.641-0.332,0.351-.346.558-0.471,0.344-.355.55-0.48,0.543-.033.748-0.159,0.39-.281.594-0.409,0.378-.3.582-0.428,0.422-.23.624-0.36,0.359-.327.56-0.458,0.38-.294.58-0.426,0.377-.32.579-0.455,0.558-.039.757-0.173,0.346-.355.545-0.491,0.356-.335.552-0.472,0.436-.224.632-0.362,0.3-.414.494-0.554,0.382-.294.575-0.435,0.432-.225.623-0.367,0.344-.34.534-0.484,0.4-.271.59-0.416,0.545-.087.732-0.234,0.306-.394.492-0.543,0.422-.246.607-0.4,0.279-.419.462-0.571,0.393-.28.573-0.433,0.4-.271.58-0.426,0.216-.479.392-0.637,0.549-.114.725-0.275,0.34-.346.514-0.509,0.372-.312.543-0.478,0.278-.409.445-0.578,0.213-.465.378-0.636,0.477-.213.639-0.387,0.366-.321.524-0.5a0.811,0.811,0,0,0,.141-0.294l0.036-.138-0.17-.227,0.345-.259-0.241-.461,0.117-.149a1.391,1.391,0,0,0,.222-0.684,0.7,0.7,0,0,1,.45.215l-0.036.249,0.318,0.22-0.025.094-0.023.032a1.149,1.149,0,0,0,.284-0.234c0.148-.193.078-0.544,0.216-0.735s0.4-.306.534-0.5,0.189-.453.315-0.653,0.383-.335.5-0.539,0.045-.526.154-0.734,0.24-.415.34-0.629,0.353-.373.44-0.592-0.027-.522.046-0.745,0.217-.433.276-0.661,0.309-.43.351-0.662-0.188-.512-0.167-0.748,0.07-.468.07-0.705a2.3,2.3,0,0,0,.174-0.718c0-.2-0.034-0.444-0.038-0.721,0-.22-0.107-0.462-0.11-0.724,0-.228.1-0.473,0.1-0.731,0-.23-0.159-0.469-0.162-0.721,0-.233-0.037-0.475-0.04-0.726,0-.234.024-0.477,0.021-0.727s0.187-.481.183-0.729-0.2-.476-0.2-0.723-0.073-.478-0.076-0.724,0.146-.482.143-0.728,0-.481,0-0.726,0.143-.485.14-0.73-0.283-.48-0.286-0.725-0.04-.483-0.043-0.728,0-.484,0-0.729,0.2-.487.2-0.732-0.033-.484-0.036-0.728-0.005-.486-0.008-0.73,0.053-.486.05-0.729,0.024-.486.021-0.729-0.237-.483-0.24-0.726,0.123-.487.12-0.73,0-.484,0-0.727-0.081-.485-0.084-0.728,0-.484,0-0.726,0.117-.485.115-0.726-0.031-.483-0.033-0.723,0.074-.484.071-0.725-0.046-.481-0.048-0.721-0.123-.481-0.125-0.72,0.086-.482.084-0.72-0.1-.484-0.1-0.724,0.081-.485.079-0.724-0.1-.484-0.1-0.723-0.1-.484-0.1-0.723,0.089-.486.088-0.723,0.04-.485.039-0.723,0-.485-0.006-0.721-0.138-.485-0.139-0.72,0.206-.488.205-0.722-0.209-.489-0.209-0.723c0-.25.167-0.491,0.167-0.724,0-.251-0.069-0.493-0.068-0.723,0-.256-0.044-0.5-0.043-0.725,0-.261.205-0.5,0.207-0.721a0.355,0.355,0,0,1,.217-0.359c0.184-.117.357-0.3,0.577-0.445,0.192-.124.374-0.293,0.584-0.437,0.194-.132.336-0.355,0.538-0.5s0.33-.357.523-0.511,0.377-.294.562-0.456,0.369-.3.541-0.477,0.36-.32.52-0.5,0.461-.257.6-0.451a6.569,6.569,0,0,0,.33-0.661,5.031,5.031,0,0,0,.178-0.711,4.089,4.089,0,0,0,.27-0.662,3.648,3.648,0,0,0,.132-0.712,4.181,4.181,0,0,0,.072-0.7,3.149,3.149,0,0,0-.26-0.651,3.417,3.417,0,0,0-.546-0.452,4.538,4.538,0,0,0-.3-0.632,5.4,5.4,0,0,0-.518-0.447c-0.187-.133-0.344-0.32-0.531-0.43-0.311-.193-0.4-0.049-0.71-0.244s-0.364-.11-0.674-0.3-0.313-.187-0.622-0.382-0.235-.311-0.544-0.505-0.349-.127-0.656-0.319-0.241-.3-0.549-0.492-0.261-.264-0.566-0.457-0.458.045-.766-0.149-0.311-.187-0.618-0.38-0.251-.283-0.557-0.476-0.278-.241-0.586-0.435-0.4-.048-0.7-0.241-0.215-.337-0.521-0.529-0.253-.277-0.559-0.469-0.41-.03-0.718-0.223-0.215-.336-0.522-0.528-0.351-.119-0.655-0.311-0.373-.083-0.677-0.274-0.157-.426-0.461-0.617-0.342-.13-0.646-0.321-0.307-.19-0.612-0.379c-0.258-.152-0.51-0.287-0.755-0.456-0.191-.132-0.47-0.116-0.659-0.232a3.717,3.717,0,0,0-.552-0.39,1.833,1.833,0,0,0-.659-0.065,1.333,1.333,0,0,0-.653.208,2.294,2.294,0,0,0-.685.29,5.291,5.291,0,0,0-.573.5c-0.146.192-.22,0.451-0.366,0.657-0.2.285-.2,0.283-0.405,0.567s-0.138.329-.339,0.614-0.094.359-.295,0.643-0.2.284-.4,0.568-0.286.219-.486,0.5-0.1.352-.3,0.634-0.387.147-.586,0.428-0.024.407-.224,0.69-0.308.2-.508,0.486-0.25.245-.449,0.527-0.127.334-.327,0.616-0.215.269-.414,0.551a0.513,0.513,0,0,1-.473.121c-0.359,0-.359.134-0.718,0.134s-0.359.135-.718,0.135-0.358-.032-0.716-0.032S91.179,57.1,90.822,57.1s-0.355.021-.711,0.021-0.356-.036-0.713-0.036-0.356-.232-0.713-0.232-0.357.029-.714,0.029-0.356.026-.712,0.026-0.355-.022-0.711-0.022-0.357.057-.714,0.057-0.355-.068-0.71-0.068-0.355.1-.709,0.1a0.617,0.617,0,0,1-.653-0.53c0-.253.223-0.5,0.223-0.736,0-.253-0.195-0.5-0.195-0.734s0.2-.5.2-0.731c0-.252-0.03-0.5-0.03-0.732,0-.252-0.1-0.495-0.1-0.731,0-.252-0.032-0.494-0.032-0.73s0.09-.493.091-0.729-0.126-.492-0.125-0.73,0.237-.489.239-0.729-0.208-.49-0.206-0.733-0.012-.485-0.01-0.729S83.8,47.917,83.8,47.668s0.033-.482.036-0.732,0.147-.48.151-0.732-0.1-.482-0.095-0.734,0.024-.48.028-0.733c0-.237-0.08-0.483-0.077-0.735s0.091-.481.1-0.733,0.091-.481.1-0.734-0.145-.485-0.141-0.738a0.641,0.641,0,0,1,.641-0.563c0.366,0,.366.041,0.732,0.041s0.366,0.013.732,0.013,0.365-.179.73-0.179,0.364,0.268.728,0.268,0.363-.005.725-0.005,0.363-.207.726-0.207,0.364-.066.727-0.066,0.364,0.038.728,0.038,0.363,0.107.726,0.107,0.362-.172.725-0.172,0.364,0.133.727,0.133,0.362,0.042.724,0.042,0.361,0.017.723,0.017,0.361-.173.723-0.173,0.363,0.031.726,0.031,0.362,0.1.723,0.1,0.361,0.154.722,0.154,0.359,0.017.718,0.017,0.36-.312.719-0.312,0.362,0.059.724,0.059,0.361-.058.723-0.058,0.362,0.251.724,0.251,0.362,0.059.724,0.059,0.362-.1.724-0.1,0.362-.041.723-0.041,0.361-.1.723-0.1,0.36-.009.722-0.009,0.361,0.26.722,0.26,0.362-.112.724-0.112,0.362-.06.724-0.06,0.362-.051.724-0.051,0.361,0.083.722,0.083,0.36,0.015.721,0.015,0.36,0.018.721,0.018,0.36-.168.721-0.168,0.36-.017.72-0.017,0.361,0.113.721,0.113,0.361-.047.722-0.047,0.361,0.017.722,0.017,0.362-.028.723-0.028,0.362,0.093.724,0.093,0.361-.139.722-0.139,0.36,0.165.72,0.165,0.36,0.1.721,0.1H117.1c0.359,0,.359-0.058.718-0.058s0.36-.2.718-0.2,0.36,0.1.719,0.1,0.359-.011.717-0.011,0.36,0.093.719,0.093,0.359-.019.718-0.019,0.359-.121.719-0.121,0.359-.091.718-0.091c0.245,0,.463.146,0.659,0.121a5.218,5.218,0,0,0,.688.009,1.722,1.722,0,0,0,.533-0.441,1.565,1.565,0,0,0,.484-0.5,2.132,2.132,0,0,0,.011-0.694,2.225,2.225,0,0,0-.31-0.724,3.535,3.535,0,0,0-.216-0.761,4.2,4.2,0,0,0-.626-0.492,2.512,2.512,0,0,1-.411-0.7c-0.273-.242-0.24-0.278-0.512-0.521s-0.43-.066-0.7-0.309-0.329-.179-0.6-0.422-0.06-.477-0.331-0.719-0.447-.043-0.716-0.284-0.113-.417-0.382-0.659c-0.012-.011-0.02-0.013-0.031-0.022a0.435,0.435,0,0,1-.06.115l-0.023.027a0.436,0.436,0,0,1-.589.017,0.541,0.541,0,0,1-.06-0.068A0.378,0.378,0,0,1,119.513,34a0.361,0.361,0,0,1-.169-0.188,0.367,0.367,0,0,1-.293-0.078,0.362,0.362,0,0,1-.117-0.182,0.371,0.371,0,0,1-.139-0.114,0.331,0.331,0,0,1-.064-0.137,0.6,0.6,0,0,1-.069-0.125,0.967,0.967,0,0,1-.066-0.118,0.4,0.4,0,0,1-.144-0.239,0.358,0.358,0,0,1,.04-0.177c-0.153-.134-0.205-0.172-0.422-0.368-0.27-.241-0.223-0.294-0.492-0.535s-0.187-.33-0.455-0.57-0.274-.233-0.542-0.473S116.273,30.5,116,30.264s-0.343-.159-0.612-0.4-0.093-.435-0.361-0.675-0.357-.139-0.625-0.378-0.247-.26-0.513-0.5-0.3-.2-0.565-0.44-0.336-.161-0.6-0.4-0.2-.314-0.466-0.553-0.281-.224-0.548-0.464-0.205-.311-0.476-0.547c-0.072-.051-0.113-0.183-0.262-0.307-0.175-.146-0.376-0.336-0.6-0.5a4.23,4.23,0,0,0-.7-0.378,1.837,1.837,0,0,0-.78-0.045,1.766,1.766,0,0,0-.731.166,2.4,2.4,0,0,0-.581.477,6.232,6.232,0,0,0-.758.357,5.142,5.142,0,0,0-.356.71c-0.22.3-.2,0.312-0.425,0.6s-0.271.256-.5,0.548-0.24.279-.464,0.57-0.282.247-.507,0.537-0.017.448-.24,0.738-0.43.13-.654,0.42,0.005,0.463-.218.751-0.354.19-.578,0.48-0.1.382-.326,0.671-0.442.12-.665,0.41-0.123.367-.347,0.657-0.329.206-.551,0.5-0.159.336-.382,0.624-0.232.281-.455,0.569-0.23.284-.454,0.574-0.12.367-.343,0.655-0.257.261-.477,0.55a0.465,0.465,0,0,1-.452.079c-0.368,0-.368.119-0.737,0.119s-0.368.111-.736,0.111-0.367.105-.735,0.105-0.366-.119-0.733-0.119-0.365-.177-0.73-0.177-0.365.085-.731,0.085-0.365.1-.731,0.1-0.366-.1-0.733-0.1-0.365-.059-0.73-0.059-0.365.229-.73,0.229-0.366-.067-0.732-0.067-0.364.016-.728,0.016-0.364-.213-0.728-0.213-0.364.241-.728,0.241-0.366-.008-0.731-0.008-0.364.059-.728,0.059-0.363-.283-0.726-0.283-0.362.155-.724,0.155-0.361-.061-0.723-0.061a0.842,0.842,0,0,1-.52-0.018,0.878,0.878,0,0,1-.171-0.523c0.006-.36-0.026-0.36-0.021-0.72s0.074-.358.079-0.717,0.018-.359.023-0.717S83.9,33.4,83.91,33.044s0.078-.355.083-0.711,0.15-.354.156-0.71,0-.357,0-0.714S84.1,30.55,84.1,30.193s-0.169-.359-0.164-0.715,0.115-.355.12-0.711-0.023-.357-0.017-0.715,0.216-.352.221-0.707,0.035-.354.04-0.709-0.238-.36-0.232-0.715,0.155-.354.161-0.711-0.181-.357-0.176-0.713,0.216-.351.221-0.705-0.231-.356-0.226-0.71,0.221-.349.227-0.7-0.083-.357-0.078-0.712-0.136-.357-0.131-0.712,0.292-.352.3-0.707a0.517,0.517,0,0,1,.4-0.607c0.245-.016.483-0.071,0.723-0.087s0.5,0.166.738,0.149,0.466-.266.7-0.283,0.487,0,.725-0.015,0.5,0.154.735,0.135,0.481-.043.717-0.062,0.468-.183.7-0.2,0.5,0.149.736,0.128,0.482-.058.718-0.079,0.478-.093.715-0.115,0.471-.145.707-0.168,0.485,0.006.721-.017,0.487,0.03.722,0,0.448-.328.682-0.354,0.5,0.137.732,0.111,0.485,0.023.718,0,0.47-.139.705-0.167,0.481-.042.716-0.072,0.454-.255.688-0.285,0.482-.042.717-0.074,0.489,0.021.724-.012,0.473-.1.707-0.137,0.483-.034.717-0.068,0.478-.061.712-0.1,0.5,0.079.733,0.043,0.447-.265.681-0.3,0.471-.1.705-0.135,0.512,0.159.747,0.122,0.447-.244.682-0.282,0.5,0.064.731,0.026a0.457,0.457,0,0,1,.075-0.028,0.675,0.675,0,0,1,.112-0.043c0.229,0.049.518-.056,0.8-0.009,0.249,0.042.515,0.045,0.784,0.085s0.493,0.293.753,0.328,0.525,0.126.776,0.159,0.485,0,.693.029c0.271,0.037.507,0.031,0.679,0.061,0.1,0.008.2-.027,0.3-0.027a2.865,2.865,0,0,0,.725-0.181,3.322,3.322,0,0,0,.791-0.072,2.584,2.584,0,0,0,.476-0.626,1.973,1.973,0,0,0,.337-0.642,2.411,2.411,0,0,0,.419-0.7,3.822,3.822,0,0,0-.067-0.754,2.324,2.324,0,0,0-.3-0.707,2.763,2.763,0,0,0-.488-0.585c-0.164-.146-0.5-0.116-0.719-0.266-0.183-.125-0.381-0.255-0.606-0.394-0.191-.117-0.359-0.3-0.582-0.438-0.26-.158-0.241-0.19-0.5-0.346-0.314-.188-0.3-0.21-0.616-0.4s-0.415-.017-0.731-0.2l-0.628-.372c-0.314-.185-0.243-0.305-0.557-0.491-0.01-.005-0.015-0.006-0.025-0.012a0.251,0.251,0,0,1-.09.014,0.154,0.154,0,0,0-.115.017,0.354,0.354,0,0,1-.117.043,0.323,0.323,0,0,0-.106.041,0.376,0.376,0,0,0-.091.068,0.427,0.427,0,0,1-.1.075,0.683,0.683,0,0,1-.108.052,0.644,0.644,0,0,0-.1.05,0.316,0.316,0,0,0-.089.071,0.33,0.33,0,0,1-.1.08,0.39,0.39,0,0,1-.115.045,0.37,0.37,0,0,0-.107.042c-0.05.029-.078,0.043-0.1,0.056a1.1,1.1,0,0,0-.105.056,0.477,0.477,0,0,0-.094.068,0.476,0.476,0,0,1-.1.072c-0.051.029-.075,0.045-0.1,0.061s-0.05.033-.1,0.062a0.2,0.2,0,0,0-.08.082,0.226,0.226,0,0,1-.091.094,0.522,0.522,0,0,1-.112.049,0.469,0.469,0,0,0-.1.047l-0.016.007,1.332-1.652a2.523,2.523,0,0,1-.393-0.191c-0.313-.185-0.162-0.44-0.475-0.625s-0.454.051-.767-0.134-0.276-.245-0.589-0.43-0.313-.183-0.626-0.368-0.307-.2-0.62-0.38-0.286-.228-0.6-0.412-0.376-.073-0.688-0.257-0.295-.211-0.607-0.4-0.195-.383-0.508-0.568-0.4-.042-0.707-0.226-0.271-.251-0.582-0.435-0.347-.119-0.657-0.3-0.357-.1-0.666-0.285S98.447,5.079,98.137,4.9s-0.21-.351-0.521-0.533S97.3,4.185,96.992,4s-0.321-.168-0.634-0.352-0.305-.194-0.617-0.379-0.33-.152-0.641-0.335-0.309-.187-0.62-0.371-0.442.039-.753-0.145S93.47,2.144,93.159,1.96,92.845,1.781,92.534,1.6s-0.246-.3-0.558-0.48-0.309-.189-0.62-0.373S90.991,0.652,90.68.469,90.421,0.2,90.11.015a0.592,0.592,0,0,0-.182.074A0.663,0.663,0,0,0,89.689.008C89.5,0.149,89.3.263,89.1,0.4s-0.223.508-.425,0.643-0.507.1-.711,0.226S87.6,1.6,87.4,1.724s-0.461.159-.671,0.282-0.412.235-.624,0.355-0.312.417-.524,0.534-0.541,0-.755.114-0.386.29-.6,0.4-0.362.343-.579,0.453-0.526.018-.744,0.125-0.363.352-.582,0.457-0.441.194-.662,0.3-0.4.294-.618,0.395-0.479.114-.7,0.214-0.455.157-.677,0.253-0.456.154-.678,0.25-0.422.233-.645,0.327-0.454.159-.678,0.252-0.407.274-.631,0.366-0.482.091-.706,0.181-0.473.114-.7,0.2-0.413.264-.639,0.352L74.308,7.8c-0.224.086-.391,0.327-0.618,0.412s-0.449.177-.676,0.261-0.487.073-.715,0.157-0.523-.029-0.751.053-0.35.454-.578,0.536-0.472.113-.7,0.194-0.458.152-.687,0.233-0.509,0-.738.083-0.418.267-.647,0.345-0.483.078-.713,0.155-0.487.065-.716,0.141-0.461.144-.691,0.22-0.468.116-.7,0.191-0.365.442-.6,0.516-0.5.005-.735,0.078-0.465.131-.695,0.2-0.433.231-.664,0.3-0.52-.049-0.751.022-0.454.163-.684,0.234-0.381.407-.612,0.476-0.556-.175-0.787-0.107-0.373.436-.6,0.5-0.534-.105-0.765-0.037-0.443.2-.674,0.266-0.47.108-.7,0.174-0.415.3-.646,0.367-0.454.165-.685,0.23-0.485.051-.717,0.115-0.486.047-.717,0.11-0.447.186-.678,0.249-0.484.05-.716,0.113-0.481.056-.712,0.118-0.408.334-.639,0.4-0.484.043-.716,0.1-0.446.187-.677,0.247-0.487.03-.718,0.089-0.453.158-.684,0.217-0.481.045-.712,0.1-0.493.008-.725,0.065-0.409.345-.641,0.4-0.486.034-.719,0.09-0.459.143-.691,0.2-0.474.08-.706,0.135-0.446.2-.678,0.254-0.471.09-.7,0.144-0.508-.072-0.74-0.019-0.436.244-.668,0.3-0.5-.051-0.733,0-0.435.25-.667,0.3-0.441.226-.673,0.276-0.491-.008-0.722.042S38.529,18,38.3,18.045s-0.445.209-.676,0.257-0.469.092-.7,0.138-0.484.015-.715,0.06-0.449.216-.683,0.261a0.675,0.675,0,0,1-.117.017,1.2,1.2,0,0,1-.155-0.187c-0.339-.119-0.346-0.1-0.685-0.217s-0.319-.174-0.658-0.293-0.426.135-.764,0.016-0.348-.089-0.685-0.208-0.3-.2-0.64-0.322-0.334-.124-0.669-0.242-0.313-.185-0.649-0.3-0.356-.064-0.693-0.183-0.27-.3-0.606-0.421-0.4.072-.737-0.047-0.31-.194-0.646-0.312-0.314-.178-0.649-0.3-0.341-.1-0.675-0.216-0.4.081-.739-0.037-0.267-.314-0.6-0.432-0.306-.2-0.641-0.317-0.346-.081-0.679-0.2-0.325-.138-0.658-0.255-0.417.125-.749,0.007-0.267-.3-0.6-0.421-0.352-.069-0.686-0.187-0.365-.031-0.7-0.149-0.287-.254-0.622-0.372-0.356-.058-0.691-0.176-0.356-.054-0.691-0.172-0.295-.227-0.629-0.345-0.319-.158-0.653-0.276-0.422.13-.756,0.012-0.283-.265-0.617-0.383-0.381.015-.716-0.1-0.288-.249-0.623-0.367-0.337-.108-0.671-0.226-0.295-.228-0.628-0.345-0.411.117-.748,0.01a0.134,0.134,0,0,1-.028,0s0,0.01-.017.029a0.464,0.464,0,0,0-.273.221c0.072,0.214.085,0.452,0.154,0.689,0.064,0.219.229,0.417,0.29,0.654s0.1,0.457.158,0.7,0.13,0.451.181,0.69,0.126,0.455.172,0.693,0.239,0.436.283,0.675,0.1,0.464.135,0.7-0.215.515-.178,0.754,0.123,0.46.158,0.7,0.325,0.435.358,0.674,0.018,0.48.05,0.72-0.1.495-.068,0.735,0.024,0.479.053,0.72,0.28,0.45.307,0.69-0.079.492-.053,0.732,0.195,0.463.22,0.7-0.251.508-.227,0.749,0.162,0.466.184,0.707,0.006,0.481.027,0.721,0.25,0.461.27,0.7,0.048,0.478.067,0.718-0.27.5-.251,0.742,0.045,0.477.063,0.716,0.163,0.468.18,0.706a0.863,0.863,0,0,0,.021.1c0.005,0,.011,0,0.017.01a0.678,0.678,0,0,1,.083.085,0.672,0.672,0,0,0,.082.084,0.4,0.4,0,0,0,.094.065,0.5,0.5,0,0,1,.1.07,0.168,0.168,0,0,1,.051.136,0.133,0.133,0,0,0,.041.113,0.152,0.152,0,0,0,.11.039,0.186,0.186,0,0,1,.129.048,0.238,0.238,0,0,1,.071.108,0.211,0.211,0,0,0,.064.1,0.178,0.178,0,0,0,.1.049,0.213,0.213,0,0,1,.12.057,0.2,0.2,0,0,1,.066.117,0.172,0.172,0,0,0,.057.1,0.138,0.138,0,0,0,.115.03,0.167,0.167,0,0,1,.139.039,0.182,0.182,0,0,1,.062.122,0.155,0.155,0,0,0,.052.1,0.34,0.34,0,0,1,.078.1,0.292,0.292,0,0,0,.072.089,0.4,0.4,0,0,0,.093.065,0.393,0.393,0,0,1,.1.07,0.767,0.767,0,0,1,.084.086,0.665,0.665,0,0,0,.079.084,0.338,0.338,0,0,0,.1.061,0.351,0.351,0,0,1,.106.067,0.409,0.409,0,0,1,.079.1,0.35,0.35,0,0,0,.073.088c0.044,0.039.065,0.061,0.086,0.082s0.042,0.043.086,0.082a0.446,0.446,0,0,0,.094.067,0.49,0.49,0,0,1,.1.072c0.044,0.039.067,0.057,0.09,0.075s0.046,0.037.09,0.076a0.187,0.187,0,0,0,.1.05,0.237,0.237,0,0,1,.118.057,0.467,0.467,0,0,1,.081.091,0.481,0.481,0,0,0,.078.085l0.011,0.013-2.734-1.025c-0.017-.018-0.03-0.033-0.04-0.045a0.462,0.462,0,0,0-.071-0.076c-0.038-.032-0.057-0.05-0.075-0.067l-0.084-.074a0.22,0.22,0,0,1-.067-0.1,0.191,0.191,0,0,0-.058-0.083l-0.014-.011a1.6,1.6,0,0,0-.109.5c0.015,0.239-.056.481-0.041,0.719s0.065,0.474.079,0.711,0.256,0.463.269,0.7-0.088.482-.076,0.718,0.108,0.472.12,0.708,0.051,0.474.062,0.709-0.185.483-.175,0.718,0.208,0.471.218,0.707-0.26.491-.251,0.726,0.106,0.477.114,0.712,0.236,0.473.245,0.707-0.154.487-.146,0.721-0.065.483-.059,0.716,0.116,0.479.122,0.712,0.157,0.48.162,0.712-0.281.49-.276,0.721c0,0.247.037,0.485,0.04,0.715,0,0.25.064,0.488,0.066,0.714,0,0.254.007,0.492,0.007,0.714s0.057,0.465.056,0.7,0,0.473,0,.713,0,0.472,0,.71-0.076.475-.079,0.715-0.027.472-.031,0.711,0.086,0.475.081,0.715-0.044.474-.05,0.714-0.145.473-.152,0.712,0.171,0.483.164,0.724-0.086.476-.094,0.716,0,0.476-.011.715,0.173,0.483.164,0.723-0.1.473-.109,0.712-0.261.467-.27,0.706-0.01.477-.02,0.717,0.172,0.485.161,0.725-0.083.475-.1,0.715,0.156,0.486.144,0.726S15.016,57.1,15,57.335s-0.128.473-.141,0.713,0.084,0.484.07,0.723-0.014.479-.028,0.719-0.236.466-.25,0.706,0.106,0.486.09,0.726,0.006,0.48-.009.72-0.142.471-.158,0.711,0.061,0.484.045,0.723-0.086.475-.1,0.714-0.161.469-.178,0.709-0.044.476-.061,0.715,0.044,0.484.026,0.723,0.109,0.488.091,0.727-0.216.464-.235,0.7,0.159,0.492.139,0.731-0.058.475-.077,0.713-0.192.464-.211,0.7-0.136.468-.157,0.706,0.2,0.5.176,0.734-0.047.475-.068,0.712-0.086.472-.108,0.709-0.193.461-.215,0.7-0.082.471-.1,0.708,0.04,0.482.017,0.718-0.022.476-.044,0.712-0.019.477-.042,0.714,0,0.478-.029.715-0.251.453-.275,0.689,0.062,0.485.038,0.721-0.176.46-.2,0.7,0.1,0.488.072,0.724-0.033.474-.059,0.71-0.187.457-.213,0.692,0.09,0.488.064,0.723-0.017.476-.044,0.71,0.045,0.484.017,0.717-0.122.466-.151,0.7,0,0.48-.033.714-0.178.459-.208,0.694,0,0.48-.03.715-0.035.476-.066,0.711-0.055.473-.087,0.707-0.2.454-.231,0.688-0.149.459-.182,0.693,0.006,0.481-.027.714-0.091.468-.125,0.7,0.06,0.5.023,0.743-0.285.446-.321,0.683,0.065,0.5.027,0.737-0.231.451-.269,0.687,0.009,0.487-.029.721-0.153.463-.192,0.7,0.059,0.5.019,0.733-0.224.448-.265,0.683,0.054,0.5.012,0.73-0.177.453-.22,0.687,0,0.485-.043.718,0.024,0.494-.021.728-0.222.445-.269,0.679,0.1,0.509.049,0.742-0.2.449-.247,0.682-0.2.446-.255,0.679-0.038.481-.09,0.713-0.2.444-.256,0.676,0,0.491-.051.722,0.015,0.5-.041.727-0.208.441-.266,0.672-0.051.48-.111,0.71-0.174.449-.234,0.678-0.332.4-.395,0.634,0,0.493-.068.722,0.041,0.509-.025.737-0.431.372-.5,0.6,0.015,0.5-.054.73-0.057.483-.128,0.71-0.219.432-.292,0.66-0.285.41-.359,0.637-0.044.489-.119,0.716-0.281.41-.358,0.636-0.117.465-.2,0.691-0.146.456-.227,0.681-0.131.462-.213,0.687-0.1.473-.186,0.7-0.115.47-.2,0.694-0.285.4-.373,0.628-0.024.506-.113,0.73-0.187.443-.278,0.666-0.291.4-.384,0.623-0.013.516-.107,0.738-0.238.423-.333,0.645-0.2.44-.294,0.662-0.415.344-.512,0.566-0.1.482-.2,0.7-0.208.435-.309,0.656-0.238.422-.339,0.644S2,124.274,1.9,124.493s-0.2.436-.3,0.655-0.178.446-.282,0.665-0.192.44-.3,0.658a0.265,0.265,0,0,0,.016.361c0.338,0.209.4,0.112,0.736,0.321m93.379-21.7c0,0.343-.047.343-0.047,0.687,0,0.237.068,0.487,0.046,0.727s-0.293.441-.335,0.679,0.011,0.484-.048.719-0.011.5-.087,0.725-0.206.437-.294,0.663-0.127.469-.227,0.689-0.426.324-.536,0.539-0.189.434-.308,0.645-0.157.46-.283,0.666-0.174.459-.308,0.662-0.366.331-.506,0.529-0.266.4-.411,0.591-0.295.376-.444,0.566-0.156.49-.31,0.676-0.338.345-.5,0.527-0.379.307-.539,0.486-0.413.272-.577,0.448-0.258.415-.425,0.589-0.217.46-.386,0.63-0.484.195-.655,0.363-0.214.471-.387,0.637-0.357.324-.533,0.487a3.248,3.248,0,0,1-.414.3l0.023,0.04,0.038,0.275,0.124,0.179-0.3.2-0.075.145,0.09,0.171,0.012,0.1-0.345.174v0.252a0.689,0.689,0,0,1-.474.151,1.4,1.4,0,0,0-.127-0.708l-0.084-.145a0.83,0.83,0,0,1-.158.22c-0.182.157-.441,0.221-0.623,0.374s-0.3.385-.484,0.536-0.3.39-.484,0.538-0.339.345-.523,0.491-0.445.209-.63,0.354-0.478.162-.663,0.305-0.256.46-.445,0.6-0.512.121-.7,0.261-0.3.414-.486,0.552-0.381.3-.571,0.435-0.391.288-.58,0.422-0.359.339-.548,0.469c-0.205.142-.435,0.23-0.623,0.357-0.209.143-.5,0.141-0.683,0.264-0.215.143-.417,0.266-0.6,0.384-0.233.152-.432,0.283-0.6,0.389a0.8,0.8,0,0,1-.259.239,0.865,0.865,0,0,1-.245-0.251c-0.165-.1-0.339-0.267-0.568-0.412-0.181-.116-0.49-0.072-0.707-0.212-0.185-.121-0.265-0.428-0.474-0.567-0.188-.124-0.534-0.032-0.74-0.171-0.189-.128-0.326-0.349-0.529-0.488s-0.331-.339-0.53-0.478-0.5-.111-0.693-0.25-0.332-.348-0.53-0.49-0.32-.365-0.515-0.509-0.35-.325-0.545-0.47-0.405-.254-0.6-0.4-0.484-.143-0.674-0.29-0.3-.381-0.491-0.529-0.453-.192-0.64-0.343-0.3-.383-0.485-0.534-0.331-.344-0.514-0.5-0.494-.152-0.676-0.307-0.294-.387-0.474-0.545-0.243-.441-0.421-0.6-0.389-.275-0.564-0.436-0.368-.3-0.541-0.464-0.508-.156-0.679-0.321-0.171-.506-0.339-0.673-0.4-.269-0.568-0.438-0.419-.258-0.581-0.43-0.16-.5-0.318-0.674-0.512-.179-0.668-0.357-0.276-.394-0.427-0.574-0.166-.481-0.313-0.665-0.345-.335-0.487-0.523-0.383-.312-0.52-0.5-0.1-.51-0.233-0.705-0.315-.362-0.439-0.561-0.24-.41-0.357-0.614-0.144-.46-0.253-0.668-0.371-.347-0.469-0.56-0.294-.4-0.381-0.615-0.022-.5-0.1-0.726-0.066-.475-0.125-0.7-0.114-.456-0.155-0.687-0.1-.462-0.119-0.7-0.026-.469-0.026-0.705c0-.376.06-0.376,0.06-0.753s-0.1-.376-0.1-0.752-0.025-.375-0.026-0.75-0.164-.375-0.165-0.749,0.231-.373.231-0.746,0.038-.374.037-0.747-0.207-.373-0.208-0.747,0.147-.374.147-0.748-0.011-.373-0.012-0.746,0.115-.373.114-0.746a0.829,0.829,0,0,1-.076-0.484,0.808,0.808,0,0,1,.484.061,4.132,4.132,0,0,0,.713-0.221,3.993,3.993,0,0,1,.734.137c0.36,0,.36-0.093.721-0.093s0.36-.1.72-0.1,0.358,0.034.716,0.034,0.359-.033.718-0.033,0.358,0.038.718,0.038,0.359-.036.719-0.036,0.358,0.187.717,0.187,0.358-.143.717-0.143,0.359,0.025.718,0.025,0.357,0.17.715,0.17,0.357-.149.714-0.149,0.358,0.06.715,0.06,0.358-.07.717-0.07,0.358,0.071.715,0.071,0.357,0.064.712,0.064,0.356,0,.711,0,0.355-.028.71-0.028,0.357-.129.715-0.129,0.357,0.226.715,0.226,0.357-.179.714-0.179,0.358,0.058.717,0.058,0.357-.19.715-0.19,0.357,0.05.714,0.05,0.357,0.024.714,0.024,0.357,0.108.714,0.108,0.357-.066.714-0.066,0.357,0.068.714,0.068,0.358-.06.716-0.06,0.358-.078.715-0.078,0.357,0.245.713,0.245,0.357-.211.713-0.211,0.356-.024.713-0.024,0.356,0.079.712,0.079,0.356,0.144.712,0.144,0.356-.245.712-0.245,0.356,0.189.713,0.189S84.187,98,84.544,98s0.357-.136.715-0.136,0.357,0.15.714,0.15,0.357-.116.713-0.116,0.356,0.2.713,0.2,0.355,0.081.711,0.081S88.465,98,88.821,98s0.355-.118.71-0.118,0.355,0.061.709,0.061,0.355,0.035.71,0.035,0.354-.043.709-0.043,0.355-.047.71-0.047,0.354,0.265.709,0.265,0.355-.126.71-0.126,0.356-.146.711-0.146a0.634,0.634,0,0,1,.492.7c0,0.346.055,0.346,0.055,0.692s-0.054.345-.054,0.691-0.055.344-.055,0.689,0.086,0.344.086,0.688,0.068,0.343.068,0.685-0.116.343-.116,0.686,0.135,0.343.135,0.687,0.089,0.343.089,0.687-0.177.343-.177,0.686,0.129,0.342.129,0.685M95.213,92.8c0,0.36-.01.36-0.01,0.719a0.745,0.745,0,0,1-.7.618c-0.362,0-.362-0.2-0.723-0.2s-0.362.17-.724,0.17-0.36-.12-0.721-0.12-0.36.1-.719,0.1-0.359.109-.717,0.109-0.359.055-.718,0.055-0.358-.112-0.717-0.112-0.36-.166-0.72-0.166-0.358.211-.717,0.211-0.358-.212-0.717-0.212-0.358.158-.718,0.158-0.357.018-.715,0.018-0.357.008-.714,0.008-0.357.072-.715,0.072-0.359-.057-0.717-0.057-0.358-.162-0.716-0.162S82.656,94,82.3,94s-0.356,0-.711,0-0.355.162-.71,0.162-0.357-.181-0.715-0.181-0.357-.046-0.715-0.046-0.357.205-.715,0.205-0.358-.214-0.716-0.214S77.66,94.2,77.3,94.2s-0.357-.107-0.714-0.107S76.232,94,75.875,94s-0.357.193-.714,0.193S74.8,94.1,74.447,94.1s-0.357-.109-0.715-0.109-0.358-.055-0.716-0.055-0.357.039-.714,0.039-0.357.179-.714,0.179-0.356-.115-0.713-0.115a1.7,1.7,0,0,0-.517.11l-0.017.048-0.047.078-0.032.178-0.12.075-0.082.18-0.244,0-0.2.327-0.118.03a1.436,1.436,0,0,0-.452.259,0.339,0.339,0,0,1,0-.282l0.152-.113,0.036-.234,0.061-.038,0.122-.036,0.072-.1,0.062-.225,0.133-.024,0.174-.106,0.074-.019a1.606,1.606,0,0,0-.482-0.087c-0.356,0-.356-0.057-0.712-0.057s-0.356.2-.712,0.2-0.357-.1-0.713-0.1-0.357-.173-0.714-0.173-0.358.055-.715,0.055-0.357.027-.714,0.027-0.357.236-.714,0.236S64.1,94,63.745,94s-0.356.1-.712,0.1-0.355.122-.71,0.122S61.968,94,61.613,94s-0.355.26-.71,0.26-0.355-.049-0.709-0.049-0.355-.179-0.71-0.179-0.355.063-.709,0.063-0.355.119-.71,0.119S57.71,94,57.355,94s-0.355.063-.711,0.063a0.513,0.513,0,0,1-.53-0.539c0-.366.1-0.366,0.1-0.732s-0.175-.367-0.175-0.734-0.107-.365-0.107-0.731,0.16-.365.16-0.729,0.079-.364.079-0.726,0-.364,0-0.727-0.024-.365-0.024-0.728,0.007-.365.007-0.73,0.062-.363.062-0.726-0.1-.363-0.1-0.727-0.025-.364-0.025-0.728-0.163-.362-0.163-0.725,0.232-.362.232-0.723,0.038-.363.038-0.725-0.207-.363-0.207-0.727,0.148-.362.148-0.725-0.01-.361-0.01-0.722,0.115-.36.115-0.72-0.276-.36-0.276-0.719a0.578,0.578,0,0,1,.684-0.423,4.069,4.069,0,0,0,.718-0.191,3.862,3.862,0,0,1,.729.07c0.36,0,.36.065,0.721,0.065s0.36,0,.72,0,0.358-.028.716-0.028,0.359-.128.718-0.128,0.359,0.226.718,0.226,0.359-.18.719-0.18,0.358,0.058.717,0.058S63.478,79,63.837,79s0.359,0.05.718,0.05,0.358,0.023.715,0.023,0.357,0.109.714,0.109,0.358-.066.715-0.066,0.359,0.068.717,0.068,0.358-.061.716-0.061,0.356-.077.712-0.077,0.355,0.244.71,0.244,0.355-.21.71-0.21,0.358-.025.715-0.025,0.358,0.079.715,0.079,0.358,0.145.715,0.145,0.358-.245.716-0.245,0.358,0.189.716,0.189,0.357-.084.714-0.084S74.911,79,75.268,79s0.357,0.149.714,0.149,0.357-.115.714-0.115,0.357,0.2.715,0.2,0.358,0.081.716,0.081,0.357-.174.715-0.174,0.356-.118.713-0.118,0.356,0.061.713,0.061,0.356,0.035.712,0.035,0.356-.043.712-0.043,0.356-.048.712-0.048,0.357,0.265.712,0.265,0.357-.126.714-0.126,0.357-.145.713-0.145,0.358,0.2.715,0.2,0.357-.055.715-0.055,0.356,0.054.713,0.054,0.356,0.055.712,0.055,0.356-.086.712-0.086,0.355-.068.711-0.068,0.355,0.116.71,0.116,0.355-.135.709-0.135,0.355-.089.71-0.089,0.354,0.176.709,0.176,0.355-.128.71-0.128,0.354,0.047.709,0.047,0.355-.079.71-0.079,0.356,0.242.711,0.242a0.456,0.456,0,0,1,.546.442c0,0.366.119,0.366,0.119,0.733s-0.054.366-.054,0.733,0.059,0.365.059,0.731-0.249.364-.249,0.729,0.033,0.363.033,0.727,0.1,0.363.1,0.727,0.1,0.363.1,0.728-0.119.364-.119,0.728,0.015,0.363.015,0.727-0.008.363-.008,0.727,0.184,0.364.184,0.728-0.039.362-.039,0.724-0.085.362-.085,0.725-0.124.362-.124,0.724,0.1,0.363.1,0.727,0.164,0.362.164,0.725-0.2.361-.2,0.721,0.189,0.361.189,0.721M68.132,61.073c0.356,0,.356-0.211.712-0.211s0.355-.024.71-0.024,0.355,0.079.71,0.079,0.358,0.144.715,0.144,0.358-.245.715-0.245,0.358,0.19.715,0.19,0.358-.085.716-0.085,0.358-.135.716-0.135,0.357,0.149.714,0.149,0.356-.115.713-0.115,0.357,0.2.714,0.2S76.339,61.1,76.7,61.1s0.357-.175.715-0.175,0.358-.117.716-0.117,0.357,0.061.715,0.061S79.2,60.9,79.555,60.9s0.356-.043.713-0.043,0.356-.047.712-0.047,0.356,0.265.712,0.265,0.356-.126.712-0.126,0.357-.145.712-0.145,0.357,0.2.714,0.2,0.357-.055.713-0.055,0.358,0.054.715,0.054,0.357,0.055.715,0.055,0.356-.086.713-0.086a1.6,1.6,0,0,0,.33-0.03l0-.008c-0.039-.043-0.057-0.067-0.075-0.09S86.9,60.8,86.861,60.756a0.411,0.411,0,0,0-.086-0.078,0.5,0.5,0,0,1-.09-0.083c-0.039-.044-0.06-0.065-0.08-0.085a1.092,1.092,0,0,1-.081-0.086,0.192,0.192,0,0,0-.1-0.062,0.221,0.221,0,0,1-.11-0.071,0.476,0.476,0,0,1-.071-0.1A0.458,0.458,0,0,0,86.18,60.1l-0.01-.015,1.794,0.928a0.954,0.954,0,0,0,.146.012c0.355,0,.355-0.134.711-0.134s0.355-.09.71-0.09,0.355,0.177.709,0.177,0.355-.128.71-0.128,0.354,0.047.709,0.047,0.355-.08.71-0.08,0.354,0.243.709,0.243,0.355-.1.71-0.1,0.356-.119.711-0.119a0.7,0.7,0,0,1,.611.664c0,0.369.059,0.369,0.059,0.738s-0.249.369-.249,0.738,0.033,0.367.033,0.735,0.1,0.367.1,0.734,0.1,0.366.1,0.731-0.119.366-.119,0.732,0.015,0.366.015,0.732-0.008.367-.008,0.734,0.184,0.365.184,0.73-0.039.366-.039,0.732-0.085.366-.085,0.732-0.124.365-.124,0.73,0.1,0.364.1,0.728a2.97,2.97,0,0,0,.152.624l0.7,0.209a0.294,0.294,0,0,0,.034.2,0.327,0.327,0,0,1,.036.265c-0.032.108-.05,0.161-0.068,0.216s-0.034.1-.066,0.212c-0.014.048-.023,0.088-0.031,0.122a0.305,0.305,0,0,1-.206.261,0.284,0.284,0,0,1-.313.01c-0.027-.012-0.065-0.026-0.1-0.04a0.638,0.638,0,0,1,.015.109c0,0.364-.01.364-0.01,0.727s-0.086.362-.086,0.724a0.505,0.505,0,0,1-.618.416c-0.362,0-.362.17-0.723,0.17s-0.362-.12-0.724-0.12-0.36.1-.721,0.1-0.36.109-.719,0.109-0.359.055-.717,0.055-0.359-.112-0.718-0.112-0.358-.166-0.717-0.166-0.36.211-.72,0.211-0.358-.212-0.717-0.212-0.358.158-.717,0.158-0.358.018-.718,0.018-0.357.008-.715,0.008-0.357.072-.714,0.072-0.357-.057-0.715-0.057-0.359-.162-0.717-0.162-0.358-.009-0.716-0.009-0.355,0-.711,0-0.356.163-.711,0.163-0.355-.182-0.71-0.182-0.357-.046-0.715-0.046-0.357.205-.715,0.205-0.357-.214-0.715-0.214-0.358.268-.716,0.268-0.358-.107-0.715-0.107-0.357-.092-0.714-0.092-0.357.193-.714,0.193-0.357-.091-0.714-0.091-0.357-.109-0.714-0.109-0.357-.054-0.715-0.054-0.358.038-.716,0.038S72.659,75.3,72.3,75.3s-0.357-.115-0.714-0.115-0.356.128-.713,0.128S70.519,75.2,70.163,75.2s-0.356-.057-0.712-0.057-0.356.2-.712,0.2-0.356-.1-0.712-0.1-0.357-.173-0.713-0.173-0.357.055-.714,0.055-0.358.027-.715,0.027-0.357.236-.714,0.236-0.357-.244-0.714-0.244-0.356.1-.712,0.1-0.356.122-.712,0.122-0.355-.225-0.71-0.225-0.355.26-.71,0.26-0.355-.048-0.71-0.048-0.355-.18-0.709-0.18-0.355.063-.71,0.063-0.355.119-.709,0.119-0.355-.211-0.71-0.211-0.355.064-.71,0.064S57,75.2,56.644,75.2a0.436,0.436,0,0,1-.431-0.531c0-.368-0.175-0.368-0.175-0.737s-0.107-.369-0.107-0.738,0.16-.367.16-0.735,0.079-.368.079-0.735,0-.365,0-0.73-0.024-.366-0.024-0.732,0.007-.366.007-0.732,0.062-.367.062-0.734-0.1-.365-0.1-0.731-0.025-.366-0.025-0.731S55.92,66.964,55.92,66.6s0.232-.365.232-0.729,0.038-.364.038-0.728-0.207-.365-0.207-0.729,0.148-.366.148-0.732-0.01-.365-0.01-0.729,0.115-.364.115-0.727S55.96,61.862,55.96,61.5a0.577,0.577,0,0,1,.684-0.422,3.753,3.753,0,0,0,.735-0.057,3.531,3.531,0,0,1,.712,0c0.36,0,.36-0.028.721-0.028s0.36-.128.72-0.128,0.358,0.226.716,0.226,0.359-.18.718-0.18,0.359,0.058.718,0.058,0.359-.189.719-0.189,0.358,0.049.717,0.049,0.358,0.024.717,0.024,0.359,0.108.718,0.108,0.358-.066.715-0.066,0.357,0.069.714,0.069,0.358-.061.715-0.061,0.359-.077.717-0.077,0.358,0.244.716,0.244M32.62,33.714c0.008-.252.1-0.491,0.1-0.724,0.008-.254.011-0.5,0.018-0.729,0.008-.253-0.007-0.5,0-0.727,0.007-.252.021-0.492,0.029-0.724,0.007-.251.075-0.49,0.082-0.723,0.008-.249-0.088-0.492-0.081-0.728s-0.011-.487,0-0.728-0.151-.487-0.145-0.732,0.244-.476.249-0.725c0-.091.041-0.091,0.043-0.182,0.006-.264-0.195-0.53-0.189-0.792s0.16-.52.165-0.784,0-.526.01-0.795,0.128-.518.135-0.788-0.262-.528-0.254-0.8a0.583,0.583,0,0,1,.662-0.4c0.357-.017.244-0.182,0.706-0.2,0.2-.01.442-0.1,0.721-0.114,0.221-.011.477,0.221,0.742,0.208,0.227-.011.459-0.234,0.715-0.247,0.231-.011.472-0.047,0.725-0.06,0.233-.012.48,0.056,0.731,0.043s0.486,0.12.735,0.108,0.467-.269.715-0.281,0.489,0.166.736,0.153,0.476-.108.722-0.12,0.475-.159.721-0.172,0.49,0.125.736,0.113,0.478-.139.723-0.151,0.494,0.173.74,0.16,0.488,0.058.734,0.045,0.476-.2.721-0.21,0.479-.142.724-0.154,0.489,0.037.733,0.024,0.488,0.011.731,0,0.484-.067.728-0.08,0.483-.07.726-0.083,0.5,0.241.742,0.229,0.479-.15.723-0.162,0.477-.169.719-0.181,0.494,0.178.735,0.166,0.481-.079.722-0.091,0.486,0.031.726,0.018,0.486,0.032.726,0.02,0.477-.11.716-0.122,0.482-.092.722-0.1,0.492,0.091.731,0.079,0.48-.158.718-0.17,0.482-.113.721-0.125,0.495,0.152.732,0.141,0.48-.153.718-0.165,0.489,0.023.725,0.011,0.484-.1.719-0.115,0.5,0.217.735,0.206c0.25-.013.487-0.128,0.72-0.14,0.252-.012.488-0.143,0.719-0.154,0.257-.013.5,0.029,0.728,0.017,0.263-.012.5-0.084,0.722-0.094,0.278-.014.532,0.223,0.735,0.212a5.979,5.979,0,0,0,.715-0.068,0.484,0.484,0,0,1,.378.056,0.658,0.658,0,0,1,.267.4c0,0.364-.119.364-0.119,0.729s0.015,0.364.015,0.729-0.008.364-.008,0.728,0.184,0.363.184,0.726-0.04.361-.04,0.722-0.084.362-.084,0.724-0.124.362-.124,0.724,0.1,0.363.1,0.725S66.1,27.637,66.1,28s-0.2.361-.2,0.722,0.189,0.362.189,0.725-0.01.361-.01,0.721-0.086.36-.086,0.72-0.2.361-.2,0.721,0.17,0.362.17,0.724-0.12.36-.12,0.721,0.1,0.359.1,0.718,0.11,0.358.11,0.717S66.1,34.846,66.1,35.2s-0.113.36-.113,0.721a0.526,0.526,0,0,1-.617.451c-0.363,0-.363.211-0.725,0.211s-0.363-.212-0.726-0.212-0.361.158-.723,0.158-0.361.019-.722,0.019-0.36.008-.719,0.008-0.36.071-.719,0.071-0.361-.057-0.72-0.057-0.361-.162-0.722-0.162S59.24,36.4,58.88,36.4s-0.36,0-.719,0-0.36.163-.72,0.163-0.359-.182-0.718-0.182-0.358-.045-0.716-0.045-0.358.2-.717,0.2-0.36-.214-0.719-0.214-0.359.269-.718,0.269-0.357-.107-0.714-0.107S52.782,36.4,52.426,36.4s-0.356.193-.712,0.193S51.356,36.5,51,36.5s-0.358-.108-0.716-0.108-0.359-.055-0.718-0.055-0.359.038-.718,0.038-0.359.179-.718,0.179-0.358-.115-0.716-0.115-0.358.129-.716,0.129-0.358-.11-0.716-0.11S45.621,36.4,45.263,36.4s-0.358.2-.717,0.2-0.359-.1-0.718-0.1-0.359-.172-0.717-0.172-0.358.054-.716,0.054-0.357.027-.715,0.027-0.357.236-.714,0.236S40.609,36.4,40.252,36.4s-0.357.1-.714,0.1-0.358.122-.715,0.122S38.466,36.4,38.108,36.4s-0.358.261-.716,0.261-0.358-.049-0.717-0.049-0.358-.179-0.716-0.179-0.358.062-.716,0.062-0.357.119-.714,0.119S34.172,36.4,33.815,36.4s-0.356.064-.713,0.064a0.509,0.509,0,0,1-.381-0.17,0.451,0.451,0,0,1-.049-0.383c0.008-.253-0.159-0.5-0.152-0.739,0.009-.253-0.091-0.5-0.083-0.735,0.008-.252.176-0.489,0.183-0.723" style="fill:#fff"/><rect width="318.912" height="239.852" style="fill:none"/></svg>