<svg xmlns="http://www.w3.org/2000/svg" viewBox="0 0 318.912 239.853"><title>logo_6</title><path d="M102.99,239.853a0.272,0.272,0,0,1-.13-0.079,0.95,0.95,0,0,0-.145-0.1c-0.058-.029-0.124-0.056-0.194-0.084a0.582,0.582,0,0,1-.362-0.246,0.369,0.369,0,0,1,0-.174,0.644,0.644,0,0,0-.01-0.283,0.744,0.744,0,0,1,.361-0.709,1.523,1.523,0,0,1,.277-0.139,1.646,1.646,0,0,0,.357-0.192c0.105-.08.2-0.173,0.3-0.264,0.074-.071.149-0.141,0.226-0.205A0.894,0.894,0,0,0,103.9,237a0.757,0.757,0,0,1,.147-0.259,0.693,0.693,0,0,1,.284-0.1,0.816,0.816,0,0,0,.418-0.173,2.419,2.419,0,0,0,.258-0.3,2.891,2.891,0,0,1,.2-0.238,0.918,0.918,0,0,0,.2-0.39,0.748,0.748,0,0,1,.123-0.272,1.557,1.557,0,0,1,.242-0.194,1.635,1.635,0,0,0,.3-0.252,1.109,1.109,0,0,1,.247-0.183,1.259,1.259,0,0,0,.325-0.251,2.861,2.861,0,0,0,.219-0.323,2.811,2.811,0,0,1,.173-0.261,2.208,2.208,0,0,1,.222-0.232,2.309,2.309,0,0,0,.263-0.28,1.118,1.118,0,0,0,.161-0.387,0.909,0.909,0,0,1,.109-0.283,1.294,1.294,0,0,1,.222-0.222,1.459,1.459,0,0,0,.276-0.284,2.671,2.671,0,0,0,.184-0.341,2.688,2.688,0,0,1,.15-0.281,1.347,1.347,0,0,0,.149-0.38,1.1,1.1,0,0,1,.106-0.286c0.055-.091.118-0.177,0.179-0.262a3.567,3.567,0,0,0,.214-0.315,0.811,0.811,0,0,1,.227-0.207,0.958,0.958,0,0,0,.305-0.3,1.835,1.835,0,0,0,.141-0.367,1.589,1.589,0,0,1,.107-0.292c0.061-.115.112-0.232,0.162-0.348,0.043-.1.085-0.194,0.131-0.286a2.175,2.175,0,0,1,.178-0.277,2.267,2.267,0,0,0,.2-0.321,2.159,2.159,0,0,0,.127-0.373,1.77,1.77,0,0,1,.1-0.291c0.045-.1.094-0.192,0.143-0.286,0.059-.114.118-0.226,0.167-0.34s0.1-.2.145-0.294,0.116-.22.161-0.329c0.091-.218.172-0.427,0.251-0.624a1.844,1.844,0,0,0,.1-0.393,1.584,1.584,0,0,1,.077-0.332,2.944,2.944,0,0,1,.135-0.286,3.105,3.105,0,0,0,.17-0.369,1.456,1.456,0,0,0,.062-0.39,1.336,1.336,0,0,1,.049-0.333,1.166,1.166,0,0,1,.154-0.268,1.427,1.427,0,0,0,.2-0.371c0.038-.122.068-0.247,0.1-0.374,0.025-.109.051-0.217,0.082-0.327a1.527,1.527,0,0,1,.131-0.287,1.647,1.647,0,0,0,.168-0.379,1.1,1.1,0,0,0,0-.417,0.965,0.965,0,0,1,0-.326,1.939,1.939,0,0,1,.112-0.3,2.215,2.215,0,0,0,.139-0.38,2.726,2.726,0,0,1,.1-0.312,2.78,2.78,0,0,0,.113-0.381,1.07,1.07,0,0,0-.026-0.425,0.872,0.872,0,0,1-.029-0.32,0.759,0.759,0,0,1,.152-0.266,0.969,0.969,0,0,0,.211-0.4c0.018-.1.042-0.21,0.065-0.315,0.029-.128.058-0.257,0.079-0.389a1.272,1.272,0,0,0-.023-0.409,1.09,1.09,0,0,1-.024-0.325c0.018-.128.029-0.258,0.041-0.39,0.009-.107.019-0.216,0.034-0.325a1.81,1.81,0,0,1,.08-0.314,1.979,1.979,0,0,0,.1-0.391c0.012-.107.033-0.214,0.054-0.324a3.6,3.6,0,0,0,.063-0.39,1.261,1.261,0,0,0-.045-0.408,1.154,1.154,0,0,1-.042-0.326,0.981,0.981,0,0,1,.1-0.3,1.18,1.18,0,0,0,.132-0.407,2.891,2.891,0,0,1,.05-0.328,3.138,3.138,0,0,0,.058-0.385,1.109,1.109,0,0,0-.082-0.416,0.917,0.917,0,0,1-.069-0.316,1.4,1.4,0,0,0-.053-0.4,1.316,1.316,0,0,1-.047-0.326,2.857,2.857,0,0,1,.041-0.333,3,3,0,0,0,.047-0.388,1.058,1.058,0,0,1,.079-0.309,1.243,1.243,0,0,0,.1-0.41l0.019-1.455c0-.12.011-0.237,0.022-0.354a3.471,3.471,0,0,0,.023-0.379l-0.011-.737a1.319,1.319,0,0,0-.1-0.422,1.006,1.006,0,0,1-.082-0.307,1.332,1.332,0,0,1,.051-0.337,1.478,1.478,0,0,0,.055-0.4c0-.136-0.017-0.271-0.028-0.4-0.01-.11-0.02-0.22-0.024-0.326a3.685,3.685,0,0,0-.051-0.4c-0.018-.111-0.036-0.22-0.043-0.33a1.829,1.829,0,0,1,.024-0.348,1.876,1.876,0,0,0,.025-0.39,3.322,3.322,0,0,0-.062-0.407,2.91,2.91,0,0,1-.051-0.318,2.879,2.879,0,0,1,0-.359,2.585,2.585,0,0,0-.006-0.375l-0.031-.318c-0.013-.145-0.026-0.284-0.044-0.416a0.979,0.979,0,0,0-.222-0.443,0.691,0.691,0,0,1-.142-0.242c-0.044-.275-0.083-0.51-0.125-0.713a0.937,0.937,0,0,1,.062-0.45,0.574,0.574,0,0,0,.041-0.338,1.045,1.045,0,0,0-.339-0.456,0.758,0.758,0,0,1-.177-0.2,2.06,2.06,0,0,0-.392-0.613,2.3,2.3,0,0,1-.211-0.283,0.64,0.64,0,0,0-.488-0.379,0.948,0.948,0,0,0-.484.193,1.437,1.437,0,0,1-.241.134,1.255,1.255,0,0,1-.24.055,1.193,1.193,0,0,0-.484.16,5.629,5.629,0,0,0-.568.466,0.94,0.94,0,0,0-.213.375,0.872,0.872,0,0,1-.141.278l-0.156.166c-0.106.111-.216,0.224-0.317,0.353-0.131.166-.255,0.343-0.384,0.527a0.8,0.8,0,0,1-.258.221,1.02,1.02,0,0,0-.337.289,1.087,1.087,0,0,0-.128.394,0.94,0.94,0,0,1-.087.3,0.96,0.96,0,0,1-.21.215,1.129,1.129,0,0,0-.287.312,1.4,1.4,0,0,0-.12.382,1.292,1.292,0,0,1-.088.3,1.531,1.531,0,0,0-.116.375,1.405,1.405,0,0,1-.088.3,0.675,0.675,0,0,1-.217.205,0.893,0.893,0,0,0-.313.327,1.1,1.1,0,0,0-.067.41,0.894,0.894,0,0,1-.041.3,1.041,1.041,0,0,1-.179.247,1.116,1.116,0,0,0-.235.341,0.794,0.794,0,0,0,.01.46,0.641,0.641,0,0,1,.024.3c-0.034.094-.072,0.188-0.11,0.28-0.05.122-.1,0.244-0.142,0.371a2.835,2.835,0,0,1-.121.291,3.017,3.017,0,0,0-.146.358,1.456,1.456,0,0,1-.138.281,1.561,1.561,0,0,0-.17.359,1.647,1.647,0,0,1-.13.289,1.586,1.586,0,0,0-.157.362,3.508,3.508,0,0,0-.071.384c-0.014.1-.028,0.21-0.052,0.312a0.876,0.876,0,0,0,.047.444,0.714,0.714,0,0,1,.045.294,1.033,1.033,0,0,1-.127.284,1.228,1.228,0,0,0-.159.379c-0.018.1-.047,0.2-0.075,0.305a3.448,3.448,0,0,0-.09.381,1.584,1.584,0,0,0,.006.4,1.481,1.481,0,0,1,.01.309,1.238,1.238,0,0,1-.091.3,1.375,1.375,0,0,0-.111.388c-0.02.237-.038,0.473-0.048,0.7a2.727,2.727,0,0,1-.037.31,2.669,2.669,0,0,0-.039.4,0.627,0.627,0,0,0,.141.325,0.858,0.858,0,0,1,.177.4,1.468,1.468,0,0,1-.026.3,2.019,2.019,0,0,0-.03.436,2.561,2.561,0,0,1-.007.326,3.2,3.2,0,0,0-.006.4,1.915,1.915,0,0,1-.015.337,2.218,2.218,0,0,0-.016.4c0.009,0.128.07,0.727,0.07,0.727a0.467,0.467,0,0,0,.065.144,2.324,2.324,0,0,0,.056.361,2.59,2.59,0,0,1,.054.327,2.23,2.23,0,0,1-.014.357,2.272,2.272,0,0,0-.013.366l0.042,0.712a2.976,2.976,0,0,0,.068.412,1.757,1.757,0,0,1,.051.3,2.5,2.5,0,0,1-.025.472,1.808,1.808,0,0,0-.021.231,1.185,1.185,0,0,0,.089.394,0.815,0.815,0,0,1,.067.3,0.687,0.687,0,0,1-.156.292,0.968,0.968,0,0,0-.185.342,2.843,2.843,0,0,0-.05.3,1.463,1.463,0,0,1-.074.358,2.426,2.426,0,0,0-.089.313,1.212,1.212,0,0,1-.114.343,1.158,1.158,0,0,1-.273.273,1.869,1.869,0,0,0-.222.2,0.968,0.968,0,0,1-.3.2,1.7,1.7,0,0,0-.26.149,1.058,1.058,0,0,0-.246.288,0.652,0.652,0,0,1-.21.23,0.7,0.7,0,0,1-.294.042h-0.117a1.227,1.227,0,0,0-.266.023,1.469,1.469,0,0,0-.319.125,0.8,0.8,0,0,1-.32.11,0.786,0.786,0,0,1-.311-0.109,1.281,1.281,0,0,0-.333-0.13,0.678,0.678,0,0,0-.137-0.013,1.9,1.9,0,0,0-.221.018,1.586,1.586,0,0,1-.193.016,0.371,0.371,0,0,1-.144-0.023,0.675,0.675,0,0,1-.224-0.212,1.047,1.047,0,0,0-.281-0.274,2.148,2.148,0,0,0-.239-0.122,1.693,1.693,0,0,1-.343-0.2,1.086,1.086,0,0,0-.335-0.163,0.773,0.773,0,0,1-.3-0.152,0.58,0.58,0,0,1-.079-0.279,0.9,0.9,0,0,0-.138-0.428c-0.06-.075-0.126-0.147-0.194-0.219a2.11,2.11,0,0,1-.244-0.292c-0.127-.2-0.242-0.382-0.348-0.579a1.872,1.872,0,0,1-.123-0.323,2.909,2.909,0,0,0-.115-0.315c-0.053-.118-0.093-0.239-0.135-0.364-0.03-.09-0.061-0.182-0.1-0.272a2.231,2.231,0,0,0-.148-0.3,1.74,1.74,0,0,1-.154-0.319,0.937,0.937,0,0,0-.234-0.335,0.724,0.724,0,0,1-.185-0.257,1.313,1.313,0,0,1-.032-0.325,1.781,1.781,0,0,0-.036-0.374,1.728,1.728,0,0,0-.125-0.332,1.525,1.525,0,0,1-.12-0.324,1.362,1.362,0,0,1,0-.321,1.68,1.68,0,0,0-.005-0.381,1.425,1.425,0,0,1,0-.32,1.889,1.889,0,0,0,0-.376,0.962,0.962,0,0,0-.164-0.373,0.8,0.8,0,0,1-.131-0.285,0.88,0.88,0,0,1,.052-0.3,1.164,1.164,0,0,0,.064-0.4,1.242,1.242,0,0,0-.113-0.373,1.046,1.046,0,0,1-.094-0.31,0.632,0.632,0,0,1,.1-0.276,0.89,0.89,0,0,0,.137-0.425,0.736,0.736,0,0,0-.082-0.287H96a0.131,0.131,0,0,0,.094-0.037,0.139,0.139,0,0,0,.046-0.1l0.015-.355,0.007-.007,0.136-.009a1.172,1.172,0,0,0,.135-0.052,0.139,0.139,0,0,0,.082-0.139l-0.025-.294,0.138-.084a0.589,0.589,0,0,0-.07-0.665,0.142,0.142,0,0,0-.1-0.067H96.438a0.145,0.145,0,0,0-.09.031,1.2,1.2,0,0,1-.511.218c-0.005-.092-0.008-0.174-0.007-0.255a2.311,2.311,0,0,0-.032-0.37,2.187,2.187,0,0,1-.029-0.34,0.673,0.673,0,0,1,.125-0.282,0.887,0.887,0,0,0,.167-0.418c0-.118,0-0.236,0-0.354s-0.007-.236,0-0.354a1.71,1.71,0,0,0-.034-0.381,1.679,1.679,0,0,1-.03-0.33,1.454,1.454,0,0,1,.072-0.323,1.934,1.934,0,0,0,.081-0.376c0.007-.112.01-0.223,0.014-0.333s0.008-.25.018-0.375a3.048,3.048,0,0,1,.051-0.343,3.35,3.35,0,0,0,.056-0.359,0.962,0.962,0,0,0-.094-0.425,0.747,0.747,0,0,1-.077-0.3,3.31,3.31,0,0,0,.005-0.373,3.013,3.013,0,0,1,0-.343,2.109,2.109,0,0,1,.074-0.329,2.287,2.287,0,0,0,.081-0.37,2.594,2.594,0,0,1,.067-0.336,2.853,2.853,0,0,0,.071-0.364,1.943,1.943,0,0,0,0-.381,1.866,1.866,0,0,1,0-.334,0.851,0.851,0,0,1,.125-0.29,1.023,1.023,0,0,0,.16-0.392,1.059,1.059,0,0,0-.062-0.423,0.815,0.815,0,0,1-.055-0.307,1.711,1.711,0,0,1,.091-0.32,1.845,1.845,0,0,0,.1-0.369c0.016-.121.021-0.243,0.025-0.365a3.258,3.258,0,0,1,.024-0.343,3.1,3.1,0,0,0,.019-0.373,2.412,2.412,0,0,1,.018-0.341,0.873,0.873,0,0,1,.128-0.291,1.1,1.1,0,0,0,.16-0.384,2.032,2.032,0,0,1,.083-0.329,2.7,2.7,0,0,0,.091-0.359,1.776,1.776,0,0,0,0-.393,1.356,1.356,0,0,1-.006-0.323,1.958,1.958,0,0,1,.083-0.318,2.112,2.112,0,0,0,.1-0.363,2.431,2.431,0,0,0,.018-0.42,2.231,2.231,0,0,1,.012-0.357,1.835,1.835,0,0,0,0-.444,1.806,1.806,0,0,1,0-.344,1,1,0,0,1,.144-0.333,1.08,1.08,0,0,0,.165-0.417,1.35,1.35,0,0,0-.08-0.517,1.108,1.108,0,0,1-.059-0.276,0.878,0.878,0,0,1,.071-0.276,0.856,0.856,0,0,0,.077-0.444,0.725,0.725,0,0,0-.3-0.389,0.687,0.687,0,0,1-.19-0.195,1.022,1.022,0,0,1-.052-0.246,0.934,0.934,0,0,0-.134-0.43c-0.041-.057-0.078-0.12-0.116-0.185a1.8,1.8,0,0,0-.288-0.4l-0.126-.127a3.23,3.23,0,0,0-.393-0.354,0.62,0.62,0,0,0-.366-0.086l-0.142,0a0.52,0.52,0,0,1-.221-0.033l-0.19-.11a3.482,3.482,0,0,0-.4-0.214,0.934,0.934,0,0,1-.214-0.166,1.043,1.043,0,0,0-.352-0.249,0.78,0.78,0,0,1-.561-0.409,0.828,0.828,0,0,1,.248-0.694,3.264,3.264,0,0,1,.328-0.272l0.187-.147a6.484,6.484,0,0,1,.535-0.387,1.53,1.53,0,0,1,.322-0.143,2.21,2.21,0,0,0,.285-0.116c0.081-.042.159-0.09,0.236-0.137a2.2,2.2,0,0,1,.339-0.181,2.9,2.9,0,0,1,.4-0.114l0.229-.057a0.951,0.951,0,0,0,.338-0.2,0.694,0.694,0,0,1,.262-0.159,1.209,1.209,0,0,1,.219-0.015l0.3,0c0.053,0,.169,0,0.173,0a1.286,1.286,0,0,1,.307.042,1.616,1.616,0,0,0,.352.051,1.492,1.492,0,0,0,.332-0.052,1.311,1.311,0,0,1,.3-0.05,2.724,2.724,0,0,1,.436.079c0.1,0.024.195,0.048,0.294,0.066a1.4,1.4,0,0,1,.3.106,0.432,0.432,0,0,0,.054.367,0.416,0.416,0,0,0,.346.255,0.862,0.862,0,0,1,.134.03,0.557,0.557,0,0,0,.175.029,0.606,0.606,0,0,0,.153-0.021h0.155a0.834,0.834,0,0,1,.176.076,1.131,1.131,0,0,0,.249.109,0.292,0.292,0,0,1,.111.068,0.338,0.338,0,0,0,.226.1,0.409,0.409,0,0,0,.178-0.046,0.315,0.315,0,0,0,.172-0.174,0.206,0.206,0,0,0,.014-0.075,0.446,0.446,0,0,1,.184.033c0.16,0.075.314,0.162,0.467,0.249l0.143,0.081a1.3,1.3,0,0,1,.264.221,1.644,1.644,0,0,0,.265.231,1.823,1.823,0,0,1,.279.247c0.073,0.072.145,0.146,0.224,0.21a0.921,0.921,0,0,0,.4.152,0.645,0.645,0,0,1,.288.108,0.736,0.736,0,0,1,.135.295,1.084,1.084,0,0,0,.16.355,1.224,1.224,0,0,0,.283.242,0.8,0.8,0,0,1,.244.219,1.465,1.465,0,0,1,.129.375c0.024,0.094.049,0.189,0.081,0.279s0.065,0.158.1,0.238a1.728,1.728,0,0,1,.144.4,1.234,1.234,0,0,1-.017.369,2.224,2.224,0,0,0-.03.314,2.739,2.739,0,0,0,.021.306,1.584,1.584,0,0,1,.008.375c-0.012.079-.018,0.161-0.023,0.247a1.653,1.653,0,0,1-.066.433,0.651,0.651,0,0,1-.166.208,1.124,1.124,0,0,0-.273.361,1.241,1.241,0,0,0-.071.338,1.2,1.2,0,0,1-.076.352l-0.3.626c-0.044.094-.086,0.191-0.129,0.295s-0.1.228-.155,0.349a2.45,2.45,0,0,1-.16.27,2.935,2.935,0,0,0-.2.343,0.782,0.782,0,0,0-.083.356,0.522,0.522,0,0,1-.055.245,0.476,0.476,0,0,1-.156.195,0.738,0.738,0,0,0-.229.29,1.081,1.081,0,0,0-.078.406,0.952,0.952,0,0,1-.056.319,0.989,0.989,0,0,1-.194.243,1.185,1.185,0,0,0-.255.333c-0.045.1-.1,0.193-0.15,0.29-0.061.113-.124,0.227-0.175,0.347-0.061.137-.275,0.661-0.275,0.661-0.04.1-.085,0.193-0.13,0.289-0.056.122-.114,0.244-0.163,0.368s-0.089.253-.129,0.38c-0.032.1-.064,0.2-0.1,0.3a1.231,1.231,0,0,0-.055.414,1.071,1.071,0,0,1-.035.316,1.014,1.014,0,0,1-.161.268,1.228,1.228,0,0,0-.211.367,1.714,1.714,0,0,1-.13.291,1.869,1.869,0,0,0-.161.378,1,1,0,0,0,.016.442,0.853,0.853,0,0,1,.022.31,3.037,3.037,0,0,0-.052.4c-0.008.1-.017,0.208-0.035,0.31a0.877,0.877,0,0,1-.131.28,1.054,1.054,0,0,0-.174.4,1.442,1.442,0,0,0,.023.416,1.448,1.448,0,0,1,.023.315,2.361,2.361,0,0,1-.04.266,2.175,2.175,0,0,0-.046.356,0.14,0.14,0,0,0,.113.143l0.026,0a0.141,0.141,0,0,0,.132-0.093,1.492,1.492,0,0,0,.072-0.324,1.308,1.308,0,0,1,.063-0.279,0.819,0.819,0,0,1,.194-0.247,1.042,1.042,0,0,0,.255-0.34c0.054-.138.271-0.655,0.271-0.655a0.863,0.863,0,0,0,.013-0.457,0.679,0.679,0,0,1,0-.31,1.059,1.059,0,0,1,.192-0.263,1.317,1.317,0,0,0,.234-0.329s0.207-.465.293-0.647a1.179,1.179,0,0,1,.2-0.263,1.4,1.4,0,0,0,.236-0.319c0.083-.171.322-0.631,0.322-0.631,0.058-.114.123-0.221,0.189-0.329s0.114-.189.167-0.286a1.079,1.079,0,0,0,.1-0.412,0.826,0.826,0,0,1,.067-0.309,1.046,1.046,0,0,1,.221-0.241,1.337,1.337,0,0,0,.267-0.3,2.975,2.975,0,0,0,.159-0.326,2.478,2.478,0,0,1,.156-0.314c0.061-.1.114-0.208,0.165-0.314a2.869,2.869,0,0,1,.168-0.315c0.061-.1.118-0.194,0.174-0.294s0.122-.215.192-0.316a2.208,2.208,0,0,0,.174-0.33,1.908,1.908,0,0,1,.163-0.3,0.676,0.676,0,0,1,.272-0.158,0.859,0.859,0,0,0,.38-0.24,0.825,0.825,0,0,0,.126-0.448,0.643,0.643,0,0,1,.071-0.3,2.417,2.417,0,0,1,.258-0.258,3.2,3.2,0,0,0,.249-0.244,1.112,1.112,0,0,1,.27-0.2,1.389,1.389,0,0,0,.307-0.231,1.246,1.246,0,0,0,.209-0.351,0.933,0.933,0,0,1,.162-0.277,0.994,0.994,0,0,1,.291-0.164,1.231,1.231,0,0,0,.343-0.195,2.351,2.351,0,0,0,.242-0.257,2.014,2.014,0,0,1,.248-0.257,0.924,0.924,0,0,1,.306-0.131,1.224,1.224,0,0,0,.357-0.149,0.9,0.9,0,0,0,.26-0.375,0.645,0.645,0,0,1,.167-0.26,1.1,1.1,0,0,1,.333-0.1,1.4,1.4,0,0,0,.359-0.1,2.278,2.278,0,0,0,.294-0.187,1.6,1.6,0,0,1,.31-0.186,6.032,6.032,0,0,1,.608-0.18l0.307-.087a2.8,2.8,0,0,1,.446-0.111h0.009a0.839,0.839,0,0,1,.311.078,1.059,1.059,0,0,0,.387.1,1.3,1.3,0,0,0,.376-0.07,1.149,1.149,0,0,1,.285-0.055l0.242,0.02a4.063,4.063,0,0,1,.491.063,1.152,1.152,0,0,1,.325.151,1.609,1.609,0,0,0,.311.154,6.537,6.537,0,0,1,.634.261l0.208,0.1a3.168,3.168,0,0,1,.413.2c0.08,0.049.164,0.092,0.247,0.137a2.5,2.5,0,0,1,.356.212,0.934,0.934,0,0,1,.194.261,1.247,1.247,0,0,0,.224.311,2.073,2.073,0,0,0,.27.2,1.438,1.438,0,0,1,.281.221,2.463,2.463,0,0,0,.244.223,1.74,1.74,0,0,1,.269.257,0.906,0.906,0,0,1,.121.3,1.224,1.224,0,0,0,.15.364,1.159,1.159,0,0,0,.285.27,0.855,0.855,0,0,1,.237.224,2.5,2.5,0,0,0,.21.281,1.793,1.793,0,0,1,.209.291,1.144,1.144,0,0,1,.087.318,1.49,1.49,0,0,0,.1.375c0.045,0.1.1,0.19,0.15,0.284a3.433,3.433,0,0,1,.174.342,2.2,2.2,0,0,1,.1.338,2.8,2.8,0,0,0,.1.34,1.914,1.914,0,0,1,.081.338,2.472,2.472,0,0,0,.081.348,1.091,1.091,0,0,0,.222.342,0.87,0.87,0,0,1,.176.265c0.031,0.1.068,0.207,0.107,0.311s0.086,0.237.119,0.357a1.817,1.817,0,0,1,.041.337c0,0.075.008,0.15,0.017,0.223l-0.159-.008-0.269-.4a0.137,0.137,0,0,0-.12-0.068l-0.379.043a0.139,0.139,0,0,0-.118.1l-0.066.244a0.14,0.14,0,0,0,.038.138l0.075,0.07-0.027.038,0.046,0.229,0.057,0.149-0.027.223a0.144,0.144,0,0,0,.081.135l0.11,0.051,0.05,0.206a0.137,0.137,0,0,0,.063.086,0.145,0.145,0,0,0,.072.02,0.12,0.12,0,0,0,.033,0l0.3-.072,0.154,0.363a0.143,0.143,0,0,0,.126.084l0.113,0a2.429,2.429,0,0,0,.078.266,2.157,2.157,0,0,1,.092.335,1.7,1.7,0,0,1,.012.336,2.291,2.291,0,0,0,.012.371,1.346,1.346,0,0,0,.136.375,1.033,1.033,0,0,1,.111.3c0.017,0.132.029,0.264,0.039,0.4l0.029,0.306c0.012,0.115.032,0.228,0.053,0.342s0.043,0.237.053,0.356,0.015,0.253.019,0.379c0,0.109.007,0.219,0.015,0.327a1.518,1.518,0,0,1-.03.334,1.793,1.793,0,0,0-.034.377,2.955,2.955,0,0,0,.05.361,2.47,2.47,0,0,1,.046.341,2.177,2.177,0,0,1-.025.342,2.651,2.651,0,0,0-.027.366c0,0.115.012,0.23,0.022,0.345s0.021,0.237.021,0.356a1.958,1.958,0,0,0,.049.379,1.676,1.676,0,0,1,.042.333,1.089,1.089,0,0,1-.074.32,1.4,1.4,0,0,0-.087.388c0,0.125-.014.249-0.025,0.372s-0.018.225-.023,0.336a0.993,0.993,0,0,0,.106.421,0.774,0.774,0,0,1,.084.3,0.79,0.79,0,0,1-.117.294,1,1,0,0,0-.15.4,1.5,1.5,0,0,0,.044.4,1.124,1.124,0,0,1,.037.321,1.285,1.285,0,0,0,.049.4,1.018,1.018,0,0,1,.042.32,1.11,1.11,0,0,1-.1.317,1.462,1.462,0,0,0-.118.38c-0.015.129-.038,0.258-0.061,0.385-0.02.107-.038,0.214-0.053,0.321s-0.025.235-.034,0.352-0.017.242-.036,0.361c-0.022.139-.049,0.277-0.075,0.415l-0.055.288c-0.022.124-.054,0.246-0.086,0.366s-0.059.218-.08,0.329a2.224,2.224,0,0,1-.1.337,2.991,2.991,0,0,0-.107.346c-0.024.108-.043,0.218-0.063,0.325-0.023.125-.046,0.25-0.075,0.372a1.063,1.063,0,0,0,.011.428,0.853,0.853,0,0,1,.015.313,0.689,0.689,0,0,1-.193.251,0.874,0.874,0,0,0-.261.363,0.886,0.886,0,0,0,.03.453,0.387,0.387,0,0,1-.178.542,0.852,0.852,0,0,0-.289.351l-0.088.275c-0.042.132-.084,0.265-0.131,0.4a2.816,2.816,0,0,0-.1.349,2.312,2.312,0,0,1-.093.335,1.4,1.4,0,0,0-.073.389,1.125,1.125,0,0,1-.06.321,1.386,1.386,0,0,1-.184.287,1.668,1.668,0,0,0-.2.318,1.274,1.274,0,0,0-.09.392,1.022,1.022,0,0,1-.07.316,0.708,0.708,0,0,1-.233.212,0.929,0.929,0,0,0-.315.3,1.118,1.118,0,0,0-.094.406,0.847,0.847,0,0,1-.066.309,1.968,1.968,0,0,1-.205.28,2.334,2.334,0,0,0-.217.293,2.245,2.245,0,0,0-.152.338,1.744,1.744,0,0,1-.142.31,0.872,0.872,0,0,1-.238.217,1.146,1.146,0,0,0-.3.277,1.619,1.619,0,0,0-.161.353,1.3,1.3,0,0,1-.135.3,2.612,2.612,0,0,1-.235.27,3.042,3.042,0,0,0-.232.264,2.073,2.073,0,0,1-.242.254,2.337,2.337,0,0,0-.249.259,0.936,0.936,0,0,0-.158.409,0.712,0.712,0,0,1-.1.293l-0.173.207c-0.095.114-.189,0.228-0.286,0.337-0.071.079-.14,0.16-0.208,0.242-0.085.1-.169,0.2-0.258,0.3a0.733,0.733,0,0,1-.283.14,0.982,0.982,0,0,0-.38.2l-0.209.216c-0.093.1-.185,0.2-0.283,0.288a2.084,2.084,0,0,0-.239.282,1.809,1.809,0,0,1-.222.26,2.268,2.268,0,0,0-.247.27,1.9,1.9,0,0,1-.235.255c-0.1.085-.207,0.162-0.313,0.238-0.085.063-.17,0.125-0.252,0.191a0.766,0.766,0,0,1-.3.105,0.971,0.971,0,0,0-.4.151,0.955,0.955,0,0,0-.254.351,0.687,0.687,0,0,1-.174.256,2.716,2.716,0,0,1-.308.183,3.193,3.193,0,0,0-.305.178,1.7,1.7,0,0,0-.283.264,1.319,1.319,0,0,1-.243.228,0.933,0.933,0,0,1-.306.1,1.21,1.21,0,0,0-.385.134,1.308,1.308,0,0,0-.29.28,1,1,0,0,1-.23.227,0.781,0.781,0,0,1-.308.062,0.964,0.964,0,0,0-.418.095,1.273,1.273,0,0,0-.3.262,1,1,0,0,1-.243.213,1.38,1.38,0,0,1-.316.109,1.689,1.689,0,0,0-.362.125,1.685,1.685,0,0,1-.319.115,2.212,2.212,0,0,0-.35.127,0.876,0.876,0,0,0-.313.321,0.685,0.685,0,0,1-.208.227,0.869,0.869,0,0,1-.315.049,1.058,1.058,0,0,0-.41.07,1.164,1.164,0,0,0-.327.258,0.872,0.872,0,0,1-.245.2c-0.11.048-.224,0.086-0.338,0.123s-0.222.073-.329,0.118a3.608,3.608,0,0,0-.322.164,2.679,2.679,0,0,1-.312.157,0.4,0.4,0,0,1-.153.023c-0.052,0-.1,0-0.157-0.008s-0.119-.01-0.178-0.01a0.671,0.671,0,0,0-.25.042,0.559,0.559,0,0,0-.131.085,0.226,0.226,0,0,1-.088.058" style="fill:#fff"/><rect width="318.912" height="239.852" style="fill:none"/></svg>