<svg xmlns="http://www.w3.org/2000/svg" viewBox="0 0 318.912 239.852"><title>logo_3</title><path d="M245.552,111.491c0.193-.124.406-0.222,0.6-0.351s0.517-.064.716-0.2,0.331-.341.529-0.473,0.355-.309.552-0.444,0.464-.153.662-0.289,0.3-.4.5-0.535,0.422-.213.616-0.351,0.284-.408.478-0.548,0.551-.043.744-0.185,0.3-.387.494-0.53,0.4-.25.6-0.395,0.266-.433.459-0.58,0.514-.1.7-0.246,0.256-.436.444-0.584,0.344-.322.531-0.472,0.528-.1.714-0.246,0.2-.505.384-0.656,0.489-.148.675-0.3,0.254-.435.438-0.589,0.513-.125.7-0.281,0.374-.293.557-0.45,0.283-.4.466-0.558,0.395-.273.576-0.431,0.372-.3.554-0.459,0.239-.45.42-0.611,0.445-.21.624-0.371a0.6,0.6,0,0,1,.358-0.207c0.363,0,.363-0.117.724-0.117s0.362-.009.724-0.009,0.36,0.016.721,0.016,0.361,0.307.72,0.307,0.358,0,.717,0,0.359-.114.718-0.114l0.718,0c0.36,0,.36-0.01.719-0.01s0.359,0.038.718,0.038,0.358-.1.717-0.1,0.359,0,.718,0,0.358,0.019.716,0.019,0.357,0.122.714,0.122,0.357-.246.716-0.246,0.358,0.057.717,0.057,0.358,0.237.715,0.237,0.357-.036.713-0.036,0.356-.25.71-0.25,0.356,0.116.711,0.116,0.358-.127.715-0.127,0.358,0,.715,0,0.357,0.131.716,0.131,0.357,0,.716,0,0.358-.1.715-0.1,0.358-.034.715-0.034,0.357,0.247.714,0.247,0.357,0.037.714,0.037,0.357-.256.714-0.256,0.358,0,.716,0a2.367,2.367,0,0,1,.563.109,1.331,1.331,0,0,0,.119-0.691,0.693,0.693,0,0,1,.475.151v0.252l0.345,0.174,0,0.024a4.231,4.231,0,0,0,.646.169c0.357,0,.357-0.145.713-0.145s0.357,0.09.713,0.09,0.356-.15.712-0.15,0.356,0.078.713,0.078,0.356,0.148.713,0.148,0.356,0,.713,0,0.357-.023.713-0.023a3.736,3.736,0,0,0,.665-0.091,1.989,1.989,0,0,0,.619-0.227,0.883,0.883,0,0,0,.328-0.518,3.146,3.146,0,0,0,.392-0.556,1.856,1.856,0,0,0-.149-0.756,2.763,2.763,0,0,0-.543-0.522c-0.2-.218-0.334-0.459-0.46-0.562-0.266-.232-0.3-0.189-0.566-0.422s-0.177-.333-0.441-0.567-0.288-.205-0.552-0.437-0.369-.111-0.632-0.343-0.273-.22-0.535-0.451-0.337-.144-0.6-0.375-0.123-.387-0.384-0.617-0.387-.083-0.646-0.311-0.232-.264-0.494-0.494-0.279-.21-0.541-0.44-0.137-.372-0.4-0.6-0.229-.265-0.489-0.495-0.339-.142-0.6-0.371-0.143-.363-0.4-0.593l-0.523-.463c-0.26-.23-0.342-0.137-0.6-0.365-0.222-.188-0.391-0.4-0.578-0.538a3.452,3.452,0,0,0-.768-0.218,1.851,1.851,0,0,0-.678-0.322,1.331,1.331,0,0,0-.74.233,2.684,2.684,0,0,0-.657.46,7.607,7.607,0,0,0-.548.585c-0.22.274-.239,0.256-0.462,0.528s-0.02.436-.243,0.707-0.289.216-.511,0.486-0.183.3-.4,0.573-0.313.194-.532,0.463-0.151.327-.371,0.6-0.338.171-.558,0.439-0.077.381-.3,0.647-0.294.208-.514,0.476-0.326.182-.545,0.451-0.067.4-.287,0.664-0.167.31-.384,0.579a0.683,0.683,0,0,1-.532.13c-0.372,0-.372-0.105-0.744-0.105s-0.372.25-.743,0.25-0.371-.261-0.742-0.261-0.371-.008-0.741-0.008-0.369.251-.737,0.251-0.369.044-.738,0.044-0.37-.307-0.739-0.307-0.37.217-.74,0.217a0.652,0.652,0,0,1-.562-0.394A0.723,0.723,0,0,1,265,95.592c0.179-.17.454-0.237,0.629-0.406s0.3-.389.468-0.555,0.495-.187.665-0.354,0.307-.376.477-0.542,0.377-.308.547-0.476,0.242-.443.41-0.611,0.269-.412.436-0.58,0.388-.29.553-0.458,0.285-.389.451-0.557,0.311-.369.476-0.54,0.352-.33.515-0.5,0.31-.369.472-0.54,0.318-.362.479-0.533,0.511-.179.671-0.351,0.3-.371.464-0.543,0.193-.471.351-0.644,0.3-.375.452-0.547,0.531-.171.688-0.346,0.257-.419.413-0.594,0.292-.387.447-0.563,0.348-.339.5-0.516,0.172-.491.324-0.669,0.335-.35.487-0.528,0.411-.286.56-0.465,0.4-.3.553-0.474,0.261-.415.407-0.594,0.158-.5.3-0.678c0.157-.193.359-0.337,0.5-0.515a0.681,0.681,0,0,1,.456-0.226c0.242-.013.494,0.027,0.743,0s0.483-.12.727-0.156,0.5-.035.734-0.088,0.484-.123.713-0.2a5.427,5.427,0,0,0,.71-0.22,3.441,3.441,0,0,0,.683-0.348,1.994,1.994,0,0,0,.378-0.67,1.788,1.788,0,0,0,.307-0.723,1.9,1.9,0,0,0-.215-0.7,2.081,2.081,0,0,0-.462-0.531,4.387,4.387,0,0,0-.621-0.306,4.446,4.446,0,0,0-.443-0.592c-0.313-.176-0.3-0.2-0.608-0.378s-0.334-.138-0.644-0.317-0.32-.16-0.629-0.339-0.339-.127-0.648-0.305-0.4-.018-0.707-0.195-0.266-.25-0.574-0.428-0.206-.352-0.511-0.529-0.346-.114-0.655-0.292-0.375-.059-0.682-0.237-0.294-.2-0.6-0.377-0.249-.28-0.558-0.458-0.276-.228-0.583-0.406a0.421,0.421,0,0,0-.05-0.017c0.005,0.044.007,0.089,0.014,0.133a0.36,0.36,0,0,1-.185.477c-0.229.076-.324-0.066-0.426-0.259a0.687,0.687,0,0,0-.266-0.322,3.013,3.013,0,0,1-.333-0.2,3.063,3.063,0,0,0-.325-0.194,0.585,0.585,0,0,0-.368-0.067,0.7,0.7,0,0,1-.384-0.065l0.272-.518a1.492,1.492,0,0,1-.548-0.132c-0.306-.176-0.19-0.377-0.495-0.553s-0.289-.2-0.594-0.379-0.436.053-.74-0.123-0.264-.246-0.568-0.422S269.7,69.1,269.4,68.92s-0.236-.3-0.542-0.474a1.182,1.182,0,0,1-.157.147c-0.024,0-.017.02-0.052,0.023-0.075.023-.1-0.042-0.132,0.029-0.1.216-.249,0.412-0.353,0.624s-0.149.453-.254,0.66-0.327.363-.435,0.57-0.139.456-.247,0.66-0.244.4-.354,0.61-0.4.318-.508,0.521-0.13.463-.242,0.664-0.188.436-.3,0.637-0.116.479-.232,0.679-0.395.315-.513,0.514-0.183.44-.3,0.636-0.261.392-.382,0.587-0.4.3-.525,0.494-0.137.467-.26,0.658-0.289.375-.414,0.566-0.3.365-.429,0.555-0.2.433-.328,0.621-0.26.395-.387,0.582-0.111.5-.238,0.685a0.841,0.841,0,0,1-.529.276c-0.016,0-.041-0.191-0.057-0.191a0.417,0.417,0,0,1-.342-0.157c-0.254-.261-0.317-0.2-0.57-0.462s-0.141-.371-0.394-0.632-0.486-.035-0.738-0.3-0.2-.308-0.457-0.568-0.205-.3-0.456-0.563-0.3-.207-0.556-0.467-0.13-.375-0.38-0.633-0.334-.173-0.582-0.43-0.112-.393-0.363-0.651-0.255-.254-0.506-0.512-0.391-.124-0.643-0.383a1.933,1.933,0,0,0-.475-0.65,4.375,4.375,0,0,0-.732-0.341,2.117,2.117,0,0,0-.766-0.313,1.7,1.7,0,0,0-.636.5,2.207,2.207,0,0,0-.714.336,5.326,5.326,0,0,0-.524.581c-0.205.286-.1,0.357-0.314,0.639s-0.177.307-.387,0.588-0.205.285-.415,0.566-0.15.325-.359,0.6-0.259.242-.468,0.52-0.27.234-.479,0.513-0.064.386-.272,0.664-0.355.17-.565,0.449-0.257.243-.465,0.522-0.181.3-.387,0.581a0.411,0.411,0,0,1-.41.166c-0.358,0-.358.007-0.718,0.007a0.555,0.555,0,0,1-.646-0.452c0-.365.114-0.365,0.114-0.729s-0.2-.364-0.2-0.728,0.166-.363.166-0.727,0.034-.362.034-0.725-0.1-.36-0.1-0.721,0.166-.362.166-0.723,0.035-.362.035-0.723-0.036-.362-0.036-0.725-0.24-.361-0.24-0.722,0.24-.361.24-0.722a0.451,0.451,0,0,1,.272-0.487c0.24-.1.427-0.285,0.638-0.376,0.24-.1.457-0.209,0.66-0.308,0.239-.117.49-0.161,0.68-0.276a3.6,3.6,0,0,0,.564-0.459,2.428,2.428,0,0,0,.613-0.481,2.259,2.259,0,0,0-.137-0.781A2.609,2.609,0,0,0,249,68.786a1.5,1.5,0,0,0-.443-0.662,2.546,2.546,0,0,0-.726-0.328c-0.234-.079-0.5-0.12-0.767-0.181-0.357-.074-0.376.021-0.733-0.05s-0.335-.182-0.693-0.253-0.381.057-.738-0.014-0.332-.191-0.687-0.262-0.337-.153-0.692-0.224-0.4.167-.756,0.1-0.325-.219-0.679-0.289-0.356-.075-0.71-0.146-0.336-.166-0.69-0.236-0.386.093-.741,0.022-0.366-.013-0.722-0.083-0.339-.136-0.693-0.207-0.338-.144-0.69-0.215-0.38.064-.734-0.006-0.309-.3-0.664-0.367-0.411.222-.765,0.152-0.313-.263-0.666-0.332-0.361-.015-0.712-0.084-0.375.054-.726-0.015-0.309-.3-0.662-0.369-0.369.011-.722-0.059-0.334-.167-0.687-0.237a1.979,1.979,0,0,0-.484-0.03c-0.053.049-.1,0.088-0.142,0.123a2.29,2.29,0,0,0-.264.248c0.053,0.218.133,0.427,0.178,0.641,0.051,0.239-.087.515-0.038,0.75s0.18,0.456.228,0.694-0.081.509-.035,0.751,0.226,0.448.27,0.693-0.028.491,0.012,0.737,0.2,0.453.241,0.7-0.038.489-.005,0.738,0.189,0.46.218,0.709-0.036.488-.009,0.738,0.174,0.465.2,0.715,0,0.482.016,0.732-0.046.486-.028,0.736,0.073,0.479.09,0.73-0.113.489-.1,0.739,0.03,0.48.042,0.73,0.242,0.472.253,0.722,0.032,0.482.041,0.731,0.107,0.479.115,0.728-0.06.485-.053,0.734-0.195.488-.189,0.737a0.674,0.674,0,0,1,.024.46,0.743,0.743,0,0,1-.461.21c-0.36,0-.36-0.029-0.72-0.029s-0.36.042-.72,0.042-0.359-.154-0.717-0.154-0.359-.053-0.717-0.053-0.358-.021-0.714-0.021-0.356-.045-0.714-0.045-0.357.138-.715,0.138-0.358-.093-0.716-0.093-0.357.06-.713,0.06-0.358.233-.714,0.233-0.358-.19-0.715-0.19-0.357.173-.713,0.173-0.356-.23-0.711-0.23-0.355.186-.711,0.186-0.357-.227-0.715-0.227a3.49,3.49,0,0,1-.717.2c-0.207,0-.445-0.152-0.715-0.156-0.22,0-.464.179-0.722,0.173-0.228,0-.469-0.065-0.723-0.071-0.231-.005-0.468-0.126-0.719-0.132-0.233-.006-0.479.172-0.727,0.165s-0.478.009-.724,0-0.47-.2-0.715-0.208l-0.723-.027c-0.236-.009-0.478-0.01-0.721-0.02s-0.486.156-.728,0.145-0.469-.246-0.711-0.258-0.476-.084-0.718-0.1-0.5.228-.739,0.215-0.47-.262-0.712-0.276-0.491.112-.733,0.1-0.469-.2-0.71-0.213-0.485.051-.723,0.033-0.469-.153-0.707-0.171-0.483-.024-0.721-0.044a0.585,0.585,0,0,0-.311.214,0.466,0.466,0,0,0-.04.363c0.145,0.362.087,0.384,0.23,0.746s0.19,0.343.334,0.705,0.212,0.334.354,0.695,0.1,0.375.247,0.735,0.3,0.3.44,0.655,0.16,0.351.305,0.709c0.044,0.1.022,0.2,0.179,0.2a0.558,0.558,0,0,1,.008-0.057c0.237-.049.484-0.031,0.72-0.075s0.46-.148.7-0.187,0.49,0.07.736,0.038,0.463-.1.711-0.131c0.232-.024.478,0.035,0.73,0.014,0.23-.02.457-0.222,0.709-0.238,0.231-.016.48,0.111,0.732,0.1,0.233-.011.468-0.142,0.721-0.152,0.232-.009.479,0.135,0.731,0.128,0.234-.008.472-0.154,0.723-0.16,0.233-.005.477,0.08,0.727,0.076,0.234,0,.476.015,0.726,0.013s0.476-.189.726-0.191,0.478-.056.727-0.057,0.479,0.119.728,0.119c0.354,0,.354.1,0.709,0.1S220.145,84,220.5,84s0.353,0.235.707,0.235,0.352-.118.706-0.118,0.35-.188.7-0.188,0.352-.009.7-0.009,0.353,0.292.7,0.292,0.353-.185.705-0.185,0.352,0.03.7,0.03,0.352-.047.7-0.047,0.351,0.087.7,0.087,0.35,0.027.7,0.027a2.635,2.635,0,0,1,.521.073l0.011-.018,0.124-.111,0.046-.253,0.019-.061,0.026-.171,0.211-.144,0.083,0.144-0.029.088,0.014,0.1,0,0.045,0.02,0.141-0.006.1,0.011,0.036a0.564,0.564,0,0,1,.353-0.116c0.352,0,.352.063,0.7,0.063s0.351-.016.7-0.016,0.349,0.007.7,0.007,0.348-.032.7-0.032a0.794,0.794,0,0,1,.725.646c0,0.36-.126.36-0.126,0.72s-0.192.359-.192,0.72,0.324,0.359.324,0.718-0.146.358-.146,0.716-0.144.357-.144,0.714,0.244,0.357.244,0.714-0.192.357-.192,0.715,0.233,0.358.233,0.716-0.117.357-.117,0.713-0.078.357-.078,0.714,0.172,0.357.172,0.715-0.2.356-.2,0.712a1.1,1.1,0,0,0,.009.129,0.368,0.368,0,0,1,.18.084,0.412,0.412,0,0,1,.1.263,1.013,1.013,0,0,1,.049.125,0.6,0.6,0,0,1,.055.132,0.373,0.373,0,0,1,.066.317,0.356,0.356,0,0,1,.068.205,0.368,0.368,0,0,1-.124.277,0.357,0.357,0,0,1,.039.25,0.394,0.394,0,0,1-.053.131,0.705,0.705,0,0,1,.013.09,0.436,0.436,0,0,1-.383.447h-0.036a1.255,1.255,0,0,0-.059.4,0.359,0.359,0,0,1-.426.43c-0.358,0-.358.286-0.718,0.286s-0.359-.043-0.718-0.043h-0.716c-0.358,0-.358-0.134-0.715-0.134s-0.356.017-.711,0.017-0.357-.085-0.713-0.085-0.356.113-.713,0.113-0.357-.043-0.714-0.043-0.356-.073-0.712-0.073-0.356.241-.712,0.241-0.357.018-.713,0.018-0.355-.2-0.71-0.2-0.355.2-.709,0.2-0.356-.106-0.71-0.106-0.357.106-.713,0.106-0.355-.212-0.71-0.212-0.354.147-.707,0.147-0.353-.184-0.706-0.184-0.352.174-.7,0.174-0.356-.186-0.71-0.186-0.356-.019-0.71-0.019-0.356.119-.71,0.119-0.356-.052-0.711-0.052h-0.711c-0.355,0-.355.155-0.709,0.155S213.6,96.6,213.246,96.6s-0.355-.016-0.709-0.016-0.355.21-.709,0.21-0.355-.3-0.71-0.3c-0.224,0-.465.249-0.721,0.246-0.229,0-.469-0.036-0.721-0.04-0.234,0-.472-0.228-0.721-0.233l-0.725-.017c-0.237-.006-0.48.059-0.727,0.052s-0.487.205-.732,0.2-0.471-.238-0.716-0.246-0.49.205-.733,0.2-0.481-.032-0.725-0.043-0.482-.043-0.723-0.055-0.477-.191-0.719-0.2-0.478-.089-0.719-0.1-0.491.124-.729,0.109-0.483-.017-0.719-0.033-0.479-.1-0.717-0.121-0.476-.14-0.713-0.16-0.492.039-.726,0.016-0.492.01-.725-0.016a0.333,0.333,0,0,0-.263.082,0.4,0.4,0,0,0-.061.331c0.137,0.362.127,0.364,0.263,0.726s0.084,0.381.218,0.743,0.267,0.312.4,0.673,0.2,0.335.336,0.7-0.094.443,0.041,0.8,0.248,0.317.384,0.675c0.042,0.1.176,0.065,0.329,0.065,0.005,0,.007.078,0.011,0.077,0.242-.039.462-0.176,0.7-0.213s0.5,0.117.739,0.082,0.475-.052.72-0.084,0.472-.041.718-0.067,0.462-.157.711-0.179c0.233-.022.471-0.069,0.722-0.087,0.231-.018.481,0.115,0.731,0.1,0.234-.014.46-0.291,0.712-0.3,0.234-.011.485,0.173,0.736,0.164,0.234-.009.475-0.013,0.726-0.02a2.816,2.816,0,0,0,.3-0.031l0.007-.044,0.06-.038,0.122-.036,0.072-.1,0.062-.226,0.133-.024,0.174-.106,0.14-.034,0.137-.176,0.038-.039,0.089-.12,0.22-.026,0.006,0.144-0.058.056-0.027.079-0.021.034-0.042.115-0.047.079-0.032.177-0.119.075-0.082.181-0.17,0c0.161,0.013.324,0.028,0.492,0.026,0.236,0,.476-0.165.726-0.167s0.479,0.185.728,0.184,0.479-.216.728-0.216c0.365,0,.365.142,0.73,0.142s0.366-.044.731-0.044,0.364,0.03.728,0.03,0.364,0.088.727,0.088,0.362,0.03.724,0.03,0.362-.265.724-0.265,0.364,0.2.726,0.2,0.363-.15.726-0.15,0.362,0.119.724,0.119,0.362,0.143.724,0.143,0.363-.305.725-0.305,0.362-.005.723-0.005,0.36,0.143.721,0.143,0.361,0.13.722,0.13,0.362-.189.724-0.189,0.361,0.073.723,0.073,0.359-.133.718-0.133,0.36,0.142.718,0.142,0.358-.147.717-0.147,0.361,0.014.723,0.014,0.36,0.122.721,0.122,0.362,0.116.722,0.116,0.362-.093.724-0.093,0.361-.077.722-0.077,0.361,0.063.721,0.063,0.36-.1.721-0.1,0.36,0.064.72,0.064,0.362,0.071.722,0.071,0.36-.213.722-0.213,0.361,0.232.723,0.232,0.361-.212.722-0.212,0.36,0.2.721,0.2,0.359-.234.719-0.234,0.36,0.22.719,0.22,0.36,0.119.72,0.119,0.359-.021.719-0.021,0.359-.232.719-0.232,0.36,0.1.72,0.1,0.36-.184.721-0.184,0.361,0.028.721,0.028,0.362,0.291.722,0.291,0.36-.245.721-0.245,0.359,0.033.72,0.033,0.359-.071.717-0.071a0.823,0.823,0,0,1,.645.453,0.852,0.852,0,0,1-.163.784c-0.179.161-.444,0.226-0.623,0.386s-0.455.211-.636,0.368-0.4.276-.578,0.432-0.2.5-.383,0.66-0.5.151-.685,0.306-0.226.479-.411,0.633-0.462.2-.647,0.348-0.4.268-.588,0.42-0.285.411-.473,0.562-0.311.381-.5,0.531-0.457.2-.646,0.346-0.4.273-.588,0.421-0.428.232-.62,0.379-0.306.393-.5,0.539-0.416.248-.611,0.393-0.4.273-.589,0.416-0.367.315-.561,0.458-0.31.394-.506,0.535-0.47.171-.667,0.311-0.373.309-.57,0.448-0.368.316-.566,0.454-0.4.271-.6,0.408-0.524.089-.724,0.225a1.171,1.171,0,0,1-.248.349,0.884,0.884,0,0,1-.245-0.082c-0.333-.128-0.263-0.309-0.6-0.438s-0.315-.173-0.648-0.3-0.358-.057-0.69-0.186-0.327-.144-0.658-0.272-0.367-.03-0.7-0.158c-0.054-.021-0.091-0.031-0.131-0.043a0.358,0.358,0,0,1,0,.163,0.329,0.329,0,0,1-.066.136,0.543,0.543,0,0,1-.054.132,0.96,0.96,0,0,1-.05.125,0.4,0.4,0,0,1-.094.263,0.422,0.422,0,0,1-.267.1h0a0.491,0.491,0,0,1-.3-0.12,0.376,0.376,0,0,1-.093-0.285,0.348,0.348,0,0,1,.017-0.107,0.13,0.13,0,0,0,0-.028,0.35,0.35,0,0,1,.016-0.133,0.365,0.365,0,0,1-.049-0.135,0.379,0.379,0,0,1,0-.127,0.374,0.374,0,0,1-.074-0.229,0.353,0.353,0,0,1,.022-0.121,2.144,2.144,0,0,0-.2-0.091c-0.331-.128-0.29-0.235-0.621-0.363s-0.392.032-.722-0.1-0.275-.268-0.6-0.4-0.384.007-.714-0.121-0.281-.254-0.61-0.382-0.384.018-.713-0.11-0.332-.12-0.661-0.247-0.255-.322-0.585-0.45-0.365-.033-0.694-0.161a0.269,0.269,0,0,0-.094.027,0.5,0.5,0,0,0-.229-0.059,0.512,0.512,0,0,0-.173.356c0.05,0.242.231,0.455,0.276,0.694s0.227,0.453.267,0.69-0.169.52-.133,0.759,0.13,0.469.162,0.707,0.21,0.463.239,0.7-0.1.5-.073,0.741-0.056.493-.034,0.734,0.3,0.461.317,0.7,0.084,0.482.1,0.727-0.266.507-.249,0.753,0.071,0.481.086,0.727,0.1,0.48.116,0.726-0.068.492-.056,0.738,0.195,0.48.207,0.727a0.666,0.666,0,0,1-.261.572c-0.19.116-.34,0.324-0.555,0.456-0.192.117-.569-0.045-0.783,0.085-0.2.118-.4,0.244-0.612,0.372-0.2.118-.235,0.519-0.448,0.646s-0.519.046-.732,0.172-0.3.418-.514,0.542-0.465.14-.678,0.263-0.443.181-.657,0.3-0.463.143-.677,0.263-0.367.312-.581,0.431-0.388.276-.6,0.394-0.393.269-.607,0.387-0.4.251-.619,0.366-0.484.1-.7,0.22-0.355.348-.571,0.462-0.431.208-.648,0.322-0.433.2-.651,0.317-0.408.255-.626,0.367-0.461.158-.679,0.269-0.5.058-.721,0.168-0.4.267-.616,0.377-0.43.2-.647,0.311-0.411.246-.628,0.355-0.4.259-.623,0.365-0.43.209-.649,0.315-0.393.286-.612,0.392-0.516.029-.735,0.135-0.42.232-.639,0.337-0.362.355-.582,0.459-0.416.245-.636,0.348-0.238.112-.459,0.214-0.094.219-.316,0.322-0.273.031-.493,0.132-0.247.109-.468,0.21-0.386.316-.607,0.416c-0.13.059-.218,0.112-0.179,0.248,0.148,0.518-.022.567,0.128,1.085a0.558,0.558,0,0,0,.472.208c0.011,0,.116-0.13.127-0.131,0.3-.08.4-0.119,0.559-0.164,0.373-.105.027,0.039,0.4-0.067,0.224-.062.18,0.072,0.413,0.007s0.283-.159.515-0.226,0.344-.354.579-0.422,0.534,0.149.767,0.081,0.377-.41.61-0.477,0.532,0.117.768,0.049,0.469-.088.7-0.156,0.41-.292.643-0.362,0.439-.193.672-0.263,0.482-.058.714-0.129l0.693-.211a1.6,1.6,0,0,0,.415-0.256l-0.479-.594,0.016,0.008a0.547,0.547,0,0,0,.1.047,0.458,0.458,0,0,1,.112.049,0.219,0.219,0,0,1,.091.093,0.191,0.191,0,0,0,.08.081c0.051,0.03.076,0.046,0.1,0.063s0.049,0.032.1,0.061a0.419,0.419,0,0,1,.1.072l0.005,0c0.229-.072.46-0.142,0.695-0.214s0.474-.078.706-0.151,0.442-.185.673-0.259,0.459-.134.691-0.208l0.686-.222c0.227-.074.536,0.094,0.766,0.018s0.435-.217.666-0.293,0.4-.316.633-0.393,0.444-.185.676-0.263,0.537,0.085.768,0.007,0.462-.141.693-0.22,0.369-.411.6-0.491,0.52,0.022.75-.058,0.474-.113.7-0.194,0.447-.191.677-0.273,0.4-.321.631-0.4,0.519,0.01.751-.073a0.47,0.47,0,0,1,.167-0.052,0.8,0.8,0,0,1,.395-0.045,0.813,0.813,0,0,1,.292.563c0,0.237.036,0.48,0.034,0.725s-0.261.476-.264,0.721,0.111,0.486.107,0.732,0.059,0.483.055,0.727-0.178.482-.182,0.726,0.009,0.485,0,.731,0.1,0.489.1,0.735,0.025,0.488.019,0.734-0.091.487-.1,0.734-0.031.488-.036,0.735,0.054,0.491.048,0.737,0.029,0.491.023,0.739-0.132.487-.139,0.733-0.127.487-.133,0.733,0.181,0.5.174,0.741,0.035,0.491.029,0.736-0.1.487-.1,0.731,0.1,0.493.093,0.737-0.244.48-.251,0.723,0.177,0.494.17,0.739-0.184.485-.191,0.73-0.06.488-.067,0.733,0.169,0.5.162,0.74-0.186.485-.193,0.729,0.026,0.489.019,0.733,0.072,0.49.067,0.733,0.062,0.487.056,0.73-0.006.487-.011,0.729-0.14.483-.146,0.726,0.126,0.488.121,0.729-0.052.486-.056,0.729,0,0.487-.008.728,0,0.486,0,.728,0.022,0.486.018,0.726c0,0.155.007,0.306,0.015,0.458a0.2,0.2,0,0,1,.029-0.016,0.585,0.585,0,0,1,.114-0.038,0.735,0.735,0,0,0,.11-0.037,0.29,0.29,0,0,0,.1-0.06,0.359,0.359,0,0,1,.106-0.067,0.386,0.386,0,0,1,.12-0.03,0.348,0.348,0,0,0,.111-0.028c0.054-.023.082-0.032,0.111-0.042s0.057-.02.111-0.042a0.5,0.5,0,0,0,.1-0.056,0.451,0.451,0,0,1,.107-0.059c0.054-.023.08-0.036,0.107-0.048a1.129,1.129,0,0,1,.107-0.049,0.2,0.2,0,0,0,.09-0.071,0.216,0.216,0,0,1,.1-0.081,0.521,0.521,0,0,1,.117-0.036,0.407,0.407,0,0,0,.111-0.033,0.155,0.155,0,0,0,.016,0l-2.016,1.938a1.985,1.985,0,0,1,.24.58c0,0.246-.107.488-0.108,0.727s0.076,0.491.075,0.73-0.064.489-.064,0.728-0.034.5-.025,0.742,0.145,0.486.169,0.727-0.176.529-.129,0.764a5.037,5.037,0,0,0,.3.693,3.648,3.648,0,0,0,.306.675,3.106,3.106,0,0,0,.493.55,3.361,3.361,0,0,0,.641.35,3.8,3.8,0,0,0,.57.511,5.166,5.166,0,0,0,.706.3c0.226,0.053.518-.157,0.779-0.123,0.232,0.03.474,0,.734,0.02,0.236,0.013.475,0.258,0.736,0.258a2.55,2.55,0,0,1,.677-0.25,6.886,6.886,0,0,0,.693.063c0.212-.024.464,0.084,0.707,0.044,0.218-.035.432-0.175,0.669-0.226,0.219-.046.448-0.091,0.679-0.152s0.4-.251.626-0.324,0.438-.122.655-0.209,0.392-.235.6-0.336,0.383-.237.583-0.354,0.479-.1.668-0.229,0.3-.352.479-0.5a6.429,6.429,0,0,0,.5-0.462c0.156-.168.463-0.21,0.6-0.391a6.743,6.743,0,0,0,.286-0.635,19.9,19.9,0,0,1,.677-1.914c0.044-.218.262-0.42,0.287-0.651s0.01-.462.015-0.693a0.551,0.551,0,0,1,.44-0.639c0.366,0,.366.155,0.732,0.155s0.367-.229.733-0.229,0.366,0,.731,0,0.364,0.309.729,0.309,0.363-.11.726-0.11,0.363,0.092.727,0.092,0.363-.28.727-0.28,0.364,0.215.729,0.215,0.362-.011.725-0.011,0.363-.217.727-0.217,0.363,0,.727,0a0.4,0.4,0,0,1,.119.027l-0.015-.1-0.153-.112a0.347,0.347,0,0,1,0-.284,1.423,1.423,0,0,0,.453.259l0.118,0.03,0.2,0.328,0.244,0L243,152.365a0.89,0.89,0,0,1,.428-0.107h0.724c0.363,0,.363-0.139.727-0.139s0.362,0.316.724,0.316,0.361-.092.722-0.092,0.359-.026.72-0.026,0.359,0.048.718,0.048,0.363-.023.725-0.023,0.361-.157.724-0.157,0.362-.053.724-0.053,0.363,0.08.725,0.08,0.362,0.028.725,0.028,0.362,0.047.723,0.047,0.362,0.022.724,0.022,0.361,0.1.722,0.1,0.362-.224.724-0.224,0.361-.08.724-0.08,0.362,0.19.725,0.19,0.362-.117.724-0.117,0.361,0.16.723,0.16,0.361-.175.722-0.175,0.361,0.274.721,0.274a0.438,0.438,0,0,1,.38.04,0.462,0.462,0,0,1,.109.386c-0.012.243,0.011,0.481,0,.71-0.011.244,0.047,0.481,0.042,0.709s0.051,0.475.054,0.7c0,0.244-.159.485-0.144,0.709a6.812,6.812,0,0,0,.22.686,7.147,7.147,0,0,0-.057.741,3.987,3.987,0,0,0,.561.523,2.642,2.642,0,0,0,.318.605,2.833,2.833,0,0,0,.546.5,3.767,3.767,0,0,0,.682.312,6.854,6.854,0,0,0,.747.1,7.063,7.063,0,0,0,.712.3c0.236,0.031.494,0.01,0.762,0.03,0.238,0.017.493-.083,0.757-0.075,0.242,0.007.491,0.276,0.754,0.276,0.248,0,.487-0.231.72-0.24,0.249-.009.5,0.176,0.732,0.158,0.248-.02.466-0.243,0.7-0.271,0.246-.031.475-0.076,0.7-0.117,0.245-.044.482-0.051,0.707-0.106,0.241-.06.467-0.124,0.684-0.194,0.237-.078.456-0.156,0.666-0.246,0.229-.1.531-0.03,0.73-0.14a6.092,6.092,0,0,0,.547-0.492,5.417,5.417,0,0,0,.552-0.459,5.912,5.912,0,0,0,.576-0.458,5.254,5.254,0,0,0,.4-0.615,5.444,5.444,0,0,0,.111-0.744,5.792,5.792,0,0,0,.229-0.664c0.064-.235.108-0.459,0.147-0.689s0.255-.454.275-0.685c0.021-.247-0.04-0.492-0.034-0.719,0.007-.255.1-0.494,0.1-0.712,0-.19.021-0.428,0.017-0.706,0-.213-0.266-0.448-0.271-0.709-0.005-.221.25-0.464,0.244-0.716-0.005-.227-0.058-0.464-0.065-0.713-0.005-.23-0.149-0.465-0.156-0.711s0.131-.472.124-0.716,0.059-.473.053-0.716-0.265-.467-0.272-0.71,0.249-.483.242-0.726-0.268-.47-0.275-0.712,0.215-.485.208-0.727-0.155-.474-0.162-0.716-0.166-.473-0.173-0.715c-0.007-.211.042-0.212,0.035-0.424-0.007-.248.106-0.5,0.1-0.747s0.01-.5,0-0.744-0.062-.492-0.069-0.738,0.088-.495.081-0.739-0.234-.488-0.242-0.733-0.052-.492-0.058-0.734,0.285-.5.278-0.746-0.277-.49-0.283-0.731,0.1-.5.093-0.743,0-.5-0.009-0.737c-0.007-.256-0.107-0.5-0.112-0.734-0.006-.26,0-0.506-0.007-0.737,0-.266.01-0.512,0.007-0.736,0-.286.081-0.535,0.081-0.739,0-.362-0.027-0.362-0.027-0.723s0.146-.361.146-0.723a0.444,0.444,0,0,0-.04-0.185c-0.011.005-.03,0.015-0.04,0.018a0.743,0.743,0,0,0-.1.05,0.324,0.324,0,0,0-.088.073,0.384,0.384,0,0,1-.1.079,0.389,0.389,0,0,1-.115.045,0.343,0.343,0,0,0-.107.042,1.169,1.169,0,0,1-.1.055c-0.028.014-.054,0.028-0.105,0.057a0.453,0.453,0,0,0-.094.067,0.485,0.485,0,0,1-.1.073c-0.049.029-.074,0.044-0.1,0.061s-0.05.033-.1,0.063a0.182,0.182,0,0,0-.08.082,0.221,0.221,0,0,1-.092.092,0.515,0.515,0,0,1-.111.05,0.477,0.477,0,0,0-.106.046l-0.016.008,1.345-1.666a1.142,1.142,0,0,0,.277-0.551c0-.358.014-0.358,0.014-0.716s-0.212-.358-0.212-0.718,0.141-.358.141-0.717-0.148-.36-0.148-0.719-0.038-.358-0.038-0.717,0.008-.358.008-0.717,0.1-.359.1-0.717,0-.359,0-0.716-0.141-.357-0.141-0.714,0.037-.358.037-0.715,0.127-.358.127-0.717,0.064-.357.064-0.715a0.408,0.408,0,0,1,.2-0.409c0.228-.145.349-0.428,0.552-0.56,0.227-.148.434-0.293,0.631-0.428,0.223-.153.464-0.243,0.65-0.385,0.22-.166.53-0.2,0.7-0.353a3.875,3.875,0,0,0,.467-0.626,2.328,2.328,0,0,0,.232-0.73,2.452,2.452,0,0,0,.324-0.723,1.889,1.889,0,0,0-.256-0.687,2.626,2.626,0,0,0-.421-0.554,4.571,4.571,0,0,0-.515-0.457c-0.178-.166-0.344-0.329-0.51-0.467-0.105-.088-0.067-0.131-0.174-0.215-0.277-.217-0.25-0.253-0.53-0.466s-0.207-.311-0.489-0.524-0.368-.1-0.647-0.308-0.229-.28-0.509-0.492-0.257-.238-0.535-0.449-0.29-.2-0.569-0.407-0.257-.238-0.535-0.448-0.414-.033-0.693-0.245-0.211-.3-0.489-0.51-0.261-.234-0.539-0.445-0.367-.094-0.647-0.306-0.308-.169-0.586-0.38-0.28-.206-0.557-0.416-0.134-.4-0.411-0.61-0.35-.117-0.627-0.33c-0.229-.179-0.4-0.381-0.579-0.521-0.237-.184-0.416-0.366-0.59-0.492a6.088,6.088,0,0,0-.634-0.452,1.706,1.706,0,0,0-.777-0.207,1.365,1.365,0,0,0-.677.234,1.879,1.879,0,0,0-.568.425c-0.12.149-.2,0.375-0.35,0.594-0.112.168-.308,0.312-0.445,0.526-0.122.188,0.086,0.32-.034,0.509-0.2.314-.2,0.312-0.4,0.627s-0.27.27-.469,0.584-0.242.287-.44,0.6-0.209.307-.407,0.621-0.186.318-.383,0.63-0.231.291-.429,0.6-0.033.415-.229,0.725a0.667,0.667,0,0,1-.573.07c-0.372,0-.372.077-0.744,0.077s-0.373.141-.745,0.141-0.372-.149-0.743-0.149-0.371-.091-0.742-0.091-0.368.165-.738,0.165-0.37.129-.739,0.129-0.37-.051-0.739-0.051-0.371-.069-0.741-0.069-0.369-.109-0.739-0.109l-0.738,0c-0.37,0-.37.039-0.74,0.039s-0.368.2-.737,0.2-0.368-.186-0.736-0.186-0.368-.094-0.736-0.094-0.369.129-.739,0.129-0.369.038-.737,0.038-0.367-.085-0.733-0.085-0.366-.02-0.733-0.02a0.5,0.5,0,0,1-.531-0.338,0.646,0.646,0,0,1,.181-0.708c0.193-.123.359-0.294,0.558-0.422m0.6-27.322a6.214,6.214,0,0,0,.73-0.049,6.075,6.075,0,0,1,.723.051c0.363,0,.363-0.031.724-0.031s0.362-.169.724-0.169,0.359,0.187.719,0.187,0.361-.024.721-0.024,0.36-.169.721-0.169,0.361,0,.722,0,0.36-.039.72-0.039,0.36,0.256.72,0.256,0.361-.117.722-0.117,0.359-.065.718-0.065,0.359,0.169.717,0.169,0.359-.017.718-0.017,0.36-.112.721-0.112,0.359-.036.717-0.036a0.657,0.657,0,0,1,.51.4,0.549,0.549,0,0,1-.077.585c-0.14.18-.233,0.406-0.387,0.6s-0.262.386-.418,0.573-0.39.282-.55,0.468-0.389.279-.549,0.463-0.165.483-.329,0.667-0.277.383-.44,0.563-0.378.292-.542,0.471-0.236.423-.4,0.6-0.491.19-.659,0.368-0.188.477-.357,0.655-0.448.225-.616,0.4-0.36.307-.528,0.481-0.2.467-.367,0.64-0.454.218-.624,0.391-0.3.365-.474,0.538-0.273.4-.444,0.571-0.283.39-.455,0.563-0.332.342-.5,0.514-0.429.247-.6,0.419-0.244.434-.417,0.606-0.369.309-.544,0.48-0.337.342-.512,0.514a0.691,0.691,0,0,1-.435.19c-0.409,0-.409.031-0.817,0.031a0.783,0.783,0,0,1-.7-0.664c0-.36.282-0.36,0.282-0.72s-0.283-.36-0.283-0.72,0.1-.359.1-0.718-0.08-.359-0.08-0.717,0.063-.357.063-0.713,0.036-.357.036-0.714-0.122-.358-0.122-0.715,0.237-.358.237-0.716-0.1-.357-0.1-0.714,0.016-.357.016-0.713-0.041-.358-0.041-0.716-0.115-.356-0.115-0.711,0.212-.356.212-0.711,0.081-.356.081-0.712-0.258-.357-0.258-0.714-0.049-.356-0.049-0.712a0.654,0.654,0,0,1,.72-0.48M237.774,106.8l0.153-.112,0.036-.235,0.06-.038,0.122-.036,0.073-.1,0.062-.225,0.133-.024,0.173-.106,0.139-.035,0.138-.176,0.039-.039,0.088-.12,0.221-.026,0.005,0.144-0.058.056-0.027.078-0.021.035-0.042.115-0.047.079-0.032.177-0.119.075-0.082.181-0.244,0-0.2.326-0.117.031a1.4,1.4,0,0,0-.452.259,0.344,0.344,0,0,1,0-.283M259.5,138.975c0,0.355-.068.355-0.068,0.708s0.043,0.353.043,0.705-0.01.353-.01,0.7V141.8c0,0.352-.255.352-0.255,0.7s0.07,0.352.07,0.7,0.173,0.351.173,0.7,0.034,0.353.034,0.706-0.254.351-.254,0.7-0.015.35-.015,0.7,0.267,0.35.267,0.7-0.191.35-.191,0.7-0.051.353-.051,0.705a0.45,0.45,0,0,1-.479.508c-0.359,0-.359.169-0.718,0.169s-0.361-.186-0.72-0.186-0.358.023-.718,0.023-0.358.17-.716,0.17-0.356,0-.713,0-0.356.038-.713,0.038-0.358-.256-0.714-0.256-0.359.118-.716,0.118-0.357.065-.713,0.065-0.357-.17-0.714-0.17-0.357.018-.715,0.018-0.355.112-.711,0.112-0.355.035-.711,0.035-0.355-.081-0.711-0.081-0.356-.018-0.713-0.018-0.356.067-.711,0.067-0.355.04-.709,0.04-0.354-.119-0.707-0.119-0.353-.115-0.706-0.115-0.356.195-.711,0.195-0.356.048-.711,0.048-0.356-.084-0.711-0.084-0.357.112-.713,0.112-0.356-.23-0.712-0.23-0.355.19-.711,0.19-0.354-.171-0.71-0.171-0.354-.047-0.71-0.047-0.354.182-.71,0.182-0.355-.174-0.711-0.174-0.356.039-.713,0.039-0.355.085-.711,0.085-0.354.074-.71,0.074-0.354.006-.709,0.006-0.353-.128-0.708-0.128-0.354.137-.709,0.137a0.69,0.69,0,0,1-.614-0.655c0-.357-0.007-0.357-0.007-0.712s-0.011-.356-0.011-0.711-0.032-.355-0.032-0.71-0.035-.354-0.035-0.708,0.282-.353.282-0.7-0.283-.354-0.283-0.706,0.1-.354.1-0.706-0.079-.355-0.079-0.708,0.062-.353.062-0.706,0.036-.352.036-0.705-0.122-.353-0.122-0.707,0.238-.351.238-0.7-0.1-.351-0.1-0.7,0.017-.351.017-0.7-0.041-.354-0.041-0.706-0.116-.352-0.116-0.7,0.212-.351.212-0.7,0.081-.35.081-0.7-0.257-.349-0.257-0.7-0.049-.352-0.049-0.7a0.653,0.653,0,0,1,.719-0.48,6.3,6.3,0,0,0,.715-0.146,6.053,6.053,0,0,1,.725-0.028c0.358,0,.358.138,0.717,0.138s0.358-.14.717-0.14,0.356,0.016.712,0.016,0.357,0.021.714,0.021,0.357-.038.714-0.038,0.358,0.07.716,0.07,0.356,0.177.713,0.177,0.356-.059.713-0.059,0.357,0.01.715,0.01,0.356-.037.711-0.037,0.355-.054.71-0.054,0.356,0,.711,0,0.358-.086.714-0.086,0.357,0.2.712,0.2,0.355-.03.708-0.03,0.354-.165.707-0.165,0.354-.044.706-0.044,0.356-.006.712-0.006,0.356-.045.711-0.045,0.356,0.172.711,0.172,0.357,0.021.713,0.021,0.355-.127.712-0.127,0.354,0.078.71,0.078a1.851,1.851,0,0,1,.566.158,0.138,0.138,0,0,1,.029-0.054c0-.03.009-0.06,0.015-0.09a0.344,0.344,0,0,1-.007-0.152,0.194,0.194,0,0,1,.033-0.082c0-.01-0.008-0.067-0.008-0.079,0-.18.181-0.054,0.28-0.2a0.8,0.8,0,0,0,.123.012c0.013-.062.161,0.038,0.161,0.21,0,0.012.074,0.1,0.069,0.051a0.34,0.34,0,0,1,.041.1,0.261,0.261,0,0,1-.031.185,0.3,0.3,0,0,1,.022.028,0.884,0.884,0,0,1,.127-0.011c0.355,0,.355-0.194.711-0.194s0.355,0.074.711,0.074,0.356,0.015.712,0.015,0.355,0.182.71,0.182,0.356,0.033.71,0.033,0.355-.323.709-0.323,0.355,0.288.709,0.288,0.355-.29.708-0.29a0.649,0.649,0,0,1,.465.725c0,0.356-.046.356-0.046,0.712s0.164,0.355.164,0.711,0.061,0.354.061,0.71-0.082.353-.082,0.708,0,0.352,0,.7,0.174,0.353.174,0.706,0,0.354,0,.706m-14.614-22.749c0.366,0,.366-0.029.733-0.029s0.367-.166.734-0.166,0.366-.044.731-0.044,0.365-.006.73-0.006,0.365-.045.731-0.045,0.367,0.173.733,0.173,0.365,0.02.732,0.02,0.363-.127.727-0.127,0.363,0.078.727,0.078,0.363,0.178.725,0.178,0.365-.1.732-0.1,0.365-.195.73-0.195,0.365,0.074.731,0.074,0.366,0.015.732,0.015,0.365,0.182.731,0.182,0.366,0.032.731,0.032,0.364-.322.729-0.322,0.365,0.289.73,0.289,0.365-.291.729-0.291a0.649,0.649,0,0,1,.465.725c0,0.354-.046.354-0.046,0.708s0.164,0.354.164,0.709,0.061,0.353.061,0.706-0.082.352-.082,0.705,0,0.351,0,.7,0.174,0.351.174,0.7,0,0.352,0,.7-0.068.353-.068,0.7,0.043,0.352.043,0.7-0.01.352-.01,0.7v0.7c0,0.349-.255.349-0.255,0.7s0.07,0.349.07,0.7,0.173,0.35.173,0.7,0.034,0.351.034,0.7-0.254.351-.254,0.7-0.015.348-.015,0.7,0.267,0.347.267,0.695a0.688,0.688,0,0,1-.721.529c-0.359,0-.359-0.051-0.718-0.051s-0.361.031-.72,0.031-0.358.169-.718,0.169-0.358-.187-0.716-0.187-0.356.024-.713,0.024-0.356.17-.713,0.17-0.358,0-.714,0-0.359.038-.716,0.038-0.357-.256-0.713-0.256-0.357.117-.714,0.117-0.357.065-.715,0.065-0.355-.169-0.711-0.169-0.355.017-.711,0.017-0.355.112-.711,0.112-0.356.036-.713,0.036-0.356-.081-0.711-0.081-0.355-.018-0.709-0.018-0.354.066-.707,0.066-0.353.04-.706,0.04-0.356-.119-0.711-0.119-0.356-.114-0.711-0.114-0.356.194-.711,0.194-0.357.048-.713,0.048-0.356-.084-0.712-0.084S241.3,130,240.946,130s-0.354-.231-0.71-0.231-0.354.19-.71,0.19-0.354-.17-0.71-0.17-0.355-.047-0.711-0.047-0.356.181-.713,0.181-0.355-.173-0.711-0.173-0.354.039-.71,0.039-0.354.085-.709,0.085-0.353.074-.708,0.074-0.354.006-.709,0.006a0.6,0.6,0,0,1-.518-0.647c0-.372-0.137-0.372-0.137-0.744s0.041-.372.041-0.744-0.007-.371-0.007-0.742-0.011-.37-0.011-0.742-0.032-.368-0.032-0.737-0.035-.369-0.035-0.738,0.282-.369.282-0.738-0.283-.371-0.283-0.741,0.1-.369.1-0.738-0.079-.368-0.079-0.737,0.062-.37.062-0.739,0.036-.369.036-0.737-0.122-.367-0.122-0.735,0.238-.367.238-0.735a0.49,0.49,0,0,1,.224-0.514c0.209-.1.427-0.18,0.638-0.282s0.4-.243.619-0.349,0.367-.312.577-0.419,0.517-.029.726-0.139,0.454-.15.661-0.262,0.288-.452.492-0.566,0.384-.272.586-0.388a1.2,1.2,0,0,1,.359.143,6.514,6.514,0,0,0,.739-0.107,6.9,6.9,0,0,1,.74.177c0.369,0,.369-0.059.737-0.059s0.368,0.011.737,0.011,0.366-.039.732-0.039,0.367-.053.733-0.053,0.368,0,.735,0,0.367-.086.735-0.086,0.366,0.2.733,0.2" style="fill:#fff"/><rect width="318.912" height="239.852" style="fill:none"/></svg>