<svg xmlns="http://www.w3.org/2000/svg" viewBox="0 0 318.912 239.852"><title>logo_7</title><path d="M192.945,224.166c-0.236-.264-0.208-0.288-0.447-0.549s-0.139-.355-0.378-0.616-0.364-.146-0.6-0.407-0.168-.325-0.406-0.586-0.337-.167-0.574-0.426a3.461,3.461,0,0,1-.275-0.34l-0.062.043a0.42,0.42,0,0,1-.479.059,0.25,0.25,0,0,1-.251-0.3,0.507,0.507,0,0,0-.076-0.312c-0.1-.164-0.146-0.253-0.191-0.339a4.083,4.083,0,0,0-.2-0.358,2.362,2.362,0,0,0-.222-0.314,2.487,2.487,0,0,1-.241-0.339,0.682,0.682,0,0,0-.366-0.247,0.361,0.361,0,0,1-.315-0.4,0.294,0.294,0,0,1,.09-0.158,0.457,0.457,0,0,1-.211-0.135c-0.236-.258-0.077-0.4-0.313-0.661s-0.406-.1-0.642-0.361-0.17-.318-0.407-0.575a1.2,1.2,0,0,1-.217-0.155,1.927,1.927,0,0,0-.6-0.5,1.5,1.5,0,0,0-.738-0.446,1.261,1.261,0,0,0-.6.3,2.127,2.127,0,0,0-.352.522c-0.152.187-.483,0.23-0.567,0.368-0.036.057,0.007,0.08-.029,0.136-0.207.314-.012,0.443-0.22,0.758s-0.189.327-.4,0.641-0.259.279-.467,0.593-0.283.263-.49,0.575-0.086.391-.292,0.7a0.536,0.536,0,0,1-.229.2l-0.012.023a0.679,0.679,0,0,0-.039.44,0.36,0.36,0,0,1-.2.47c-0.231.068-.323-0.077-0.417-0.272l-0.007-.013a2.022,2.022,0,0,0-.17.227c-0.207.312-.028,0.431-0.235,0.743s-0.18.327-.381,0.641a0.643,0.643,0,0,1-.59.121c-0.358,0-.358.017-0.715,0.017s-0.357-.055-0.715-0.055-0.356.234-.712,0.234-0.356-.2-0.712-0.2-0.354.27-.708,0.27-0.354-.22-0.709-0.22-0.355.1-.71,0.1H173.43c-0.354,0-.354-0.19-0.708-0.19s-0.354.018-.709,0.018-0.354.276-.71,0.276-0.353-.122-0.707-0.122-0.352-.032-0.705-0.032-0.353.166-.707,0.166-0.354-.025-0.709-0.025-0.353-.09-0.706-0.09-0.352.031-.7,0.031-0.351.073-.7,0.073-0.351-.222-0.7-0.222-0.353-.074-0.706-0.074-0.354.214-.706,0.214-0.354.085-.707,0.085-0.355-.061-0.708-0.061-0.354-.023-0.707-0.023a0.627,0.627,0,0,1-.572-0.63c0-.366-0.106-0.366-0.106-0.731s0.233-.366.233-0.732-0.126-.365-0.126-0.729-0.036-.364-0.036-0.729,0.18-.362.18-0.724-0.155-.364-0.155-0.726-0.033-.363-0.033-0.726,0.008-.365.008-0.728,0.07-.362.07-0.726-0.118-.362-0.118-0.724,0.048-.363.048-0.727,0.111-.362.111-0.723-0.234-.362-0.234-0.723,0.067-.361.067-0.723,0.072-.363.072-0.725,0.122-.363.122-0.724-0.145-.36-0.145-0.721-0.113-.359-0.113-0.718,0.234-.36.234-0.718,0.037-.361.037-0.724-0.238-.361-0.238-0.722,0.1-.362.1-0.724-0.039-.362-0.039-0.725,0.183-.361.183-0.723-0.195-.361-0.195-0.722,0.146-.361.146-0.723-0.206-.36-0.206-0.721-0.013-.362-0.013-0.722,0.112-.362.112-0.724,0.057-.362.057-0.724,0.116-.362.116-0.723-0.3-.36-0.3-0.722,0.314-.36.314-0.72-0.133-.361-0.133-0.721-0.049-.36-0.049-0.721-0.049-.359-0.049-0.719,0.106-.361.106-0.721,0.014-.36.014-0.722,0.019-.36.019-0.721,0.045-.362.045-0.723-0.188-.362-0.188-0.724,0.239-.36.239-0.721a0.352,0.352,0,0,1,.414-0.432c0.366,0,.366-0.169.732-0.169s0.365,0.048.732,0.048,0.365,0.013.729,0.013,0.364-.128.729-0.128,0.363,0.24.725,0.24,0.363-.077.726-0.077a1.547,1.547,0,0,0,.568-0.188,0.408,0.408,0,0,1,.033-0.18,0.283,0.283,0,0,1,.066-0.1c0-.015.01-0.09,0.013-0.106a0.439,0.439,0,0,1,.52-0.335l0.034,0.009a0.436,0.436,0,0,1,.277.52,0.453,0.453,0,0,1-.034.084,0.394,0.394,0,0,1,.022.126c0.31,0.01.337,0.108,0.681,0.108,0.363,0,.363.046,0.725,0.046s0.364-.058.728-0.058,0.362,0.1.723,0.1,0.362-.194.723-0.194,0.361,0.248.724,0.248,0.363-.224.725-0.224,0.362,0.063.724,0.063,0.36-.008.72-0.008,0.361-.021.72-0.021,0.36-.085.718-0.085,0.362,0.013.724,0.013h0.723c0.362,0,.362.133,0.724,0.133s0.362-.1.724-0.1,0.363,0.214.724,0.214,0.361-.245.724-0.245,0.36-.015.721-0.015,0.362,0.138.723,0.138,0.361,0.015.723,0.015,0.361-.169.722-0.169,0.363,0.245.725,0.245,0.362-.051.724-0.051,0.361-.206.722-0.206,0.361,0.253.721,0.253,0.36-.247.721-0.247,0.36,0.259.72,0.259a2.143,2.143,0,0,0,.7-0.158,0.9,0.9,0,0,0,.742-1.1,1.315,1.315,0,0,0-.285-0.677,3.229,3.229,0,0,0-.418-0.611c-0.047-.047-0.153.065-0.2,0.02-0.263-.25-0.25-0.264-0.514-0.511s-0.083-.442-0.349-0.69-0.321-.186-0.586-0.433-0.177-.339-0.44-0.586-0.418-.079-0.68-0.325-0.3-.209-0.561-0.455-0.192-.317-0.454-0.561-0.265-.238-0.525-0.48-0.137-.379-0.4-0.624-0.372-.127-0.633-0.372-0.249-.261-0.512-0.506-0.293-.211-0.554-0.455-0.231-.275-0.492-0.519-0.378-.118-0.641-0.359c-0.1-.088.083-0.29-0.015-0.375a6.356,6.356,0,0,0-.725-0.361,1.514,1.514,0,0,0-.71-0.371,1.307,1.307,0,0,0-.587.242,1.8,1.8,0,0,0-.58.306,3.75,3.75,0,0,0-.2.628c-0.174.308-.317,0.224-0.5,0.529s-0.069.37-.249,0.676-0.035.388-.214,0.693-0.23.273-.409,0.577-0.321.218-.5,0.52-0.187.3-.364,0.6-0.2.291-.373,0.592-0.248.262-.427,0.565-0.008.4-.186,0.705-0.275.245-.452,0.547a0.41,0.41,0,0,1-.43.222c-0.366,0-.366.121-0.732,0.121s-0.366.077-.732,0.077-0.366-.117-0.731-0.117-0.365-.045-0.729-0.045-0.363.239-.726,0.239-0.363-.167-0.726-0.167-0.365.153-.728,0.153-0.364-.022-0.729-0.022-0.363-.219-0.725-0.219-0.363.1-.727,0.1-0.364-.078-0.727-0.078-0.363.018-.725,0.018-0.361.025-.723,0.025-0.362.065-.724,0.065-0.363-.184-0.727-0.184-0.362.038-.724,0.038a0.4,0.4,0,0,1-.457-0.455c0-.366-0.016-0.366-0.016-0.732s-0.221-.367-0.221-0.733,0.145-.364.145-0.729-0.133-.366-0.133-0.73,0.26-.362.26-0.724-0.113-.364-0.113-0.727-0.029-.363-0.029-0.727,0.013-.364.013-0.728,0.063-.363.063-0.726-0.128-.363-0.128-0.726,0.05-.363.05-0.727-0.06-.362-0.06-0.724a1.814,1.814,0,0,1,.043-0.412,0.44,0.44,0,0,1-.225.021h0a0.486,0.486,0,0,1-.265-0.182,0.377,0.377,0,0,1-.028-0.3,0.41,0.41,0,0,1,.04-0.1,0.131,0.131,0,0,0,.006-0.027,0.348,0.348,0,0,1,.046-0.126,0.372,0.372,0,0,1-.02-0.143,0.387,0.387,0,0,1,.03-0.124,0.368,0.368,0,0,1-.022-0.239,0.308,0.308,0,0,1,.1-0.174c0.014-.037.03-0.075,0.046-0.112a0.473,0.473,0,0,1,.037-0.2,0.278,0.278,0,0,1,.065-0.1c0-.016.011-0.091,0.014-0.107a0.435,0.435,0,0,1,.266-0.3,1.023,1.023,0,0,1-.032-0.267c0-.361-0.144-0.361-0.144-0.722s-0.061-.359-0.061-0.718,0.32-.36.32-0.719-0.258-.362-0.258-0.725,0.033-.361.033-0.723,0.047-.362.047-0.724,0.149-.362.149-0.724-0.068-.363-0.068-0.725-0.106-.361-0.106-0.724-0.1-.36-0.1-0.721,0.294-.362.294-0.723-0.167-.361-0.167-0.724-0.1-.361-0.1-0.723a0.714,0.714,0,0,1,.388-0.366c0.216-.174.412-0.347,0.6-0.5,0.216-.18.267-0.517,0.444-0.675,0.216-.193.376-0.381,0.535-0.549a5.846,5.846,0,0,0,.627-0.476,1.376,1.376,0,0,0,.175-0.751,1.207,1.207,0,0,0-.184-0.822,2.7,2.7,0,0,0-.806-0.281,3.383,3.383,0,0,0-.706-0.494c-0.356-.076-0.363-0.043-0.719-0.118s-0.377.02-.734-0.055-0.327-.206-0.683-0.281-0.393.1-.748,0.029-0.312-.269-0.665-0.343-0.37,0-.724-0.071-0.339-.149-0.693-0.223-0.357-.061-0.712-0.137-0.408.188-.762,0.113-0.3-.332-0.652-0.407-0.4.126-.751,0.051-0.306-.3-0.659-0.372-0.4.161-.753,0.087-0.326-.2-0.679-0.275-0.377.039-.731-0.036-0.32-.225-0.673-0.3-0.351-.076-0.7-0.151-0.4.136-.745,0.062-0.327-.181-0.678-0.247a0.205,0.205,0,0,0-.158.1,0.547,0.547,0,0,0-.255.254c0.053,0.237.082,0.473,0.131,0.7s0.171,0.454.218,0.685,0.225,0.442.269,0.672,0.15,0.454.191,0.684-0.011.485,0.027,0.717,0.08,0.469.115,0.7,0.091,0.465.123,0.7,0.036,0.472.066,0.708,0.153,0.46.179,0.7-0.09.487-.067,0.726,0.117,0.465.137,0.7-0.082.482-.065,0.721,0.137,0.467.153,0.708,0.108,0.472.122,0.714-0.174.482-.163,0.722,0.209,0.465.219,0.705-0.009.471,0,.71l0.181,0.013,0.089,0.04-0.033.385,0.215,0.131a0.688,0.688,0,0,1-.12.483,1.088,1.088,0,0,0-.361-0.188,4.8,4.8,0,0,1,.083.575c0.005,0.237.047,0.476,0.051,0.719s-0.072.478-.069,0.722,0.078,0.473.081,0.715-0.148.474-.146,0.716c0,0.211.02,0.449,0.022,0.709,0,0.221,0,.459,0,0.713,0,0.227-.1.466-0.1,0.718,0,0.229.188,0.467,0.189,0.715,0,0.231.011,0.471,0.012,0.718s-0.142.471-.141,0.717,0,0.471,0,.716,0.008,0.476.009,0.721,0.163,0.478.163,0.723-0.057.474-.056,0.718-0.182.475-.181,0.718,0.183,0.475.183,0.717,0.084,0.476.084,0.718-0.212.476-.212,0.719,0.165,0.476.165,0.718-0.021.478-.021,0.72-0.083.479-.083,0.72-0.1.478-.1,0.72-0.016.48-.016,0.721,0.075,0.48.075,0.722,0.07,0.479.07,0.721,0.133,0.48.133,0.721-0.2.481-.2,0.722-0.049.48-.05,0.722,0.182,0.48.182,0.721,0.033,0.481.033,0.722-0.177.48-.177,0.722-0.072.48-.072,0.721,0.221,0.481.221,0.722-0.159.48-.16,0.721,0.016,0.48.016,0.72,0.046,0.481.046,0.721-0.1.481-.1,0.721,0.154,0.48.154,0.721,0.064,0.481.064,0.721-0.078.48-.079,0.72-0.057.479-.057,0.719-0.047.477-.048,0.716,0.036,0.478.036,0.716-0.041.479-.041,0.717,0.1,0.478.1,0.716,0.159,0.477.159,0.716-0.05.476-.05,0.714-0.112.476-.112,0.713,0.069,0.477.069,0.713-0.125.479-.126,0.716,0.167,0.48.167,0.717-0.243.478-.243,0.716-0.009.478-.009,0.715,0.281,0.478.281,0.715-0.261.478-.261,0.714c0,0.092.007,0.182,0.014,0.273l0.062-.038,0.139-.034,0.138-.176,0.039-.039,0.088-.12,0.22-.027L150.9,212.7l-0.058.055-0.028.078-0.02.036-0.042.114-0.047.079-0.032.177-0.12.076-0.082.181-0.229,0a5.388,5.388,0,0,1,.206.652c0,0.349-.07.349-0.071,0.7s0.094,0.35.093,0.7-0.151.347-.152,0.7,0,0.346,0,.694-0.172.346-.173,0.692,0.3,0.346.3,0.693-0.182.346-.182,0.692,0.042,0.347.041,0.7,0,0.345,0,.691,0.107,0.347.107,0.692-0.247.347-.248,0.694,0.226,0.345.225,0.69a0.584,0.584,0,0,1-.659.475c-0.369,0-.369.153-0.739,0.153s-0.369.005-.738,0.005-0.369-.016-0.737-0.016-0.368.057-.736,0.057-0.366-.231-0.731-0.231-0.367.108-.734,0.108-0.367.064-.733,0.064-0.368.01-.735,0.01-0.366-.137-0.733-0.137-0.366.193-.732,0.193-0.367-.185-0.734-0.185-0.365.14-.73,0.14-0.365-.2-0.73-0.2-0.365.078-.73,0.078-0.367.1-.733,0.1a0.761,0.761,0,0,1-.16-0.018c-0.005.007-.011,0.027-0.015,0.031a0.543,0.543,0,0,1-.054.132,0.953,0.953,0,0,1-.049.125,0.41,0.41,0,0,1-.1.263,0.422,0.422,0,0,1-.266.1h0a0.485,0.485,0,0,1-.3-0.12,0.376,0.376,0,0,1-.093-0.285,0.341,0.341,0,0,1,.017-0.106,0.142,0.142,0,0,0,0-.029,0.35,0.35,0,0,1,.016-0.133,0.465,0.465,0,0,1-.032-0.087,1.779,1.779,0,0,1-.428.049c-0.363,0-.363-0.13-0.726-0.13s-0.362.062-.725,0.062-0.365.218-.73,0.218c-0.2,0-.444-0.251-0.716-0.252-0.221,0-.462.034-0.722,0.031-0.227,0-.468,0-0.721,0-0.232,0-.478.238-0.729,0.234-0.234,0-.471-0.229-0.719-0.236s-0.476-.018-0.722-0.026-0.485.187-.731,0.179-0.474-.178-0.719-0.189-0.474-.161-0.719-0.174-0.482-.017-0.726-0.031-0.488.079-.731,0.064-0.491.084-.733,0.068-0.469-.217-0.71-0.236-0.479-.06-0.719-0.082-0.49.063-.728,0.04a0.323,0.323,0,0,0-.237.136,0.266,0.266,0,0,0,.06.256c0.106,0.334.056,0.351,0.159,0.687s0.068,0.346.171,0.683-0.044.379,0.058,0.714,0.191,0.309.292,0.643,0.054,0.347.156,0.68,0.344,0.257.451,0.589c0.045,0.107,0,.24.113,0.24,0.023,0,0-.087.03-0.093,0.248-.041.533,0.154,0.776,0.117s0.458-.262.708-0.3,0.5,0.081.758,0.054c0.237-.027.476-0.106,0.736-0.128,0.237-.02.479-0.114,0.743-0.13,0.236-.015.491,0.1,0.753,0.082,0.238-.011.482-0.119,0.745-0.128,0.239-.008.489,0.025,0.752,0.019,0.24,0,.489-0.035.751-0.039,0.24,0,.49.136,0.75,0.135,0.241,0,.49-0.217.749-0.217,0.367,0,.367-0.024.734-0.024s0.367-.037.734-0.037,0.367,0.161.732,0.161,0.366-.13.732-0.13,0.363,0.176.727,0.176,0.364-.192.728-0.192,0.365,0,.729,0,0.365,0.033.731,0.033,0.363,0.154.728,0.154,0.364-.214.727-0.214,0.365,0.1.73,0.1,0.363,0.181.726,0.181,0.363-.043.725-0.043,0.363-.226.726-0.226,0.364,0.031.728,0.031,0.363,0.111.726,0.111,0.362-.055.723-0.055,0.361,0.043.722,0.043,0.36-.157.721-0.157,0.362,0.291.726,0.291,0.363-.247.725-0.247,0.363,0.162.726,0.162,0.364-.206.727-0.206,0.364,0.143.727,0.143,0.362-.057.725-0.057,0.362,0.044.725,0.044,0.362,0.146.724,0.146,0.363-.093.725-0.093,0.363,0,.726,0,0.364,0.06.727,0.06,0.363-.15.726-0.15,0.362-.1.724-0.1,0.362,0.29.724,0.29,0.362-.212.723-0.212,0.362,0.06.723,0.06,0.361-.113.723-0.113H160.6c0.363,0,.363.166,0.724,0.166s0.362-.052.726-0.052,0.362,0.144.725,0.144,0.363-.1.726-0.1,0.362-.208.723-0.208,0.363,0.31.724,0.31,0.361-.119.723-0.119,0.36,0.018.72,0.018,0.362-.033.722-0.033,0.36,0.109.721,0.109,0.36-.016.72-0.016,0.36,0,.72,0,0.361,0.064.721,0.064,0.36-.32.721-0.32,0.36,0.252.72,0.252,0.361,0.075.721,0.075,0.361-.138.723-0.138,0.361-.164.722-0.164,0.362,0.266.724,0.266,0.362-.081.725-0.081,0.361-.069.723-0.069,0.363,0.1.724,0.1,0.361,0.063.723,0.063,0.36-.025.72-0.025,0.361-.283.721-0.283,0.359,0.206.72,0.206,0.359-.058.718-0.058,0.359-.024.718-0.024,0.362,0.067.723,0.067,0.362-.019.724-0.019,0.361,0.008.723,0.008,0.361-.166.724-0.166a0.441,0.441,0,0,1,.192.041c-0.022-.027-0.043-0.051-0.056-0.069s-0.039-.048-0.077-0.092a0.479,0.479,0,0,0-.086-0.078,0.537,0.537,0,0,1-.089-0.083c-0.039-.043-0.06-0.064-0.081-0.084s-0.042-.043-0.081-0.087a0.194,0.194,0,0,0-.1-0.062,0.232,0.232,0,0,1-.11-0.071,0.463,0.463,0,0,1-.07-0.1,0.537,0.537,0,0,0-.067-0.1,0.065,0.065,0,0,1-.01-0.013l2.128,1.1a4.939,4.939,0,0,1,.675-0.231c0.361,0,.361.01,0.723,0.01s0.362-.058.723-0.058,0.361-.019.723-0.019,0.361,0.071.722,0.071,0.362,0.092.723,0.092,0.36,0.109.722,0.109,0.361-.045.721-0.045,0.362,0.012.723,0.012,0.36-.17.722-0.17a5.962,5.962,0,0,0,.731.123,1,1,0,0,0,.465-0.554,0.824,0.824,0,0,0,.239-0.567,1.378,1.378,0,0,0-.309-0.738c-0.13-.195-0.345-0.365-0.563-0.623" style="fill:#fff"/><rect width="318.912" height="239.852" style="fill:none"/></svg>