<svg xmlns="http://www.w3.org/2000/svg" viewBox="0 0 318.913 239.852"><title>logo_4</title><path d="M318.913,136.376c0-.242-0.07-0.484-0.08-0.721s0.087-.493.067-0.731-0.084-.481-0.114-0.717-0.3-.443-0.336-0.677,0.16-.523.109-0.754-0.255-.437-0.316-0.666-0.229-.431-0.3-0.657-0.072-.481-0.156-0.7a0.705,0.705,0,0,1-.017-0.092l-0.006,0a0.419,0.419,0,0,0-.092.067,0.48,0.48,0,0,1-.1.072c-0.051.03-.075,0.045-0.1,0.062s-0.049.033-.1,0.062a0.2,0.2,0,0,0-.08.081,0.221,0.221,0,0,1-.091.094,0.542,0.542,0,0,1-.111.049,0.453,0.453,0,0,0-.106.047l-0.016.008,0.732-.909a1.079,1.079,0,0,0-.056-0.263c-0.094-.222-0.36-0.365-0.465-0.578s-0.191-.438-0.306-0.647-0.063-.52-0.188-0.723-0.438-.291-0.573-0.489-0.089-.528-0.232-0.719-0.54-.186-0.693-0.371-0.287-.377-0.448-0.554-0.108-.559-0.277-0.729-0.419-.263-0.6-0.427-0.352-.33-0.534-0.485-0.361-.321-0.55-0.469-0.47-.174-0.664-0.313-0.383-.286-0.583-0.418-0.444-.189-0.649-0.313-0.378-.3-0.588-0.415-0.362-.34-0.577-0.449-0.5-.074-0.713-0.175-0.462-.129-0.684-0.222-0.37-.36-0.594-0.445-0.482-.073-0.71-0.151-0.465-.11-0.694-0.18-0.428-.24-0.659-0.3-0.492,0-.726-0.054-0.427-.291-0.662-0.338-0.473-.089-0.709-0.128-0.477-.063-0.715-0.1-0.5.133-.735,0.11-0.463-.205-0.7-0.221-0.483.059-.722,0.051-0.478,0-.717,0-0.48-.124-0.719-0.116-0.488-.1-0.726-0.081-0.48.058-.717,0.08-0.479.054-.717,0.084-0.479.054-.715,0.092-0.459.163-.693,0.208-0.424.3-.656,0.356-0.465.1-.695,0.155-0.483.04-.711,0.108-0.449.163-.674,0.238-0.477.083-.7,0.165-0.424.225-.645,0.315-0.443.176-.66,0.273-0.431.2-.645,0.307-0.416.232-.627,0.343-0.41.241-.617,0.361-0.483.119-.686,0.244-0.3.408-.5,0.54-0.449.184-.644,0.323-0.43.221-.62,0.365-0.377.3-.562,0.446-0.372.3-.551,0.458-0.32.359-.495,0.522-0.27.4-.439,0.573-0.374.3-.537,0.473-0.346.328-.5,0.508-0.341.337-.491,0.522-0.412.287-.556,0.478-0.187.458-.324,0.653-0.126.489-.257,0.689-0.266.39-.39,0.595-0.488.27-.6,0.478-0.082.5-.191,0.713-0.1.476-.2,0.693-0.455.32-.549,0.54-0.007.514-.092,0.737-0.3.4-.379,0.626-0.039.491-.107,0.719-0.08.472-.141,0.7-0.116.46-.168,0.694-0.083.467-.126,0.7-0.307.433-.343,0.671,0.032,0.488.006,0.726,0.031,0.483.014,0.722,0.043,0.477.034,0.718-0.277.472-.277,0.712,0.29,0.471.3,0.7c0.009,0.241-.27.492-0.251,0.714,0.02,0.241.049,0.478,0.079,0.7,0.033,0.241.379,0.417,0.422,0.634,0.048,0.239-.16.525-0.1,0.737a6.416,6.416,0,0,0,.349.617,5.74,5.74,0,0,0,.347.592,5.484,5.484,0,0,0,.358.579,6.318,6.318,0,0,0,.319.618,5.146,5.146,0,0,0,.582.387c0.2,0.178.371,0.336,0.52,0.469a5.969,5.969,0,0,1,.44.54,3.8,3.8,0,0,1,.484.506c0.111,0.163.053,0.45,0.19,0.693,0.114,0.216.457,0.3,0.565,0.5,0.116,0.215.076,0.5,0.191,0.7,0.124,0.209.373,0.321,0.5,0.5,0.139,0.2.061,0.565,0.215,0.73a3.569,3.569,0,0,0,.593.421,3.138,3.138,0,0,0,.67.247,2.668,2.668,0,0,0,.305.076l0.159-.032,0.227-.1,0.3-.1,0.1-.043,0.2-.063,0.189-.115,0.307-.014-0.311.411-0.365.182-0.008.006c0.09,0.008.17,0.025,0.266,0.025a2.512,2.512,0,0,0,.734.043,4.237,4.237,0,0,0,.655-0.321c0.2-.1.284-0.414,0.493-0.555a6.748,6.748,0,0,0,.632-0.33c0.177-.143.4-0.253,0.58-0.421,0.167-.154.344-0.314,0.517-0.489s0.23-.423.395-0.606,0.5-.183.662-0.37,0.152-.485.3-0.676,0.225-.417.372-0.612,0.32-.344.463-0.54,0.458-.253.6-0.452,0.231-.416.366-0.618,0.175-.452.306-0.656,0.3-.36.425-0.57,0.27-.382.395-0.592,0.061-.506.184-0.717,0.345-.342.465-0.552,0.251-.4.37-0.613,0.219-.419.335-0.63,0.241-.406.356-0.616,0.245-.407.358-0.617,0.214-.423.326-0.634,0.187-.439.3-0.651,0.251-.4.36-0.617,0.044-.51.151-0.723,0.221-.419.326-0.631,0.438-.314.541-0.527,0.176-.442.276-0.655,0.2-.428.3-0.641,0.135-.458.23-0.67,0.045-.5.137-0.715,0.332-.375.422-0.589,0.252-.413.338-0.629,0.1-.474.181-0.69,0.011-.5.087-0.718,0.345-.385.416-0.6c0.074-.233.152-0.459,0.214-0.678,0.066-.237.146-0.465,0.195-0.683,0.056-.245.027-0.5,0.059-0.712a4.181,4.181,0,0,0-.051-0.707,5.7,5.7,0,0,0-.091-0.709,5.277,5.277,0,0,0-.151-0.692,6.014,6.014,0,0,0-.029-0.75,6.4,6.4,0,0,0-.442-0.592,6.067,6.067,0,0,0-.432-0.574,6.737,6.737,0,0,0-.4-0.6c-0.158-.177-0.321-0.352-0.5-0.523s-0.351-.322-0.545-0.48a0.605,0.605,0,0,1-.108-0.668,0.533,0.533,0,0,1,.538-0.333c0.18,0,.424-0.042.721-0.025,0.218,0.013.475-.078,0.743-0.048,0.226,0.024.443,0.248,0.7,0.289,0.23,0.036.474,0.044,0.724,0.1,0.232,0.049.475,0.08,0.718,0.146s0.481,0.073.72,0.15,0.431,0.228.663,0.318,0.473,0.126.7,0.228,0.379,0.322.6,0.44,0.549,0.022.759,0.153,0.376,0.323.577,0.468,0.307,0.394.5,0.552,0.425,0.252.6,0.425,0.247,0.431.412,0.616,0.365,0.322.516,0.519,0.392,0.319.528,0.527,0.206,0.448.328,0.664,0.087,0.5.194,0.722,0.248,0.413.34,0.646,0.256,0.42.334,0.657,0.142,0.462.207,0.7,0.148,0.464.2,0.708,0.053,0.484.093,0.731-0.007.491,0.022,0.74,0,0.484.015,0.735,0.249,0.471.258,0.721-0.077.488-.077,0.737-0.1.479-.1,0.716,0.055,0.482.039,0.719-0.161.463-.185,0.7,0.1,0.491.064,0.725-0.179.456-.218,0.689,0.086,0.5.038,0.73-0.106.469-.162,0.7-0.123.465-.188,0.692-0.025.5-.1,0.722-0.283.411-.365,0.634-0.346.374-.436,0.592-0.189.431-.287,0.646-0.177.437-.283,0.648-0.127.468-.242,0.674-0.2.434-.321,0.636-0.258.4-.388,0.6-0.379.317-.517,0.51-0.19.448-.334,0.637-0.236.422-.386,0.6-0.239.427-.395,0.606-0.343.338-.5,0.511-0.356.323-.523,0.491-0.272.409-.444,0.571-0.523.135-.7,0.291-0.357.312-.538,0.463-0.3.385-.485,0.531-0.4.267-.584,0.408-0.332.353-.525,0.489-0.449.187-.644,0.317-0.359.32-.557,0.446-0.4.262-.6,0.382-0.368.322-.572,0.438-0.477.129-.683,0.24-0.413.245-.621,0.352-0.411.253-.62,0.353-0.527.006-.737,0.1-0.331.442-.542,0.533c-0.074.031-.107,0-0.133,0.075s0.041,0.056.08,0.126c0.1,0.17-.127.294-0.033,0.464a0.472,0.472,0,0,0,.337.167,0.128,0.128,0,0,0,.074-0.013c0.24-.042.474-0.029,0.712-0.073s0.431-.323.666-0.37,0.522,0.137.757,0.087,0.441-.243.676-0.295,0.486-.03.718-0.085,0.443-.223.675-0.281,0.463-.132.7-0.194,0.53,0.114.759,0.049,0.448-.191.676-0.259,0.389-.371.616-0.441,0.507,0.007.735-.067,0.466-.125.692-0.2,0.487-.069.712-0.15,0.349-.444.571-0.529,0.519,0.01.74-.077,0.444-.187.664-0.278,0.39-.306.608-0.4a3.694,3.694,0,0,0,.728-0.1c0.187-.1.4-0.212,0.631-0.341,0.191-.106.314-0.367,0.528-0.5,0.192-.117.319-0.351,0.526-0.489,0.19-.126.491-0.1,0.69-0.248s0.427-.212.619-0.362,0.2-.5.381-0.655,0.356-.3.535-0.46,0.54-.112.712-0.281,0.358-.314.522-0.49,0.283-.385.44-0.568,0.3-.364.452-0.552,0.221-.427.362-0.621,0.345-.338.477-0.539,0.145-.468.269-0.675,0.35-.345.463-0.556,0.179-.442.283-0.658,0.105-.471.2-0.691,0.267-.4.352-0.625,0.171-.441.246-0.668-0.019-.5.047-0.727,0.142-.444.2-0.678,0.192-.438.237-0.674-0.052-.484-0.016-0.721,0.176-.449.2-0.688,0.228-.455.245-0.695-0.077-.482-0.068-0.722,0.08-.474.08-0.716M295.9,125.363a7.171,7.171,0,0,1-.049.73c-0.024.23-.062,0.475-0.106,0.725-0.04.231-.159,0.458-0.214,0.7s-0.141.461-.2,0.7-0.08.482-.15,0.723-0.032.5-.105,0.734-0.332.4-.409,0.638-0.122.471-.2,0.7-0.141.468-.225,0.7-0.115.479-.2,0.705-0.248.427-.336,0.651-0.124.475-.214,0.7-0.305.4-.4,0.626,0.037,0.551-.056.768-0.258.428-.351,0.642c-0.1.233-.32,0.4-0.414,0.612a3.885,3.885,0,0,0-.164.521,0.545,0.545,0,0,1,.144.291c0.062,0.218.023,0.287-.125,0.367a0.512,0.512,0,0,0-.229.227c-0.089.17-.141,0.256-0.192,0.338s-0.113.179-.2,0.354a2.442,2.442,0,0,0-.155.353,2.6,2.6,0,0,1-.166.38,0.684,0.684,0,0,0-.024.442,0.359,0.359,0,0,1-.185.476,0.293,0.293,0,0,1-.381-0.182,1.52,1.52,0,0,0-.278.335c-0.113.22-.176,0.459-0.288,0.667s-0.152.474-.266,0.68-0.242.428-.359,0.63-0.224.44-.346,0.637c-0.133.215-.3,0.4-0.428,0.588-0.142.211-.344,0.362-0.482,0.546-0.153.207-.341,0.354-0.491,0.525-0.173.2-.186,0.521-0.353,0.667a2.8,2.8,0,0,1-.649.347,1.387,1.387,0,0,1-.692.09,0.778,0.778,0,0,1-.605-0.2,2.676,2.676,0,0,1-.3-0.62,4.5,4.5,0,0,1-.418-0.569c-0.08-.211-0.044-0.467-0.112-0.7s-0.289-.406-0.343-0.639-0.094-.463-0.136-0.693-0.078-.469-0.112-0.695c-0.035-.242-0.182-0.464-0.207-0.685-0.028-.252.084-0.5,0.069-0.714a3.683,3.683,0,0,1,.158-0.7c0-.235.012-0.465,0.026-0.708s0.007-.469.033-0.71-0.043-.483,0-0.723,0.04-.476.088-0.715,0.112-.465.171-0.7,0.254-.424.323-0.656,0.034-.487.111-0.717,0.087-.476.172-0.7,0.089-.482.181-0.706,0.217-.433.318-0.653,0.234-.423.342-0.64,0.13-.477.244-0.689,0.456-.3.577-0.5,0.244-.41.372-0.614,0.169-.461.3-0.661,0.3-.377.44-0.571,0.217-.438.365-0.628,0.379-.311.535-0.5,0.258-.411.42-0.59,0.318-.362.486-0.534,0.279-.406.453-0.571,0.435-.242.616-0.4,0.35-.332.537-0.482,0.354-.332.547-0.475,0.516-.1.715-0.234,0.257-.489.462-0.614,0.443-.2.654-0.318,0.4-.295.611-0.4,0.542,0.027.763-.068a0.446,0.446,0,0,1,.183-0.066,1.726,1.726,0,0,1,.289-0.179,0.848,0.848,0,0,1,.2.492,3.848,3.848,0,0,1,.325.659,6.01,6.01,0,0,1,.144.721c0.016,0.225-.049.476-0.049,0.734" style="fill:#fff"/><rect width="318.912" height="239.852" style="fill:none"/></svg>