<svg xmlns="http://www.w3.org/2000/svg" viewBox="0 0 318.912 239.852"><title>logo_1</title><path d="M127.713,44.109c0,0.242-.081.479-0.075,0.707s0.009,0.479.022,0.707-0.049.484-.026,0.709c0.023,0.241.288,0.447,0.32,0.67,0.034,0.24-.111.5-0.069,0.723,0.045,0.238.079,0.476,0.133,0.693,0.058,0.236.1,0.474,0.17,0.686,0.073,0.232.278,0.412,0.36,0.619,0.09,0.226.256,0.406,0.355,0.6,0.108,0.219.194,0.433,0.311,0.622a6.086,6.086,0,0,0,.5.492c0.148,0.2.121,0.517,0.273,0.679,0.167,0.18.313,0.376,0.478,0.525,0.209,0.182.481,0.246,0.646,0.392,0.211,0.187.409,0.33,0.563,0.475,0.207,0.2.468,0.285,0.609,0.448a5.259,5.259,0,0,1,.4.64c0.115,0.182.156,0.438,0.3,0.69,0.117,0.222.164,0.475,0.277,0.685s0.414,0.335.532,0.541,0.039,0.55.165,0.75,0.26,0.429.4,0.62a6.843,6.843,0,0,0,.437.6,5,5,0,0,0,.606.443,4.135,4.135,0,0,0,.6.437,4.215,4.215,0,0,0,.7.28,7.25,7.25,0,0,0,.771-0.135,4.987,4.987,0,0,0,.71.139,2.818,2.818,0,0,0,.684-0.114,4.1,4.1,0,0,0,.758-0.01c0.209-.09.284-0.469,0.5-0.6a7.1,7.1,0,0,0,.727-0.2c0.191-.133.357-0.318,0.554-0.475s0.477-.177.664-0.343,0.153-.535.332-0.709,0.531-.145.7-0.324,0.136-.529.3-0.712,0.477-.217.639-0.4,0.348-.337.5-0.527,0.351-.337.5-0.531,0.025-.588.174-0.785,0.343-.342.488-0.541,0.358-.337.5-0.539,0.119-.5.258-0.708,0.514-.238.65-0.444,0.311-.38.445-0.588,0.2-.433.328-0.644,0.092-.5.219-0.71,0.436-.294.562-0.506,0.275-.392.4-0.6-0.05-.584.072-0.8,0.259-.408.381-0.623,0.451-.3.57-0.509,0.069-.511.188-0.724,0.3-.382.421-0.6,0.09-.5.206-0.714,0.231-.423.346-0.638,0.3-.388.413-0.6,0.438-.317.551-0.532-0.022-.557.088-0.772a0.813,0.813,0,0,1,.091-0.114,0.754,0.754,0,0,1,.005-0.113c-0.008-.041-0.015-0.082-0.021-0.121a0.308,0.308,0,0,1-.059-0.191,0.378,0.378,0,0,1,.074-0.229,0.406,0.406,0,0,1,0-.127,0.384,0.384,0,0,1,.049-0.135,0.368,0.368,0,0,1-.016-0.133V40.847a0.319,0.319,0,0,1-.018-0.106,0.379,0.379,0,0,1,.093-0.286,0.491,0.491,0,0,1,.3-0.12h0a0.42,0.42,0,0,1,.266.1,0.391,0.391,0,0,1,.085.206,2.767,2.767,0,0,1,.152-0.535c0.107-.216.359-0.361,0.464-0.578s0.24-.421.343-0.637-0.043-.552.058-0.769,0.228-.425.328-0.643,0.451-.326.549-0.544,0.234-.426.33-0.645,0.17-.454.263-0.672,0.139-.467.23-0.686-0.082-.553.005-0.772,0.28-.406.364-0.626,0.16-.453.24-0.672,0.394-.378.47-0.6-0.14-.558-0.069-0.782,0.174-.452.238-0.676,0.422-.395.478-0.619c0.059-.243-0.034-0.515.01-0.739,0.048-.249.119-0.483,0.146-0.707a5.029,5.029,0,0,0-.121-0.722c0-.235.048-0.462,0.027-0.691s0.006-.47-0.037-0.7-0.048-.47-0.113-0.693-0.315-.377-0.4-0.594-0.142-.433-0.25-0.642-0.086-.483-0.212-0.682-0.184-.446-0.326-0.635-0.428-.254-0.583-0.432-0.266-.384-0.433-0.552-0.284-.379-0.46-0.538-0.326-.34-0.51-0.489-0.361-.3-0.552-0.44a0.327,0.327,0,0,1-.176-0.442,0.688,0.688,0,0,1,.376-0.6c0.253-.013.54,0.011,0.859,0.011,0.248,0,.5-0.014.739-0.006s0.491,0.117.731,0.133,0.489,0.035.727,0.059,0.5,0.014.734,0.047,0.466,0.193.7,0.236,0.453,0.2.686,0.251,0.531-.112.763-0.049,0.5,0.07.724,0.144,0.347,0.491.571,0.575,0.5,0.062.717,0.158,0.541,0,.756.1,0.338,0.41.547,0.528,0.483,0.142.687,0.271,0.47,0.187.666,0.327,0.361,0.343.55,0.493,0.382,0.311.562,0.472,0.259,0.438.431,0.609,0.262,0.417.424,0.6,0.279,0.39.433,0.578,0.3,0.367.448,0.562,0.3,0.374.433,0.576,0.564,0.222.688,0.43,0.119,0.5.234,0.711,0.122,0.483.227,0.7,0.41,0.35.506,0.574,0.058,0.5.144,0.731,0.1,0.482.172,0.712,0.033,0.494.1,0.728,0.315,0.415.374,0.651c0.05,0.2.171,0.388,0.239,0.586l0.332,0.166,0.312,0.411-0.308-.013-0.189-.116L170.6,32.8a1.332,1.332,0,0,0-.04.443c0.041,0.24.056,0.482,0.089,0.722s0.158,0.469.184,0.711-0.124.5-.108,0.738,0.219,0.475.227,0.716-0.129.489-.129,0.731,0.163,0.482.157,0.72-0.089.478-.1,0.716-0.034.477-.051,0.713-0.115.47-.139,0.706,0.041,0.485.012,0.72-0.129.464-.165,0.7,0.134,0.507.092,0.738-0.065.48-.114,0.712-0.2.449-.256,0.679-0.067.479-.128,0.708-0.312.408-.379,0.635,0.019,0.507-.054.731-0.255.418-.336,0.64-0.151.452-.238,0.671-0.218.425-.311,0.642,0,0.521-.1.736-0.4.341-.5,0.554-0.039.518-.152,0.727-0.21.434-.327,0.64-0.233.422-.356,0.625-0.428.3-.557,0.5-0.254.4-.388,0.6-0.262.4-.4,0.589-0.344.337-.488,0.524-0.167.476-.317,0.66-0.462.233-.616,0.413-0.295.372-.453,0.547-0.167.493-.329,0.666-0.292.384-.459,0.552-0.524.147-.694,0.311-0.144.543-.318,0.7-0.557.092-.735,0.247-0.282.4-.463,0.551-0.353.319-.536,0.467-0.383.281-.57,0.425-0.476.158-.666,0.3-0.341.338-.534,0.475-0.363.311-.559,0.444-0.309.4-.507,0.527-0.518.077-.717,0.2-0.317.4-.519,0.518-0.527.045-.731,0.163-0.366.32-.572,0.434-0.375.31-.583,0.421-0.372.322-.581,0.429-0.493.087-.7,0.19-0.479.107-.69,0.206-0.457.149-.67,0.244-0.306.5-.519,0.59c-0.074.031,0,.029-0.025,0.1s-0.051.01-.012,0.08a1.643,1.643,0,0,1,.146.456,0.153,0.153,0,0,0,.217.094c0.245-.043.493-0.109,0.736-0.153s0.549,0.243.791,0.2,0.474-.145.714-0.193,0.451-.259.691-0.309,0.452-.232.691-0.285,0.5,0.011.742-.044,0.527,0.087.765,0.03,0.453-.221.69-0.281,0.457-.194.694-0.256,0.482-.094.717-0.158,0.507-.009.742-0.076,0.42-.307.653-0.376,0.485-.092.719-0.165,0.493-.07.725-0.145,0.4-.365.627-0.443,0.506-.034.736-0.114,0.523,0,.752-0.079,0.435-.24.664-0.326,0.458-.175.684-0.264,0.344-.456.569-0.548,0.469-.139.694-0.234,0.445-.2.667-0.292a4.333,4.333,0,0,0,.748-0.085c0.193-.095.456-0.126,0.692-0.253,0.2-.106.317-0.393,0.539-0.522,0.2-.115.36-0.315,0.576-0.449,0.2-.123.368-0.3,0.577-0.44s0.541-.049.745-0.192,0.369-.312.568-0.462,0.227-.489.421-0.643a1.029,1.029,0,0,1,.111-0.068l-0.829-1.028a0.111,0.111,0,0,1,.016.007,0.576,0.576,0,0,0,.1.047,0.47,0.47,0,0,1,.112.048,0.232,0.232,0,0,1,.091.094,0.2,0.2,0,0,0,.081.082l0.1,0.062c0.025,0.016.049,0.032,0.1,0.062a0.463,0.463,0,0,1,.1.072,0.511,0.511,0,0,0,.094.068c0.051,0.029.077,0.042,0.106,0.056s0.053,0.026.1,0.055a0.337,0.337,0,0,0,.108.042,0.4,0.4,0,0,1,.115.046,0.213,0.213,0,0,1,.027.022,0.85,0.85,0,0,0,.081-0.051c0.182-.154.344-0.331,0.527-0.5s0.427-.242.6-0.411,0.417-.263.59-0.438,0.315-.368.481-0.548,0.256-.419.416-0.6,0.417-.282.572-0.472,0.091-.542.241-0.738,0.477-.247.62-0.447,0.269-.4.4-0.607,0.3-.383.432-0.591,0.134-.482.255-0.695,0.192-.442.3-0.659,0.15-.46.255-0.68,0.41-.342.508-0.566,0.19-.447.28-0.674,0.082-.486.164-0.716,0.341-.4.415-0.631-0.048-.521.018-0.757,0-.5.061-0.735,0.137-.459.188-0.7,0.1-.469.146-0.711,0.162-.462.2-0.705,0.062-.479.091-0.724,0.029-.482.05-0.728,0.069-.48.082-0.726,0.15-.478.157-0.723-0.069-.484-0.069-0.73,0.012-.487.005-0.727-0.094-.482-0.109-0.722-0.049-.479-0.071-0.717,0.053-.494.023-0.732,0.063-.5.024-0.739-0.3-.438-0.349-0.673-0.135-.463-0.191-0.7,0.1-.525.035-0.756-0.274-.427-0.346-0.656-0.3-.4-0.384-0.63,0.154-.574.065-0.8-0.364-.374-0.459-0.594-0.091-.49-0.2-0.706-0.141-.475-0.254-0.688-0.439-.31-0.56-0.519-0.245-.413-0.373-0.617-0.1-.512-0.238-0.711-0.307-.378-0.45-0.572-0.328-.359-0.478-0.548-0.316-.367-0.472-0.551-0.239-.435-0.4-0.613-0.454-.237-0.623-0.41-0.429-.247-0.6-0.414-0.108-.593-0.288-0.754-0.6-.05-0.78-0.206-0.3-.384-0.494-0.534-0.345-.342-0.539-0.485-0.434-.221-0.632-0.358-0.407-.256-0.61-0.387-0.378-.3-0.584-0.427-0.459-.166-0.669-0.285-0.358-.345-0.571-0.459-0.355-.368-0.571-0.475-0.557.045-.776-0.057-0.341-.418-0.563-0.513-0.444-.194-0.669-0.284-0.419-.265-0.646-0.349-0.524.029-.753-0.048-0.482-.076-0.712-0.148-0.381-.415-0.614-0.481-0.493-.041-0.726-0.1-0.515.073-.75,0.019-0.456-.166-0.693-0.214-0.494.023-.731-0.019-0.449-.23-0.688-0.266-0.47-.128-0.709-0.158-0.505.177-.745,0.153-0.458-.279-0.7-0.3-0.493.142-.733,0.129S156.944,17,156.7,16.994s-0.485.235-.727,0.235-0.48.007-.721,0.013-0.478.068-.719,0.079-0.48-.009-0.72.009-0.5-.215-0.743-0.192-0.46.233-.7,0.262-0.488-.016-0.726.019-0.477.073-.714,0.114-0.451.207-.687,0.254-0.5-.049-0.738,0-0.441.226-.675,0.285-0.535-.134-0.767-0.07-0.4.355-.631,0.425-0.446.182-.675,0.257-0.548-.11-0.775-0.028-0.366.4-.59,0.487-0.441.192-.663,0.285-0.536-.022-0.756.076-0.471.142-.688,0.246-0.282.52-.5,0.629-0.5.077-.715,0.192-0.4.279-.6,0.4-0.364.327-.569,0.453-0.431.216-.633,0.346-0.351.338-.55,0.474-0.6-.021-0.8.119-0.2.542-.391,0.688-0.537.1-.725,0.246-0.249.457-.433,0.613-0.385.288-.565,0.448-0.405.27-.581,0.435-0.262.42-.434,0.59-0.349.329-.516,0.5-0.363.318-.525,0.5-0.346.336-.5,0.518-0.212.45-.365,0.636-0.511.207-.66,0.4-0.212.446-.356,0.64-0.307.373-.445,0.571-0.4.315-.532,0.517,0.015,0.582-.112.787-0.506.258-.627,0.466-0.184.455-.3,0.666-0.26.411-.37,0.625-0.023.527-.127,0.745-0.288.4-.386,0.617-0.309.394-.4,0.617,0.006,0.522-.08.748-0.09.477-.169,0.705-0.17.446-.243,0.677-0.123.462-.189,0.694-0.35.4-.41,0.637-0.053.484-.107,0.72-0.183.455-.23,0.692,0.064,0.5.024,0.741-0.11.469-.143,0.709-0.011.482-.038,0.722-0.144.468-.164,0.709,0.071,0.486.058,0.728-0.273.471-.28,0.713,0.117,0.485.117,0.727m6.766-3.123c0.029-.235.272-0.444,0.31-0.682s-0.116-.507-0.07-0.744,0.073-.477.126-0.712,0.1-.471.161-0.7,0.324-.408.391-0.639,0.127-.46.2-0.689,0.138-.457.219-0.685,0.234-.422.319-0.647,0.026-.5.118-0.728,0.378-.357.475-0.577,0.178-.44.281-0.658,0.021-.521.13-0.735,0.172-.454.286-0.664,0.462-.291.582-0.5-0.013-.564.111-0.77,0.512-.245.642-0.447,0.164-.463.3-0.661,0.255-.406.395-0.6,0.3-.375.442-0.567,0.418-.278.567-0.465,0.244-.415.4-0.6,0.275-.392.435-0.571,0.205-.462.37-0.636,0.486-.195.655-0.364,0.222-.458.4-0.622,0.5-.155.683-0.314,0.3-.386.478-0.539,0.311-.375.5-0.523,0.313-.384.506-0.525,0.473-.163.67-0.3,0.457-.173.659-0.3,0.431-.2.638-0.322,0.251-.528.461-0.643,0.4-.278.617-0.384,0.446-.193.664-0.292,0.464-.148.686-0.238a2.393,2.393,0,0,1,.261.262,0.622,0.622,0,0,1,.622.1,5.5,5.5,0,0,1,.237.78,8.1,8.1,0,0,1,.01.816c0.037,0.25-.03.514-0.013,0.8,0.015,0.253.2,0.511,0.2,0.795,0,0.224-.07.459-0.092,0.712-0.019.227-.118,0.452-0.154,0.7-0.034.23-.113,0.455-0.159,0.7-0.044.229-.1,0.459-0.155,0.7s-0.07.469-.131,0.709,0.166,0.537.1,0.774-0.158.454-.228,0.689-0.121.467-.193,0.7-0.238.43-.314,0.663-0.15.459-.229,0.691-0.118.472-.2,0.7-0.276.416-.36,0.646-0.269.416-.355,0.645,0.045,0.536-.042.763-0.113.478-.2,0.705-0.509.318-.6,0.543-0.068.495-.16,0.719,0.021,0.534-.073.756-0.382.363-.477,0.585-0.081.49-.177,0.71-0.1.484-.2,0.7-0.255.416-.354,0.634-0.2.441-.3,0.658-0.338.376-.439,0.592-0.305.388-.409,0.6-0.253.409-.357,0.623-0.2.434-.306,0.647-0.188.438-.293,0.648,0.1,0.587-.007.8-0.348.359-.457,0.568-0.321.368-.431,0.575-0.03.53-.143,0.736-0.354.353-.47,0.557-0.305.377-.424,0.578-0.348.347-.471,0.544-0.1.507-.224,0.7-0.173.468-.308,0.655-0.442.273-.584,0.453-0.32.356-.471,0.524c-0.167.185-.262,0.419-0.427,0.571a4.312,4.312,0,0,1-.653.307,3.914,3.914,0,0,1-.526.5,1.894,1.894,0,0,1-.708,0,1.152,1.152,0,0,1-.706-0.073,2.512,2.512,0,0,1-.457-0.573,4.536,4.536,0,0,1-.366-0.622c-0.1-.207-0.129-0.456-0.22-0.693-0.085-.22-0.249-0.417-0.324-0.656s-0.071-.477-0.133-0.716-0.321-.422-0.373-0.661-0.123-.475-0.166-0.713,0.019-.5-0.016-0.735-0.118-.477-0.146-0.71,0.137-.509.116-0.74c-0.023-.252-0.207-0.481-0.22-0.707-0.014-.265.087-0.513,0.087-0.728,0-.236-0.009-0.474,0-0.715s0.069-.47.089-0.71-0.161-.5-0.132-0.737" style="fill:#fff"/><rect width="318.912" height="239.852" style="fill:none"/></svg>