<svg xmlns="http://www.w3.org/2000/svg" viewBox="0 0 318.912 239.852"><title>logo_8</title><path d="M235.475,170.284a3.344,3.344,0,0,0,.282-0.732,3.928,3.928,0,0,0-.205-0.777,5.692,5.692,0,0,0,.2-0.708,3.907,3.907,0,0,0-.132-0.708,3.64,3.64,0,0,0-.365-0.623,4.6,4.6,0,0,0-.632-0.381,4.283,4.283,0,0,0-.388-0.6,5.072,5.072,0,0,0-.575-0.406,6.391,6.391,0,0,0-.619-0.342c-0.208-.085-0.433-0.182-0.662-0.253s-0.471-.039-0.706-0.093c-0.219-.05-0.48.078-0.716,0.039s-0.436-.163-0.673-0.191-0.461.039-.7,0.023-0.447-.271-0.686-0.28-0.465-.052-0.7-0.052-0.484.279-.705,0.283c-0.246,0-.483-0.2-0.711-0.187s-0.457.129-.7,0.147c-0.221.015-.458-0.029-0.709-0.007-0.22.02-.436,0.23-0.692,0.257-0.217.021-.478-0.218-0.731-0.192a0.557,0.557,0,0,0-.356.369,0.539,0.539,0,0,0,.266.427c0.232,0.082.475,0.111,0.692,0.188s0.537-.056.753,0.026,0.387,0.333.6,0.423,0.468,0.125.681,0.227,0.385,0.293.594,0.408,0.347,0.329.551,0.461,0.4,0.237.593,0.384,0.525,0.1.713,0.256,0.231,0.445.41,0.618,0.279,0.378.45,0.559c0.189,0.2.578,0.185,0.744,0.359,0.191,0.2.163,0.583,0.329,0.751,0.2,0.2.541,0.2,0.71,0.361,0.207,0.193.252,0.531,0.434,0.668a2.715,2.715,0,0,0,.77.172,1.97,1.97,0,0,0,.693.305,1.734,1.734,0,0,0,.761-0.124,2.39,2.39,0,0,0,.542-0.54,3.018,3.018,0,0,0,.589-0.516m-4.408,1.929a3.382,3.382,0,0,0-.208-0.714,3.72,3.72,0,0,0-.35-0.666,4.52,4.52,0,0,0-.495-0.57,5.791,5.791,0,0,0-.639-0.4c-0.194-.135-0.49-0.111-0.713-0.231a7.169,7.169,0,0,0-.612-0.4c-0.219-.093-0.473-0.1-0.712-0.177s-0.391-.379-0.634-0.443-0.469-.16-0.715-0.21-0.525.181-.772,0.143-0.452-.273-0.7-0.3-0.494.058-.743,0.041-0.483-.094-0.733-0.1-0.489.177-.739,0.177-0.489-.261-0.73-0.253-0.488.035-.728,0.051a0.543,0.543,0,0,0-.369.323,0.487,0.487,0,0,0,.239.393c0.065,0.033.168-.178,0.234-0.147,0.194,0.1.336,0.357,0.578,0.486,0.2,0.105.445,0.167,0.676,0.309,0.193,0.119.349,0.332,0.566,0.485,0.19,0.133.317,0.367,0.526,0.531,0.183,0.144.385,0.279,0.585,0.451,0.177,0.153.528,0.133,0.717,0.311,0.173,0.161.228,0.464,0.412,0.648,0.168,0.169.285,0.4,0.462,0.585,0.164,0.173.547,0.159,0.718,0.35s0.108,0.553.274,0.748c0.188,0.221.538,0.261,0.691,0.436,0.2,0.224.2,0.567,0.356,0.723a2.242,2.242,0,0,0,.74.294,1.351,1.351,0,0,0,.669.342,2.014,2.014,0,0,0,.657-0.309,2.4,2.4,0,0,0,.746-0.146,2.552,2.552,0,0,0,.537-0.551,2.837,2.837,0,0,0,.256-0.724,3.635,3.635,0,0,0-.164-0.751,3.785,3.785,0,0,0,.117-0.736m2.319,13.958c-0.047-.224-0.054-0.465-0.117-0.705-0.057-.223-0.027-0.482-0.1-0.717s-0.2-.431-0.286-0.661-0.053-.489-0.145-0.714-0.349-.367-0.45-0.587-0.272-.391-0.382-0.607-0.1-.484-0.214-0.695-0.255-.4-0.383-0.606-0.284-.379-0.421-0.578-0.125-.5-0.27-0.688-0.458-.245-0.611-0.432-0.2-.45-0.366-0.631-0.461-.217-0.631-0.389-0.208-.462-0.385-0.627-0.394-.273-0.577-0.43-0.378-.284-0.569-0.434-0.366-.3-0.563-0.439-0.4-.255-0.6-0.387-0.3-.419-0.508-0.542-0.5-.078-0.715-0.192-0.325-.413-0.541-0.519-0.445-.185-0.666-0.282-0.448-.175-0.673-0.264-0.478-.088-0.707-0.169-0.454-.145-0.686-0.217-0.463-.115-0.7-0.18-0.42-.293-0.656-0.35-0.483-.055-0.721-0.105-0.469-.113-0.709-0.155-0.5.092-.742,0.057-0.474-.067-0.716-0.1-0.475.005-.716-0.016c-0.119,0-.171,0-0.212.109a0.4,0.4,0,0,0-.01.41c0.209,0.143.4,0.305,0.6,0.444s0.51,0.142.708,0.282,0.446,0.233.643,0.375,0.267,0.48.462,0.623,0.4,0.29.592,0.437,0.388,0.307.576,0.46,0.443,0.24.625,0.4,0.334,0.367.511,0.533,0.436,0.264.605,0.438,0.212,0.473.371,0.659,0.316,0.367.464,0.562,0.539,0.226.674,0.433,0.037,0.554.156,0.771,0.173,0.453.277,0.68,0.231,0.4.316,0.607,0.416,0.338.492,0.546-0.032.5,0.034,0.712c0.072,0.229.1,0.455,0.158,0.662,0.065,0.237.074,0.465,0.119,0.669,0.057,0.253.081,0.474,0.113,0.665,0.057,0.352.169,0.567,0.169,0.653a0.979,0.979,0,0,1-.147.764,2.65,2.65,0,0,1-.725.317,5.2,5.2,0,0,1-.7.318c-0.218.06-.521-0.117-0.8-0.057-0.228.049-.481,0.057-0.752,0.108-0.234.044-.435,0.361-0.7,0.407-0.236.041-.52-0.122-0.785-0.08-0.238.038-.472,0.183-0.735,0.223a0.328,0.328,0,0,0-.3.312c0.025,0.212.213,0.19,0.238,0.4,0.016,0.123-.042.371,0.081,0.392,0.227,0.038.456,0.063,0.684,0.1s0.452,0.083.68,0.127,0.46,0.039.686,0.091,0.508-.12.731-0.059,0.4,0.295.617,0.369,0.461,0.091.675,0.18,0.383,0.269.591,0.375,0.343,0.311.541,0.435c0.112,0.07.224,0.136,0.334,0.2l0.844-.316-0.012.013a0.471,0.471,0,0,0-.077.086,0.511,0.511,0,0,1-.082.09,0.23,0.23,0,0,1-.117.057,0.194,0.194,0,0,0-.1.05c-0.043.039-.067,0.058-0.09,0.076s-0.046.036-.09,0.075c-0.017.015-.025,0.017-0.037,0.027l0.006,0a7.36,7.36,0,0,1,.692.253c0.168,0.153.207,0.445,0.368,0.62s0.24,0.385.387,0.573c0.048,0.062.28-.115,0.328-0.053,0.164,0.215.091,0.587,0.233,0.766a6.242,6.242,0,0,0,.662.408,5.649,5.649,0,0,0,.4.664,2.372,2.372,0,0,0,.764.091,2.505,2.505,0,0,0,.7.251,3.294,3.294,0,0,0,.729.027,2.743,2.743,0,0,0,.647-0.336,3,3,0,0,0,.555-0.449,3.917,3.917,0,0,0,.358-0.609,4.594,4.594,0,0,0,.455-0.542,5.679,5.679,0,0,0,.371-0.618c0.075-.216-0.156-0.528-0.1-0.758s0.186-.428.221-0.661-0.032-.464-0.016-0.7,0.174-.455.174-0.689a5.958,5.958,0,0,0,.142-0.722c-0.02-.221-0.086-0.462-0.125-0.712-0.035-.224-0.275-0.426-0.326-0.67M216.8,184.856c0.01-.241-0.243-0.49-0.237-0.727s0.225-.481.225-0.719a0.643,0.643,0,0,0-.03-0.183,0.458,0.458,0,0,1-.068.014h0a0.494,0.494,0,0,1-.3-0.12,0.379,0.379,0,0,1-.092-0.286,0.341,0.341,0,0,1,.017-0.106V182.7a0.367,0.367,0,0,1,.017-0.133,0.384,0.384,0,0,1-.05-0.135,0.406,0.406,0,0,1,0-.127,0.378,0.378,0,0,1-.073-0.229,0.308,0.308,0,0,1,.059-0.191c0.005-.04.013-0.08,0.02-0.121a0.457,0.457,0,0,1-.008-0.2,0.259,0.259,0,0,1,.042-0.11c0-.015-0.01-0.091-0.01-0.107a0.436,0.436,0,0,1,.237-0.386,1.789,1.789,0,0,0,.029-0.479c-0.037-.249-0.249-0.458-0.3-0.688-0.052-.248-0.13-0.47-0.193-0.7-0.068-.242-0.045-0.5-0.126-0.718-0.087-.236-0.1-0.5-0.2-0.709a6.055,6.055,0,0,0-.5-0.555,7.436,7.436,0,0,0-.234-0.738,5.8,5.8,0,0,0-.734-0.3,4.821,4.821,0,0,0-.568-0.421,5.848,5.848,0,0,0-.528-0.528,7.262,7.262,0,0,0-.744-0.1c-0.226-.08-0.435-0.188-0.676-0.248s-0.419-.348-0.665-0.39-0.491,0-.738-0.029-0.485-.034-0.733-0.051-0.482-.126-0.731-0.134a0.513,0.513,0,0,1-.495-0.134,0.638,0.638,0,0,1-.036-0.583c0.12-.229.353-0.393,0.472-0.613s0.095-.537.215-0.751c0.129-.231.413-0.36,0.532-0.565,0.14-.239.255-0.465,0.373-0.654,0.173-.279.279-0.517,0.383-0.651,0.067-.093.086-0.081,0.152-0.175,0.154-.217.261-0.438,0.386-0.623a5.545,5.545,0,0,0,.273-0.677,5.511,5.511,0,0,1,.566-1.349,2.765,2.765,0,0,0-.234-0.7,3.833,3.833,0,0,0-.35-0.615,4.648,4.648,0,0,0-.215-0.713,6.292,6.292,0,0,0-.443-0.581c-0.159-.169-0.361-0.325-0.545-0.486s-0.5-.134-0.7-0.278-0.373-.28-0.577-0.407-0.353-.338-0.566-0.449-0.48-.087-0.7-0.178-0.433-.178-0.66-0.25-0.426-.237-0.657-0.288-0.454-.234-0.689-0.26a7.106,7.106,0,0,0-.73.2c-0.243,0-.478-0.112-0.7-0.093a6.329,6.329,0,0,0-.66.274c-0.236.043-.485-0.041-0.7,0.022-0.232.069-.5,0.023-0.7,0.109a6.383,6.383,0,0,0-.636.31,6.589,6.589,0,0,0-.592.381,5.652,5.652,0,0,0-.449.548c-0.2.174-.455,0.245-0.593,0.38a0.757,0.757,0,0,0,.122.333,0.482,0.482,0,0,0,.141.366c0.244,0.055.515-.066,0.73-0.015,0.246,0.058.5,0.028,0.708,0.083,0.245,0.063.421,0.3,0.624,0.36a6.3,6.3,0,0,1,.655.229,2.379,2.379,0,0,1,.575.365,1.417,1.417,0,0,1,.432.516,0.214,0.214,0,0,1,.007.027l0.075-.033,0.2-.064,0.188-.115,0.308-.013-0.312.411-0.364.182-0.005,0c0.013,0.086.025,0.173,0.037,0.271a4.374,4.374,0,0,1,.19.691,6.567,6.567,0,0,1-.046.7c-0.025.22-.019,0.463-0.062,0.7-0.04.223-.216,0.428-0.27,0.664s-0.061.461-.122,0.693-0.046.474-.114,0.7-0.142.445-.214,0.671-0.2.427-.275,0.649-0.058.476-.136,0.7-0.149.445-.228,0.664-0.439.339-.519,0.555a0.6,0.6,0,0,1-.256.482c-0.207.045-.447,0.14-0.724,0.2-0.229.051-.491,0.039-0.753,0.1-0.237.052-.461,0.219-0.716,0.277s-0.505.044-.754,0.1-0.5.094-.741,0.149-0.543-.09-0.782-0.035c-0.256.057-.458,0.308-0.69,0.361-0.267.061-.563-0.095-0.783-0.044-0.305.07-.547,0.176-0.719,0.217-0.134.032-.367,0.133-0.668,0.193-0.208.042-.429,0.16-0.674,0.2-0.228.037-.468,0.041-0.7,0.066s-0.482.069-.695,0.069a3.2,3.2,0,0,1-.758,0,1.819,1.819,0,0,1-.672-0.375,2.374,2.374,0,0,1-.512-0.567c-0.117-.185-0.034-0.5-0.142-0.76a5.941,5.941,0,0,1-.321-0.666c-0.068-.22-0.183-0.446-0.245-0.709a0.4,0.4,0,0,0-.254-0.313,0.7,0.7,0,0,0-.321.169c-0.145.137-.282,0.32-0.446,0.5a1.932,1.932,0,0,0-.779,1.1,4.731,4.731,0,0,0-.247.632c-0.066.2,0.042,0.452,0,.687a5.512,5.512,0,0,0-.375.626c-0.019.212-.027,0.449-0.027,0.686a6.81,6.81,0,0,0,.146.753,7.235,7.235,0,0,0,.068.758,7.523,7.523,0,0,0,.165.745,65.614,65.614,0,0,0,.721,1.339,7.155,7.155,0,0,0,.433.618,6.4,6.4,0,0,0,.515.547,6.8,6.8,0,0,0,.466.614,4.916,4.916,0,0,0,.751.238,4.658,4.658,0,0,0,.6.515,2.731,2.731,0,0,0,.781.12,2.808,2.808,0,0,0,.792-0.206c0.039-.011.073-0.035,0.112-0.048a0.327,0.327,0,0,1,.079-0.126c0.014-.037.031-0.075,0.046-0.113a0.445,0.445,0,0,1,.038-0.2,0.255,0.255,0,0,1,.065-0.1c0-.015.01-0.09,0.014-0.106a0.437,0.437,0,0,1,.519-0.335l0.034,0.009a0.406,0.406,0,0,1,.231.193,0.644,0.644,0,0,1,.111-0.121c0.206-.161.443-0.279,0.643-0.449,0.17-.138.433-0.174,0.629-0.313,0.179-.127.315-0.336,0.516-0.464s0.455-.121.661-0.24,0.385-.238.6-0.349,0.4-.215.611-0.32,0.441-.131.655-0.23,0.38-.26.594-0.355a0.734,0.734,0,0,1,.205-0.143,0.593,0.593,0,0,1,.347.262,0.509,0.509,0,0,1,.174.579c-0.094.21-.315,0.367-0.414,0.583s0.052,0.535-.048.751-0.4.333-.5,0.549-0.272.386-.377,0.6-0.053.495-.16,0.71-0.239.407-.349,0.622-0.2.431-.312,0.645-0.322.36-.437,0.571-0.224.412-.341,0.622-0.255.4-.374,0.606-0.15.458-.272,0.667-0.182.444-.306,0.652-0.364.335-.491,0.542-0.046.526-.174,0.729-0.354.334-.484,0.536-0.26.395-.393,0.6-0.171.455-.3,0.654-0.242.411-.377,0.61-0.412.292-.551,0.489-0.164.466-.3,0.662-0.326.353-.469,0.548-0.176.462-.32,0.656-0.3.374-.445,0.567-0.362.365-.5,0.554c-0.157.209-.43,0.316-0.568,0.505-0.155.211-.1,0.549-0.239,0.737-0.153.216-.483,0.286-0.611,0.476-0.15.224-.209,0.48-0.327,0.672-0.146.234-.227,0.468-0.33,0.661-0.134.25-.3,0.439-0.373,0.639a3.384,3.384,0,0,0-.189.714,4.435,4.435,0,0,0,0,.738,3.22,3.22,0,0,1,.146.665c0.022,0.2.064,0.419,0.111,0.67a6.9,6.9,0,0,0-.064.722c0.061,0.219.278,0.392,0.365,0.61a4.681,4.681,0,0,0,.283.619,3.506,3.506,0,0,0,.36.578,2.717,2.717,0,0,0,.457.53,2.433,2.433,0,0,0,.679.172,2.487,2.487,0,0,0,.666.3,2.678,2.678,0,0,0,.687-0.093,2.932,2.932,0,0,0,.582-0.365,3.271,3.271,0,0,0,.567-0.358,6.136,6.136,0,0,0,.286-0.627c0.124-.166.235-0.361,0.376-0.574,0.12-.18.432-0.257,0.564-0.471,0.115-.189.1-0.471,0.226-0.685,0.113-.193.188-0.42,0.308-0.634,0.111-.2.428-0.289,0.545-0.5s-0.005-.527.109-0.741,0.306-.362.418-0.577,0.138-.45.248-0.665,0.434-.3.542-0.516,0.184-.428.291-0.643,0.259-.391.365-0.606-0.045-.541.06-0.755,0.437-.307.542-0.523,0.233-.407.337-0.623,0.138-.454.241-0.671c0.081-.175.157-0.408,0.276-0.669,0.093-.2.081-0.474,0.193-0.718,0.1-.207.3-0.378,0.411-0.613,0.1-.212.295-0.39,0.4-0.623,0.1-.215-0.082-0.565.023-0.795s0.283-.4.386-0.627,0.117-.478.219-0.7,0.338-.381.441-0.607,0.361-.372.464-0.6,0.167-.461.27-0.686,0.019-.53.12-0.754,0.246-.427.348-0.652,0.293-.4.394-0.628,0.145-.47.245-0.693,0.311-.394.411-0.615,0.036-.518.135-0.738,0.129-.479.229-0.7,0.329-.387.428-0.606,0.182-.455.281-0.673,0.169-.461.266-0.677,0.369-.375.465-0.591,0.008-.539.105-0.753c0.1-.231.326-0.4,0.422-0.608,0.124-.274-0.053-0.354.071-0.63s0.287-.2.412-0.475,0.065-.3.19-0.575a0.663,0.663,0,0,1,.459-0.373c0.28-.04.552-0.061,0.827-0.088s0.539-.06.832-0.06c0.236,0,.456.2,0.673,0.21a5.626,5.626,0,0,1,.694-0.092,2.311,2.311,0,0,1,.542.432,1.448,1.448,0,0,1,.481.392,2,2,0,0,1,.319.557,3.3,3.3,0,0,1,.258.622,5.852,5.852,0,0,1,.092.679c0.015,0.211.048,0.437,0.048,0.681s-0.178.473-.183,0.717,0.041,0.476.03,0.719-0.043.478-.058,0.724,0.144,0.49.124,0.732-0.041.48-.064,0.723,0.01,0.487-.017.729-0.1.477-.13,0.718-0.23.456-.264,0.7-0.1.473-.132,0.711,0.094,0.505.053,0.742-0.019.489-.063,0.725-0.319.43-.367,0.664-0.091.472-.143,0.705-0.11.467-.167,0.7-0.023.492-.084,0.724-0.177.452-.244,0.681-0.029.5-.1,0.724-0.312.408-.389,0.632-0.154.457-.239,0.677,0.1,0.569.008,0.784-0.438.339-.542,0.547c-0.112.224-.273,0.4-0.39,0.6-0.13.22-.216,0.436-0.352,0.619a7.523,7.523,0,0,1-.278.718,0.754,0.754,0,0,1-.331.164,0.655,0.655,0,0,1-.075.1,1.213,1.213,0,0,1-.082.107,0.408,0.408,0,0,1-.165.225,0.421,0.421,0,0,1-.284.023h0a0.5,0.5,0,0,1-.254-0.2l0-.01c-0.059.005-.115,0.013-0.176,0.013a2.54,2.54,0,0,1-.621-0.169c-0.184-.056-0.379-0.145-0.619-0.242-0.19-.076-0.43-0.079-0.657-0.18-0.193-.087-0.474-0.024-0.7-0.13-0.192-.092-0.355-0.278-0.57-0.384-0.194-.1-0.436-0.122-0.649-0.232-0.194-.1-0.285-0.419-0.5-0.529-0.194-.1-0.375-0.244-0.584-0.354-0.194-.1-0.524.035-0.731-0.076-0.224-.12-0.126-0.3-0.35-0.421a0.566,0.566,0,0,0-.181.06,0.365,0.365,0,0,0-.243.038c-0.153.158-.017,0.29-0.171,0.447-0.1.106-.3,0.264-0.209,0.376,0.171,0.2.341,0.382,0.495,0.57,0.166,0.2.318,0.4,0.464,0.591,0.16,0.209.349,0.375,0.486,0.569,0.153,0.216.488,0.294,0.616,0.493,0.144,0.226.127,0.533,0.242,0.738,0.131,0.234.306,0.427,0.4,0.638a6.193,6.193,0,0,1,.194.728,5.3,5.3,0,0,1,.092.735,7.164,7.164,0,0,1,.142.722c0.029,0.255.292,0.477,0.308,0.72s-0.139.5-.112,0.721c0.029,0.25-.009.5,0.029,0.716a5.944,5.944,0,0,0,.436.615c0.068,0.248-.129.558-0.047,0.753a2.78,2.78,0,0,0,.54.5,2.942,2.942,0,0,0,.325.658,2.017,2.017,0,0,0,.73.067,2.967,2.967,0,0,0,.663.24,5.263,5.263,0,0,0,.751-0.075,6.139,6.139,0,0,0,.758-0.076c0.237-.067.4-0.377,0.634-0.472a7.462,7.462,0,0,0,.727-0.2c0.22-.114.417-0.268,0.633-0.4s0.546-.094.75-0.248,0.307-.425.5-0.593,0.388-.319.567-0.5,0.288-.414.455-0.606c0.146-.173.3-0.355,0.441-0.561,0.134-.186.28-0.375,0.412-0.586s0.162-.451.283-0.667,0.313-.369.425-0.588,0.238-.414.342-0.638,0.036-.5.134-0.73,0.4-.348.49-0.575,0.242-.421.329-0.649,0.073-.486.155-0.717,0.034-.5.112-0.729,0.379-.383.453-0.617-0.047-.521.023-0.755,0.11-.471.177-0.706,0.067-.482.13-0.717,0.134-.464.194-0.7,0.428-.393.485-0.629-0.186-.541-0.132-0.779,0.271-.434.321-0.671,0.109-.471.154-0.709,0.148-.463.191-0.7,0.071-.478.111-0.716-0.01-.491.027-0.729,0.231-.455.263-0.693-0.078-.5-0.049-0.736,0.142-.47.167-0.708-0.2-.5-0.177-0.74,0.128-.472.144-0.709,0.227-.47.239-0.706" style="fill:#fff"/><rect width="318.912" height="239.852" style="fill:none"/></svg>