<svg xmlns="http://www.w3.org/2000/svg" viewBox="0 0 318.912 239.852"><title>logo_2</title><path d="M124.327,68.81c-0.24-.019-0.467-0.2-0.708-0.22s-0.474-.1-0.713-0.118-0.48-.032-0.719-0.055a0.408,0.408,0,0,0-.29.118,0.4,0.4,0,0,0-.015.34c0.125,0.319.228,0.279,0.35,0.6s0.144,0.311.267,0.631a1.508,1.508,0,0,1,.093.357l0.289,0.151,0.131,0.078,0.364,0.183,0.312,0.411-0.308-.014-0.188-.115-0.2-.064-0.1-.043-0.042-.014a0.774,0.774,0,0,1,.216.316c0.121,0.316.013,0.357,0.135,0.674s0.183,0.294.305,0.611-0.061.388,0.063,0.7a0.418,0.418,0,0,0,.36.182,0.2,0.2,0,0,0,.022.008c0.242-.039.491,0.005,0.727-0.032s0.455-.179.693-0.213,0.475-.068.719-0.1,0.456-.207.7-0.234,0.5,0.212.748,0.189c0.232-.021.468-0.078,0.719-0.1,0.232-.017.46-0.2,0.711-0.213,0.232-.014.485,0.189,0.736,0.177,0.234-.011.474-0.012,0.726-0.022,0.234-.009.47-0.188,0.721-0.195,0.234-.007.477,0.092,0.727,0.087s0.474-.188.724-0.192,0.48,0.234.73,0.231,0.476-.261.726-0.262,0.479,0.2.728,0.2c0.363,0,.363-0.123.726-0.123s0.363,0.031.727,0.031,0.362,0.127.724,0.127,0.361-.024.723-0.024,0.36-.2.72-0.2h0.72c0.361,0,.361.217,0.721,0.217s0.361-.024.723-0.024,0.359,0.027.72,0.027,0.36-.3.72-0.3,0.36,0.229.721,0.229,0.359-.221.718-0.221,0.359,0.157.718,0.157,0.359,0.123.718,0.123,0.36,0.038.72,0.038,0.359-.121.719-0.121,0.357,0.065.715,0.065,0.356-.135.713-0.135,0.357-.075.713-0.075,0.359,0.254.718,0.254,0.359-.012.718-0.012h0.718c0.36,0,.36-0.21.72-0.21l0.718,0c0.359,0,.359.073,0.717,0.073s0.359,0.145.717,0.145,0.358,0.013.717,0.013,0.359-.312.717-0.312,0.359,0.208.718,0.208,0.36-.2.719-0.2,0.359,0.01.718,0.01,0.358,0.272.717,0.272,0.358-.11.715-0.11,0.358-.083.716-0.083,0.357,0.06.715,0.06,0.358-.1.715-0.1,0.357-.009.716-0.009,0.357,0.191.716,0.191a0.392,0.392,0,0,1,.38.282,0.694,0.694,0,0,1,.207.592c-0.133.2-.326,0.375-0.467,0.582s-0.436.3-.581,0.5-0.076.557-.226,0.762-0.41.312-.561,0.512-0.174.494-.328,0.692-0.486.251-.643,0.448-0.2.477-.362,0.672-0.357.354-.518,0.546-0.259.438-.422,0.628a1.1,1.1,0,0,1-.349.23,0.263,0.263,0,0,1-.029.186,0.273,0.273,0,0,1,.093.205,0.266,0.266,0,0,1-.051.152,0.272,0.272,0,0,1,0,.133,0.237,0.237,0,0,1-.05.1,0.348,0.348,0,0,1-.041.1,0.66,0.66,0,0,1-.036.093,0.306,0.306,0,0,1-.072.194,0.323,0.323,0,0,1-.2.075h0a0.374,0.374,0,0,1-.225-0.089,0.278,0.278,0,0,1-.07-0.211,0.256,0.256,0,0,1,.013-0.079V80.114a0.251,0.251,0,0,1,.012-0.1,0.294,0.294,0,0,1-.029-0.079c-0.031.036-.061,0.073-0.093,0.109a0.369,0.369,0,0,1-.358.077,0.829,0.829,0,0,1-.4.117c-0.184-.142-0.289-0.4-0.49-0.534s-0.479-.114-0.69-0.242c-0.2-.119-0.374-0.277-0.593-0.395-0.2-.109-0.329-0.384-0.553-0.493-0.206-.1-0.44-0.173-0.669-0.274-0.21-.092-0.465-0.1-0.7-0.2-0.213-.086-0.4-0.273-0.631-0.36-0.216-.081-0.488-0.038-0.722-0.121-0.218-.077-0.48-0.048-0.715-0.127s-0.384-.341-0.619-0.416-0.483-.033-0.719-0.1-0.429-.216-0.666-0.285-0.477-.053-0.714-0.12-0.449-.151-0.686-0.217-0.488-.009-0.725-0.073-0.445-.169-0.682-0.231-0.4-.365-0.633-0.426-0.471-.071-0.708-0.13-0.458-.127-0.694-0.185-0.481-.036-0.719-0.094-0.448-.17-0.686-0.226-0.511.085-.748,0.03-0.451-.172-0.689-0.227-0.426-.28-0.664-0.335-0.534.184-.772,0.129-0.422-.306-0.661-0.36-0.489-.013-0.728-0.066-0.431-.316-0.67-0.369a0.756,0.756,0,0,0-.288.122,0.508,0.508,0,0,0-.027.323c0,0.415-.142.415-0.142,0.831a0.655,0.655,0,0,0,.144.342c0.188,0.157.44,0.228,0.617,0.381s0.315,0.374.491,0.528,0.529,0.129.7,0.286,0.191,0.5.361,0.665,0.37,0.3.538,0.468,0.354,0.319.518,0.487,0.457,0.222.617,0.4,0.135,0.519.292,0.7,0.455,0.235.608,0.419,0.2,0.446.353,0.635,0.411,0.282.557,0.476,0.126,0.495.268,0.693,0.466,0.249.6,0.45,0.184,0.447.32,0.65,0.315,0.358.449,0.562,0.292,0.375.424,0.582,0.023,0.543.153,0.752a3.136,3.136,0,0,1,.466.525c0.1,0.176.27,0.348,0.4,0.569,0.106,0.19.161,0.427,0.279,0.637s0.242,0.39.359,0.594,0.124,0.464.237,0.662,0.186,0.437.3,0.628a0.772,0.772,0,0,1,.29.565,0.836,0.836,0,0,1-.635.288c-0.355,0-.355-0.132-0.71-0.132s-0.355.068-.71,0.068-0.354-.129-0.708-0.129-0.353.24-.707,0.24-0.351-.3-0.7-0.3-0.352.223-.705,0.223-0.352-.205-0.7-0.205-0.354.137-.707,0.137-0.351-.081-0.7-0.081-0.352.063-.7,0.063-0.353.194-.705,0.194-0.352-.333-0.7-0.333-0.35.14-.7,0.14-0.35-.068-0.7-0.068c-0.192,0-.281.008-0.378,0.015L137.049,89l0.13,0.079,0.365,0.182,0.311,0.411-0.307-.014-0.189-.115-0.2-.064-0.1-.043-0.3-.1-0.227-.1-0.424-.087-0.3-.233-0.017-.006c-0.028,0-.047,0-0.08,0-0.349,0-.349-0.13-0.7-0.13s-0.349.013-.7,0.013-0.348.16-.7,0.16-0.352.082-.7,0.082-0.35-.248-0.7-0.248a2.4,2.4,0,0,1-.229.2c-0.339-.121-0.256-0.354-0.6-0.475s-0.332-.14-0.67-0.261-0.374-.02-0.712-0.14-0.332-.135-0.669-0.255-0.391.035-.726-0.085-0.337-.118-0.673-0.238-0.352-.077-0.688-0.2-0.333-.134-0.67-0.253-0.305-.205-0.641-0.324-0.377,0-.713-0.124-0.246-.374-0.583-0.495-0.342-.1-0.677-0.216-0.315-.175-0.65-0.294-0.373-.012-0.708-0.131-0.294-.237-0.631-0.356-0.424.131-.759,0.012-0.242-.375-0.576-0.494-0.437.174-.77,0.056-0.244-.377-0.58-0.485a0.743,0.743,0,0,0-.16.247,0.139,0.139,0,0,0-.063.183c0.049,0.227.157,0.453,0.2,0.693s-0.016.485,0.023,0.725,0.013,0.479.046,0.72,0.17,0.458.2,0.7c0.028,0.224.068,0.452,0.094,0.683a0.22,0.22,0,0,1,.155.128l-0.036.249,0.319,0.22-0.026.094-0.112.158,0.054,0.152,0.267,0.241-0.147.161-0.075.267-0.14.176,0.084,0.282,0.008,0.072,0.066,0.187-0.246.236a1.053,1.053,0,0,1,.08.295c0.015,0.239-.265.5-0.251,0.736s0.233,0.469.244,0.71,0.055,0.482.065,0.723,0.009,0.481.016,0.721-0.1.484-.093,0.724,0.215,0.475.221,0.714-0.112.482-.107,0.721-0.188.482-.184,0.719,0.236,0.475.239,0.711-0.194.483-.192,0.72-0.028.481-.027,0.718,0.305,0.479.306,0.716-0.1.481-.1,0.716,0.068,0.481.068,0.715,0.065,0.481.065,0.714-0.02.454-.021,0.688-0.145.454-.147,0.688-0.127.459-.131,0.7-0.055.457-.059,0.69,0.267,0.466.263,0.7-0.254.457-.259,0.692,0.085,0.467.079,0.7,0.185,0.465.179,0.7-0.09.46-.1,0.694-0.1.46-.107,0.694-0.1.461-.109,0.7-0.078.462-.084,0.7,0.255,0.471.249,0.705c-0.01.364-.155,0.36-0.164,0.724,0,0.153.028,0.4,0.017,0.724-0.008.213,0.013,0.459,0,.728-0.01.226-.132,0.464-0.144,0.72-0.01.233,0.041,0.48,0.029,0.732s0.167,0.49.156,0.738c-0.013.265-.092,0.528-0.1,0.791s-0.13.531-.142,0.789c-0.012.275-.1,0.537-0.1,0.786-0.012.288,0.1,0.559,0.089,0.794-0.012.34-.015,0.612-0.015,0.788,0,0.243-.021.482-0.016,0.716s0.1,0.476.116,0.707-0.184.52-.133,0.746a3.482,3.482,0,0,0,.249.7,2.752,2.752,0,0,0,.539.513,2.536,2.536,0,0,0,.545.45,3.336,3.336,0,0,0,.618.37,6.043,6.043,0,0,0,.722.1,6.053,6.053,0,0,0,.68.325c0.223,0.026.473,0.032,0.727,0.044,0.227,0.012.474-.251,0.727-0.251s0.482,0.253.71,0.246,0.483,0,.71-0.013,0.463-.18.686-0.207c0.241-.029.45-0.193,0.67-0.233,0.24-.042.481-0.007,0.7-0.06,0.237-.058.475-0.069,0.686-0.139,0.232-.076.495-0.055,0.7-0.144a5.54,5.54,0,0,0,.542-0.481,5.84,5.84,0,0,0,.623-0.32c0.055-.042.1-0.087,0.151-0.129h0c-0.217.021-.388,0.019-0.45-0.214a0.361,0.361,0,0,1,.3-0.417,0.676,0.676,0,0,0,.356-0.263,2.616,2.616,0,0,1,.226-0.348,2.291,2.291,0,0,0,.209-0.322c0.1-.173.137-0.263,0.184-0.367,0.041-.088.083-0.178,0.176-0.347a0.507,0.507,0,0,0,.064-0.315c-0.015-.168.022-0.239,0.238-0.306a0.869,0.869,0,0,1,.244-0.053,3.069,3.069,0,0,0,.174-0.555c0.026-.251.033-0.487,0.046-0.7a0.5,0.5,0,0,1,.54-0.485c0.351,0,.351-0.126.7-0.126s0.351,0.21.7,0.21,0.351-.11.7-0.11,0.349,0.1.7,0.1,0.348-.018.7-0.018,0.348-.058.7-0.058,0.349-.179.7-0.179,0.349,0,.7,0,0.349-.029.7-0.029,0.348,0.226.7,0.226,0.349,0.028.7,0.028,0.347-.022.7-0.022,0.346-.122.693-0.122,0.347,0.185.694,0.185,0.349-.226.7-0.226a0.657,0.657,0,0,1,.379.3,0.463,0.463,0,0,1,.119.39c-0.019.23,0.124,0.488,0.1,0.746-0.021.234-.056,0.478-0.081,0.735-0.024.235-.282,0.456-0.311,0.712-0.027.236,0.057,0.494,0.024,0.747-0.031.237-.055,0.484-0.092,0.736s-0.013.491-.055,0.742-0.146.47-.192,0.72-0.1.481-.145,0.73,0.048,0.512,0,.759-0.075.488-.133,0.734-0.369.416-.429,0.662-0.025.5-.09,0.742a0.6,0.6,0,0,1-.528.479c-0.36,0-.36-0.212-0.72-0.212s-0.36.146-.719,0.146-0.359.049-.718,0.049-0.359-.174-0.717-0.174-0.356.165-.712,0.165-0.358.059-.715,0.059-0.357.048-.714,0.048-0.358-.274-0.716-0.274-0.356-.006-0.713-0.006-0.357.026-.714,0.026-0.357.2-.715,0.2-0.355-.205-0.711-0.205-0.355.177-.71,0.177-0.356-.051-0.712-0.051a1.6,1.6,0,0,0-.541.144,0.129,0.129,0,0,1,.015.01,0.347,0.347,0,0,1,.079.095,0.406,0.406,0,0,0,.074.088c0.044,0.039.065,0.06,0.086,0.081s0.043,0.043.086,0.082a0.423,0.423,0,0,0,.094.068,0.551,0.551,0,0,1,.1.071,1.108,1.108,0,0,0,.089.075c0.024,0.019.047,0.037,0.091,0.077a0.182,0.182,0,0,0,.1.049,0.233,0.233,0,0,1,.117.058,0.481,0.481,0,0,1,.082.091,0.508,0.508,0,0,0,.077.085l0.012,0.013-2.734-1.026a0.6,0.6,0,0,1-.04-0.045,0.525,0.525,0,0,0-.072-0.075l-0.027-.025a1.372,1.372,0,0,1-.532.167c-0.354,0-.354-0.179-0.707-0.179s-0.355.248-.711,0.248-0.356-.026-0.712-0.026-0.355-.194-0.711-0.194c-0.146,0-.389.025-0.715,0.021-0.207,0-.446-0.094-0.716-0.1-0.22,0-.463.125-0.721,0.119-0.228-.005-0.469-0.057-0.722-0.062-0.231-.006-0.474.043-0.724,0.036-0.233-.006-0.471-0.11-0.719-0.117s-0.479.113-.726,0.105-0.481.091-.726,0.082-0.476-.066-0.721-0.076-0.475-.077-0.719-0.088-0.476-.066-0.718-0.078-0.472-.158-0.715-0.17-0.479-.013-0.721-0.025-0.489.158-.73,0.145-0.477-.133-0.72-0.146-0.489.076-.73,0.06-0.47-.217-0.71-0.232-0.49.106-.73,0.089-0.488.087-.726,0.068-0.476-.057-0.714-0.077c-0.092,0-.156-0.054-0.208.02a0.212,0.212,0,0,0,.032.237c0.145,0.349-.036.423,0.108,0.774s0.25,0.307.394,0.656,0.213,0.322.356,0.67,0.074,0.377.217,0.726,0.037,0.39.179,0.737,0.176,0.334.32,0.681a0.446,0.446,0,0,0,.361.224c0.006,0,.045.074,0.052,0.074,0.237-.05.466-0.116,0.7-0.159s0.432-.3.672-0.337,0.483,0.013.729-.019c0.231-.03.466-0.087,0.714-0.113,0.231-.025.476,0.008,0.728-0.012,0.23-.02.464-0.138,0.716-0.154,0.23-.016.478,0.085,0.729,0.072,0.232-.013.468-0.149,0.721-0.159,0.233-.009.48,0.126,0.732,0.119,0.233-.008.47-0.176,0.721-0.181,0.234-.006.476,0.042,0.726,0.038s0.477,0.031.727,0.028,0.478,0.132.727,0.131,0.478-.046.727-0.047,0.478,0.025.727,0.025c0.357,0,.357-0.111.713-0.111s0.357,0.112.714,0.112,0.356-.111.712-0.111,0.356-.039.711-0.039,0.353-.1.707-0.1,0.354,0.256.708,0.256,0.355-.21.709-0.21,0.355-.038.71-0.038,0.354-.035.707-0.035,0.354,0.226.708,0.226,0.355-.208.709-0.208,0.353,0.03.706,0.03,0.352,0.185.705,0.185,0.353-.011.705-0.011,0.354-.214.708-0.214,0.353,0.1.706,0.1,0.352,0.136.7,0.136,0.35-.011.7-0.011,0.35,0.045.7,0.045,0.353,0.033.706,0.033,0.353-.244.706-0.244,0.353-.011.705-0.011,0.354,0.063.707,0.063a0.541,0.541,0,0,1,.363.344,0.361,0.361,0,0,1,.056.4c-0.078.225-.053,0.484-0.134,0.708s-0.016.505-.1,0.728-0.16.452-.25,0.673-0.445.332-.539,0.552-0.009.517-.106,0.734-0.175.447-.276,0.663-0.33.373-.435,0.587-0.2.433-.308,0.647-0.212.428-.323,0.64-0.273.394-.388,0.6-0.193.439-.311,0.647-0.329.359-.451,0.565-0.211.428-.335,0.632-0.1.5-.233,0.7-0.2.443-.326,0.645-0.288.384-.421,0.584-0.324.358-.461,0.554-0.241.416-.381,0.611-0.34.344-.482,0.537-0.394.3-.538,0.493-0.131.5-.278,0.69-0.333.347-.483,0.533-0.316.359-.469,0.543-0.415.274-.569,0.457-0.212.447-.37,0.626-0.212.452-.372,0.63-0.324.354-.486,0.53-0.4.276-.569,0.45-0.235.438-.4,0.61-0.454.226-.623,0.4-0.407.267-.577,0.434-0.217.464-.39,0.628-0.318.363-.493,0.525-0.48.184-.657,0.344-0.331.346-.51,0.5-0.412.253-.593,0.409-0.217.484-.4,0.637-0.4.272-.582,0.423-0.442.212-.63,0.36-0.33.353-.519,0.5-0.334.353-.525,0.5-0.42.237-.613,0.378-0.314.383-.508,0.522-0.427.226-.623,0.362-0.532.069-.73,0.2-0.326.371-.526,0.5-0.326.376-.528,0.5-0.446.19-.649,0.316-0.358.334-.563,0.456-0.467.15-.674,0.27-0.428.215-.636,0.332-0.493.094-.7,0.207-0.4.272-.607,0.382-0.433.2-.646,0.307-0.314.44-.528,0.546-0.513.037-.729,0.138-0.357.366-.574,0.465-0.448.172-.667,0.268-0.528-.023-0.748.069-0.391.3-.612,0.393-0.422.232-.645,0.318-0.464.122-.688,0.2-0.452.156-.676,0.235-0.416.263-.642,0.338-0.519-.052-0.747.019-0.464.108-.692,0.176-0.4.318-.635,0.382-0.443.194-.673,0.254c-0.126.034-.253,0.029-0.253,0.158,0,0.416.112,0.416,0.112,0.832a0.264,0.264,0,0,0-.011.215,0.192,0.192,0,0,0,.187-0.029c0.245-.031.531,0.053,0.774,0.02s0.5,0.029.736-.005,0.492-.021.732-0.057,0.438-.353.677-0.391,0.47-.125.708-0.164,0.482-.062.72-0.1,0.485-.04.723-0.083,0.526,0.177.763,0.132,0.464-.155.7-0.2,0.473-.107.707-0.156,0.452-.2.686-0.25,0.483-.062.718-0.114,0.483-.066.717-0.121,0.421-.323.655-0.38,0.475-.089.708-0.147,0.535,0.139.768,0.08,0.416-.317.648-0.379,0.459-.148.69-0.212,0.509,0.023.739-.043,0.422-.271.651-0.34,0.506,0.006.734-.064l0.687-.216c0.231-.074.474-0.111,0.7-0.187s0.469-.13.7-0.208,0.451-.179.677-0.26,0.439-.211.665-0.294,0.463-.144.687-0.229,0.4-.311.622-0.4,0.437-.206.659-0.3,0.48-.1.7-0.194,0.461-.148.681-0.243,0.482-.106.7-0.2,0.331-.44.549-0.54,0.427-.222.643-0.323,0.451-.172.666-0.276,0.551,0.028.765-.079a0.472,0.472,0,0,0,.105-0.08l-0.188-.36,0.117-.149a1.391,1.391,0,0,0,.222-0.684,0.691,0.691,0,0,1,.45.215l-0.036.249,0.156,0.107a2.41,2.41,0,0,1,.32-0.218c0.214-.114.458-0.163,0.668-0.277s0.476-.134.684-0.251,0.461-.163.668-0.283,0.372-.316.577-0.439,0.3-.437.5-0.562,0.421-.227.623-0.355,0.564-.016.764-0.147,0.32-.394.519-0.528,0.444-.207.641-0.343,0.428-.234.623-0.373,0.337-.36.53-0.5,0.27-.445.461-0.59,0.466-.183.654-0.33,0.428-.238.615-0.388,0.421-.249.606-0.4,0.264-.437.446-0.592,0.5-.158.682-0.316,0.3-.394.476-0.553,0.366-.316.541-0.479,0.2-.491.373-0.656,0.559-.116.73-0.284,0.169-.514.337-0.684,0.467-.218.632-0.39,0.18-.493.342-0.668,0.534-.166.693-0.344,0.232-.441.389-0.621,0.29-.387.444-0.568,0.175-.481.326-0.664,0.342-.342.49-0.529,0.428-.275.573-0.465,0.268-.4.41-0.592,0.356-.338.5-0.531,0.093-.524.229-0.718,0.38-.323.514-0.519,0.367-.336.5-0.534,0.272-.4.4-0.6,0.061-.53.184-0.732,0.427-.306.547-0.509,0.155-.468.273-0.673,0.088-.5.2-0.709,0.51-.271.62-0.479,0.144-.471.252-0.68,0.305-.388.409-0.6,0.116-.482.216-0.693,0.247-.418.345-0.63,0.134-.471.228-0.683,0.31-.395.4-0.608-0.024-.54.064-0.754c0.1-.231.428-0.355,0.513-0.568a0.714,0.714,0,0,1,.369-0.588c0.366,0,.366.184,0.731,0.184s0.366,0.126.731,0.126,0.364-.01.729-0.01,0.364-.03.727-0.03,0.362-.083.724-0.083,0.363-.11.726-0.11,0.362,0.232.725,0.232,0.363-.121.727-0.121,0.362,0.143.724,0.143,0.362-.174.724-0.174,0.363-.129.726-0.129a1.016,1.016,0,0,1,.46.119l-0.016-.041-0.026-.178-0.02-.051-0.016-.123-0.076-.072,0.068-.247,0.367-.043,0.1,0.17,0.051,0.05,0.164,0.245,0.225,0,0.255,0.113,0.217-.012,0.007,0.169a2.207,2.207,0,0,1,.4-0.033c0.363,0,.363.057,0.726,0.057s0.361,0.1.722,0.1,0.36-.084.72-0.084,0.359-.124.718-0.124,0.359,0.138.717,0.138,0.361-.026.723-0.026,0.361,0.094.722,0.094,0.361-.238.722-0.238,0.362,0.271.724,0.271,0.362-.208.723-0.208,0.361,0.142.722,0.142,0.36-.055.721-0.055,0.361-.047.721-0.047,0.361,0.182.722,0.182,0.36-.1.722-0.1,0.362,0.1.723,0.1a0.332,0.332,0,0,1,.295.173,0.605,0.605,0,0,1,.316.321c-0.018.222-.181,0.442-0.205,0.685-0.023.224,0.189,0.484,0.162,0.723s-0.364.425-.394,0.662,0.024,0.473-.008.708,0.1,0.488.072,0.721,0,0.476-.031.708-0.111.458-.147,0.687-0.145.455-.182,0.683-0.212.445-.249,0.669,0.052,0.491.013,0.713c-0.041.241-.27,0.438-0.31,0.655-0.045.248,0.219,0.535,0.179,0.744-0.051.265-.236,0.47-0.277,0.66-0.058.247-.1,0.487-0.159,0.713-0.063.246-.157,0.472-0.223,0.694-0.073.242,0.008,0.529-.073,0.744a6.332,6.332,0,0,1-.525.566,5.379,5.379,0,0,1-.237.7,3.735,3.735,0,0,1-.5.545,4.066,4.066,0,0,1-.666.319,4.34,4.34,0,0,1-.622.368,7.014,7.014,0,0,1-.706.174c-0.223.059-.46,0.085-0.715,0.132-0.226.043-.467,0.033-0.721,0.066-0.229.031-.467,0.036-0.72,0.06-0.232.021-.451,0.338-0.7,0.354-0.234.015-.486-0.112-0.739-0.1-0.235.01-.476,0.064-0.729,0.071a1.374,1.374,0,0,1-.463-0.127,0.216,0.216,0,0,1-.086.09,0.2,0.2,0,0,1-.132.025,0.162,0.162,0,0,0-.113.023,0.136,0.136,0,0,0-.066.1,0.169,0.169,0,0,1-.08.12,0.187,0.187,0,0,1-.135.021,0.149,0.149,0,0,0-.115.017,0.329,0.329,0,0,1-.116.042,0.326,0.326,0,0,0-.107.041,0.35,0.35,0,0,0-.091.069,0.492,0.492,0,0,1-.1.075,0.753,0.753,0,0,1-.108.051,0.693,0.693,0,0,0-.1.05,0.3,0.3,0,0,0-.089.072,0.335,0.335,0,0,1-.1.079,0.4,0.4,0,0,1-.116.046,0.342,0.342,0,0,0-.107.042c-0.051.029-.077,0.042-0.1,0.056s-0.054.026-.1,0.055a0.473,0.473,0,0,0-.094.069,0.536,0.536,0,0,1-.1.072,1.156,1.156,0,0,0-.1.061c-0.025.017-.05,0.033-0.1,0.062a0.2,0.2,0,0,0-.08.082,0.232,0.232,0,0,1-.091.094,0.5,0.5,0,0,1-.112.049,0.5,0.5,0,0,0-.1.046,0.11,0.11,0,0,1-.016.007l1.151-1.428c-0.037,0-.074.008-0.112,0.008-0.246,0-.488-0.125-0.728-0.128s-0.487-.094-0.726-0.1-0.486.108-.724,0.1-0.487,0-.725-0.01-0.482-.1-0.719-0.117-0.5.205-.731,0.191-0.475-.2-0.711-0.218-0.479-.109-0.714-0.13-0.5.151-.738,0.127-0.483-.085-0.717-0.111-0.457-.274-0.69-0.3-0.5.075-.733,0.043-0.5.007-.725-0.028c-0.246-.037-0.473-0.138-0.7-0.176-0.247-.042-0.473-0.142-0.7-0.183-0.249-.047-0.483-0.108-0.7-0.153a0.437,0.437,0,0,0-.173.176,0.318,0.318,0,0,0-.16.214c0.05,0.416.135,0.406,0.185,0.822a0.281,0.281,0,0,0,.1.241c0.2,0.106.48,0.077,0.7,0.194,0.2,0.109.375,0.285,0.588,0.406s0.33,0.36.54,0.485,0.462,0.142.667,0.273,0.372,0.289.572,0.426,0.428,0.212.622,0.357,0.4,0.258.586,0.409,0.313,0.364.495,0.524,0.278,0.392.453,0.558,0.317,0.343.484,0.517,0.349,0.315.508,0.5,0.387,0.289.537,0.476,0.395,0.3.536,0.491,0.195,0.446.329,0.646,0.241,0.409.367,0.615,0.259,0.4.376,0.611,0.248,0.407.356,0.623,0.089,0.481.188,0.7,0.283,0.392.374,0.616-0.026.514,0.057,0.74,0.324,0.385.4,0.614,0.013,0.488.08,0.719,0.286,0.409.345,0.643,0.121,0.458.174,0.693,0.057,0.472.1,0.709,0.246,0.44.285,0.678,0.021,0.479.054,0.72-0.15.5-.123,0.737a0.561,0.561,0,0,0,.258.123,0.327,0.327,0,0,0,.149-0.034c0.008,0,.021.18,0.03,0.18,0.24-.041.457-0.21,0.692-0.252s0.475-.105.71-0.15,0.467-.12.7-0.167,0.514,0.1.748,0.054,0.473-.1.707-0.153,0.438-.246.669-0.3,0.529,0.147.758,0.091,0.441-.238.671-0.3,0.416-.315.646-0.377,0.511,0.039.74-.027,0.44-.21.667-0.279,0.447-.181.672-0.253,0.463-.127.686-0.2,0.447-.171.668-0.252,0.494-.047.713-0.132,0.489-.082.708-0.172,0.361-.386.577-0.481,0.509-.047.723-0.148,0.36-.363.571-0.469c0.01,0,.021,0,0.031-0.008a0.3,0.3,0,0,1-.019-0.158,0.361,0.361,0,0,1,.429-0.28,0.677,0.677,0,0,0,.426-0.114,2.521,2.521,0,0,1,.338-0.241,2.355,2.355,0,0,0,.313-0.225c0.152-.125.224-0.194,0.306-0.273s0.142-.136.291-0.258a0.5,0.5,0,0,0,.173-0.271,0.251,0.251,0,0,1,.334-0.2,0.434,0.434,0,0,1,.389.156c0.008-.006.013-0.018,0.022-0.024,0.2-.144.51-0.124,0.7-0.271s0.346-.341.525-0.5,0.222-.466.4-0.628,0.523-.152.688-0.322,0.349-.338.507-0.514,0.266-.409.417-0.593,0.169-.475.313-0.666,0.336-.343.471-0.541,0.429-.294.557-0.5,0.063-.522.183-0.731,0.244-.408.356-0.622,0.283-.391.388-0.608,0.278-.4.376-0.62,0.157-.455.248-0.679,0.13-.463.215-0.689,0.147-.455.227-0.683,0.033-.491.107-0.721,0.223-.43.292-0.661,0.124-.461.191-0.694,0.058-.478.121-0.712,0.121-.461.18-0.7,0.2-.443.257-0.679,0.1-.47.149-0.706,0.191-.448.243-0.686,0.207-.447.257-0.684,0.007-.49.055-0.728,0.122-.466.169-0.7,0.053-.48.1-0.718,0.192-.453.237-0.692-0.078-.505-0.033-0.744,0.225-.448.27-0.687,0.115-.469.16-0.708a0.383,0.383,0,0,1,.153-0.269c0.195-.164.339-0.37,0.516-0.522,0.193-.165.242-0.479,0.416-0.63,0.191-.167.564-0.106,0.733-0.258,0.193-.171.176-0.543,0.339-0.7,0.191-.18.5-0.2,0.655-0.363,0.186-.194.407-0.331,0.539-0.5a2.623,2.623,0,0,0,.146-0.748,1.375,1.375,0,0,0,.13-0.637,0.942,0.942,0,0,0-.018-0.719c-0.114-.139-0.437-0.136-0.684-0.352-0.155-.135-0.33-0.295-0.553-0.483-0.282-.228-0.258-0.257-0.541-0.484s-0.161-.382-0.445-0.608-0.4-.079-0.684-0.305-0.163-.376-0.446-0.6-0.238-.279-0.519-0.5-0.41-.065-0.692-0.289-0.164-.371-0.444-0.594-0.469.009-.751-0.216-0.251-.264-0.533-0.488-0.158-.379-0.439-0.6-0.251-.264-0.533-0.489-0.291-.211-0.572-0.435-0.379-.1-0.659-0.324-0.159-.376-0.439-0.6-0.458-.006-0.738-0.234c-0.166-.144-0.255-0.345-0.4-0.455-0.174-.136-0.32-0.258-0.47-0.352a0.489,0.489,0,0,1-.108-0.553,0.332,0.332,0,0,1,.3-0.344c0.249-.07.413-0.394,0.643-0.471s0.507-.087.731-0.178c0.239-.1.454-0.221,0.668-0.328a6.847,6.847,0,0,0,.594-0.451c0.219-.139.528-0.127,0.712-0.279a4.533,4.533,0,0,0,.393-0.654,3.577,3.577,0,0,0,.418-0.581,3.435,3.435,0,0,0,.4-0.61,0.56,0.56,0,0,1,.045-0.128,2.862,2.862,0,0,0,.179-0.7c0.01-.195-0.045-0.434-0.037-0.713,0.006-.212.068-0.449,0.073-0.715,0-.218-0.037-0.457-0.034-0.715,0-.223.012-0.46,0.015-0.714,0-.226.1-0.465,0.1-0.717,0-.228-0.121-0.468-0.12-0.719,0-.228.124-0.466,0.125-0.715,0-.229-0.3-0.469-0.3-0.716,0-.231,0-0.469,0-0.716s0.015-.471.015-0.717,0.168-.471.168-0.717-0.076-.472-0.076-0.717,0.029-.472.029-0.717-0.113-.472-0.113-0.715,0.173-.473.173-0.716,0.128-.473.128-0.717-0.312-.475-0.312-0.718a1.259,1.259,0,0,1,.094-0.392,1.576,1.576,0,0,0-.08-0.215l-0.094-.163,0.257-.362c0-.034,0-0.069,0-0.1l-0.263-.262,0.2-.2-0.022-.19,0.117-.063c0-.07.01-0.137,0.01-0.207,0-.237.108-0.477,0.108-0.721s-0.017-.479-0.017-0.723-0.287-.479-0.287-0.723,0.06-.479.06-0.724,0.1-.48.1-0.725,0.055-.475.055-0.718,0.013-.475.013-0.717-0.036-.476-0.036-0.718a0.42,0.42,0,0,1,.226-0.351c0.163-.13.318-0.32,0.516-0.484,0.172-.143.272-0.39,0.453-0.554s0.312-.347.479-0.517,0.309-.346.457-0.527a6.381,6.381,0,0,0,.553-0.468A3.276,3.276,0,0,0,193.084,93a1.965,1.965,0,0,0,.1-0.678A2.816,2.816,0,0,0,193,91.661a2.659,2.659,0,0,0-.228-0.644,2.776,2.776,0,0,0-.327-0.626,3.2,3.2,0,0,0-.562-0.434c-0.305-.215-0.265-0.272-0.57-0.488s-0.386-.1-0.69-0.318-0.176-.4-0.479-0.612-0.344-.157-0.648-0.373-0.291-.228-0.593-0.442-0.33-.176-0.632-0.391-0.259-.271-0.559-0.485-0.341-.162-0.643-0.377-0.218-.333-0.518-0.548-0.443-.016-0.745-0.231-0.156-.419-0.459-0.634-0.444-.011-0.745-0.225-0.331-.171-0.63-0.385-0.254-.282-0.551-0.5a7.1,7.1,0,0,0-.493-0.535,3.657,3.657,0,0,0-.626-0.378,2.225,2.225,0,0,0-.732-0.2,1.273,1.273,0,0,0-.531.393,1.594,1.594,0,0,0-.579.251c-0.115.139-.051,0.442-0.185,0.631-0.123.171-.273,0.065-0.39,0.24-0.2.3-.044,0.409-0.243,0.716s-0.372.2-.571,0.5-0.015.425-.214,0.732-0.293.244-.491,0.551-0.2.306-.392,0.611-0.094.372-.292,0.677-0.33.217-.526,0.521a0.651,0.651,0,0,1-.482.327c-0.358,0-.358-0.054-0.714-0.054s-0.358-.171-0.715-0.171-0.356.084-.712,0.084-0.355-.092-0.712-0.092-0.353.02-.707,0.02-0.354.178-.709,0.178-0.354.1-.709,0.1-0.355-.305-0.711-0.305-0.353.1-.708,0.1-0.353.194-.708,0.194-0.354-.151-0.709-0.151-0.353.028-.707,0.028-0.352-.171-0.705-0.171-0.353.008-.706,0.008-0.354.006-.709,0.006h-0.706c-0.352,0-.352.151-0.7,0.151s-0.351.129-.7,0.129-0.351-.041-0.7-0.041-0.354.07-.707,0.07-0.353.007-.706,0.007-0.353-.234-0.707-0.234-0.353-.013-0.707-0.013a0.411,0.411,0,0,1-.474-0.667,5.022,5.022,0,0,0,.184-0.626,5.147,5.147,0,0,0,.183-0.633c0.024-.21-0.2-0.437-0.2-0.659a6.813,6.813,0,0,0,.251-0.663,0.346,0.346,0,0,1,.275-0.466c0.194-.058.406-0.164,0.659-0.239,0.206-.061.388-0.276,0.631-0.35,0.212-.064.411-0.213,0.649-0.286,0.215-.066.46-0.071,0.695-0.145,0.217-.068.5,0.035,0.729-0.04,0.217-.069.4-0.27,0.63-0.344s0.5,0.021.728-.055,0.442-.158.672-0.235,0.415-.245.644-0.324,0.461-.1.688-0.179,0.418-.226.643-0.306,0.406-.256.63-0.337,0.5,0,.726-0.078,0.439-.168.663-0.252,0.4-.263.627-0.348,0.508,0.007.73-.079,0.354-.39.577-0.478,0.419-.22.64-0.309,0.449-.148.67-0.239,0.519,0.019.739-.073,0.409-.247.629-0.341,0.4-.279.613-0.374,0.451-.15.668-0.246,0.415-.235.631-0.333,0.431-.2.647-0.3,0.388-.286.6-0.387a2.42,2.42,0,0,1,.245.163c0.25-.033.482-0.137,0.714-0.168,0.25-.034.512,0.088,0.743,0.056,0.249-.035.457-0.287,0.683-0.319,0.252-.037.486-0.1,0.711-0.135,0.255-.039.535,0.182,0.758,0.145,0.257-.043.5-0.075,0.717-0.117a6.868,6.868,0,0,0,.632-0.464c0.268-.066.534,0.014,0.728-0.058a1.909,1.909,0,0,0,.581-0.4,1.318,1.318,0,0,0,.575-0.5,3.75,3.75,0,0,0-.022-0.757,2.647,2.647,0,0,0-.01-0.813,2.563,2.563,0,0,0-.635-0.521,3.072,3.072,0,0,0-.477-0.627c-0.3-.22-0.4-0.09-0.693-0.314s-0.23-.312-0.527-0.536-0.371-.124-0.667-0.347-0.323-.187-0.618-0.41-0.259-.269-0.553-0.491-0.289-.23-0.583-0.452-0.216-.324-0.509-0.545-0.311-.2-0.606-0.423-0.376-.112-0.67-0.335-0.142-.423-0.436-0.645-0.429-.044-0.724-0.266-0.209-.333-0.5-0.555-0.4-.072-0.7-0.293-0.294-.221-0.587-0.442-0.128-.442-0.422-0.664-0.334-.167-0.628-0.389-0.314-.191-0.606-0.412-0.347-.146-0.637-0.367a3.973,3.973,0,0,0-.592-0.5,5.068,5.068,0,0,0-.733-0.255,2.367,2.367,0,0,0-.741-0.185,2.1,2.1,0,0,0-.58.171,1.788,1.788,0,0,0-.487.3,2.557,2.557,0,0,0-.55.265c-0.295.233-.225,0.329-0.526,0.553s-0.39.106-.692,0.33-0.225.325-.526,0.548-0.349.158-.649,0.381-0.357.145-.656,0.367-0.3.224-.6,0.447-0.211.338-.508,0.561a0.8,0.8,0,0,1-.408-0.068c-0.367,0-.367.093-0.732,0.093S163.7,69,163.339,69s-0.366,0-.73,0-0.363,0-.727,0-0.363-.057-0.724-0.057-0.363.236-.726,0.236-0.362-.161-0.725-0.161-0.364-.044-0.727-0.044-0.363.153-.725,0.153-0.362-.005-0.724-0.005-0.364.068-.727,0.068-0.361.049-.723,0.049-0.361-.259-0.721-0.259-0.362.154-.723,0.154-0.362-.116-0.725-0.116-0.361.118-.723,0.118-0.36.041-.72,0.041-0.359-.257-0.718-0.257-0.359.074-.718,0.074-0.361.179-.722,0.179-0.361-.1-0.722-0.1-0.362-.113-0.723-0.113-0.362.168-.724,0.168-0.361-.063-0.723-0.063-0.361.142-.722,0.142-0.361-.179-0.722-0.179-0.36.184-.721,0.184-0.361.021-.722,0.021-0.361-.018-0.722-0.018-0.362-.276-0.724-0.276-0.361.24-.722,0.24S142,69.2,141.642,69.2s-0.36-.247-0.72-0.247-0.36.061-.72,0.061-0.359.089-.719,0.089-0.36.008-.721,0.008-0.359.078-.719,0.078-0.361.014-.721,0.014H136.6c-0.209,0-.448.046-0.713,0.045-0.221,0-.46-0.057-0.717-0.059-0.226,0-.466-0.018-0.717-0.021-0.23,0-.469-0.067-0.718-0.071-0.232,0-.475.115-0.722,0.11s-0.47-.167-0.715-0.173-0.471-.134-0.715-0.14-0.483.193-.727,0.185-0.474-.151-0.719-0.159-0.484.1-.729,0.09-0.473-.2-0.717-0.212-0.485.07-.729,0.059-0.492.163-.736,0.15-0.467-.295-0.71-0.31-0.492.134-.734,0.118-0.467-.256-0.709-0.273-0.5.291-.746,0.273m7.815,24.437c0-.35.11-0.35,0.11-0.7a0.5,0.5,0,0,1,.561-0.488,7.178,7.178,0,0,0,.746-0.036,7.042,7.042,0,0,1,.741-0.012c0.37,0,.37-0.007.741-0.007s0.369,0.055.74,0.055,0.368-.043.736-0.043,0.369,0.106.737,0.106,0.369-.038.738-0.038,0.369-.17.739-0.17,0.368-.074.737-0.074,0.368,0.029.736,0.029,0.369,0.066.738,0.066,0.368-.04.736-0.04,0.366,0.075.733,0.075,0.368,0.135.735,0.135,0.368-.2.737-0.2,0.367,0.048.734,0.048,0.367,0.02.732,0.02,0.366,0.143.731,0.143,0.365-.13.729-0.13,0.368-.138.735-0.138a0.818,0.818,0,0,1,.7.7c0,0.352-.109.352-0.109,0.7s0.132,0.352.132,0.7-0.166.35-.166,0.7-0.1.35-.1,0.7,0.182,0.349.182,0.7,0.044,0.349.044,0.7-0.189.35-.189,0.7,0.036,0.349.036,0.7-0.081.349-.081,0.7,0.227,0.349.227,0.7-0.043.35-.043,0.7a0.588,0.588,0,0,1-.632.519c-0.372,0-.372.072-0.743,0.072s-0.372.076-.744,0.076-0.37-.06-0.74-0.06-0.37.125-.741,0.125-0.367-.061-0.735-0.061-0.369-.246-0.738-0.246-0.369.128-.738,0.128-0.369.139-.739,0.139-0.368-.078-0.737-0.078-0.368.1-.736,0.1-0.369-.108-0.738-0.108-0.368-.027-0.735-0.027-0.367-.158-0.734-0.158-0.367.051-.734,0.051-0.369-.025-0.738-0.025-0.367.252-.734,0.252-0.366-.19-0.732-0.19-0.366.18-.73,0.18-0.365-.027-0.73-0.027-0.367-.231-0.735-0.231a0.459,0.459,0,0,1-.56-0.429c0-.351-0.06-0.351-0.06-0.7s0.051-.352.051-0.7,0.008-.35.008-0.7-0.113-.35-0.113-0.7,0.212-.348.212-0.7,0.034-.348.034-0.7-0.191-.35-0.191-0.7-0.07-.349-0.07-0.7,0.131-.349.131-0.7-0.113-.349-0.113-0.7m16.175,12.094a0.333,0.333,0,0,0-.077.156c0,0.016,0,.024,0,0.042,0,0.361,0,.361,0,0.723s-0.109.361-.109,0.721,0.132,0.36.132,0.72-0.166.358-.166,0.716-0.1.359-.1,0.717,0.182,0.36.182,0.718,0.044,0.36.044,0.72-0.189.358-.189,0.716,0.036,0.358.036,0.717-0.081.359-.081,0.718,0.227,0.358.227,0.715a0.726,0.726,0,0,1-.675.631c-0.372,0-.372-0.112-0.743-0.112s-0.372.072-.744,0.072-0.37.076-.74,0.076-0.37-.06-0.741-0.06-0.367.125-.735,0.125-0.369-.061-0.738-0.061-0.369-.245-0.738-0.245-0.369.128-.739,0.128-0.368.138-.737,0.138-0.368-.078-0.736-0.078-0.369.1-.738,0.1-0.368-.108-0.735-0.108-0.367-.027-0.734-0.027-0.367-.158-0.734-0.158-0.369.051-.738,0.051-0.367-.024-0.734-0.024-0.366.252-.732,0.252-0.366-.191-0.73-0.191-0.365.18-.73,0.18-0.367-.027-0.735-0.027a0.556,0.556,0,0,1-.429-0.66c0-.361-0.131-0.361-0.131-0.723s-0.06-.361-0.06-0.723,0.051-.36.051-0.721,0.008-.36.008-0.72-0.113-.358-0.113-0.716,0.212-.359.212-0.717,0.034-.359.034-0.718-0.191-.36-0.191-0.719-0.07-.359-0.07-0.717,0.131-.359.131-0.717-0.113-.359-0.113-0.718,0.11-.358.11-0.715a0.5,0.5,0,0,1,.561-0.489,7.338,7.338,0,0,0,.739-0.151,7.171,7.171,0,0,1,.748-0.024c0.37,0,.37.139,0.741,0.139s0.369-.011.74-0.011,0.368-.007.736-0.007,0.369,0.055.737,0.055,0.369-.044.738-0.044,0.369,0.107.739,0.107,0.368-.038.737-0.038,0.368-.171.736-0.171,0.369-.073.738-0.073,0.368,0.028.736,0.028,0.366,0.067.733,0.067,0.368-.04.735-0.04,0.368,0.074.737,0.074,0.367,0.136.734,0.136,0.367-.2.732-0.2,0.366,0.047.731,0.047c0.2,0,.295.006,0.4,0.012a0.2,0.2,0,0,1,.248-0.052,0.42,0.42,0,0,0,.186.043,1.027,1.027,0,0,1,.239.024,1.051,1.051,0,0,0,.23.023,0.367,0.367,0,0,0,.219-0.067,0.419,0.419,0,0,1,.249-0.076,1.02,1.02,0,0,0,.158-0.013,0.285,0.285,0,0,1,.3.1,0.307,0.307,0,0,1,.123.309c0,0.035-.005.076-0.005,0.125,0,0.112,0,.167,0,0.223s0,0.114,0,.227a0.325,0.325,0,0,1-.11.243m11.248,0.19c0-.358.11-0.358,0.11-0.715a0.5,0.5,0,0,1,.561-0.489,6.845,6.845,0,0,0,.731.044,6.28,6.28,0,0,1,.713,0c0.36,0,.36-0.111.72-0.111s0.36-.161.719-0.161,0.357-.015.715-0.015,0.358,0.286.716,0.286,0.358-.2.716-0.2,0.36-.024.718-0.024,0.359,0.139.716,0.139,0.357-.011.716-0.011,0.358-.007.717-0.007,0.357,0.055.713,0.055,0.357-.044.713-0.044,0.357,0.107.714,0.107,0.358-.038.716-0.038,0.356-.171.714-0.171,0.355-.073.711-0.073,0.354,0.028.709,0.028,0.354,0.067.709,0.067,0.356-.04.714-0.04,0.356,0.074.713,0.074,0.357,0.136.713,0.136,0.358-.2.715-0.2a0.662,0.662,0,0,1,.6.643c0,0.361-.021.361-0.021,0.723s-0.143.361-.143,0.723,0.13,0.361.13,0.721,0.137,0.36.137,0.72,0,0.358,0,.716-0.11.359-.11,0.717,0.133,0.36.133,0.718-0.167.36-.167,0.72-0.1.358-.1,0.716,0.182,0.358.182,0.717,0.045,0.359.045,0.718-0.19.358-.19,0.715a0.476,0.476,0,0,1-.493.529c-0.361,0-.361-0.081-0.721-0.081s-0.362.228-.722,0.228-0.36-.045-0.72-0.045-0.359-.112-0.719-0.112-0.358.072-.715,0.072-0.358.076-.716,0.076-0.359-.06-0.717-0.06-0.359.125-.718,0.125-0.358-.061-0.716-0.061-0.357-.245-0.715-0.245-0.359.128-.717,0.128-0.357.138-.714,0.138-0.357-.078-0.713-0.078-0.356.1-.714,0.1-0.357-.108-0.716-0.108-0.356-.027-0.714-0.027-0.355-.158-0.71-0.158-0.355.051-.709,0.051-0.355-.024-0.709-0.024-0.357.252-.713,0.252-0.358-.191-0.714-0.191-0.357.18-.714,0.18-0.357-.027-0.715-0.027a0.556,0.556,0,0,1-.43-0.66c0-.361-0.13-0.361-0.13-0.723s-0.06-.361-0.06-0.723,0.051-.36.051-0.721,0.008-.36.008-0.72-0.113-.358-0.113-0.716,0.212-.359.212-0.717,0.034-.359.034-0.718-0.192-.36-0.192-0.719-0.069-.359-0.069-0.717,0.131-.359.131-0.717-0.113-.359-0.113-0.718m18.011,14.627a2.008,2.008,0,0,0,.4.573,2.157,2.157,0,0,0,.5.545,3.042,3.042,0,0,0,.709.234,5.3,5.3,0,0,0,.737.1c0.243,0.018.493,0.078,0.74,0.078a5.442,5.442,0,0,1,.573-0.068c0.163-.01.367,0.082,0.586,0.062,0.018,0,.022-0.039.038-0.039a0.571,0.571,0,0,1,.575.2,0.778,0.778,0,0,1-.081.771c-0.148.145-.328,0.287-0.5,0.465-0.267.26-.317,0.21-0.586,0.467s-0.243.286-.513,0.543-0.32.2-.589,0.458-0.363.158-.632,0.414-0.129.4-.4,0.655-0.3.221-.569,0.475-0.28.24-.547,0.493-0.366.147-.628,0.4a0.517,0.517,0,0,1-.314.265c-0.369,0-.369.137-0.739,0.137s-0.369,0-.739,0-0.369-.108-0.737-0.108-0.368.132-.736,0.132-0.366-.166-0.732-0.166-0.367-.1-0.733-0.1-0.367.182-.734,0.182-0.368.045-.735,0.045-0.366-.19-0.733-0.19-0.366.036-.733,0.036-0.367-.081-0.734-0.081-0.365.228-.73,0.228-0.366-.044-0.73-0.044-0.365-.112-0.73-0.112-0.368.071-.734,0.071-0.365.077-.73,0.077-0.364-.06-0.729-0.06-0.363.125-.725,0.125-0.364-.062-0.726-0.062-0.365-.244-0.73-0.244-0.366.127-.731,0.127-0.366.139-.731,0.139-0.366-.079-0.732-0.079-0.365.1-.731,0.1-0.365-.108-0.73-0.108-0.365-.028-0.73-0.028a0.5,0.5,0,0,1-.337-0.329,0.365,0.365,0,0,1-.111-0.388c0.169-.535.192-0.536,0.309-0.886,0.128-.383-0.111-0.462.017-0.845a0.8,0.8,0,0,1,.419-0.226c0.222-.12.345-0.392,0.544-0.5,0.222-.123.443-0.214,0.638-0.323,0.222-.123.541-0.038,0.729-0.146,0.226-.129.364-0.362,0.547-0.473,0.229-.14.391-0.315,0.56-0.433a4.752,4.752,0,0,0,.579-0.4,1.42,1.42,0,0,0,.386-0.587,2.647,2.647,0,0,0-.034-0.705,2,2,0,0,0,.043-0.789,1.942,1.942,0,0,0-.49-0.65,4.783,4.783,0,0,0-.764-0.239c-0.367-.133-0.391-0.055-0.762-0.177s-0.329-.246-0.7-0.368-0.4-.015-0.774-0.137a0.664,0.664,0,0,1-.345-0.725,0.5,0.5,0,0,1,.554-0.4,7.184,7.184,0,0,0,.748.044,7.1,7.1,0,0,1,.731-0.112c0.369,0,.369-0.039.738-0.039s0.369-.1.737-0.1,0.366,0.256.732,0.256,0.367-.21.735-0.21,0.367-.038.734-0.038,0.368-.036.736-0.036,0.366,0.228.734,0.228,0.366-.209.732-0.209,0.368,0.029.735,0.029,0.367,0.186.732,0.186,0.365-.011.73-0.011,0.367-.214.732-0.214,0.367,0.1.734,0.1,0.365,0.136.732,0.136,0.364-.011.728-0.011,0.363,0.045.727,0.045,0.363,0.033.726,0.033,0.365-.244.732-0.244,0.365-.011.73-0.011,0.366,0.063.732,0.063,0.367,0.156.733,0.156,0.365,0,.731,0a0.486,0.486,0,0,1,.4.056,0.794,0.794,0,0,1,.318.4c-0.007.263,0.011,0.5,0.024,0.721,0.015,0.265-.239.538-0.2,0.759a2.98,2.98,0,0,0,.4.646m-17.34-28.1a6.858,6.858,0,0,0,.723-0.065,7.113,7.113,0,0,1,.721-0.161c0.36,0,.36-0.015.72-0.015s0.36,0.286.719,0.286,0.357-.2.715-0.2,0.358-.025.716-0.025,0.358,0.14.716,0.14,0.36-.012.718-0.012S166.343,92,166.7,92s0.357,0.055.716,0.055,0.358-.043.717-0.043,0.357,0.106.713,0.106,0.357-.038.713-0.038,0.357-.17.714-0.17,0.358-.074.716-0.074,0.356,0.029.714,0.029,0.355,0.066.711,0.066,0.354-.04.709-0.04,0.354,0.075.709,0.075,0.356,0.135.714,0.135,0.356-.2.713-0.2,0.357,0.048.713,0.048,0.358,0.02.715,0.02a0.475,0.475,0,0,1,.433.575c0,0.352.13,0.352,0.13,0.7s0.137,0.352.137,0.7,0,0.35,0,.7-0.11.35-.11,0.7,0.133,0.349.133,0.7-0.167.349-.167,0.7-0.1.35-.1,0.7,0.182,0.349.182,0.7,0.045,0.349.045,0.7-0.19.349-.19,0.7,0.037,0.35.037,0.7a0.446,0.446,0,0,1-.53.448c-0.361,0-.361.227-0.721,0.227s-0.362-.044-0.722-0.044-0.36-.112-0.72-0.112a4.478,4.478,0,0,0-.579.064l0.091,0.1,0.542,0.282,0.131,0.079,0.364,0.182,0.312,0.411-0.308-.013-0.189-.116-0.2-.064-0.1-.042-0.3-.1-0.227-.1-0.423-.088-0.3-.233-0.49-.18-0.035-.057a2.226,2.226,0,0,0-.435-0.041c-0.359,0-.359.125-0.717,0.125s-0.359-.061-0.718-0.061-0.358-.246-0.716-0.246-0.357.128-.715,0.128-0.359.139-.717,0.139-0.357-.078-0.714-0.078-0.357.1-.713,0.1-0.356-.108-0.714-0.108-0.357-.027-0.716-0.027-0.356-.158-0.714-0.158-0.355.051-.71,0.051-0.355-.025-0.709-0.025-0.355.252-.709,0.252-0.357-.19-0.713-0.19-0.358.18-.714,0.18-0.357-.027-0.714-0.027-0.357-.231-0.715-0.231a0.459,0.459,0,0,1-.56-0.429c0-.351-0.06-0.351-0.06-0.7s0.051-.352.051-0.7,0.008-.35.008-0.7-0.113-.35-0.113-0.7,0.212-.348.212-0.7,0.034-.348.034-0.7-0.192-.35-0.192-0.7-0.069-.349-0.069-0.7,0.131-.349.131-0.7-0.113-.349-0.113-0.7,0.11-.35.11-0.7a0.5,0.5,0,0,1,.561-0.488" style="fill:#fff"/><rect width="318.912" height="239.852" style="fill:none"/></svg>