<svg xmlns="http://www.w3.org/2000/svg" viewBox="0 0 318.912 239.852"><title>logo_9</title><path d="M256.895,194.884a0.548,0.548,0,0,0-.091.044,0.175,0.175,0,0,1-.113.039,0.183,0.183,0,0,1-.114-0.078,0.2,0.2,0,0,1-.032-0.253,0.422,0.422,0,0,0,.058-0.182,1.111,1.111,0,0,1,.044-0.237,0.981,0.981,0,0,0,.042-0.226,0.356,0.356,0,0,0-.049-0.224,0.427,0.427,0,0,1-.053-0.255,1.177,1.177,0,0,0,0-.158,0.282,0.282,0,0,1,.124-0.287,0.3,0.3,0,0,1,.279-0.1,4.156,4.156,0,0,1-.1-0.463c-0.028-.235-0.1-0.466-0.136-0.7s0-.482-0.04-0.715-0.191-.449-0.239-0.68,0.014-.494-0.042-0.722-0.107-.468-0.171-0.693-0.433-.365-0.5-0.587,0.012-.5-0.07-0.721-0.029-.507-0.123-0.72-0.42-.331-0.525-0.538-0.152-.458-0.273-0.656-0.163-.47-0.3-0.657-0.283-.4-0.437-0.574a6.632,6.632,0,0,0-.639-0.37,6.424,6.424,0,0,0-.435-0.6,5.691,5.691,0,0,0-.742-0.139,4.594,4.594,0,0,0-.657-0.216,4.96,4.96,0,0,0-.645-0.34,5.2,5.2,0,0,0-.717-0.07,4.913,4.913,0,0,0-.689.268,4.424,4.424,0,0,0-.665.194,5.509,5.509,0,0,0-.712.127c-0.209.1-.386,0.269-0.6,0.4s-0.383.267-.579,0.417-0.4.256-.581,0.42-0.374.291-.547,0.466-0.416.265-.579,0.448-0.129.514-.282,0.706-0.323.347-.468,0.544-0.374.317-.512,0.518-0.207.434-.337,0.64-0.366.335-.49,0.545-0.241.415-.359,0.628,0.011,0.547-.1.764-0.5.282-.609,0.5,0.043,0.552-.06.774c-0.006.012-.011,0.025-0.017,0.038a0.325,0.325,0,0,1,.033.194,0.366,0.366,0,0,1-.094.194,0.39,0.39,0,0,1-.024.179,0.327,0.327,0,0,1-.084.127,0.467,0.467,0,0,1-.07.124,1.123,1.123,0,0,1-.064.118,0.412,0.412,0,0,1-.128.248,0.349,0.349,0,0,1-.15.058c0,0.011-.009.019-0.014,0.03a0.4,0.4,0,0,1-.376.1c-0.015,0-.007-0.05-0.022-0.051a0.245,0.245,0,0,1-.241-0.25c0.046-.236.055-0.481,0.113-0.712a0.551,0.551,0,0,1,.093-0.184,0.336,0.336,0,0,1-.009-0.143,0.315,0.315,0,0,1,.083-0.183c0.011-.038.023-0.077,0.035-0.116a0.489,0.489,0,0,1,.019-0.2,0.261,0.261,0,0,1,.056-0.1c0-.015,0-0.09,0-0.107a0.419,0.419,0,0,1,.114-0.232,0.45,0.45,0,0,1,.014-0.1c0.079-.228.192-0.442,0.277-0.663s0.084-.485.175-0.7,0.2-.435.3-0.648,0.347-.372.445-0.583,0.2-.44.295-0.649c0.2-.419.281-0.379,0.478-0.8,0.115-.241.073-0.529,0.167-0.729,0.116-.247.3-0.427,0.385-0.621,0.118-.259.1-0.525,0.175-0.711,0.115-.281.335-0.448,0.38-0.639a3.114,3.114,0,0,0,.049-0.735,2.932,2.932,0,0,0-.265-0.67,2.712,2.712,0,0,0-.265-0.619,3.65,3.65,0,0,0-.225-0.681,4.531,4.531,0,0,0-.555-0.443,5.3,5.3,0,0,0-.546-0.436,6.383,6.383,0,0,0-.555-0.447c-0.208-.113-0.379-0.326-0.594-0.417s-0.527.041-.746-0.031-0.474-.042-0.7-0.093-0.412-.411-0.634-0.441a4.706,4.706,0,0,0-.72.232c-0.228,0-.462-0.224-0.678-0.2a5.693,5.693,0,0,0-.622.319,6.452,6.452,0,0,0-.7-0.018,5.292,5.292,0,0,0-.549.417,5.221,5.221,0,0,0-.658.23,5.317,5.317,0,0,0-.448.521,0.577,0.577,0,0,0-.031.548,0.379,0.379,0,0,0,.332.286,6.605,6.605,0,0,1,.631.287,4.8,4.8,0,0,1,.569.4,3.356,3.356,0,0,1,.469.5,3.012,3.012,0,0,1,.526.451,2.6,2.6,0,0,1,.347.623,3.107,3.107,0,0,1-.064.711,5.164,5.164,0,0,1,.057.778c-0.026.239-.286,0.468-0.326,0.739-0.037.247-.062,0.506-0.1,0.768-0.034.235,0.124,0.5,0.09,0.741s-0.048.485-.082,0.727-0.038.484-.073,0.726-0.055.484-.088,0.727-0.3.453-.336,0.7-0.044.486-.075,0.729,0.146,0.508.118,0.752-0.271.46-.3,0.7,0.09,0.5.066,0.744-0.248.469-.269,0.713,0,0.49-.019.733,0.149,0.5.134,0.743-0.29.473-.3,0.717,0.23,0.5.223,0.741-0.153.485-.157,0.728,0,0.488,0,.731,0.079,0.48.084,0.712,0.049,0.477.062,0.708-0.18.495-.16,0.724,0.122,0.473.15,0.7,0.174,0.459.211,0.686,0.006,0.484.053,0.709,0.191,0.445.249,0.666,0.06,0.48.131,0.7c0.076,0.232.1,0.476,0.189,0.686,0.092,0.227.182,0.454,0.283,0.655,0.112,0.221.241,0.429,0.362,0.619a5.25,5.25,0,0,0,.518.5,10.573,10.573,0,0,1,.99,1.018,2.919,2.919,0,0,0,.72.092,2.394,2.394,0,0,0,.667.14,2.342,2.342,0,0,0,.728-0.135,2.232,2.232,0,0,0,.684-0.293,2.358,2.358,0,0,0,.57-0.5,2.971,2.971,0,0,0,.5-0.625,4.2,4.2,0,0,0,.128-0.786,4.842,4.842,0,0,0,.1-0.778,4.672,4.672,0,0,1-.246-0.66c-0.012-.2-0.013-0.423-0.03-0.668-0.015-.21-0.1-0.429-0.121-0.662-0.016-.217.061-0.45,0.044-0.678-0.019-.245-0.112-0.476-0.128-0.7-0.02-.25.092-0.5,0.076-0.714-0.019-.263-0.073-0.5-0.086-0.7a4.914,4.914,0,0,1,.055-0.709c0-.235-0.116-0.476-0.1-0.715s0.005-.478.029-0.716,0.036-.477.071-0.714,0.347-.421.391-0.655-0.027-.486.026-0.719,0.1-.464.159-0.693,0.006-.493.074-0.721,0.24-.424.316-0.648,0.294-.4.376-0.618-0.055-.532.034-0.749,0.371-.357.466-0.571,0-.525.106-0.734,0.416-.322.526-0.527,0.25-.4.368-0.6,0.19-.441.318-0.631,0.107-.517.244-0.7a7.163,7.163,0,0,1,.547-0.471,4.682,4.682,0,0,1,.617-0.366,2.985,2.985,0,0,1,.54-0.4,2.21,2.21,0,0,1,.61-0.447,0.861,0.861,0,0,1,.493.408,1.468,1.468,0,0,1,.467.429c0.068,0.161-.128.446-0.061,0.671a4.782,4.782,0,0,1,.175.667,5.639,5.639,0,0,1,.356.658c0.03,0.213-.116.472-0.087,0.731,0.025,0.219.193,0.441,0.215,0.694,0.021,0.223-.017.464,0,0.714,0.016,0.226.022,0.465,0.035,0.714,0.013,0.228.07,0.465,0.079,0.713,0.009,0.229-.16.472-0.153,0.719,0.005,0.231.063,0.466,0.066,0.71s0.089,0.47.089,0.714-0.08.482-.083,0.718,0.128,0.484.122,0.72-0.063.475-.073,0.708-0.073.477-.086,0.711,0.136,0.489.12,0.721-0.15.468-.17,0.7-0.095.471-.119,0.7,0.012,0.483-.015.714-0.136.465-.168,0.7-0.072.473-.109,0.7-0.053.477-.094,0.7,0,0.487-.049.712-0.168.456-.22,0.68-0.138.46-.194,0.682-0.209.439-.271,0.659,0.066,0.52,0,.737c-0.073.234-.18,0.449-0.255,0.663-0.079.233-.067,0.49-0.145,0.7-0.087.233-.376,0.374-0.459,0.58s-0.111.445-.207,0.674c-0.087.206-.119,0.449-0.221,0.673-0.094.207-.239,0.4-0.346,0.621s-0.069.488-.181,0.7-0.252.4-.369,0.61-0.314.362-.436,0.569-0.243.4-.37,0.6-0.174.45-.307,0.648-0.468.249-.607,0.443-0.094.517-.24,0.706-0.355.321-.507,0.5-0.195.458-.353,0.635-0.5.182-.662,0.353-0.161.509-.333,0.672-0.483.173-.662,0.328-0.413.235-.6,0.381-0.325.344-.518,0.482a0.537,0.537,0,0,0-.076.608c0.039,0.164-.173.215-0.135,0.378a0.706,0.706,0,0,0,.391.354,0.558,0.558,0,0,0,.258.02,0.509,0.509,0,0,0,.148-0.148c0.219-.086.449-0.144,0.669-0.235s0.465-.106.683-0.2,0.457-.138.675-0.236,0.36-.343.575-0.446,0.536,0.017.748-.091,0.412-.243.622-0.356,0.459-.154.666-0.272,0.324-.387.527-0.512,0.351-.326.552-0.457,0.488-.122.683-0.259,0.415-.242.606-0.385,0.4-.259.591-0.409,0.208-.492.389-0.648,0.409-.249.584-0.411,0.273-.4.442-0.566,0.5-.178.66-0.353,0.209-.45.365-0.631,0.277-.383.426-0.571,0.327-.344.468-0.538,0.325-.352.459-0.551,0.1-.5.222-0.7,0.379-.323.5-0.531,0.389-.33.5-0.543,0.179-.446.282-0.662,0.218-.426.314-0.646-0.006-.516.082-0.74,0.215-.422.3-0.648,0.227-.424.3-0.652,0.186-.441.253-0.672-0.022-.5.039-0.731,0.113-.459.167-0.694,0.226-.437.273-0.674,0.067-.472.108-0.71,0.129-.462.164-0.7-0.03-.485,0-0.726-0.019-.48,0-0.721,0.156-.464.174-0.706,0.154-.47.168-0.712-0.145-.486-0.136-0.729,0.074-.476.078-0.718-0.088-.48-0.088-0.723,0.169-.476.163-0.714a1.125,1.125,0,0,0-.23-0.469" style="fill:#fff"/><rect width="318.912" height="239.852" style="fill:none"/></svg>