<svg xmlns="http://www.w3.org/2000/svg" viewBox="0 0 318.912 239.852"><title>logo_5</title><path d="M92.99,196.7a3.18,3.18,0,0,0-.222.261c-0.032,0-.1-0.256-0.132-0.245a0.444,0.444,0,0,0-.14.265c-0.054.149-.2,0.346-0.32,0.627-0.081.19-.159,0.412-0.266,0.652-0.089.2-.017,0.491-0.122,0.719-0.1.2-.457,0.294-0.565,0.518-0.1.2-.033,0.5-0.142,0.718s-0.378.33-.488,0.545,0.049,0.555-.063.768-0.427.305-.542,0.516-0.027.528-.145,0.737-0.48.269-.6,0.475-0.059.518-.183,0.72-0.34.347-.468,0.547a0.858,0.858,0,0,1-.134.142l0.084,0.142,0.245,0,0.082,0.181,0.12,0.075,0.031,0.177,0.047,0.079,0.042,0.115,0.021,0.034,0.028,0.079,0.057,0.056-0.006.144-0.22-.026L88.9,205.6l-0.039-.039-0.137-.176-0.14-.034-0.174-.106-0.132-.025-0.063-.225-0.03-.041a0.849,0.849,0,0,0-.089.091c-0.131.2-.106,0.5-0.242,0.692s-0.226.424-.366,0.611-0.4.289-.548,0.471-0.181.468-.333,0.643-0.332.348-.491,0.516-0.339.342-.506,0.5-0.318.375-.495,0.519a6.926,6.926,0,0,1-.695.252,5.283,5.283,0,0,1-.6.35,3.709,3.709,0,0,1-.637.291,2.632,2.632,0,0,1-.7.038,4.9,4.9,0,0,1-.717-0.048,5.2,5.2,0,0,1-.754.019c-0.223-.061-0.423-0.248-0.663-0.343a6.979,6.979,0,0,1-.731-0.178c-0.21-.1-0.351-0.364-0.57-0.5-0.2-.121-0.349-0.333-0.557-0.479s-0.461-.179-0.662-0.337c-0.185-.147-0.346-0.336-0.538-0.5s-0.354-.325-0.538-0.5-0.485-.2-0.662-0.38-0.283-.4-0.453-0.589-0.156-.505-0.32-0.7-0.489-.223-0.648-0.418-0.271-.407-0.425-0.606-0.273-.4-0.422-0.606-0.388-.32-0.533-0.524-0.268-.409-0.409-0.616-0.058-.545-0.195-0.753-0.324-.369-0.459-0.58-0.254-.414-0.385-0.626-0.354-.355-0.483-0.57-0.121-.5-0.246-0.712a0.679,0.679,0,0,1-.14-0.694c0.149-.178.466-0.221,0.619-0.4s0.223-.424.375-0.61,0.209-.44.363-0.63,0.385-.294.535-0.482,0.445-.252.6-0.443,0.15-.489.3-0.682,0.339-.336.485-0.528,0.163-.47.308-0.664,0.489-.229.633-0.424,0.183-.457.326-0.655,0.215-.434.357-0.632,0.451-.262.591-0.46,0.078-.525.216-0.723,0.355-.332.491-0.532,0.222-.424.358-0.624,0.285-.382.42-0.584,0.214-.43.348-0.633,0.453-.273.586-0.478,0.211-.433.343-0.638,0.2-.441.332-0.647,0.306-.374.436-0.58,0.18-.455.309-0.663,0.318-.368.447-0.577,0.247-.407.373-0.614,0.24-.413.365-0.62,0.128-.48.253-0.688,0.214-.428.338-0.636,0.437-.3.56-0.505,0.047-.527.17-0.737,0.339-.355.461-0.565,0.246-.411.367-0.621,0.252-.409.373-0.619,0.269-.4.388-0.61,0.054-.52.174-0.732a0.911,0.911,0,0,1,.626-0.376c0.27,0,.532.2,0.777,0.187,0.272-.015.531-0.04,0.772-0.069,0.269-.032.537-0.02,0.769-0.068a4.641,4.641,0,0,0,.707-0.329,2.631,2.631,0,0,0,.614-0.434,1.442,1.442,0,0,0,.494-0.5,1.207,1.207,0,0,0,.152-0.672,1.58,1.58,0,0,0-.029-0.609,2.025,2.025,0,0,0-.309-0.547,4.357,4.357,0,0,0-.521-0.375,5.756,5.756,0,0,0-.346-0.605c-0.168-.121-0.418-0.144-0.61-0.269-0.307-.194-0.211-0.348-0.519-0.539s-0.32-.173-0.628-0.366-0.431.009-.739-0.182-0.187-.383-0.494-0.574-0.3-.2-0.606-0.387-0.307-.188-0.612-0.377-0.375-.076-0.679-0.266-0.363-.1-0.669-0.291-0.338-.135-0.644-0.326-0.22-.326-0.525-0.516-0.232-.309-0.538-0.5-0.454.051-.758-0.138S80.1,168.886,79.8,168.7s-0.3-.194-0.606-0.383-0.459.057-.764-0.133-0.137-.46-0.441-0.649-0.372-.079-0.675-0.268-0.249-.273-0.551-0.462-0.427.011-.729-0.178-0.235-.294-0.538-0.482-0.341-.127-0.643-0.315-0.3-.191-0.606-0.38-0.264-.255-0.568-0.445a0.354,0.354,0,0,0-.168-0.041,0.632,0.632,0,0,0-.153-0.043,0.564,0.564,0,0,0-.261.272c-0.043.218-.061,0.453-0.109,0.695-0.045.22,0.009,0.471-.041,0.711-0.047.223,0.07,0.49,0.017,0.731-0.049.222-.348,0.4-0.4,0.636s-0.148.444-.206,0.681,0.133,0.514.072,0.749-0.322.4-.386,0.633-0.193.431-.259,0.666,0.12,0.526.05,0.761-0.162.442-.235,0.673-0.1.463-.171,0.694-0.248.412-.326,0.64-0.154.445-.234,0.672-0.151.448-.233,0.674-0.054.485-.139,0.712-0.342.376-.429,0.6-0.2.43-.287,0.656-0.214.425-.306,0.649,0.027,0.527-.067.75-0.314.385-.411,0.608-0.166.449-.264,0.672-0.057.5-.158,0.721-0.394.346-.5,0.568-0.279.391-.383,0.609,0,0.524-.108.741-0.133.464-.24,0.68-0.464.3-.573,0.514-0.247.407-.358,0.622,0,0.537-.108.751a0.61,0.61,0,0,1-.575.178c-0.023,0-.061.2-0.084,0.2a0.625,0.625,0,0,1-.349-0.575c-0.053-.223-0.206-0.43-0.26-0.672-0.05-.223-0.286-0.417-0.337-0.658-0.048-.226-0.079-0.467-0.127-0.709-0.045-.227-0.023-0.477-0.069-0.72s-0.152-.454-0.195-0.7c-0.04-.228.212-0.515,0.171-0.758s-0.075-.465-0.113-0.709-0.062-.469-0.1-0.714-0.114-.461-0.149-0.7-0.121-.462-0.153-0.706-0.265-.445-0.295-0.689-0.064-.471-0.093-0.714-0.013-.477-0.04-0.722,0.014-.481-0.011-0.725-0.136-.467-0.16-0.712,0.034-.485.011-0.73,0.055-.488.033-0.733-0.072-.473-0.092-0.717,0.044-.481.024-0.725-0.205-.462-0.223-0.705,0.178-.492.16-0.735a3.522,3.522,0,0,0-.048-0.351l-0.393.1-0.067-.275-0.175-.081,0.018-.289-0.049-.116-0.025-.179-0.021-.051-0.016-.123-0.075-.072,0.067-.247,0.367-.043,0.1,0.17L63.013,168l0.069,0.1,0-.023c-0.015-.237-0.138-0.471-0.153-0.714s0.127-.488.112-0.732-0.124-.472-0.137-0.715-0.059-.478-0.073-0.722,0.127-.487.115-0.732-0.013-.48-0.025-0.724,0.008-.482,0-0.727-0.195-.472-0.206-0.718,0.031-.483.02-0.727-0.17-.477-0.179-0.721,0.145-.489.136-0.734a0.514,0.514,0,0,1,.116-0.4,0.485,0.485,0,0,1,.4-0.051c0.367,0,.367-0.231.733-0.231s0.367,0.1.733,0.1,0.366-.168.731-0.168,0.365,0.135.73,0.135,0.363-.086.726-0.086,0.364,0.1.727,0.1,0.364-.057.728-0.057,0.365,0.149.729,0.149,0.363,0.09.726,0.09,0.364-.325.727-0.325,0.364,0.146.728,0.146,0.363,0.068.725,0.068,0.362-.038.724-0.038,0.362,0.115.724,0.115,0.364-.06.727-0.06,0.363-.025.726-0.025,0.36-.214.721-0.214,0.361,0.169.72,0.169,0.36,0.042.72,0.042,0.362-.036.725-0.036,0.362-.075.724-0.075,0.362,0.154.725,0.154,0.363-.243.726-0.243,0.362,0.27.725,0.27,0.362-.2.724-0.2,0.362,0.1.723,0.1,0.362-.037.724-0.037,0.361,0.148.723,0.148,0.363-.042.725-0.042,0.363-.2.725-0.2,0.363,0.1.725,0.1,0.361,0.035.723,0.035,0.361,0.115.723,0.115,0.361-.02.721-0.02,0.361,0.026.722,0.026,0.361-.022.722-0.022,0.361-.151.722-0.151,0.361,0.173.723,0.173a3.281,3.281,0,0,0,.671-0.223,1.637,1.637,0,0,0,.58-0.283,0.869,0.869,0,0,0,.364-0.459,1.562,1.562,0,0,0,.41-0.59,1.516,1.516,0,0,0-.511-0.76,3.578,3.578,0,0,0-.4-0.822c-0.125-.126-0.166-0.087-0.3-0.209-0.256-.242-0.3-0.192-0.564-0.43s-0.162-.346-0.422-0.584-0.283-.211-0.544-0.448-0.406-.075-0.666-0.311-0.1-.409-0.36-0.643-0.374-.109-0.633-0.345-0.3-.19-0.555-0.424-0.135-.366-0.391-0.6-0.306-.182-0.565-0.416-0.172-.328-0.431-0.563-0.363-.12-0.622-0.355-0.171-.328-0.429-0.563-0.2-.29-0.462-0.524-0.453-.02-0.709-0.254-0.228-.27-0.483-0.509a3.65,3.65,0,0,0-.621-0.571,0.361,0.361,0,0,1-.1-0.109l-0.182.049-0.3.149,0.091-.225,0.124-.234-0.081-.065,0.136-.2,0.277-.451,0.112-.041c0.027-.112.053-0.228,0.091-0.353a4.513,4.513,0,0,0,.171-0.772c0.031-.233-0.077-0.5-0.077-0.789,0-.248-0.048-0.483-0.069-0.727s0.208-.526.165-0.767-0.131-.488-0.2-0.725-0.118-.49-0.2-0.722-0.162-.479-0.269-0.7-0.263-.43-0.389-0.643-0.351-.365-0.495-0.568-0.426-.283-0.585-0.473-0.162-.51-0.336-0.689-0.44-.249-0.626-0.414-0.226-.5-0.424-0.653-0.564-.058-0.771-0.2-0.337-.377-0.552-0.5-0.495-.111-0.718-0.225-0.377-.308-0.593-0.406-0.441-.169-0.667-0.254S76.237,136.8,76,136.734s-0.448-.157-0.689-0.217c-0.225-.055-0.459-0.123-0.705-0.172-0.226-.045-0.461-0.109-0.709-0.15-0.228-.038-0.459-0.13-0.707-0.166-0.229-.032-0.484.043-0.733,0.011-0.231-.03-0.482.042-0.731,0.012-0.232-.026-0.467-0.078-0.717-0.1-0.23-.025-0.48.053-0.728,0.029-0.231-.023-0.473-0.022-0.721-0.047s-0.455-.223-0.7-0.246-0.471-.075-0.718-0.1-0.491.138-.738,0.115-0.453-.285-0.7-0.309c-0.121-.011-0.138.239-0.26,0.233s-0.1-.04-0.145.066c-0.152.362-.407,0.256-0.559,0.618a0.58,0.58,0,0,0,.116.413c0.16,0.194.266,0.419,0.413,0.6s0.509,0.224.653,0.408,0.226,0.446.366,0.631,0.421,0.3.556,0.49,0.143,0.5.273,0.692,0.321,0.374.445,0.573,0.281,0.4.4,0.605,0.1,0.494.211,0.707,0.318,0.379.419,0.6,0.169,0.449.264,0.677,0.268,0.408.357,0.64,0.224,0.427.309,0.662-0.027.516,0.055,0.753c0.077,0.22.294,0.4,0.375,0.637,0.075,0.221.2,0.435,0.278,0.673,0.075,0.221.106,0.467,0.186,0.7,0.06,0.18-.18.261-0.12,0.44,0.076,0.235.2,0.45,0.275,0.668s0.279,0.414.37,0.626c0.1,0.227.236,0.42,0.341,0.623a6.234,6.234,0,0,0,.375.6,6.7,6.7,0,0,0,.237.725,4.617,4.617,0,0,0,.731.262,3.277,3.277,0,0,0,.58.364,3.715,3.715,0,0,0,.61.368,4.554,4.554,0,0,0,.687.264,6.7,6.7,0,0,0,.732.018c0.179,0,.365-0.025.546-0.037s0.348-.155.526-0.179c0.026,0,.056-0.075.082-0.075a0.794,0.794,0,0,1,.574.328,0.649,0.649,0,0,1-.156.638c-0.215.283-.288,0.226-0.5,0.508s0.022,0.467-.2.749l-0.434.56c-0.218.28-.27,0.24-0.487,0.52s-0.271.236-.487,0.514-0.132.343-.346,0.624a0.851,0.851,0,0,1-.57.32c-0.372,0-.372-0.174-0.745-0.174s-0.372.072-.745,0.072-0.371.014-.743,0.014-0.37-.035-0.742-0.035-0.369.008-.737,0.008-0.37.035-.74,0.035-0.37.05-.739,0.05-0.371-.155-0.741-0.155S68.476,156,68.107,156s-0.369.087-.738,0.087-0.37-.192-0.74-0.192-0.368.01-.737,0.01-0.368.1-.735,0.1-0.369.175-.737,0.175-0.369-.262-0.739-0.262-0.368.187-.737,0.187a0.579,0.579,0,0,1-.517-0.609c-0.007-.247.063-0.489,0.057-0.724s-0.03-.485-0.036-0.72-0.026-.483-0.032-0.718-0.279-.477-0.284-0.711,0.18-.489.175-0.722-0.061-.48-0.066-0.712,0.14-.485.135-0.72-0.259-.476-0.263-0.712,0.084-.482.08-0.719-0.072-.479-0.076-0.716,0.244-.483.24-0.722-0.117-.475-0.121-0.713c0-.165.115-0.168,0.112-0.333,0-.259-0.011-0.514-0.015-0.765s-0.167-.512-0.171-0.764-0.074-.508-0.079-0.758-0.057-.511-0.062-0.763,0.065-.511.059-0.763a0.515,0.515,0,0,1,.4-0.411c0.221-.111.408-0.26,0.6-0.363,0.219-.119.415-0.247,0.6-0.359a4.741,4.741,0,0,0,.464-0.535,2.679,2.679,0,0,0,.431-0.5,1.95,1.95,0,0,0,.409-0.518,2.237,2.237,0,0,0,.257-0.667,2.163,2.163,0,0,0-.181-0.773,1.773,1.773,0,0,0-.577-0.508,2.278,2.278,0,0,0-.591-0.424,4.684,4.684,0,0,0-.671-0.351c-0.244-.073-0.52-0.011-0.767-0.066-0.353-.076-0.324-0.214-0.677-0.289s-0.362-.034-0.715-0.11-0.342-.12-0.695-0.195-0.365-.01-0.717-0.086-0.33-.167-0.679-0.242a0.678,0.678,0,0,0-.263-0.007l-0.022.058-0.046.078-0.032.178-0.12.075-0.082.181-0.244,0-0.2.326-0.118.03a1.4,1.4,0,0,0-.452.26,0.348,0.348,0,0,1,0-.283l0.153-.113,0.036-.234,0.061-.038,0.122-.036,0.072-.1,0.062-.225,0.133-.025,0.171-.1c-0.314-.07-0.326-0.106-0.664-0.178s-0.311-.262-0.663-0.336-0.375.046-.725-0.029-0.371.022-.721-0.052-0.353-.068-0.7-0.143-0.3-.3-0.649-0.376-0.375.045-.724-0.029-0.352-.058-0.7-0.133-0.34-.123-0.691-0.2-0.361-.016-0.711-0.09-0.335-.134-0.683-0.208-0.316-.216-0.663-0.29-0.4.165-.745,0.091-0.314-.224-0.661-0.3-0.326-.182-0.675-0.257-0.385.1-.734,0.022-0.339-.133-0.69-0.2a0.647,0.647,0,0,0-.326.009,0.587,0.587,0,0,0,.083.367c0.051,0.232-.1.509-0.046,0.744s0.1,0.469.156,0.71,0.218,0.446.268,0.688,0.108,0.467.155,0.708,0.089,0.474.135,0.719,0.157,0.459.2,0.7,0.089,0.471.13,0.716-0.011.488,0.028,0.734,0.118,0.467.153,0.714,0.126,0.468.16,0.715,0.033,0.48.063,0.727-0.02.486,0.009,0.733,0.139,0.468.166,0.715,0.075,0.476.1,0.724-0.059.493-.036,0.741,0.116,0.473.137,0.72-0.127.494-.107,0.742,0.123,0.474.142,0.721,0,0.484.014,0.731,0.216,0.467.232,0.714,0,0.484.015,0.73-0.116.492-.1,0.739a3.023,3.023,0,0,1,.269.656c0.013,0.2.042,0.427,0.057,0.676,0.012,0.211-.179.449-0.166,0.686,0.012,0.218-.005.446,0.007,0.68s0.245,0.436.257,0.666c0,0.058.049,0.056,0.052,0.115,0.014,0.259-.3.5-0.288,0.7,0.015,0.248.222,0.451,0.237,0.662s-0.106.443-.092,0.685a0.357,0.357,0,0,1-.149.319,0.484,0.484,0,0,1-.309.262c-0.361,0-.361,0-0.723,0s-0.362.04-.723,0.04-0.361-.059-0.721-0.059-0.36.114-.72,0.114-0.358-.068-0.716-0.068-0.359.156-.718,0.156-0.359-.3-0.718-0.3-0.359.151-.719,0.151-0.358.117-.716,0.117-0.359-.019-0.717-0.019-0.359-.277-0.718-0.277-0.358.26-.716,0.26-0.357-.114-0.714-0.114-0.357.115-.714,0.115-0.359-.24-0.718-0.24-0.357.18-.715,0.18-0.355-.2-0.712-0.2-0.355.11-.71,0.11-0.355.137-.71,0.137-0.357-.11-0.715-0.11-0.357.117-.714,0.117-0.357.029-.715,0.029-0.358-.2-0.716-0.2-0.358.114-.716,0.114-0.356.023-.714,0.023-0.356.089-.713,0.089-0.357-.3-0.714-0.3-0.357.157-.714,0.157-0.357-.151-0.714-0.151-0.358.1-.716,0.1-0.358.14-.715,0.14-0.356-.095-0.713-0.095a0.639,0.639,0,0,1-.246,0c-0.331-.136-0.373-0.036-0.7-0.172s-0.3-.21-0.634-0.346-0.291-.233-0.622-0.368-0.3-.219-0.627-0.355-0.432.117-.761-0.017-0.221-.4-0.55-0.534-0.411.063-.74-0.073-0.254-.321-0.584-0.457-0.315-.169-0.643-0.305-0.379-.013-0.708-0.148A1.335,1.335,0,0,1,18,153.129a0.151,0.151,0,0,1-.073.1,0.181,0.181,0,0,1-.135.02,0.163,0.163,0,0,0-.116.018,0.343,0.343,0,0,1-.116.043,0.353,0.353,0,0,0-.107.04,0.429,0.429,0,0,0-.091.068,0.394,0.394,0,0,1-.1.076,0.553,0.553,0,0,1-.109.051,0.965,0.965,0,0,0-.1.05,0.328,0.328,0,0,0-.088.072,0.345,0.345,0,0,1-.1.08,0.355,0.355,0,0,1-.115.044,0.378,0.378,0,0,0-.107.043c-0.051.029-.078,0.042-0.1,0.055s-0.054.027-.106,0.057a0.427,0.427,0,0,0-.093.068,0.446,0.446,0,0,1-.1.071c-0.051.03-.075,0.046-0.1,0.062s-0.05.033-.1,0.062a0.192,0.192,0,0,0-.08.082,0.23,0.23,0,0,1-.092.094,0.553,0.553,0,0,1-.111.049,0.549,0.549,0,0,0-.106.047l-0.016.007,1.281-1.588c-0.012,0-.02,0-0.033-0.007-0.328-.135-0.3-0.211-0.624-0.346s-0.351-.078-0.679-0.213-0.257-.311-0.586-0.446-0.311-.177-0.639-0.311-0.324-.143-0.651-0.277-0.32-.148-0.646-0.283-0.329-.125-0.655-0.259-0.337-.1-0.663-0.237-0.336-.11-0.662-0.244-0.409.06-.737-0.074-0.314-.17-0.642-0.305-0.315-.168-0.642-0.3a2.142,2.142,0,0,0-.085-0.215,0.532,0.532,0,0,0-.206.148,0.3,0.3,0,0,0,.028.291c0.044,0.223-.046.484,0,0.731,0.041,0.226.246,0.434,0.288,0.68,0.038,0.228.045,0.473,0.084,0.72,0.036,0.23-.121.5-0.085,0.743s0.267,0.442.3,0.688-0.032.485,0,.731,0.065,0.47.094,0.716-0.055.487-.028,0.733,0.263,0.452.288,0.7,0.066,0.475.09,0.72-0.037.484-.014,0.729,0.093,0.471.114,0.716-0.039.484-.02,0.728,0.121,0.472.139,0.717,0.077,0.476.094,0.721-0.026.486-.011,0.731-0.044.486-.03,0.732,0.08,0.48.094,0.726-0.039.486-.027,0.732,0.078,0.483.09,0.729-0.19.489-.181,0.733,0.033,0.48.042,0.724,0.2,0.473.213,0.718-0.155.486-.147,0.73,0.054,0.48.06,0.725,0.03,0.481.036,0.725,0.239,0.478.244,0.722-0.173.486-.169,0.731,0.173,0.481.176,0.726,0.026,0.483.029,0.727-0.2.487-.2,0.731,0.156,0.483.158,0.728-0.058.485-.058,0.73-0.047.484-.047,0.729-0.169.489-.169,0.731,0.122,0.486.12,0.727-0.1.482-.1,0.723-0.017.483-.02,0.724,0.044,0.482.04,0.722,0.246,0.486.242,0.725-0.2.477-.2,0.716,0.017,0.482.011,0.721,0.027,0.483.021,0.722,0.106,0.485.1,0.724-0.286.471-.294,0.711,0.108,0.483.1,0.721-0.168.473-.178,0.711,0.116,0.484.106,0.721-0.164.471-.176,0.708,0.191,0.49.179,0.729-0.193.47-.2,0.709,0.142,0.488.129,0.726-0.009.48-.023,0.718-0.168.469-.184,0.707-0.055.476-.071,0.713,0.138,0.489.121,0.726-0.009.48-.028,0.717-0.267.458-.286,0.695-0.045.474-.065,0.711,0.073,0.485.052,0.721,0.059,0.485.037,0.721-0.056.473-.079,0.71S9.527,195,9.5,195.236s-0.085.472-.11,0.709-0.139.466-.166,0.7-0.078.472-.107,0.708-0.151.463-.181,0.7,0.033,0.485,0,.721,0.049,0.488.018,0.723-0.209.455-.242,0.69-0.045.476-.08,0.71,0.019,0.485-.016.721-0.221.448-.257,0.682,0.142,0.506.1,0.739-0.136.462-.175,0.7,0.067,0.5.026,0.729-0.128.462-.17,0.7-0.259.436-.3,0.67-0.022.48-.067,0.711-0.161.455-.208,0.686,0.021,0.49-.028.722-0.05.476-.1,0.707-0.117.462-.169,0.692-0.062.475-.116,0.7-0.305.417-.36,0.646,0.084,0.51.027,0.739-0.377.4-.436,0.627-0.008.492-.069,0.721-0.119.462-.182,0.691-0.1.469-.167,0.7-0.021.493-.088,0.72-0.248.425-.318,0.651-0.08.477-.153,0.7-0.2.436-.277,0.662-0.265.414-.341,0.637-0.143.455-.222,0.679-0.081.479-.163,0.7-0.132.461-.217,0.682-0.354.374-.441,0.594,0.066,0.541-.024.759-0.3.393-.392,0.611-0.211.428-.306,0.644-0.17.447-.269,0.661-0.061.5-.163,0.713-0.3.385-.407,0.6-0.1.484-.21,0.694-0.259.406-.37,0.615-0.376.338-.491,0.544-0.15.463-.268,0.667-0.324.363-.446,0.565-0.263.4-.39,0.6a0.361,0.361,0,0,0,.029.248,0.47,0.47,0,0,0,.069.269c0.454,0.261.548,0.1,1,.359a0.233,0.233,0,0,0,.1-0.053,0.317,0.317,0,0,0,.158.074c0.187-.154.307-0.386,0.493-0.541s0.395-.276.578-0.433,0.39-.282.57-0.439,0.324-.359.5-0.519,0.5-.161.679-0.322,0.264-.424.44-0.587,0.371-.306.545-0.471,0.239-.444.412-0.61,0.494-.18.664-0.348,0.3-.383.465-0.553,0.452-.23.618-0.4,0.332-.349.5-0.523,0.179-.491.342-0.667,0.407-.278.567-0.456,0.353-.328.512-0.508,0.228-.439.384-0.62,0.267-.4.421-0.584,0.491-.216.643-0.4,0.075-.558.224-0.744,0.453-.251.6-0.44,0.308-.367.454-0.557,0.358-.331.5-0.522,0.121-.508.261-0.7,0.419-.291.558-0.487,0.175-.462.311-0.66,0.258-.4.392-0.6,0.245-.413.376-0.613,0.338-.353.466-0.554,0.122-.489.247-0.694,0.375-.332.5-0.537,0.314-.372.434-0.579,0.126-.48.243-0.689,0.241-.414.355-0.624,0.189-.442.3-0.654,0.281-.393.39-0.606,0.208-.432.314-0.646,0.237-.417.34-0.633,0.144-.461.243-0.678,0.125-.468.221-0.687,0.309-.387.4-0.607,0.054-.5.144-0.718,0.353-.375.439-0.6,0.154-.455.237-0.68,0.226-.429.306-0.654a0.559,0.559,0,0,1,.263-0.433,0.672,0.672,0,0,1,.17.046,0.489,0.489,0,0,1,.271.195c0.193,0.15.458,0.195,0.637,0.339s0.347,0.332.522,0.481,0.324,0.352.493,0.5,0.466,0.2.63,0.36,0.38,0.3.538,0.467,0.283,0.393.432,0.565,0.355,0.331.494,0.513,0.215,0.435.342,0.627,0.34,0.353.454,0.554,0.038,0.514.138,0.726,0.3,0.382.382,0.6,0.236,0.417.31,0.644-0.094.515-.031,0.746,0.145,0.44.2,0.676,0.366,0.4.414,0.635-0.114.5-.07,0.735,0,0.473.04,0.713,0.1,0.454.141,0.693,0.06,0.463.1,0.7a0.473,0.473,0,0,0,.434.263l0.022,0.057c0.238-.034.486-0.014,0.716-0.055s0.453-.186.682-0.235,0.446-.174.671-0.23,0.466-.1.69-0.16,0.422-.234.643-0.306,0.452-.127.67-0.206,0.432-.189.647-0.275,0.527,0.028.739-.065,0.321-.438.529-0.54,0.5-.054.707-0.163,0.432-.2.631-0.316,0.391-.275.586-0.4,0.382-.286.572-0.415,0.481-.146.665-0.282,0.311-.383.489-0.524,0.266-.424.438-0.571,0.551-.1.716-0.251c0.181-.167.143-0.544,0.3-0.7,0.177-.176.489-0.2,0.635-0.356a6.673,6.673,0,0,0,.326-0.649c0.2-.238.343-0.42,0.436-0.545,0.146-.195.478-0.251,0.614-0.448s0.156-.478.284-0.68,0.337-.362.455-0.571,0.162-.46.271-0.676,0.306-.389.4-0.613,0.1-.479.189-0.708,0.21-.432.29-0.666-0.033-.51.037-0.746,0.2-.435.267-0.675,0.2-.441.257-0.682-0.019-.492.03-0.735,0.213-.444.258-0.688-0.048-.491-0.008-0.734,0.029-.478.065-0.723,0.054-.476.086-0.722,0.268-.447.3-0.693,0.12-.469.147-0.714-0.216-.5-0.191-0.751,0.275-.454.3-0.7,0.043-.478.065-0.723-0.186-.5-0.166-0.741,0.077-.474.1-0.72,0.154-.47.172-0.715-0.127-.49-0.11-0.736,0.26-.465.276-0.711-0.063-.487-0.048-0.733-0.019-.485,0-0.731-0.034-.486-0.02-0.732,0.03-.484.043-0.73,0.028-.483.041-0.73,0.069-.483.082-0.729,0.293-.471.306-0.718-0.176-.5-0.164-0.744,0.01-.481.022-0.726,0.128-.476.14-0.72,0.033-.481.044-0.725a0.72,0.72,0,0,1,.156-0.592c0.228-.128.437-0.254,0.638-0.371,0.228-.132.467-0.2,0.662-0.326,0.224-.139.456-0.222,0.639-0.348,0.222-.155.425-0.285,0.593-0.426a3.177,3.177,0,0,0,.42-0.59,2.844,2.844,0,0,0,.561-0.514,2.426,2.426,0,0,0,.019-0.755,2.06,2.06,0,0,0-.179-0.805,3.2,3.2,0,0,0-.35-0.773,2.873,2.873,0,0,0-.708-0.467c-0.266-.239-0.119-0.4-0.383-0.642s-0.292-.211-0.556-0.451-0.442-.044-0.706-0.284-0.134-.382-0.4-0.622-0.233-.27-0.5-0.509-0.289-.209-0.552-0.447-0.346-.144-0.608-0.381l-0.517-.473c-0.262-.237-0.281-0.217-0.542-0.455s-0.248-.252-0.51-0.49-0.131-.382-0.393-0.62-0.432-.05-0.693-0.287-0.15-.358-0.411-0.6-0.381-.1-0.642-0.343-0.135-.375-0.4-0.615a2.7,2.7,0,0,0-.441-0.523,6.8,6.8,0,0,0-.647-0.259,3.311,3.311,0,0,0-.566-0.39,2.307,2.307,0,0,0-.685-0.159,2.058,2.058,0,0,0-.7.4,1.822,1.822,0,0,0-.651.342,4.018,4.018,0,0,0-.572.526,7.454,7.454,0,0,0-.576.554c-0.2.3-.049,0.4-0.249,0.693s-0.3.227-.5,0.523-0.01.423-.209,0.718-0.357.189-.556,0.484-0.143.33-.341,0.623-0.182.305-.38,0.6-0.289.23-.487,0.523-0.25.261-.446,0.557a0.561,0.561,0,0,1-.35.406c-0.368,0-.368.113-0.737,0.113s-0.369-.073-0.737-0.073H28.682c-0.367,0-.367.056-0.734,0.056s-0.365-.161-0.73-0.161-0.366.169-.732,0.169-0.366-.166-0.732-0.166-0.367.006-.733,0.006-0.365.12-.731,0.12a0.822,0.822,0,0,1-.5-0.2,0.767,0.767,0,0,1,.023-0.5c0.019-.436.1-0.432,0.118-0.869,0.011-.233-0.027-0.468-0.017-0.7s-0.1-.469-0.087-0.7,0.042-.464.053-0.7-0.143-.474-0.133-0.71,0.186-.457.2-0.693,0.062-.465.072-0.7-0.005-.465,0-0.7-0.148-.47-0.138-0.707,0.218-.456.228-0.695-0.065-.469-0.056-0.709-0.04-.466-0.031-0.7,0.085-.46.094-0.7-0.012-.464,0-0.7,0.012-.464.02-0.7,0.111-.462.119-0.7-0.132-.47-0.125-0.71,0.145-.463.152-0.7-0.2-.474-0.189-0.714,0.338-.457.344-0.695a0.538,0.538,0,0,1,.4-0.646c0.369,0,.369.083,0.738,0.083s0.37,0.133.739,0.133,0.368-.271.736-0.271,0.367,0.037.735,0.037,0.366,0.176.731,0.176,0.367-.113.733-0.113,0.367,0.069.733,0.069,0.367-.155.735-0.155,0.365-.035.732-0.035,0.365,0.3.732,0.3,0.366,0,.733,0,0.365-.186.73-0.186,0.365,0.2.729,0.2,0.365-.072.73-0.072,0.366-.027.732-0.027,0.366-.1.731-0.1,0.363,0.164.727,0.164,0.363-.162.725-0.162,0.363-.048.725-0.048,0.365-.026.73-0.026,0.365,0.293.73,0.293,0.365-.011.73-0.011a1.788,1.788,0,0,0,.585-0.179l0.093-.119a1.385,1.385,0,0,0,.222-0.683,0.7,0.7,0,0,1,.45.215l-0.036.249,0.318,0.219,0,0.006a2.413,2.413,0,0,0,.561.1c0.364,0,.364.022,0.728,0.022s0.365-.1.729-0.1,0.365,0.232.729,0.232,0.365,0,.73,0,0.366-.018.731-0.018,0.365-.036.73-0.036,0.364-.011.728-0.011a0.656,0.656,0,0,1,.686.47c0.02,0.246-.208.511-0.187,0.755s0.333,0.458.354,0.7,0,0.487.023,0.727-0.085.493-.064,0.732,0.056,0.482.078,0.722,0.083,0.479.1,0.718,0.022,0.484.044,0.722-0.12.5-.1,0.734,0.245,0.459.268,0.7-0.062.493-.038,0.731,0.158,0.471.183,0.709,0.063,0.479.088,0.717-0.036.489-.011,0.726,0,0.486.027,0.722,0.154,0.468.181,0.7,0.057,0.478.084,0.714-0.088.494-.06,0.729,0.05,0.478.079,0.713,0.315,0.444.344,0.678-0.1.5-.074,0.737,0.051,0.481.083,0.717,0.019,0.486.052,0.722,0.275,0.449.308,0.684-0.173.513-.139,0.748,0.158,0.464.194,0.7-0.028.492,0.008,0.727,0.079,0.476.117,0.71,0.3,0.44.337,0.674,0.1,0.472.136,0.7-0.2.524-.157,0.757,0.245,0.445.288,0.678-0.012.492,0.032,0.724,0.19,0.453.236,0.686,0.189,0.451.236,0.683-0.146.521-.1,0.752,0.17,0.455.221,0.686,0.065,0.477.117,0.709,0.346,0.412.4,0.642,0.088,0.47.144,0.7,0.159,0.453.216,0.682,0.021,0.489.082,0.717,0.128,0.461.19,0.69,0.192,0.442.257,0.67,0.179,0.444.246,0.671-0.048.513,0.021,0.741,0,0.5.074,0.726,0.282,0.413.355,0.64,0.109,0.468.184,0.693,0.2,0.439.277,0.664,0.11,0.469.189,0.694,0.354,0.381.436,0.607-0.005.511,0.078,0.736,0.1,0.477.18,0.7,0.314,0.393.4,0.618,0.224,0.427.312,0.652,0.227,0.427.317,0.651a0.79,0.79,0,0,1-.18.647c-0.15.192-.363,0.334-0.513,0.523s-0.149.5-.3,0.685-0.472.24-.622,0.426-0.16.49-.311,0.675-0.367.319-.518,0.5-0.309.37-.463,0.552-0.3.377-.451,0.559-0.277.394-.432,0.575-0.433.259-.588,0.437-0.3.375-.452,0.552-0.347.334-.505,0.512-0.308.367-.467,0.544-0.26.41-.42,0.586-0.365.314-.525,0.489-0.346.331-.508,0.5-0.174.492-.336,0.665-0.549.137-.712,0.308-0.292.379-.456,0.549-0.277.394-.442,0.562-0.41.263-.576,0.43-0.331.339-.5,0.5-0.215.462-.384,0.628-0.48.193-.649,0.358-0.329.347-.5,0.51-0.247.434-.418,0.6-0.449.219-.622,0.38-0.266.414-.44,0.574-0.343.332-.518,0.491-0.317.36-.493,0.517-0.3.376-.481,0.532-0.377.294-.553,0.449-0.4.271-.575,0.425-0.421.24-.6,0.391-0.39.276-.57,0.426-0.306.376-.486,0.524-0.293.394-.474,0.54-0.413.247-.6,0.393-0.3.39-.48,0.534-0.49.146-.674,0.288-0.361.307-.545,0.448-0.29.4-.474,0.542-0.553.052-.738,0.191-0.251.466-.439,0.6-0.481.156-.67,0.292-0.253.47-.442,0.6-0.417.244-.607,0.378-0.363.32-.553,0.453-0.523.09-.713,0.221-0.328.374-.518,0.5-0.392.279-.582,0.408-0.377.3-.565,0.431c-0.145.1-.2,0.019-0.344,0.119a0.238,0.238,0,0,0-.039.2,0.8,0.8,0,0,0-.138.308c0.3,0.363.376,0.3,0.68,0.665a0.387,0.387,0,0,0,.262.105,0.788,0.788,0,0,0,.172.068c0.218-.1.376-0.333,0.6-0.429s0.457-.152.677-0.248,0.407-.267.627-0.364,0.415-.251.635-0.349,0.438-.2.658-0.3,0.5-.061.72-0.16,0.422-.236.641-0.335,0.407-.268.627-0.367,0.473-.125.693-0.225,0.444-.187.663-0.288,0.415-.249.633-0.352,0.5-.074.716-0.176,0.407-.266.624-0.371,0.4-.287.614-0.391,0.394-.29.611-0.4,0.556,0.041.772-.065,0.391-.3.607-0.4,0.444-.19.659-0.3,0.389-.3.6-0.409,0.362-.346.576-0.457,0.558,0.032.771-.08,0.341-.386.554-0.5,0.464-.151.676-0.264,0.331-.4.543-0.515,0.494-.1.7-0.214,0.413-.248.623-0.364,0.474-.138.683-0.256,0.3-.451.5-0.571,0.528-.045.736-0.166,0.334-.381.54-0.5,0.461-.164.667-0.287,0.4-.268.6-0.393,0.414-.244.619-0.37,0.4-.274.6-0.4,0.46-.173.663-0.3,0.39-.283.591-0.415,0.483-.142.683-0.275,0.313-.4.513-0.531,0.421-.234.619-0.37,0.354-.334.551-0.472,0.423-.233.619-0.372,0.329-.364.523-0.506,0.486-.149.679-0.293,0.232-.49.424-0.634,0.577-.036.767-0.183,0.338-.35.526-0.5,0.209-.506.4-0.657,0.509-.136.694-0.288a0.511,0.511,0,0,1,.332-0.148c0.032,0,.085-0.14.117-0.134a0.845,0.845,0,0,1,.488.321c0.126,0.213.027,0.56,0.155,0.769s0.462,0.286.589,0.491,0.3,0.387.427,0.59,0.161,0.472.291,0.673,0.25,0.418.384,0.618,0.368,0.338.5,0.537,0.174,0.466.311,0.663,0.152,0.484.291,0.678,0.375,0.33.517,0.525,0.32,0.368.463,0.56,0.136,0.507.282,0.7,0.45,0.265.6,0.454,0.384,0.312.534,0.5,0.224,0.439.376,0.623,0.159,0.5.313,0.679,0.488,0.217.645,0.4,0.272,0.408.432,0.586,0.284,0.4.447,0.574,0.422,0.271.587,0.443,0.169,0.515.337,0.685,0.367,0.323.538,0.49,0.513,0.168.687,0.331,0.269,0.423.445,0.583,0.332,0.359.511,0.516,0.443,0.229.625,0.383,0.442,0.223.626,0.373,0.241,0.473.429,0.619,0.5,0.147.686,0.289,0.379,0.3.572,0.435,0.409,0.253.606,0.385,0.276,0.46.475,0.587,0.5,0.118.7,0.24,0.448,0.187.652,0.3,0.323,0.42.531,0.531,0.489,0.113.7,0.218,0.384,0.322.6,0.421,0.446,0.2.662,0.291,0.436,0.227.656,0.313,0.445,0.211.666,0.288,0.489,0.084.713,0.154,0.494,0.05.719,0.11c0.184,0.05.359,0.1,0.534,0.146a0.222,0.222,0,0,1,.043-0.134c0-.029.01-0.059,0.015-0.09a0.342,0.342,0,0,1-.006-0.151,0.2,0.2,0,0,1,.032-0.082c0-.011-0.008-0.067-0.008-0.079,0-.18.181-0.054,0.28-0.2a0.8,0.8,0,0,0,.124.011c0.012-.061.161,0.038,0.161,0.211,0,0.012.074,0.1,0.068,0.051a0.3,0.3,0,0,1,.041.1,0.258,0.258,0,0,1-.03.184,0.276,0.276,0,0,1,.093.205,0.25,0.25,0,0,1-.051.153,0.177,0.177,0,0,1,0,.023c0.032,0.008.066,0.02,0.1,0.026,0.246,0.046.48,0.1,0.708,0.137,0.249,0.036.509-.132,0.736-0.108,0.252,0.025.467,0.359,0.692,0.371,0.258,0.014.506-.233,0.727-0.233,0.257,0,.512.208,0.748,0.19,0.257-.02.516-0.024,0.749-0.064a7.02,7.02,0,0,0,.733-0.152,6.127,6.127,0,0,0,.7-0.266,5.321,5.321,0,0,0,.641-0.394,4.862,4.862,0,0,0,.471-0.6,5.361,5.361,0,0,0,.615-0.394,5.551,5.551,0,0,0,.513-0.532,5.621,5.621,0,0,0,.215-0.719c0.117-.227.489-0.332,0.571-0.552a5.864,5.864,0,0,0-.009-0.776,6.459,6.459,0,0,0,.11-0.715c0.058-.406.1-0.665,0.1-0.714a17.1,17.1,0,0,1-.175-1.407,4.713,4.713,0,0,0-.282-0.648,3.99,3.99,0,0,0-.263-0.656c-0.12-.213-0.286-0.394-0.392-0.593-0.114-.216-0.219-0.428-0.318-0.629-0.108-.218-0.183-0.443-0.273-0.645-0.1-.224-0.134-0.464-0.213-0.669-0.089-.232-0.216-0.438-0.279-0.647a5.482,5.482,0,0,1-.092-0.7,3.77,3.77,0,0,1-.039-0.688c0-.175.057-0.4,0.079-0.688,0.016-.209-0.123-0.46-0.1-0.72,0.022-.216-0.022-0.459.007-0.707,0.027-.222.33-0.423,0.361-0.669,0.029-.224-0.182-0.49-0.15-0.732,0.03-.226.165-0.445,0.2-0.685s0.149-.449.183-0.688,0.051-.467.086-0.7,0.1-.462.132-0.7,0.013-.477.05-0.714-0.044-.486-0.007-0.724,0.113-.463.151-0.7,0.047-.473.085-0.709,0.043-.474.082-0.709,0.166-.453.205-0.687-0.03-.485.009-0.718,0.175-.449.214-0.681,0.244-.436.283-0.667,0.04-.473.08-0.7-0.1-.5-0.055-0.726,0.166-.45.207-0.678,0.083-.465.124-0.693-0.029-.488.012-0.716,0.356-.418.4-0.644-0.213-.525-0.17-0.75,0.2-.448.247-0.671c0.048-.24.213-0.447,0.257-0.666a0.5,0.5,0,0,0-.153-0.421c-0.354-.2-0.336-0.235-0.69-0.439M24,178.236a5.687,5.687,0,0,1,.709.195,5.338,5.338,0,0,0,.726-0.092c0.358,0,.358-0.143.715-0.143s0.357,0.283.714,0.283,0.356-.186.711-0.186,0.356,0.083.712,0.083,0.356-.2.713-0.2,0.356,0.15.713,0.15,0.356-.019.711-0.019,0.356,0.111.711,0.111a0.672,0.672,0,0,1,.732.47c0.005,0.231-.215.469-0.213,0.709s0.166,0.465.167,0.7-0.092.473-.093,0.715,0.021,0.469.018,0.709-0.013.472-.017,0.712,0.015,0.475.01,0.717-0.111.468-.117,0.708,0.014,0.471.006,0.712-0.161.466-.169,0.707,0.138,0.478.129,0.719-0.062.472-.073,0.713,0.052,0.479.04,0.72-0.076.473-.089,0.714,0.079,0.483.065,0.724-0.193.468-.207,0.71,0.225,0.49.21,0.73-0.354.463-.37,0.695,0.034,0.489.017,0.721,0.229,0.5.211,0.732c-0.019.246-.254,0.466-0.274,0.7-0.022.246-.017,0.485-0.04,0.714-0.025.246,0.094,0.5,0.066,0.725-0.029.246-.049,0.486-0.083,0.71-0.036.246-.336,0.435-0.379,0.656-0.047.247,0.14,0.532,0.084,0.748-0.063.246-.092,0.5-0.168,0.708a0.949,0.949,0,0,1-.127.209c0.054,0.013.108,0.024,0.162,0.032,0.215,0.031.381,0.074,0.387,0.314a0.361,0.361,0,0,1-.388.335,0.675,0.675,0,0,0-.407.171,2.659,2.659,0,0,1-.3.284,2.362,2.362,0,0,0-.28.264c-0.134.145-.2,0.222-0.266,0.312s-0.123.154-.254,0.3a0.514,0.514,0,0,0-.136.291,0.25,0.25,0,0,1-.3.241,0.422,0.422,0,0,1-.458-0.152,2.02,2.02,0,0,0-.151-0.155,1.8,1.8,0,0,1-.264-0.295c-0.034-.046-0.071-0.092-0.117-0.144a2.424,2.424,0,0,1-.56.148c-0.224.013-.461,0.06-0.713,0.06s-0.495-.2-0.742-0.208-0.5.173-.754,0.158-0.5.073-.755,0.051-0.482-.143-0.739-0.167c-0.24-.022-0.47-0.242-0.729-0.267-0.444-.042-0.465.186-0.909,0.145a0.645,0.645,0,0,1-.4-0.3,0.523,0.523,0,0,1-.035-0.449c0.054-.223-0.014-0.48.036-0.715s0.328-.408.375-0.642,0.06-.468.1-0.7-0.151-.5-0.11-0.738,0.2-.443.238-0.679,0.116-.46.151-0.7-0.048-.486-0.015-0.724-0.046-.486-0.015-0.724,0.278-.44.307-0.677-0.126-.491-0.1-0.728c0.023-.2.055-0.4,0.081-0.594l-0.007,0a0.18,0.18,0,0,1-.068-0.12,0.178,0.178,0,0,1,.049-0.109,0.378,0.378,0,0,0,.058-0.121c0-.041.007-0.082,0.008-0.123a0.619,0.619,0,0,0-.031-0.16,0.645,0.645,0,0,1-.039-0.234,0.676,0.676,0,0,0-.031-0.217,0.759,0.759,0,0,1-.032-0.207H22.7a0.569,0.569,0,0,0,.074-0.21c0.023-.235-0.117-0.488-0.095-0.724s-0.025-.478,0-0.714,0.25-.453.27-0.69-0.088-.482-0.069-0.717,0.158-.462.176-0.7,0.034-.471.051-0.706,0.077-.468.094-0.7,0.073-.468.089-0.7-0.046-.479-0.03-0.712-0.065-.479-0.05-0.712,0.042-.472.056-0.705c0-.028.007-0.056,0.009-0.084l-0.1.024-0.067-.275-0.174-.08,0.017-.289-0.049-.116-0.025-.179-0.021-.051-0.016-.123-0.075-.073,0.067-.246,0.367-.043,0.1,0.169,0.05,0.052,0.037,0.053c0-.048.009-0.1,0.011-0.144,0.014-.238-0.171-0.482-0.159-0.713s0.341-.454.354-0.685A0.561,0.561,0,0,1,24,178.236" transform="translate(0)" style="fill:#fff"/><rect width="318.912" height="239.852" style="fill:none"/></svg>