<svg xmlns="http://www.w3.org/2000/svg" viewBox="0 0 51.313 206.821"><title>main_copy</title><path d="M50.487,1.981H44.021l0.956,0.63a0.283,0.283,0,0,1,.162.252c0,0.2-.064.217-0.7,0.4-0.227.451-.584,1.135-1.151,2.035l0.956,0.288a0.339,0.339,0,0,1,.292.306,0.759,0.759,0,0,1-.551.576c0,0.937-.017,2.917-0.017,4.16,0,1.332.13,3.457,0.13,4.771a0.861,0.861,0,0,1-.243.684,1.38,1.38,0,0,1-.972.379,0.659,0.659,0,0,1-.746-0.775c0-.522.1-3.043,0.114-3.619,0-.414.016-3.547,0.016-5.293a18.665,18.665,0,0,1-6.238,5.581l-0.049-.09A29.87,29.87,0,0,0,42.336,3.1a6.043,6.043,0,0,0,.34-1.116H38.3a8.232,8.232,0,0,0-1.75.126l-0.259-.666c0.761,0.072,1.539.108,2.3,0.108h9.2l0.826-1.242A0.407,0.407,0,0,1,48.9.073a0.582,0.582,0,0,1,.292.179l1.377,1.261a0.411,0.411,0,0,1,.162.27,0.192,0.192,0,0,1-.243.2M49.45,11.4c-0.616,0-.859-0.468-1.54-1.765a12.271,12.271,0,0,0-2.884-3.565l0.032-.09c2.431,0.271,5.38,2.557,5.38,4.213A1.1,1.1,0,0,1,49.45,11.4" style="fill:#fff"/><path d="M40.959,26.245c-0.259.612-.6,1.386-1.167,2.485l0.567,0.252a0.306,0.306,0,0,1,.243.252,1.272,1.272,0,0,1-.47.63c-0.016.882-.032,1.71-0.032,3.025,0,2.161.048,4.285,0.1,5.906,0,0.27.016,0.737,0.016,0.828a1.024,1.024,0,0,1-1.1,1.17,0.592,0.592,0,0,1-.729-0.648c0.016-.2.016-0.666,0.033-0.9,0.1-1.764.1-3.114,0.146-8.372A22.347,22.347,0,0,1,36,34.149l-0.1-.108a33.34,33.34,0,0,0,3.127-8.084,7.627,7.627,0,0,0,.243-1.837l2.188,1.206a0.393,0.393,0,0,1,.276.343c0,0.234-.227.341-0.778,0.576m9.674,2.25H42.709a8.57,8.57,0,0,0-1.75.126L40.7,27.955c0.988,0.108,2.122.108,2.3,0.108h5.219l0.68-1.134a0.357,0.357,0,0,1,.243-0.234,0.459,0.459,0,0,1,.292.18l1.28,1.152a0.393,0.393,0,0,1,.162.288c0,0.162-.129.18-0.243,0.18M49.5,36.328c0.016,0.612.1,2.9,0.1,3.385a1.013,1.013,0,0,1-1.2.972c-0.567,0-.567-0.288-0.551-1.206H43.6a0.974,0.974,0,0,1-1.134,1.17c-0.6,0-.6-0.36-0.6-0.72,0-.468.1-2.521,0.1-2.953a17.41,17.41,0,0,0-.145-2.5l1.863,0.774H47.8l0.486-.684a0.384,0.384,0,0,1,.243-0.18,0.575,0.575,0,0,1,.325.2l1,0.81a0.472,0.472,0,0,1,.195.306,1.08,1.08,0,0,1-.551.631M49.207,26.154H44.054a7.4,7.4,0,0,0-1.75.126l-0.26-.666c0.989,0.09,2.123.108,2.3,0.108h2.511l0.665-1.08a0.357,0.357,0,0,1,.243-0.216,0.489,0.489,0,0,1,.308.2l1.215,1.063a0.392,0.392,0,0,1,.162.27,0.2,0.2,0,0,1-.243.2M49.11,30.8H44.086a8.95,8.95,0,0,0-1.75.108l-0.259-.648c0.972,0.09,2.123.108,2.3,0.108h2.577l0.583-1.026a0.363,0.363,0,0,1,.243-0.234,0.577,0.577,0,0,1,.292.2l1.118,1.026a0.358,0.358,0,0,1,.162.27,0.2,0.2,0,0,1-.243.2m0.081,2.359H44.135a8.688,8.688,0,0,0-1.766.126l-0.26-.667c0.989,0.109,2.14.109,2.318,0.109h2.56l0.583-1.045a0.341,0.341,0,0,1,.243-0.234,0.476,0.476,0,0,1,.292.2l1.167,1.063a0.356,0.356,0,0,1,.162.27,0.191,0.191,0,0,1-.243.18m-1.345,2.52H43.584v3.367h4.262V35.679Z" style="fill:#fff"/><path d="M49.417,54.541c-0.7,0-.891-0.54-1.248-1.6a6.284,6.284,0,0,0-1.993-2.97l0.081-.2a6.6,6.6,0,0,1,3.193,1.422,2.8,2.8,0,0,1,1.069,2.089,1.2,1.2,0,0,1-1.1,1.26" style="fill:#fff"/><path d="M43.309,74.83H40.6a6.5,6.5,0,0,1-.275,1.135c0.729,0.071,2.4.611,2.4,1.71a1.042,1.042,0,0,1-.859,1.044c-0.469,0-.567-0.234-0.891-1.062a5.889,5.889,0,0,0-.762-1.369,7.162,7.162,0,0,1-4,4.016l-0.081-.126a9.05,9.05,0,0,0,2.916-5.348H38.123a8.495,8.495,0,0,0-1.75.126l-0.259-.666c0.21,0.017.421,0.036,0.551,0.054L36.6,74.307a14.136,14.136,0,0,0,.956-4.591l1.863,0.7a0.28,0.28,0,0,1,.211.27,0.663,0.663,0,0,1-.567.432c-0.13.252-.2,0.361-0.405,0.7H40.8l0.518-.955a0.361,0.361,0,0,1,.243-0.216,0.64,0.64,0,0,1,.292.18l0.988,0.954a0.4,0.4,0,0,1,.163.271,0.2,0.2,0,0,1-.244.2H40.813a18.144,18.144,0,0,1-.162,2.142h0.778l0.453-.954a0.38,0.38,0,0,1,.211-0.216,0.5,0.5,0,0,1,.308.18l0.989,0.955a0.383,0.383,0,0,1,.162.288,0.2,0.2,0,0,1-.243.18m-4.927-2.575a12.312,12.312,0,0,1-1.669,2.089c0.5,0.036,1.183.053,1.7,0.053h0.7c0.049-.449.114-1.134,0.13-2.142H38.382Zm3.1-2.467h-2.5A1.413,1.413,0,0,1,37.329,68.2c0-3.4,0-3.78-.146-4.375l1.766,0.486a0.4,0.4,0,0,1,.341.253,0.78,0.78,0,0,1-.486.486c0,0.342-.017,1.17-0.017,1.512a6.6,6.6,0,0,0,2.593-2.448l1.475,1.242a0.637,0.637,0,0,1,.21.4c0,0.126-.048.234-0.389,0.234-0.081,0-.453-0.018-0.534-0.018a12.479,12.479,0,0,1-3.355,1.008c0,1.062,0,1.279.795,1.279h1.263c0.535,0,1.086-.162,1.443-1.873H42.4a2.489,2.489,0,0,0,.583,1.495c0.373,0.216.47,0.27,0.47,0.486a1.778,1.778,0,0,1-1.976,1.422m8.734,10.281a5.751,5.751,0,0,1-5.656-3.421,6.572,6.572,0,0,1-2.884,3.619l-0.081-.126a10.434,10.434,0,0,0,2.025-6.482,11.008,11.008,0,0,0-.162-1.962L45.3,72.273a0.378,0.378,0,0,1,.34.27,0.91,0.91,0,0,1-.421.558,13.6,13.6,0,0,1-.5,3.061,9.738,9.738,0,0,0,1.183.864v-6.95H45.2a9.158,9.158,0,0,0-1.767.108l-0.259-.648c0.989,0.09,2.139.108,2.317,0.108h3.16l0.583-.7a0.565,0.565,0,0,1,.26-0.2,0.437,0.437,0,0,1,.243.18l1.215,1.368a0.468,0.468,0,0,1,.13.306c0,0.433-.357.433-0.989,0.433a20.5,20.5,0,0,1-1.928.954l-0.081-.09a8.438,8.438,0,0,0,.616-1.819H47.376v3.709h0.94l0.6-1.242a0.357,0.357,0,0,1,.242-0.234,0.594,0.594,0,0,1,.292.2l1.183,1.26a0.409,0.409,0,0,1,.146.271,0.2,0.2,0,0,1-.243.18h-3.16v3.457a9.328,9.328,0,0,0,2.3.252,9.466,9.466,0,0,0,1.539-.108l0.033,0.126a2.889,2.889,0,0,0-1.037,2.124M48.98,66.1a13.661,13.661,0,0,1-1.879,1.08,1.5,1.5,0,0,1,.664,1.207,0.963,0.963,0,0,1-.875,1.026c-0.438,0-.5-0.126-1.118-1.207a6.319,6.319,0,0,0-1.426-1.854l0.065-.108a5.7,5.7,0,0,1,2.381.738,9.989,9.989,0,0,0,.7-1.8h-2.2a8.722,8.722,0,0,0-1.751.162l-0.275-.648c0.875,0.053,1.021.053,2.317,0.053h1.945l0.551-.611a0.361,0.361,0,0,1,.243-0.181,0.563,0.563,0,0,1,.291.181l1.248,1.044a0.543,0.543,0,0,1,.179.378c0,0.4-.389.45-1.054,0.54" style="fill:#fff"/><path d="M49.612,95.421A11.413,11.413,0,0,1,44.021,89.8a19.773,19.773,0,0,1-3.192,3.386c0.956,0.09,2.106.09,2.171,0.09h0.956l0.455-.918a0.338,0.338,0,0,1,.242-0.235,0.549,0.549,0,0,1,.292.2L45.9,93.242a0.412,0.412,0,0,1,.162.271,0.206,0.206,0,0,1-.259.2h-3.1a7.346,7.346,0,0,0-1.75.126l-0.227-.576A14.677,14.677,0,0,1,36.114,96l-0.081-.144a20.633,20.633,0,0,0,5.849-6.446,2.732,2.732,0,0,0,.5-1.278l2.139,0.81a0.325,0.325,0,0,1,.259.288,0.6,0.6,0,0,1-.437.36,11.224,11.224,0,0,0,6.967,3.745v0.126a3.025,3.025,0,0,0-1.7,1.963m-11.8,8.57a1,1,0,0,1-.988-0.99,1.068,1.068,0,0,1,.4-0.792,6.131,6.131,0,0,0,1.621-2.755h0.1a8.084,8.084,0,0,1,.259,1.945c0,1.926-.777,2.592-1.393,2.592m9.2-7.435c-0.324.63-.956,1.728-1.264,2.178a0.679,0.679,0,0,1-.6.45c-0.244,0-1.167-.234-1.167-0.756a18.59,18.59,0,0,1,1.069-2,4.813,4.813,0,0,0,.292-0.594H40.926a8.735,8.735,0,0,0-1.75.109l-0.259-.649c0.762,0.072,1.539.109,2.3,0.109h4.246L46,94.683a0.271,0.271,0,0,1,.227-0.144,0.441,0.441,0,0,1,.276.18l1.182,1.1a0.367,0.367,0,0,1,.13.252c0,0.288-.34.377-0.794,0.486m0.276,7.328c-0.551.594-1.443,0.63-3.144,0.63-3.209,0-3.727,0-3.727-2.017a21.881,21.881,0,0,0-.114-3.115l1.831,0.469a0.326,0.326,0,0,1,.276.269,0.9,0.9,0,0,1-.421.54,8.122,8.122,0,0,0,.032,1.837,0.452,0.452,0,0,0,.324.288,11.6,11.6,0,0,0,1.718.037c1.41,0,1.717-.055,1.961-0.6a8.075,8.075,0,0,0,.567-2.071l0.1,0.018c0.13,0.847.308,2.071,0.648,2.233,0.357,0.18.422,0.2,0.422,0.4a1.6,1.6,0,0,1-.47,1.081m-3.484-2.846c-0.551,0-.616-0.161-1.2-1.6a4.8,4.8,0,0,0-1.183-1.585l0.048-.18c1.248,0.306,3.225.954,3.225,2.358a0.944,0.944,0,0,1-.891,1.008m5.7,2.3a0.848,0.848,0,0,1-.827-0.828,7.961,7.961,0,0,0-1.523-2.971l0.065-.126c1.62,0.4,3.289,1.585,3.289,2.683a1.158,1.158,0,0,1-1,1.242" style="fill:#fff"/><path d="M49.417,118.621c-0.7,0-.891-0.54-1.248-1.6a6.284,6.284,0,0,0-1.993-2.97l0.081-.2a6.6,6.6,0,0,1,3.193,1.422,2.8,2.8,0,0,1,1.069,2.089,1.2,1.2,0,0,1-1.1,1.26" style="fill:#fff"/><path d="M41.72,129.888c-0.1.037-.324,0.126-0.453,0.162-0.81,1.009-1.167,1.405-1.507,1.8a15.952,15.952,0,0,1,1.474,6.932c0,2.7-.551,5.24-3.111,5.492A2.826,2.826,0,0,0,36.7,141.9l0.032-.126a8.362,8.362,0,0,0,1.621.252c0.535,0,.923-0.126,1.167-1.224a14.459,14.459,0,0,0,.227-2.773c0-.666-0.033-1.206-0.049-1.494a11,11,0,0,1-3.743,3.349l-0.065-.09a20.689,20.689,0,0,0,3.484-5.762c-0.033-.072-0.146-0.666-0.389-1.387a11.918,11.918,0,0,1-2.966,1.927l-0.081-.072a17.952,17.952,0,0,0,2.593-2.971,9.661,9.661,0,0,0-1.8-2.665l0.049-.126a8.3,8.3,0,0,1,2.268,2,6.555,6.555,0,0,0,1.086-2.557l1.556,1.17a0.392,0.392,0,0,1,.194.325,0.221,0.221,0,0,1-.162.215m9.027,4.574H43.26a8.5,8.5,0,0,0-1.75.126l-0.26-.666c0.989,0.108,2.124.108,2.3,0.108h1.49v-1.639H44.459a7.51,7.51,0,0,0-1.766.126l-0.259-.666c0.988,0.09,2.138.109,2.316,0.109h0.292c0-.361,0-1.063-0.016-1.6h-0.94a7.352,7.352,0,0,0-1.75.126l-0.259-.666c0.972,0.09,2.123.108,2.3,0.108h0.648a6.03,6.03,0,0,0-.259-2.035l2.074,0.5c0.227,0.054.292,0.126,0.292,0.252a0.994,0.994,0,0,1-.535.612v0.667h1.637l0.518-.955A0.333,0.333,0,0,1,49,128.755a0.6,0.6,0,0,1,.307.179l1.134,0.954a0.392,0.392,0,0,1,.163.271,0.2,0.2,0,0,1-.244.2H46.6c0,0.252-.016,1.368-0.016,1.6h0.972l0.4-.739a0.371,0.371,0,0,1,.243-0.234,0.543,0.543,0,0,1,.308.2l0.875,0.739a0.347,0.347,0,0,1,.162.269,0.21,0.21,0,0,1-.243.2H46.582v1.639h2.123l0.551-.864a0.365,0.365,0,0,1,.243-0.235,0.674,0.674,0,0,1,.308.2l1.021,0.881a0.317,0.317,0,0,1,.178.271c0,0.144-.114.18-0.259,0.18M49.466,137c0.033,1.026.065,4.375,0.065,5.509a1.635,1.635,0,0,1-1.28,1.711,2.948,2.948,0,0,1-.859.252,3.255,3.255,0,0,0-1.669-2.3V142.06a11.58,11.58,0,0,0,1.637.2c0.632,0,.648-0.162.648-0.7v-1.837H43.875c0,0.019.033,2.791,0.033,3.331,0,0.847,0,.937-0.211,1.117a1.288,1.288,0,0,1-.745.288,0.56,0.56,0,0,1-.583-0.666c0-.144.032-0.811,0.032-0.954,0.1-2.755.1-3.961,0.1-4.772a29.444,29.444,0,0,0-.162-2.989l1.7,0.828h3.84l0.421-.54a0.433,0.433,0,0,1,.292-0.233,0.368,0.368,0,0,1,.227.107l0.956,0.828a0.357,0.357,0,0,1,.162.288,1.321,1.321,0,0,1-.47.649m-4.391-.666h-1.2v2.953h1.2v-2.953Zm2.933,0H46.55v2.953h1.458v-2.953Z" style="fill:#fff"/><path d="M43.309,163.389H40.6a6.456,6.456,0,0,1-.275,1.135c0.729,0.072,2.4.612,2.4,1.711a1.042,1.042,0,0,1-.859,1.044c-0.469,0-.567-0.234-0.891-1.062a5.849,5.849,0,0,0-.762-1.369,7.161,7.161,0,0,1-4,4.015l-0.081-.126a9.048,9.048,0,0,0,2.916-5.348H38.123a8.472,8.472,0,0,0-1.75.127l-0.259-.667c0.21,0.019.421,0.037,0.551,0.055l-0.065-.036a14.142,14.142,0,0,0,.956-4.592l1.863,0.7a0.281,0.281,0,0,1,.211.271,0.662,0.662,0,0,1-.567.431c-0.13.252-.2,0.361-0.405,0.7H40.8l0.518-.955a0.36,0.36,0,0,1,.243-0.215,0.638,0.638,0,0,1,.292.179l0.988,0.955a0.393,0.393,0,0,1,.163.27,0.2,0.2,0,0,1-.244.2H40.813a18.19,18.19,0,0,1-.162,2.143h0.778L41.882,162a0.377,0.377,0,0,1,.211-0.216,0.5,0.5,0,0,1,.308.18l0.989,0.954a0.382,0.382,0,0,1,.162.288,0.2,0.2,0,0,1-.243.179m-4.927-2.574a12.268,12.268,0,0,1-1.669,2.089c0.5,0.036,1.183.054,1.7,0.054h0.7c0.049-.45.114-1.135,0.13-2.143H38.382Zm3.1-2.467h-2.5a1.413,1.413,0,0,1-1.653-1.585c0-3.4,0-3.78-.146-4.375l1.766,0.487a0.394,0.394,0,0,1,.341.252,0.777,0.777,0,0,1-.486.486c0,0.342-.017,1.17-0.017,1.513a6.606,6.606,0,0,0,2.593-2.449l1.475,1.242a0.637,0.637,0,0,1,.21.4c0,0.126-.048.235-0.389,0.235-0.081,0-.453-0.019-0.534-0.019a12.431,12.431,0,0,1-3.355,1.009c0,1.062,0,1.278.795,1.278h1.263c0.535,0,1.086-.162,1.443-1.873H42.4a2.487,2.487,0,0,0,.583,1.495c0.373,0.216.47,0.27,0.47,0.486a1.778,1.778,0,0,1-1.976,1.422m8.734,10.282a5.754,5.754,0,0,1-5.656-3.421,6.585,6.585,0,0,1-2.884,3.619l-0.081-.126a10.441,10.441,0,0,0,2.025-6.483,11.017,11.017,0,0,0-.162-1.962l1.848,0.576a0.379,0.379,0,0,1,.34.27,0.91,0.91,0,0,1-.421.558,13.6,13.6,0,0,1-.5,3.061,9.86,9.86,0,0,0,1.183.865v-6.951H45.2a9.13,9.13,0,0,0-1.767.109l-0.259-.649c0.989,0.09,2.139.108,2.317,0.108h3.16l0.583-.7a0.565,0.565,0,0,1,.26-0.2,0.437,0.437,0,0,1,.243.18l1.215,1.368a0.469,0.469,0,0,1,.13.307c0,0.432-.357.432-0.989,0.432a20.5,20.5,0,0,1-1.928.954l-0.081-.09a8.438,8.438,0,0,0,.616-1.819H47.376v3.709h0.94l0.6-1.242a0.357,0.357,0,0,1,.242-0.234,0.6,0.6,0,0,1,.292.2l1.183,1.261a0.407,0.407,0,0,1,.146.269,0.2,0.2,0,0,1-.243.181h-3.16v3.457a10.783,10.783,0,0,0,3.84.144l0.033,0.126a2.89,2.89,0,0,0-1.037,2.125M48.98,154.657a13.68,13.68,0,0,1-1.879,1.081,1.5,1.5,0,0,1,.664,1.206,0.963,0.963,0,0,1-.875,1.026c-0.438,0-.5-0.125-1.118-1.207a6.332,6.332,0,0,0-1.426-1.854l0.065-.107a5.685,5.685,0,0,1,2.381.738,10.009,10.009,0,0,0,.7-1.8h-2.2a8.722,8.722,0,0,0-1.751.162l-0.275-.648c0.875,0.053,1.021.053,2.317,0.053h1.945l0.551-.611a0.365,0.365,0,0,1,.243-0.181,0.57,0.57,0,0,1,.291.181l1.248,1.044a0.543,0.543,0,0,1,.179.378c0,0.4-.389.45-1.054,0.54" style="fill:#fff"/><path d="M37.086,188.968a1.034,1.034,0,0,1-.989-0.99,2.221,2.221,0,0,1,.73-1.333,6.139,6.139,0,0,0,1.523-3.205l0.114-.036a6.263,6.263,0,0,1,.356,2.215c0,2.575-.972,3.349-1.734,3.349m10.16,3.134a6.222,6.222,0,0,1-3.078.485c-2.221,0-2.82-.036-3.274-0.414-0.567-.468-0.567-1.17-0.567-3.871,0-.72.033-3.907,0.033-4.555a10.818,10.818,0,0,0-.292-3.493l2.22,0.612c0.324,0.09.372,0.161,0.372,0.288a0.851,0.851,0,0,1-.615.54c0,1.008-.033,5.455-0.033,6.374,0,1.926,0,2.143.114,2.34a2.1,2.1,0,0,0,1.393.271c1.9,0,2.139-.09,2.35-0.523a12.543,12.543,0,0,0,.632-2.574h0.13c0.5,2.341.518,2.448,0.94,2.791,0.372,0.288.421,0.323,0.421,0.594a1.414,1.414,0,0,1-.746,1.135m-2.787-11.2c-0.518,0-.567-0.162-1.118-1.548a6.062,6.062,0,0,0-1.458-2.466l0.048-.126C45.5,177.3,45.5,179.5,45.5,179.678a1.163,1.163,0,0,1-1.037,1.223m5.445,7.473c-0.373,0-.762-0.145-1.086-1.314a9.859,9.859,0,0,0-1.977-3.908l0.082-.108c1.6,0.505,3.921,2.143,3.921,4.088a1.132,1.132,0,0,1-.94,1.242" style="fill:#fff"/><path d="M49.417,206.821c-0.7,0-.891-0.54-1.248-1.6a6.284,6.284,0,0,0-1.993-2.97l0.081-.2a6.6,6.6,0,0,1,3.193,1.422,2.8,2.8,0,0,1,1.069,2.089,1.2,1.2,0,0,1-1.1,1.26" style="fill:#fff"/><path d="M14.73,5.816H11.457c0,0.234.016,1.278,0.016,1.494,0.016,0.613.049,3.619,0.049,3.8a0.952,0.952,0,0,1-.989,1.116c-0.7,0-.7-0.414-0.664-1.116H7.892a2.663,2.663,0,0,1,.032.5,1.034,1.034,0,0,1-.94,1.243c-0.745,0-.745-0.5-0.745-1.044,0-.954.065-5.15,0.081-6H4.359c0.016,2.9.049,5.762,0.081,8.661h7.114L12.3,13.162a0.39,0.39,0,0,1,.26-0.252,0.469,0.469,0,0,1,.308.18l1.361,1.351a0.417,0.417,0,0,1,.162.27,0.2,0.2,0,0,1-.243.2H4.44a1.763,1.763,0,0,1-.065.649,1.132,1.132,0,0,1-1.021.666,0.63,0.63,0,0,1-.712-0.756c0-.306.081-1.657,0.081-1.927,0.032-1.35.032-2,.016-7.724H2.317a7.352,7.352,0,0,0-1.75.126L0.308,5.276C1.1,5.348,1.961,5.384,2.739,5.384a25.92,25.92,0,0,0-.324-5.1L4.683,0.846a0.2,0.2,0,0,1,.178.2,0.814,0.814,0,0,1-.486.558c-0.032.594-.016,3.24-0.016,3.781H6.32C6.32,1.981,6.3,1.116,6.028,0L8.184,0.576a0.24,0.24,0,0,1,.178.216,1.028,1.028,0,0,1-.47.541V5.384H9.869a24.355,24.355,0,0,0-.26-5.1l2.172,0.631a0.2,0.2,0,0,1,.178.2,0.954,0.954,0,0,1-.486.6c0,0.36-.016,2.142-0.016,2.286V5.384h0.81l0.649-1.278a0.367,0.367,0,0,1,.259-0.253,0.547,0.547,0,0,1,.291.2l1.346,1.3a0.371,0.371,0,0,1,.161.27,0.2,0.2,0,0,1-.243.2m-4.861,0H7.892v4.861H9.869V5.816Z" style="fill:#fff"/><path d="M13.726,36.832A10.718,10.718,0,0,1,10.355,34.8a0.35,0.35,0,0,1-.162.09v1.531c0,0.594.113,3.493,0.113,4.141a0.924,0.924,0,0,1-1.02.972,0.675,0.675,0,0,1-.778-0.756c0-.108.032-2.863,0.032-3.349a22.982,22.982,0,0,0-.178-3.583l1.345,0.324a8.555,8.555,0,0,1-1.686-2.575H7.892A9.585,9.585,0,0,1,5.9,34.005l0.957,0.27a0.31,0.31,0,0,1,.259.252,0.775,0.775,0,0,1-.438.541C6.4,38.254,5.639,40.9,1.053,41.549V41.441c3.841-1.566,3.841-5.041,3.841-6.608A12.15,12.15,0,0,1,.065,37.174V37.066a18.115,18.115,0,0,0,5.72-5.474h-1.8a0.941,0.941,0,0,1-.94,1.171c-0.794,0-.794-0.45-0.794-0.721,0-.035.114-2.989,0.114-3.547a21.676,21.676,0,0,0-.195-3.277l1.88,0.739h7.1l0.421-.631a0.349,0.349,0,0,1,.276-0.215,0.564,0.564,0,0,1,.243.144l1.15,0.9a0.477,0.477,0,0,1,.211.289c0,0.18-.049.234-0.6,0.666-0.033.63,0.065,3.763,0.065,4.465a0.9,0.9,0,0,1-1.038.955c-0.713,0-.713-0.522-0.7-0.937H8.313a10.283,10.283,0,0,0,6.806,3.025v0.144a3.452,3.452,0,0,0-1.393,2.071M6.757,26.389H3.986v2.143H6.757V26.389Zm0,2.575H3.986v2.2H6.757v-2.2ZM11.2,26.389H8.33v2.143H11.2V26.389Zm0,2.575H8.33v2.2H11.2v-2.2Z" style="fill:#fff"/><path d="M13.791,55.424c0,0.522-.017,1.4,0,2.322,0,0.757.081,1.963,0.081,2.737,0,0.306,0,.954-1.216.954-0.664,0-.648-0.36-0.583-1.332H8.33c0,1.386,0,3.619.064,4.933,0,0.126.017,0.4,0.017,0.505a1.035,1.035,0,0,1-1.135,1.17,0.655,0.655,0,0,1-.761-0.72c0-.018,0-0.18.016-0.432,0.1-2.233.113-4.9,0.113-5.456H2.965c0.049,0.972.1,1.837-1.231,1.837-0.454,0-.567-0.235-0.567-0.757,0-.126.016-0.666,0.032-0.774,0.032-.846.032-3.457,0.032-3.637a23.89,23.89,0,0,0-.161-3.6l2.106,0.99H6.644a16.041,16.041,0,0,0-.291-3.943l2.3,0.576a0.328,0.328,0,0,1,.308.27,0.96,0.96,0,0,1-.615.649c-0.016.4-.016,2.106-0.016,2.448h3.646l0.534-.828a0.337,0.337,0,0,1,.227-0.18,0.556,0.556,0,0,1,.276.162l1.215,1.045a0.447,0.447,0,0,1,.21.323,1.153,1.153,0,0,1-.647.739M2.965,54.6v5.078H6.644c0-.81.016-4.574,0.016-5.078H2.965Zm9.108,0H8.33v5.078h3.743V54.6Z" style="fill:#fff"/><path d="M14.163,81.182c-0.275,0-1.458-.27-1.7-0.306a16.458,16.458,0,0,0-2.09-.126,14.984,14.984,0,0,0-1.621.072,20.9,20.9,0,0,0-.032,2.611,7.309,7.309,0,0,1,.762,3.079,6.816,6.816,0,0,1-5.137,6.41L4.278,92.8a8.525,8.525,0,0,0,3.484-5.565A2.02,2.02,0,0,1,6.3,88.312c-1.021,0-1.88-1.26-1.88-2.773,0-1.44.826-3.133,2.139-3.133a3.5,3.5,0,0,1,1.118.252c0-.09-0.016-1.134-0.032-1.692a13.953,13.953,0,0,0-5.137,1.711,1.177,1.177,0,0,1-.584.216,2.261,2.261,0,0,1-1.62-2.269,1.14,1.14,0,0,1,.243-0.792,1.483,1.483,0,0,0,1.377,1.044,20.834,20.834,0,0,0,3.241-.486c0.325-.054,2.042-0.325,2.431-0.4-0.1-2.629-.227-3.008-1.718-3.241a1.449,1.449,0,0,1,1.329-.685c0.794,0,2.026.666,2.026,1.261,0,0.09-.114.54-0.146,0.72a15.693,15.693,0,0,0-.26,1.783c1.005-.126,2.869-0.36,3.7-0.576a2.289,2.289,0,0,1,.519-0.072c0.389,0,1.75.45,1.75,1.259a0.69,0.69,0,0,1-.632.739M6.5,83.415c-0.68,0-1.15.846-1.15,1.782A1.587,1.587,0,0,0,6.4,86.908c0.534,0,1.183-.883,1.183-1.909A1.345,1.345,0,0,0,6.5,83.415" style="fill:#fff"/><path d="M14.617,113.646c-0.908,0-3.63-2.16-5.169-3.8-0.389-.414-2.415-2.611-2.8-3.025a1.246,1.246,0,0,0-.907-0.558c-0.8,0-2.2,2.269-2.788,3.332-0.388.719-.68,1.116-1.1,1.116A2.432,2.432,0,0,1,0,108.641a2.106,2.106,0,0,1,.162-0.81,1.24,1.24,0,0,0,.956.558c0.422,0,1.718-1.26,2.237-1.764,1.539-1.5,1.9-1.639,2.349-1.639a2.57,2.57,0,0,1,1.653.918c3.776,3.547,4.035,3.673,6.612,4.934a2.261,2.261,0,0,1,1.377,1.872,0.835,0.835,0,0,1-.729.936m-3.306-7.58c-0.34,0-.535-0.27-1.053-0.936a4.663,4.663,0,0,0-1.831-1.458c0.664-.036,3.468.053,3.468,1.692a0.624,0.624,0,0,1-.584.7m1.815-1.656c-0.259,0-.324-0.072-0.924-0.774a4.731,4.731,0,0,0-1.928-1.513c0.908-.036,3.419-0.018,3.419,1.549a0.646,0.646,0,0,1-.567.738" style="fill:#fff"/><path d="M2.609,129.277c1.054,0,8.021-2.07,8.184-2.124a7.1,7.1,0,0,1,1.669-.486,1.618,1.618,0,0,1,1.733,1.278c0,0.774-.566.792-1.506,0.792-2.35.019-3.08,0.378-3.581,0.7a6.282,6.282,0,0,0-2.674,5.024c0,1.836,1.118,3.313,3.613,3.619,0.973,0.108,2.107.252,2.107,1.5a0.834,0.834,0,0,1-1.005.882c-0.308,0-5.752-.342-5.752-5.329,0-3.062,2.106-5.205,3.613-6.338a16.342,16.342,0,0,0-5.331,2.2,1.87,1.87,0,0,1-1.118.5,2.054,2.054,0,0,1-1.653-2.179,2.188,2.188,0,0,1,.372-1.3c0.422,1.116.843,1.26,1.329,1.26" style="fill:#fff"/><path d="M7.7,165.19a2.671,2.671,0,0,1-1.717,1.1c-0.5,0-.632-0.378-0.681-1.044-0.032-.612-0.048-0.9-1.037-2.466l0.081-.09a7.9,7.9,0,0,0,1.929,1.044c0.923,0,1.75-3.368,1.75-5.888,0-1.242-.39-1.513-1.054-1.513a3.244,3.244,0,0,0-.729.073c-0.162.36-1.3,3.186-1.556,3.762-0.226.487-1.345,2.989-1.556,3.457-0.68,1.495-1,2.125-1.49,2.125a1.017,1.017,0,0,1-.746-1.188,2.041,2.041,0,0,1,.486-1.26,25.16,25.16,0,0,0,3.387-6.429,11.1,11.1,0,0,0-2.074,1.135,1.2,1.2,0,0,1-.778.378,1.906,1.906,0,0,1-1.345-1.891,1.663,1.663,0,0,1,.4-1.044,1.092,1.092,0,0,0,1.037,1.008,2.388,2.388,0,0,0,.5-0.053c0.567-.145,2.123-0.541,2.674-0.666a10.737,10.737,0,0,0,.648-2.593c0-.54-0.227-0.828-1.232-1.242a1.825,1.825,0,0,1,1.216-.487,2.626,2.626,0,0,1,1.814,1.044,0.7,0.7,0,0,1,.146.45,1.735,1.735,0,0,1-.388,1.009c-0.2.323-.471,0.954-0.762,1.6,2.333-.162,2.706.99,2.706,3.114,0,2-.7,5.366-1.637,6.554m6.418-3.817a1.179,1.179,0,0,1-.859-0.594,3.421,3.421,0,0,0-2.318-.991l-0.016-.162c1.377-.143,1.88-0.45,1.88-0.738a5.407,5.407,0,0,0-1.118-2.269,8.037,8.037,0,0,0-1.734-1.494,5.283,5.283,0,0,1,4.91,4.862c0,0.305-.081,1.386-0.745,1.386m-0.779-5.96a1.8,1.8,0,0,1-.939-0.792,4.644,4.644,0,0,0-1.718-1.3c1.572-.107,3.209.307,3.209,1.4a0.615,0.615,0,0,1-.552.684m1.54-1.4c-0.259,0-.405-0.126-1.037-0.811a4.3,4.3,0,0,0-1.912-1.133,7.4,7.4,0,0,1,1.2-.109c0.34,0,2.252,0,2.252,1.368a0.615,0.615,0,0,1-.5.685" style="fill:#fff"/><path d="M8.427,179.334H6.012l1.183,0.487a0.376,0.376,0,0,1,.243.305,0.662,0.662,0,0,1-.551.378,18.31,18.31,0,0,1-1.847,1.981H6.595l0.568-.7a0.274,0.274,0,0,1,.211-0.144,0.378,0.378,0,0,1,.21.126l0.746,0.649a0.538,0.538,0,0,1,.21.359,0.8,0.8,0,0,1-.356.469c-0.033.612,0.016,6.338,0.016,7.364s0,2.16-2.009,2.52a2.691,2.691,0,0,0-1.491-2.3v-0.109a10.7,10.7,0,0,0,1.588.162c0.372,0,.453-0.089.486-0.395,0.016-.307.032-4.754,0.032-5.2a0.5,0.5,0,0,1-.162.018H4.975c0,0.126,0,1.279.016,1.5l0.341-.451a0.316,0.316,0,0,1,.194-0.162,0.324,0.324,0,0,1,.227.145l0.535,0.521a0.473,0.473,0,0,1,.178.288,1.158,1.158,0,0,1-.324.469c0,0.288.049,1.566,0.049,1.836a0.782,0.782,0,0,1-.794.937,0.569,0.569,0,0,1-.535-0.739H3.889c0.016,0.63.049,1.332-.713,1.332a0.546,0.546,0,0,1-.583-0.647c0-.055,0-0.2.016-0.4,0.033-.576.049-1.458,0.049-1.854a10.789,10.789,0,0,0-.13-1.908l1.183,0.63v-1.5a8.152,8.152,0,0,0-1.474.126l-0.114-.306c0.016,2.106.016,4.718,0.016,6.77a0.921,0.921,0,0,1-.923,1.134c-0.486,0-.535-0.324-0.535-0.773,0-.145.016-0.541,0.016-0.7,0.065-1.835.065-2.232,0.065-5.67,0-3.35,0-3.548-.162-4.286l1.912,0.9H4.7a17,17,0,0,0,.664-3.151H2.026c1.1,0.54,2.009,1.063,2.009,2a0.923,0.923,0,0,1-.875.973c-0.518,0-.583-0.306-0.81-1.35a4.678,4.678,0,0,0-.616-1.567l0.033-.054a7.274,7.274,0,0,0-1.329.126l-0.26-.666c0.989,0.09,2.123.108,2.3,0.108H3.63a8.371,8.371,0,0,0-.275-2.467l1.9,0.469a0.343,0.343,0,0,1,.307.252,0.336,0.336,0,0,1-.145.234c-0.049.035-.276,0.216-0.308,0.252-0.016.252-.016,0.486-0.016,1.26H6.45l0.583-.972a0.341,0.341,0,0,1,.243-0.234,0.652,0.652,0,0,1,.308.2l0.94,0.99a0.32,0.32,0,0,1,.146.252,0.194,0.194,0,0,1-.243.2m-1.621,3.583H2.091c0,0.109.016,1.243,0.016,1.855,0.47,0.036.875,0.072,1.6,0.09a5.974,5.974,0,0,0-.21-1.908l1.571,0.414a0.3,0.3,0,0,1,.308.234,0.911,0.911,0,0,1-.4.432v0.828H5.364l0.308-.54a0.338,0.338,0,0,1,.243-0.216,0.665,0.665,0,0,1,.292.2l0.486,0.486,0.113,0.126c0-.289.016-1.674,0-2m-1.928,4.358H3.889V189.2H4.878v-1.927Zm8.7,5.653a9.669,9.669,0,0,1-2.431-3.079,10.28,10.28,0,0,1-3.273,3.169l-0.1-.126a13.749,13.749,0,0,0,2.738-4.429,17,17,0,0,1-.761-5.492,15.621,15.621,0,0,1-1.378,2.089l-0.129-.054a24.262,24.262,0,0,0,1.523-7.869,2.8,2.8,0,0,0-.081-0.72l2.042,0.882a0.332,0.332,0,0,1,.275.253,0.87,0.87,0,0,1-.551.522,27.753,27.753,0,0,1-.891,3.1h1.928l0.632-1.025a0.4,0.4,0,0,1,.259-0.217,0.512,0.512,0,0,1,.292.2l0.973,1.009a0.359,0.359,0,0,1,.162.27,0.194,0.194,0,0,1-.243.2H12.51l1.184,0.5a0.333,0.333,0,0,1,.259.252c0,0.126-.049.162-0.47,0.45a29.368,29.368,0,0,1-1.54,5.546,8.839,8.839,0,0,0,3.241,2.557v0.126a3.133,3.133,0,0,0-1.6,1.89M10.4,181.6c-0.227.54-.324,0.72-0.389,0.864a12.388,12.388,0,0,0,1.037,4.322,20.56,20.56,0,0,0,.729-5.186H10.4Z" style="fill:#fff"/></svg>