<svg xmlns="http://www.w3.org/2000/svg" viewBox="0 0 114.334 23.359"><title>movie_ttl</title><path d="M28.8,2.464c-0.768.64-1.7,1.376-1.7,2.112V19.551a1.3,1.3,0,0,0,.768,1.311c0.224,0,.864-0.479,1.152-0.479a0.617,0.617,0,0,1,.448.672,0.554,0.554,0,0,1-.352.256,13.651,13.651,0,0,1-3.2,1.343c-1.312,0-2.336-2.047-2.336-5.408V4.96a3.141,3.141,0,0,0-.544-1.344C22.494,2.56,22.206,2.24,21.822,2.24a2.754,2.754,0,0,0-.9.256L17.983,3.968V8.416c0,0.256,0,1.568,1.023,1.568h2.528c0.48,0,.7.095,0.7,0.287a6.693,6.693,0,0,1-3.487,1.856c-0.384,0-.768-0.064-0.768.736v5.791a1.054,1.054,0,0,0,.64.961,3.6,3.6,0,0,0,2.112-.832c0.319-.224.607,0.352,0.607,0.543a0.824,0.824,0,0,1-.447.449l-3.84,2.688a1.733,1.733,0,0,1-.992.319c-0.512,0-2.5-2.143-2.5-2.528,0-.416.736-0.9,0.736-1.728V14.335c0-.864-0.16-1.92-1.024-1.984l-2.656-.16c-0.416-.032-0.64-0.064-0.64-0.224a5.141,5.141,0,0,1,.928-1.632c0.032-.032.288-0.384,1.664-0.384,0.864,0,1.728,0,1.728-1.152V3.52c0-1.152-.16-1.568-0.8-1.568a1.077,1.077,0,0,0-.544.192L9.759,4.1c-0.416.256-1.248,1.152-1.248,4.735v7.808c0,2.56-1.024,2.943-1.024,4a0.682,0.682,0,0,0,.641.447,10.655,10.655,0,0,0,2.079-.224q0.576,0,.576.193a2.941,2.941,0,0,1-2.56,2.015c-1.183,0-3.071-.927-3.935-0.927-2.528,0-3.456,1.216-3.808,1.216C0.064,23.359,0,23.2,0,22.975c0-.416,1.728-1.76,3.3-2.657,1.7-.959,2.5-1.887,2.5-3.167A3.546,3.546,0,0,0,2.08,13.279c-0.224,0-.512.224-0.672,0.224-0.1,0-.128-0.1-0.128-0.32,0-.608,1.152-1.216,1.632-1.472,0.672-.352,2.208-0.256,2.208-1.536A8.229,8.229,0,0,1,8.991,3.552l4.672-2.88A4.65,4.65,0,0,1,15.167,0c0.608,0,1.088.608,2.176,2.368a0.861,0.861,0,0,0,.544.608,1.522,1.522,0,0,0,.448-0.192L21.855,0.9a2.936,2.936,0,0,1,1.727-.48c0.64,0,2.3,1.728,2.944,1.728,1.6,0,2.24-1.12,2.912-1.12a0.4,0.4,0,0,1,.384.448c0,0.288-.192.32-1.024,0.992" transform="translate(0 0)" style="fill:#a60f21"/><path d="M51.135,19.967a13.419,13.419,0,0,0-3.424,2.559,0.458,0.458,0,0,1-.32.128,1.322,1.322,0,0,1-.7-0.48,7.965,7.965,0,0,0-1.536-1.119,5.046,5.046,0,0,0-2.88-.832H41.76a2.462,2.462,0,0,1-.48-0.065,0.374,0.374,0,0,1-.256-0.416,0.181,0.181,0,0,1,.192-0.224,0.892,0.892,0,0,0,.575-0.383,2.533,2.533,0,0,0,.321-1.569l-0.1-6.911c0-.384.033-1.376,0.9-1.472l2.752-1.375a2.684,2.684,0,0,1,.64-0.353,0.645,0.645,0,0,1,.352.1,13.452,13.452,0,0,0,4.9,1.856,0.819,0.819,0,0,1,.608.9v8.736a1.691,1.691,0,0,1-1.024.928m-3.392-9.824-0.992-.608a0.886,0.886,0,0,0-.416-0.1,0.792,0.792,0,0,0-.8.8l-0.128,8.415a0.779,0.779,0,0,0,.384.672l0.992,0.609a0.9,0.9,0,0,0,.416.1,0.792,0.792,0,0,0,.8-0.8l0.128-8.415a0.78,0.78,0,0,0-.384-0.672" transform="translate(0 0)" style="fill:#a60f21"/><path d="M74.687,19.615a18.616,18.616,0,0,0-3.775,2.592,1.245,1.245,0,0,1-.545.415,1.1,1.1,0,0,1-.7-0.319,9.842,9.842,0,0,0-3.937-1.7c-0.64-.063-0.863-0.16-0.863-0.288a1.674,1.674,0,0,1,.288-0.48,1.984,1.984,0,0,0,.416-1.28l-0.193-7.2a1.722,1.722,0,0,0-.511-1.312L63.935,8.863a2.224,2.224,0,0,1-.7-1.536c0-2.3,2.336-4.16,3.487-4.16,0.321,0,.448.385,0.321,0.416a2.194,2.194,0,0,0-1.281,2.048c0,1.568,3.073,3.136,3.073,5.184v7.136a1.639,1.639,0,0,0,.895,1.695l1.088,0.321a1.129,1.129,0,0,0,.32.031,1.012,1.012,0,0,0,.992-1.056L72,12.031A2.53,2.53,0,0,0,70.75,9.887L70.526,9.7a0.53,0.53,0,0,1-.16-0.384,0.851,0.851,0,0,1,.32-0.416l1.568-1.44a0.676,0.676,0,0,1,.512-0.192,0.755,0.755,0,0,1,.512.192L74.4,8.639a4.228,4.228,0,0,1,1.311,2.912l0.225,6.624c0.031,0.864-.448,1.024-1.248,1.44" transform="translate(0 0)" style="fill:#a60f21"/><path d="M90.943,22.4a0.994,0.994,0,0,1-.48.128,1.021,1.021,0,0,1-.512-0.128l-2.016-.992a0.473,0.473,0,0,1-.288-0.416,0.455,0.455,0,0,1,.192-0.384l0.255-.193a1.682,1.682,0,0,0,.705-1.439V11.488a1.681,1.681,0,0,0-.705-1.568l-0.639-.48a0.438,0.438,0,0,1-.16-0.385,0.494,0.494,0,0,1,.32-0.416l1.792-1.055a1.094,1.094,0,0,1,.512-0.128,1.08,1.08,0,0,1,.448.16l2.3,1.312a0.725,0.725,0,0,1,.448.512,0.6,0.6,0,0,1-.225.416l-0.16.159a2.033,2.033,0,0,0-.416,1.473v7.071c0,1.888.1,2.271,0.8,1.92l0.256-.128a1.108,1.108,0,0,1,.416-0.1c0.128,0,.544.641,0.256,0.769ZM90.655,5.472a0.363,0.363,0,0,1-.256.1,0.355,0.355,0,0,1-.352-0.352,0.288,0.288,0,0,1,.032-0.16L91.23,2.464A0.568,0.568,0,0,1,92,2.048L93.182,2.4a0.331,0.331,0,0,1,.128.544Z" transform="translate(0 0)" style="fill:#a60f21"/><path d="M113.918,12.607l-2.336,3.3a1.369,1.369,0,0,1-.544.481,0.57,0.57,0,0,1-.16.064,0.468,0.468,0,0,1-.256-0.384,0.245,0.245,0,0,1,.065-0.161,3.48,3.48,0,0,0,.159-0.382l0.576-.7a1.668,1.668,0,0,0,.384-0.993,1.23,1.23,0,0,0-.384-0.735l-1.44-1.44a0.534,0.534,0,0,0-.288-0.192c-0.128,0-.416.064-0.416,1.248v6.016c0,0.9.512,1.055,1.312,1.471a2.251,2.251,0,0,0,.992.289,0.837,0.837,0,0,0,.448-0.128l1.28-.865a0.773,0.773,0,0,1,.448-0.191,0.507,0.507,0,0,1,.32.416,0.328,0.328,0,0,1-.224.256l-3.136,2.143a2.575,2.575,0,0,1-.863.449,1.305,1.305,0,0,1-.544-0.16,11.8,11.8,0,0,0-3.521-1.376,2,2,0,0,1-.863-0.256c0-.288.639-0.9,0.832-1.632a4.171,4.171,0,0,0,.159-1.184l0.257-8.48a0.387,0.387,0,0,1,.223-0.384l2.72-1.472a2.126,2.126,0,0,1,.9-0.383,0.85,0.85,0,0,1,.416.255l3.168,3.008a2.186,2.186,0,0,1,.736,1.152,1.622,1.622,0,0,1-.416.96" transform="translate(0 0)" style="fill:#a60f21"/></svg>