<svg xmlns="http://www.w3.org/2000/svg" viewBox="0 0 115.079 23.359"><title>music_ttl</title><path d="M28.8,2.464c-0.768.64-1.7,1.376-1.7,2.112V19.551a1.3,1.3,0,0,0,.768,1.311c0.224,0,.864-0.479,1.152-0.479a0.617,0.617,0,0,1,.448.672,0.554,0.554,0,0,1-.352.256,13.651,13.651,0,0,1-3.2,1.343c-1.312,0-2.336-2.047-2.336-5.408V4.96a3.141,3.141,0,0,0-.544-1.344C22.494,2.56,22.206,2.24,21.822,2.24a2.754,2.754,0,0,0-.9.256L17.983,3.968V8.416c0,0.256,0,1.568,1.023,1.568h2.528c0.48,0,.7.095,0.7,0.287a6.693,6.693,0,0,1-3.487,1.856c-0.384,0-.768-0.064-0.768.736v5.791a1.054,1.054,0,0,0,.64.961,3.6,3.6,0,0,0,2.112-.832c0.319-.224.607,0.352,0.607,0.543a0.824,0.824,0,0,1-.447.449l-3.84,2.688a1.733,1.733,0,0,1-.992.319c-0.512,0-2.5-2.143-2.5-2.528,0-.416.736-0.9,0.736-1.728V14.335c0-.864-0.16-1.92-1.024-1.984l-2.656-.16c-0.416-.032-0.64-0.064-0.64-0.224a5.141,5.141,0,0,1,.928-1.632c0.032-.032.288-0.384,1.664-0.384,0.864,0,1.728,0,1.728-1.152V3.52c0-1.152-.16-1.568-0.8-1.568a1.077,1.077,0,0,0-.544.192L9.759,4.1c-0.416.256-1.248,1.152-1.248,4.735v7.808c0,2.56-1.024,2.943-1.024,4a0.682,0.682,0,0,0,.641.447,10.655,10.655,0,0,0,2.079-.224q0.576,0,.576.193a2.941,2.941,0,0,1-2.56,2.015c-1.183,0-3.071-.927-3.935-0.927-2.528,0-3.456,1.216-3.808,1.216C0.064,23.359,0,23.2,0,22.975c0-.416,1.728-1.76,3.3-2.657,1.7-.959,2.5-1.887,2.5-3.167A3.546,3.546,0,0,0,2.08,13.279c-0.224,0-.512.224-0.672,0.224-0.1,0-.128-0.1-0.128-0.32,0-.608,1.152-1.216,1.632-1.472,0.672-.352,2.208-0.256,2.208-1.536A8.229,8.229,0,0,1,8.991,3.552l4.672-2.88A4.65,4.65,0,0,1,15.167,0c0.608,0,1.088.608,2.176,2.368a0.861,0.861,0,0,0,.544.608,1.522,1.522,0,0,0,.448-0.192L21.854,0.9a2.941,2.941,0,0,1,1.728-.48c0.64,0,2.3,1.728,2.944,1.728,1.6,0,2.24-1.12,2.912-1.12a0.4,0.4,0,0,1,.384.448c0,0.288-.192.32-1.024,0.992" transform="translate(0 0)" style="fill:#a60f21"/><path d="M54.75,20.51l-3.328,2.049a0.608,0.608,0,0,1-.736,0l-1.952-2.3-3.712,2.24-0.319.161a5.712,5.712,0,0,1-1.473-.384c-0.735-.224-1.055-0.384-1.343-0.48a0.506,0.506,0,0,1-.448-0.416,0.478,0.478,0,0,1,.1-0.224,5.236,5.236,0,0,0,.384-1.664V11.424c0-1.889-.1-2.272-0.8-1.92l-0.256.128a1.081,1.081,0,0,1-.416.128,0.4,0.4,0,0,1-.064-0.641l2.911-1.535a0.687,0.687,0,0,1,.385-0.128,0.836,0.836,0,0,1,.256.1l2.208,1.12a0.386,0.386,0,0,1,.255.383,0.664,0.664,0,0,1-.224.416l-0.128.161a2.336,2.336,0,0,0-.416,1.44v8a1.013,1.013,0,0,0,1.057.992,1.5,1.5,0,0,0,.671-0.192l0.96-.512a0.96,0.96,0,0,0,.384-0.9V10.944a1.683,1.683,0,0,0-.48-1.376L48.03,9.376A0.511,0.511,0,0,1,47.9,8.991a0.474,0.474,0,0,1,.288-0.416l1.888-.991a0.707,0.707,0,0,1,.9,0l1.92,0.991a0.474,0.474,0,0,1,.288.416,0.511,0.511,0,0,1-.128.385l-0.192.192a1.814,1.814,0,0,0-.48,1.5v7.9A1.215,1.215,0,0,0,53.6,20.191a1.406,1.406,0,0,0,.7-0.224,0.992,0.992,0,0,1,.352-0.16,0.491,0.491,0,0,1,.352.351,0.394,0.394,0,0,1-.256.352" transform="translate(0 0)" style="fill:#a60f21"/><path d="M76.319,19.551a1.248,1.248,0,0,1-.769.416,9.568,9.568,0,0,0-3.007,2.047,1.861,1.861,0,0,1-.928.641,4.171,4.171,0,0,1-.832-0.352c-0.352-.16-1.344-0.961-5.215-0.961-0.257,0-.385-0.031-0.385-0.127a3.64,3.64,0,0,1,3.649-2.656c0.416,0,1.023-.225,3.2.863a0.577,0.577,0,0,0,.225.065,0.424,0.424,0,0,0,.416-0.416V17.215a0.8,0.8,0,0,0-.289-0.736l-1.312-.832a0.964,0.964,0,0,0-.544-0.321,1.022,1.022,0,0,0-.768.513l-0.416.48a0.769,0.769,0,0,1-.511.289,1.221,1.221,0,0,1-.576-0.161l-2.592-1.472a0.91,0.91,0,0,1-.576-1.056v-3.1a2.912,2.912,0,0,1,.064-0.672,1.444,1.444,0,0,1,.768-0.416,8.94,8.94,0,0,0,3.007-2.048,1.86,1.86,0,0,1,.928-0.639,11.367,11.367,0,0,0,4.576,1.28h1.5c0.991,0-1.12,2.943-3.263,2.943-0.577,0-1.121.225-3.233-.832a0.607,0.607,0,0,0-.224-0.064,0.424,0.424,0,0,0-.416.416v1.856a0.776,0.776,0,0,0,.289.736l1.215,0.7a0.911,0.911,0,0,0,1.12-.48l0.32-.544a0.875,0.875,0,0,1,.64-0.352c0.1,0,.544.416,0.832,0.576l2.56,1.472a1.014,1.014,0,0,1,.607,1.056v3.1a2.41,2.41,0,0,1-.063.641" transform="translate(0 0)" style="fill:#a60f21"/><path d="M91.359,22.4a0.994,0.994,0,0,1-.48.128,1.021,1.021,0,0,1-.512-0.128l-2.016-.992a0.473,0.473,0,0,1-.288-0.416,0.455,0.455,0,0,1,.192-0.384l0.255-.193a1.682,1.682,0,0,0,.705-1.439V11.488A1.681,1.681,0,0,0,88.51,9.92l-0.639-.48a0.438,0.438,0,0,1-.16-0.385,0.494,0.494,0,0,1,.32-0.416l1.792-1.055a1.094,1.094,0,0,1,.512-0.128,1.08,1.08,0,0,1,.448.16l2.3,1.312a0.725,0.725,0,0,1,.448.512,0.6,0.6,0,0,1-.225.416l-0.16.159a2.033,2.033,0,0,0-.416,1.473v7.071c0,1.888.1,2.271,0.8,1.92l0.256-.128a1.108,1.108,0,0,1,.416-0.1c0.128,0,.544.641,0.256,0.769ZM91.071,5.472a0.363,0.363,0,0,1-.256.1,0.355,0.355,0,0,1-.352-0.352,0.288,0.288,0,0,1,.032-0.16l1.151-2.592a0.568,0.568,0,0,1,.769-0.416L93.6,2.4a0.331,0.331,0,0,1,.128.544Z" transform="translate(0 0)" style="fill:#a60f21"/><path d="M114.046,11.551a0.462,0.462,0,0,1-.352.224,1.461,1.461,0,0,1-.7-0.256l-1.44-.864a0.847,0.847,0,0,0-.7-0.256c-0.575.352-.575,0.512-0.575,0.736v7.072a0.961,0.961,0,0,0,.383,1.023l1.312,0.576a1.084,1.084,0,0,0,.384.1,1.907,1.907,0,0,0,.672-0.351l0.992-.8a0.784,0.784,0,0,1,.448-0.192,0.368,0.368,0,0,1,.288.192,0.345,0.345,0,0,1,.064.224,0.957,0.957,0,0,1-.32.352l-3.072,2.624c-0.512.479-.64,0.832-1.248,0.448a8.957,8.957,0,0,0-3.711-1.376c-0.448,0-.673-0.223-0.353-0.7a4.112,4.112,0,0,0,.481-2.367V10.623a1.693,1.693,0,0,1,1.056-.96,14.66,14.66,0,0,0,2.912-2.016c0.223-.256.319-0.576,0.544-0.448l2.975,1.6c0.768,0.416,1.216.672,0.9,1.216Z" transform="translate(0 0)" style="fill:#a60f21"/></svg>