<svg xmlns="http://www.w3.org/2000/svg" viewBox="0 0 97.597 23.102"><title>news_ttl</title><path d="M7.392,23.1c-2.688,0-3.072-.768-5.119-0.768a9.44,9.44,0,0,0-1.92.448A0.33,0.33,0,0,1,0,22.4c-0.033-.64,1.184-2.271,3.615-2.208l3.072,0.1c0.48,0,1.024-.513,1.024-2.336A2.76,2.76,0,0,0,6.592,15.9a2.736,2.736,0,0,0-2.208-.832c-0.192,0-.672.385-0.672-0.063a0.828,0.828,0,0,1,1.024-.544c0.64,0,1.632.48,1.632-.384A2.839,2.839,0,0,0,5.28,12.063a5.008,5.008,0,0,0-3.168-1.216,0.69,0.69,0,0,1-.64-0.416,2.521,2.521,0,0,1,2.5-.864,6.623,6.623,0,0,0,2.08.576A1.668,1.668,0,0,0,5.44,8.127c-0.9-.8-2.528-0.352-2.528-0.864a0.848,0.848,0,0,1,.576-0.7,5.6,5.6,0,0,0,1.824-.671c0.128-.129.1-0.737,0.352-1.5A1.878,1.878,0,0,1,6.72,3.552,5.919,5.919,0,0,1,8.9,2.975c0.288,0,.448.256,0.448,0.736L9.376,17.918c0,0.705-.224,1.889.7,1.889,1.12,0,1.759.1,1.92,0.832-0.416.383-2.24,2.463-4.608,2.463m16.319-1.856c-0.48.48-.768,1.344-1.248,1.344a5.06,5.06,0,0,0-2.944-.992c-1.7,0-2.464.864-2.944,0.864-0.384,0-.575-1.6-0.352-1.888,2.56-3.039,4.448-5.983,4.448-10.623A7.855,7.855,0,0,0,12.48,2.528,9.451,9.451,0,0,1,10.5,2.5,0.213,0.213,0,0,1,10.272,2.3c0-.32.48-0.736,1.472-1.248A8.961,8.961,0,0,1,14.5,0c6.271,0,9.919,4.831,9.919,8.255,0,4.576-1.408,6.3-4.992,10.368-0.96,1.088.48,1.535,0.832,0.895,2.048-.032,3.744-0.063,4.608-1.5a0.346,0.346,0,0,1,.672.127,7.119,7.119,0,0,1-1.824,3.1" transform="translate(0 0)" style="fill:#fff"/><path d="M45.536,12.191l-2.336,3.3a1.369,1.369,0,0,1-.544.481,0.57,0.57,0,0,1-.16.064,0.468,0.468,0,0,1-.256-0.384,0.249,0.249,0,0,1,.064-0.161,3.317,3.317,0,0,0,.16-0.382l0.576-.7a1.668,1.668,0,0,0,.384-0.993,1.23,1.23,0,0,0-.384-0.735l-1.44-1.44a0.537,0.537,0,0,0-.288-0.192c-0.128,0-.416.064-0.416,1.248V18.3c0,0.9.512,1.055,1.312,1.471a2.251,2.251,0,0,0,.992.289,0.837,0.837,0,0,0,.448-0.128l1.28-.865a0.773,0.773,0,0,1,.448-0.191,0.507,0.507,0,0,1,.32.416,0.328,0.328,0,0,1-.224.256l-3.136,2.143a2.565,2.565,0,0,1-.864.449,1.313,1.313,0,0,1-.544-0.16,11.793,11.793,0,0,0-3.519-1.376,2.006,2.006,0,0,1-.865-0.256c0-.288.64-0.9,0.832-1.632a4.175,4.175,0,0,0,.16-1.184l0.256-8.48a0.388,0.388,0,0,1,.224-0.384L40.736,7.2a2.12,2.12,0,0,1,.9-0.383,0.859,0.859,0,0,1,.416.255l3.168,3.008a2.186,2.186,0,0,1,.736,1.152,1.622,1.622,0,0,1-.416.96" transform="translate(0 0)" style="fill:#fff"/><path d="M62.751,22.238a1.008,1.008,0,0,1-.831-0.384,8.825,8.825,0,0,0-3.808-1.664c-0.64-.063-0.864-0.16-0.864-0.288a0.715,0.715,0,0,1,.256-0.351,1.878,1.878,0,0,0,.449-1.409v-7.2a1.727,1.727,0,0,0-.513-1.312L56.512,8.447a2.224,2.224,0,0,1-.7-1.536c0-2.3,2.336-4.16,3.488-4.16,0.32,0,.448.385,0.32,0.416a2.193,2.193,0,0,0-1.28,2.048c0,1.568,3.072,3.136,3.072,5.184v8.095c0,0.9.064,0.961,0.608,1.217a11.277,11.277,0,0,0,1.408.672,4.314,4.314,0,0,1,.8.287c0.607,0.352.607,0.416,0.288,0.705a5.952,5.952,0,0,1-1.761.863M73.6,19.2a18.616,18.616,0,0,0-3.775,2.592,1.25,1.25,0,0,1-.544.415,1.1,1.1,0,0,1-.7-0.319L66.56,20.094a7.073,7.073,0,0,0-1.345-1.055,1.429,1.429,0,0,1-.479-0.32,0.5,0.5,0,0,0-.321-0.193A0.7,0.7,0,0,1,63.9,18.4a0.861,0.861,0,0,1-.16-0.607v-6.56c0-.224,0-0.512-0.033-0.864A0.976,0.976,0,0,0,63.36,9.6l-0.7-.576a0.45,0.45,0,0,1-.192-0.384,0.539,0.539,0,0,1,.287-0.416l1.857-1.056a0.8,0.8,0,0,1,.448-0.128,0.763,0.763,0,0,1,.384.1L67.583,8.7c0.384,0.288.64,0.512,0.352,0.864l-0.128.16a3.047,3.047,0,0,0-.384,1.824V17.47a1.7,1.7,0,0,0,1.088,1.7l1.216,0.385a1.129,1.129,0,0,0,.32.031,1.012,1.012,0,0,0,.992-1.056l-0.128-6.911a2.53,2.53,0,0,0-1.248-2.144l-0.224-.192A0.529,0.529,0,0,1,69.28,8.9,0.847,0.847,0,0,1,69.6,8.479l1.568-1.44a0.676,0.676,0,0,1,.512-0.192,0.755,0.755,0,0,1,.512.192l1.12,1.184a4.228,4.228,0,0,1,1.311,2.912l0.225,6.624c0.032,0.864-.448,1.024-1.248,1.44" transform="translate(0 0)" style="fill:#fff"/><path d="M97.535,19.135a1.248,1.248,0,0,1-.769.416A9.568,9.568,0,0,0,93.759,21.6a1.861,1.861,0,0,1-.928.641A4.171,4.171,0,0,1,92,21.887c-0.352-.16-1.344-0.961-5.215-0.961-0.257,0-.385-0.031-0.385-0.127a3.64,3.64,0,0,1,3.649-2.656c0.416,0,1.023-.225,3.2.863a0.577,0.577,0,0,0,.225.065,0.424,0.424,0,0,0,.416-0.416V16.8a0.8,0.8,0,0,0-.289-0.736l-1.312-.832a0.964,0.964,0,0,0-.544-0.321,1.022,1.022,0,0,0-.768.513l-0.416.48a0.769,0.769,0,0,1-.511.289,1.221,1.221,0,0,1-.576-0.161L86.88,14.559A0.91,0.91,0,0,1,86.3,13.5V10.4a2.912,2.912,0,0,1,.064-0.672,1.444,1.444,0,0,1,.768-0.416,8.94,8.94,0,0,0,3.007-2.048,1.86,1.86,0,0,1,.928-0.639A11.367,11.367,0,0,0,95.647,7.9h1.5c0.991,0-1.12,2.943-3.263,2.943-0.577,0-1.121.225-3.233-.832a0.607,0.607,0,0,0-.224-0.064,0.424,0.424,0,0,0-.416.416v1.856a0.776,0.776,0,0,0,.289.736l1.215,0.7a0.911,0.911,0,0,0,1.12-.48l0.32-.544a0.875,0.875,0,0,1,.64-0.352c0.1,0,.544.416,0.832,0.576l2.56,1.472a1.014,1.014,0,0,1,.607,1.056v3.1a2.41,2.41,0,0,1-.063.641" transform="translate(0 0)" style="fill:#fff"/></svg>