<svg xmlns="http://www.w3.org/2000/svg" viewBox="0 0 52.44 92.619"><title>next</title><g style="isolation:isolate"><path d="M42.866,46.233c-0.568-.144-2.808-0.769-3.383-1.013a15.993,15.993,0,0,1-2.449-1.286,8.878,8.878,0,0,1-1.116-.892q-0.339-.318-0.372-0.346a0.235,0.235,0,0,0-.135-0.027,0.181,0.181,0,0,0-.2.138,17.928,17.928,0,0,1,.935,2.8,0.293,0.293,0,0,1-.322.305c-1.476.051-29.678,0.088-34.958-.2a0.212,0.212,0,0,0-.231.154C0.6,46.057.577,46.3,0.56,46.472a0.137,0.137,0,0,0,0,.027c0.017,0.174.04,0.413,0.071,0.6a0.213,0.213,0,0,0,.232.156c5.281-.284,33.483-0.247,34.958-0.2a0.293,0.293,0,0,1,.322.305,17.941,17.941,0,0,1-.935,2.8,0.181,0.181,0,0,0,.2.138,0.235,0.235,0,0,0,.135-0.027q0.033-.028.372-0.346a8.821,8.821,0,0,1,1.116-.891,15.9,15.9,0,0,1,2.449-1.287c0.575-.245,2.815-0.87,3.383-1.014A0.982,0.982,0,0,0,42.866,46.233Z" transform="translate(-0.56)"/><path d="M30.019,18l-0.091-.057a40.428,40.428,0,0,0,0,57.071l0.116-.073-0.073.116A40.073,40.073,0,0,0,53,86.483V84.271A38.187,38.187,0,0,1,53,8.686V6.473A40.074,40.074,0,0,0,29.962,17.906Z" transform="translate(-0.56)" style="fill:none"/><path d="M28.584,12.081c-0.005.156-.009,0.312-0.022,0.466,0.292,0.123.585,0.239,0.879,0.344a7.261,7.261,0,0,0,1.607.382c0.241-.2.487-0.391,0.732-0.585A12.056,12.056,0,0,1,28.91,11.8C28.8,11.894,28.692,11.986,28.584,12.081Z" transform="translate(-0.56)" style="fill:none"/><path d="M25.957,75.844c-0.068.233-.158,0.45-0.234,0.677,0.145,0.017.293,0.038,0.433,0.046a3.325,3.325,0,0,0,1.345-.185c-0.456-.472-0.9-0.951-1.331-1.438C26.109,75.249,26.033,75.548,25.957,75.844Z" transform="translate(-0.56)" style="fill:none"/><path d="M32.114,12.146c0.1,0.017.206,0.027,0.309,0.038A42.624,42.624,0,0,1,53,3.751V1.244A45.357,45.357,0,0,0,29.51,11.286,10.324,10.324,0,0,0,32.114,12.146Z" transform="translate(-0.56)" style="fill:none"/><path d="M28.437,13.681c-0.017.145-.038,0.293-0.046,0.433a3.321,3.321,0,0,0,.189,1.361l0.006,0.014q0.719-.695,1.463-1.353c-0.317-.062-0.627-0.141-0.935-0.22C28.881,13.847,28.664,13.757,28.437,13.681Z" transform="translate(-0.56)" style="fill:none"/><path d="M25.311,73.943c-0.2-.241-0.394-0.485-0.587-0.73a12.176,12.176,0,0,1-.895,2.867l0.252,0.292c0.17,0,.34.01,0.508,0.024,0.123-.292.239-0.585,0.344-0.878A7.331,7.331,0,0,0,25.311,73.943Z" transform="translate(-0.56)" style="fill:none"/><path d="M28.623,82.1c-0.08.042-.161,0.08-0.241,0.123h0l-0.611.3,0.061-.674c0.012-.137.015-0.274,0.021-0.411-0.18-.158-0.364-0.308-0.542-0.469-0.4.19-.8,0.383-1.193,0.577l-3.339,1.666-2.013,1,1-2.013,1.666-3.339c0.193-.4.387-0.794,0.576-1.191-0.161-.178-0.311-0.363-0.469-0.543-0.137.006-.273,0.009-0.41,0.021l-0.674.061,0.3-.611h0c0.042-.078.08-0.158,0.121-0.237A46.472,46.472,0,0,1,22.874,16.6c-0.046-.088-0.088-0.177-0.135-0.265h0l-0.3-.611,0.674,0.061c0.149,0.013.3,0.016,0.447,0.023,0.15-.171.293-0.347,0.446-0.516-0.194-.407-0.392-0.813-0.59-1.22l-1.666-3.339-1-2.013,2.013,1L26.1,11.393c0.407,0.2.814,0.4,1.221,0.59,0.169-.153.344-0.3,0.515-0.445-0.006-.149-0.009-0.3-0.023-0.448l-0.061-.674,0.611,0.3h0c0.089,0.047.18,0.091,0.269,0.137A46.253,46.253,0,0,1,53,.337V0H0.56V92.619H53A46.251,46.251,0,0,1,28.623,82.1Z" transform="translate(-0.56)" style="fill:none"/><path d="M29.461,80.045c-0.294.1-.586,0.221-0.879,0.344,0.014,0.168.019,0.337,0.024,0.506,0.1,0.085.2,0.169,0.295,0.253a12.178,12.178,0,0,1,2.861-.893c-0.245-.195-0.492-0.387-0.733-0.587A7.342,7.342,0,0,0,29.461,80.045Z" transform="translate(-0.56)" style="fill:none"/><path d="M28.457,79.255c0.227-.076.444-0.166,0.677-0.234,0.3-.076.595-0.152,0.9-0.212q-0.732-.646-1.438-1.33a3.324,3.324,0,0,0-.184,1.344C28.42,78.962,28.44,79.11,28.457,79.255Z" transform="translate(-0.56)" style="fill:none"/><path d="M24.912,17.418c-0.1-.294-0.221-0.586-0.344-0.878-0.155.013-.312,0.017-0.468,0.022q-0.14.161-.279,0.323a12.059,12.059,0,0,1,.889,2.875c0.193-.244.386-0.488,0.585-0.729A7.247,7.247,0,0,0,24.912,17.418Z" transform="translate(-0.56)" style="fill:none"/><path d="M26.157,18.027q0.656-.744,1.353-1.464L27.5,16.557a3.321,3.321,0,0,0-1.361-.189C26,16.377,25.848,16.4,25.7,16.415c0.076,0.227.166,0.444,0.234,0.677C26.016,17.4,26.1,17.71,26.157,18.027Z" transform="translate(-0.56)" style="fill:none"/><path d="M24.208,20.409C24.2,20.3,24.185,20.2,24.168,20.092a10.333,10.333,0,0,0-.863-2.609,45.6,45.6,0,0,0,.008,58,10.38,10.38,0,0,0,.876-2.638c0.015-.092.023-0.185,0.034-0.277A43.162,43.162,0,0,1,24.208,20.409Z" transform="translate(-0.56)" style="fill:none"/><path d="M26.256,14.235c-0.33.33-.643,0.671-0.961,1.009,0.06,0.153.107,0.315,0.165,0.47,0.208-.023.417-0.047,0.639-0.058a4.039,4.039,0,0,1,1.633.253c0.1,0.037.184,0.087,0.278,0.129l0.025-.026,0.026-.025c-0.042-.094-0.093-0.18-0.129-0.278a4.038,4.038,0,0,1-.253-1.633c0.011-.221.035-0.43,0.058-0.639-0.154-.057-0.316-0.1-0.469-0.164C26.929,13.592,26.587,13.9,26.256,14.235Z" transform="translate(-0.56)" style="fill:none"/><path d="M23.881,11.859L24.6,13.536c0.109,0.263.216,0.53,0.325,0.795,0.234-.244.459-0.494,0.7-0.733s0.49-.464.734-0.7c-0.265-.109-0.532-0.216-0.8-0.326Z" transform="translate(-0.56)" style="fill:none"/><path d="M32.134,80.789a10.368,10.368,0,0,0-2.634.874A45.358,45.358,0,0,0,53,91.713V89.2a42.623,42.623,0,0,1-20.6-8.449C32.313,80.767,32.223,80.775,32.134,80.789Z" transform="translate(-0.56)" style="fill:none"/><path d="M32.122,72.857A37.1,37.1,0,0,0,53,83.358V9.6A37.283,37.283,0,0,0,32.122,72.857Z" transform="translate(-0.56)" style="fill:none"/><path d="M24.93,78.634c-0.105.254-.208,0.511-0.313,0.765L23.9,81.077l1.678-.715c0.254-.105.511-0.208,0.766-0.314-0.241-.231-0.488-0.452-0.725-0.689S25.161,78.875,24.93,78.634Z" transform="translate(-0.56)" style="fill:none"/><path d="M26.256,78.722c0.328,0.328.667,0.637,1,.952,0.162-.064.334-0.115,0.5-0.177-0.023-.208-0.047-0.417-0.058-0.639a4.038,4.038,0,0,1,.253-1.633c0.033-.088.079-0.165,0.116-0.25l-0.034-.032L28,76.91c-0.085.037-.162,0.083-0.25,0.116a4.039,4.039,0,0,1-1.633.253c-0.221-.011-0.431-0.035-0.639-0.058-0.062.165-.113,0.337-0.177,0.5C25.619,78.056,25.93,78.395,26.256,78.722Z" transform="translate(-0.56)" style="fill:none"/><path d="M25.3,19.031c0.28-.339.57-0.672,0.862-1-0.062-.317-0.141-0.628-0.22-0.935-0.068-.233-0.158-0.45-0.234-0.677-0.347.041-.7,0.091-1.072,0.122l-0.062,0c0.123,0.292.239,0.585,0.344,0.878A7.247,7.247,0,0,1,25.3,19.031Z" transform="translate(-0.56)"/><path d="M27.736,13.438c0.025-.229.046-0.453,0.066-0.673-0.181.165-.356,0.34-0.535,0.508C27.42,13.334,27.582,13.381,27.736,13.438Z" transform="translate(-0.56)"/><path d="M24.784,15.781c0.221-.021.446-0.041,0.676-0.067-0.058-.155-0.1-0.317-0.165-0.47C25.126,15.424,24.95,15.6,24.784,15.781Z" transform="translate(-0.56)"/><path d="M28.561,12.547c0,0.021,0,.042,0,0.062-0.031.369-.081,0.725-0.122,1.072,0.227,0.076.444,0.166,0.677,0.234,0.307,0.079.617,0.158,0.935,0.22,0.33-.291.661-0.582,1-0.862a7.261,7.261,0,0,1-1.607-.382C29.146,12.786,28.854,12.669,28.561,12.547Z" transform="translate(-0.56)"/><path d="M24.6,13.536l-0.715-1.677,1.678,0.715c0.264,0.109.531,0.216,0.8,0.326,0.321-.307.637-0.621,0.965-0.917-0.407-.194-0.814-0.392-1.221-0.59L22.758,9.727l-2.013-1,1,2.013,1.666,3.339c0.2,0.407.4,0.813,0.59,1.22,0.3-.328.61-0.644,0.917-0.964C24.812,14.067,24.705,13.8,24.6,13.536Z" transform="translate(-0.56)"/><path d="M31.029,79.668c0.241,0.2.488,0.393,0.733,0.587,0.1-.016.19-0.043,0.288-0.056a6.056,6.056,0,0,1,1.394-.016,5.5,5.5,0,0,0-.66-0.3A3.5,3.5,0,0,0,31.029,79.668Z" transform="translate(-0.56)"/><path d="M25.1,72.194a5.493,5.493,0,0,0-.3-0.66,6.058,6.058,0,0,1-.016,1.394c-0.013.1-.039,0.189-0.055,0.285,0.194,0.244.388,0.489,0.587,0.73A3.5,3.5,0,0,0,25.1,72.194Z" transform="translate(-0.56)"/><path d="M28.01,16.038L28.1,16.082c-0.015-.031-0.03-0.063-0.044-0.094l-0.026.025Z" transform="translate(-0.56)"/><path d="M28.068,76.976c0.018-.041.038-0.081,0.057-0.122-0.041.019-.081,0.039-0.122,0.057l0.032,0.033Z" transform="translate(-0.56)"/><path d="M34.061,12.112a3.88,3.88,0,0,0,1.707-.9l0.3,0.323a4.364,4.364,0,0,1-1.879,1.079,5.522,5.522,0,0,1-2.161.121c-0.085-.011-0.166-0.035-0.25-0.049-0.245.194-.491,0.385-0.732,0.585-0.338.28-.669,0.571-1,0.862q-0.745.657-1.463,1.353a6.754,6.754,0,0,0,.654,1.268l0.723,1.151A40.074,40.074,0,0,1,53,6.473V3.751a42.624,42.624,0,0,0-20.578,8.433A4.763,4.763,0,0,0,34.061,12.112Z" transform="translate(-0.56)"/><path d="M27.51,16.564q-0.7.72-1.353,1.464c-0.292.332-.581,0.665-0.862,1-0.2.241-.392,0.485-0.585,0.729,0.013,0.083.037,0.163,0.048,0.247a5.522,5.522,0,0,1-.121,2.161,4.364,4.364,0,0,1-1.079,1.879l-0.323-.3a3.88,3.88,0,0,0,.9-1.707,4.759,4.759,0,0,0,.073-1.63,43.162,43.162,0,0,0,.016,52.157,4.786,4.786,0,0,0-.068-1.67,3.718,3.718,0,0,0-.265-0.741c-0.246-.321-0.5-0.639-0.759-0.951l0.469-.42a11.5,11.5,0,0,1,2.291,3.092,4.415,4.415,0,0,1,.4,2,5.416,5.416,0,0,1-.117,1.066c0.43,0.488.875,0.966,1.331,1.438l0.016,0a6.713,6.713,0,0,0,1.282-.66l1.126-.707a40.428,40.428,0,0,1,0-57.071l-1.151-.723A6.751,6.751,0,0,0,27.51,16.564Z" transform="translate(-0.56)"/><path d="M29.26,76.18a6.713,6.713,0,0,0-.66,1.282l0,0.017q0.707,0.683,1.438,1.33a5.415,5.415,0,0,1,1.067-.117,4.415,4.415,0,0,1,2,.4,11.5,11.5,0,0,1,3.092,2.291l-0.42.469c-0.312-.258-0.63-0.513-0.951-0.76a3.721,3.721,0,0,0-.741-0.265,4.789,4.789,0,0,0-1.679-.067A42.623,42.623,0,0,0,53,89.2V86.483A40.073,40.073,0,0,1,29.967,75.054Z" transform="translate(-0.56)"/><path d="M24.57,15.8c0.07,0,.143-0.015.214-0.022,0.166-.182.342-0.357,0.511-0.537,0.318-.338.632-0.68,0.961-1.009s0.673-.643,1.011-0.961c0.179-.168.354-0.344,0.535-0.508,0.007-.072.017-0.145,0.022-0.217a8.557,8.557,0,0,0,.009-1.011c-0.171.15-.346,0.292-0.515,0.445-0.327.3-.644,0.61-0.965,0.917-0.244.234-.494,0.458-0.734,0.7s-0.465.489-.7,0.733c-0.307.32-.62,0.637-0.917,0.964-0.153.169-.3,0.345-0.446,0.516A8.55,8.55,0,0,0,24.57,15.8Z" transform="translate(-0.56)"/><path d="M23.7,76.367c0.128,0,.255,0,0.382,0l-0.252-.292C23.787,76.177,23.742,76.271,23.7,76.367Z" transform="translate(-0.56)"/><path d="M28.623,82.1A46.251,46.251,0,0,0,53,92.619V91.713a45.358,45.358,0,0,1-23.5-10.05Q29.057,81.869,28.623,82.1Z" transform="translate(-0.56)"/><path d="M28.611,81.28c0.1-.044.192-0.089,0.29-0.132-0.1-.084-0.2-0.168-0.295-0.253C28.61,81.024,28.613,81.151,28.611,81.28Z" transform="translate(-0.56)"/><path d="M23.542,77.126c0.158,0.18.308,0.365,0.469,0.543,0.087-.182.173-0.364,0.257-0.546Q23.9,77.109,23.542,77.126Z" transform="translate(-0.56)"/><path d="M27.855,80.71c-0.182.083-.363,0.169-0.545,0.256,0.178,0.161.362,0.311,0.542,0.469Q27.869,81.073,27.855,80.71Z" transform="translate(-0.56)"/><path d="M12.9,46.478a45.253,45.253,0,0,1,10.4-29q-0.2-.443-0.432-0.878a46.472,46.472,0,0,0,.006,59.754q0.227-.434.433-0.877A45.254,45.254,0,0,1,12.9,46.478Z" transform="translate(-0.56)"/><path d="M23.678,16.569c0.048,0.106.1,0.209,0.144,0.316q0.139-.162.279-0.323C23.959,16.567,23.819,16.571,23.678,16.569Z" transform="translate(-0.56)"/><path d="M25.3,77.721c-0.121.308-.248,0.609-0.374,0.913,0.231,0.241.453,0.488,0.69,0.724s0.484,0.458.725,0.689c0.3-.126.606-0.253,0.913-0.374-0.335-.316-0.674-0.625-1-0.952S25.619,78.056,25.3,77.721Z" transform="translate(-0.56)"/><path d="M28.591,11.656c0,0.142,0,.283-0.007.425,0.108-.094.217-0.187,0.326-0.28C28.8,11.754,28.7,11.7,28.591,11.656Z" transform="translate(-0.56)"/><path d="M29.51,11.286A45.357,45.357,0,0,1,53,1.244V0.337A46.253,46.253,0,0,0,28.63,10.854Q29.066,11.081,29.51,11.286Z" transform="translate(-0.56)"/><path d="M31.485,73.494A38.007,38.007,0,0,0,53,84.271V83.358A37.283,37.283,0,0,1,53,9.6V8.686A38.187,38.187,0,0,0,31.485,73.494Z" transform="translate(-0.56)"/><path d="M24.168,20.092c0.017,0.105.028,0.212,0.039,0.318a4.759,4.759,0,0,1-.073,1.63,3.88,3.88,0,0,1-.9,1.707l0.323,0.3a4.364,4.364,0,0,0,1.079-1.879,5.522,5.522,0,0,0,.121-2.161c-0.011-.084-0.035-0.164-0.048-0.247a12.059,12.059,0,0,0-.889-2.875c-0.046-.107-0.1-0.21-0.144-0.316,0.141,0,.281,0,0.422-0.007,0.157-.005.313-0.009,0.468-0.022l0.062,0c0.369-.031.725-0.081,1.072-0.122,0.145-.017.293-0.038,0.433-0.046a3.321,3.321,0,0,1,1.361.189l0.014,0.006a6.751,6.751,0,0,1,1.267.654l1.151,0.723L30.019,18l-0.057-.091-0.723-1.151a6.754,6.754,0,0,1-.654-1.268l-0.006-.014a3.321,3.321,0,0,1-.189-1.361c0.009-.139.029-0.287,0.046-0.433,0.041-.347.091-0.7,0.122-1.072,0-.021,0-0.042,0-0.062,0.013-.154.017-0.31,0.022-0.466s0.009-.283.007-0.425c0.107,0.048.211,0.1,0.319,0.145a12.056,12.056,0,0,0,2.869.887c0.084,0.014.165,0.037,0.25,0.049a5.522,5.522,0,0,0,2.161-.121,4.364,4.364,0,0,0,1.879-1.079l-0.3-.323a3.88,3.88,0,0,1-1.707.9,4.763,4.763,0,0,1-1.639.072c-0.1-.012-0.206-0.021-0.309-0.038a10.324,10.324,0,0,1-2.6-.861q-0.444-.205-0.879-0.432c-0.089-.047-0.18-0.09-0.269-0.137h0l-0.611-.3,0.061,0.674c0.013,0.149.017,0.3,0.023,0.448a8.557,8.557,0,0,1-.009,1.011c0,0.071-.015.145-0.022,0.217-0.021.22-.041,0.444-0.066,0.673-0.023.208-.047,0.417-0.058,0.639a4.038,4.038,0,0,0,.253,1.633c0.037,0.1.087,0.184,0.129,0.278,0.014,0.032.029,0.063,0.044,0.094l-0.094-.044c-0.094-.042-0.18-0.093-0.278-0.129a4.039,4.039,0,0,0-1.633-.253c-0.221.011-.43,0.035-0.639,0.058-0.23.025-.455,0.046-0.676,0.067-0.071.007-.143,0.017-0.214,0.022a8.55,8.55,0,0,1-1.012.009c-0.149-.006-0.3-0.009-0.447-0.023l-0.674-.061,0.3,0.611h0c0.047,0.087.089,0.177,0.135,0.265q0.227,0.435.432,0.878A10.333,10.333,0,0,1,24.168,20.092Z" transform="translate(-0.56)"/><path d="M26.17,74.944a5.416,5.416,0,0,0,.117-1.066,4.415,4.415,0,0,0-.4-2A11.5,11.5,0,0,0,23.6,68.784l-0.469.42c0.258,0.312.513,0.63,0.759,0.951a3.977,3.977,0,0,0-.634-0.966l0.323-.3a4.363,4.363,0,0,1,1.079,1.879,4.727,4.727,0,0,1,.137.767,5.493,5.493,0,0,1,.3.66,3.5,3.5,0,0,1,.212,1.749,7.331,7.331,0,0,1-.378,1.574c-0.1.294-.221,0.586-0.344,0.878l0.062,0c0.369,0.031.725,0.081,1.072,0.122,0.076-.227.166-0.444,0.234-0.677C26.033,75.548,26.109,75.249,26.17,74.944Z" transform="translate(-0.56)"/><path d="M28.457,79.255c0.041,0.347.091,0.7,0.122,1.072,0,0.021,0,.042,0,0.062,0.292-.123.585-0.239,0.879-0.344a7.342,7.342,0,0,1,1.568-.377,3.5,3.5,0,0,1,1.755.211,5.5,5.5,0,0,1,.66.3,4.732,4.732,0,0,1,.767.137A4.364,4.364,0,0,1,36.09,81.4l-0.3.323a3.979,3.979,0,0,0-.966-0.634c0.321,0.247.639,0.5,0.951,0.76l0.42-.469A11.5,11.5,0,0,0,33.1,79.088a4.415,4.415,0,0,0-2-.4,5.415,5.415,0,0,0-1.067.117c-0.3.061-.6,0.137-0.9,0.212C28.9,79.089,28.684,79.179,28.457,79.255Z" transform="translate(-0.56)"/><path d="M27.845,80.387c-0.019-.29-0.055-0.587-0.088-0.89-0.164.061-.336,0.113-0.5,0.177-0.308.121-.61,0.248-0.913,0.374-0.255.105-.512,0.208-0.766,0.314l-1.678.715L24.616,79.4c0.105-.254.208-0.511,0.313-0.765,0.126-.3.253-0.605,0.374-0.913,0.064-.163.116-0.335,0.177-0.5-0.3-.034-0.6-0.069-0.89-0.088-0.108-.008-0.215-0.006-0.323-0.01-0.083.182-.17,0.364-0.257,0.546-0.189.4-.383,0.794-0.576,1.191L21.769,82.2l-1,2.013,2.013-1,3.339-1.666c0.4-.194.8-0.387,1.193-0.577,0.181-.087.363-0.173,0.545-0.256C27.851,80.6,27.853,80.5,27.845,80.387Z" transform="translate(-0.56)"/><path d="M32.134,80.789c0.089-.015.179-0.023,0.268-0.033a4.789,4.789,0,0,1,1.679.067,3.721,3.721,0,0,1,.741.265,3.979,3.979,0,0,1,.966.634l0.3-.323a4.364,4.364,0,0,0-1.879-1.079,4.732,4.732,0,0,0-.767-0.137,6.056,6.056,0,0,0-1.394.016c-0.1.013-.191,0.04-0.288,0.056a12.178,12.178,0,0,0-2.861.893c-0.1.043-.193,0.088-0.29,0.132,0-.129,0-0.256,0-0.385,0-.169-0.01-0.338-0.024-0.506,0-.021,0-0.042,0-0.062-0.031-.369-0.081-0.725-0.122-1.072-0.017-.145-0.038-0.293-0.046-0.433a3.324,3.324,0,0,1,.184-1.344l0-.017a6.713,6.713,0,0,1,.66-1.282l0.707-1.126,0.073-.116-0.116.073-1.126.707a6.713,6.713,0,0,1-1.282.66l-0.016,0a3.325,3.325,0,0,1-1.345.185c-0.139-.009-0.287-0.029-0.433-0.046-0.347-.041-0.7-0.091-1.072-0.122l-0.062,0c-0.169-.014-0.338-0.019-0.508-0.024-0.128,0-.254-0.006-0.382,0,0.043-.1.088-0.19,0.13-0.287a12.176,12.176,0,0,0,.895-2.867c0.016-.1.043-0.188,0.055-0.285a6.058,6.058,0,0,0,.016-1.394,4.727,4.727,0,0,0-.137-0.767,4.363,4.363,0,0,0-1.079-1.879l-0.323.3a3.977,3.977,0,0,1,.634.966,3.718,3.718,0,0,1,.265.741,4.786,4.786,0,0,1,.068,1.67c-0.011.092-.019,0.185-0.034,0.277a10.38,10.38,0,0,1-.876,2.638q-0.206.443-.433,0.877c-0.041.079-.079,0.159-0.121,0.237h0l-0.3.611,0.674-.061c0.137-.012.273-0.015,0.41-0.021q0.362-.017.726,0c0.108,0,.215,0,0.323.01,0.29,0.019.586,0.055,0.89,0.088,0.208,0.023.417,0.047,0.639,0.058a4.039,4.039,0,0,0,1.633-.253c0.088-.033.166-0.079,0.25-0.116,0.041-.018.082-0.038,0.122-0.057-0.019.041-.039,0.081-0.057,0.122-0.037.085-.083,0.162-0.116,0.25a4.038,4.038,0,0,0-.253,1.633c0.011,0.221.035,0.43,0.058,0.639,0.034,0.3.069,0.6,0.088,0.89,0.008,0.108.007,0.215,0.01,0.323q0.013,0.363,0,.725c-0.006.137-.009,0.274-0.021,0.411l-0.061.674,0.611-.3h0c0.079-.042.161-0.081,0.241-0.123q0.435-.227.878-0.433A10.368,10.368,0,0,1,32.134,80.789Z" transform="translate(-0.56)"/></g></svg>