<svg xmlns="http://www.w3.org/2000/svg" viewBox="0 0 131.838 22.494"><title>onair_ttl</title><path d="M9.855,21.855C5.343,21.855,0,18.367,0,13.28c0-2.336-.064-5.408,3.52-7.328a1.491,1.491,0,0,1,.7-0.16,0.274,0.274,0,0,1,.257.32c0,0.768-.865,1.248-0.865,6.208,0,4.382,2.912,8.351,7.52,8.351,4.064,0,8.8-3.008,8.8-10.079,0-4.48-3.679-6.848-6.015-7.456-1.248-.32-2.56-0.48-2.592-0.7C11.3,2.016,12.511,1.216,12.991.865A2.275,2.275,0,0,1,14.271.32c2.3,0,9.087,2.24,9.087,9.184,0,5.343-4.831,12.351-13.5,12.351M7.839,14.431c-0.928.736-1.7,1.28-1.7,0.512L6.079,4.96c0-.288.448-0.64,1.28-1.12a4.3,4.3,0,0,1,1.728-.672c0.288,0,.416.16,0.416,0.512l0.032,8.607c0,0.96-1.056,1.632-1.7,2.144" transform="translate(0 0)" style="fill:#fff"/><path d="M48.606,19.583L45.439,21.5a1.085,1.085,0,0,1-.544.16c-0.737,0-2.048-1.5-2.048-4.064V10.144a0.783,0.783,0,0,0-.64-0.929,1.634,1.634,0,0,0-.512.128l-1.6.576a0.909,0.909,0,0,0-.32.9v7.391a1.655,1.655,0,0,0,.608,1.44l0.223,0.161a0.613,0.613,0,0,1,.289.416,0.385,0.385,0,0,1-.256.383L38.431,21.63a1.087,1.087,0,0,1-.512.129,1.208,1.208,0,0,1-.544-0.129l-2.112-.991a0.46,0.46,0,0,1-.32-0.416,0.455,0.455,0,0,1,.192-0.384l0.256-.193a1.827,1.827,0,0,0,.768-1.44l-0.1-6.015a4.037,4.037,0,0,0-.608-2.527,0.841,0.841,0,0,0-.7-0.385,1.185,1.185,0,0,0-.608.224,0.981,0.981,0,0,1-.352.161,0.322,0.322,0,0,1-.224-0.129,0.327,0.327,0,0,1-.128-0.223A0.4,0.4,0,0,1,33.7,8.959l3.136-2.016a1.411,1.411,0,0,1,.48-0.256,1.316,1.316,0,0,1,.9.513l1.856,1.6,2.72-1.823a1.648,1.648,0,0,1,.7-0.32c0.544,0,1.792,1.183,2.912,1.183,0.736,0,1.088.161,1.088,0.449,0,0.383-.96,1.535-0.96,2.431v6.593c0,1.6.416,1.983,0.864,1.983a3.246,3.246,0,0,0,.992-0.448,0.564,0.564,0,0,1,.384.48,0.326,0.326,0,0,1-.16.256" transform="translate(0 0)" style="fill:#fff"/><path d="M84.863,13.407a0.57,0.57,0,0,1-.7.448l-4.96-.287a1.6,1.6,0,0,0-1.216.543,2.061,2.061,0,0,0-.48,1.376,1.8,1.8,0,0,0,.8,1.7L82.431,19.2a0.772,0.772,0,0,0,.384.129,0.484,0.484,0,0,0,.32-0.129l0.831-.639a0.533,0.533,0,0,1,.385-0.159,0.56,0.56,0,0,1,.544.543,0.548,0.548,0,0,1-.225.416l-2.527,1.792a0.682,0.682,0,0,1-.353.127,0.48,0.48,0,0,1-.351-0.127l-4.384-2.976a0.932,0.932,0,0,0-1.536.768c0,0.767.544,1.183,0.544,1.984a1.636,1.636,0,0,1-1.568,1.567,1.745,1.745,0,0,1-1.568-1.407,4.649,4.649,0,0,1,1.025-2.752L80.639,7.648a2.643,2.643,0,0,0,.288-1.056A1,1,0,0,0,79.9,5.6a2.722,2.722,0,0,0-2.048,1.024,0.733,0.733,0,0,1-.512.224,0.72,0.72,0,0,1-.8-0.8c0-.544,1.664-2.112,4.864-2.112,2.719,0,3.328,1.024,3.328,1.792,0,0.9-4.16,4.7-4.16,5.44,0,0.1.064,0.223,0.512,0.223l3.392,0.1c0.479,0,.479.64,0.479,0.736ZM93.6,19.423c-0.256.16-3.872,2.432-4.512,2.432-1.6,0-2.336-1.376-2.5-4.1V5.888c0-2.144-1.407-4.256-4.991-4.256a13.609,13.609,0,0,0-4.48.832,0.526,0.526,0,0,1-.576-0.288c0-.384,2.4-2.08,5.7-2.08,4.288,0,5.952,1.664,6.911,1.664C89.951,1.76,91.1,0,91.743,0a0.474,0.474,0,0,1,.415.544c0.032,0.96-1.7.64-1.7,3.36V17.919c0,1.024.321,1.44,0.7,1.44,0.832,0,2.5-1.665,2.752-1.665a0.7,0.7,0,0,1,.831.769c-0.031.353-.447,0.512-1.151,0.96" transform="translate(0 0)" style="fill:#fff"/><path d="M108.031,21.6a0.994,0.994,0,0,1-.48.128,1.021,1.021,0,0,1-.512-0.128l-2.016-.992a0.473,0.473,0,0,1-.288-0.416,0.455,0.455,0,0,1,.192-0.384l0.255-.193a1.682,1.682,0,0,0,.705-1.439V10.688a1.681,1.681,0,0,0-.705-1.568l-0.639-.48a0.438,0.438,0,0,1-.16-0.385,0.494,0.494,0,0,1,.32-0.416L106.5,6.784a1.094,1.094,0,0,1,.512-0.128,1.08,1.08,0,0,1,.448.16l2.3,1.312a0.725,0.725,0,0,1,.448.512,0.6,0.6,0,0,1-.225.416l-0.16.159a2.033,2.033,0,0,0-.416,1.473v7.071c0,1.888.1,2.271,0.8,1.92l0.256-.128a1.108,1.108,0,0,1,.416-0.1c0.128,0,.544.641,0.256,0.769ZM107.743,4.672a0.363,0.363,0,0,1-.256.1,0.355,0.355,0,0,1-.352-0.352,0.288,0.288,0,0,1,.032-0.16l1.151-2.592a0.568,0.568,0,0,1,.769-0.416L110.27,1.6a0.331,0.331,0,0,1,.128.544Z" transform="translate(0 0)" style="fill:#fff"/><path d="M131.613,10.047l-1.279,1.984a0.565,0.565,0,0,1-.481.256A0.65,0.65,0,0,1,129.342,12l-1.312-1.856a0.549,0.549,0,0,0-.416-0.224,0.506,0.506,0,0,0-.513.512v7.455a1.2,1.2,0,0,0,.992,1.344,0.919,0.919,0,0,0,.353-0.128l0.768-.416a0.825,0.825,0,0,1,.32-0.128,0.482,0.482,0,0,1,.351.384,0.324,0.324,0,0,1-.223.353l-3.456,2.271a0.871,0.871,0,0,1-.544.256,7,7,0,0,1-1.536-.8,15.061,15.061,0,0,0-1.7-.832,0.486,0.486,0,0,1-.32-0.384c0-.608,1.312.1,1.312-1.6V11.3a2.439,2.439,0,0,0-.608-1.376,1.431,1.431,0,0,0-.7-0.16h-0.32a0.432,0.432,0,0,1-.48-0.288l2.656-2.752a0.652,0.652,0,0,1,.543-0.1,0.822,0.822,0,0,1,.544.32l1.376,1.44a0.877,0.877,0,0,0,.609.352,0.717,0.717,0,0,0,.576-0.352L128.446,7.2a0.994,0.994,0,0,1,.8-0.672,0.606,0.606,0,0,1,.512.288l1.855,2.368a0.678,0.678,0,0,1,.225.416,0.966,0.966,0,0,1-.225.448" transform="translate(0 0)" style="fill:#fff"/></svg>