<svg xmlns="http://www.w3.org/2000/svg" viewBox="0 0 146.814 26.569"><title>special_ttl</title><path d="M11.808,22.526l-0.8-.736c-1.376-1.28-4.576-3.872-7.168-3.872a1.593,1.593,0,0,0-1.76,1.057c0,1.824,2.048,2.783,2.816,2.943,0.48,0.1.7,0.224,0.7,0.384,0,0.288-.352.448-1.024,0.448C3.008,22.75,0,20.766,0,19.358,0,18.078,1.473,16.7,4,16.7c7.039,0,12.127,4.223,12.127,4.735,0,0.128-3.776,1.6-4.319,1.088M15.2,17.6c-0.416,0-.8-0.161-0.641-0.416a1.771,1.771,0,0,0,.353-0.929c0-.543-1.185-1.92-3.52-1.951l-3.936-.032c-5.152-.1-6.5-1.376-6.5-2.944,0-1.056.192-1.952,0.8-1.952,0.193,0,.193.256,0.193,0.416,0,1.408,2.015,3.359,5.311,3.359l5.823,0.033c1.536,0,5.12.512,5.12,2.4,0,1.121-1.76,2.017-3.007,2.017m3.359,2.527a2.357,2.357,0,0,1-1.216-.159,0.469,0.469,0,0,1,.288-0.513c5.216-3.2.9-9.215-4.479-9.375L8.928,9.951c-1.536-.032-5.536.1-5.536-3.264,0-3.167,5.12-6.495,8.032-6.495A2.561,2.561,0,0,1,12.7.7,15.7,15.7,0,0,0,16.671,2.5a6.124,6.124,0,0,0,.8-0.641A2.631,2.631,0,0,1,18.4,1.216c0.288,0,.448.064,0.448,0.192,0,0.223-2.976,3.008-4.127,4.191-1.536-.9-3.936-2.528-5.312-2.528C7.072,3.071,6.5,4.447,6.5,5.6c0,1.44,1.472,3.1,6.368,3.072l3.775-.032c3.008-.032,6.144,1.856,6.144,4.96,0,3.584-3.072,6.559-4.224,6.527" transform="translate(0 0)" style="fill:#a60f21"/><path d="M44.8,17.95a1.158,1.158,0,0,1-.64.864,9.309,9.309,0,0,0-1.76,1.5c-0.352.352-1.472,1.792-1.7,1.409a1.963,1.963,0,0,0-1.183-1.088c-0.705,0-1.281,1.151-1.281,2.815,0,0.992.8,1.216,1.376,1.567l0.928,0.544c0.48,0.289.512,0.672,0.416,0.769l-0.128.191c-0.192.288-1.568-.96-3.647-0.96-0.289,0-.832-0.223-3.072.7-0.192.064-.352-0.352-0.352-0.48a0.711,0.711,0,0,1,.256-0.416l0.7-.544a1.073,1.073,0,0,0,.352-0.992V19.454a0.568,0.568,0,0,0-.7-0.575h-1.6a0.672,0.672,0,0,1,0-1.345h1.28a0.692,0.692,0,0,0,.672-0.448,2.409,2.409,0,0,0,.32-0.991V10.687A1.813,1.813,0,0,0,34.3,9.471l-0.16-.16a0.681,0.681,0,0,0-.48-0.224,0.541,0.541,0,0,0-.32.1l-0.32.192a0.476,0.476,0,0,1-.288.064,0.505,0.505,0,0,1-.512-0.512,0.437,0.437,0,0,1,.128-0.352l2.335-1.632a2.457,2.457,0,0,1,.993-0.512,1.591,1.591,0,0,1,.991.64l1.281,1.184a1.17,1.17,0,0,0,.7.384,1.813,1.813,0,0,0,.8-0.512l1.824-1.376A1.743,1.743,0,0,1,42.335,6.4a3.966,3.966,0,0,1,3.072,3.744ZM41.791,9.375c0-.224-0.064-0.992-1.024-0.544l-1.6.736a0.914,0.914,0,0,0-.416.9v6.752a1.108,1.108,0,0,0,.832,1.183l1.312,0.289a0.717,0.717,0,0,0,.9-0.8V9.375Z" transform="translate(0 0)" style="fill:#a60f21"/><path d="M65.983,11.615l-2.336,3.3a1.369,1.369,0,0,1-.544.481,0.57,0.57,0,0,1-.16.064,0.468,0.468,0,0,1-.256-0.384,0.249,0.249,0,0,1,.064-0.161,3.317,3.317,0,0,0,.16-0.382l0.576-.7a1.668,1.668,0,0,0,.384-0.993,1.23,1.23,0,0,0-.384-0.735l-1.44-1.44a0.537,0.537,0,0,0-.288-0.192c-0.128,0-.416.064-0.416,1.248v6.016c0,0.9.512,1.055,1.312,1.471a2.251,2.251,0,0,0,.992.289,0.837,0.837,0,0,0,.448-0.128l1.28-.865a0.773,0.773,0,0,1,.448-0.191,0.507,0.507,0,0,1,.32.416,0.328,0.328,0,0,1-.224.256l-3.136,2.143a2.565,2.565,0,0,1-.864.449,1.313,1.313,0,0,1-.544-0.16,11.793,11.793,0,0,0-3.519-1.376,2.006,2.006,0,0,1-.865-0.256c0-.288.64-0.9,0.832-1.632a4.175,4.175,0,0,0,.16-1.184l0.256-8.48A0.388,0.388,0,0,1,58.463,8.1l2.72-1.472a2.12,2.12,0,0,1,.9-0.383,0.859,0.859,0,0,1,.416.255L65.663,9.5a2.186,2.186,0,0,1,.736,1.152,1.622,1.622,0,0,1-.416.96" transform="translate(0 0)" style="fill:#a60f21"/><path d="M85.854,10.559a0.462,0.462,0,0,1-.352.224,1.461,1.461,0,0,1-.7-0.256l-1.44-.864a0.847,0.847,0,0,0-.7-0.256c-0.575.352-.575,0.512-0.575,0.736v7.072a0.961,0.961,0,0,0,.383,1.023l1.312,0.576a1.084,1.084,0,0,0,.384.1,1.907,1.907,0,0,0,.672-0.351l0.992-.8a0.784,0.784,0,0,1,.448-0.192,0.368,0.368,0,0,1,.288.192,0.345,0.345,0,0,1,.064.224,0.957,0.957,0,0,1-.32.352L83.23,20.958c-0.512.479-.64,0.832-1.248,0.448a8.957,8.957,0,0,0-3.711-1.376c-0.448,0-.673-0.223-0.353-0.7A4.112,4.112,0,0,0,78.4,16.96V9.632a1.693,1.693,0,0,1,1.056-.96,14.66,14.66,0,0,0,2.912-2.016c0.223-.256.319-0.576,0.544-0.448l2.975,1.6c0.768,0.416,1.216.672,0.9,1.216Z" transform="translate(0 0)" style="fill:#a60f21"/><path d="M101.535,21.407a0.994,0.994,0,0,1-.48.128,1.021,1.021,0,0,1-.512-0.128l-2.016-.992A0.473,0.473,0,0,1,98.239,20a0.455,0.455,0,0,1,.192-0.384l0.255-.193a1.682,1.682,0,0,0,.705-1.439V10.5a1.681,1.681,0,0,0-.705-1.568l-0.639-.48a0.438,0.438,0,0,1-.16-0.385,0.494,0.494,0,0,1,.32-0.416L100,6.592a1.094,1.094,0,0,1,.512-0.128,1.08,1.08,0,0,1,.448.16l2.3,1.312a0.725,0.725,0,0,1,.448.512,0.6,0.6,0,0,1-.225.416l-0.16.159a2.033,2.033,0,0,0-.416,1.473v7.071c0,1.888.1,2.271,0.8,1.92l0.256-.128a1.108,1.108,0,0,1,.416-0.1c0.128,0,.544.641,0.256,0.769ZM101.247,4.48a0.363,0.363,0,0,1-.256.1,0.355,0.355,0,0,1-.352-0.352,0.288,0.288,0,0,1,.032-0.16l1.151-2.592a0.568,0.568,0,0,1,.769-0.416l1.183,0.352a0.331,0.331,0,0,1,.128.544Z" transform="translate(0 0)" style="fill:#a60f21"/><path d="M128.414,20l-2.783,1.408a1.867,1.867,0,0,1-.544.192,0.494,0.494,0,0,1-.353-0.192l-1.887-2.5-3.552,2.72a0.671,0.671,0,0,1-.352.128,0.434,0.434,0,0,1-.352-0.128l-2.464-1.919a2.518,2.518,0,0,1-.9-0.769,0.51,0.51,0,0,1,.128-0.383l0.321-.193a1.368,1.368,0,0,0,.544-0.639,2.567,2.567,0,0,0,.159-0.8V14.88a8.952,8.952,0,0,0-.256-1.6,0.577,0.577,0,0,1,.352-0.608l3.744-1.12a0.553,0.553,0,0,1,.48.96,1.762,1.762,0,0,0-.864,1.792v3.488a1.1,1.1,0,0,0,.16.735l0.448,0.416a0.288,0.288,0,0,0,.32,0l1.024-.576a0.886,0.886,0,0,0,.384-0.928V9.824a0.642,0.642,0,0,0-.64-0.64L117.119,7.3a0.429,0.429,0,0,1-.256-0.416,0.437,0.437,0,0,1,.448-0.448c0.128,0,.8.128,0.992,0.16l3.36,0.512a15.61,15.61,0,0,0,1.792.064,7.712,7.712,0,0,0,2.3-.512,2.157,2.157,0,0,1,.832-0.224,0.452,0.452,0,0,1,.319.448,0.636,0.636,0,0,1-.319.576c-0.609.416-.672,0.9-0.672,2.112v8.9a0.929,0.929,0,0,0,.928.928c0.832,0,.767-0.577,1.343-0.577a0.629,0.629,0,0,1,.608.608,0.648,0.648,0,0,1-.384.576" transform="translate(0 0)" style="fill:#a60f21"/><path d="M146.525,19.167l-2.688,2.271a0.821,0.821,0,0,1-.383.225,18.044,18.044,0,0,1-2.048-.992c-0.736-.287-1.025-0.544-1.5-0.7a1.094,1.094,0,0,1-.7-0.353,0.367,0.367,0,0,1,.192-0.223c0.224-.161.832-0.416,0.832-2.049V4.512a3.708,3.708,0,0,0-1.76-2.975,0.6,0.6,0,0,1-.224-0.416,0.561,0.561,0,0,1,.544-0.544,1.751,1.751,0,0,1,.32.064l2.208,0.511,2.655-1.088A0.622,0.622,0,0,1,144.19,0a0.562,0.562,0,0,1,.544.544,0.635,0.635,0,0,1-.192.416,1.608,1.608,0,0,0-.9,1.312v15.9a1.259,1.259,0,0,0,.959,1.312,1,1,0,0,0,.673-0.256l0.768-.64a0.589,0.589,0,0,1,.383-0.192,0.52,0.52,0,0,1,.384.384,0.583,0.583,0,0,1-.288.384" transform="translate(0 0)" style="fill:#a60f21"/></svg>