<svg xmlns="http://www.w3.org/2000/svg" viewBox="0 0 105.343 26.814"><title>story_ttl</title><path d="M11.808,22.334l-0.8-.736c-1.376-1.28-4.576-3.872-7.168-3.872a1.593,1.593,0,0,0-1.76,1.057c0,1.824,2.048,2.783,2.816,2.943,0.48,0.1.7,0.224,0.7,0.384,0,0.288-.352.448-1.024,0.448C3.008,22.558,0,20.574,0,19.166c0-1.28,1.473-2.655,4-2.655,7.039,0,12.127,4.223,12.127,4.735,0,0.128-3.776,1.6-4.319,1.088M15.2,17.407c-0.416,0-.8-0.161-0.641-0.416a1.771,1.771,0,0,0,.353-0.929c0-.543-1.185-1.92-3.52-1.951l-3.936-.032c-5.152-.1-6.5-1.376-6.5-2.944,0-1.056.192-1.952,0.8-1.952,0.193,0,.193.256,0.193,0.416,0,1.408,2.015,3.359,5.311,3.359l5.823,0.033c1.536,0,5.12.512,5.12,2.4,0,1.121-1.76,2.017-3.007,2.017m3.359,2.527a2.357,2.357,0,0,1-1.216-.159,0.469,0.469,0,0,1,.288-0.513c5.216-3.2.9-9.215-4.479-9.375L8.928,9.759c-1.536-.032-5.536.1-5.536-3.264,0-3.167,5.12-6.5,8.032-6.5A2.561,2.561,0,0,1,12.7.512,15.7,15.7,0,0,0,16.671,2.3a6.124,6.124,0,0,0,.8-0.641A2.631,2.631,0,0,1,18.4,1.024c0.288,0,.448.064,0.448,0.192,0,0.223-2.976,3.008-4.127,4.191-1.536-.9-3.936-2.528-5.312-2.528C7.072,2.879,6.5,4.255,6.5,5.407c0,1.44,1.472,3.1,6.368,3.072l3.775-.032c3.008-.032,6.144,1.856,6.144,4.96,0,3.584-3.072,6.559-4.224,6.527" transform="translate(0 0)" style="fill:#fff"/><path d="M40.127,7.071a1.375,1.375,0,0,0-.8.224c-0.256.16-.48,0.32-0.64,0.416a1.172,1.172,0,0,0-.384.416,2.788,2.788,0,0,0-.384.864l-1.6,7.776c-0.1.416-.16,0.735,0.1,0.863L37.5,18.206a0.763,0.763,0,0,0,.384.128,0.52,0.52,0,0,0,.288-0.128l0.7-.544c0.192-.128.448-0.383,0.64-0.16l0.256,0.319c0.128,0.161,0,.321-0.192.481l-3.424,2.943a0.545,0.545,0,0,1-.7,0l-2.4-1.151a0.43,0.43,0,0,1-.256-0.416,0.457,0.457,0,0,1,.192-0.384l0.288-.191a1.466,1.466,0,0,0,.736-1.441V7.871a0.3,0.3,0,0,0-.32-0.32H32.7a0.3,0.3,0,0,1-.32-0.32,0.291,0.291,0,0,1,.1-0.224l3.679-4.928a0.394,0.394,0,0,1,.32-0.16,0.424,0.424,0,0,1,.416.416V4.671a1.578,1.578,0,0,0,1.568,1.6H40.1c0.512,0,.64-0.032.64,0.16a0.552,0.552,0,0,1-.608.64" transform="translate(0 0)" style="fill:#fff"/><path d="M61.087,18.783a13.4,13.4,0,0,0-3.424,2.559,0.461,0.461,0,0,1-.321.128,1.325,1.325,0,0,1-.7-0.48A7.952,7.952,0,0,0,55.1,19.871a5.051,5.051,0,0,0-2.88-.832H51.711a2.472,2.472,0,0,1-.48-0.065,0.375,0.375,0,0,1-.256-0.416,0.181,0.181,0,0,1,.192-0.224,0.894,0.894,0,0,0,.576-0.383,2.534,2.534,0,0,0,.32-1.569l-0.1-6.911c0-.384.032-1.376,0.9-1.472l2.752-1.375a2.664,2.664,0,0,1,.64-0.353,0.647,0.647,0,0,1,.352.1,13.452,13.452,0,0,0,4.9,1.856,0.819,0.819,0,0,1,.607.9v8.736a1.691,1.691,0,0,1-1.023.928M57.7,8.959L56.7,8.351a0.886,0.886,0,0,0-.416-0.1,0.792,0.792,0,0,0-.8.8L55.359,17.47a0.779,0.779,0,0,0,.384.672l0.992,0.609a0.9,0.9,0,0,0,.416.1,0.792,0.792,0,0,0,.8-0.8l0.128-8.415A0.78,0.78,0,0,0,57.7,8.959" transform="translate(0 0)" style="fill:#fff"/><path d="M83.742,9.663l-1.279,1.984a0.565,0.565,0,0,1-.481.256,0.65,0.65,0,0,1-.511-0.288L80.159,9.759a0.549,0.549,0,0,0-.416-0.224,0.506,0.506,0,0,0-.513.512V17.5a1.2,1.2,0,0,0,.992,1.344,0.919,0.919,0,0,0,.353-0.128l0.768-.416a0.825,0.825,0,0,1,.32-0.128,0.482,0.482,0,0,1,.351.384,0.324,0.324,0,0,1-.223.353l-3.456,2.271a0.871,0.871,0,0,1-.544.256,7,7,0,0,1-1.536-.8,15.061,15.061,0,0,0-1.7-.832,0.486,0.486,0,0,1-.32-0.384c0-.608,1.312.1,1.312-1.6V10.911a2.439,2.439,0,0,0-.608-1.376,1.431,1.431,0,0,0-.7-0.16h-0.32a0.432,0.432,0,0,1-.48-0.288L76.1,6.335a0.652,0.652,0,0,1,.543-0.1,0.822,0.822,0,0,1,.544.32L78.558,8a0.877,0.877,0,0,0,.609.352A0.717,0.717,0,0,0,79.743,8l0.832-1.184a0.994,0.994,0,0,1,.8-0.672,0.606,0.606,0,0,1,.512.288L83.742,8.8a0.678,0.678,0,0,1,.225.416,0.966,0.966,0,0,1-.225.448" transform="translate(0 0)" style="fill:#fff"/><path d="M100.255,19.359c-2.144,1.312-4.8,2.432-4.8,4.575a1.939,1.939,0,0,0,1.952,1.952c1.888,0,2.368-2.688,4.256-2.688a1.236,1.236,0,0,1,1.152,1.152c0,1.6-2.176,2.464-4.448,2.464S94.239,25.5,94.239,23.9c0-1.855.993-1.92,1.024-3.871,0.032-.609.128-1.152,0.128-2.049V11.839c0-.608-0.64-2.272-1.312-2.272-0.192,0-.32.352-0.511,0.352a0.856,0.856,0,0,1-.737-0.544A0.972,0.972,0,0,1,93.215,8.8c0.16-.288,1.28-1.087,2.752-2.368a0.884,0.884,0,0,1,.672-0.223,4.559,4.559,0,0,1,2.432,4.063v6.72a1.012,1.012,0,0,0,1.024,1.024c0.832,0,2.815-2.5,2.815-5.568a2.918,2.918,0,0,0-.9-2.56,0.926,0.926,0,0,0-.7-0.608,3.573,3.573,0,0,0-.832.352A0.913,0.913,0,0,1,99.9,9.023a0.673,0.673,0,0,1,.257-0.352c0.1-.1,2.528-2.208,2.784-2.335a0.937,0.937,0,0,1,.352-0.128c0.768,0,2.048,2.463,2.048,3.9a10.148,10.148,0,0,1-5.088,9.248" transform="translate(0 0)" style="fill:#fff"/></svg>