<svg xmlns="http://www.w3.org/2000/svg" viewBox="0 0 679.562 37.863"><title>story_line</title><path d="M358.7,15.4a7.267,7.267,0,0,0-3.714,1.185,8.77,8.77,0,0,0-2.622,2.929,37.233,37.233,0,0,0-2.887,7.781l-0.642,2.129L348,27.32a52.973,52.973,0,0,0-2.209-4.928,46.588,46.588,0,0,0-2.816-4.6,26.137,26.137,0,0,1-2.784-4.974,32.921,32.921,0,0,1-1.625-5.47H341a32.831,32.831,0,0,1-1.625,5.47,26.218,26.218,0,0,1-2.783,4.974,46.8,46.8,0,0,0-2.818,4.6,53.388,53.388,0,0,0-2.209,4.928l-0.838,2.1L330.08,27.3a37.175,37.175,0,0,0-2.887-7.781,8.77,8.77,0,0,0-2.622-2.929,7.27,7.27,0,0,0-3.714-1.185l0.034-1a8.347,8.347,0,0,1,4.3,1.225,9.968,9.968,0,0,1,3.1,3.221,38.188,38.188,0,0,1,3.279,7.96h0l-1.482-.023a55.028,55.028,0,0,1,2.076-5.193,48.294,48.294,0,0,1,2.72-4.891,24.074,24.074,0,0,0,2.392-4.7,30.492,30.492,0,0,0,1.289-5.117L339.78,0,341,6.881A30.587,30.587,0,0,0,342.285,12a24.021,24.021,0,0,0,2.393,4.7,48.392,48.392,0,0,1,2.719,4.89,54.946,54.946,0,0,1,2.077,5.194l-1.483.023a38.247,38.247,0,0,1,3.28-7.96,9.985,9.985,0,0,1,3.1-3.221,8.353,8.353,0,0,1,4.3-1.225Z" transform="translate(0.001 0)" style="fill:#fff"/><path d="M679.561,15.43l-175.719.341-87.859.17c-14.645.007-29.283,0.1-43.936,0.035l-10.973,0c-3.632.08-7.393-.169-10.5,0.9a7.086,7.086,0,0,0-3.659,2.908,24.536,24.536,0,0,0-2.277,4.692c-1.288,3.365-2.442,6.865-3.72,10.31l-1.124,3.08-1.143-3.08c-1.278-3.445-2.433-6.944-3.721-10.309a24.4,24.4,0,0,0-2.277-4.693,7.085,7.085,0,0,0-3.658-2.908c-3.112-1.069-6.872-.82-10.5-0.9l-10.974,0c-14.652.07-29.291-.028-43.935-0.035l-87.86-.17L0,15.43v-1l175.719-.34,87.86-.171c14.641-.054,29.29,0,43.923-0.145l10.992-.057c1.839,0,3.656,0,5.535.057a19.8,19.8,0,0,1,5.742.925,9.3,9.3,0,0,1,2.732,1.488,10.384,10.384,0,0,1,2.078,2.277,26.574,26.574,0,0,1,2.546,5.147c1.346,3.468,2.5,6.919,3.788,10.333h-2.267c1.286-3.413,2.441-6.865,3.787-10.332a26.578,26.578,0,0,1,2.547-5.147,10.378,10.378,0,0,1,2.077-2.277A9.3,9.3,0,0,1,349.79,14.7a19.811,19.811,0,0,1,5.743-.925c1.879-.06,3.7-0.053,5.535-0.057l10.991,0.057c14.634,0.147,29.282.091,43.924,0.145l87.859,0.171,175.719,0.34v1Z" transform="translate(0.001 0)" style="fill:#fff"/></svg>