<svg xmlns="http://www.w3.org/2000/svg" viewBox="0 0 159.84 96.418"><title>tv_start</title><path d="M87.49,87.441A2.914,2.914,0,0,0,86,87.915a3.5,3.5,0,0,0-1.049,1.172A14.875,14.875,0,0,0,83.8,92.2l-0.257.851-0.336-.842a21.3,21.3,0,0,0-.884-1.972A18.57,18.57,0,0,0,81.2,88.4a10.432,10.432,0,0,1-1.113-1.99,13.063,13.063,0,0,1-.65-2.188h0.973a13.162,13.162,0,0,1-.651,2.188,10.487,10.487,0,0,1-1.113,1.99,18.383,18.383,0,0,0-1.127,1.841,21.3,21.3,0,0,0-.884,1.972l-0.335.842L76.039,92.2a14.873,14.873,0,0,0-1.154-3.113,3.526,3.526,0,0,0-1.049-1.172,2.92,2.92,0,0,0-1.486-.474l0.014-.4a3.339,3.339,0,0,1,1.719.489,3.983,3.983,0,0,1,1.24,1.289A15.355,15.355,0,0,1,76.636,92l-0.593-.009a21.811,21.811,0,0,1,.83-2.077,19.392,19.392,0,0,1,1.088-1.957,9.612,9.612,0,0,0,.957-1.881,12.146,12.146,0,0,0,.516-2.047L79.92,81.28l0.487,2.753a12.241,12.241,0,0,0,.515,2.047,9.64,9.64,0,0,0,.957,1.881,19.392,19.392,0,0,1,1.088,1.957,21.979,21.979,0,0,1,.831,2.077L83.2,92a15.3,15.3,0,0,1,1.313-3.184,3.983,3.983,0,0,1,1.24-1.289,3.339,3.339,0,0,1,1.719-.489Z" transform="translate(0 0)" style="fill:#fff"/><path d="M159.84,87.452l-42.292.156L96.4,87.681l-5.287-.014-2.64,0c-0.874.01-1.771,0-2.61,0.056a4.726,4.726,0,0,0-2.289.635,4.342,4.342,0,0,0-1.381,1.906c-0.674,1.568-1.2,3.275-1.821,4.928l-0.446,1.224-0.461-1.224c-0.621-1.653-1.146-3.36-1.82-4.927a4.347,4.347,0,0,0-1.381-1.907,4.727,4.727,0,0,0-2.29-.635c-0.839-.056-1.735-0.046-2.609-0.056l-2.641,0-5.286.014-21.147-.073L0,87.452v-0.4L42.292,86.9l21.144-.079,5.286-.041,2.646-.01c0.888,0.006,1.755-.011,2.675.046a5.581,5.581,0,0,1,2.742.778,3.932,3.932,0,0,1,1.043,1.059,7.791,7.791,0,0,1,.676,1.23c0.374,0.833.667,1.669,0.969,2.5l0.9,2.479H79.466l0.9-2.479c0.3-.83.6-1.666,0.97-2.5a7.662,7.662,0,0,1,.675-1.23,3.932,3.932,0,0,1,1.043-1.059,5.584,5.584,0,0,1,2.742-.778c0.92-.057,1.788-0.04,2.675-0.046l2.646,0.01L96.4,86.818,117.548,86.9l42.292,0.155v0.4Z" transform="translate(0 0)" style="fill:#fff"/><path d="M7.621,8.435H4.575l-0.5,2.049A2.222,2.222,0,0,0,4,10.9a0.634,0.634,0,0,0,.611.752H5.31v0.528H1.951V11.653h0.64a1.026,1.026,0,0,0,.951-0.913L6.18,0.256,7.485,0,10.53,10.5a1.494,1.494,0,0,0,1.21,1.153h0.381v0.528H7.1V11.653H7.784a0.564,0.564,0,0,0,.531-0.593,2.724,2.724,0,0,0-.11-0.576ZM4.712,7.907h2.76L6,2.769Z" transform="translate(0 0)" style="fill:#fff"/><path d="M18.975,12.181H13.741V11.653H14.3a1.093,1.093,0,0,0,.965-1.217V1.777A0.805,0.805,0,0,0,14.489.8c-1.686,0-2.57,1.952-2.869,2.64L11.226,3.2,12.3,0.272h8.117L21.491,3.2l-0.4.239C20.756,2.673,19.9.8,18.213,0.8a0.814,0.814,0,0,0-.76.976v8.659a1.093,1.093,0,0,0,.964,1.217h0.558v0.528Z" transform="translate(0 0)" style="fill:#fff"/><rect x="20.705" y="5.411" width="2.923" height="1.713" style="fill:#fff"/><path d="M27.926,7.443L26.186,10.5a1.257,1.257,0,0,0-.177.56,0.574,0.574,0,0,0,.639.592h0.679v0.529h-3.4V11.652h0.34c0.544,0,.937-0.255,1.577-1.392l1.876-3.3L25.587,1.809A1.328,1.328,0,0,0,24.432.8H24.146V0.272h4.786V0.8H28.388a0.535,0.535,0,0,0-.448.608,1.6,1.6,0,0,0,.122.529L29.122,4.5l1.414-2.481a1.123,1.123,0,0,0,.177-0.576A0.566,0.566,0,0,0,30.128.8H29.639V0.272H33.01V0.8H32.793a2.026,2.026,0,0,0-1.781,1.248L29.326,4.994l2.325,5.618a1.58,1.58,0,0,0,1.21,1.04h0.571v0.529H28.293V11.652h0.584a0.437,0.437,0,0,0,.489-0.463,1.7,1.7,0,0,0-.163-0.673Z" transform="translate(0 0)" style="fill:#fff"/><path d="M34.876,8.628c2.61,0.448,3.575,1.825,3.575,2.929a1.2,1.2,0,1,1-2.379.208,7.026,7.026,0,0,0-1.292-2.9Z" transform="translate(0 0)" style="fill:#fff"/><path d="M48.732,12.181H43.5V11.653h0.557a1.093,1.093,0,0,0,.965-1.217V1.777A0.805,0.805,0,0,0,44.246.8c-1.686,0-2.57,1.952-2.869,2.64L40.983,3.2l1.073-2.93h8.117L51.248,3.2l-0.4.239c-0.34-.768-1.2-2.64-2.882-2.64a0.814,0.814,0,0,0-.761.976v8.659a1.093,1.093,0,0,0,.964,1.217h0.558v0.528Z" transform="translate(0 0)" style="fill:#fff"/><path d="M55.737,0c2.08,0,4.487,2.081,4.487,6.226,0,4.162-2.407,6.243-4.5,6.243-2.067,0-4.486-2.065-4.486-6.243,0-4.161,2.419-6.226,4.5-6.226m1.523,1.6A1.607,1.607,0,0,0,55.723.528a1.571,1.571,0,0,0-1.509,1.057,12.5,12.5,0,0,0-.707,4.641,12.293,12.293,0,0,0,.707,4.707,1.567,1.567,0,0,0,1.523,1.072,1.526,1.526,0,0,0,1.5-1.072,12.627,12.627,0,0,0,.72-4.707A13.428,13.428,0,0,0,57.261,1.6" transform="translate(0 0)" style="fill:#fff"/><path d="M64.835,6.131L63.788,7.619v2.962a0.943,0.943,0,0,0,.817,1.072h0.516v0.528H60.308V11.653h0.53a0.855,0.855,0,0,0,.775-0.976v-8.9A0.861,0.861,0,0,0,60.8.8h-0.5V0.273h4.8V0.8H64.6a0.911,0.911,0,0,0-.817,1.072V6.819l3.481-4.978a0.96,0.96,0,0,0,.19-0.512A0.5,0.5,0,0,0,66.97.8H66.358V0.273H70.2V0.8h-0.57a2.176,2.176,0,0,0-1.809,1.008l-1.5,2.145,2.691,6.467c0.34,0.8.68,1.232,1.279,1.232h0.516v0.528H65.882V11.653h0.463a0.528,0.528,0,0,0,.475-0.544,1.789,1.789,0,0,0-.163-0.641Z" transform="translate(0 0)" style="fill:#fff"/><path d="M76.353,6.467l1.836-4.53a1.361,1.361,0,0,0,.108-0.48A0.647,0.647,0,0,0,77.618.8H77.033V0.273h3.44V0.8H80a1.776,1.776,0,0,0-1.414,1.264l-2.107,5.2v3.314c0,0.7.258,1.072,0.774,1.072h0.666v0.528h-5V11.653h0.571c0.571,0,.8-0.4.8-1.072V7.267l-2.733-5.6A1.312,1.312,0,0,0,70.453.8H70.208V0.273h5.017V0.8H74.613a0.545,0.545,0,0,0-.531.592A1.675,1.675,0,0,0,74.246,2Z" transform="translate(0 0)" style="fill:#fff"/><path d="M84.147,0c2.08,0,4.487,2.081,4.487,6.226,0,4.162-2.407,6.243-4.5,6.243-2.067,0-4.486-2.065-4.486-6.243,0-4.161,2.419-6.226,4.5-6.226M85.67,1.6A1.607,1.607,0,0,0,84.133.528a1.571,1.571,0,0,0-1.509,1.057,12.5,12.5,0,0,0-.707,4.641,12.293,12.293,0,0,0,.707,4.707,1.567,1.567,0,0,0,1.523,1.072,1.526,1.526,0,0,0,1.5-1.072,12.627,12.627,0,0,0,.72-4.707A13.428,13.428,0,0,0,85.67,1.6" transform="translate(0 0)" style="fill:#fff"/><path d="M92.144,0.272h3.209L98.1,8.26l2.175-7.987h3.739V0.8h-0.448a0.876,0.876,0,0,0-.775.976v8.9a0.842,0.842,0,0,0,.775.976h0.448v0.529H99.364V11.653H99.8a0.8,0.8,0,0,0,.776-0.976V0.945l-3.06,11.237H97.08L93.843,2.69v7.987a0.835,0.835,0,0,0,.776.976h0.516v0.529H92.144V11.653h0.5a0.851,0.851,0,0,0,.789-0.976v-8.9A0.885,0.885,0,0,0,92.661.8H92.144V0.272Z" transform="translate(0 0)" style="fill:#fff"/><path d="M108.9,7.443l-1.74,3.057a1.257,1.257,0,0,0-.177.56,0.574,0.574,0,0,0,.639.592H108.3v0.529h-3.4V11.652h0.34c0.544,0,.937-0.255,1.577-1.392l1.876-3.3L106.56,1.809A1.328,1.328,0,0,0,105.405.8h-0.286V0.272h4.786V0.8h-0.544a0.535,0.535,0,0,0-.448.608,1.6,1.6,0,0,0,.122.529L110.1,4.5l1.414-2.481a1.123,1.123,0,0,0,.177-0.576A0.566,0.566,0,0,0,111.1.8h-0.489V0.272h3.371V0.8h-0.217a2.026,2.026,0,0,0-1.781,1.248L110.3,4.994l2.325,5.618a1.58,1.58,0,0,0,1.21,1.04h0.571v0.529h-5.139V11.652h0.584a0.437,0.437,0,0,0,.489-0.463,1.7,1.7,0,0,0-.163-0.673Z" transform="translate(0 0)" style="fill:#fff"/><path d="M121.285,10.3c0,0.168.021,0.9,0.021,1.055a0.581,0.581,0,0,1-.49.744c-0.529,0-1.2-1.14-1.2-3.2a28.081,28.081,0,0,1,.479-4.389,6.725,6.725,0,0,0,.112-1.116,1.889,1.889,0,0,0-.356-1.2,1.857,1.857,0,0,1,1.7,1.667,1.627,1.627,0,0,1-.194.768,10.788,10.788,0,0,0-.938,3.8,0.634,0.634,0,0,0,.234.636,0.53,0.53,0,0,0,.245-0.324c0.3-.719.622-1.69,0.683-1.858l0.082,0.023a19.756,19.756,0,0,0-.378,3.395m6.1,1.3a1.226,1.226,0,0,1-.642-0.444,4.138,4.138,0,0,0-.479-0.492,2.147,2.147,0,0,1-.143.6,1.6,1.6,0,0,1-1.427.72c-0.56,0-1.967-.276-1.967-1.548,0-1.63,1.936-1.535,2.507-1.511-0.041-.587-0.091-1.451-0.071-2.146a6.952,6.952,0,0,1-1.2.143,0.89,0.89,0,0,1-1.04-.863,1.277,1.277,0,0,1,.581-1.08,2.047,2.047,0,0,0-.071.492c0,0.252.082,0.48,0.591,0.48a4.193,4.193,0,0,0,1.163-.2,2.8,2.8,0,0,0-.429-1.955c-0.193.024-.489,0.048-0.581,0.048a1.19,1.19,0,0,1-1.284-1.055,1.389,1.389,0,0,0,.795.167,7.551,7.551,0,0,0,2.436-.515,0.946,0.946,0,0,1,.316-0.06,0.865,0.865,0,0,1,.948.683,0.392,0.392,0,0,1-.357.408c-0.468.1-.937,0.168-1.4,0.228a0.9,0.9,0,0,1,.641.8c0,0.168-.04.623-0.071,0.887a2.05,2.05,0,0,1,.765-0.251,0.7,0.7,0,0,1,.693.659,0.342,0.342,0,0,1-.122.264,5.532,5.532,0,0,1-1.428.528c-0.009.132-.019,0.371-0.019,0.719a7.7,7.7,0,0,0,.173,1.859c1.61,0.7,1.64,1.247,1.64,1.643a0.764,0.764,0,0,1-.519.792M124.038,9.68a0.712,0.712,0,0,0-.836.636,0.993,0.993,0,0,0,1.06.767,0.927,0.927,0,0,0,.937-1.127,2.767,2.767,0,0,0-1.161-.276" transform="translate(0 0)" style="fill:#fff"/><path d="M132.831,12.235c-0.407,0-.428-0.168-0.52-0.852a2.727,2.727,0,0,0-.652-1.571l0.051-.084a3.664,3.664,0,0,0,1.213.612A0.458,0.458,0,0,0,133.341,10a10.041,10.041,0,0,0,.723-3.491c0-.275,0-1-0.468-1a3.318,3.318,0,0,0-.653.1c-0.071.156-.336,0.852-0.387,1-0.173.443-1.488,3.681-1.825,4.4-0.367.779-.468,0.876-0.714,0.876-0.437,0-.549-0.684-0.549-1a2.246,2.246,0,0,1,.631-1.415,15.016,15.016,0,0,0,1.5-2.842c0.082-.205.173-0.432,0.275-0.708a3.709,3.709,0,0,0-1.356.876,0.546,0.546,0,0,1-.356.179,1.262,1.262,0,0,1-.867-1.367,0.994,0.994,0,0,1,.346-0.875c0.1,0.551.215,0.755,0.51,0.755a1.69,1.69,0,0,0,.429-0.048c0.356-.084,1.121-0.3,1.579-0.384a5.361,5.361,0,0,0,.418-1.667,0.816,0.816,0,0,0-.866-0.767,1.116,1.116,0,0,1,.928-0.456,1.333,1.333,0,0,1,1.314,1.091,1.492,1.492,0,0,1-.274.756,6.2,6.2,0,0,0-.439.911C133.983,4.894,135,4.846,135,6.741c0,1.848-.612,5.494-2.171,5.494m4.954-3.119c-0.225,0-.255-0.048-0.53-0.551a2.03,2.03,0,0,0-1.468-.744v-0.1a6.916,6.916,0,0,0,.978-0.24,0.3,0.3,0,0,0,.174-0.3,3.913,3.913,0,0,0-.6-1.559,5.941,5.941,0,0,0-1.081-1.1,3.324,3.324,0,0,1,2.4,1.295,3.932,3.932,0,0,1,.816,2.279,0.871,0.871,0,0,1-.683,1.019" transform="translate(0 0)" style="fill:#fff"/><path d="M141.972,7.761a14.654,14.654,0,0,0-.377,2.819c0,0.155.091,0.875,0.091,1.019a0.507,0.507,0,0,1-.488.588,0.911,0.911,0,0,1-.562-0.276c-0.214-.192-0.7-0.876-0.7-3.179a18.923,18.923,0,0,1,.489-4.125,5.994,5.994,0,0,0,.113-0.96,1.82,1.82,0,0,0-.541-1.331,1.946,1.946,0,0,1,1.947,1.931,1.837,1.837,0,0,1-.255.852,6.025,6.025,0,0,0-.927,3.13,1.068,1.068,0,0,0,.163.8c0.122,0,.153-0.059.387-0.563,0.215-.468.785-1.679,0.928-1.967l0.071,0.048c-0.03.12-.061,0.228-0.336,1.211m4.342,3.55c-0.846,0-3.241-.156-3.241-2.146a1.854,1.854,0,0,1,.275-1.08c0.061,1.691,1.509,1.691,2.2,1.691a2.909,2.909,0,0,0,1.111-.144,1.347,1.347,0,0,1,.4-0.06,1.052,1.052,0,0,1,.907.984c0,0.431-.224.755-1.651,0.755m0.408-6.56a3.613,3.613,0,0,0-2.009,1.043l-0.071-.06c0.061-.084.429-0.635,0.643-0.947a0.284,0.284,0,0,0,.05-0.156c0-.132-0.163-0.132-0.244-0.132a4.749,4.749,0,0,0-1.957.636,3.938,3.938,0,0,1,3.241-1.955,1.134,1.134,0,0,1,1.284.923c0,0.468-.479.564-0.937,0.648" transform="translate(0 0)" style="fill:#fff"/><path d="M156.942,4.223c-1.835.012-2.437,0.408-2.8,0.792a4.13,4.13,0,0,0-1.263,2.938c0,2.195,1.753,2.3,2.8,2.363a1.072,1.072,0,0,1,1.081,1.115,0.664,0.664,0,0,1-.764.72,5.193,5.193,0,0,1-2.559-.744,3.5,3.5,0,0,1-1.355-2.794,5.618,5.618,0,0,1,2.487-4.378,9.058,9.058,0,0,0-3.312,1.6,0.962,0.962,0,0,1-.755.432,1.7,1.7,0,0,1-1.315-1.811,1.984,1.984,0,0,1,.244-1c0.276,0.876.51,1.008,0.847,1.008a27.85,27.85,0,0,0,5.29-1.523,2.4,2.4,0,0,1,1.08-.336,1.193,1.193,0,0,1,1.243,1.007c0,0.612-.427.612-0.947,0.612" transform="translate(0 0)" style="fill:#fff"/><path d="M1.337,41.023V40.239A56.5,56.5,0,0,1,5.1,33.6c1.975-3.164,3.165-5.264,3.165-8.652,0-2.856-1.072-3.892-2.166-3.892-1.214,0-2.5,1.036-2.5,1.96a0.477,0.477,0,0,0,.475.5,1.822,1.822,0,0,1,1.667,1.96,2.1,2.1,0,0,1-1.976,2.268c-0.928,0-1.9-.672-1.9-2.3a5.279,5.279,0,0,1,5.047-5.376c2.333,0,4.951,1.764,4.951,5.516,0,3.248-1.761,4.956-5.093,8.148a23.254,23.254,0,0,0-2.881,3.584H7.026c3.071,0,4.023-2.072,4.571-3.276l0.452,0.168-0.881,6.8H1.337Z" transform="translate(0 0)" style="fill:#fff"/><path d="M19.141,41.554c-3.309,0-5.357-5.292-5.357-10.724,0-5.544,2.095-10.752,5.357-10.752,3.094,0,5.355,4.844,5.355,10.724,0,5.572-2.118,10.752-5.355,10.752m1.19-19.068c-0.167-.7-0.429-1.736-1.19-1.736-0.667,0-1,.9-1.191,1.652-0.309,1.316-.476,8.96-0.476,9.968a33.337,33.337,0,0,0,.667,7.448,1.272,1.272,0,0,0,1,1.036,1.182,1.182,0,0,0,1-1.036c0.643-1.848.643-6.832,0.643-9.016a58.284,58.284,0,0,0-.452-8.316" transform="translate(0 0)" style="fill:#fff"/><path d="M34.136,41.023H26.042v-0.9h0.619a1.61,1.61,0,0,0,1.69-1.9v-14.7a1.124,1.124,0,0,0-1.118-1.344H26.114v-0.9H27.3a9.513,9.513,0,0,0,3.642-.9,2.693,2.693,0,0,1,.69-0.308c0.143,0,.19.112,0.19,0.308V38.195c0,1.2.453,1.932,1.62,1.932h0.69v0.9Z" transform="translate(0 0)" style="fill:#fff"/><path d="M39.18,41.555c-1.31,0-3.38-.644-3.38-2.716,0-1.2.642-2.212,1.762-2.212a1.915,1.915,0,0,1,1.9,1.96,1.85,1.85,0,0,1-.429,1.176,0.658,0.658,0,0,0-.143.392,0.634,0.634,0,0,0,.714.7c2.547,0,2.6-5.124,2.619-8.484a3.5,3.5,0,0,1-2.643,1.148c-2.356,0-4.4-2.128-4.4-6.16,0-4.48,2.618-7.28,5.07-7.28,3.213,0,5.689,3.78,5.689,9.94,0,6.832-3.023,11.536-6.76,11.536m1.4-20.58c-1.381,0-1.69,3.668-1.69,5.852,0,3.864.9,5.4,1.6,5.4,1.5,0,1.738-2.352,1.738-4.928,0-.644-0.048-6.328-1.643-6.328" transform="translate(0 0)" style="fill:#fff"/><path d="M66.334,41.023H58.24v-0.9h0.619a1.61,1.61,0,0,0,1.69-1.9v-14.7a1.124,1.124,0,0,0-1.118-1.344H58.312v-0.9H59.5a9.513,9.513,0,0,0,3.642-.9,2.693,2.693,0,0,1,.69-0.308c0.143,0,.19.112,0.19,0.308V38.195c0,1.2.453,1.932,1.62,1.932h0.69v0.9Z" transform="translate(0 0)" style="fill:#fff"/><path d="M82.743,41.555c-1.31,0-3.38-.644-3.38-2.716,0-1.2.642-2.212,1.761-2.212a1.914,1.914,0,0,1,1.9,1.96,1.844,1.844,0,0,1-.428,1.176,0.657,0.657,0,0,0-.142.392,0.633,0.633,0,0,0,.713.7c2.547,0,2.6-5.124,2.619-8.484a3.5,3.5,0,0,1-2.643,1.148c-2.356,0-4.4-2.128-4.4-6.16,0-4.48,2.618-7.28,5.07-7.28,3.214,0,5.688,3.78,5.688,9.94,0,6.832-3.022,11.536-6.759,11.536m1.4-20.58c-1.381,0-1.689,3.668-1.689,5.852,0,3.864.9,5.4,1.594,5.4,1.5,0,1.738-2.352,1.738-4.928,0-.644-0.048-6.328-1.643-6.328" transform="translate(0 0)" style="fill:#fff"/><path d="M55.89,38.22H52.73v2.831a0.846,0.846,0,0,1-.907.684c-0.387,0-.489-0.229-0.489-0.624,0-.456.031-2.471,0.031-2.891H48.083a5.048,5.048,0,0,0-1.1.084l-0.163-.443a14.2,14.2,0,0,0,1.447.072h0.469V37.357c0-.612,0-1.439-0.03-1.955-0.011-.144-0.072-0.779-0.082-0.911l1.417,0.443h1.325V32.872h-1.55a7.265,7.265,0,0,1-2.69,2.506l-0.062-.084a9.148,9.148,0,0,0,2.049-4.653l1.56,0.719a0.235,0.235,0,0,1,.193.2c0,0.156-.143.192-0.428,0.264-0.1.192-.193,0.372-0.427,0.756h3.75l0.5-.936a0.216,0.216,0,0,1,.152-0.156,0.321,0.321,0,0,1,.183.132l0.99,0.936a0.254,0.254,0,0,1,.1.179,0.135,0.135,0,0,1-.152.133h-2.8v2.062h0.785l0.48-.971a0.219,0.219,0,0,1,.142-0.156,0.33,0.33,0,0,1,.194.132l0.978,0.971a0.264,0.264,0,0,1,.1.18,0.127,0.127,0,0,1-.152.132H52.73v2.711h1.428l0.529-1.02a0.253,0.253,0,0,1,.154-0.144,0.293,0.293,0,0,1,.183.12l0.917,1.02a0.279,0.279,0,0,1,.1.192,0.121,0.121,0,0,1-.153.119m-4.525-3H49.958v2.71h1.407v-2.71Z" transform="translate(0 0)" style="fill:#fff"/><path d="M73.651,31.66l0.358-.683a0.4,0.4,0,0,1,.172-0.228,0.564,0.564,0,0,1,.205.144l1,0.839a0.313,0.313,0,0,1,.131.252,0.692,0.692,0,0,1-.427.516c0,5.133,0,5.864.01,7.1A1.8,1.8,0,0,1,73.3,41.747a2.209,2.209,0,0,0-1.2-1.932v-0.1c0.235,0.035.938,0.084,1.121,0.084,0.51,0,.51-0.108.51-0.864V36.9h-3A6.081,6.081,0,0,1,68,41.806l-0.051-.071c0.988-1.38,1.6-3.035,1.6-6.921,0-1.331-.072-2.7-0.173-3.79L70.95,31.66h2.7Zm-2.833,2.687v0.216c0,1.043-.041,1.8-0.061,2.05h2.976V34.347H70.818Zm0-.288h2.915V31.948H70.818v2.111Z" transform="translate(0 0)" style="fill:#fff"/><path d="M98.645,32.98c0,0.647,0,7.507-.01,7.591a0.788,0.788,0,0,1-.867.72c-0.55,0-.54-0.121-0.529-1.164H93.925a0.9,0.9,0,0,1-.825,1.164,0.619,0.619,0,0,1-.51-0.228,2.478,2.478,0,0,1-.071-1.032c0-.311.061-4.9,0.061-5.828a21.639,21.639,0,0,0-.112-2.843L94.037,32.1h3.12l0.417-.72a0.24,0.24,0,0,1,.194-0.168,0.3,0.3,0,0,1,.2.12l0.989,0.96a0.35,0.35,0,0,1,.122.227,0.674,0.674,0,0,1-.438.457m-1.406-.588H93.926v3.466h3.313V32.392Zm0,3.754H93.926V39.84h3.313V36.146Z" transform="translate(0 0)" style="fill:#fff"/><path d="M107.06,40.655c-0.295,0-.407-0.12-1.192-0.864a4.539,4.539,0,0,0-1.03-.779c-0.082,1.307-.519,2.123-2.058,2.123a1.8,1.8,0,0,1-1.988-1.6c0-1.595,2.232-1.788,2.813-1.835a18.881,18.881,0,0,1-.082-2.351c0-.336.02-2.027,0.02-2.147a1.25,1.25,0,0,0-1.13-1.475,1.415,1.415,0,0,1,1.11-.54c0.388,0,1.5.192,1.5,0.936a6.644,6.644,0,0,1-.133.66c-0.02.1-.122,0.515-0.193,1.043a3.616,3.616,0,0,0,1.468-.564,0.718,0.718,0,0,1,.418-0.168,1,1,0,0,1,.907.828,0.6,0.6,0,0,1-.245.48,3.475,3.475,0,0,1-1.743.407,1.437,1.437,0,0,1-.887-0.288c-0.03.36-.061,0.792-0.061,1.332a14.2,14.2,0,0,0,.122,1.894c0.949,0.217,2.966.66,2.966,2.123a0.709,0.709,0,0,1-.581.78M103.106,38.6c-0.2,0-1.7.072-1.7,0.744a0.746,0.746,0,0,0,.867.611,1.129,1.129,0,0,0,1.335-1.3,1.412,1.412,0,0,0-.5-0.06" transform="translate(0 0)" style="fill:#fff"/><path d="M110.735,42a6.493,6.493,0,0,0,1.835-2.891,11.362,11.362,0,0,0,.57-3.933,9.728,9.728,0,0,0-.163-2.123,0.5,0.5,0,0,0-.407-0.5c-0.734,0-1.621,2.255-1.621,3.754,0,0.252.092,1.379,0.092,1.607a0.628,0.628,0,0,1-.52.768c-0.479,0-1-.756-1-2.579a26.986,26.986,0,0,1,.285-3.382,5.644,5.644,0,0,0,.072-0.7,1.04,1.04,0,0,0-.745-0.983,1.059,1.059,0,0,1,.827-0.372,1.331,1.331,0,0,1,1.325,1.056,3.237,3.237,0,0,1-.4,1.163,6.009,6.009,0,0,0-.57,2.266,0.952,0.952,0,0,0,.092.54,1.018,1.018,0,0,0,.173-0.42c0.55-1.871,1.488-3.334,2.344-3.334,1.264,0,1.6,2.267,1.6,3.694,0,3.958-1.733,5.554-3.771,6.465Z" transform="translate(0 0)" style="fill:#fff"/><path d="M122.541,33.3h-2.569l0.591,0.216a0.176,0.176,0,0,1,.153.156,0.458,0.458,0,0,1-.336.312c-0.031.336-.061,0.684-0.123,1.211h0.632l0.3-.648a0.367,0.367,0,0,1,.2-0.227,0.5,0.5,0,0,1,.235.143l0.723,0.648a0.345,0.345,0,0,1,.154.252,0.746,0.746,0,0,1-.327.42,18.592,18.592,0,0,1-.417,4.4,1.758,1.758,0,0,1-1.723,1.415,1.93,1.93,0,0,0-.867-1.667l0.051-.132c0.235,0.036.816,0.12,0.968,0.12a0.638,0.638,0,0,0,.5-0.672,24.708,24.708,0,0,0,.194-3.766h-0.663a10.649,10.649,0,0,1-2.406,6.009l-0.1-.072a21.16,21.16,0,0,0,1.365-8.12,4.6,4.6,0,0,0-1.213.084l-0.163-.443c0.6,0.06,1.265.071,1.519,0.071a7.3,7.3,0,0,0-.173-2.4l1.589,0.336c0.144,0.035.164,0.059,0.164,0.132,0,0.108-.051.155-0.346,0.336v1.594h0.57l0.439-.9a0.243,0.243,0,0,1,.163-0.156,0.348,0.348,0,0,1,.183.132l0.784,0.9a0.308,0.308,0,0,1,.1.181,0.128,0.128,0,0,1-.153.131m4.465,0.2h-1.479l1,0.6a0.217,0.217,0,0,1,.143.192c0,0.132-.04.156-0.418,0.335a17.712,17.712,0,0,1-1.09,3.562,6.642,6.642,0,0,0,1.875,1.824v0.1a2.033,2.033,0,0,0-1.183,1.5,5.036,5.036,0,0,1-1.477-2.039A6.156,6.156,0,0,1,121.6,41.71l-0.041-.121a7.474,7.474,0,0,0,2.386-3.261,18.434,18.434,0,0,1-.429-3.514,10.8,10.8,0,0,1-1.2,1.751l-0.082-.06a18.394,18.394,0,0,0,1.05-6.009l1.651,0.743a0.229,0.229,0,0,1,.174.192,0.542,0.542,0,0,1-.418.336c-0.061.168-.1,0.3-0.52,1.451h1.162l0.54-.875a0.324,0.324,0,0,1,.163-0.156,0.316,0.316,0,0,1,.183.132l0.836,0.875a0.272,0.272,0,0,1,.1.18,0.127,0.127,0,0,1-.152.132m-2.936,0c-0.092.252-.255,0.708-0.337,0.888a9.82,9.82,0,0,0,.7,2.518,10.587,10.587,0,0,0,.377-3.406H124.07Z" transform="translate(0 0)" style="fill:#fff"/><path d="M136.9,41.41a16.508,16.508,0,0,1-1.815.109c-3.76,0-4.148-1.032-4.566-2.183a19.927,19.927,0,0,1-1.457,2.015c0.01,0.311-.1.359-0.174,0.359-0.112,0-.152-0.072-0.234-0.288l-0.622-1.583a3.5,3.5,0,0,0,1.539-.587V36.229h-0.612a2.621,2.621,0,0,0-.764.084l-0.163-.444a6.5,6.5,0,0,0,.968.073h0.449l0.448-.72a0.315,0.315,0,0,1,.153-0.168,0.326,0.326,0,0,1,.184.12l0.9,0.8a0.351,0.351,0,0,1,.144.2,0.806,0.806,0,0,1-.5.516c0,0.324-.01,1.727,0,2.015a1.3,1.3,0,0,0,.459,1.031,5.913,5.913,0,0,0,2.049-3.717h-0.744a5.08,5.08,0,0,0-1.1.083l-0.162-.443a14.2,14.2,0,0,0,1.447.072h0.591a12.577,12.577,0,0,0,.051-1.764H132.65a5.236,5.236,0,0,0-1.1.073l-0.163-.433c0.632,0.061,1.346.073,1.447,0.073h1.123a22.852,22.852,0,0,0,.652-2.591c0.01-.168.019-0.3,0.019-0.516l1.6,0.864a0.272,0.272,0,0,1,.174.216c0,0.216-.245.227-0.439,0.24a15.209,15.209,0,0,1-1.681,1.787h1.141l0.479-.816a0.261,0.261,0,0,1,.174-0.168,0.351,0.351,0,0,1,.182.132l0.847,0.828a0.241,0.241,0,0,1,.1.18,0.122,0.122,0,0,1-.153.131h-2.365a12.076,12.076,0,0,1-.071,1.764h0.917l0.449-.852a0.26,0.26,0,0,1,.173-0.168,0.272,0.272,0,0,1,.183.12l0.836,0.876a0.318,0.318,0,0,1,.1.191c0,0.121-.092.121-0.163,0.121h-2.538a4.881,4.881,0,0,1-.184.755c0.326,0.1,2.427.708,2.427,1.931a0.782,0.782,0,0,1-.725.827c-0.336,0-.387-0.119-0.744-0.911a6.092,6.092,0,0,0-1.05-1.583,5.288,5.288,0,0,1-2.915,2.806,3.846,3.846,0,0,0,1.631.276,18.356,18.356,0,0,0,4.536-.528v0.1a2.325,2.325,0,0,0-.652,1.714m-6.951-7.735c-0.337,0-.4-0.168-0.6-0.756a3.1,3.1,0,0,0-.907-1.511l0.041-.1c1.916,0.06,2.231.971,2.231,1.475a0.841,0.841,0,0,1-.763.888m2.945-.228c-0.448,0-.52-0.336-0.591-0.708a3.939,3.939,0,0,0-.734-1.643V31c0.357,0.06,2.028.4,2.028,1.572a0.793,0.793,0,0,1-.7.875" transform="translate(0 0)" style="fill:#fff"/><path d="M143.176,31.972c-0.01.288-.01,0.54-0.01,0.947,0,0.2.041,1.164,0.041,1.308a0.7,0.7,0,0,1-.785.719c-0.418,0-.428-0.239-0.428-0.528h-1.5c0.031,0.528.011,2.675,0.011,3.491,0,0.276.03,2.866,0.03,2.962a0.675,0.675,0,0,1-.816.7c-0.459,0-.479-0.336-0.479-0.636,0-.084,0-0.228.011-0.384,0.071-.983.1-5.661,0.1-7.567a15.186,15.186,0,0,0-.092-2.184l1.285,0.54h1.417l0.305-.54a0.233,0.233,0,0,1,.163-0.155,0.409,0.409,0,0,1,.205.108L143.43,31.4a0.279,0.279,0,0,1,.113.2,0.6,0.6,0,0,1-.367.372m-1.182-.348h-1.5v1h1.5v-1Zm0,1.283h-1.5v1.224h1.5V32.907Zm5.982-1.007c-0.071.072-.163,0.144-0.244,0.228v3.19c0,0.612.03,3.274,0.03,3.814,0,1.271,0,1.571-.356,1.931a1.6,1.6,0,0,1-1.142.443,2.067,2.067,0,0,0-1.07-1.654V39.72a5.2,5.2,0,0,0,.948.1c0.438,0,.469-0.035.469-0.647,0-.24-0.011-1.259-0.011-1.475a0.132,0.132,0,0,1-.142.084h-1.346c0,0.443.031,2.374,0.031,2.758s-0.234.588-.826,0.588c-0.264,0-.407-0.048-0.407-0.42,0-.455.02-2.507,0.02-2.926h-0.877a3.649,3.649,0,0,1-2.018,3.346l-0.071-.06a5.361,5.361,0,0,0,1-3.286,4.663,4.663,0,0,0-1.08.084l-0.164-.444a9.143,9.143,0,0,0,1.254.072v-1.5a2.163,2.163,0,0,0-.723.072l-0.163-.432c0.621,0.06,1.344.072,1.457,0.072h2.131l0.437-.768a0.35,0.35,0,0,1,.153-0.143,0.287,0.287,0,0,1,.194.131l0.7,0.756a0.278,0.278,0,0,1,.1.18,0.134,0.134,0,0,1-.153.132h-1v1.5h0.112l0.337-.7a0.2,0.2,0,0,1,.153-0.156,0.344,0.344,0,0,1,.183.132l0.612,0.7a0.361,0.361,0,0,1,.091.144V34.382h-1.457a0.808,0.808,0,0,1-.856.5c-0.265,0-.377-0.072-0.377-0.407,0-.216.02-1.2,0.02-1.392a15.116,15.116,0,0,0-.132-2.3l1.345,0.515h1.427l0.316-.575a0.189,0.189,0,0,1,.132-0.132,0.334,0.334,0,0,1,.195.132l0.795,0.695a0.379,0.379,0,0,1,.131.216,0.365,0.365,0,0,1-.163.264m-4.046,4.09h-0.856c0,0.8-.011,1.2-0.011,1.5h0.867v-1.5Zm2.67-4.4h-1.457V32.62H146.6V31.588Zm0,1.319h-1.457v1.187H146.6V32.907Z" transform="translate(0 0)" style="fill:#fff"/><path d="M153.295,34.215a17.446,17.446,0,0,1-.775,3.826,1.641,1.641,0,0,1,.9,1.271,0.778,0.778,0,0,1-.6.827c-0.356,0-.478-0.227-0.835-0.875a5.774,5.774,0,0,1-2.64,2.422v-0.1a7.947,7.947,0,0,0,1.977-3.237,4.39,4.39,0,0,0-.673-0.624c-0.132.575-.214,0.875-0.682,0.875a0.556,0.556,0,0,1-.591-0.492c0-.071.336-1.4,0.377-1.559,0.346-1.343.53-2.434,0.611-2.854a3.251,3.251,0,0,0-.907.084l-0.163-.444a6.245,6.245,0,0,0,1.111.072,26.265,26.265,0,0,0,.336-2.77l1.336,0.611a0.239,0.239,0,0,1,.173.192,0.459,0.459,0,0,1-.347.312c-0.01.06-.3,1.475-0.326,1.655h0.388l0.377-.636a0.26,0.26,0,0,1,.132-0.155,0.416,0.416,0,0,1,.173.131l0.917,0.852a0.473,0.473,0,0,1,.163.252c0,0.18-.071.192-0.427,0.36m-1.784-.516c-0.336,1.715-.377,1.919-0.795,3.778a7.072,7.072,0,0,1,.795.192,24.438,24.438,0,0,0,.52-3.97h-0.52Zm6.269,2.231a0.707,0.707,0,0,1-.633-0.708c-0.03-.132-0.132-0.72-0.152-0.84a15.082,15.082,0,0,1-2.538,1.536,0.332,0.332,0,0,1-.194.324,0.275,0.275,0,0,1-.173-0.2l-0.662-1.764c0.407,0.013.417,0.013,1.018,0a19.98,19.98,0,0,0,.521-3.262c0.009-.143.03-0.287,0.03-0.4l1.61,0.731a0.221,0.221,0,0,1,.143.18c0,0.1-.081.144-0.377,0.276a25.4,25.4,0,0,1-1.5,2.447,12.5,12.5,0,0,0,2.028-.2,5.623,5.623,0,0,0-.591-1.356l0.072-.036c1.13,0.432,2.12,1.176,2.12,2.279a0.865,0.865,0,0,1-.724,1m0.173,1.751V39.54c0,0.432.03,1.247,0.03,1.3a0.7,0.7,0,0,1-.744.864c-0.52,0-.52-0.24-0.52-0.492,0-.06.01-0.372,0.01-0.444h-1.681c0,0.084-.01.407-0.021,0.468a0.632,0.632,0,0,1-.662.479c-0.52,0-.54-0.335-0.54-0.659,0-.156.051-1.511,0.061-1.775s0.02-.5.02-1.164a12.019,12.019,0,0,0-.061-1.7l1.294,0.467h1.509l0.367-.66a0.241,0.241,0,0,1,.153-0.143,0.377,0.377,0,0,1,.194.132l0.917,0.827a0.28,0.28,0,0,1,.112.216,1.039,1.039,0,0,1-.438.432m-1.213-.516h-1.682v3.322h1.682V37.165Z" transform="translate(0 0)" style="fill:#fff"/><path d="M125.174,22.268c-0.326-.792-0.8-1.931-2.019-1.931-0.193,0-.7,0-0.7.84v6.2a0.857,0.857,0,0,0,.816.948h0.478v0.383h-4.107V28.325h0.428a0.894,0.894,0,0,0,.867-0.948v-6.2a0.688,0.688,0,0,0-.622-0.828,2.026,2.026,0,0,0-1.427.744,3.732,3.732,0,0,0-.684,1.175l-0.326-.18,0.806-2.135h6.044l0.775,2.135Z" transform="translate(0 0)" style="fill:#fff"/><path d="M132.262,20.349a1.075,1.075,0,0,0-.774.923l-2.325,7.664h-0.172l-2.284-7.712a1.011,1.011,0,0,0-.744-0.875h-0.388v-0.4h3.446v0.4h-0.387a0.437,0.437,0,0,0-.438.492,1.934,1.934,0,0,0,.1.5l1.387,4.773,1.468-4.846a1.516,1.516,0,0,0,.091-0.431,0.47,0.47,0,0,0-.408-0.492h-0.479v-0.4h2.385v0.4h-0.479Z" transform="translate(0 0)" style="fill:#fff"/><path d="M135.3,29.08c1.56-1.607,2-5.469,2-5.8a0.662,0.662,0,0,0-.642-0.684,0.717,0.717,0,0,1,.663-0.24,1.581,1.581,0,0,1,1.3.528,11.264,11.264,0,0,0,.9-1.6,0.1,0.1,0,0,0-.1-0.12,23.878,23.878,0,0,0-3.628.756,6.25,6.25,0,0,1-.826.371A1.388,1.388,0,0,1,134,20.876a2.358,2.358,0,0,1,.184-0.947c0.275,0.767.479,0.935,0.856,0.935a38.085,38.085,0,0,0,3.944-.371,1.58,1.58,0,0,0,1-.216,0.755,0.755,0,0,1,.408-0.348,0.954,0.954,0,0,1,.53.407c0.724,0.684.806,0.768,0.806,1.068,0,0.252-.082.276-0.622,0.42a6.536,6.536,0,0,0-.775.5,17.409,17.409,0,0,1-1.743,1.091,5.646,5.646,0,0,0-.133.588c-0.255,1.247-.774,3.838-3.108,5.144Z" transform="translate(0 0)" style="fill:#fff"/><path d="M143.577,25.866c0.092,0,4.608-.372,5.067-0.492,0.112-.024.57-0.288,0.673-0.288a2.321,2.321,0,0,1,1.376.78,0.606,0.606,0,0,1,.122.419,0.47,0.47,0,0,1-.52.516c-0.051,0-.765-0.1-0.826-0.108a15.036,15.036,0,0,0-1.845-.12,7.674,7.674,0,0,0-3.751.744,0.8,0.8,0,0,1-.326.1,2.417,2.417,0,0,1-1.365-1.8,2.953,2.953,0,0,1,.122-0.684,1.21,1.21,0,0,0,1.273.936m1.346-4.558a12.261,12.261,0,0,0,2.549-.348c0.1-.012.55-0.228,0.652-0.228s1.243,0.2,1.243.864c0,0.527-.611.551-0.866,0.564a13.368,13.368,0,0,0-3.333.275,1.094,1.094,0,0,1-.357.072,1.483,1.483,0,0,1-1.2-1.427,1.185,1.185,0,0,1,.05-0.348,1.292,1.292,0,0,0,1.264.576" transform="translate(0 0)" style="fill:#fff"/><path d="M150.9,28.768a14.781,14.781,0,0,0,3.975-4.617,8.989,8.989,0,0,0-2.243-1.787,6.247,6.247,0,0,1,2.732.792,10.591,10.591,0,0,0,.815-2.387,1.09,1.09,0,0,0-.754-0.732,0.83,0.83,0,0,1,.683-0.3,2.268,2.268,0,0,1,1.773,1.511,0.538,0.538,0,0,1-.294.408,1.617,1.617,0,0,0-.287.456,18.3,18.3,0,0,1-.866,1.775,2.725,2.725,0,0,1,1.183,2.063,0.8,0.8,0,0,1-.673.839,1.131,1.131,0,0,1-.795-0.767c-0.092-.132-0.438-0.732-0.51-0.852a8.589,8.589,0,0,1-4.7,3.695Z" transform="translate(0 0)" style="fill:#fff"/><path d="M7.192,57.99a11.2,11.2,0,0,1-1.585,1.333A1.927,1.927,0,0,1,6.743,61a1.108,1.108,0,0,1-.9,1.225c-0.421,0-.449-0.126-0.73-1.207A6.933,6.933,0,0,0,4.3,59l-0.042.054v2.916c0,0.667.027,3.962,0.027,4.16a1.041,1.041,0,0,1-1.024,1.116,0.642,0.642,0,0,1-.688-0.792c0-.252.056-2.5,0.071-3.439l0.042-2.2a11.577,11.577,0,0,1-2.163,1.6l-0.056-.125a18.374,18.374,0,0,0,3.987-7.9H2.574a6.107,6.107,0,0,0-1.516.126l-0.239-.666c0.547,0.072,1.39.108,1.5,0.108H2.574v-0.99a16.521,16.521,0,0,0-.2-2.413l2.091,0.5a0.289,0.289,0,0,1,.253.27,0.927,0.927,0,0,1-.463.576v2.053H4.5l0.337-.7c0.07-.144.1-0.2,0.169-0.2a0.44,0.44,0,0,1,.182.126l1.5,1.278a0.4,0.4,0,0,1,.154.288,0.769,0.769,0,0,1-.491.523A18.393,18.393,0,0,1,4.427,58.8a7.5,7.5,0,0,1,.9.361,25.54,25.54,0,0,0,.857-2.9l1.4,1.206a0.418,0.418,0,0,1,.126.234c0,0.27-.238.288-0.52,0.288m5.686-3.529c0,0.288-.126,5.852-0.2,7.274-0.1,2.179-.225,5.006-2.892,5.42A2.963,2.963,0,0,0,8.3,64.418V64.274a6.041,6.041,0,0,0,1.081.126c1.095,0,1.319-.5,1.474-1.71,0.042-.306.336-7.743,0.281-9.147H9.888c-0.084,3.3-.239,10.083-4.871,13.612l-0.084-.108C7.5,63.1,8.049,58.962,8.021,53.543a6.916,6.916,0,0,0-1.432.108L6.351,53c0.855,0.09,1.852.108,2.006,0.108h2.7l0.435-.864a0.39,0.39,0,0,1,.225-0.288,0.514,0.514,0,0,1,.238.162l1.376,1.26a0.488,0.488,0,0,1,.155.324,1.325,1.325,0,0,1-.6.756" transform="translate(0 0)" style="fill:#fff"/><path d="M26.974,53.382c0,3.115.028,6.446,0.07,9.543,0,0.414.056,2.16,0.056,2.52a1.172,1.172,0,0,1-1.165,1.387c-0.758,0-.758-0.433-0.73-1.405H17.681a1.839,1.839,0,0,1-.141,1.045,1.149,1.149,0,0,1-.955.5c-0.518,0-.645-0.216-0.645-0.829,0-.053.014-0.629,0.014-0.738,0.014-.972.071-6.95,0.071-10.659a21.233,21.233,0,0,0-.253-3.529l2.119,1.027h7.075l0.576-1.1a0.329,0.329,0,0,1,.225-0.234,0.6,0.6,0,0,1,.28.2l1.18,1.206a0.683,0.683,0,0,1,.253.432,0.941,0.941,0,0,1-.506.631m-1.769-.7H17.681V64.995H25.2V52.68ZM23.871,56.8c-0.013.7,0.042,3.817,0.042,4.447,0,0.288,0,1.423-.968,1.423-0.745,0-.716-0.7-0.688-1.351H20.376c0.014,0.648.042,1.585-.927,1.585A0.663,0.663,0,0,1,18.8,62.1c0-1.747.014-3.493-.015-5.222,0-.306-0.069-1.657-0.069-1.927L20.5,55.794h1.713l0.491-.882a0.315,0.315,0,0,1,.225-0.2,0.347,0.347,0,0,1,.2.126l0.927,0.883a0.564,0.564,0,0,1,.253.4,0.911,0.911,0,0,1-.436.684m-1.6-.576h-1.9v4.664h1.9V56.227Z" transform="translate(0 0)" style="fill:#fff"/><path d="M36.074,54.624H32.535l0.815,0.324a0.254,0.254,0,0,1,.21.234,0.661,0.661,0,0,1-.463.468c-0.042.505-.084,1.027-0.168,1.819H33.8l0.407-.973a0.532,0.532,0,0,1,.281-0.341,0.686,0.686,0,0,1,.323.215l1,0.973a0.524,0.524,0,0,1,.211.378,1.1,1.1,0,0,1-.449.63,30.242,30.242,0,0,1-.576,6.608,2.483,2.483,0,0,1-2.373,2.125,2.984,2.984,0,0,0-1.193-2.5l0.07-.2c0.324,0.054,1.123.18,1.334,0.18a0.943,0.943,0,0,0,.688-1.008,40.382,40.382,0,0,0,.266-5.654H32.872a16.854,16.854,0,0,1-3.312,9.021l-0.141-.109A34.294,34.294,0,0,0,31.3,54.624a5.831,5.831,0,0,0-1.671.126l-0.224-.666c0.829,0.09,1.741.108,2.091,0.108a11.919,11.919,0,0,0-.238-3.6l2.19,0.5c0.2,0.054.224,0.09,0.224,0.2,0,0.162-.069.234-0.476,0.5v2.4h0.786l0.6-1.35a0.348,0.348,0,0,1,.225-0.235,0.476,0.476,0,0,1,.252.2l1.081,1.351a0.472,0.472,0,0,1,.14.27,0.18,0.18,0,0,1-.209.2m6.148,0.306H40.186l1.376,0.9a0.323,0.323,0,0,1,.2.288c0,0.2-.056.234-0.575,0.5a28.305,28.305,0,0,1-1.5,5.347,9.517,9.517,0,0,0,2.583,2.737v0.144a3,3,0,0,0-1.629,2.25,7.5,7.5,0,0,1-2.035-3.06,8.57,8.57,0,0,1-3.818,3.2l-0.056-.181a11.237,11.237,0,0,0,3.284-4.9,29.889,29.889,0,0,1-.589-5.275,16.211,16.211,0,0,1-1.657,2.628l-0.112-.09a29.857,29.857,0,0,0,1.446-9.02l2.274,1.116a0.331,0.331,0,0,1,.239.288,0.768,0.768,0,0,1-.576.5c-0.085.253-.14,0.45-0.715,2.179h1.6l0.744-1.315a0.474,0.474,0,0,1,.225-0.233,0.439,0.439,0,0,1,.253.2l1.151,1.314a0.424,0.424,0,0,1,.14.27,0.18,0.18,0,0,1-.21.2m-4.043,0c-0.127.378-.352,1.062-0.464,1.333a15.848,15.848,0,0,0,.969,3.781A17.278,17.278,0,0,0,39.2,54.93H38.179Z" transform="translate(0 0)" style="fill:#fff"/><path d="M56.4,66.8a21.542,21.542,0,0,1-2.5.162c-5.18,0-5.713-1.549-6.289-3.278a29.942,29.942,0,0,1-2.007,3.026c0.013,0.467-.141.54-0.24,0.54-0.154,0-.21-0.109-0.322-0.433L44.19,64.437a4.573,4.573,0,0,0,2.119-.883V59.017H45.467a3.339,3.339,0,0,0-1.053.126l-0.224-.666a8.207,8.207,0,0,0,1.333.108h0.618l0.617-1.08a0.453,0.453,0,0,1,.211-0.252,0.441,0.441,0,0,1,.253.18l1.235,1.206a0.527,0.527,0,0,1,.2.306,1.173,1.173,0,0,1-.688.774c0,0.487-.015,2.593,0,3.025a2.041,2.041,0,0,0,.631,1.549,9.078,9.078,0,0,0,2.822-5.582H50.394a6.407,6.407,0,0,0-1.516.126l-0.224-.666a17.964,17.964,0,0,0,1.993.108h0.814a20.427,20.427,0,0,0,.071-2.647H50.549a6.756,6.756,0,0,0-1.517.108l-0.224-.648c0.87,0.09,1.853.108,1.993,0.108h1.545a36.266,36.266,0,0,0,.9-3.889c0.014-.252.028-0.45,0.028-0.774l2.2,1.3a0.4,0.4,0,0,1,.239.324c0,0.324-.337.342-0.6,0.36A22.027,22.027,0,0,1,52.795,55.2h1.572l0.66-1.224a0.373,0.373,0,0,1,.239-0.252,0.489,0.489,0,0,1,.252.2l1.165,1.242a0.37,0.37,0,0,1,.14.27,0.172,0.172,0,0,1-.209.2H53.357a19.434,19.434,0,0,1-.1,2.647h1.264L55.139,57a0.251,0.251,0,0,1,.491-0.073l1.152,1.315a0.5,0.5,0,0,1,.14.288c0,0.18-.126.18-0.224,0.18H53.2a7.8,7.8,0,0,1-.253,1.134c0.45,0.144,3.341,1.063,3.341,2.9a1.143,1.143,0,0,1-1,1.242c-0.463,0-.533-0.179-1.024-1.368a9.29,9.29,0,0,0-1.446-2.377,7.632,7.632,0,0,1-4.015,4.214,4.91,4.91,0,0,0,2.246.414,23.313,23.313,0,0,0,6.247-.792v0.144a3.664,3.664,0,0,0-.9,2.575M46.828,55.182c-0.463,0-.546-0.252-0.828-1.134a4.715,4.715,0,0,0-1.249-2.269l0.056-.144c2.64,0.09,3.074,1.458,3.074,2.215a1.228,1.228,0,0,1-1.053,1.332m4.058-.342c-0.618,0-.717-0.5-0.814-1.062a6.2,6.2,0,0,0-1.011-2.467V51.167c0.491,0.09,2.794.594,2.794,2.359a1.168,1.168,0,0,1-.969,1.314" transform="translate(0 0)" style="fill:#fff"/><path d="M66.109,66.149H61.072V65.541h0.385a1.058,1.058,0,0,0,1.051-1.292V54.276a0.742,0.742,0,0,0-.7-0.912h-0.7V52.756h0.741a5.527,5.527,0,0,0,2.267-.608,1.6,1.6,0,0,1,.429-0.209c0.089,0,.119.076,0.119,0.209V64.23c0,0.817.282,1.311,1.007,1.311h0.43v0.608Z" transform="translate(0 0)" style="fill:#fff"/><path d="M81.72,59.809H79.866c0,0.631.014,3.386,0.014,3.962,0,1.548,0,2.016-.674,2.683a2.9,2.9,0,0,1-1.754.773,2.951,2.951,0,0,0-1.348-2.79V64.293c0.239,0.036,1.137.144,1.418,0.144,0.477,0,.631-0.054.631-0.99V59.809H75.907a5.589,5.589,0,0,0-1.516.126l-0.224-.666c0.87,0.09,1.852.108,1.993,0.108h1.993c-0.013-1.89-.013-2.106-0.055-2.538H75.009a8.7,8.7,0,0,0-1.179.054c0,2.287,0,3.385.056,5.762,0,0.323.014,0.594,0.014,0.666a1.035,1.035,0,0,1-1.039,1.206c-0.716,0-.7-0.432-0.66-1.423H71.163c0,0.505,0,1.387-.028,1.531a1.1,1.1,0,0,1-1.011.792c-0.533,0-.533-0.45-0.533-0.738,0-.27.055-1.458,0.055-1.711,0.029-.9.015-1.368,0.015-5.653,0-1.1,0-4.016-.085-4.915a4.952,4.952,0,0,0-.168-0.955L71.4,52.373h0.7l0.408-.846a0.377,0.377,0,0,1,.181-0.216,0.548,0.548,0,0,1,.253.18l1.236,1.189a0.319,0.319,0,0,1,.126.252,0.879,0.879,0,0,1-.492.63v1.62l0.015,1.17c0.435,0.037,1.348.055,1.432,0.055h1.263V53.886H76.061a5.534,5.534,0,0,0-1.515.126l-0.225-.666a20.467,20.467,0,0,0,2.2.108,13.249,13.249,0,0,0-.2-3.061l2.1,0.522a0.284,0.284,0,0,1,.281.252,0.963,0.963,0,0,1-.435.612v1.675h1.1l0.5-1.044a0.417,0.417,0,0,1,.239-0.289,0.483,0.483,0,0,1,.267.2l1.165,1.117a0.334,0.334,0,0,1,.126.252,0.184,0.184,0,0,1-.21.2H78.28v2.521H79.6l0.562-1.3a0.315,0.315,0,0,1,.211-0.252,0.6,0.6,0,0,1,.267.2l1.123,1.314a0.37,0.37,0,0,1,.139.27,0.184,0.184,0,0,1-.21.2H79.276l0.731,0.252a0.309,0.309,0,0,1,.253.252,0.7,0.7,0,0,1-.408.522c0,0.306,0,.432.014,1.512h0.183l0.35-.882a0.422,0.422,0,0,1,.225-0.288,0.469,0.469,0,0,1,.267.2L81.8,59.359a0.432,0.432,0,0,1,.126.271,0.19,0.19,0,0,1-.21.179m-9.519-7H71.163v4.5H72.2v-4.5Zm0,4.933H71.163v4.934H72.2V57.739Zm4.085,6.068a0.91,0.91,0,0,1-.687-0.792,9.772,9.772,0,0,0-1.011-2.467l0.056-.126c1.516,0.144,2.569.846,2.569,2.16a1.146,1.146,0,0,1-.927,1.225" transform="translate(0 0)" style="fill:#fff"/><path d="M89.7,51.852a0.361,0.361,0,0,1,.139.288,0.927,0.927,0,0,1-.5.666c0,0.234-.014.684-0.014,0.972,0,0.36.056,2.161,0.056,2.557a0.872,0.872,0,0,1-.884,1.08,0.65,0.65,0,0,1-.674-0.846H86.171c0.015,1.17.015,3.511,0.015,5.275,0,0.613.042,3.583,0.042,4.25a1.121,1.121,0,0,1-1.236,1.044,0.539,0.539,0,0,1-.575-0.684c0-.522.084-3.115,0.1-3.709,0.028-.757.028-7.653,0.028-8.823a16.825,16.825,0,0,0-.169-3.061l1.8,0.918h1.657l0.351-.864a0.308,0.308,0,0,1,.183-0.252,0.427,0.427,0,0,1,.211.126ZM86.157,53.9h1.656V52.212H86.157V53.9Zm0,2.233h1.656v-1.8H86.157v1.8Zm8.353-5.312a0.322,0.322,0,0,1,.183-0.234,0.359,0.359,0,0,1,.2.108l1.32,1.26a0.365,0.365,0,0,1,.126.252,0.464,0.464,0,0,1-.084.252,2.788,2.788,0,0,1-.337.379v6.3c0,0.828.056,4.483,0.056,5.239,0,0.918,0,2.5-2.288,2.719-0.351-1.621-.491-1.819-1.432-2.467a0.98,0.98,0,0,1-.885.36c-0.519,0-.533-0.324-0.519-0.738H89.119a0.8,0.8,0,0,1-.926.973c-0.547,0-.618-0.307-0.618-0.721,0-.558.042-3.025,0.042-3.529a21.594,21.594,0,0,0-.084-2.7l1.727,0.558h1.614l0.267-.684a0.363,0.363,0,0,1,.211-0.252,0.486,0.486,0,0,1,.28.18l1,0.937a0.422,0.422,0,0,1,.169.341,0.411,0.411,0,0,1-.127.271,4.361,4.361,0,0,1-.308.342c-0.042.7,0.042,4.123,0,4.393,0.126,0.018,1.235.108,1.445,0.108,0.351,0,.351-0.144.351-1.422V56.5H92.1a1.251,1.251,0,0,1-.07.486,1.284,1.284,0,0,1-1,.45c-0.45,0-.547-0.36-0.547-0.792,0-.306.027-1.639,0.027-1.909,0-2.016-.042-2.809-0.126-3.853l1.741,0.847h1.951ZM90.861,59.27H89.12V61.2h1.741V59.27Zm0,2.358H89.12v2.2h1.741v-2.2Zm3.3-9.471H92.1v1.729h2.063V52.157Zm0,2.161H92.1v1.746h2.063V54.318Z" transform="translate(0 0)" style="fill:#fff"/><path d="M98.4,65.427a18.02,18.02,0,0,0,5.11-6.032,22.149,22.149,0,0,0,2.33-5.131c-0.35.144-1.922,0.666-2.232,0.81a6.658,6.658,0,0,0-1.572.9,0.466,0.466,0,0,1-.337.144c-0.463,0-1.249-1.26-1.249-2.5a2.908,2.908,0,0,1,.14-1.08,1.645,1.645,0,0,0,1.531,1.333,15.3,15.3,0,0,0,4.014-.811,3.263,3.263,0,0,0,.3-0.378,0.249,0.249,0,0,1,.225-0.144,4.612,4.612,0,0,1,1.039.919,1.138,1.138,0,0,1,.589.846c0,0.216-.042.252-0.351,0.468a2.285,2.285,0,0,0-.758,1.279,21.8,21.8,0,0,1-1.726,3.366,11.149,11.149,0,0,1,3.663,2.539,2.622,2.622,0,0,1,.786,1.855,1.306,1.306,0,0,1-1.011,1.494,0.805,0.805,0,0,1-.7-0.63,25.759,25.759,0,0,0-1.867-3.619,8.215,8.215,0,0,0-1.053-1.333c-1.165,1.855-3.411,4.844-6.808,5.834Z" transform="translate(0 0)" style="fill:#fff"/><path d="M112.113,58.856A2.979,2.979,0,0,0,113,57.9c0.379-.522,2.092-3.079,2.26-3.277a1.168,1.168,0,0,1,.856-0.432c0.66,0,.9.306,2.358,2.2a16.376,16.376,0,0,0,3.735,3.673,3.266,3.266,0,0,1,1.5,2.665,0.915,0.915,0,0,1-.7.972c-0.814,0-2.148-1.441-4.984-5.708a21.516,21.516,0,0,0-1.376-1.944,0.445,0.445,0,0,0-.308-0.18c-0.366,0-.884,1.026-1.291,1.8a15.189,15.189,0,0,0-1.376,3.1c-0.141.522-.225,0.738-0.618,0.738-0.73,0-1.937-1.368-1.937-2.809a1.411,1.411,0,0,1,.126-0.72,1.411,1.411,0,0,0,.87.883m9.42-3.062a1.8,1.8,0,1,1,1.361-1.746,1.568,1.568,0,0,1-1.361,1.746m0-2.646a0.94,0.94,0,1,0,.7.9,0.822,0.822,0,0,0-.7-0.9" transform="translate(0 0)" style="fill:#fff"/><path d="M127.144,56.262c1.783,0,2.3,1.116,2.3,1.819a1.007,1.007,0,0,1-.913,1.134,1.084,1.084,0,0,1-.814-0.576c-1.5-1.693-2.161-1.89-2.569-2.016a6.864,6.864,0,0,1,1.994-.361m8.717-1.062c-0.94,3.943-4.225,7.8-6.106,9.417a6.917,6.917,0,0,0-.969.954c-0.224.378-.281,0.45-0.477,0.45a3.321,3.321,0,0,1-1.881-3.187,5.262,5.262,0,0,1,.07-0.72c0.533,1.1.927,1.206,1.1,1.206,0.885,0,5.924-4.339,8.156-8.156Zm-7.945-3.259c1.39,0,2.6.648,2.6,1.783a1.123,1.123,0,0,1-.842,1.242,0.967,0.967,0,0,1-.717-0.468c-1.418-1.693-1.67-2-2.5-2.305a4.35,4.35,0,0,1,1.46-.252" transform="translate(0 0)" style="fill:#fff"/><path d="M142.762,61.178a21.137,21.137,0,0,0,.969-3.295c-0.646.27-.969,0.414-2.359,1.045,0.59,2.916.646,3.24,0.884,4.212,0.211,0.865.576,2.287,0.576,2.575a0.715,0.715,0,0,1-.576.846c-0.589,0-1.08-1.062-1.137-1.638a43.845,43.845,0,0,0-.87-5.474,7.92,7.92,0,0,0-1.867,1.189,0.6,0.6,0,0,1-.449.306c-0.421,0-1.235-1.243-1.235-2.125a2.614,2.614,0,0,1,.1-0.666,1.228,1.228,0,0,0,.9.792,10.183,10.183,0,0,0,2.288-.7c-0.492-2.2-.6-2.629-1.727-2.629a1.372,1.372,0,0,1,1.305-.81c0.351,0,1.418.108,1.418,0.684,0,0.126-.071.648-0.071,0.756a13.792,13.792,0,0,0,.253,1.6c2.191-.738,2.345-0.793,2.556-0.972a3.2,3.2,0,0,1,.589-0.667c0.127,0,1.629,1.063,1.629,1.531,0,0.162-.112.234-0.506,0.468a4.148,4.148,0,0,0-.954,1.08,18.517,18.517,0,0,1-1.643,1.927Z" transform="translate(0 0)" style="fill:#fff"/><path d="M146.92,66.309a13.522,13.522,0,0,0,2.148-4.249,19.767,19.767,0,0,0,.8-5.276,1.436,1.436,0,0,0-1.18-1.62,1.953,1.953,0,0,1,1.138-.541,2.952,2.952,0,0,1,1.727.991,0.691,0.691,0,0,1,.2.486,3.068,3.068,0,0,1-.21.756c-0.042.09-.281,1.963-0.337,2.305-0.268,1.674-.871,5.311-4.226,7.274Zm12.452-9.381c-0.828,3.943-3.032,6.032-5.012,7.887-0.182.179-.548,0.522-0.561,0.54a0.427,0.427,0,0,1-.267.108c-0.491,0-1.193-1.549-1.193-2.143,0-.216.2-1.1,0.224-1.278,0.071-.576.168-3.781,0.168-4.61a15.5,15.5,0,0,0-.28-3.457,1.362,1.362,0,0,0-1.053-.666,1.667,1.667,0,0,1,1.025-.648c0.464,0,2.134.81,2.134,1.621a7.414,7.414,0,0,1-.225.81,38.476,38.476,0,0,0-.337,4.573c-0.014.36-.07,2.286-0.07,2.395,0,0.126.028,0.2,0.112,0.2,0.632,0,3.791-2.827,5.251-5.4Z" transform="translate(0 0)" style="fill:#fff"/></svg>