<svg xmlns="http://www.w3.org/2000/svg" viewBox="0 0 19.888 16.155"><title>tw_red</title><g style="isolation:isolate"><path d="M19.944,2.834a8.151,8.151,0,0,1-2.343.643,4.1,4.1,0,0,0,1.793-2.256,8.219,8.219,0,0,1-2.593.991A4.083,4.083,0,0,0,9.85,5.931,11.582,11.582,0,0,1,1.442,1.668,4.085,4.085,0,0,0,2.7,7.114,4.073,4.073,0,0,1,.856,6.6V6.653a4.084,4.084,0,0,0,3.272,4,4.133,4.133,0,0,1-1.075.143,3.918,3.918,0,0,1-.768-0.076A4.082,4.082,0,0,0,6.1,13.554,8.186,8.186,0,0,1,1.029,15.3a8.648,8.648,0,0,1-.973-0.056A11.533,11.533,0,0,0,6.31,17.077,11.528,11.528,0,0,0,17.917,5.47L17.9,4.942A8.148,8.148,0,0,0,19.944,2.834Z" transform="translate(-0.056 -0.923)" style="fill:#a90f22"/></g></svg>